<svg width="1124" height="1561" viewBox="0 0 1124 1561" fill="none" xmlns="http://www.w3.org/2000/svg">
<g clip-path="url(#clip0_53_2947)">
<path d="M498.181 1026.73L410.781 1011.31C388.201 1007.3 365.641 1002.93 342.931 999.681C303.031 994.081 262.601 994.581 222.888 987.401C191.618 981.741 160.598 977.851 128.884 975.781C101.125 973.961 68.333 972.121 46.98 951.951C20.919 927.321 28.157 884.941 28.221 852.661C28.778 819.101 30.984 785.981 30.864 752.461C30.387 700.641 25.438 645.926 29.529 594.296C37.982 487.63 23.561 382.618 25.803 276.305C26.322 251.714 29.288 226.583 29.362 201.744C29.406 186.735 33.572 164.904 43.85 153.431C50.391 146.388 67.504 144.339 76.718 142.76C121.267 137.079 163.668 123.356 207.728 115.515C251.191 107.995 295.501 104.895 339.181 98.8058L635.341 55.8308C693.591 47.8998 748.351 43.1588 807.481 34.1988C831.901 30.6168 856.191 26.2858 880.341 21.2118C920.991 12.5078 962.671 1.51182 1004.36 0.00981898C1017.7 -0.471181 1057.92 16.8348 1066.66 26.6168C1083.06 45.5548 1081.67 78.9418 1079.74 102.763C1073.61 178.803 1088.65 253.066 1090.41 328.519C1091.99 395.993 1085.51 463.982 1087.05 531.964C1087.52 558.143 1088.79 584.301 1090.87 610.401C1094.3 652.508 1099.07 691.501 1100.24 734.101C1102.02 790.541 1096.06 846.441 1095.55 902.881C1095.24 936.741 1099.87 972.761 1098.66 1006.37C1098.15 1020.85 1093.86 1052.55 1082.4 1061.61C1066.13 1074.46 1037.06 1082.15 1016.3 1083.74C987.911 1085.09 957.801 1072.44 930.031 1070.81C873.231 1067.49 816.671 1062.34 760.031 1057.9C767.901 1077.81 775.471 1098.93 782.331 1119.17C793.021 1150.7 792.011 1198.18 758.061 1215.44C729.061 1230.18 697.141 1239.06 666.471 1249.76C659.911 1252.05 648.681 1257.36 642.511 1258.43C638.841 1257.3 640.351 1258.3 637.891 1255.24C637.031 1246.56 644.911 1243.58 652.031 1240.65C683.091 1227.71 714.561 1216.64 745.281 1202.8C763.211 1194.72 768.341 1185 771.121 1165.94C774.911 1139.95 763.741 1117 756.141 1092.89C752.261 1080.59 749.461 1068.86 747.081 1056.32C743.121 1055.62 736.821 1055.29 732.651 1054.95C738.751 1082.11 752.221 1109.75 757.301 1138.33C768.181 1199.45 721.381 1205.36 675.971 1220.19C664.251 1224.02 635.961 1238.01 624.811 1229.73C613.471 1205.73 743.821 1199.44 743.451 1160.36C743.101 1123.51 727.491 1090.04 718.961 1054.38C718.481 1052.34 688.811 1050.61 685.681 1050.33C646.381 1047.06 607.151 1042.91 568.041 1037.91C546.761 1035.01 525.351 1030.97 504.031 1027.69C517.591 1057.32 519.791 1069.03 527.301 1100.43C531.731 1106.76 533.901 1120.78 530.561 1127.63C530.301 1124.49 530.321 1123.01 530.401 1119.92L528.491 1121.09C526.691 1136.13 525.821 1139.32 516.521 1151.62C497.111 1177.3 371.171 1184.12 359.051 1200.71C366.811 1211.92 477.581 1224.52 497.161 1229.05C523.031 1235.03 553.941 1245.15 580.091 1249.23C591.851 1251.07 611.891 1245.29 619.201 1251.16C620.601 1255.26 620.521 1253.27 619.681 1257.36C617.331 1260.83 613.451 1261.37 609.571 1262.16C598.671 1264.38 586.261 1263.88 575.321 1262.24C560.911 1260.09 547.061 1255.15 533.061 1251.27C519.501 1247.52 505.691 1244.42 491.961 1241.41C458.871 1234.18 372.621 1227.85 348.781 1210.88C346.021 1208.92 344.291 1206.08 343.901 1202.72C342.981 1194.77 348.171 1188.38 354.591 1184.42C385.951 1165.12 488.761 1161.35 508.011 1137.12C522.041 1119.45 508.241 1076.72 503.641 1056.87C501.241 1046.93 499.421 1036.87 498.181 1026.73Z" fill="#161513"/>
<path d="M527.301 1100.43C531.731 1106.76 533.901 1120.78 530.561 1127.63C530.301 1124.49 530.321 1123.01 530.401 1119.92L528.491 1121.09C528.691 1114.11 527.921 1107.39 527.301 1100.43Z" fill="#F5F4EE"/>
<path d="M991.301 17.7011C996.631 17.0261 1002.66 16.7921 1007.99 17.4361C1015.77 18.3751 1022.86 21.7261 1027.64 28.0871C1031.91 33.7781 1033.62 40.7621 1034.45 47.7081C1036.57 65.5141 1033.68 84.6371 1034.25 102.661C1035.27 134.702 1039.03 166.566 1039.81 198.661C1040.91 249.286 1040.69 299.931 1039.16 350.544C1037.03 407.866 1032.75 464.946 1033.83 522.359L1039.04 718.491C1039.85 740.741 1042.04 762.961 1042.49 785.221C1043.41 830.921 1041.94 876.311 1041.5 921.971C1041.17 955.801 1046.11 988.981 1041.46 1022.86C1039.92 1034.06 1036.91 1047.92 1027.05 1054.78C1022.4 1058.01 1016.06 1058.78 1010.54 1058.66C1001.1 1058.45 991.581 1056.08 982.321 1054.32C962.811 1050.62 943.191 1046.08 923.381 1044.27C891.471 1041.35 859.101 1042.62 827.111 1040.36C792.731 1037.93 758.441 1033.54 724.121 1030.37C684.331 1026.69 644.431 1024.13 604.661 1020.23C524.211 1012.34 445.571 995.281 365.661 984.071C328.631 978.881 291.631 977.991 254.501 974.441C231.571 972.241 208.688 967.891 185.898 964.511C171.388 962.921 157.168 961.541 142.548 960.361C102.554 957.121 45.514 960.331 42.357 905.591C37.918 853.891 47.423 797.041 43.89 745.731C38.407 666.101 41.6489 590.174 43.6589 510.605C44.9879 457.991 38.362 401.94 35.951 349.052C34.169 300.862 34.359 252.619 36.52 204.444C38.391 161.012 46.297 154.008 87.941 149.938C94.412 149.306 113.289 146.628 119.374 144.963C192.768 124.883 266.281 117.858 341.651 110.293C363.481 108.066 386.761 103.46 408.861 100.434L641.491 69.3501C682.881 64.0411 725.081 62.2881 766.571 56.0411C796.551 51.5271 826.181 47.4661 856.071 42.0881C900.441 34.1031 946.651 21.8721 991.301 17.7011Z" fill="#F5F4EE"/>
<path d="M979.061 56.6529C981.741 56.1679 984.511 56.13 987.231 56.172C992.461 56.251 996.851 57.9369 1000.44 61.8349C1004.89 66.6659 1006.64 73.4379 1007.41 79.7949C1009.45 96.6159 1007.54 115.699 1007.42 132.789C1007.44 159.774 1007.86 186.756 1008.67 213.728C1010.47 286.912 1020.16 359.73 1020.67 432.893C1021.15 502.741 1016.05 572.399 1014.65 642.206C1013.9 680.154 1017.24 718.111 1016.07 756.011C1015.01 789.951 1010.84 823.571 1010.54 857.621C1010.39 873.631 1010.32 889.741 1011.21 905.741C1012.42 927.321 1014.78 948.681 1013.72 970.321C1013.36 977.681 1014.31 997.511 1008.4 1002.41C980.151 1025.81 911.051 1004.94 876.661 1001.8C826.061 997.181 775.021 994.951 724.601 988.761C695.711 985.221 666.601 981.361 637.931 976.291C612.731 971.831 587.721 966.171 562.461 962.091C511.451 953.841 460.101 948.131 409.101 940.051C365.471 933.141 322.701 922.531 279.241 915.111C258.971 911.641 238.481 909.551 218.028 907.511C192.538 906.321 94.7171 898.631 76.7021 885.591C70.5601 881.141 69.5991 868.851 68.5851 861.801C64.3671 832.531 65.1141 803.811 65.5921 774.361C65.9441 749.171 66.1681 723.981 66.2621 698.791C66.3621 642.578 64.1941 586.414 64.7751 530.183C65.3481 474.814 68.7131 419.501 70.3411 364.167C70.8921 338.179 70.7781 312.181 69.9991 286.199C69.0201 261.205 67.0191 235.727 68.0881 210.741C68.4121 203.163 69.0921 193.691 74.0151 187.586C77.7071 183.006 84.3891 180.847 89.9531 179.781C131.677 171.791 174.308 167.451 216.408 161.955L371.021 140.281C503.391 121.274 635.191 98.4309 767.761 80.9009C804.441 76.0329 841.211 71.839 878.051 68.323C895.541 66.713 913.161 66.209 930.611 64.228C946.851 62.384 962.861 58.8209 979.061 56.6529Z" fill="#161513"/>
<path d="M977.181 124.686C978.551 124.405 980.211 124.445 981.611 124.364C983.151 126.026 982.831 128.023 982.891 130.251C983.341 145.521 982.581 160.994 982.511 176.281L982.821 263.18C985.021 415.451 985.701 567.741 984.861 720.021C984.731 759.971 983.091 799.951 983.131 839.861C983.181 880.651 986.181 921.641 985.161 962.391C892.881 956.741 800.691 944.301 708.771 934.481C585.661 921.331 462.121 909.511 339.481 892.481C312.351 887.821 284.291 884.001 256.831 881.991C255.731 819.681 256.981 757.161 256.841 694.821L256.751 220.732C338.551 208.653 420.911 199.649 502.841 188.398C660.841 166.305 818.961 145.067 977.181 124.686Z" fill="#F5F4EE"/>
<path d="M558.241 786.901C586.001 802.831 610.881 813.231 641.381 796.221C677.711 775.961 699.311 750.311 711.101 710.421C714.931 697.471 717.061 682.727 710.071 670.199C701.371 654.675 685.271 655.879 670.251 651.673C659.851 648.761 653.111 645.051 645.791 636.964C624.821 613.787 641.031 586.297 632.881 558.154C628.571 543.241 623.961 540.284 616.471 527.404C610.941 517.906 609.681 506.613 612.761 496.096C619.481 473.157 642.811 461.793 655.721 443.108C663.151 431.517 666.571 417.892 671.291 405.122C677.051 389.251 685.761 373.973 694.361 359.553C702.641 345.682 713.271 337.314 727.571 330.169C732.081 327.916 737.191 325.119 742.451 327.218C744.501 328.038 746.521 330.234 746.901 332.417C748.421 340.084 728.241 351.584 722.571 355.128C692.631 373.827 680.691 395.012 673.401 429.189C671.001 439.147 667.541 452.279 661.451 460.634C646.851 480.657 624.891 476.014 622.001 506.219C619.421 533.091 643.271 532.311 647.871 555.318C651.811 575.055 646.501 596.661 653.131 616.298C662.541 645.917 682.221 638.721 704.671 650.018C715.341 655.627 721.311 664.429 724.871 675.587C731.111 694.811 726.731 714.661 720.621 733.321C715.841 747.921 710.881 765.131 698.721 775.361C688.901 783.621 677.061 790.251 666.131 797.091C651.461 806.261 636.291 816.171 619.561 821.021C601.591 826.271 578.671 822.211 562.301 813.361C552.401 808.211 547.021 798.661 541.341 789.641C525.551 764.581 522.031 733.071 526.161 704.191C527.861 692.361 530.751 664.448 518.861 657.431C517.401 657.34 515.311 656.88 514.371 657.707C500.651 674.109 501.271 704.371 494.241 725.981C487.651 746.261 466.871 764.931 445.881 753.851C400.041 729.651 443.971 650.79 432.031 612.04C430.911 608.388 425.001 608.95 422.731 611.383C404.031 640.087 404.951 683.188 402.081 716.701C401.851 719.321 399.941 720.431 398.081 721.721C393.411 722.481 386.011 720.141 386.311 714.561C387.541 691.261 392.411 667.74 395.581 644.583C396.501 637.79 408.531 616.543 399.041 612.733C397.521 612.945 396.291 613.127 394.951 613.998C374.861 627.102 375.581 651.113 373.921 671.439L371.111 704.011C370.441 711.311 370.691 724.601 363.251 728.111C359.071 727.151 355.761 724.111 356.431 719.731C360.331 694.131 362.801 668.418 365.401 642.629C365.911 637.526 364.821 632.292 361.311 628.593C326.831 616.325 345.371 731.441 334.261 745.501C309.931 755.291 327.471 663.493 329.391 652.862C329.931 649.918 328.671 645.961 327.301 643.266C325.121 641.716 324.861 641.03 321.551 641.718C290.791 648.099 307.501 763.451 287.391 765.981C278.291 756.851 285.511 611.027 333.811 635.925C343.041 623.775 358.781 610.109 370.901 627.007C378.091 612.827 391.821 594.917 408.351 608.87C417.891 598.465 421.371 594.663 436.011 597.728C451.591 612.941 446.481 637.785 442.871 657.201L443.721 656.347C447.411 655.02 495.901 653.395 499.201 654.543C508.681 643.636 520.131 642.276 530.831 652.465C543.901 672.114 535.781 704.141 539.431 727.791C542.811 749.781 547.761 766.991 558.241 786.901Z" fill="#161513"/>
<path d="M442.871 657.201L443.721 656.347C447.411 655.02 495.901 653.395 499.201 654.543L498.421 655.733C488.381 671.339 489.651 684.749 487.601 702.791C485.791 718.721 474.261 753.221 452.321 735.771C435.291 721.151 439.471 676.298 442.871 657.201Z" fill="#F5F4EE"/>
<path d="M347.921 344.626C372.431 349.224 386.081 347.4 406.061 364.5C438.611 392.35 436.181 449.825 407.451 480.614L407.631 481.465C398.371 480.007 396.011 470.102 386.751 462.5C389.281 466.711 399.441 480.41 399.921 481.912L399.481 483.49L399.851 485.038C374.841 500.567 368.681 498.074 340.061 495.839C313.751 493.784 305.211 488.227 294.131 462.6C286.351 444.604 286.381 407.716 294.161 389.484C306.381 360.841 320.281 355.249 347.921 344.626Z" fill="#C72707"/>
<path d="M355.351 437.142C296.781 434.455 366.681 361.711 365.571 427.302C371.141 436.377 400.271 474.036 407.451 480.614L407.631 481.465C398.371 480.007 396.011 470.102 386.751 462.5C389.281 466.711 399.441 480.41 399.921 481.912L399.481 483.49C394.381 478.829 385.491 466.469 379.741 460.626C371.521 452.266 363.251 445.58 355.351 437.142Z" fill="#181210"/>
<path d="M346.971 350.318C357.271 349.824 371.501 352.135 381.371 355.061C398.261 360.07 412.381 376.88 420.531 391.866C421.521 393.685 422.941 395.917 423.411 397.938C424.891 404.212 424.781 431.997 423.441 437.829C422.071 443.791 418.371 448.818 416.921 454.565C415.031 462.035 411.131 468.795 405.491 474.17C398.061 464.409 375.351 436.547 371.791 426.731C369.681 420.926 369.451 414.326 367.691 408.362C366.521 404.359 364.321 401.192 360.521 399.317C355.581 396.88 347.991 396.583 342.871 398.682C337.411 400.926 332.301 406.045 329.991 411.471C327.571 417.294 327.461 423.817 329.681 429.719C335.851 438.903 346.161 440.481 355.291 445.645C366.501 451.987 380.441 463.717 387.371 474.518C389.251 477.457 389.811 479.659 389.061 483.151C386.971 486.478 384.661 488.168 381.011 489.679C367.161 495.424 334.071 493.901 320.601 487.697C310.161 482.891 302.421 471.82 298.461 461.357C290.621 440.628 291.221 408.035 300.551 387.854C311.951 363.207 322.811 359.343 346.971 350.318Z" fill="#F03906"/>
<path d="M386.751 462.5C396.011 470.102 398.371 480.007 407.631 481.465C430.151 502.203 431.631 503.169 449.141 527.406C466.571 527.211 487.271 523.312 505.081 521.971C526.401 520.366 546.921 520.079 568.281 519.963C568.541 563.141 570.151 609.283 569.471 652.062C558.701 652.207 540.761 651.714 530.831 652.465C520.131 642.276 508.681 643.636 499.201 654.543C495.901 653.395 447.411 655.02 443.721 656.347L442.871 657.201C446.481 637.785 451.591 612.941 436.011 597.728C438.051 596.4 437.201 589.569 437.111 586.99C436.431 568.606 437.101 550.406 438.791 532.096C429.871 519.977 410.531 498.019 399.851 485.038L399.481 483.49L399.921 481.912C399.441 480.41 389.281 466.711 386.751 462.5Z" fill="#C72707"/>
<path d="M459.171 531.822C483.941 527.199 512.231 525.86 537.371 525.272C544.341 525.109 552.911 523.876 559.441 525.114C561.171 526.341 562.641 527.283 562.741 529.865C563.461 548.211 566.011 633.775 562.781 644.563C554.621 649.944 535.701 649.431 527.611 643.484C517.251 635.867 500.421 649.381 491.961 649.877C481.541 650.489 460.161 652.286 450.301 651.314C445.521 644.952 450.911 625.34 449.621 616.106C448.821 610.374 441.681 598.979 441.411 595.617C440.151 580.094 441.851 563.002 442.521 547.727L443.591 546.047C447.701 547.584 470.471 576.292 471.711 580.82C476.741 599.254 481.711 612.791 504.601 606.413C514.141 603.751 518.881 582.652 512.371 573.38L510.571 572.996C507.341 570.384 504.331 568.814 500.761 566.769C499.331 566.367 490.231 564.049 489.551 563.436C480.601 555.326 462.561 543.482 459.171 531.822Z" fill="#F03906"/>
<path d="M458.611 541.256C467.451 549.856 480.501 560.27 487.851 568.791L488.551 569.595C493.601 567.989 495.541 567.282 500.761 566.769C504.331 568.814 507.341 570.384 510.571 572.996C512.191 583.084 516.291 586.208 509.821 596.65C499.001 614.087 469.821 599.055 480.221 580.378C479.841 573.883 479.131 574.281 474.451 569.202C467.461 561.635 460.441 551.479 458.611 541.256Z" fill="#1A110E"/>
<path d="M386.751 462.5C396.011 470.102 398.371 480.007 407.631 481.465C430.151 502.203 431.631 503.169 449.141 527.406C451.621 531.08 456.561 537.808 458.611 541.256C460.441 551.479 467.461 561.635 474.451 569.202C479.131 574.281 479.841 573.883 480.221 580.378C470.601 575.189 447.731 542.925 438.791 532.096C429.871 519.977 410.531 498.019 399.851 485.038L399.481 483.49L399.921 481.912C399.441 480.41 389.281 466.711 386.751 462.5Z" fill="#170E0A"/>
<path d="M854.291 367.542C869.891 339.84 892.251 374.422 909.051 363.157C916.931 357.874 936.491 324.018 948.151 324.691L949.101 325.862C947.861 331.76 923.821 356.962 917.751 363.939C923.331 363.914 931.081 362.944 935.821 364.103C941.251 369.603 941.541 418.348 942.611 430.113C948.671 430.269 950.841 429.75 955.011 435.046C954.281 439.326 946.081 440.375 942.271 440.189C889.891 437.641 837.681 445.103 785.711 442.097C784.451 442.024 779.651 440.99 779.511 439.586C777.231 417.118 773.571 347.694 778.981 329.261L780.251 328.236L779.451 328.437L780.721 329.068C782.051 335.101 781.691 345.118 782.001 351.664C782.761 367.811 782.611 385.117 784.521 401.167L786.191 400.559C786.081 404.585 785.451 410.657 787.231 414.068C787.061 417.317 786.791 417.443 787.971 420.384C793.411 417.049 793.881 413.104 796.021 407.045C796.881 403.575 801.141 394.393 802.721 391.184C805.781 386.363 807.681 382.067 813.341 380.762C820.571 381.833 826.001 390.966 834.761 395.173C840.721 394.2 842.061 393.532 846.641 389.731C846.661 389.675 855.241 377.413 856.941 374.315C855.441 374.035 854.071 374.417 852.631 374.777C853.481 372.436 853.831 371.677 854.121 369.186L854.291 367.542Z" fill="#F9EFE6"/>
<path d="M942.611 430.113C948.671 430.269 950.841 429.75 955.011 435.046C954.281 439.326 946.081 440.375 942.271 440.189C889.891 437.641 837.681 445.103 785.711 442.097C784.451 442.024 779.651 440.99 779.511 439.586C777.231 417.118 773.571 347.694 778.981 329.261L780.251 328.236L779.451 328.437L780.721 329.068C782.051 335.101 781.691 345.118 782.001 351.664C782.761 367.811 782.611 385.117 784.521 401.167L786.191 400.559C786.081 404.585 785.451 410.657 787.231 414.068C787.061 417.317 786.791 417.443 787.971 420.384C793.411 417.049 793.881 413.104 796.021 407.045C796.881 403.575 801.141 394.393 802.721 391.184C805.781 386.363 807.681 382.067 813.341 380.762C820.571 381.833 826.001 390.966 834.761 395.173C840.721 394.2 842.061 393.532 846.641 389.731C847.541 393.305 846.341 427.206 846.461 433.963C852.281 433.552 873.231 432.849 877.291 431.598L886.611 431.19C895.601 431.171 907.351 431.477 916.071 430.519C924.511 430.447 934.291 430.603 942.611 430.113Z" fill="#1A110E"/>
<path d="M802.721 391.184C805.781 386.363 807.681 382.067 813.341 380.762C820.571 381.833 826.001 390.966 834.761 395.173C840.721 394.2 842.061 393.532 846.641 389.731C847.541 393.305 846.341 427.206 846.461 433.963L821.321 435.658C815.721 436.554 803.781 437.134 797.751 437.23C797.361 428.044 797.181 415.952 796.021 407.045C796.881 403.575 801.141 394.393 802.721 391.184Z" fill="#F5F4EE"/>
<path d="M796.021 407.045C796.881 403.575 801.141 394.393 802.721 391.184C807.671 391.338 812.461 390.823 816.571 393.2C822.481 402.173 816.611 432.109 821.321 435.658C815.721 436.554 803.781 437.134 797.751 437.23C797.361 428.044 797.181 415.952 796.021 407.045Z" fill="#C72707"/>
<path d="M805.131 393.895C807.191 394.181 810.101 394.429 811.441 396.174C816.751 403.103 816.251 420.02 814.501 428.296C813.811 431.554 812.041 432.172 809.451 433.744C807.611 433.518 805.191 433.392 803.641 432.306C801.361 430.706 800.651 427.23 800.151 424.694C798.201 414.92 799.571 402.295 805.131 393.895Z" fill="#F03906"/>
<path d="M784.521 401.167L786.191 400.559C786.081 404.585 785.451 410.657 787.231 414.068C787.061 417.317 786.791 417.443 787.971 420.384C793.411 417.049 793.881 413.104 796.021 407.045C797.181 415.952 797.361 428.044 797.751 437.23C793.161 437.526 787.711 438.866 784.601 435.347L784.821 431.91C784.601 421.622 784.321 411.463 784.521 401.167Z" fill="#F9EFE6"/>
<path d="M914.341 366.427L917.751 363.939C923.331 363.914 931.081 362.944 935.821 364.103C941.251 369.603 941.541 418.348 942.611 430.113C934.291 430.603 924.511 430.447 916.071 430.519C915.651 420.917 916.021 371.051 914.341 366.427Z" fill="#C72707"/>
<path d="M923.981 368.113C927.511 368.876 929.641 369.595 932.541 371.773C937.211 380.167 936.461 406.51 936.451 416.968C936.451 420.629 936.211 422.989 933.491 425.705C930.531 426.1 925.171 427.325 922.781 425.094C918.041 420.682 919.241 409.312 919.131 403.101C918.991 394.594 917.581 378.972 921.101 371.091C921.471 370.275 923.291 368.828 923.981 368.113Z" fill="#F03906"/>
<path d="M856.941 374.314L857.431 374.432C860.631 377.43 864.611 375.99 869.941 378.087C871.051 395.029 869.261 415.327 870.511 430.406C873.021 432.276 873.391 431.576 877.291 431.597C873.231 432.848 852.281 433.551 846.461 433.962C846.341 427.205 847.541 393.304 846.641 389.73C846.661 389.674 855.241 377.412 856.941 374.314Z" fill="#C72707"/>
<path d="M857.791 381.008C859.141 380.931 858.381 380.936 860.321 381.118C862.521 381.323 862.821 381.738 864.141 383.569C868.851 390.111 867.421 418.621 865.251 426.608C863.071 428.694 861.371 428.769 858.491 429.501C856.041 429.568 854.401 429.386 852.081 428.599C849.201 420.621 850.831 397.858 850.941 388.208C853.001 385.644 855.471 383.348 857.791 381.008Z" fill="#F03906"/>
<path d="M885.721 390.183C893.111 389.394 900.101 389.515 907.521 389.498C908.511 402.683 907.281 415.848 908.031 429.16C910.591 430.633 912.841 430.308 916.071 430.519C907.351 431.477 895.601 431.171 886.611 431.19C884.731 419.575 885.211 401.896 885.721 390.183Z" fill="#C72707"/>
<path d="M891.311 394.09C892.981 393.934 895.031 393.572 896.681 393.777C899.311 394.102 900.571 394.932 902.151 397.015C907.281 403.784 904.371 417.957 902.411 425.538C900.571 425.67 898.231 426.059 896.431 425.787C894.051 425.429 892.631 423.789 891.481 421.81C887.321 414.664 889.411 401.766 891.311 394.09Z" fill="#F03906"/>
<path d="M914.341 366.427C916.021 371.051 915.651 420.917 916.071 430.519C912.841 430.308 910.591 430.633 908.031 429.16C907.281 415.848 908.511 402.683 907.521 389.498C900.101 389.515 893.111 389.394 885.721 390.183C885.211 401.896 884.731 419.575 886.611 431.19L877.291 431.598C873.391 431.577 873.021 432.277 870.511 430.407C869.261 415.328 871.051 395.03 869.941 378.088C880.881 388.279 865.891 423.876 877.741 428.972L879.531 428.041C882.211 423.549 881.971 419.796 881.281 414.702C877.221 384.494 883.421 383.913 912.121 388.581L912.301 387.537C913.571 379.198 913.271 376.84 912.381 368.382L914.341 366.427Z" fill="#FCE5D7"/>
<path d="M854.291 367.542C869.891 339.84 892.251 374.422 909.051 363.157C916.931 357.874 936.491 324.018 948.151 324.691L949.101 325.862C947.861 331.76 923.821 356.962 917.751 363.939L914.341 366.427L912.381 368.382C885.881 382.577 875.481 346.164 857.431 374.433L856.941 374.315C855.441 374.035 854.071 374.417 852.631 374.777C853.481 372.436 853.831 371.677 854.121 369.186L854.291 367.542Z" fill="#161513"/>
<path d="M842.801 893.801L844.551 892.691C843.021 886.331 841.531 880.001 841.131 873.431C840.621 865.081 841.601 856.641 841.441 848.271C841.271 838.951 838.381 761.461 840.741 757.751C842.541 754.921 845.521 753.851 848.691 753.351C855.661 752.251 863.241 754.201 870.051 755.641L875.091 762.021C874.941 784.841 873.341 807.371 873.571 830.211C873.731 846.011 871.161 859.001 875.491 874.761C873.501 880.811 870.731 886.311 873.381 892.071L875.021 892.701C876.771 891.221 877.961 890.201 878.081 887.481C878.781 871.321 876.451 810.271 882.931 799.131C888.701 795.471 904.301 798.111 909.721 801.721C912.111 806.561 911.471 881.141 911.001 891.891C899.201 898.011 893.311 895.151 885.881 898.231C879.931 898.881 849.011 894.971 842.801 893.801Z" fill="#F9EFE6"/>
<path d="M845.361 756.211C852.131 755.971 863.721 755.201 869.451 759.131C873.641 773.771 870.741 826.171 870.701 843.601C870.671 855.481 871.801 867.521 871.451 879.351C871.341 882.991 870.601 886.661 869.921 890.231C861.681 890.141 853.541 889.281 845.371 888.271C844.161 855.571 843.741 822.841 844.101 790.121C844.231 779.331 843.191 766.721 845.361 756.211Z" fill="#C72707"/>
<path d="M850.951 760.251C853.941 760.101 857.451 759.651 860.391 760.191C862.511 760.591 865.331 762.451 866.201 764.491C867.981 768.671 866.961 785.391 867.081 790.721C867.451 806.291 866.281 821.791 866.601 837.311C866.871 850.461 868.911 863.781 868.691 876.891C868.631 880.291 867.731 883.221 866.511 886.361C863.131 886.761 859.791 887.011 856.391 886.691C853.241 886.391 851.711 885.521 849.721 883.131C847.281 870.351 849.221 856.311 849.111 843.321C848.921 819.231 847.331 795.061 848.851 770.981C849.091 767.161 849.561 763.851 850.951 760.251Z" fill="#F03906"/>
<path d="M884.781 800.351C891.791 800.671 901.891 799.8 907.681 804.25C909.021 814.15 907.781 824.981 907.941 835.021C908.211 852.101 910.101 870.53 908.731 887.49C908.601 889.07 908.211 890.081 907.361 891.401C898.741 891.461 890.191 891.231 881.581 890.791C880.821 876.671 881.001 811.221 884.781 800.351Z" fill="#C72707"/>
<path d="M888.831 807.031C893.281 806.271 897.991 805.221 902.081 807.621C905.001 812.531 905.401 870.391 904.521 879.411C904.191 882.791 903.351 884.341 900.821 886.541C896.141 886.391 889.791 886.861 886.291 883.431C883.881 873.451 885.261 816.941 888.831 807.031Z" fill="#F03906"/>
<path d="M875.971 176.275L879.561 175.957C883.451 177.85 884.441 181.439 886.671 184.99C888.381 187.709 891.061 190.894 894.471 191.277C900.821 191.992 905.041 187.109 909.151 183.118C913.851 186.043 922.121 190.197 923.081 196.23C923.811 200.816 920.071 204.495 917.471 207.867C918.371 210.067 919.251 212.382 920.491 214.418C923.841 219.935 930.551 220.571 936.331 221.892C936.011 255.991 922.461 240.729 914.551 253.158C913.141 259.269 915.771 264.493 918.311 269.847C913.271 274.686 908.191 278.874 902.041 282.242C900.331 280.28 898.921 278.056 897.151 276.142C894.821 273.609 893.711 273.47 890.331 273.215C888.461 273.698 886.341 274.145 884.571 274.938C879.431 277.238 878.091 282.336 876.001 287.152C868.871 285.996 862.571 283.668 855.901 281.008C856.481 278.42 857.271 275.618 857.331 272.963C857.471 267.228 851.901 263.119 848.161 259.501L835.021 261.541C832.181 255.344 830.291 249.529 828.611 242.929C831.561 240.552 835.631 238.452 838.061 235.647C840.041 233.354 841.341 230.145 840.691 227.093C839.551 221.726 834.231 218.376 830.221 215.162C833.181 208.523 836.611 202.772 840.911 196.927C845.041 199.178 850.191 201.77 855.091 200.354C862.741 198.142 862.191 186.944 865.921 181.192C867.921 178.101 872.581 177.276 875.971 176.275Z" fill="#C72707"/>
<path d="M873.511 181.353C882.101 181.792 882.771 191.476 891.011 193.653C898.661 195.672 905.621 188.956 912.531 191.173C922.421 194.349 911.811 207.677 914.771 215.189C917.591 222.331 928.301 222.228 931.321 229.023C934.191 235.465 918.681 244.636 914.651 249.053C906.591 257.89 913.371 262.758 909.561 270.76C906.431 277.356 894.601 268.682 886.641 270.944C886.311 271.038 885.981 271.141 885.651 271.24C881.981 270.401 876.001 278.991 871.491 280.296C859.261 279.475 861.931 265.093 854.191 258.876C849.831 255.368 842.731 255.717 838.231 252.054C829.691 245.112 843.581 238.497 845.271 231.586C847.401 222.896 837.901 218.31 838.251 210.665C838.571 203.73 854.671 204.472 859.691 201.709C867.561 197.37 866.991 186.999 873.511 181.353Z" fill="#F03906"/>
<path d="M882.321 209.782C886.741 209.542 890.841 210.642 894.311 213.436C898.561 216.865 900.561 221.808 901.011 227.165C901.831 237.03 898.391 243.067 892.421 250.332C887.731 251.943 883.481 253.079 878.541 253.741C875.701 252.517 872.721 251.292 870.201 249.472C864.701 245.504 860.261 239.463 859.321 232.64C858.621 227.948 859.851 223.174 862.721 219.398C867.581 213.068 874.811 210.97 882.321 209.782Z" fill="#C72707"/>
<path d="M876.501 214.814C882.461 213.143 888.861 214.878 893.161 219.332C897.471 223.785 898.981 230.24 897.101 236.142C895.231 242.045 890.271 246.443 884.181 247.597C875.321 249.28 866.701 243.676 864.641 234.888C862.581 226.101 867.811 217.25 876.501 214.814Z" fill="#F5F4EE"/>
<path d="M637.701 202.198C648.311 203.11 657.181 206.27 664.981 213.834C671.671 220.32 676.671 229.905 676.391 239.395C676.301 242.376 675.961 246.372 673.681 248.501C670.991 249.33 668.511 249.919 666.311 251.784C666.171 255.117 668.031 258.28 669.351 261.325C666.721 268.961 663.731 276.699 659.171 283.417C651.651 294.5 642.251 300.293 629.181 302.838C620.751 301.404 610.621 299.902 603.541 294.86C594.071 288.124 588.521 276.655 586.901 265.373C585.231 253.754 587.781 242.198 595.051 232.888C600.961 225.319 609.741 217.312 619.361 215.378C622.011 214.843 625.271 215.199 627.791 214.425C630.191 213.689 630.921 210.549 631.811 208.49C633.261 205.144 634.631 204.018 637.701 202.198Z" fill="#FCE5D7"/>
<path d="M620.271 217.265C621.361 217.554 622.751 218.335 623.791 218.807C628.291 224.847 627.421 249.016 627.751 257.436C639.121 257.557 651.171 253.394 662.271 254.839C663.791 255.946 665.231 256.846 665.961 258.67C667.251 261.868 666.011 265.675 664.761 268.679C659.071 282.367 649.201 292.548 635.691 298.509C627.551 300.492 619.011 300.087 611.251 296.705C601.501 292.454 594.501 283.937 591.071 273.982C587.221 262.813 588.481 250.899 593.711 240.391C599.311 229.144 608.291 221.06 620.271 217.265Z" fill="#C72707"/>
<path d="M613.631 223.606C616.491 223.45 618.251 223.304 620.851 224.784C623.261 229.23 621.851 236.716 621.991 241.761C622.151 247.701 622.531 257.073 627.731 261.034C636.241 267.525 645.221 259.311 654.021 259.209C656.941 259.176 657.331 259.864 659.141 261.841C660.021 264.688 660.381 266.53 659.621 269.465C657.281 278.506 648.641 286.506 641.061 291.145C636.231 294.338 626.781 295.396 621.131 294.73C613.281 293.804 605.871 289.29 601.021 283.115C594.861 275.258 592.731 265.727 594.031 255.913C595.981 241.33 602.351 232.259 613.631 223.606Z" fill="#F03906"/>
<path d="M636.031 205.149C637.091 205.14 638.161 205.118 639.211 205.167C648.911 205.611 657.641 210.513 663.911 217.819C669.031 223.794 674.771 233.375 673.791 241.618C673.431 244.704 672.591 245.281 670.181 247.127C662.771 247.611 644.001 251.979 638.311 248.131C636.101 246.639 634.971 243.989 634.341 241.495C632.021 232.238 631.341 213.324 636.031 205.149Z" fill="#C72707"/>
<path d="M641.621 210.128C643.831 210.213 646.091 210.439 648.241 210.971C654.751 212.585 661.501 220.221 664.781 225.806C666.771 229.204 668.631 234.035 667.221 237.961C666.161 240.892 664.131 241.986 661.621 243.448C655.821 243.812 644.991 245.955 640.491 241.677C637.281 238.632 636.261 233.186 636.151 228.97C635.961 222.182 636.931 215.245 641.621 210.128Z" fill="#F03906"/>
<path d="M902.331 536.507C909.981 528.595 926.971 495.283 944.661 505.072L945.051 507.281C941.871 513.83 931.431 511.717 921.821 524.827L921.071 525.863C917.741 530.962 915.761 534.276 912.931 539.689C902.111 555.902 882.701 615.333 853.731 595.616C847.661 591.481 843.271 582.41 839.431 575.99C815.781 556.808 806.841 595.558 782.791 609.354C779.851 613.772 777.611 617.543 773.851 621.316C773.461 623.8 773.321 623.64 771.591 625.539C765.991 625.485 765.901 619.613 759.611 618.402L759.511 612.385C759.491 606.671 759.781 603.373 760.391 597.82C760.641 603.165 759.711 602.904 762.441 605.999C768.361 607.737 773.901 603.563 779.501 600.545C790.141 584.262 797.351 556.247 815.001 546.773C828.971 539.271 841.961 559.734 846.521 570.275C854.531 576.243 858.131 579.173 868.231 575.361C871.141 577.312 872.101 577.61 873.511 580.845C877.661 577.92 878.401 577.523 881.631 573.741C881.071 570.859 879.061 569.485 876.831 567.198C886.951 556.639 890.741 545.76 902.331 536.507Z" fill="#1A110E"/>
<path d="M831.301 561.763C835.151 567.193 836.491 570.042 839.431 575.99C815.781 556.808 806.841 595.558 782.791 609.354C785.441 604.057 787.851 598.905 791.061 593.928C803.081 593.139 804.031 560.167 831.301 561.763Z" fill="#C72707"/>
<path d="M791.061 593.928C795.981 582.373 803.521 567.432 812.361 558.413C819.931 550.688 825.941 554.472 831.301 561.763C804.031 560.167 803.081 593.139 791.061 593.928Z" fill="#F9EFE6"/>
<path d="M759.511 612.385C759.491 606.671 759.781 603.373 760.391 597.82C760.641 603.165 759.711 602.904 762.441 605.999C768.361 607.737 773.901 603.563 779.501 600.545C776.151 606.934 772.331 613.864 769.401 620.394L773.851 621.316C773.461 623.8 773.321 623.64 771.591 625.539C765.991 625.485 765.901 619.613 759.611 618.402L759.511 612.385Z" fill="#C72707"/>
<path d="M759.511 612.385C761.761 614.374 768.161 618.797 769.401 620.394L773.851 621.316C773.461 623.8 773.321 623.64 771.591 625.539C765.991 625.485 765.901 619.613 759.611 618.402L759.511 612.385Z" fill="#F9EFE6"/>
<path d="M876.831 567.198C886.951 556.639 890.741 545.76 902.331 536.507C896.831 548.908 889.091 566.026 881.241 576.841L881.631 573.741C881.071 570.859 879.061 569.485 876.831 567.198Z" fill="#C72707"/>
<path d="M846.521 570.274C854.531 576.242 858.131 579.172 868.231 575.36C871.141 577.311 872.101 577.609 873.511 580.844C866.811 585.882 862.751 586.078 854.411 585.003C850.751 579.174 849.311 576.553 846.521 570.274Z" fill="#C72707"/>
<path d="M881.631 573.741L881.241 576.841C873.631 587.227 866.361 597.477 854.411 585.004C862.751 586.079 866.811 585.883 873.511 580.845C877.661 577.92 878.401 577.523 881.631 573.741Z" fill="#FCE5D7"/>
<path d="M370.061 244.741C372.201 244.991 373.061 245.306 374.731 246.671C378.001 254.95 373.231 272.025 373.371 281.719L373.411 283.554C377.231 277.232 380.101 270.367 384.321 264.278C386.051 261.782 387.921 259.001 391.061 258.383L392.501 259.994C393.461 265.256 392.231 269.625 391.021 274.7C395.161 269.42 399.441 262.839 404.461 258.395C406.661 256.454 407.711 256.014 410.591 256.139C415.981 260.844 415.681 269.395 416.521 276.054C420.851 271.767 425.291 264.887 430.721 262.105C438.021 258.357 442.031 266.689 448.561 267.784C455.131 268.883 462.371 263.257 467.831 260.241C475.181 256.183 482.851 253.442 491.201 256.325C493.701 257.185 494.691 257.807 495.711 260.21L494.461 262.195C488.561 265.447 483.141 263.692 477.081 265.534C466.961 268.608 459.321 274.619 448.481 276.777L446.691 276.077C441.701 274.152 437.701 271.296 433.351 268.254L429.321 273.072C426.801 276.101 424.351 279.497 420.561 281.014C418.301 281.922 415.981 282.346 413.741 281.077C408.951 278.366 408.341 270.442 407.471 265.577L402.341 272.406C399.671 275.936 397.201 279.816 392.581 280.467C391.611 279.606 390.061 277.869 388.901 277.398C385.941 276.197 378.321 288.917 373.151 291.014C370.911 291.921 370.581 291.597 368.511 290.677C364.981 285.098 365.021 278.658 365.161 272.289L365.151 271.369L364.271 271.339C361.181 277.556 357.941 284.956 352.711 289.651C350.161 291.934 348.271 292.24 344.951 292.086C342.311 290.592 341.281 289.557 339.771 286.908C339.621 286.653 339.481 286.394 339.341 286.137C336.181 286.531 330.211 296.379 325.261 298.371C323.921 298.204 322.981 298.453 322.051 297.332C317.161 291.417 318.551 277.793 318.971 270.651C315.251 278.676 308.811 297.117 300.481 300.251C297.851 300.096 296.551 300.208 294.471 298.321C292.581 296.601 292.291 292.15 292.101 289.763C291.301 279.544 292.701 256.662 299.451 248.947L301.081 248.921L301.741 250.563C299.351 261.727 294.581 280.778 298.591 291.732L300.221 292.41C310.571 285.022 313.661 259.11 323.451 254.494L325.131 255.575C328.961 265.653 326.741 280.157 326.551 290.86C330.821 284.525 333.641 277.633 337.511 271.088C339.141 268.324 340.371 266.365 343.551 265.585L345.401 267.449C347.611 273.115 346.901 279.363 346.801 285.358C357.251 272.849 361.071 257.863 370.061 244.741Z" fill="#161513"/>
<path d="M807.521 883.371C808.191 866.701 804.611 805.091 809.511 795.481C814.511 792.111 821.351 793.141 827.061 794.311C829.151 794.751 831.231 795.251 833.291 795.801C835.671 825.621 835.751 855.581 833.511 885.411C832.261 888.171 831.801 889.491 830.111 892.041L812.201 890.411C810.161 887.991 808.401 886.391 807.521 883.371Z" fill="#C72707"/>
<path d="M807.521 883.371C813.691 884.891 827.581 886.911 833.511 885.411C832.261 888.171 831.801 889.491 830.111 892.041L812.201 890.411C810.161 887.991 808.401 886.391 807.521 883.371Z" fill="#FCE5D7"/>
<path d="M815.071 797.511C819.601 797.881 824.881 798.871 828.461 801.751C830.011 807.861 828.671 816.751 828.751 823.181C828.991 842.111 830.881 861.641 828.931 880.521L824.411 882.921C820.081 883.081 816.861 883.371 813.271 880.651C809.841 871.341 809.681 815.461 811.221 803.911C811.691 800.461 812.421 799.731 815.071 797.511Z" fill="#F03906"/>
<path d="M389.151 819.681C390.961 810.721 394.131 793.161 404.541 791.021L406.511 792.391C409.731 798.151 409.551 804.01 409.581 810.5C410.061 813.78 409.491 814.44 411.401 815.87C412.381 814.33 412.691 814.06 413.341 812.37C415.921 808.31 418.051 805.151 423.011 807.141C426.251 810.401 426.671 813.141 428.091 817.521C439.641 807.521 443.641 804.851 453.111 817.831C458.791 815.251 472.201 808.85 477.511 813.26C475.481 821.37 460.101 824.171 452.911 823.211C447.861 822.531 445.991 818.79 443.261 815C437.721 819.11 432.651 824.921 425.821 822.391C422.601 819.361 422.131 817.031 420.441 812.781C417.981 817.711 415.191 826.021 408.691 824.031C404.331 818.431 403.971 803.76 402.711 795.49C397.341 805.25 393.141 835.75 386.861 838.88L384.751 837.951C380.551 830.931 382.121 821.211 381.111 812.451C378.051 808.281 374.841 813.541 372.241 810.651C370.981 809.251 372.241 806.261 368.511 803.581C357.411 804.221 345.311 846.351 329.201 808.931C325.721 814.721 322.861 821.811 315.241 821.141C309.631 817.011 308.381 805.501 306.381 797.951C303.241 802.201 299.961 806.591 297.911 811.471C296.281 815.381 296.071 818.111 293.631 821.811L292.751 820.521C292.651 811.791 298.091 790.721 310.381 794.951C315.011 800.231 315.171 809.651 315.971 816.701C336.851 788.301 331.951 809.84 341.091 815.13C356.681 816.99 356.201 786.071 374.471 799.051C386.381 807.511 386.181 805.691 389.151 819.681Z" fill="#161513"/>
<path d="M756.661 644.289C778.051 643.444 799.451 641.99 820.721 641.083C846.581 639.979 875.121 646.995 901.271 646.324C913.291 646.521 945.991 640.755 953.821 645.134C955.281 648.359 954.961 646.584 953.791 650.764C906.801 656.597 867.471 652.815 820.941 647.639C805.641 645.938 770.511 654.125 757.411 647.432C756.541 645.348 756.461 646.171 756.661 644.289Z" fill="#161513"/>
<path d="M759.441 889.511C776.641 888.691 795.011 889.611 812.201 890.411L830.111 892.041C834.161 892.661 838.761 893.481 842.801 893.801C849.011 894.971 879.931 898.881 885.881 898.231C896.521 899.641 939.651 895.261 940.631 905.991C932.901 914.071 825.341 900.591 808.141 897.761C796.971 895.931 766.341 896.781 758.351 891.971L759.441 889.511Z" fill="#161513"/>
<path d="M773.331 828.091C779.231 827.941 789.541 826.501 794.561 829.981C799.961 841.341 798.251 870.001 796.991 883.131L775.611 882.711C770.461 865.391 771.041 845.861 773.331 828.091Z" fill="#C72707"/>
<path d="M781.071 831.181C784.381 831.551 787.191 831.741 790.151 833.401C792.201 837.001 792.511 840.761 792.751 844.821C793.121 850.941 794.191 871.621 791.821 876.581C791.301 877.661 790.231 878.381 789.441 879.281C786.191 878.631 781.811 878.331 779.451 875.921C774.731 866.161 773.221 846.821 776.381 836.311C777.281 833.311 778.461 832.721 781.071 831.181Z" fill="#F03906"/>
<path d="M598.931 345.884C600.611 346.624 601.511 347.417 602.781 348.726C602.591 353.477 599.141 357.416 595.631 360.468C593.191 362.584 589.301 365.22 585.871 364.505C582.981 363.903 580.351 360.355 578.461 358.195C573.491 359.063 572.071 363.915 567.561 364.133C563.921 362.255 562.371 359.219 560.251 355.853C557.331 360.335 554.631 364.952 550.761 368.68C546.491 369.333 541.121 365.41 536.951 363.719C535.271 364.378 533.961 365.018 532.111 364.919C530.391 364.826 528.651 362.325 527.441 361.107C519.891 360.434 518.501 370.197 511.961 370.395C507.071 370.543 504.431 367.815 501.041 364.737C496.901 369.219 493.621 373.555 487.601 375.439C485.891 375.138 484.891 375.306 483.601 374.014C479.721 370.115 480.101 363.234 479.711 358.065C473.931 362.615 470.001 367.905 465.791 373.849C464.401 373.125 465.161 373.673 463.821 371.843C463.931 369.791 464.471 368.388 465.441 366.611C468.521 360.933 473.191 354.266 479.601 352.372C481.271 352.748 482.181 352.633 483.411 353.952C487.291 358.119 486.751 364.597 486.961 369.938C489.741 366.871 492.501 363.585 495.531 360.768C497.401 359.028 499.701 357.962 502.311 358.256C505.941 358.665 508.831 362.471 511.241 364.973C514.161 362.044 524.261 351.165 528.391 352.619C529.731 353.087 531.301 355.298 532.601 355.577C534.591 356.006 537.551 354.857 539.721 355.13C542.531 355.483 545.231 360.426 546.901 362.625C551.641 357.124 556.141 351.685 561.971 347.297C564.351 350.165 566.401 353.334 568.541 356.387C570.141 354.473 571.781 352.338 573.621 350.646C575.641 348.778 577.111 348.667 579.741 348.703C583.301 350.488 585.011 353.823 587.121 357.051C590.881 352.946 594.411 349.179 598.931 345.884Z" fill="#161513"/>
<path d="M770.641 697.871C771.981 698.081 773.221 698.521 774.511 698.911C779.981 705.021 779.351 718.751 780.121 726.691C785.101 720.151 790.331 704.791 797.741 702.041L799.831 703.511C802.041 707.611 801.721 712.371 801.921 716.931C804.141 713.991 807.051 709.281 810.491 707.781C811.801 707.211 813.241 707.001 814.521 707.651C818.511 709.681 819.431 715.941 820.581 719.891C822.341 718.401 824.131 716.801 826.111 715.581C828.581 714.061 831.681 713.391 834.501 714.321C837.381 715.271 839.511 717.901 840.451 720.701C841.391 723.521 841.041 725.451 839.661 727.981L837.321 728.191C834.551 726.711 833.661 724.411 832.241 721.761L831.581 720.511L824.911 727.121C822.231 727.561 819.851 728.041 817.331 726.751C813.501 724.791 812.801 717.991 811.911 714.191C809.271 718.111 807.111 722.001 803.001 724.511C800.271 724.891 800.311 724.951 798.011 723.441C795.481 719.581 795.511 715.301 795.081 710.831C793.271 715.441 791.301 720.231 788.691 724.461C786.371 728.221 784.331 731.221 779.911 732.261C779.011 731.901 778.451 731.751 777.691 731.041C772.001 725.681 772.151 710.601 770.971 702.871C764.601 711.541 762.391 720.991 758.261 730.691C759.651 718.291 761.101 706.921 770.641 697.871Z" fill="#161513"/>
<path d="M756.661 644.289C754.321 642.516 752.991 640.439 752.871 637.461C752.331 618.844 753.141 598.054 753.421 579.629C753.641 565.505 748.861 504.978 754.991 497.123L756.351 498.226C758.991 507.299 757.891 529.253 758.641 539.567C760.081 559.302 760.671 578.013 760.391 597.82C759.781 603.373 759.491 606.671 759.511 612.385L759.611 618.402C759.731 627.356 761.011 636.802 756.661 644.289Z" fill="#161513"/>
<path d="M580.561 401.658C581.341 401.551 582.111 401.453 582.891 401.365C586.951 400.906 588.561 401.08 591.801 403.68C591.981 405.048 592.491 405.656 591.431 406.768C584.811 413.766 497.021 415.986 481.831 417.059C477.971 417.283 474.291 417.918 470.901 415.71L470.871 414.278C481.941 408.834 531.111 408.182 546.211 406.684C557.681 405.546 569.171 403.47 580.561 401.658Z" fill="#161513"/>
<path d="M755.151 885.13C749.191 858.54 754.991 825.91 756.611 798.99C757.101 790.8 754.471 768.071 757.321 762.061L758.541 762.951C765.921 781.381 759.531 826.131 758.851 846.711C758.471 858.261 759.561 873.961 758.591 884.941L755.151 885.13Z" fill="#161513"/>
<path d="M577.361 384.877C580.381 384.518 584.341 383.782 587.321 384.355C589.641 384.799 590.871 385.749 592.071 387.669C590.541 389.304 588.811 389.466 586.691 389.826C572.281 392.271 556.761 392.178 542.141 393.042C522.181 394.282 502.251 395.796 482.341 397.583C477.411 398.106 473.361 398.665 468.661 396.7L468.221 395.558C479.311 390.34 561.511 386.017 577.361 384.877Z" fill="#161513"/>
<path d="M752.181 256.692C755.211 256.458 758.161 255.987 760.861 257.728C762.841 259.005 763.691 260.045 764.031 262.39C763.851 262.616 763.711 262.87 763.501 263.069C757.871 268.57 718.981 269.276 709.181 270.124C704.301 270.312 699.691 271.125 695.471 268.256L695.561 267.013C704.351 261.345 740.371 257.822 752.181 256.692Z" fill="#161513"/>
<path d="M392.711 856.601C398.771 855.011 404.371 852.161 410.181 849.891C413.481 848.601 416.821 847.881 420.381 847.951C426.671 848.071 432.591 851.341 438.851 851.501C447.251 851.721 460.641 847.831 468.061 852.311C470.881 854.011 470.891 855.411 471.801 858.311C459.311 862.651 433.361 854.011 420.101 853.551C410.531 853.211 404.491 860.901 395.601 861.481C393.181 861.641 390.561 861.011 388.871 859.141C386.171 856.151 386.471 851.681 386.761 847.971C389.811 849.561 391.211 853.611 392.711 856.601Z" fill="#161513"/>
<path d="M527.361 427.65C530.321 427.344 533.621 426.937 536.541 427.694C538.981 428.329 541.341 429.248 542.671 431.494L541.821 432.871C529.501 439.665 500.811 438.118 486.351 437.533C483.041 437.49 479.151 437.748 475.951 436.861C474.231 436.387 473.511 436.22 472.691 434.608C479.121 430.581 516.221 429.3 527.361 427.65Z" fill="#161513"/>
<path d="M752.381 216.322C753.841 216.221 755.741 215.922 757.171 216.179C759.551 216.61 759.821 217.125 760.861 219.056C760.761 219.346 760.691 219.655 760.541 219.926C759.051 222.623 754.951 224.36 752.231 225.462C740.281 230.308 731.811 229.104 720.511 224.122C715.331 225.988 710.551 228.06 705.171 229.401C704.831 229.313 704.491 229.221 704.141 229.136C702.281 228.674 700.261 228.3 698.501 227.534C696.351 226.607 695.221 224.939 694.531 222.782L695.791 221.278C699.301 220.665 701.971 222.412 705.031 223.876C706.041 223.403 707.051 222.953 708.061 222.49C719.631 217.192 728.061 220.969 739.841 219.898C743.971 219.523 748.451 217.643 752.381 216.322Z" fill="#161513"/>
<path d="M774.201 236.709C777.991 236.234 780.331 236.28 783.661 238.078L784.181 239.949C779.261 244.632 717.061 248.138 706.141 248.876C702.601 249.241 700.241 249.45 696.891 248.163L696.321 246.847C703.881 243.136 761.971 237.675 774.201 236.709Z" fill="#161513"/>
<path d="M787.231 414.067C791.611 402.157 798.041 379.832 810.571 374.355C819.661 370.381 827.641 386.062 837.411 390.13L834.761 395.172C826.001 390.965 820.571 381.832 813.341 380.761C807.681 382.066 805.781 386.362 802.721 391.183C801.141 394.392 796.881 403.574 796.021 407.044C793.881 413.103 793.411 417.048 787.971 420.383C786.791 417.442 787.061 417.316 787.231 414.067Z" fill="#1A110E"/>
<path d="M298.771 835.9C299.701 838.12 299.851 840 300.101 842.37C300.261 843.94 300.231 846.21 300.811 847.67C301.751 850.05 302.541 850.36 304.691 851.29C309.891 849.62 311.741 843.32 316.041 840.39C318.371 838.8 319.101 839.19 321.631 839.78C324.851 842.65 325.501 846.67 326.681 850.67C331.171 847.96 335.381 845.76 340.311 843.89C345.921 845.59 360.121 845.24 363.141 847.61L363.291 850.2C362.441 850.44 361.591 850.68 360.731 850.88L359.581 851.15C350.421 853.3 342.621 848.05 333.791 852.65C332.311 853.42 330.951 854.29 329.351 854.78C326.911 855.54 326.491 855.04 324.291 853.98C321.581 850.83 320.611 846.97 319.301 843.1L318.061 844.56C314.461 848.74 309.481 855.34 303.121 854.78C300.711 854.57 299.071 853.84 297.911 851.62C295.741 847.49 297.521 840.13 298.771 835.9Z" fill="#161513"/>
<path d="M906.701 702.701C908.601 702.511 910.511 702.471 912.421 702.571C915.821 702.781 918.721 704.331 920.911 706.911L919.791 708.651C908.151 713.411 887.411 710.541 874.371 710.331C871.591 709.921 868.781 709.561 866.031 708.941C864.301 708.551 861.661 708.161 860.681 706.601C866.041 703.181 897.791 703.491 906.701 702.701Z" fill="#161513"/>
<path d="M921.071 525.863C927.611 525.093 941.161 519.285 946.321 521.56L947.371 523.3C944.121 529.244 930.531 531.23 924.531 533.766C920.651 535.408 916.631 537.662 912.931 539.689C915.761 534.276 917.741 530.962 921.071 525.863Z" fill="#C72707"/>
<path d="M854.291 367.542L854.121 369.186C853.831 371.677 853.481 372.436 852.631 374.777C854.071 374.417 855.441 374.035 856.941 374.315C855.241 377.413 846.661 389.675 846.641 389.731C842.061 393.532 840.721 394.2 834.761 395.173L837.411 390.131C845.181 382.537 847.771 375.978 854.291 367.542Z" fill="#1A110E"/>
<path d="M860.371 722.651C868.681 722.041 878.391 720.381 886.511 722.621C888.531 724.591 888.231 724.661 888.281 727.521C881.821 728.931 867.361 730.341 861.891 726.481C860.381 725.421 860.671 724.341 860.371 722.651Z" fill="#161513"/>
<path d="M791.771 212.4C794.551 212.256 796.541 212.909 799.121 213.774C799.401 215.7 799.551 214.719 798.321 216.644C795.661 217.917 793.221 219.005 790.291 219.51C787.051 220.069 783.951 220.897 780.781 221.769L778.601 222.746C776.331 221.752 776.321 221.896 775.371 219.629L776.361 217.8C780.991 214.543 786.341 213.685 791.771 212.4Z" fill="#161513"/>
<path d="M868.231 575.361C870.911 573.18 874.281 569.69 876.831 567.198C879.061 569.485 881.071 570.859 881.631 573.741C878.401 577.523 877.661 577.92 873.511 580.845C872.101 577.61 871.141 577.312 868.231 575.361Z" fill="#C72707"/>
<path d="M758.591 884.94L759.441 889.51L758.351 891.97L755.151 885.13L758.591 884.94Z" fill="#1A110E"/>
<path d="M208.978 224.779C214.108 225.205 219.178 225.785 223.158 229.397C236.541 241.554 231.318 278.826 231.398 295.293C231.458 306.634 232.781 317.945 232.841 329.285C232.891 338.443 233.001 359.613 225.718 366.126C211.958 378.45 135.64 376.401 115.328 376.265C114.916 376.203 114.502 376.147 114.091 376.08C107.559 375.014 99.5001 372.901 95.7621 366.892C89.6611 357.088 90.5041 282.307 91.4891 266.753C91.9961 258.73 93.0521 251.06 94.8631 243.231C99.3451 239.209 103.082 236.207 108.969 234.467C122.137 230.574 136.486 231.66 150.068 230.523C169.738 228.879 189.278 226.306 208.978 224.779Z" fill="#270805"/>
<path d="M212.538 229.732L217.038 230.602C220.318 233.11 221.948 236.139 223.438 239.965C225.598 245.527 226.828 251.495 227.308 257.435C228.288 269.381 226.788 281.829 226.588 293.831C226.268 312.868 230.738 345.341 223.348 362.487C203.528 373.713 137.686 371.554 113.863 371.162C110.755 370.629 107.634 370.049 104.728 368.779C101.769 367.486 99.653 365.375 98.65 362.266C96.161 354.547 97.508 343.632 97.21 335.366C96.387 312.575 91.274 260.818 101.873 241.659C105.39 238.79 110.185 237.896 114.568 237.168C124.511 235.518 135.035 236.336 145.108 235.56C167.598 233.825 190.038 231.381 212.538 229.732Z" fill="#C72707"/>
<path d="M199.328 235.8C204.748 235.257 211.508 234.124 216.238 237.538C220.398 240.534 221.228 247.915 221.838 252.642C223.508 265.501 221.408 278.994 221.348 291.94C221.258 309.272 227.498 345.437 217.028 359.036C196.288 371.246 149.048 366.047 124.338 367.053C119.644 366.683 114.583 367.035 109.983 366.093C107.456 365.575 104.703 364.2 103.432 361.881C99.791 355.237 101.14 341.043 100.773 333.311C99.696 310.61 95.888 272.857 102.485 251.57C106.409 248.995 109.561 246.223 112.909 242.97C127.115 239.598 143.268 240.438 157.808 239.599C171.648 238.801 185.518 237.058 199.328 235.8Z" fill="#F03906"/>
<path d="M168.088 243.286C170.088 245.944 170.828 249.168 172.628 251.955C179.478 262.564 187.618 269.818 190.088 282.968C191.778 291.915 191.538 301.709 195.098 310.194C197.128 315.009 201.248 318.104 203.438 322.487C204.648 324.911 204.478 326.396 203.718 328.895C199.728 334.293 183.358 335.329 176.548 337.254C175.848 342.352 175.078 347.991 170.738 351.411C166.348 354.873 160.888 353.854 155.768 353.17C153.008 352.001 152.378 350.268 150.948 347.832C141.718 332.141 135.612 342.789 124.015 338.002C122.227 337.264 121.546 336.412 120.822 334.714C116.724 325.104 128.194 315.789 130.596 307.053C134.413 293.173 132.222 276.583 140.285 263.805C144.678 256.84 151.418 258.442 156.228 246.644C156.378 246.27 156.518 245.893 156.668 245.518C159.838 243.35 164.328 243.643 168.088 243.286Z" fill="#C72707"/>
<path d="M160.558 245.852C162.038 246.049 163.518 246.392 164.978 246.672C166.838 248.759 166.868 248.837 167.018 251.667C167.548 261.903 177.428 261.524 182.038 271.72C187.678 284.215 187.328 298.529 190.598 311.699L190.908 312.893C193.648 315.436 197.488 318.374 199.468 321.574C200.858 323.839 200.858 325.175 200.378 327.695C195.268 332.376 173.598 331.377 165.748 331.949C156.288 332.014 131.187 336.699 124.412 332.203C123.377 324.103 131.3 320.25 134.084 313.478C138.857 301.869 135.545 288.132 139.744 276.2C142.658 267.913 148.178 263.044 155.868 259.23C156.938 254.418 157.738 250.012 160.558 245.852Z" fill="#F5F4EE"/>
<path d="M164.348 338.716C166.008 338.555 168.118 338.158 169.758 338.37C172.218 338.686 172.448 339.362 173.638 341.264C173.598 342.65 173.488 343.695 172.728 344.899C169.918 349.366 166.688 350.429 161.688 351.34C160.318 350.992 159.178 350.545 157.888 349.919C154.818 348.424 152.548 346.423 151.468 343.238L152.748 340.891C156.198 338.403 160.258 338.837 164.348 338.716Z" fill="#F9EFE6"/>
<path d="M114.568 446.544L118.003 447.354C121.426 451.45 119.845 467.575 120.285 473.613C123.881 468.722 127.182 458.615 132.299 455.786C137.525 457.415 135.613 463.452 139.709 466.024C143.598 463.588 146.968 456.577 150.268 452.991L150.978 452.236L156.758 463.117C161.168 459.568 165.518 455.956 169.818 452.282C180.898 461.677 189.458 455.6 202.318 459.131L202.108 461.166C198.418 463.823 182.378 464.362 176.768 465.275L169.008 459.152C165.978 461.898 161.758 466.469 157.508 467.074C155.758 467.323 154.098 465.675 152.808 464.679C151.088 463.358 150.698 463.652 148.608 463.533C145.378 465.131 144.468 467.66 142.318 470.3C140.486 472.543 139.675 472.898 136.839 473.073C133.679 471.369 132.464 468.778 130.713 465.8C129.088 468.231 127.469 470.746 125.451 472.875C123.589 474.839 121.59 476.201 118.772 476.063C117.307 475.991 116.249 475.276 115.364 474.086C110.597 467.672 113.391 453.965 114.568 446.544Z" fill="#F5F4EE"/>
<path d="M122.013 739.621L125.062 741.131C128.074 745.071 129.26 750.071 130.796 754.731L140.02 748.471C148.128 748.081 156.358 747.331 164.468 747.531C173.638 747.761 182.498 750.081 191.578 750.951C198.038 751.571 204.558 750.841 211.018 751.531C212.738 751.721 213.998 752.141 215.548 752.861L215.328 754.411C211.728 756.941 207.958 757.621 203.748 758.611C190.348 759.011 178.018 755.091 164.878 753.421C156.548 752.371 148.578 752.821 140.235 753.441C138.404 754.801 136.453 756.421 134.414 757.431C132.047 758.601 130.421 757.861 128.169 756.951C125.106 753.691 123.941 749.491 122.396 745.371C120.842 748.591 119.458 751.621 117.16 754.381L115.989 754.181C116.348 748.381 118.862 744.391 122.013 739.621Z" fill="#F5F4EE"/>
<path d="M155.038 498.64C162.878 497.626 193.138 496.603 199.588 499.246C201.628 500.082 201.868 501.022 202.398 502.899C202.208 503.135 202.058 503.402 201.838 503.607C197.098 508.036 164.998 505.084 156.828 505.233C142.738 505.662 125.929 511.074 112.139 508.207L112.667 507.196L112.495 508.135L113.215 508.248L114.463 506.423C127.548 502.383 141.475 500.367 155.038 498.64Z" fill="#F5F4EE"/>
<path d="M205.138 411.681C208.718 411.185 211.448 410.81 214.518 412.876L214.368 414.545C204.118 422.953 136.467 422.418 120.328 422.341C116.451 422.379 113.854 422.497 110.444 420.52L110.464 419.429C120.48 416.203 148.788 416.99 160.978 416.197C175.758 415.234 190.438 413.517 205.138 411.681Z" fill="#F5F4EE"/>
<path d="M146.168 800.881C150.458 800.541 154.768 800.311 159.078 800.191C168.288 800.001 203.808 800.501 209.848 806.371L209.168 807.961C202.308 811.261 188.158 808.731 180.328 808.181C168.958 806.971 124.583 809.271 118.282 803.261L119.061 801.851C127.419 799.741 137.427 801.401 146.168 800.881Z" fill="#F9EFE6"/>
<path d="M125.858 824.771C138.353 824.581 160.848 823.561 172.188 827.911C174.388 828.761 174.588 828.771 175.588 830.991C175.278 831.431 175.028 831.911 174.658 832.311C172.278 834.841 167.778 834.971 164.568 835.431C153.908 834.071 143.238 833.861 132.538 833.051C127.685 832.691 118.502 832.621 115.291 828.911C115.605 828.451 115.831 827.911 116.233 827.531C118.771 825.071 122.573 824.961 125.858 824.771Z" fill="#F5F4EE"/>
<path d="M162.028 543.695C164.758 543.359 167.448 543.211 170.198 543.16C176.178 543.048 191.898 542.604 196.258 546.803C191.468 550.421 160.698 550.292 152.828 550.843C144.158 551.403 125.595 552.571 118.115 548.942L118.738 547.753C130.796 542.881 148.828 544.918 162.028 543.695Z" fill="#F5F4EE"/>
<path d="M120.905 772.001C122.921 775.701 121.895 780.071 121.708 784.241C126.479 780.131 131.393 776.651 136.661 773.211C138.136 777.391 138.88 780.401 142.678 782.961C147.058 783.561 151.558 781.081 155.588 779.511C163.068 783.211 173.528 782.001 179.938 786.451L180.078 788.361C171.058 787.751 162.218 787.841 153.978 783.721C150.868 785.231 147.058 787.691 143.538 787.501C139.35 787.271 136.326 782.041 134.008 779.031C133.552 779.391 133.092 779.751 132.641 780.131C131.156 781.351 129.715 782.651 128.16 783.791C125.026 786.091 122.848 786.471 118.961 785.831C117.982 784.881 116.914 784.361 116.797 782.911C116.501 779.201 118.777 774.921 120.905 772.001Z" fill="#F5F4EE"/>
<path d="M164.838 571.639C166.108 571.351 168.258 570.958 169.538 571.134C171.718 571.435 172.068 572.598 173.178 574.265L172.348 576.184C162.738 582.038 146.378 580.279 135.345 580.032C133.973 579.873 132.345 579.786 130.989 579.444C128.832 578.901 128.266 578.978 127.227 577.048C132.524 573.121 156.968 572.852 164.838 571.639Z" fill="#F5F4EE"/>
<path d="M165.878 187.056C169.308 186.909 172.328 186.881 175.018 189.486C176.948 191.361 177.438 193.647 177.378 196.247C177.278 200.587 174.568 203.725 171.688 206.641C169.218 206.608 166.818 206.549 164.568 205.357C162.388 204.202 160.758 202.308 160.328 199.84C159.418 194.675 162.738 190.671 165.878 187.056Z" fill="#F5F4EE"/>
<path d="M97.623 197.184C102.016 195.042 107.317 196.793 109.569 201.132C111.82 205.471 110.201 210.813 105.92 213.172C103.054 214.751 99.557 214.652 96.785 212.914C94.013 211.175 92.402 208.07 92.576 204.803C92.75 201.535 94.682 198.619 97.623 197.184Z" fill="#F5F4EE"/>
<path d="M131.23 192.948C134.233 191.674 137.692 192.136 140.254 194.155C142.818 196.174 144.078 199.428 143.538 202.646C143.008 205.864 140.758 208.534 137.68 209.613C133.126 211.209 128.128 208.904 126.386 204.404C124.644 199.904 126.788 194.834 131.23 192.948Z" fill="#F5F4EE"/>
<path d="M505.291 966.36C507.781 966.25 510.611 966.19 513.051 966.74C516.331 967.49 519.261 970.1 521.061 972.85C523.011 975.82 523.621 978.96 522.771 982.42C521.721 986.74 519.521 988.91 515.881 991.24L514.751 991.16C509.231 990.72 504.751 989.53 501.201 984.97C499.091 982.26 498.061 979.22 498.611 975.78C499.321 971.31 501.831 968.97 505.291 966.36Z" fill="#161513"/>
<path d="M1045.91 24.252C1053.64 26.427 1059.63 31.7409 1063.83 38.4749C1076.76 59.1929 1069.73 99.4109 1068.83 122.859C1068.35 138.85 1068.21 154.849 1068.42 170.845C1069.18 223.766 1076.81 276.292 1077.13 329.251C1077.54 395.421 1070.83 461.491 1071.82 527.661C1072.25 556.528 1073.15 585.563 1075.5 614.333C1078.64 652.771 1083.29 691.131 1084.52 729.711C1086.32 785.911 1080.55 841.701 1080.7 897.831C1080.89 918.501 1081.59 939.161 1082.79 959.791C1083.55 974.621 1084.93 989.671 1083.75 1004.5C1082.58 1019.2 1078.95 1033.78 1075.66 1048.12C1073.45 1050.41 1070.74 1052.31 1068.23 1054.28C1064.27 1057.47 1057.97 1060 1053.43 1062.6C1062.34 1040.89 1065.65 1018.38 1066.23 995.021C1066.86 969.301 1063.27 943.461 1063.1 917.691C1062.83 880.011 1065.29 842.431 1064.3 804.711C1063.42 771.071 1060.54 737.641 1058.96 704.051C1057.37 670.159 1057.02 636.184 1055.95 602.271C1055 572.021 1053.24 541.747 1052.74 511.491C1051.56 441.154 1058.02 370.979 1058.5 300.651C1058.55 260.896 1057.57 221.147 1055.57 181.443C1054.14 156.89 1051.44 132.391 1050.33 107.823C1049.08 80.242 1055.18 50.751 1045.91 24.252Z" fill="#F5F4EE"/>
<path d="M207.518 1214.18C221.118 1213.53 240.011 1218.68 253.641 1220.96C325.711 1233.01 396.151 1251.44 467.861 1265.15C500.301 1271.35 533.311 1276.69 566.041 1281.17C582.901 1283.48 599.891 1285 616.701 1287.68C652.531 1293.41 688.791 1301.7 724.031 1310.38C732.461 1312.46 743.711 1315.14 748.251 1323.33C750.131 1326.74 750.541 1330 749.361 1333.77C747.851 1338.63 742.691 1342.61 738.631 1345.26C726.641 1353.08 711.601 1358.26 698.681 1364.63C671.151 1378.22 644.651 1392.2 618.581 1408.46C597.951 1421.34 579.281 1438.35 557.701 1449.54C547.561 1454.79 538.651 1456.3 527.341 1454.84C512.031 1452.86 497.021 1447.21 481.981 1443.72C454.691 1437.37 427.291 1431.47 400.411 1423.45C355.141 1409.95 310.741 1393.55 265.501 1380.03C218.278 1365.93 169.608 1358.63 122.115 1345.96C92.429 1338.04 64.006 1325.33 34.693 1316.06C30.721 1314.94 26.633 1313.89 22.759 1312.48C19.469 1311.28 17.213 1309.66 15.668 1306.47L16.594 1304.57C33.971 1297.16 100.115 1326.2 121.74 1331.75C153.438 1339.89 186.278 1343.99 218.178 1351.49C264.241 1362.32 309.311 1377.06 354.221 1391.85C377.981 1399.68 520.511 1440.87 540.641 1437.65C558.891 1434.74 578.851 1415.8 593.901 1405.43C602.331 1399.62 611.081 1394.26 619.761 1388.84C655.971 1366.23 694.651 1348.34 732.711 1329.13C695.291 1318.18 656.651 1308.88 618.191 1302.4C597.301 1298.88 576.161 1296.99 555.241 1293.62C526.201 1288.94 496.941 1283.14 468.011 1277.61C409.071 1266.35 351.781 1248.74 293.071 1236.37C280.401 1233.71 212.798 1221.55 208.948 1218.64C207.618 1217.64 207.788 1215.72 207.518 1214.18Z" fill="#161513"/>
<path d="M155.698 1235.3C160.868 1234.87 189.488 1243.93 197.588 1245.52C209.948 1247.96 222.578 1249.29 235.021 1251.27C253.801 1254.37 272.521 1257.8 291.181 1261.56C373.741 1278.18 455.741 1297.74 538.191 1314.92C558.811 1319.22 635.271 1331.64 649.501 1338.96C650.921 1340.95 651.811 1342.22 651.471 1344.87C650.991 1348.59 647.281 1349.58 644.111 1349.79C634.081 1350.46 622.331 1346.71 612.441 1344.93C598.781 1342.48 575.681 1341.46 563.211 1348.21C555.781 1352.23 553.931 1358.52 551.471 1366.07C543.301 1370.74 517.031 1360.73 507.351 1358.63C503.991 1360.61 500.651 1362.64 497.271 1364.6C491.311 1368.04 484.151 1371.71 477.141 1369.82L476.261 1368.19C479.311 1360.99 488.331 1357.81 495.001 1354.97C484.791 1351.27 474.221 1348.15 463.751 1345.28C460.591 1347.65 457.061 1349.79 453.541 1351.61C449.071 1353.92 443.601 1355.88 438.601 1354.39L437.841 1352.88C440.801 1346.99 446.031 1344.98 451.671 1342.25C438.191 1337 424.121 1333.31 410.151 1329.64C405.671 1332.54 401.001 1335.99 396.131 1338.17C392.611 1339.75 387.851 1340.91 384.201 1339.36L384.031 1337.58C387.161 1332.12 392.631 1330.09 398.041 1327.49C374.121 1323.5 351.061 1316.07 326.921 1313.63C325.431 1312.76 323.931 1311.94 322.721 1310.7C318.641 1306.54 319.651 1300.67 319.801 1295.34C308.471 1297.66 297.001 1303.41 285.521 1304.16C281.371 1304.43 277.461 1303.6 274.331 1300.71C269.481 1296.24 269.841 1289.2 269.441 1283.13C260.241 1285.5 250.511 1289.14 241.081 1290.09C237.011 1290.5 231.691 1290.52 228.598 1287.36C226.968 1285.69 226.398 1283.58 226.378 1281.3C226.338 1276.65 227.708 1272.17 230.918 1268.79C233.291 1269.34 233.131 1278.09 235.121 1280.66C239.771 1286.66 262.761 1274.73 271.211 1276.26C280.811 1278.01 275.991 1289.56 280.181 1295.11C290.281 1296.48 300.831 1289.84 310.611 1287.59C315.581 1286.44 320.741 1285.78 325.181 1288.8C330.251 1292.25 330.501 1298.59 331.141 1304.08C345.321 1304.37 358.351 1308.95 372.031 1312.09C384.621 1314.98 397.641 1317.15 410.441 1318.82C415.721 1315.82 420.281 1312.84 426.401 1312.05L427.641 1313.18C426.781 1316.68 423.471 1318.96 420.881 1321.29C435.681 1324.74 450.301 1329.46 465.021 1333.31C473.131 1329.17 483.181 1320.22 492.661 1320.71C490.341 1326.97 481.231 1332.34 476.011 1336.12L509.061 1346.79C519.671 1341.16 529.331 1334.15 540.291 1329.03L276.561 1267.3C250.081 1261.37 223.168 1257.39 196.658 1251.55C186.098 1249.22 174.618 1247.15 164.618 1243C160.358 1241.24 157.508 1239.64 155.698 1235.3Z" fill="#161513"/>
<path d="M536.481 1338.58C538.691 1336.16 541.841 1332.96 543.501 1330.3C551.041 1331.49 559.221 1332.63 566.641 1334.16C551.321 1339.46 551.511 1344.81 539.641 1354.02C539.261 1354.31 533.341 1352.97 532.391 1352.72C529.221 1352.15 524.281 1350.76 521.011 1349.95C526.541 1345.53 530.591 1342.5 536.481 1338.58Z" fill="#F5F4EE"/>
<path d="M1115.22 1230.89C1118.19 1230.87 1119.43 1231.32 1121.97 1232.66C1122.74 1233.9 1123.42 1234.43 1123.29 1235.97C1122.54 1244.61 1103.61 1257.55 1097.31 1262.67C1080.04 1276.72 1061.06 1288.75 1042.67 1301.25C1027.14 1311.98 1011.83 1323.02 996.741 1334.35C970.101 1354.28 946.021 1377.92 919.101 1397.48C872.131 1431.61 822.941 1462.61 775.921 1496.68C764.671 1504.83 754.081 1513.85 743.081 1522.32C727.591 1534.23 711.821 1545.19 697.531 1558.6C695.511 1559.95 695.171 1560.31 692.771 1560.35L692.301 1558.22C697.401 1543.52 716.111 1531.83 727.681 1522.08C740.991 1510.87 754.021 1499.16 767.841 1488.58C813.931 1453.3 863.021 1422.11 909.701 1387.68C938.891 1366.14 965.191 1340.51 994.151 1318.67C1019.55 1299.52 1046.52 1282.88 1072.42 1264.5C1087.2 1254 1101.23 1242.39 1115.22 1230.89Z" fill="#161513"/>
<path d="M0.919006 1060.23C11.012 1061.51 21.222 1064.39 31.172 1066.53C46.785 1069.98 62.533 1072.78 78.375 1074.93C114.02 1079.69 149.828 1077.58 185.448 1081.63C220.198 1085.58 253.681 1097.16 288.171 1102.65C299.451 1104.44 310.801 1105.75 322.191 1106.58C345.671 1108.24 430.351 1109.6 446.531 1123.37C447.571 1125.99 447.451 1125.85 446.361 1128.47C430.781 1130.82 411.581 1124.93 395.741 1123.46C360.051 1120.15 323.941 1120.93 288.501 1114.98C254.151 1109.22 220.748 1097.3 186.338 1092.53C159.818 1088.85 133.182 1089.09 106.541 1087.29C78.08 1085.36 48.953 1080.32 21.386 1073.18C14.833 1071.48 3.599 1069.42 0 1063.3L0.919006 1060.23Z" fill="#161513"/>
<path d="M423.891 1373.24C405.261 1366.49 385.361 1362.55 366.121 1357.51C338.111 1350.18 310.271 1343.43 282.221 1335.82C244.661 1325.62 208.378 1309.78 169.348 1304.08C152.478 1301.61 148.418 1316.5 139.22 1315.98C135.522 1304.42 162.178 1294.97 172.498 1296.92C216.518 1305.27 258.921 1319.66 302.441 1330.3C344.491 1340.58 387.201 1348.95 428.511 1361.81C431.741 1362.81 433.491 1365.45 434.651 1368.43C436.271 1373.85 434.191 1378.61 429.991 1382.22L428.451 1384.28C435.681 1387.87 457.411 1391.46 468.551 1395.68C475.211 1390.32 490.601 1377.94 499.381 1380.83C499.281 1387.89 488.901 1392.68 484.871 1396.56C468.341 1412.44 459.801 1403.07 439.951 1398.06C431.721 1395.99 414.181 1392.36 407.081 1387.75V1385.38C410.571 1378.84 417.131 1376.64 423.891 1373.24Z" fill="#161513"/>
<path d="M434.651 1368.43C436.271 1373.85 434.191 1378.61 429.991 1382.22L429.161 1380.12C429.401 1377.63 430.691 1370.02 434.141 1370.67L434.651 1368.43Z" fill="#161513"/>
<path d="M815.731 1159.62L817.171 1159.57C839.431 1158.97 862.061 1163.24 883.921 1166.98C915.951 1172.45 947.791 1179.03 979.821 1184.43C1009.51 1189.43 1046.84 1192.22 1075.1 1200.09C1077.88 1200.86 1081.94 1202.53 1083.78 1204.88C1085.19 1206.68 1085.88 1208.38 1085.41 1210.68C1084.82 1213.58 1082.6 1214.95 1080.39 1216.53C1064.46 1216.59 1047.19 1211.23 1031.43 1208.57C1011.37 1205.17 991.211 1202.52 971.211 1198.68C938.651 1192.44 906.301 1184.78 873.721 1178.44C864.511 1176.65 819.381 1170.17 813.501 1167.04C811.261 1165.85 810.901 1165.14 810.411 1162.89C812.091 1160.49 813.021 1160.54 815.731 1159.62Z" fill="#161513"/>
<path d="M178.548 1202.5L180.578 1203.28C181.778 1205.42 181.648 1205.44 181.148 1207.87C176.458 1212.23 163.268 1213.5 156.608 1216.31L64.9009 1256.03C47.2429 1263.49 29.466 1271.84 10.853 1276.64L8.18597 1275.96L7.74194 1274.37C11.3249 1269.67 133.122 1217 149.758 1210.56C159.158 1206.93 168.638 1204.34 178.548 1202.5Z" fill="#161513"/>
<path d="M486.381 1402.32C487.551 1402.28 488.711 1402.22 489.881 1402.24C500.631 1402.37 526.021 1405.55 533.651 1413.54C534.201 1416.55 533.781 1416.7 532.261 1419.42C522.691 1419.65 497.831 1413.68 489.131 1409.67C486.701 1408.55 485.901 1407.76 484.901 1405.33L486.381 1402.32Z" fill="#161513"/>
</g>
<defs>
<clipPath id="clip0_53_2947">
<rect width="1123.31" height="1560.35" fill="white"/>
</clipPath>
</defs>
</svg>
