<svg width="886" height="1231" viewBox="0 0 886 1231" fill="none" xmlns="http://www.w3.org/2000/svg">
<g clip-path="url(#clip0_53_2947)">
<path d="M392.936 810.013L324 797.848C306.191 794.685 288.397 791.237 270.484 788.674C239.013 784.256 207.124 784.65 175.801 778.986C151.137 774.52 126.67 771.452 101.656 769.818C79.7616 768.383 53.8971 766.931 37.0551 751.018C16.4997 731.587 22.2086 698.153 22.2591 672.686C22.6984 646.21 24.4384 620.08 24.3437 593.636C23.9675 552.754 20.064 509.587 23.2908 468.855C29.958 384.704 18.5835 301.857 20.3519 217.984C20.7613 198.584 23.1006 178.757 23.159 159.161C23.1937 147.32 26.4796 130.097 34.5863 121.046C39.7455 115.489 53.2432 113.873 60.5107 112.627C95.6484 108.145 129.092 97.3187 163.844 91.1327C198.125 85.2 233.074 82.7543 267.526 77.9504L501.12 44.0463C547.065 37.7894 590.256 34.0491 636.895 26.9803C656.156 24.1544 675.314 20.7375 694.362 16.7345C726.425 9.86772 759.299 1.19271 792.182 0.00774644C802.704 -0.371727 834.427 13.2814 841.321 20.9987C854.256 35.9393 853.16 62.2792 851.637 81.0723C846.802 141.062 858.665 199.65 860.053 259.177C861.3 312.409 856.189 366.047 857.403 419.68C857.774 440.333 858.776 460.97 860.416 481.561C863.122 514.78 866.884 545.543 867.807 579.151C869.211 623.678 864.51 667.779 864.108 712.306C863.863 739.019 867.515 767.436 866.561 793.951C866.158 805.375 862.775 830.383 853.736 837.531C840.903 847.669 817.974 853.736 801.6 854.99C779.207 856.055 755.458 846.075 733.555 844.789C688.754 842.17 644.143 838.107 599.469 834.604C605.676 850.312 611.647 866.974 617.058 882.942C625.489 907.817 624.693 945.275 597.915 958.892C575.041 970.52 549.865 977.526 525.674 985.968C520.5 987.774 511.642 991.963 506.776 992.808C503.881 991.916 505.072 992.705 503.132 990.291C502.453 983.443 508.669 981.092 514.284 978.78C538.783 968.572 563.605 959.838 587.835 948.92C601.977 942.545 606.023 934.877 608.216 919.84C611.205 899.336 602.395 881.23 596.4 862.209C593.34 852.505 591.132 843.251 589.254 833.358C586.131 832.805 581.162 832.545 577.873 832.277C582.684 853.704 593.309 875.51 597.315 898.057C605.897 946.277 568.984 950.939 533.167 962.639C523.923 965.661 501.609 976.698 492.815 970.165C483.871 951.231 586.683 946.269 586.391 915.438C586.115 886.366 573.803 859.96 567.075 831.827C566.696 830.218 543.294 828.853 540.826 828.632C509.828 826.052 478.886 822.778 448.038 818.834C431.254 816.546 414.367 813.358 397.551 810.771C408.246 834.147 409.981 843.385 415.905 868.157C419.399 873.151 421.11 884.212 418.476 889.616C418.271 887.139 418.287 885.971 418.35 883.533L416.843 884.456C415.423 896.322 414.737 898.839 407.402 908.542C392.092 928.802 292.758 934.182 283.199 947.271C289.319 956.115 376.688 966.055 392.132 969.629C412.537 974.347 436.917 982.331 457.542 985.549C466.818 987.001 482.624 982.441 488.39 987.072C489.494 990.307 489.431 988.737 488.769 991.963C486.915 994.701 483.855 995.127 480.794 995.75C472.197 997.502 462.409 997.107 453.78 995.813C442.414 994.117 431.49 990.22 420.448 987.159C409.752 984.2 398.86 981.755 388.031 979.38C361.931 973.676 293.902 968.682 275.098 955.294C272.921 953.748 271.557 951.507 271.249 948.856C270.524 942.584 274.617 937.543 279.681 934.419C304.416 919.193 385.506 916.219 400.69 897.103C411.756 883.163 400.871 849.452 397.243 833.792C395.35 825.95 393.915 818.013 392.936 810.013Z" fill="#161513"/>
<path d="M415.905 868.157C419.399 873.151 421.11 884.212 418.476 889.616C418.271 887.139 418.287 885.971 418.35 883.533L416.843 884.456C417.001 878.95 416.394 873.648 415.905 868.157Z" fill="#F5F4EE"/>
<path d="M781.881 13.965C786.085 13.4325 790.841 13.2478 795.045 13.7559C801.182 14.4967 806.774 17.1404 810.544 22.1588C813.912 26.6485 815.261 32.1584 815.915 37.6383C817.587 51.6859 815.308 66.7725 815.758 80.992C816.562 106.27 819.528 131.408 820.143 156.729C821.011 196.668 820.837 236.623 819.63 276.553C817.95 321.776 814.574 366.808 815.426 412.102L819.536 566.836C820.175 584.39 821.902 601.919 822.257 619.481C822.982 655.535 821.823 691.344 821.476 727.366C821.216 754.056 825.112 780.232 821.444 806.96C820.23 815.796 817.856 826.731 810.079 832.143C806.411 834.691 801.41 835.299 797.056 835.204C789.611 835.038 782.102 833.168 774.798 831.78C759.41 828.861 743.935 825.279 728.31 823.851C703.141 821.548 677.609 822.55 652.378 820.767C625.261 818.849 598.214 815.386 571.145 812.885C539.761 809.982 508.29 807.962 476.922 804.885C413.467 798.661 351.441 785.203 288.412 776.359C259.205 772.264 230.022 771.562 200.736 768.761C182.65 767.026 164.601 763.594 146.626 760.927C135.181 759.673 123.965 758.584 112.434 757.653C80.8887 755.097 35.8988 757.63 33.4087 714.444C29.9075 673.656 37.4045 628.806 34.6179 588.326C30.2932 525.504 32.8503 465.603 34.4356 402.829C35.4839 361.321 30.2577 317.101 28.3561 275.376C26.9505 237.358 27.1004 199.298 28.8048 161.291C30.2806 127.027 36.5164 121.501 69.3628 118.29C74.4667 117.791 89.3558 115.679 94.1553 114.365C152.044 98.5235 210.027 92.9813 269.475 87.0131C286.693 85.2561 305.055 81.6224 322.486 79.2351L505.971 54.7122C538.617 50.5238 571.902 49.1408 604.627 44.2124C628.274 40.6512 651.644 37.4473 675.219 33.2045C710.216 26.9049 746.664 17.2556 781.881 13.965Z" fill="#F5F4EE"/>
<path d="M772.227 44.6947C774.341 44.312 776.526 44.2821 778.671 44.3153C782.796 44.3776 786.259 45.7076 789.09 48.7829C792.6 52.5942 793.98 57.9368 794.588 62.952C796.197 76.2225 794.69 91.2776 794.596 104.76C794.611 126.05 794.943 147.336 795.582 168.615C797.001 226.352 804.644 283.8 805.047 341.52C805.425 396.625 801.403 451.58 800.298 506.652C799.707 536.591 802.341 566.536 801.418 596.436C800.582 623.212 797.293 649.736 797.057 676.599C796.938 689.229 796.883 701.939 797.585 714.562C798.539 731.587 800.401 748.438 799.565 765.511C799.281 771.317 800.03 786.962 795.369 790.826C773.087 809.287 718.585 792.822 691.46 790.345C651.549 786.701 611.292 784.942 571.524 780.058C548.737 777.266 525.777 774.22 503.163 770.221C483.287 766.702 463.561 762.237 443.637 759.018C403.403 752.509 362.901 748.004 322.675 741.63C288.263 736.178 254.528 727.808 220.249 721.954C204.261 719.217 188.1 717.568 171.968 715.958C151.863 715.019 74.7074 708.953 60.4982 698.665C55.6537 695.154 54.8957 685.458 54.096 679.896C50.769 656.805 51.3582 634.147 51.7353 610.913C52.0129 591.04 52.1896 571.167 52.2637 551.294C52.3426 506.946 50.6326 462.637 51.0908 418.275C51.5428 374.593 54.1969 330.955 55.481 287.3C55.9156 266.798 55.8257 246.287 55.2112 225.789C54.4391 206.071 52.8608 185.971 53.7039 166.259C53.9595 160.28 54.4958 152.807 58.3788 147.991C61.2909 144.378 66.5612 142.675 70.9498 141.834C103.859 135.53 137.484 132.106 170.69 127.77L292.64 110.671C397.046 95.6759 501.002 77.6544 605.566 63.8245C634.497 59.984 663.499 56.6754 692.556 53.9015C706.351 52.6313 720.249 52.2337 734.012 50.6708C746.822 49.2161 759.449 46.405 772.227 44.6947Z" fill="#161513"/>
<path d="M770.744 98.3683C771.825 98.1466 773.134 98.1782 774.238 98.1143C775.453 99.4255 775.201 101.001 775.248 102.759C775.603 114.806 775.003 127.013 774.948 139.073L775.193 207.63C776.928 327.76 777.464 447.906 776.802 568.043C776.699 599.561 775.406 631.102 775.437 662.588C775.477 694.768 777.843 727.106 777.038 759.255C704.253 754.798 631.539 744.983 559.038 737.236C461.936 726.862 364.495 717.537 267.763 704.101C246.365 700.425 224.233 697.411 202.574 695.826C201.706 646.668 202.692 597.344 202.582 548.162L202.51 174.141C267.03 164.612 331.991 157.509 396.612 148.632C521.233 131.203 645.949 114.447 770.744 98.3683Z" fill="#F5F4EE"/>
<path d="M440.308 620.806C462.204 633.373 481.828 641.578 505.884 628.159C534.539 612.175 551.576 591.939 560.876 560.469C563.896 550.252 565.576 538.62 560.063 528.737C553.201 516.489 540.502 517.439 528.655 514.121C520.452 511.824 515.136 508.897 509.363 502.517C492.823 484.232 505.608 462.544 499.18 440.342C495.781 428.576 492.145 426.243 486.237 416.082C481.875 408.589 480.881 399.68 483.311 391.382C488.611 373.285 507.012 364.32 517.195 349.579C523.055 340.434 525.753 329.685 529.476 319.611C534.019 307.09 540.889 295.036 547.672 283.66C554.203 272.717 562.587 266.115 573.866 260.478C577.423 258.701 581.454 256.494 585.603 258.15C587.22 258.797 588.813 260.53 589.112 262.252C590.311 268.301 574.395 277.373 569.922 280.169C546.307 294.921 536.89 311.635 531.14 338.598C529.247 346.454 526.518 356.814 521.714 363.406C510.199 379.202 492.878 375.539 490.599 399.369C488.564 420.569 507.375 419.953 511.003 438.104C514.111 453.675 509.923 470.721 515.152 486.213C522.574 509.58 538.097 503.903 555.804 512.815C564.22 517.24 568.929 524.185 571.736 532.987C576.658 548.154 573.204 563.814 568.384 578.535C564.614 590.054 560.702 603.631 551.111 611.702C543.365 618.218 534.027 623.449 525.406 628.845C513.835 636.079 501.87 643.898 488.674 647.724C474.5 651.866 456.422 648.663 443.511 641.681C435.702 637.618 431.459 630.084 426.979 622.967C414.524 603.197 411.748 578.338 415.005 555.554C416.346 546.221 418.626 524.2 409.248 518.664C408.096 518.592 406.448 518.229 405.706 518.881C394.885 531.821 395.374 555.696 389.829 572.745C384.631 588.744 368.241 603.473 351.685 594.732C315.529 575.64 350.179 513.424 340.761 482.854C339.878 479.972 335.216 480.416 333.426 482.335C318.676 504.981 319.402 538.984 317.138 565.423C316.957 567.49 315.45 568.366 313.983 569.384C310.3 569.983 304.463 568.137 304.7 563.735C305.67 545.353 309.511 526.797 312.012 508.528C312.737 503.168 322.226 486.406 314.741 483.4C313.542 483.568 312.572 483.711 311.515 484.398C295.669 494.736 296.237 513.679 294.927 529.715L292.711 555.412C292.183 561.171 292.38 571.656 286.511 574.425C283.214 573.668 280.604 571.269 281.132 567.814C284.208 547.617 286.157 527.332 288.207 506.986C288.61 502.96 287.75 498.831 284.981 495.913C257.785 486.234 272.409 577.052 263.646 588.144C244.456 595.868 258.29 523.446 259.805 515.059C260.231 512.736 259.237 509.615 258.156 507.489C256.437 506.266 256.232 505.725 253.621 506.267C229.359 511.301 242.539 602.306 226.677 604.302C219.5 597.099 225.195 482.054 263.291 501.697C270.571 492.112 282.986 481.33 292.545 494.661C298.216 483.474 309.046 469.345 322.084 480.353C329.608 472.144 332.353 469.144 343.9 471.562C356.189 483.564 352.158 503.164 349.311 518.482L349.982 517.808C352.892 516.762 391.138 515.48 393.741 516.385C401.218 507.78 410.249 506.708 418.689 514.746C428.998 530.247 422.593 555.514 425.472 574.172C428.138 591.521 432.042 605.098 440.308 620.806Z" fill="#161513"/>
<path d="M349.311 518.483L349.982 517.809C352.892 516.762 391.138 515.48 393.741 516.386L393.126 517.324C385.207 529.636 386.208 540.216 384.592 554.45C383.164 567.017 374.07 594.235 356.765 580.469C343.332 568.934 346.629 533.549 349.311 518.483Z" fill="#F5F4EE"/>
<path d="M274.42 271.884C293.752 275.512 304.519 274.073 320.278 287.563C345.951 309.535 344.035 354.878 321.374 379.169L321.516 379.84C314.212 378.69 312.351 370.875 305.047 364.878C307.042 368.2 315.056 379.008 315.435 380.193L315.088 381.438L315.38 382.659C295.653 394.91 290.794 392.943 268.221 391.18C247.469 389.559 240.733 385.175 231.994 364.957C225.857 350.759 225.881 321.658 232.017 307.274C241.656 284.677 252.619 280.265 274.42 271.884Z" fill="#C72707"/>
<path d="M280.281 344.873C234.084 342.753 289.217 285.363 288.342 337.11C292.735 344.269 315.711 373.979 321.374 379.169L321.516 379.84C314.212 378.69 312.351 370.876 305.047 364.878C307.043 368.2 315.056 379.008 315.435 380.193L315.088 381.438C311.065 377.76 304.053 368.009 299.518 363.4C293.035 356.804 286.512 351.529 280.281 344.873Z" fill="#181210"/>
<path d="M273.671 276.374C281.795 275.985 293.018 277.808 300.803 280.116C314.125 284.068 325.262 297.33 331.691 309.153C332.471 310.588 333.591 312.349 333.962 313.943C335.129 318.893 335.043 340.813 333.986 345.414C332.905 350.118 329.987 354.084 328.843 358.618C327.352 364.511 324.276 369.844 319.828 374.085C313.967 366.384 296.055 344.403 293.247 336.659C291.583 332.079 291.402 326.872 290.013 322.167C289.091 319.009 287.355 316.51 284.358 315.031C280.462 313.108 274.475 312.874 270.437 314.53C266.13 316.3 262.1 320.339 260.278 324.62C258.369 329.214 258.282 334.36 260.033 339.016C264.9 346.261 273.032 347.506 280.233 351.58C289.075 356.584 300.07 365.838 305.536 374.359C307.019 376.678 307.46 378.415 306.869 381.17C305.22 383.795 303.398 385.128 300.519 386.32C289.595 390.852 263.496 389.651 252.872 384.756C244.637 380.965 238.532 372.231 235.409 363.976C229.225 347.622 229.698 321.909 237.057 305.988C246.049 286.543 254.615 283.495 273.671 276.374Z" fill="#F03906"/>
<path d="M305.047 364.878C312.351 370.875 314.212 378.69 321.516 379.84C339.278 396.201 340.446 396.963 354.257 416.084C368.004 415.93 384.331 412.854 398.379 411.796C415.195 410.53 431.38 410.303 448.227 410.212C448.432 444.276 449.702 480.679 449.166 514.428C440.671 514.543 426.521 514.154 418.689 514.746C410.249 506.708 401.218 507.781 393.741 516.386C391.138 515.48 352.892 516.762 349.982 517.809L349.311 518.482C352.158 503.165 356.189 483.565 343.9 471.563C345.509 470.515 344.839 465.126 344.768 463.091C344.232 448.588 344.76 434.229 346.093 419.784C339.058 410.223 323.803 392.9 315.38 382.659L315.088 381.437L315.435 380.193C315.056 379.008 307.042 368.2 305.047 364.878Z" fill="#C72707"/>
<path d="M362.168 419.568C381.705 415.921 404.018 414.864 423.847 414.4C429.345 414.272 436.104 413.299 441.255 414.276C442.619 415.244 443.779 415.987 443.858 418.024C444.426 432.497 446.437 500.001 443.889 508.512C437.453 512.757 422.53 512.353 416.149 507.661C407.978 501.652 394.703 512.313 388.031 512.704C379.812 513.187 362.948 514.605 355.171 513.838C351.401 508.819 355.653 493.347 354.635 486.062C354.004 481.539 348.372 472.55 348.16 469.897C347.166 457.651 348.507 444.166 349.035 432.116L349.879 430.79C353.121 432.003 371.08 454.651 372.058 458.224C376.026 472.767 379.946 483.446 398 478.415C405.525 476.314 409.263 459.669 404.129 452.354L402.709 452.051C400.161 449.99 397.787 448.752 394.971 447.138C393.843 446.821 386.666 444.992 386.13 444.509C379.07 438.111 364.841 428.767 362.168 419.568Z" fill="#F03906"/>
<path d="M361.726 427.011C368.698 433.796 378.992 442.011 384.789 448.734L385.341 449.368C389.324 448.101 390.854 447.543 394.971 447.139C397.787 448.752 400.161 449.991 402.709 452.051C403.987 460.01 407.221 462.475 402.117 470.713C393.583 484.469 370.568 472.61 378.771 457.875C378.471 452.751 377.911 453.065 374.22 449.058C368.706 443.088 363.169 435.076 361.726 427.011Z" fill="#1A110E"/>
<path d="M305.047 364.878C312.351 370.875 314.212 378.69 321.516 379.84C339.278 396.201 340.446 396.963 354.257 416.084C356.213 418.982 360.109 424.29 361.726 427.011C363.169 435.076 368.706 443.088 374.22 449.058C377.911 453.065 378.471 452.751 378.771 457.875C371.183 453.781 353.144 428.327 346.093 419.784C339.058 410.223 323.803 392.9 315.38 382.659L315.088 381.437L315.435 380.193C315.056 379.008 307.042 368.2 305.047 364.878Z" fill="#170E0A"/>
<path d="M673.816 289.963C686.12 268.109 703.756 295.391 717.007 286.504C723.222 282.336 738.65 255.626 747.847 256.157L748.596 257.081C747.618 261.734 728.657 281.617 723.869 287.121C728.27 287.101 734.383 286.336 738.122 287.25C742.405 291.589 742.633 330.046 743.477 339.327C748.257 339.45 749.969 339.041 753.258 343.219C752.682 346.596 746.214 347.423 743.209 347.277C701.895 345.266 660.715 351.153 619.724 348.782C618.73 348.724 614.944 347.908 614.833 346.801C613.035 329.075 610.148 274.305 614.415 259.763L615.417 258.954L614.786 259.113L615.788 259.61C616.837 264.37 616.553 272.273 616.797 277.437C617.397 290.176 617.278 303.829 618.785 316.491L620.102 316.011C620.015 319.188 619.519 323.978 620.922 326.669C620.788 329.232 620.575 329.332 621.506 331.652C625.797 329.021 626.168 325.908 627.855 321.128C628.534 318.391 631.894 311.147 633.14 308.615C635.554 304.812 637.052 301.423 641.517 300.393C647.219 301.238 651.502 308.443 658.411 311.762C663.112 310.995 664.169 310.468 667.782 307.469C667.797 307.425 674.565 297.751 675.906 295.307C674.723 295.086 673.642 295.387 672.506 295.671C673.177 293.824 673.453 293.226 673.681 291.26L673.816 289.963Z" fill="#F9EFE6"/>
<path d="M743.477 339.327C748.257 339.45 749.969 339.041 753.258 343.219C752.682 346.595 746.214 347.423 743.209 347.276C701.895 345.266 660.715 351.153 619.724 348.781C618.73 348.724 614.944 347.908 614.833 346.8C613.035 329.075 610.148 274.305 614.415 259.762L615.417 258.954L614.786 259.112L615.788 259.61C616.837 264.37 616.553 272.272 616.797 277.437C617.397 290.175 617.278 303.828 618.785 316.491L620.102 316.011C620.015 319.187 619.519 323.978 620.922 326.669C620.788 329.232 620.575 329.331 621.506 331.652C625.797 329.02 626.168 325.908 627.855 321.128C628.534 318.39 631.894 311.147 633.14 308.615C635.554 304.811 637.052 301.422 641.517 300.393C647.219 301.238 651.502 308.443 658.411 311.762C663.112 310.994 664.169 310.467 667.782 307.469C668.491 310.288 667.545 337.034 667.64 342.364C672.23 342.04 688.754 341.485 691.957 340.499L699.308 340.177C706.399 340.162 715.666 340.403 722.544 339.647C729.201 339.59 736.915 339.714 743.477 339.327Z" fill="#1A110E"/>
<path d="M633.14 308.615C635.554 304.812 637.052 301.423 641.517 300.393C647.219 301.238 651.502 308.443 658.411 311.762C663.112 310.995 664.169 310.468 667.782 307.469C668.492 310.289 667.545 337.034 667.64 342.365L647.811 343.702C643.394 344.409 633.976 344.866 629.22 344.942C628.912 337.695 628.77 328.155 627.856 321.128C628.534 318.391 631.894 311.147 633.14 308.615Z" fill="#F5F4EE"/>
<path d="M627.856 321.128C628.534 318.391 631.894 311.147 633.14 308.615C637.044 308.737 640.822 308.33 644.064 310.206C648.726 317.285 644.096 340.902 647.811 343.702C643.394 344.409 633.976 344.866 629.22 344.942C628.912 337.695 628.77 328.155 627.856 321.128Z" fill="#C72707"/>
<path d="M635.041 310.754C636.666 310.98 638.961 311.175 640.018 312.552C644.206 318.018 643.812 331.365 642.431 337.894C641.887 340.464 640.491 340.952 638.448 342.192C636.997 342.013 635.088 341.914 633.866 341.057C632.067 339.795 631.507 337.053 631.113 335.052C629.575 327.341 630.656 317.381 635.041 310.754Z" fill="#F03906"/>
<path d="M618.785 316.491L620.102 316.011C620.015 319.187 619.519 323.978 620.922 326.669C620.788 329.232 620.575 329.331 621.506 331.652C625.797 329.021 626.168 325.908 627.855 321.128C628.77 328.155 628.912 337.695 629.22 344.942C625.6 345.175 621.301 346.233 618.848 343.456L619.022 340.745C618.848 332.628 618.627 324.614 618.785 316.491Z" fill="#F9EFE6"/>
<path d="M721.18 289.084L723.869 287.121C728.27 287.101 734.383 286.336 738.122 287.25C742.405 291.589 742.633 330.045 743.477 339.327C736.915 339.714 729.201 339.591 722.544 339.648C722.213 332.072 722.505 292.732 721.18 289.084Z" fill="#C72707"/>
<path d="M728.783 290.414C731.567 291.016 733.247 291.583 735.535 293.301C739.218 299.923 738.627 320.706 738.619 328.957C738.619 331.845 738.429 333.707 736.284 335.849C733.949 336.161 729.722 337.127 727.837 335.367C724.098 331.887 725.044 322.917 724.958 318.017C724.847 311.305 723.735 298.981 726.512 292.763C726.803 292.119 728.239 290.978 728.783 290.414Z" fill="#F03906"/>
<path d="M675.906 295.306L676.292 295.399C678.816 297.764 681.955 296.628 686.159 298.282C687.035 311.648 685.623 327.662 686.609 339.558C688.589 341.033 688.88 340.481 691.957 340.498C688.754 341.485 672.23 342.039 667.64 342.363C667.545 337.033 668.491 310.287 667.782 307.468C667.797 307.424 674.565 297.75 675.906 295.306Z" fill="#C72707"/>
<path d="M676.576 300.587C677.641 300.526 677.041 300.53 678.572 300.674C680.307 300.835 680.543 301.163 681.585 302.607C685.3 307.769 684.172 330.261 682.46 336.562C680.741 338.208 679.4 338.267 677.128 338.844C675.196 338.897 673.902 338.754 672.072 338.133C669.801 331.839 671.086 313.88 671.173 306.267C672.798 304.244 674.746 302.433 676.576 300.587Z" fill="#F03906"/>
<path d="M698.606 307.826C704.435 307.203 709.948 307.299 715.8 307.285C716.581 317.687 715.611 328.073 716.203 338.576C718.222 339.738 719.996 339.481 722.544 339.648C715.666 340.403 706.399 340.162 699.308 340.177C697.825 331.014 698.203 317.066 698.606 307.826Z" fill="#C72707"/>
<path d="M703.015 310.908C704.332 310.785 705.949 310.499 707.25 310.661C709.325 310.917 710.319 311.572 711.565 313.215C715.611 318.555 713.316 329.737 711.77 335.718C710.319 335.822 708.473 336.129 707.053 335.914C705.176 335.632 704.056 334.338 703.149 332.777C699.868 327.139 701.516 316.963 703.015 310.908Z" fill="#F03906"/>
<path d="M721.18 289.083C722.505 292.731 722.213 332.072 722.544 339.647C719.997 339.481 718.222 339.737 716.203 338.575C715.611 328.073 716.581 317.687 715.8 307.285C709.948 307.298 704.435 307.203 698.606 307.825C698.204 317.066 697.825 331.013 699.308 340.177L691.957 340.499C688.881 340.482 688.589 341.034 686.609 339.559C685.623 327.663 687.035 311.649 686.159 298.283C694.788 306.323 682.965 334.406 692.312 338.427L693.723 337.692C695.837 334.148 695.648 331.188 695.104 327.169C691.902 303.337 696.792 302.879 719.429 306.561L719.571 305.738C720.572 299.159 720.336 297.299 719.634 290.626L721.18 289.083Z" fill="#FCE5D7"/>
<path d="M673.816 289.963C686.12 268.109 703.756 295.391 717.007 286.504C723.223 282.336 738.65 255.626 747.847 256.157L748.596 257.081C747.618 261.734 728.657 281.617 723.869 287.121L721.18 289.084L719.634 290.626C698.732 301.825 690.529 273.098 676.292 295.4L675.906 295.307C674.723 295.086 673.642 295.387 672.506 295.671C673.177 293.824 673.453 293.226 673.682 291.26L673.816 289.963Z" fill="#161513"/>
<path d="M664.753 705.142L666.133 704.266C664.926 699.249 663.751 694.255 663.436 689.072C663.033 682.484 663.806 675.826 663.68 669.222C663.546 661.87 661.267 600.736 663.128 597.809C664.548 595.576 666.898 594.732 669.399 594.338C674.896 593.47 680.875 595.008 686.246 596.144L690.221 601.178C690.103 619.181 688.841 636.955 689.022 654.974C689.149 667.439 687.122 677.688 690.537 690.121C688.967 694.894 686.782 699.233 688.873 703.777L690.166 704.274C691.546 703.107 692.485 702.302 692.58 700.156C693.132 687.407 691.294 639.243 696.405 630.455C700.956 627.567 713.261 629.65 717.536 632.498C719.421 636.316 718.916 695.154 718.545 703.635C709.238 708.463 704.592 706.207 698.732 708.637C694.039 709.15 669.651 706.065 664.753 705.142Z" fill="#F9EFE6"/>
<path d="M666.772 596.594C672.112 596.405 681.253 595.797 685.773 598.898C689.078 610.447 686.79 651.787 686.759 665.538C686.735 674.911 687.626 684.409 687.35 693.742C687.264 696.614 686.68 699.509 686.144 702.326C679.644 702.255 673.224 701.576 666.78 700.779C665.825 674.982 665.494 649.16 665.778 623.346C665.881 614.834 665.06 604.886 666.772 596.594Z" fill="#C72707"/>
<path d="M671.181 599.782C673.54 599.663 676.308 599.308 678.627 599.734C680.299 600.05 682.523 601.517 683.21 603.127C684.614 606.424 683.809 619.615 683.904 623.82C684.195 636.104 683.273 648.332 683.525 660.576C683.738 670.951 685.347 681.459 685.174 691.802C685.126 694.484 684.416 696.796 683.454 699.273C680.788 699.589 678.154 699.786 675.472 699.533C672.987 699.297 671.781 698.61 670.211 696.725C668.287 686.642 669.817 675.566 669.73 665.318C669.58 646.312 668.326 627.244 669.525 608.247C669.714 605.233 670.085 602.622 671.181 599.782Z" fill="#F03906"/>
<path d="M697.864 631.417C703.393 631.67 711.36 630.983 715.927 634.493C716.984 642.304 716.005 650.849 716.132 658.77C716.345 672.244 717.835 686.783 716.755 700.164C716.652 701.41 716.345 702.208 715.674 703.249C708.875 703.296 702.132 703.115 695.34 702.768C694.741 691.628 694.883 639.993 697.864 631.417Z" fill="#C72707"/>
<path d="M701.059 636.687C704.569 636.088 708.284 635.259 711.51 637.153C713.813 641.027 714.128 686.674 713.434 693.79C713.174 696.456 712.511 697.679 710.516 699.415C706.824 699.297 701.816 699.667 699.055 696.961C697.154 689.088 698.243 644.506 701.059 636.687Z" fill="#F03906"/>
<path d="M690.916 139.068L693.747 138.817C696.815 140.31 697.596 143.142 699.355 145.943C700.704 148.088 702.818 150.601 705.507 150.903C710.516 151.467 713.844 147.615 717.086 144.466C720.793 146.774 727.316 150.051 728.073 154.811C728.649 158.429 725.699 161.331 723.648 163.992C724.358 165.727 725.052 167.554 726.03 169.16C728.673 173.512 733.965 174.014 738.524 175.056C738.272 201.958 727.584 189.917 721.345 199.723C720.233 204.544 722.307 208.665 724.311 212.889C720.336 216.707 716.329 220.011 711.478 222.668C710.129 221.12 709.017 219.365 707.621 217.855C705.783 215.857 704.908 215.747 702.242 215.546C700.767 215.927 699.095 216.28 697.699 216.906C693.645 218.72 692.588 222.742 690.939 226.541C685.315 225.629 680.346 223.793 675.085 221.694C675.543 219.653 676.166 217.442 676.213 215.347C676.324 210.823 671.93 207.581 668.981 204.727L658.616 206.336C656.376 201.447 654.886 196.86 653.561 191.653C655.888 189.778 659.098 188.121 661.014 185.908C662.576 184.099 663.601 181.567 663.089 179.159C662.19 174.925 657.993 172.282 654.831 169.747C657.165 164.509 659.871 159.972 663.262 155.361C666.52 157.137 670.582 159.181 674.447 158.064C680.48 156.319 680.047 147.485 682.989 142.947C684.566 140.508 688.242 139.857 690.916 139.068Z" fill="#C72707"/>
<path d="M688.975 143.074C695.75 143.421 696.279 151.061 702.778 152.778C708.812 154.371 714.302 149.072 719.752 150.821C727.553 153.327 719.184 163.842 721.519 169.768C723.743 175.403 732.19 175.322 734.572 180.682C736.836 185.765 724.603 193 721.424 196.484C715.067 203.456 720.414 207.297 717.409 213.61C714.941 218.813 705.61 211.97 699.331 213.755C699.071 213.829 698.811 213.91 698.55 213.988C695.656 213.326 690.939 220.103 687.382 221.133C677.736 220.485 679.842 209.139 673.737 204.234C670.298 201.467 664.698 201.742 661.148 198.852C654.413 193.375 665.368 188.157 666.701 182.704C668.381 175.849 660.888 172.231 661.164 166.199C661.416 160.728 674.115 161.313 678.075 159.134C684.282 155.71 683.833 147.528 688.975 143.074Z" fill="#F03906"/>
<path d="M695.924 165.502C699.41 165.313 702.644 166.181 705.381 168.385C708.733 171.09 710.311 174.99 710.666 179.216C711.312 186.999 708.599 191.762 703.89 197.493C700.191 198.764 696.839 199.66 692.943 200.183C690.703 199.217 688.352 198.251 686.365 196.815C682.026 193.684 678.524 188.918 677.783 183.536C677.231 179.834 678.201 176.068 680.465 173.089C684.298 168.095 690.001 166.44 695.924 165.502Z" fill="#C72707"/>
<path d="M691.334 169.472C696.035 168.154 701.083 169.522 704.474 173.036C707.874 176.549 709.065 181.642 707.582 186.298C706.107 190.955 702.195 194.425 697.391 195.335C690.403 196.663 683.604 192.242 681.979 185.309C680.354 178.377 684.479 171.394 691.334 169.472Z" fill="#F5F4EE"/>
<path d="M502.982 159.52C511.35 160.239 518.347 162.732 524.499 168.699C529.776 173.816 533.719 181.378 533.498 188.865C533.427 191.217 533.159 194.37 531.361 196.049C529.239 196.703 527.283 197.168 525.548 198.639C525.437 201.269 526.904 203.764 527.946 206.166C525.871 212.191 523.513 218.295 519.916 223.595C513.985 232.339 506.571 236.909 496.262 238.917C489.613 237.786 481.623 236.601 476.038 232.623C468.569 227.309 464.192 218.261 462.914 209.36C461.597 200.193 463.608 191.077 469.342 183.732C474.003 177.76 480.929 171.443 488.516 169.918C490.607 169.496 493.178 169.776 495.165 169.166C497.058 168.585 497.634 166.108 498.336 164.483C499.48 161.844 500.56 160.955 502.982 159.52Z" fill="#FCE5D7"/>
<path d="M489.234 171.406C490.094 171.634 491.19 172.25 492.01 172.622C495.56 177.387 494.873 196.455 495.134 203.098C504.102 203.193 513.606 199.909 522.361 201.049C523.56 201.922 524.696 202.632 525.272 204.071C526.289 206.594 525.311 209.598 524.325 211.968C519.837 222.766 512.052 230.798 501.396 235.501C494.976 237.066 488.24 236.746 482.12 234.078C474.429 230.724 468.908 224.005 466.203 216.151C463.166 207.34 464.16 197.94 468.285 189.65C472.702 180.777 479.785 174.4 489.234 171.406Z" fill="#C72707"/>
<path d="M483.997 176.408C486.252 176.285 487.641 176.17 489.691 177.338C491.592 180.845 490.48 186.751 490.591 190.731C490.717 195.417 491.017 202.811 495.118 205.936C501.83 211.057 508.913 204.577 515.854 204.496C518.157 204.47 518.465 205.013 519.892 206.573C520.586 208.819 520.87 210.272 520.271 212.588C518.425 219.72 511.611 226.032 505.632 229.691C501.822 232.21 494.369 233.045 489.912 232.52C483.721 231.789 477.876 228.228 474.051 223.356C469.192 217.158 467.512 209.639 468.537 201.896C470.075 190.391 475.1 183.235 483.997 176.408Z" fill="#F03906"/>
<path d="M501.665 161.847C502.501 161.84 503.345 161.823 504.173 161.862C511.824 162.212 518.709 166.079 523.655 171.843C527.693 176.557 532.221 184.116 531.448 190.619C531.164 193.053 530.501 193.509 528.6 194.965C522.756 195.347 507.951 198.793 503.463 195.757C501.72 194.58 500.829 192.489 500.332 190.522C498.502 183.219 497.965 168.297 501.665 161.847Z" fill="#C72707"/>
<path d="M506.074 165.775C507.817 165.842 509.599 166.021 511.295 166.44C516.43 167.714 521.754 173.738 524.341 178.144C525.911 180.825 527.378 184.636 526.266 187.734C525.429 190.046 523.828 190.909 521.849 192.062C517.274 192.35 508.732 194.04 505.182 190.665C502.651 188.263 501.846 183.966 501.759 180.64C501.609 175.285 502.374 169.812 506.074 165.775Z" fill="#F03906"/>
<path d="M711.707 423.264C717.741 417.022 731.141 390.742 745.094 398.464L745.402 400.207C742.894 405.374 734.659 403.707 727.079 414.05L726.488 414.867C723.861 418.89 722.3 421.504 720.067 425.775C711.533 438.566 696.224 485.452 673.374 469.897C668.586 466.635 665.124 459.478 662.095 454.413C643.441 439.28 636.39 469.851 617.421 480.735C615.102 484.221 613.335 487.196 610.369 490.172C610.062 492.132 609.951 492.006 608.587 493.504C604.17 493.461 604.099 488.829 599.138 487.873L599.059 483.126C599.043 478.618 599.272 476.017 599.753 471.636C599.95 475.853 599.216 475.647 601.37 478.088C606.039 479.46 610.409 476.166 614.826 473.786C623.218 460.939 628.905 438.838 642.826 431.363C653.845 425.445 664.09 441.589 667.687 449.905C674.005 454.613 676.844 456.925 684.811 453.917C687.106 455.456 687.863 455.692 688.975 458.244C692.248 455.936 692.832 455.623 695.38 452.639C694.938 450.366 693.353 449.282 691.594 447.477C699.576 439.147 702.565 430.564 711.707 423.264Z" fill="#1A110E"/>
<path d="M655.682 443.189C658.719 447.473 659.776 449.721 662.095 454.413C643.441 439.28 636.39 469.851 617.42 480.735C619.511 476.556 621.412 472.492 623.943 468.565C633.424 467.943 634.173 441.93 655.682 443.189Z" fill="#C72707"/>
<path d="M623.943 468.565C627.824 459.449 633.771 447.661 640.744 440.546C646.714 434.452 651.455 437.437 655.682 443.189C634.173 441.93 633.424 467.942 623.943 468.565Z" fill="#F9EFE6"/>
<path d="M599.059 483.126C599.043 478.618 599.272 476.016 599.753 471.635C599.95 475.852 599.216 475.646 601.37 478.088C606.039 479.459 610.409 476.166 614.826 473.785C612.183 478.826 609.17 484.293 606.859 489.444L610.369 490.172C610.062 492.132 609.951 492.005 608.587 493.503C604.17 493.461 604.099 488.828 599.138 487.873L599.059 483.126Z" fill="#C72707"/>
<path d="M599.059 483.126C600.833 484.695 605.881 488.185 606.859 489.444L610.369 490.172C610.062 492.132 609.951 492.005 608.587 493.503C604.17 493.461 604.099 488.828 599.137 487.873L599.059 483.126Z" fill="#F9EFE6"/>
<path d="M691.594 447.477C699.576 439.146 702.565 430.564 711.707 423.264C707.369 433.047 701.264 446.552 695.072 455.084L695.38 452.639C694.938 450.365 693.353 449.281 691.594 447.477Z" fill="#C72707"/>
<path d="M667.687 449.904C674.005 454.612 676.844 456.924 684.811 453.916C687.106 455.455 687.863 455.691 688.975 458.243C683.691 462.217 680.488 462.372 673.91 461.524C671.023 456.925 669.888 454.857 667.687 449.904Z" fill="#C72707"/>
<path d="M695.38 452.639L695.072 455.085C689.07 463.279 683.336 471.365 673.91 461.525C680.488 462.373 683.69 462.218 688.975 458.244C692.248 455.936 692.832 455.623 695.38 452.639Z" fill="#FCE5D7"/>
<path d="M291.883 193.083C293.571 193.28 294.249 193.528 295.566 194.605C298.146 201.137 294.383 214.608 294.494 222.255L294.525 223.703C297.538 218.715 299.802 213.3 303.13 208.496C304.495 206.527 305.97 204.333 308.446 203.845L309.582 205.116C310.339 209.267 309.369 212.714 308.415 216.718C311.68 212.552 315.056 207.36 319.016 203.855C320.751 202.323 321.579 201.976 323.851 202.075C328.102 205.787 327.865 212.533 328.528 217.786C331.943 214.404 335.445 208.976 339.728 206.781C345.486 203.825 348.649 210.398 353.799 211.262C358.981 212.129 364.692 207.69 368.998 205.311C374.796 202.109 380.845 199.947 387.431 202.221C389.403 202.9 390.184 203.391 390.988 205.286L390.002 206.852C385.349 209.418 381.074 208.033 376.294 209.487C368.312 211.912 362.286 216.654 353.736 218.357L352.324 217.804C348.388 216.286 345.233 214.032 341.802 211.633L338.624 215.434C336.636 217.823 334.704 220.502 331.714 221.699C329.932 222.416 328.102 222.75 326.335 221.749C322.557 219.61 322.076 213.359 321.39 209.521L317.344 214.908C315.238 217.693 313.289 220.754 309.645 221.268C308.88 220.588 307.658 219.218 306.743 218.846C304.408 217.899 298.398 227.934 294.32 229.588C292.553 230.304 292.293 230.048 290.66 229.323C287.876 224.921 287.908 219.841 288.018 214.816L288.01 214.09L287.316 214.066C284.879 218.971 282.323 224.809 278.198 228.513C276.187 230.314 274.696 230.556 272.078 230.434C269.995 229.256 269.183 228.439 267.992 226.349C267.874 226.148 267.763 225.944 267.653 225.741C265.16 226.052 260.451 233.821 256.547 235.393C255.49 235.261 254.749 235.457 254.015 234.573C250.158 229.906 251.255 219.158 251.586 213.524C248.652 219.855 243.572 234.403 237.002 236.876C234.928 236.753 233.902 236.842 232.262 235.353C230.771 233.996 230.542 230.485 230.393 228.602C229.762 220.539 230.866 202.487 236.19 196.401L237.475 196.38L237.996 197.676C236.111 206.483 232.349 221.513 235.511 230.155L236.797 230.69C244.961 224.861 247.398 204.419 255.12 200.777L256.445 201.63C259.466 209.581 257.715 221.023 257.565 229.467C260.933 224.469 263.157 219.032 266.209 213.868C267.495 211.688 268.465 210.142 270.973 209.527L272.432 210.997C274.176 215.467 273.616 220.397 273.537 225.126C281.779 215.258 284.792 203.435 291.883 193.083Z" fill="#161513"/>
<path d="M636.926 696.914C637.455 683.763 634.631 635.157 638.496 627.576C642.439 624.917 647.834 625.729 652.338 626.652C653.987 627 655.627 627.394 657.252 627.828C659.129 651.354 659.192 674.99 657.425 698.524C656.44 700.701 656.077 701.742 654.744 703.754L640.617 702.468C639.008 700.559 637.62 699.297 636.926 696.914Z" fill="#C72707"/>
<path d="M636.926 696.914C641.793 698.113 652.748 699.707 657.425 698.524C656.44 700.701 656.077 701.742 654.744 703.754L640.617 702.468C639.008 700.559 637.62 699.297 636.926 696.914Z" fill="#FCE5D7"/>
<path d="M642.881 629.177C646.454 629.469 650.619 630.25 653.442 632.522C654.665 637.342 653.608 644.356 653.671 649.429C653.86 664.363 655.351 679.771 653.813 694.665L650.248 696.559C646.833 696.685 644.293 696.914 641.461 694.768C638.756 687.423 638.63 643.338 639.844 634.226C640.215 631.504 640.791 630.928 642.881 629.177Z" fill="#F03906"/>
<path d="M306.94 646.667C308.368 639.598 310.868 625.745 319.079 624.057L320.633 625.137C323.172 629.682 323.03 634.304 323.054 639.424C323.433 642.012 322.983 642.532 324.49 643.661C325.263 642.446 325.507 642.233 326.02 640.899C328.055 637.696 329.735 635.204 333.647 636.774C336.202 639.346 336.534 641.508 337.654 644.963C346.764 637.074 349.919 634.967 357.388 645.208C361.868 643.172 372.445 638.122 376.633 641.602C375.032 648 362.901 650.21 357.23 649.452C353.247 648.916 351.772 645.964 349.619 642.974C345.249 646.217 341.25 650.801 335.863 648.805C333.324 646.415 332.953 644.577 331.62 641.224C329.68 645.113 327.479 651.669 322.352 650.099C318.913 645.681 318.629 634.107 317.635 627.582C313.4 635.282 310.087 659.344 305.134 661.814L303.47 661.081C300.157 655.543 301.395 647.874 300.599 640.963C298.185 637.673 295.653 641.823 293.602 639.543C292.609 638.439 293.602 636.08 290.66 633.966C281.905 634.47 272.362 667.708 259.655 638.186C256.91 642.754 254.654 648.348 248.644 647.819C244.219 644.561 243.233 635.48 241.656 629.524C239.179 632.877 236.592 636.34 234.975 640.19C233.69 643.275 233.524 645.429 231.599 648.348L230.905 647.33C230.826 640.443 235.117 623.82 244.811 627.157C248.463 631.323 248.589 638.754 249.22 644.316C265.689 621.911 261.824 638.903 269.033 643.077C281.33 644.544 280.951 620.151 295.361 630.392C304.755 637.066 304.597 635.63 306.94 646.667Z" fill="#161513"/>
<path d="M596.811 508.296C613.682 507.629 630.561 506.482 647.338 505.767C667.734 504.896 690.245 510.431 710.871 509.901C720.351 510.057 746.143 505.508 752.319 508.962C753.471 511.507 753.218 510.106 752.295 513.404C715.232 518.006 684.211 515.022 647.511 510.939C635.443 509.597 607.735 516.056 597.402 510.775C596.716 509.131 596.653 509.781 596.811 508.296Z" fill="#161513"/>
<path d="M599.003 701.758C612.57 701.111 627.059 701.837 640.617 702.468L654.744 703.754C657.938 704.243 661.566 704.89 664.753 705.142C669.651 706.065 694.039 709.15 698.732 708.637C707.124 709.75 741.143 706.294 741.916 714.759C735.819 721.134 650.981 710.499 637.415 708.266C628.605 706.823 604.446 707.493 598.144 703.698L599.003 701.758Z" fill="#161513"/>
<path d="M609.959 653.302C614.613 653.184 622.744 652.048 626.704 654.793C630.963 663.756 629.614 686.366 628.621 696.725L611.757 696.394C607.695 682.729 608.153 667.322 609.959 653.302Z" fill="#C72707"/>
<path d="M616.064 655.74C618.674 656.032 620.891 656.182 623.225 657.492C624.842 660.332 625.087 663.298 625.276 666.501C625.568 671.329 626.412 687.644 624.543 691.557C624.133 692.409 623.289 692.977 622.665 693.688C620.102 693.175 616.647 692.938 614.786 691.037C611.063 683.337 609.872 668.079 612.364 659.787C613.074 657.421 614.005 656.955 616.064 655.74Z" fill="#F03906"/>
<path d="M472.402 272.876C473.727 273.46 474.437 274.086 475.439 275.119C475.289 278.867 472.568 281.974 469.799 284.382C467.875 286.052 464.807 288.131 462.101 287.567C459.822 287.092 457.747 284.293 456.257 282.589C452.337 283.274 451.217 287.102 447.659 287.274C444.788 285.792 443.566 283.397 441.894 280.741C439.591 284.277 437.461 287.92 434.409 290.861C431.041 291.376 426.805 288.281 423.516 286.947C422.191 287.467 421.158 287.972 419.699 287.894C418.342 287.82 416.969 285.847 416.015 284.886C410.06 284.355 408.964 292.058 403.805 292.214C399.948 292.331 397.866 290.178 395.192 287.75C391.927 291.286 389.34 294.707 384.592 296.193C383.243 295.956 382.454 296.088 381.437 295.069C378.376 291.993 378.676 286.564 378.368 282.486C373.81 286.076 370.71 290.249 367.389 294.939C366.293 294.368 366.892 294.8 365.835 293.356C365.922 291.737 366.348 290.63 367.113 289.229C369.542 284.749 373.226 279.489 378.282 277.995C379.599 278.292 380.317 278.201 381.287 279.242C384.347 282.529 383.921 287.64 384.087 291.853C386.28 289.434 388.456 286.841 390.846 284.619C392.321 283.246 394.135 282.405 396.194 282.637C399.057 282.96 401.337 285.962 403.237 287.936C405.541 285.625 413.507 277.043 416.764 278.19C417.821 278.559 419.06 280.303 420.085 280.524C421.655 280.862 423.989 279.955 425.701 280.171C427.917 280.449 430.047 284.349 431.364 286.084C435.103 281.744 438.652 277.453 443.25 273.991C445.128 276.254 446.745 278.754 448.432 281.163C449.694 279.653 450.988 277.968 452.439 276.633C454.032 275.16 455.192 275.072 457.266 275.1C460.074 276.509 461.423 279.14 463.087 281.686C466.053 278.448 468.837 275.476 472.402 272.876Z" fill="#161513"/>
<path d="M607.837 550.568C608.894 550.734 609.872 551.081 610.89 551.389C615.204 556.209 614.707 567.041 615.315 573.305C619.242 568.146 623.368 556.028 629.212 553.858L630.861 555.018C632.604 558.253 632.351 562.008 632.509 565.605C634.26 563.286 636.555 559.57 639.269 558.387C640.302 557.937 641.438 557.771 642.447 558.284C645.594 559.886 646.32 564.824 647.227 567.941C648.615 566.765 650.027 565.503 651.589 564.54C653.537 563.341 655.982 562.812 658.206 563.546C660.478 564.296 662.158 566.371 662.899 568.58C663.641 570.804 663.365 572.327 662.276 574.323L660.431 574.489C658.246 573.321 657.544 571.506 656.424 569.416L655.903 568.43L650.642 573.644C648.529 573.992 646.651 574.37 644.664 573.353C641.643 571.806 641.091 566.442 640.389 563.444C638.306 566.536 636.603 569.605 633.361 571.585C631.208 571.885 631.239 571.932 629.425 570.741C627.43 567.696 627.453 564.319 627.114 560.793C625.687 564.43 624.133 568.209 622.074 571.546C620.244 574.512 618.635 576.879 615.149 577.7C614.439 577.416 613.997 577.297 613.398 576.737C608.91 572.508 609.028 560.611 608.098 554.513C603.073 561.353 601.33 568.808 598.073 576.461C599.169 566.678 600.313 557.708 607.837 550.568Z" fill="#161513"/>
<path d="M596.811 508.296C594.965 506.897 593.916 505.259 593.821 502.909C593.395 488.222 594.034 471.82 594.255 457.284C594.429 446.141 590.659 398.39 595.494 392.193L596.566 393.063C598.649 400.221 597.781 417.541 598.372 425.678C599.508 441.247 599.974 456.009 599.753 471.635C599.272 476.016 599.043 478.618 599.059 483.126L599.138 487.873C599.232 494.937 600.242 502.389 596.811 508.296Z" fill="#161513"/>
<path d="M457.913 316.878C458.528 316.794 459.136 316.717 459.751 316.647C462.953 316.285 464.223 316.422 466.778 318.473C466.92 319.553 467.323 320.032 466.487 320.91C461.265 326.431 392.021 328.182 380.04 329.028C376.996 329.205 374.093 329.706 371.419 327.964L371.396 326.834C380.127 322.54 418.91 322.025 430.82 320.843C439.867 319.946 448.929 318.308 457.913 316.878Z" fill="#161513"/>
<path d="M595.62 698.302C590.919 677.324 595.493 651.582 596.771 630.344C597.158 623.882 595.083 605.951 597.331 601.209L598.293 601.912C604.114 616.452 599.074 651.756 598.538 667.992C598.238 677.104 599.098 689.49 598.333 698.153L595.62 698.302Z" fill="#161513"/>
<path d="M455.389 303.639C457.771 303.356 460.894 302.776 463.245 303.228C465.075 303.578 466.045 304.327 466.991 305.842C465.785 307.132 464.42 307.26 462.748 307.544C451.382 309.473 439.141 309.399 427.61 310.081C411.866 311.059 396.147 312.254 380.443 313.664C376.554 314.076 373.36 314.517 369.653 312.967L369.306 312.066C378.053 307.949 442.888 304.539 455.389 303.639Z" fill="#161513"/>
<path d="M593.277 202.511C595.667 202.326 597.994 201.954 600.123 203.328C601.685 204.335 602.355 205.156 602.624 207.006C602.482 207.184 602.371 207.385 602.205 207.542C597.765 211.882 567.091 212.439 559.361 213.108C555.512 213.256 551.876 213.897 548.547 211.634L548.618 210.653C555.551 206.182 583.962 203.402 593.277 202.511Z" fill="#161513"/>
<path d="M309.748 675.794C314.528 674.54 318.944 672.291 323.527 670.501C326.13 669.483 328.764 668.915 331.572 668.97C336.533 669.065 341.203 671.644 346.14 671.771C352.766 671.944 363.327 668.875 369.179 672.41C371.404 673.751 371.412 674.855 372.129 677.143C362.278 680.567 341.81 673.751 331.351 673.388C323.803 673.12 319.039 679.187 312.027 679.644C310.118 679.77 308.052 679.273 306.719 677.798C304.589 675.439 304.826 671.913 305.055 668.986C307.46 670.24 308.565 673.435 309.748 675.794Z" fill="#161513"/>
<path d="M415.952 337.384C418.287 337.143 420.89 336.822 423.193 337.419C425.117 337.92 426.979 338.645 428.028 340.417L427.357 341.503C417.64 346.863 395.011 345.643 383.606 345.181C380.995 345.147 377.927 345.351 375.403 344.651C374.046 344.277 373.478 344.145 372.832 342.874C377.903 339.697 407.166 338.686 415.952 337.384Z" fill="#161513"/>
<path d="M593.435 170.662C594.586 170.582 596.085 170.346 597.213 170.549C599.09 170.889 599.303 171.295 600.123 172.819C600.045 173.048 599.989 173.291 599.871 173.505C598.696 175.633 595.462 177.003 593.317 177.873C583.891 181.696 577.21 180.746 568.298 176.815C564.212 178.288 560.442 179.922 556.198 180.98C555.93 180.911 555.662 180.838 555.386 180.771C553.919 180.407 552.326 180.112 550.937 179.507C549.242 178.776 548.35 177.46 547.806 175.758L548.8 174.572C551.568 174.088 553.674 175.466 556.088 176.621C556.885 176.248 557.681 175.893 558.478 175.528C567.604 171.348 574.253 174.328 583.544 173.483C586.802 173.187 590.335 171.704 593.435 170.662Z" fill="#161513"/>
<path d="M610.645 186.746C613.635 186.371 615.48 186.407 618.107 187.826L618.517 189.302C614.636 192.996 565.576 195.762 556.963 196.345C554.171 196.633 552.31 196.797 549.667 195.782L549.218 194.744C555.181 191.816 600.999 187.508 610.645 186.746Z" fill="#161513"/>
<path d="M620.923 326.668C624.377 317.272 629.449 299.659 639.332 295.338C646.502 292.203 652.796 304.574 660.502 307.783L658.412 311.761C651.502 308.442 647.219 301.237 641.517 300.392C637.052 301.421 635.554 304.811 633.14 308.614C631.894 311.146 628.534 318.39 627.856 321.127C626.168 325.907 625.797 329.02 621.506 331.651C620.576 329.331 620.789 329.231 620.923 326.668Z" fill="#1A110E"/>
<path d="M235.653 659.463C236.387 661.214 236.505 662.697 236.702 664.567C236.829 665.806 236.805 667.597 237.262 668.749C238.004 670.626 238.627 670.871 240.323 671.604C244.424 670.287 245.883 665.317 249.275 663.005C251.113 661.751 251.688 662.058 253.684 662.524C256.224 664.788 256.736 667.96 257.667 671.115C261.209 668.977 264.529 667.242 268.418 665.766C272.843 667.108 284.043 666.831 286.425 668.701L286.543 670.745C285.873 670.934 285.202 671.123 284.524 671.281L283.617 671.494C276.392 673.19 270.24 669.048 263.275 672.677C262.108 673.285 261.035 673.971 259.773 674.358C257.849 674.957 257.517 674.563 255.782 673.727C253.645 671.242 252.879 668.196 251.846 665.143L250.868 666.295C248.029 669.593 244.101 674.8 239.084 674.358C237.183 674.192 235.89 673.616 234.975 671.865C233.263 668.607 234.667 662.8 235.653 659.463Z" fill="#161513"/>
<path d="M715.153 554.379C716.652 554.229 718.159 554.197 719.665 554.276C722.347 554.442 724.634 555.665 726.361 557.7L725.478 559.073C716.297 562.828 699.939 560.564 689.653 560.398C687.461 560.075 685.244 559.791 683.075 559.302C681.711 558.994 679.628 558.686 678.856 557.456C683.083 554.758 708.126 555.002 715.153 554.379Z" fill="#161513"/>
<path d="M726.488 414.867C731.646 414.26 742.334 409.678 746.403 411.472L747.232 412.845C744.668 417.534 733.949 419.101 729.217 421.102C726.156 422.397 722.986 424.176 720.067 425.775C722.299 421.504 723.861 418.89 726.488 414.867Z" fill="#C72707"/>
<path d="M673.816 289.963L673.681 291.26C673.453 293.226 673.177 293.824 672.506 295.671C673.642 295.387 674.723 295.086 675.906 295.307C674.565 297.751 667.797 307.425 667.782 307.469C664.169 310.468 663.112 310.995 658.411 311.762L660.502 307.784C666.63 301.793 668.673 296.619 673.816 289.963Z" fill="#1A110E"/>
<path d="M678.611 570.118C685.165 569.637 692.824 568.327 699.229 570.094C700.822 571.648 700.585 571.704 700.625 573.96C695.53 575.072 684.124 576.185 679.81 573.14C678.619 572.303 678.848 571.451 678.611 570.118Z" fill="#161513"/>
<path d="M624.503 167.568C626.696 167.454 628.266 167.969 630.301 168.652C630.521 170.171 630.64 169.397 629.67 170.916C627.572 171.92 625.647 172.778 623.336 173.177C620.78 173.618 618.335 174.271 615.835 174.959L614.116 175.73C612.325 174.946 612.317 175.059 611.568 173.271L612.349 171.828C616.001 169.258 620.22 168.581 624.503 167.568Z" fill="#161513"/>
<path d="M684.811 453.917C686.925 452.196 689.583 449.443 691.594 447.477C693.353 449.281 694.938 450.365 695.38 452.639C692.832 455.623 692.249 455.936 688.975 458.243C687.863 455.691 687.106 455.456 684.811 453.917Z" fill="#C72707"/>
<path d="M598.333 698.152L599.003 701.757L598.144 703.698L595.62 698.302L598.333 698.152Z" fill="#1A110E"/>
<path d="M164.83 177.333C168.876 177.67 172.875 178.127 176.014 180.977C186.57 190.568 182.45 219.973 182.513 232.964C182.561 241.911 183.604 250.835 183.652 259.781C183.691 267.006 183.778 283.707 178.033 288.846C167.18 298.568 106.985 296.952 90.9641 296.845C90.6392 296.796 90.3126 296.752 89.9884 296.699C84.8364 295.858 78.4799 294.191 75.5316 289.45C70.7195 281.715 71.3844 222.719 72.1613 210.448C72.5612 204.118 73.3941 198.067 74.8225 191.891C78.3577 188.718 81.3052 186.349 85.9485 184.977C96.3347 181.905 107.652 182.762 118.365 181.865C133.88 180.568 149.292 178.538 164.83 177.333Z" fill="#270805"/>
<path d="M167.638 181.241L171.187 181.928C173.774 183.906 175.06 186.296 176.235 189.314C177.939 193.702 178.909 198.411 179.287 203.097C180.06 212.521 178.877 222.342 178.72 231.811C178.467 246.829 181.993 272.448 176.164 285.975C160.531 294.831 108.599 293.128 89.8086 292.819C87.3572 292.398 84.8955 291.941 82.6034 290.939C80.2695 289.919 78.6005 288.253 77.8094 285.801C75.8463 279.711 76.9087 271.1 76.6736 264.579C76.0245 246.598 71.9917 205.766 80.3516 190.651C83.1256 188.387 86.9076 187.682 90.3647 187.108C98.2071 185.806 106.508 186.451 114.453 185.839C132.192 184.47 149.891 182.542 167.638 181.241Z" fill="#C72707"/>
<path d="M157.218 186.029C161.493 185.6 166.825 184.707 170.556 187.4C173.837 189.764 174.492 195.587 174.973 199.316C176.29 209.461 174.634 220.106 174.587 230.319C174.516 243.993 179.437 272.524 171.179 283.253C154.821 292.886 117.56 288.784 98.0706 289.578C94.3683 289.286 90.3765 289.563 86.7483 288.82C84.7551 288.412 82.5837 287.327 81.5812 285.497C78.7094 280.256 79.7734 269.058 79.4839 262.958C78.6344 245.048 75.6309 215.264 80.8343 198.47C83.9293 196.439 86.4154 194.252 89.0561 191.685C100.261 189.025 113.002 189.688 124.47 189.026C135.386 188.396 146.326 187.021 157.218 186.029Z" fill="#F03906"/>
<path d="M132.578 191.935C134.156 194.032 134.739 196.575 136.159 198.774C141.562 207.143 147.982 212.866 149.93 223.241C151.263 230.299 151.074 238.026 153.882 244.72C155.483 248.519 158.733 250.96 160.46 254.418C161.415 256.331 161.28 257.502 160.681 259.474C157.534 263.732 144.622 264.55 139.251 266.068C138.699 270.09 138.091 274.539 134.668 277.237C131.206 279.968 126.899 279.164 122.861 278.625C120.684 277.703 120.187 276.335 119.059 274.414C111.779 262.035 106.963 270.435 97.8159 266.658C96.4056 266.076 95.8685 265.404 95.2974 264.064C92.0651 256.483 101.112 249.134 103.007 242.242C106.017 231.292 104.289 218.203 110.649 208.123C114.114 202.628 119.43 203.892 123.224 194.584C123.342 194.289 123.452 193.991 123.571 193.695C126.071 191.985 129.612 192.216 132.578 191.935Z" fill="#C72707"/>
<path d="M126.639 193.959C127.806 194.114 128.974 194.385 130.125 194.606C131.592 196.252 131.616 196.314 131.734 198.547C132.152 206.622 139.945 206.323 143.581 214.367C148.03 224.225 147.754 235.517 150.333 245.907L150.577 246.849C152.739 248.856 155.767 251.173 157.329 253.698C158.425 255.485 158.425 256.539 158.047 258.527C154.016 262.22 136.924 261.432 130.733 261.883C123.271 261.934 103.473 265.63 98.1292 262.083C97.3128 255.693 103.562 252.653 105.758 247.311C109.523 238.152 106.91 227.315 110.222 217.901C112.521 211.363 116.874 207.522 122.94 204.513C123.784 200.717 124.415 197.241 126.639 193.959Z" fill="#F5F4EE"/>
<path d="M129.628 267.221C130.938 267.094 132.602 266.781 133.895 266.948C135.836 267.198 136.017 267.731 136.956 269.232C136.924 270.325 136.837 271.149 136.238 272.099C134.022 275.623 131.474 276.462 127.53 277.181C126.45 276.906 125.55 276.554 124.533 276.06C122.112 274.88 120.321 273.302 119.469 270.789L120.479 268.937C123.2 266.974 126.402 267.317 129.628 267.221Z" fill="#F9EFE6"/>
<path d="M90.3648 352.29L93.0741 352.929C95.7739 356.161 94.5269 368.882 94.874 373.645C97.7103 369.787 100.314 361.813 104.35 359.581C108.472 360.866 106.964 365.629 110.195 367.658C113.262 365.736 115.92 360.205 118.523 357.376L119.083 356.781L123.642 365.365C127.12 362.565 130.551 359.715 133.943 356.817C142.682 364.229 149.434 359.435 159.577 362.22L159.411 363.826C156.501 365.922 143.849 366.347 139.424 367.067L133.304 362.237C130.914 364.403 127.585 368.009 124.233 368.487C122.853 368.683 121.544 367.383 120.526 366.597C119.17 365.555 118.862 365.787 117.214 365.693C114.666 366.954 113.948 368.949 112.252 371.032C110.807 372.801 110.168 373.081 107.931 373.219C105.438 371.875 104.48 369.831 103.099 367.482C101.817 369.399 100.54 371.384 98.9486 373.063C97.48 374.613 95.9033 375.687 93.6806 375.578C92.5251 375.522 91.6906 374.957 90.9926 374.019C87.2326 368.958 89.4364 358.145 90.3648 352.29Z" fill="#F5F4EE"/>
<path d="M96.2368 583.506L98.6417 584.697C101.017 587.806 101.953 591.75 103.164 595.427L110.44 590.488C116.835 590.18 123.326 589.589 129.723 589.746C136.956 589.928 143.944 591.758 151.106 592.444C156.201 592.934 161.344 592.358 166.439 592.902C167.796 593.052 168.789 593.383 170.012 593.951L169.838 595.174C166.999 597.17 164.025 597.707 160.705 598.488C150.136 598.803 140.41 595.711 130.046 594.393C123.476 593.565 117.19 593.92 110.609 594.409C109.165 595.482 107.626 596.76 106.018 597.557C104.151 598.48 102.869 597.896 101.092 597.178C98.6764 594.606 97.7575 591.293 96.5389 588.042C95.3132 590.583 94.2216 592.973 92.4091 595.15L91.4855 594.993C91.7686 590.417 93.7515 587.269 96.2368 583.506Z" fill="#F5F4EE"/>
<path d="M122.285 393.39C128.469 392.59 152.336 391.783 157.423 393.868C159.032 394.527 159.222 395.269 159.64 396.75C159.49 396.936 159.372 397.147 159.198 397.308C155.459 400.803 130.141 398.474 123.697 398.591C112.583 398.93 99.3255 403.199 88.4487 400.937L88.8652 400.14L88.7295 400.881L89.2974 400.97L90.2817 399.53C100.602 396.343 111.587 394.752 122.285 393.39Z" fill="#F5F4EE"/>
<path d="M161.801 324.786C164.625 324.394 166.778 324.098 169.2 325.728L169.081 327.045C160.997 333.678 107.637 333.256 94.9078 333.196C91.8499 333.225 89.8016 333.319 87.1119 331.759L87.1277 330.898C95.0278 328.353 117.355 328.974 126.97 328.348C138.628 327.589 150.207 326.234 161.801 324.786Z" fill="#F5F4EE"/>
<path d="M115.289 631.835C118.673 631.567 122.072 631.386 125.472 631.291C132.736 631.141 160.752 631.536 165.516 636.167L164.98 637.421C159.569 640.024 148.408 638.029 142.232 637.595C133.264 636.64 98.2639 638.455 93.294 633.713L93.9084 632.601C100.501 630.936 108.394 632.246 115.289 631.835Z" fill="#F9EFE6"/>
<path d="M99.2696 650.683C109.125 650.533 126.868 649.728 135.812 653.16C137.547 653.831 137.705 653.839 138.494 655.59C138.249 655.937 138.052 656.316 137.76 656.631C135.883 658.627 132.334 658.73 129.802 659.093C121.394 658.02 112.978 657.854 104.538 657.215C100.711 656.931 93.4676 656.876 90.9349 653.949C91.1826 653.586 91.3609 653.16 91.6779 652.86C93.6798 650.92 96.6786 650.833 99.2696 650.683Z" fill="#F5F4EE"/>
<path d="M127.798 428.935C129.952 428.67 132.073 428.553 134.242 428.513C138.959 428.424 151.358 428.074 154.797 431.387C151.019 434.241 126.749 434.139 120.542 434.574C113.703 435.016 99.0621 435.937 93.1623 433.074L93.6537 432.136C103.164 428.293 117.387 429.9 127.798 428.935Z" fill="#F5F4EE"/>
<path d="M95.363 609.051C96.9531 611.97 96.1438 615.418 95.9963 618.708C99.7594 615.465 103.635 612.72 107.79 610.006C108.954 613.304 109.541 615.678 112.536 617.698C115.991 618.171 119.54 616.215 122.719 614.976C128.619 617.895 136.869 616.941 141.925 620.451L142.035 621.958C134.921 621.477 127.948 621.548 121.449 618.298C118.996 619.489 115.991 621.43 113.215 621.28C109.911 621.098 107.526 616.972 105.698 614.597C105.338 614.881 104.975 615.165 104.62 615.465C103.448 616.428 102.312 617.453 101.085 618.353C98.6134 620.167 96.8955 620.467 93.8297 619.962C93.0575 619.213 92.2151 618.802 92.1228 617.658C91.8893 614.732 93.6845 611.355 95.363 609.051Z" fill="#F5F4EE"/>
<path d="M130.015 450.981C131.016 450.754 132.712 450.444 133.722 450.582C135.441 450.82 135.717 451.737 136.593 453.053L135.938 454.566C128.358 459.185 115.455 457.797 106.752 457.602C105.67 457.477 104.386 457.408 103.317 457.138C101.615 456.71 101.169 456.771 100.349 455.248C104.527 452.15 123.807 451.938 130.015 450.981Z" fill="#F5F4EE"/>
<path d="M130.835 147.573C133.54 147.457 135.922 147.435 138.044 149.49C139.566 150.97 139.953 152.773 139.905 154.824C139.827 158.248 137.689 160.724 135.418 163.024C133.469 162.998 131.576 162.952 129.802 162.011C128.082 161.1 126.797 159.606 126.457 157.659C125.74 153.584 128.358 150.425 130.835 147.573Z" fill="#F5F4EE"/>
<path d="M76.9994 155.563C80.4644 153.873 84.6455 155.255 86.4217 158.678C88.1972 162.101 86.9202 166.315 83.5436 168.177C81.2831 169.422 78.5248 169.344 76.3384 167.973C74.152 166.601 72.8814 164.151 73.0186 161.574C73.1559 158.996 74.6797 156.695 76.9994 155.563Z" fill="#F5F4EE"/>
<path d="M103.507 152.222C105.875 151.216 108.603 151.581 110.624 153.174C112.647 154.767 113.64 157.334 113.214 159.873C112.796 162.411 111.022 164.518 108.594 165.369C105.002 166.628 101.06 164.81 99.6859 161.259C98.3119 157.709 100.003 153.709 103.507 152.222Z" fill="#F5F4EE"/>
<path d="M398.544 762.386C400.508 762.299 402.74 762.252 404.665 762.686C407.252 763.277 409.563 765.336 410.983 767.506C412.521 769.849 413.002 772.326 412.332 775.056C411.503 778.464 409.768 780.176 406.897 782.014L406.006 781.951C401.652 781.604 398.118 780.665 395.318 777.068C393.654 774.93 392.842 772.532 393.276 769.818C393.836 766.291 395.815 764.445 398.544 762.386Z" fill="#161513"/>
<path d="M824.954 19.1328C831.051 20.8487 835.776 25.041 839.089 30.3536C849.287 46.6986 843.742 78.4276 843.032 96.9264C842.654 109.542 842.543 122.164 842.709 134.784C843.308 176.534 849.326 217.974 849.579 259.754C849.902 311.957 844.61 364.082 845.391 416.285C845.73 439.059 846.44 461.965 848.293 484.663C850.77 514.987 854.437 545.251 855.408 575.687C856.827 620.025 852.276 664.039 852.395 708.322C852.545 724.629 853.097 740.928 854.043 757.203C854.643 768.903 855.731 780.776 854.8 792.475C853.877 804.073 851.014 815.575 848.419 826.888C846.676 828.695 844.539 830.194 842.559 831.748C839.436 834.265 834.467 836.261 830.886 838.312C837.913 821.184 840.524 803.426 840.982 784.997C841.478 764.706 838.647 744.32 838.513 723.99C838.3 694.263 840.24 664.615 839.459 634.857C838.765 608.317 836.494 581.944 835.247 555.444C833.993 528.705 833.717 501.902 832.873 475.147C832.124 451.282 830.736 427.398 830.341 403.528C829.411 348.037 834.506 292.675 834.885 237.191C834.924 205.827 834.151 174.468 832.574 143.145C831.446 123.774 829.316 104.446 828.441 85.0641C827.455 63.3047 832.266 40.0385 824.954 19.1328Z" fill="#F5F4EE"/>
<path d="M163.678 957.898C174.405 957.385 189.307 961.448 200.057 963.247C256.902 972.753 312.461 987.293 369.022 998.109C394.609 1003 420.645 1007.21 446.46 1010.75C459.759 1012.57 473.159 1013.77 486.418 1015.88C514.679 1020.4 543.279 1026.94 571.074 1033.79C577.723 1035.43 586.596 1037.55 590.177 1044.01C591.66 1046.7 591.984 1049.27 591.053 1052.25C589.862 1056.08 585.792 1059.22 582.59 1061.31C573.132 1067.48 561.27 1071.57 551.079 1076.59C529.365 1087.31 508.464 1098.34 487.901 1111.17C471.629 1121.33 456.903 1134.75 439.882 1143.58C431.885 1147.72 424.857 1148.91 415.936 1147.76C403.861 1146.2 392.022 1141.74 380.159 1138.99C358.634 1133.98 337.022 1129.32 315.821 1123C280.115 1112.35 245.095 1099.41 209.412 1088.74C172.165 1077.62 133.777 1071.86 96.3173 1061.86C72.9026 1055.61 50.4842 1045.59 27.3638 1038.27C24.2309 1037.39 21.0065 1036.56 17.9509 1035.45C15.356 1034.5 13.5766 1033.22 12.358 1030.71L13.0884 1029.21C26.7943 1023.36 78.9649 1046.27 96.0215 1050.65C121.023 1057.07 146.925 1060.31 172.086 1066.23C208.418 1074.77 243.967 1086.4 279.389 1098.07C298.13 1104.24 410.549 1136.74 426.426 1134.2C440.821 1131.9 456.564 1116.96 468.435 1108.78C475.084 1104.2 481.985 1099.97 488.832 1095.69C517.392 1077.85 547.901 1063.74 577.92 1048.58C548.405 1039.95 517.928 1032.61 487.593 1027.5C471.117 1024.72 454.443 1023.23 437.942 1020.57C415.037 1016.88 391.958 1012.3 369.14 1007.94C322.652 999.056 277.465 985.163 231.157 975.404C221.164 973.306 167.843 963.712 164.806 961.416C163.757 960.628 163.891 959.113 163.678 957.898Z" fill="#161513"/>
<path d="M122.806 974.56C126.883 974.22 149.457 981.368 155.846 982.622C165.595 984.547 175.557 985.597 185.371 987.159C200.184 989.604 214.949 992.31 229.667 995.277C294.785 1008.39 359.462 1023.82 424.494 1037.37C440.758 1040.77 501.065 1050.56 512.289 1056.34C513.409 1057.91 514.111 1058.91 513.843 1061C513.464 1063.94 510.538 1064.72 508.038 1064.88C500.127 1065.41 490.859 1062.45 483.058 1061.05C472.284 1059.12 454.064 1058.31 444.228 1063.64C438.368 1066.81 436.909 1071.77 434.969 1077.73C428.525 1081.41 407.804 1073.51 400.169 1071.86C397.519 1073.42 394.885 1075.02 392.219 1076.57C387.518 1079.28 381.87 1082.18 376.341 1080.69L375.647 1079.4C378.053 1073.72 385.167 1071.21 390.428 1068.97C382.375 1066.05 374.038 1063.59 365.78 1061.33C363.288 1063.2 360.503 1064.88 357.727 1066.32C354.201 1068.14 349.887 1069.69 345.943 1068.51L345.344 1067.32C347.678 1062.67 351.804 1061.09 356.252 1058.94C345.62 1054.79 334.522 1051.88 323.503 1048.99C319.97 1051.27 316.286 1054 312.445 1055.72C309.669 1056.96 305.915 1057.88 303.036 1056.66L302.902 1055.25C305.37 1050.94 309.685 1049.34 313.952 1047.29C295.085 1044.14 276.897 1038.28 257.856 1036.36C256.681 1035.67 255.498 1035.02 254.544 1034.04C251.326 1030.76 252.122 1026.13 252.241 1021.93C243.304 1023.76 234.257 1028.29 225.203 1028.88C221.929 1029.1 218.845 1028.44 216.377 1026.16C212.551 1022.64 212.835 1017.08 212.52 1012.29C205.263 1014.16 197.589 1017.04 190.151 1017.78C186.941 1018.11 182.745 1018.12 180.305 1015.63C179.019 1014.31 178.57 1012.65 178.554 1010.85C178.522 1007.18 179.603 1003.65 182.135 1000.98C184.007 1001.41 183.88 1008.32 185.45 1010.35C189.118 1015.08 207.251 1005.67 213.916 1006.87C221.488 1008.25 217.686 1017.37 220.991 1021.75C228.957 1022.83 237.278 1017.59 244.992 1015.81C248.912 1014.91 252.982 1014.38 256.484 1016.77C260.483 1019.49 260.68 1024.49 261.185 1028.82C272.369 1029.05 282.647 1032.66 293.437 1035.14C303.367 1037.42 313.636 1039.13 323.732 1040.45C327.897 1038.08 331.493 1035.73 336.321 1035.11L337.299 1036C336.62 1038.76 334.01 1040.56 331.967 1042.4C343.64 1045.12 355.171 1048.84 366.782 1051.88C373.178 1048.62 381.105 1041.56 388.583 1041.94C386.753 1046.88 379.567 1051.12 375.45 1054.1L401.518 1062.52C409.887 1058.08 417.506 1052.54 426.15 1048.51L218.135 999.805C197.25 995.127 176.022 991.987 155.113 987.38C146.783 985.541 137.729 983.908 129.841 980.634C126.481 979.246 124.233 977.983 122.806 974.56Z" fill="#161513"/>
<path d="M423.145 1056.04C424.889 1054.13 427.373 1051.61 428.682 1049.51C434.629 1050.45 441.081 1051.35 446.934 1052.55C434.85 1056.73 435 1060.95 425.638 1068.22C425.338 1068.45 420.669 1067.39 419.919 1067.19C417.419 1066.75 413.523 1065.65 410.943 1065.01C415.305 1061.52 418.5 1059.13 423.145 1056.04Z" fill="#F5F4EE"/>
<path d="M879.622 971.081C881.965 971.065 882.943 971.42 884.946 972.477C885.554 973.455 886.09 973.873 885.987 975.088C885.396 981.905 870.465 992.113 865.496 996.153C851.874 1007.24 836.904 1016.73 822.399 1026.59C810.15 1035.05 798.074 1043.76 786.172 1052.7C765.16 1068.43 746.167 1087.08 724.934 1102.51C687.887 1129.43 649.088 1153.89 612.002 1180.77C603.128 1187.2 594.776 1194.31 586.1 1201C573.882 1210.39 561.443 1219.04 550.172 1229.62C548.579 1230.68 548.311 1230.97 546.418 1231L546.047 1229.32C550.07 1217.72 564.827 1208.5 573.953 1200.81C584.451 1191.96 594.728 1182.73 605.629 1174.38C641.982 1146.55 680.701 1121.94 717.52 1094.78C740.543 1077.78 761.287 1057.56 784.129 1040.33C804.163 1025.22 825.436 1012.1 845.864 997.596C857.522 989.313 868.588 980.153 879.622 971.081Z" fill="#161513"/>
<path d="M0.724859 836.442C8.68564 837.452 16.7387 839.724 24.5867 841.413C36.9013 844.134 49.3224 846.343 61.8177 848.04C89.9324 851.795 118.176 850.13 146.271 853.325C173.68 856.442 200.089 865.577 227.293 869.909C236.19 871.321 245.142 872.354 254.126 873.009C272.645 874.319 339.436 875.392 352.198 886.255C353.018 888.322 352.924 888.212 352.064 890.279C339.775 892.133 324.631 887.486 312.138 886.326C283.987 883.715 255.506 884.33 227.553 879.636C200.46 875.092 174.113 865.688 146.973 861.925C126.055 859.021 105.046 859.211 84.0334 857.791C61.585 856.268 38.6113 852.292 16.8681 846.659C11.6995 845.318 2.83868 843.693 0 838.864L0.724859 836.442Z" fill="#161513"/>
<path d="M334.341 1083.38C319.647 1078.06 303.951 1074.95 288.775 1070.97C266.683 1065.19 244.724 1059.87 222.6 1053.86C192.975 1045.81 164.357 1033.32 133.572 1028.82C120.266 1026.87 117.064 1038.62 109.809 1038.21C106.892 1029.09 127.917 1021.63 136.057 1023.17C170.777 1029.76 204.222 1041.11 238.548 1049.51C271.715 1057.62 305.402 1064.22 337.985 1074.37C340.532 1075.16 341.913 1077.24 342.828 1079.59C344.106 1083.86 342.465 1087.62 339.152 1090.47L337.938 1092.09C343.64 1094.93 360.78 1097.76 369.566 1101.09C374.819 1096.86 386.958 1087.09 393.883 1089.37C393.804 1094.94 385.617 1098.72 382.438 1101.78C369.4 1114.31 362.665 1106.92 347.008 1102.96C340.517 1101.33 326.682 1098.47 321.082 1094.83V1092.96C323.835 1087.8 329.009 1086.07 334.341 1083.38Z" fill="#161513"/>
<path d="M342.828 1079.59C344.105 1083.87 342.465 1087.62 339.152 1090.47L338.497 1088.81C338.687 1086.85 339.704 1080.84 342.425 1081.36L342.828 1079.59Z" fill="#161513"/>
<path d="M643.402 914.854L644.537 914.814C662.095 914.341 679.944 917.71 697.186 920.66C722.449 924.976 747.563 930.167 772.826 934.427C796.244 938.372 825.688 940.573 847.978 946.782C850.17 947.389 853.373 948.707 854.824 950.561C855.936 951.981 856.48 953.322 856.11 955.136C855.644 957.424 853.893 958.505 852.15 959.752C839.585 959.799 825.964 955.57 813.533 953.472C797.711 950.789 781.81 948.699 766.035 945.669C740.354 940.746 714.838 934.703 689.141 929.701C681.876 928.289 646.28 923.177 641.643 920.708C639.876 919.769 639.592 919.209 639.205 917.434C640.531 915.54 641.264 915.58 643.402 914.854Z" fill="#161513"/>
<path d="M140.828 948.683L142.429 949.298C143.376 950.986 143.273 951.002 142.879 952.919C139.18 956.359 128.776 957.361 123.523 959.578L51.1901 990.914C37.2625 996.799 23.241 1003.39 8.56018 1007.17L6.45661 1006.64L6.10638 1005.38C8.93245 1001.67 104.999 960.122 118.12 955.041C125.535 952.178 133.012 950.134 140.828 948.683Z" fill="#161513"/>
<path d="M383.629 1106.33C384.552 1106.29 385.467 1106.25 386.39 1106.26C394.869 1106.37 414.895 1108.87 420.913 1115.18C421.347 1117.55 421.016 1117.67 419.817 1119.82C412.269 1120 392.661 1115.29 385.798 1112.12C383.882 1111.24 383.251 1110.62 382.462 1108.7L383.629 1106.33Z" fill="#161513"/>
</g>
<defs>
<clipPath id="clip0_53_2947">
<rect width="886" height="1231" fill="white"/>
</clipPath>
</defs>
</svg>
