<svg width="28" height="28" viewBox="0 0 28 28" fill="none" xmlns="http://www.w3.org/2000/svg">
<path d="M14 0C18.064 0.0358519 22.1284 0.886309 24.5869 3.41406C27.1143 5.87253 27.9642 9.93635 28 14C27.9642 18.0638 27.1144 22.1275 24.5869 24.5859C22.1284 27.1138 18.064 27.9642 14 28C9.93614 27.9642 5.87248 27.1137 3.41406 24.5859C0.886284 22.1275 0.0358524 18.064 0 14C0.0358522 9.93616 0.886293 5.8725 3.41406 3.41406C5.87248 0.886341 9.93601 0.0358718 14 0ZM13.8965 8.03027C13.7626 8.03027 13.6472 8.07205 13.5498 8.15625C13.4565 8.24049 13.3974 8.3528 13.373 8.49316C13.2635 9.29596 13.1435 9.97254 13.0137 10.5225C12.8838 11.0723 12.7112 11.5237 12.4961 11.877C12.2811 12.226 11.9974 12.5052 11.6445 12.7139C11.2956 12.9225 10.8511 13.0876 10.3115 13.208C9.77179 13.3244 9.10579 13.4245 8.31445 13.5088C8.17254 13.5288 8.05521 13.5874 7.96191 13.6836C7.86858 13.7799 7.82129 13.8967 7.82129 14.0332C7.82137 14.1694 7.86604 14.2856 7.95508 14.3818C8.04841 14.4782 8.16838 14.5347 8.31445 14.5508C8.97174 14.6391 9.53975 14.7337 10.0186 14.834C10.5015 14.9303 10.914 15.0508 11.2549 15.1953C11.5955 15.3398 11.8793 15.5262 12.1064 15.7549C12.3336 15.9796 12.5227 16.2624 12.6729 16.6035C12.827 16.9406 12.957 17.3523 13.0625 17.8379C13.1721 18.3236 13.2757 18.9001 13.373 19.5664C13.3974 19.7068 13.4565 19.8191 13.5498 19.9033C13.6472 19.9915 13.7626 20.0361 13.8965 20.0361C14.0304 20.0361 14.144 19.9916 14.2373 19.9033C14.3347 19.8191 14.3937 19.7068 14.4141 19.5664C14.5236 18.7636 14.6436 18.0889 14.7734 17.543C14.9073 16.9932 15.0791 16.5435 15.29 16.1943C15.5051 15.8411 15.7877 15.5603 16.1367 15.3516C16.4898 15.1429 16.9359 14.9797 17.4756 14.8633C18.0194 14.7429 18.6854 14.6391 19.4727 14.5508C19.6146 14.5347 19.7319 14.4781 19.8252 14.3818C19.9225 14.2856 19.9716 14.1695 19.9717 14.0332C19.9717 13.8967 19.9226 13.7799 19.8252 13.6836C19.7319 13.5873 19.6164 13.5289 19.4785 13.5088C18.6872 13.4205 18.0212 13.3186 17.4814 13.2021C16.9419 13.0817 16.4974 12.9167 16.1484 12.708C15.7996 12.4993 15.5178 12.2202 15.3027 11.8711C15.0877 11.5179 14.9132 11.0683 14.7793 10.5225C14.6494 9.97254 14.5277 9.29596 14.4141 8.49316C14.3897 8.35283 14.3287 8.24049 14.2314 8.15625C14.1381 8.07196 14.0263 8.03027 13.8965 8.03027Z" fill="#F03906"/>
</svg>
