<svg width="899" height="824" viewBox="0 0 899 824" fill="none" xmlns="http://www.w3.org/2000/svg">
<path d="M363.584 168.619C363.114 144.369 362.914 120.109 362.994 95.8592C362.984 82.0992 362.494 67.8393 363.914 54.0993C365.484 38.9693 373.744 30.1492 389.334 28.2892C407.574 26.0992 426.594 25.0993 445.164 23.5993C483.644 20.3393 522.144 17.2792 560.664 14.4292L670.894 5.96926C699.864 3.47926 729.604 -0.620751 758.704 0.0792488C764.464 0.219249 770.584 2.49918 775.904 4.62918C790.494 10.4492 882.654 55.1092 889.614 63.3892C894.584 69.2992 894.404 77.6192 894.604 84.8892C895.784 128.129 894.024 171.279 893.614 214.499L893.064 442.729C893.504 521.259 897.484 600.259 894.214 678.859C893.834 687.919 887.514 691.409 880.534 695.449C880.214 702.679 880.004 709.639 879.164 716.839C874.724 721.149 859.914 731.679 853.784 731.659L850.984 728.799L849.574 729.519L848.684 732.959L847.984 733.329C842.654 733.449 829.514 732.699 824.634 731.549C823.074 729.859 822.844 729.549 820.994 728.219C814.384 730.419 797.504 739.579 790.404 743.239L787.544 762.539C779.664 768.419 764.204 775.619 754.944 780.159C737.984 778.549 721.084 776.359 704.274 773.589C696.864 765.409 697.024 759.759 695.214 748.929C682.594 747.159 667.384 746.119 654.464 744.709L580.484 736.069C551.824 732.789 509.474 726.689 482.324 725.839C481.584 727.529 479.724 731.449 478.854 732.919C475.674 738.259 456.854 743.079 450.354 744.629C441.224 746.799 409.634 743.309 401.154 738.979C396.704 736.699 396.234 722.169 395.734 716.339C388.604 715.349 373.424 713.389 371.164 705.869C364.074 682.249 365.054 620.599 371.184 598.799L371.694 595.299L372.884 595.669L372.674 593.849C375.044 596.639 374.314 684.169 375.224 697.079C382.104 706.709 387.564 706.899 398.944 708.149C460.374 714.879 521.994 720.029 583.364 727.269L701.554 740.059C716.664 741.679 748.464 746.379 761.584 746.039C767.214 742.069 767.654 741.819 771.904 736.189C773.154 688.619 771.514 642.979 771.934 595.629C773.094 506.919 773.674 418.199 773.664 329.489C773.314 278.979 771.884 228.999 770.274 178.539C769.384 140.349 771.604 102.199 770.354 64.0092C769.894 49.9392 770.814 35.6092 769.574 21.5592C769.254 18.0192 766.814 13.3492 763.824 11.3892C759.884 8.78919 751.874 9.7392 747.184 9.5292C722.124 10.7192 696.944 12.8792 671.934 14.8092C632.174 17.5392 592.424 20.5592 552.694 23.8692L454.314 31.4792C436.504 32.8092 413.294 33.8093 395.934 36.2093C399.344 36.4593 400.204 36.1893 403.304 37.4593C397.954 37.8993 378.424 40.0192 377.134 44.7892C370.504 69.4492 376.174 98.4692 375.314 123.859C375.114 130.039 373.934 156.629 374.954 159.509L376.014 159.929C380.014 155.419 379.314 154.739 384.524 153.419L385.464 153.899L384.194 155.789L386.204 157.919C382.684 161.089 379.204 164.279 375.744 167.499C373.924 165.979 371.774 164.689 369.774 163.379L363.584 168.619Z" fill="#171614"/>
<path d="M369.774 163.379C376.714 154.429 368.934 69.8389 372.484 53.2889C375.404 39.6789 383.194 36.919 395.934 36.209C399.344 36.459 400.204 36.189 403.304 37.459C397.954 37.899 378.424 40.0189 377.134 44.7889C370.504 69.4489 376.174 98.4689 375.314 123.859C375.114 130.039 373.934 156.629 374.954 159.509L376.014 159.929C380.014 155.419 379.314 154.739 384.524 153.419L385.464 153.899L384.194 155.789L386.204 157.919C382.684 161.089 379.204 164.279 375.744 167.499C373.924 165.979 371.774 164.689 369.774 163.379Z" fill="#DED2C0"/>
<path d="M371.184 598.799L371.694 595.299L372.884 595.669L372.674 593.849C375.044 596.639 374.314 684.169 375.224 697.079C374.034 697.599 374.794 697.389 372.864 697.209C372.844 692.979 371.924 688.829 371.934 684.529C371.974 669.919 375.364 606.629 371.184 598.799Z" fill="#13120E"/>
<path d="M702.344 749.569C718.874 750.639 735.364 752.279 751.784 754.489C752.084 759.909 751.824 765.329 751.634 770.759C736.774 770.119 721.574 767.539 706.794 765.779L702.344 749.569Z" fill="#F2F1E8"/>
<path d="M403.484 717.869C418.104 718.879 432.704 720.279 447.264 722.059L445.654 736.649C435.714 738.769 415.974 734.549 405.364 733.309C404.264 728.219 403.934 723.049 403.484 717.869Z" fill="#F2F1E8"/>
<path d="M386.204 157.919C391.404 154.799 394.484 152.029 400.454 153.509C416.744 165.709 415.624 246.739 406.684 265.069L405.334 266.109C403.214 271.949 404.724 274.149 407.324 279.939C409.914 285.719 422.614 306.929 426.404 310.759C429.424 313.099 429.604 312.959 431.294 316.539L431.164 323.339L433.554 323.399C436.104 331.699 432.324 337.579 423.564 338.189L421.254 339.969C423.624 342.859 423.924 342.209 423.944 345.169C417.624 351.469 400.394 350.399 394.914 360.839C396.554 367.939 396.294 384.559 396.394 392.609C397.114 401.169 395.364 409.719 395.984 414.339C398.334 425.419 409.084 466.199 403.404 474.759C400.414 475.079 400.274 474.559 397.254 473.329C395.564 476.559 397.014 494.119 396.454 498.949C394.294 517.539 386.024 544.059 377.304 560.949C363.624 587.459 364.544 598.109 360.444 626.719C356.484 664.349 347.824 715.189 356.714 750.739L358.034 750.959C372.854 753.469 388.874 771.149 373.614 781.439C367.004 785.899 331.344 784.869 329.274 773.759C322.664 738.229 316.574 698.379 313.964 662.449C312.274 649.049 310.444 635.669 308.494 622.309L305.884 603.919C296.584 609.629 291.744 612.089 280.474 613.349C279.134 621.659 278.344 631.209 277.014 638.859L275.344 638.229L275.514 628.499C273.354 631.859 272.534 656.099 270.514 664.609L270.284 664.259C269.784 666.989 269.494 668.679 268.644 671.369L267.104 672.009C267.254 648.239 270.704 619.519 276.374 596.489C277.224 593.039 281.394 584.969 283.014 580.569C281.834 568.299 287.404 525.479 279.204 518.569C275.934 520.519 273.074 525.099 270.694 528.309C266.854 514.679 268.534 503.669 265.714 492.859L264.284 492.319C262.234 493.659 260.984 494.479 258.814 495.599C257.614 487.669 264.184 463.449 266.404 454.499C259.484 459.249 254.304 464.189 246.744 469.119C247.404 445.459 257.304 425.389 264.624 403.329C274.514 373.519 259.254 349.779 227.664 348.759C224.544 348.799 224.224 348.969 221.194 347.949C222.224 345.399 224.214 344.889 227.084 343.029C230.504 340.729 235.084 339.749 237.054 336.759C235.394 333.629 235.184 334.349 231.274 332.359L219.824 332.999C219.074 333.349 219.574 333.199 218.254 333.099L219.804 331.199C217.624 328.759 218.394 327.979 215.734 325.569L213.514 326.999C209.304 327.369 207.764 328.079 204.404 326.529C204.474 325.629 228.104 283.129 230.784 278.249C218.604 261.319 217.174 226.699 218.544 206.269C218.804 196.359 222.074 163.879 228.374 158.589C243.894 145.589 281.294 199.189 286.824 208.799C289.964 212.759 291.954 216.409 294.514 220.739C308.964 217.689 322.234 217.139 336.944 219.589C337.384 219.659 338.944 218.459 339.314 217.999C345.864 204.529 365.314 178.599 375.744 167.499C379.204 164.279 382.684 161.089 386.204 157.919Z" fill="#F4F2E8"/>
<path d="M386.204 157.919C391.404 154.799 394.484 152.029 400.454 153.509C416.744 165.709 415.624 246.739 406.684 265.069L405.334 266.109C403.214 271.949 404.724 274.149 407.324 279.939C409.914 285.719 422.614 306.929 426.404 310.759C428.064 315.049 429.484 316.729 428.934 320.879C426.844 322.669 426.644 322.439 423.884 323.039C420.184 321.479 420.884 321.069 417.724 321.809C416.264 324.339 417.274 323.419 414.544 324.599L413.704 324.169C393.044 322.019 379.054 316.519 360.784 331.539C356.704 334.899 339.644 350.789 338.794 354.459C336.804 339.609 315.754 339.369 309.004 352.049L309.194 350.789L307.174 350.989C299.414 349.689 297.714 347.419 292.904 341.199C270.494 322.129 245.594 316.969 219.824 332.999C219.074 333.349 219.574 333.199 218.254 333.099L219.804 331.199C217.624 328.759 218.394 327.979 215.734 325.569L213.514 326.999C209.304 327.369 207.764 328.079 204.404 326.529C204.474 325.629 228.104 283.129 230.784 278.249C218.604 261.319 217.174 226.699 218.544 206.269C218.804 196.359 222.074 163.879 228.374 158.589C243.894 145.589 281.294 199.189 286.824 208.799C289.964 212.759 291.954 216.409 294.514 220.739C308.964 217.689 322.234 217.139 336.944 219.589C337.384 219.659 338.944 218.459 339.314 217.999C345.864 204.529 365.314 178.599 375.744 167.499C379.204 164.279 382.684 161.089 386.204 157.919Z" fill="#F03906"/>
<path d="M386.204 157.919C391.404 154.799 394.484 152.029 400.454 153.509C416.744 165.709 415.624 246.739 406.684 265.069L405.334 266.109C403.214 271.949 404.724 274.149 407.324 279.939C409.914 285.719 422.614 306.929 426.404 310.759C428.064 315.049 429.484 316.729 428.934 320.879C426.844 322.669 426.644 322.439 423.884 323.039C420.184 321.479 420.884 321.069 417.724 321.809C416.264 324.339 417.274 323.419 414.544 324.599L413.704 324.169L409.674 316.929C413.124 316.079 416.804 315.339 420.284 314.589C407.994 296.389 405.064 292.259 397.064 272.119C395.764 265.229 400.934 247.809 400.544 234.269C397.374 236.339 396.404 248.329 387.954 252.829C378.614 253.839 384.804 246.699 381.444 241.459C378.054 240.859 375.904 242.399 372.674 243.899C373.964 236.799 375.084 234.659 377.944 228.079L377.614 226.129L378.844 224.859L375.404 227.209L373.944 226.879C371.654 214.559 375.724 200.899 383.014 190.859C387.474 184.709 390.074 183.619 397.384 182.689C398.434 179.579 398.564 174.649 396.434 171.969C393.534 172.019 393.274 172.489 391.174 174.629C377.034 189.059 372.884 203.849 364.734 221.329C359.604 232.309 364.924 237.989 351.394 237.429C351.084 235.879 350.804 234.319 350.544 232.759L349.334 233.229C349.224 229.299 349.474 228.499 350.284 224.579L349.164 223.969C347.034 227.299 345.244 230.849 342.014 232.999C330.244 234.029 309.784 223.209 297.864 231.609C297.584 232.479 297.844 231.889 296.484 232.979C293.114 231.679 291.104 228.669 288.714 225.849C282.894 216.259 276.084 208.119 269.084 199.409C278.574 200.789 277.444 209.669 286.824 208.799C289.964 212.759 291.954 216.409 294.514 220.739C308.964 217.689 322.234 217.139 336.944 219.589C337.384 219.659 338.944 218.459 339.314 217.999C345.864 204.529 365.314 178.599 375.744 167.499C379.204 164.279 382.684 161.089 386.204 157.919Z" fill="#915F52"/>
<path d="M386.204 157.919C391.404 154.799 394.484 152.029 400.454 153.509C416.744 165.709 415.624 246.739 406.684 265.069L405.334 266.109C403.214 271.949 404.724 274.149 407.324 279.939C409.914 285.719 422.614 306.929 426.404 310.759C428.064 315.049 429.484 316.729 428.934 320.879C426.844 322.669 426.644 322.439 423.884 323.039C420.184 321.479 420.884 321.069 417.724 321.809C416.264 324.339 417.274 323.419 414.544 324.599L413.704 324.169L409.674 316.929C413.124 316.079 416.804 315.339 420.284 314.589C407.994 296.389 405.064 292.259 397.064 272.119C404.614 242.029 405.934 231.319 403.494 200.179C400.604 192.919 403.194 174.529 398.194 167.789C397.354 166.679 395.694 167.299 393.654 167.449C379.714 175.609 373.074 195.519 366.364 201.179L364.364 199.799L363.774 200.209L360.764 201.069C354.244 205.069 348.304 213.679 342.044 219.059L339.314 217.999C345.864 204.529 365.314 178.599 375.744 167.499C379.204 164.279 382.684 161.089 386.204 157.919Z" fill="#13120E"/>
<path d="M403.494 200.179L405.154 200.119C405.774 202.779 409.304 217.609 409.304 219.509C409.324 229.669 406.814 242.799 405.844 253.199C405.534 256.489 402.754 262.299 403.224 265.929C403.924 265.989 404.634 266.049 405.334 266.109C403.214 271.949 404.724 274.149 407.324 279.939C409.914 285.719 422.614 306.929 426.404 310.759C428.064 315.049 429.484 316.729 428.934 320.879C426.844 322.669 426.644 322.439 423.884 323.039C420.184 321.479 420.884 321.069 417.724 321.809C416.264 324.339 417.274 323.419 414.544 324.599L413.704 324.169L409.674 316.929C413.124 316.079 416.804 315.339 420.284 314.589C407.994 296.389 405.064 292.259 397.064 272.119C404.614 242.029 405.934 231.319 403.494 200.179Z" fill="#21110C"/>
<path d="M373.944 226.879C374.874 224.249 379.444 213.289 379.194 211.979L375.454 211.819C376.074 206.449 384.554 191.449 390.174 189.179C402.844 192.539 392.394 234.819 392.244 244.379C392.224 245.499 388.744 251.499 387.954 252.829C378.614 253.839 384.804 246.699 381.444 241.459C378.054 240.859 375.904 242.399 372.674 243.899C373.964 236.799 375.084 234.659 377.944 228.079L377.614 226.129L378.844 224.859L375.404 227.209L373.944 226.879Z" fill="#171614"/>
<path d="M269.084 199.409C278.574 200.789 277.444 209.669 286.824 208.799C289.964 212.759 291.954 216.409 294.514 220.739C308.964 217.689 322.234 217.139 336.944 219.589C337.384 219.659 338.944 218.459 339.314 217.999L342.044 219.059C348.304 213.679 354.244 205.069 360.764 201.069C357.384 205.829 341.984 227.229 338.714 230.359L336.634 229.949L335.264 226.819C329.344 224.989 304.444 224.349 298.504 227.479C297.504 229.959 297.604 229.089 297.864 231.609C297.584 232.479 297.844 231.889 296.484 232.979C293.114 231.679 291.104 228.669 288.714 225.849C282.894 216.259 276.084 208.119 269.084 199.409Z" fill="#1B110C"/>
<path d="M363.774 200.209L364.364 199.799L366.364 201.179C373.074 195.519 379.714 175.609 393.654 167.449L392.874 168.519C385.724 178.319 380.684 183.059 373.624 194.619C366.294 206.609 359.954 230.659 351.604 238.429C355.084 219.109 359.174 216.049 363.774 200.209Z" fill="#340905"/>
<path d="M218.544 206.269C218.804 196.359 222.074 163.879 228.374 158.589C243.894 145.589 281.294 199.189 286.824 208.799C277.444 209.669 278.574 200.789 269.084 199.409C276.084 208.119 282.894 216.259 288.714 225.849C281.634 222.829 284.074 221.309 278.224 216.979C282.104 222.909 282.894 229.669 282.744 236.829C282.714 237.919 280.924 238.229 279.914 238.629C272.104 237.359 267.454 230.809 266.744 223.209L265.524 222.539C262.024 230.049 263.224 237.489 259.244 243.909C257.314 247.029 257.054 248.099 256.264 251.649L255.114 252.359L250.864 252.139C248.984 253.889 248.714 254.999 247.614 257.329C244.144 257.359 245.864 257.549 242.194 255.299C230.594 250.019 228.574 200.279 233.364 187.799L231.834 185.749L231.434 187.119C228.804 195.839 230.834 206.699 228.614 216.259C226.624 224.809 230.924 233.679 227.514 243.139C224.534 220.509 227.284 200.989 230.404 178.789C222.994 184.789 227.134 199.289 218.544 206.269Z" fill="#c72707"/>
<path d="M242.194 255.299C242.044 254.259 242.034 253.319 241.464 252.459C235.344 243.239 228.314 194.299 237.004 188.579C245.444 188.799 257.064 211.899 260.884 218.569L251.194 212.999C254.984 218.689 262.624 231.739 259.324 238.409C255.744 238.329 255.444 237.169 251.834 234.649C252.984 240.499 254.034 246.479 255.114 252.359L250.864 252.139C248.984 253.889 248.714 254.999 247.614 257.329C244.144 257.359 245.864 257.549 242.194 255.299Z" fill="#13120E"/>
<path d="M218.544 206.269C218.804 196.359 222.074 163.879 228.374 158.589C243.894 145.589 281.294 199.189 286.824 208.799C277.444 209.669 278.574 200.789 269.084 199.409L266.874 197.959L266.114 198.709C257.204 198.559 252.794 173.839 235.374 168.179C231.884 171.189 231.984 174.099 230.404 178.789C222.994 184.789 227.134 199.289 218.544 206.269Z" fill="#171614"/>
<path d="M235.374 168.179C252.794 173.839 257.204 198.559 266.114 198.709C270.244 205.079 283.744 230.879 279.434 237.579C274.554 236.489 268.304 217.779 266.014 212.639C258.714 196.009 248.314 180.929 235.374 168.179Z" fill="#340905"/>
<path d="M218.544 206.269C227.134 199.289 222.994 184.789 230.404 178.789C227.284 200.989 224.534 220.509 227.514 243.139C229.774 255.879 232.514 266.779 235.674 279.329C232.464 288.609 229.754 295.559 225.394 304.379C223.084 309.069 218.664 316.159 216.894 320.469C221.434 321.269 220.764 320.429 223.484 323.119C223.704 326.359 221.864 328.579 219.804 331.199C217.624 328.759 218.394 327.979 215.734 325.569L213.514 326.999C209.304 327.369 207.764 328.079 204.404 326.529C204.474 325.629 228.104 283.129 230.784 278.249C218.604 261.319 217.174 226.699 218.544 206.269Z" fill="#13120E"/>
<path d="M292.904 341.199C297.714 343.189 298.294 344.589 301.934 347.099C307.884 350.279 313.864 341.819 319.374 340.339C329.924 337.499 334.234 347.129 343.794 345.329C345.204 344.249 346.574 343.209 347.044 341.509C350.104 330.519 373.504 318.289 384.034 316.609C392.284 315.279 399.884 321.879 409.674 316.929L413.704 324.169C393.044 322.019 379.054 316.519 360.784 331.539C356.704 334.899 339.644 350.789 338.794 354.459C336.804 339.609 315.754 339.369 309.004 352.049L309.194 350.789L307.174 350.989C299.414 349.689 297.714 347.419 292.904 341.199Z" fill="#c72707"/>
<path d="M357.914 282.969C363.124 282.609 370.144 282.629 375.134 284.129C378.344 285.099 379.404 286.669 380.944 289.509C381.364 292.969 380.484 295.139 378.444 297.849C372.684 305.479 363.054 311.379 353.574 312.649C351.554 312.919 350.444 313.079 348.734 314.339C347.084 318.409 347.774 323.519 347.874 327.859C348.394 331.139 348.074 333.589 346.364 336.459C345.114 336.879 344.444 337.499 343.164 336.849C340.474 335.469 338.804 332.149 337.704 329.469C333.974 320.389 334.774 308.209 338.874 299.369C342.874 290.729 349.174 286.179 357.914 282.969Z" fill="#c72707"/>
<path d="M340.144 306.539C348.914 285.149 357.664 285.949 378.854 288.209C373.114 296.259 367.494 306.519 357.244 308.519C353.374 309.269 348.014 308.769 344.144 309.299C342.774 308.699 341.364 307.469 340.144 306.539Z" fill="#21110C"/>
<path d="M363.494 301.309L363.474 301.839C360.814 305.199 355.874 305.979 352.084 304.139C346.694 293.719 357.754 288.079 367.734 292.149C368.404 296.159 365.984 298.089 363.494 301.309Z" fill="#13120E"/>
<path d="M367.734 292.149C368.404 296.159 365.984 298.089 363.494 301.309C363.064 298.939 362.844 297.109 362.564 294.729C364.834 292.029 363.424 293.189 367.734 292.149Z" fill="#F2F1E8"/>
<path d="M340.144 306.539C341.364 307.469 342.774 308.699 344.144 309.299C343.754 319.119 344.514 329.269 345.194 339.079C339.614 325.799 338.584 320.999 340.144 306.539Z" fill="#340905"/>
<path d="M270.084 289.409C275.364 288.879 280.324 288.349 285.394 290.349C291.974 292.959 296.624 298.629 299.314 305.029C300.924 308.859 304.014 316.299 302.244 320.399L300.684 320.039L299.024 316.859C294.754 305.769 287.234 313.469 278.304 308.669C270.974 304.739 266.024 296.859 259.494 291.639L258.454 290.829L270.084 289.409Z" fill="#21110C"/>
<path d="M287.604 307.649C282.064 306.709 274.694 303.729 273.764 297.589C278.914 289.779 288.334 294.009 291.924 301.119L293.244 305.089C291.344 307.479 291.364 306.789 287.604 307.649Z" fill="#171614"/>
<path d="M287.604 307.649C288.644 304.279 288.824 302.559 291.924 301.119L293.244 305.089C291.344 307.479 291.364 306.789 287.604 307.649Z" fill="#FDFDFB"/>
<path d="M349.504 646.379L352.024 646.599C358.144 641.909 353.334 631.669 357.644 626.169L360.444 626.719C356.484 664.349 347.824 715.189 356.714 750.739L358.034 750.959C372.854 753.469 388.874 771.149 373.614 781.439C367.004 785.899 331.344 784.869 329.274 773.759C322.664 738.229 316.574 698.379 313.964 662.449L316.834 660.249C319.684 667.949 318.854 682.019 324.154 686.409C324.734 688.659 324.364 687.949 325.614 689.869C331.014 672.619 329.464 667.989 340.094 649.739C341.934 647.709 343.314 646.319 345.254 644.429L346.494 645.239L349.504 646.379Z" fill="#171614"/>
<path d="M346.494 645.239L349.504 646.379C349.324 650.159 349.454 651.299 348.134 654.939C346.674 652.249 346.774 648.529 346.494 645.239Z" fill="#422E27"/>
<path d="M353.644 559.309C360.174 555.259 356.914 551.639 362.594 548.319C374.434 541.419 371.314 511.369 376.394 503.499C378.624 502.389 380.074 501.599 382.204 500.299C384.264 492.999 383.974 475.699 382.884 467.969L383.294 468.999C383.074 467.479 382.864 465.959 382.674 464.439C381.864 458.059 381.114 456.979 384.954 451.989L386.224 451.999L385.344 453.289C387.914 453.099 387.834 453.119 390.354 453.709L390.544 455.349C384.504 458.799 385.484 462.119 386.744 468.989C389.624 484.709 385.394 501.379 382.964 516.969C380.274 526.429 378.634 535.389 375.124 544.589C369.984 558.099 362.664 572.099 358.814 585.939C353.414 605.399 352.364 626.489 349.504 646.379L346.494 645.239L345.254 644.429C343.314 646.319 341.934 647.709 340.094 649.739C329.464 667.989 331.014 672.619 325.614 689.869C324.364 687.949 324.734 688.659 324.154 686.409C318.854 682.019 319.684 667.949 316.834 660.249L313.964 662.449C312.274 649.049 310.444 635.669 308.494 622.309L310.784 622.109C312.804 617.739 310.734 605.869 312.414 601.009C314.164 595.969 328.044 591.539 326.754 585.109C336.284 574.849 344.144 563.489 349.784 550.619C351.404 546.919 353.744 539.569 357.024 537.659L358.154 539.579C358.504 547.919 356.734 551.759 353.644 559.309Z" fill="#F03906"/>
<path d="M326.754 585.109C336.284 574.849 344.144 563.489 349.784 550.619C351.404 546.919 353.744 539.569 357.024 537.659L358.154 539.579C358.504 547.919 356.734 551.759 353.644 559.309C340.714 582.109 334.624 588.049 313.584 602.659C314.794 618.449 318.424 633.409 320.214 648.999C321.484 660.889 323.304 674.629 324.154 686.409C318.854 682.019 319.684 667.949 316.834 660.249L313.964 662.449C312.274 649.049 310.444 635.669 308.494 622.309L310.784 622.109C312.804 617.739 310.734 605.869 312.414 601.009C314.164 595.969 328.044 591.539 326.754 585.109Z" fill="#21110C"/>
<path d="M320.214 648.999C323.294 654.019 324.544 666.009 325.674 672.399C328.124 672.049 334.254 655.339 338.154 650.159L340.094 649.739C329.464 667.989 331.014 672.619 325.614 689.869C324.364 687.949 324.734 688.659 324.154 686.409C323.304 674.629 321.484 660.889 320.214 648.999Z" fill="#B5604A"/>
<path d="M382.964 516.969L383.974 516.729C391.364 509.339 388.354 470.799 389.764 460.369L390.864 459.839L394.854 462.329C403.974 450.419 369.134 383.329 389.404 357.989C389.274 361.279 389.094 364.569 388.844 367.849C389.654 366.309 390.584 364.709 392.234 363.929L394.914 360.839C396.554 367.939 396.294 384.559 396.394 392.609C397.114 401.169 395.364 409.719 395.984 414.339C398.334 425.419 409.084 466.199 403.404 474.759C400.414 475.079 400.274 474.559 397.254 473.329C395.564 476.559 397.014 494.119 396.454 498.949C394.294 517.539 386.024 544.059 377.304 560.949C363.624 587.459 364.544 598.109 360.444 626.719L357.644 626.169C353.334 631.669 358.144 641.909 352.024 646.599L349.504 646.379C352.364 626.489 353.414 605.399 358.814 585.939C362.664 572.099 369.984 558.099 375.124 544.589C378.634 535.389 380.274 526.429 382.964 516.969Z" fill="#1B110C"/>
<path d="M392.234 363.929L394.914 360.839C396.554 367.939 396.294 384.559 396.394 392.609L395.294 396.119L393.194 395.739L392.334 397.769C390.284 387.079 390.364 374.639 392.234 363.929Z" fill="#F2F1E8"/>
<path d="M396.394 392.609C397.114 401.169 395.364 409.719 395.984 414.339C394.434 409.159 393.404 403.119 392.334 397.769L393.194 395.739L395.294 396.119L396.394 392.609Z" fill="#DED2C0"/>
<path d="M388.944 451.089C380.474 416.589 350.114 366.069 397.964 347.569C396.234 353.389 392.984 352.909 389.404 357.989C369.134 383.329 403.974 450.419 394.854 462.329L390.864 459.839L389.764 460.369C388.354 470.799 391.364 509.339 383.974 516.729L382.964 516.969C385.394 501.379 389.624 484.709 386.744 468.989C385.484 462.119 384.504 458.799 390.544 455.349L390.354 453.709C387.834 453.119 387.914 453.099 385.344 453.289L386.224 451.999L384.954 451.989C381.114 456.979 381.864 458.059 382.674 464.439C382.864 465.959 383.074 467.479 383.294 468.999L382.884 467.969C383.974 475.699 384.264 492.999 382.204 500.299C380.074 501.599 378.624 502.389 376.394 503.499C371.314 511.369 374.434 541.419 362.594 548.319C356.914 551.639 360.174 555.259 353.644 559.309C356.734 551.759 358.504 547.919 358.154 539.579C358.584 541.899 358.604 541.929 359.604 544.059L361.424 544.219C370.574 533.449 369.714 505.879 373.434 496.729C378.914 494.489 373.644 498.109 379.324 498.059C384.254 483.579 378.674 459.019 375.674 444.059C380.034 446.269 384.604 448.789 388.944 451.089Z" fill="#c72707"/>
<path d="M281.294 608.679C289.874 605.259 301.554 597.449 309.704 592.399L309.284 593.189C320.324 585.419 323.244 580.529 331.434 570.089C330.284 573.479 327.184 581.989 326.754 585.109C328.044 591.539 314.164 595.969 312.414 601.009C310.734 605.869 312.804 617.739 310.784 622.109L308.494 622.309L305.884 603.919C296.584 609.629 291.744 612.089 280.474 613.349C279.134 621.659 278.344 631.209 277.014 638.859L275.344 638.229L275.514 628.499C273.354 631.859 272.534 656.099 270.514 664.609L270.284 664.259C269.784 666.989 269.494 668.679 268.644 671.369L267.104 672.009C267.254 648.239 270.704 619.519 276.374 596.489C277.224 593.039 281.394 584.969 283.014 580.569C285.474 577.789 284.904 577.429 287.664 577.159C289.584 582.169 282.914 602.559 281.294 608.679Z" fill="#13120E"/>
<path d="M426.404 310.759C429.424 313.099 429.604 312.959 431.294 316.539L431.164 323.339L433.554 323.399C436.104 331.699 432.324 337.579 423.564 338.189L421.254 339.969C423.624 342.859 423.924 342.209 423.944 345.169C417.624 351.469 400.394 350.399 394.914 360.839L392.234 363.929C390.584 364.709 389.654 366.309 388.844 367.849C389.094 364.569 389.274 361.279 389.404 357.989C392.984 352.909 396.234 353.389 397.964 347.569C404.184 344.569 408.554 343.549 415.204 342.399C409.374 339.249 404.134 336.989 398.364 334.039L397.994 332.409C404.064 327.849 411.244 329.589 418.354 329.439L414.544 324.599C417.274 323.419 416.264 324.339 417.724 321.809C420.884 321.069 420.184 321.479 423.884 323.039C426.644 322.439 426.844 322.669 428.934 320.879C429.484 316.729 428.064 315.049 426.404 310.759Z" fill="#13120E"/>
<path d="M426.404 310.759C429.424 313.099 429.604 312.959 431.294 316.539L431.164 323.339L433.554 323.399C436.104 331.699 432.324 337.579 423.564 338.189L421.254 339.969C418.824 338.659 418.664 338.779 416.924 336.709C422.534 335.129 429.554 337.639 431.594 332.109C430.224 327.229 428.054 325.379 423.884 323.039C426.644 322.439 426.844 322.669 428.934 320.879C429.484 316.729 428.064 315.049 426.404 310.759Z" fill="#FDFDFB"/>
<path d="M309.004 352.049C315.754 339.369 336.804 339.609 338.794 354.459C330.204 370.189 314.644 369.309 309.004 352.049Z" fill="#171614"/>
<path d="M219.824 332.999C245.594 316.969 270.494 322.129 292.904 341.199C297.714 347.419 299.414 349.689 307.174 350.989C288.924 358.449 282.544 311.419 231.274 332.359L219.824 332.999Z" fill="#DED2C0"/>
<path d="M358.054 353.389L359.664 353.809L360.094 354.999C355.154 362.709 348.954 374.359 341.964 380.239C335.754 385.459 327.894 387.849 319.834 386.739C309.314 385.289 302.694 379.249 296.604 371.149C293.054 366.039 290.284 360.579 287.434 355.069C293.614 359.229 299.794 369.119 306.964 370.659C311.624 371.659 340.724 371.019 343.864 368.609C349.164 364.549 351.744 358.059 357.264 353.949C357.524 353.749 357.794 353.569 358.054 353.389Z" fill="#13120E"/>
<path d="M319.524 377.379C323.944 377.179 329.484 376.499 333.674 377.919C332.474 380.159 329.934 380.489 327.614 381.409C327.134 381.449 326.654 381.499 326.174 381.529C322.274 381.779 315.974 381.679 312.894 378.999C315.204 377.439 316.834 377.579 319.524 377.379Z" fill="#F2F1E8"/>
<path d="M221.654 340.789C225.304 341.059 223.504 340.649 227.084 343.029C224.214 344.889 222.224 345.399 221.194 347.949C224.224 348.969 224.544 348.799 227.664 348.759C259.254 349.779 274.514 373.519 264.624 403.329C257.304 425.389 247.404 445.459 246.744 469.119C254.304 464.189 259.484 459.249 266.404 454.499C264.184 463.449 257.614 487.669 258.814 495.599C260.984 494.479 262.234 493.659 264.284 492.319L265.714 492.859C268.534 503.669 266.854 514.679 270.694 528.309C273.074 525.099 275.934 520.519 279.204 518.569C287.404 525.479 281.834 568.299 283.014 580.569C281.394 584.969 277.224 593.039 276.374 596.489C270.704 619.519 267.254 648.239 267.104 672.009L265.594 672.299C264.044 666.539 261.994 655.529 257.394 652.009C251.344 653.519 245.744 675.829 244.284 682.009L243.084 682.859C235.154 675.039 235.564 655.489 233.474 644.579C230.424 628.679 228.184 612.309 226.724 596.199C226.454 593.259 225.814 593.399 223.734 592.039C218.264 591.739 204.574 584.309 198.874 581.439C193.124 581.509 191.874 579.059 185.884 579.429C183.124 582.599 184.164 585.279 185.694 588.919C176.174 628.189 162.584 648.459 131.594 672.629C124.074 696.229 122.294 713.129 119.924 737.359C157.274 770.509 91.894 778.059 90.814 754.159C89.424 723.629 94.5541 690.259 96.7641 659.599C97.1441 654.339 107.824 640.149 107.654 632.909C109.304 609.419 106.864 586.359 107.994 562.839C79.704 574.069 51.7041 566.479 28.4941 546.399C25.7341 544.009 24.574 541.229 24.644 537.649C27.334 534.789 26.554 535.679 31.044 534.569C30.234 532.599 22.7041 525.779 20.7641 523.269C4.35407 502.079 -0.475939 480.189 1.50406 454.389C3.66406 456.859 3.80403 457.189 6.72403 458.629C6.63403 456.009 6.66399 453.389 6.80399 450.779C7.31399 441.619 11.404 426.879 18.304 420.669C21.064 415.509 28.464 391.959 30.574 385.599C31.184 385.339 33.674 383.619 34.394 383.139C36.534 386.059 38.654 403.579 39.304 407.949C45.464 397.029 50.674 384.139 55.184 372.409C66.314 388.049 71.564 397.109 78.174 414.939C85.424 395.369 86.464 385.069 89.324 364.419C98.304 372.389 100.054 379.599 105.074 383.479L106.704 383.049C108.474 378.929 109.384 355.379 109.744 349.599C115.714 355.569 119.374 359.309 124.544 365.899C126.284 369.029 128.534 373.639 130.954 376.089L131.004 374.539C143.494 380.829 128.324 431.649 122.984 441.869C123.844 443.609 124.794 445.789 125.854 447.349C120.234 464.349 119.244 473.679 128.894 489.479C134.884 480.209 140.254 471.729 147.884 463.619C153.834 457.599 158.364 454.089 165.224 449.309C176.514 441.599 190.794 433.329 202.634 426.089C222.114 411.559 233.764 383.639 235.644 359.819C228.694 356.669 214.604 355.379 213.884 348.839C215.394 345.049 218.334 343.389 221.654 340.789Z" fill="#F03906"/>
<path d="M109.744 349.599C115.714 355.569 119.374 359.309 124.544 365.899C126.284 369.029 128.534 373.639 130.954 376.089C141.944 419.439 91.604 458.999 125.444 495.679C116.084 519.099 111.864 528.909 108.364 554.279C101.304 558.179 97.524 559.179 89.454 559.869C79.894 560.759 40.7041 553.929 41.6241 542.409L45.274 540.289C35.844 528.809 26.9841 520.479 19.7641 507.049C3.7841 477.339 9.51402 450.879 18.304 420.669C21.064 415.509 28.464 391.959 30.574 385.599C31.184 385.339 33.674 383.619 34.394 383.139C36.534 386.059 38.654 403.579 39.304 407.949C45.464 397.029 50.674 384.139 55.184 372.409C66.314 388.049 71.564 397.109 78.174 414.939C85.424 395.369 86.464 385.069 89.324 364.419C98.304 372.389 100.054 379.599 105.074 383.479L106.704 383.049C108.474 378.929 109.384 355.379 109.744 349.599Z" fill="#F03906"/>
<path d="M109.744 349.599C115.714 355.569 119.374 359.309 124.544 365.899C126.284 369.029 128.534 373.639 130.954 376.089C141.944 419.439 91.604 458.999 125.444 495.679C116.084 519.099 111.864 528.909 108.364 554.279C101.304 558.179 97.524 559.179 89.454 559.869C93.234 556.589 103.094 555.679 104.174 551.279C107.774 536.629 111.114 522.209 116.204 507.939C118.584 499.779 121.304 495.659 115.834 488.359C103.034 471.259 112.044 448.529 118.714 430.949C123.084 419.439 125.874 407.619 128.004 395.509C130.804 379.489 124.884 374.119 115.774 362.089C117.334 361.459 116.444 361.629 118.464 361.819L115.104 358.419C109.994 365.269 114.094 388.369 104.334 388.169C101.104 386.049 97.7341 379.799 94.9641 376.049L93.4641 375.859C89.6041 379.159 87.0341 412.079 78.3341 416.809C75.5441 415.919 76.594 416.369 74.284 414.149C72.754 408.859 62.114 387.769 57.704 384.919C48.384 387.359 47.904 411.069 37.914 407.889C34.584 404.219 34.164 400.359 32.894 395.449C31.204 398.039 29.7541 400.779 28.5841 403.639C16.1941 433.639 8.5341 466.539 19.7641 499.019C21.8141 504.939 32.994 522.559 38.454 524.749C39.384 524.499 43.6241 523.359 44.2141 523.619C51.3741 526.799 64.544 534.809 68.064 541.639L65.9641 545.639C59.7341 548.219 53.734 540.679 45.274 540.289C35.844 528.809 26.9841 520.479 19.7641 507.049C3.7841 477.339 9.51402 450.879 18.304 420.669C21.064 415.509 28.464 391.959 30.574 385.599C31.184 385.339 33.674 383.619 34.394 383.139C36.534 386.059 38.654 403.579 39.304 407.949C45.464 397.029 50.674 384.139 55.184 372.409C66.314 388.049 71.564 397.109 78.174 414.939C85.424 395.369 86.464 385.069 89.324 364.419C98.304 372.389 100.054 379.599 105.074 383.479L106.704 383.049C108.474 378.929 109.384 355.379 109.744 349.599Z" fill="#c72707"/>
<path d="M65.964 545.639C59.084 542.529 42.444 535.159 42.314 526.699C47.854 527.319 60.224 539.249 68.064 541.639L65.964 545.639Z" fill="#340905"/>
<path d="M23.8041 464.479C26.7841 467.139 26.7341 469.059 27.7041 472.899C29.3441 479.689 31.7041 486.289 34.7541 492.579C37.0041 497.179 39.9341 500.979 41.3641 505.979C35.3841 502.409 30.864 497.429 27.524 491.339C23.034 483.139 21.3241 473.549 23.8041 464.479Z" fill="#340905"/>
<path d="M107.994 562.839C79.7042 574.069 51.7042 566.479 28.4942 546.399C25.7342 544.009 24.5741 541.229 24.6441 537.649C27.3341 534.789 26.5541 535.679 31.0441 534.569C40.7841 542.379 35.9142 545.339 40.2242 549.299C51.2142 559.389 76.7241 565.639 91.7741 563.839C97.2941 563.189 107.244 558.529 110.714 559.019C112.854 568.939 115.764 613.609 114.824 623.879C113.564 637.589 91.1242 666.479 101.494 687.189C101.424 689.549 101.014 688.679 102.134 690.029C105.294 683.609 107.054 678.429 112.444 673.839L116.234 675.539L119.374 675.529C122.584 673.619 123.084 670.039 126.134 666.049L128.064 665.859C165.324 634.309 169.714 613.929 183.604 569.119C188.654 575.249 192.284 577.219 198.874 581.439C193.124 581.509 191.874 579.059 185.884 579.429C183.124 582.599 184.164 585.279 185.694 588.919C176.174 628.189 162.584 648.459 131.594 672.629C124.074 696.229 122.294 713.129 119.924 737.359C157.274 770.509 91.8941 778.059 90.8141 754.159C89.4241 723.629 94.5542 690.259 96.7642 659.599C97.1442 654.339 107.824 640.149 107.654 632.909C109.304 609.419 106.864 586.359 107.994 562.839Z" fill="#13120E"/>
<path d="M116.234 675.539L119.374 675.529C122.584 673.619 123.084 670.039 126.134 666.049L128.064 665.859C124.124 672.029 121.644 678.989 119.704 686.019L116.234 675.539Z" fill="#A47465"/>
<path d="M221.654 340.789C225.304 341.059 223.504 340.649 227.084 343.029C224.214 344.889 222.224 345.399 221.194 347.949C224.224 348.969 224.544 348.799 227.664 348.759C236.644 352.759 245.064 355.699 251.404 363.429L242.224 360.369C242.764 394.099 221.634 427.769 191.514 442.659C138.624 468.809 113.954 522.079 116.794 579.579C117.864 605.339 119.864 629.649 108.264 653.029L107.874 654.849C106.364 661.569 102.844 666.649 105.304 672.919C108.104 674.859 107.854 674.669 112.444 673.839C107.054 678.429 105.294 683.609 102.134 690.029C101.014 688.679 101.424 689.549 101.494 687.189C91.124 666.479 113.564 637.589 114.824 623.879C115.764 613.609 112.854 568.939 110.714 559.019C107.244 558.529 97.294 563.189 91.774 563.839C76.724 565.639 51.214 559.389 40.224 549.299C35.914 545.339 40.784 542.379 31.044 534.569C30.234 532.599 22.7041 525.779 20.7641 523.269C4.35407 502.079 -0.475939 480.189 1.50406 454.389C3.66406 456.859 3.80403 457.189 6.72403 458.629C6.63403 456.009 6.66399 453.389 6.80399 450.779C7.31399 441.619 11.404 426.879 18.304 420.669C9.51399 450.879 3.78407 477.339 19.7641 507.049C26.9841 520.479 35.844 528.809 45.274 540.289L41.6241 542.409C40.7041 553.929 79.894 560.759 89.454 559.869C97.524 559.179 101.304 558.179 108.364 554.279C111.864 528.909 116.084 519.099 125.444 495.679C91.604 458.999 141.944 419.439 130.954 376.089L131.004 374.539C143.494 380.829 128.324 431.649 122.984 441.869C123.844 443.609 124.794 445.789 125.854 447.349C120.234 464.349 119.244 473.679 128.894 489.479C134.884 480.209 140.254 471.729 147.884 463.619C153.834 457.599 158.364 454.089 165.224 449.309C176.514 441.599 190.794 433.329 202.634 426.089C222.114 411.559 233.764 383.639 235.644 359.819C228.694 356.669 214.604 355.379 213.884 348.839C215.394 345.049 218.334 343.389 221.654 340.789Z" fill="#1B110C"/>
<path d="M122.984 441.869C123.844 443.609 124.794 445.789 125.854 447.349C120.234 464.349 119.244 473.679 128.894 489.479C134.884 480.209 140.254 471.729 147.884 463.619L149.974 465.319L150.014 467.269C148.464 470.179 129.404 498.869 128.394 499.669C126.154 487.659 117.564 482.759 116.854 474.339C116.174 466.269 117.624 448.819 122.984 441.869Z" fill="#13120E"/>
<path d="M165.224 449.309C176.514 441.599 190.794 433.329 202.634 426.089L204.024 429.119C198.194 436.369 178.424 448.469 169.474 450.579L165.224 449.309Z" fill="#13120E"/>
<path d="M101.494 687.189C101.964 674.999 101.244 663.269 108.264 653.029L107.874 654.849C106.364 661.569 102.844 666.649 105.304 672.919C108.104 674.859 107.854 674.669 112.444 673.839C107.054 678.429 105.294 683.609 102.134 690.029C101.014 688.679 101.424 689.549 101.494 687.189Z" fill="#915F52"/>
<path d="M227.664 348.759C259.254 349.779 274.514 373.519 264.624 403.329C257.304 425.389 247.404 445.459 246.744 469.119C254.304 464.189 259.484 459.249 266.404 454.499C264.184 463.449 257.614 487.669 258.814 495.599C260.984 494.479 262.234 493.659 264.284 492.319L265.714 492.859C268.534 503.669 266.854 514.679 270.694 528.309C273.074 525.099 275.934 520.519 279.204 518.569C287.404 525.479 281.834 568.299 283.014 580.569C281.394 584.969 277.224 593.039 276.374 596.489C270.704 619.519 267.254 648.239 267.104 672.009L265.594 672.299C264.044 666.539 261.994 655.529 257.394 652.009C251.344 653.519 245.744 675.829 244.284 682.009L243.084 682.859C235.154 675.039 235.564 655.489 233.474 644.579C230.424 628.679 228.184 612.309 226.724 596.199C226.454 593.259 225.814 593.399 223.734 592.039C220.634 581.389 216.124 556.189 216.604 545.059C216.694 543.069 217.424 543.259 219.554 541.719L220.384 542.529C231.654 553.179 233.084 596.569 234.434 612.029C235.644 625.929 241.184 640.619 241.314 655.039C241.354 659.859 245.324 662.639 244.394 669.429C250.364 658.469 243.084 652.869 262.624 648.479C264.254 648.119 265.614 637.739 265.904 635.539C268.484 615.979 271.344 597.299 278.564 578.899C280.674 573.289 280.194 532.359 277.764 529.149C257.394 527.269 266.544 509.249 262.304 499.139L256.094 498.159C253.804 495.099 258.204 476.029 258.054 469.129C254.734 466.159 253.154 471.799 246.454 468.889C237.014 453.089 261.704 410.489 263.474 393.089C264.514 382.969 265.184 364.769 251.404 363.429C245.064 355.699 236.644 352.759 227.664 348.759Z" fill="#c72707"/>
<path d="M223.734 592.039C220.634 581.389 216.124 556.189 216.604 545.059C216.694 543.069 217.424 543.259 219.554 541.719C223.004 555.999 227.254 572.289 229.794 586.659C231.014 593.519 229.854 605.279 231.044 613.519C234.074 634.489 240.984 662.479 243.084 682.859C235.154 675.039 235.564 655.489 233.474 644.579C230.424 628.679 228.184 612.309 226.724 596.199C226.454 593.259 225.814 593.399 223.734 592.039Z" fill="#340905"/>
<path d="M218.384 439.989C223.354 449.099 215.644 455.359 214.664 463.109C213.524 471.999 223.504 483.679 211.014 491.009L209.014 490.939L207.894 490.829L206.464 490.489C201.244 485.359 207.284 478.939 203.954 469.069C203.644 458.029 207.584 444.869 218.384 439.989Z" fill="#c72707"/>
<path d="M203.954 469.069C203.644 458.029 207.584 444.869 218.384 439.989C217.654 446.429 210.444 463.969 205.604 468.579L203.954 469.069Z" fill="#340905"/>
<path d="M207.894 490.829C205.984 485.119 206.744 477.289 211.544 473.169L213.874 472.959C216.764 477.209 211.754 487.349 209.014 490.939L207.894 490.829Z" fill="#340905"/>
<path d="M170.284 469.739L171.954 471.019C171.024 476.059 160.164 486.099 156.554 490.469L154.904 489.909C153.994 488.119 153.744 488.539 154.214 486.869C156.144 479.879 164.434 473.469 170.284 469.739Z" fill="#340905"/>
<path d="M172.224 542.429C171.714 538.299 171.404 537.789 173.054 534.169L174.654 533.989L176.304 537.029C178.324 543.209 179.864 545.869 178.114 552.099L176.704 553.099C173.354 550.159 173.204 546.989 172.224 542.429Z" fill="#340905"/>
<path d="M172.224 542.429C171.714 538.299 171.404 537.789 173.054 534.169L174.654 533.989L176.304 537.029C172.544 539.629 173.924 537.949 172.224 542.429Z" fill="#340905"/>
<path d="M163.624 497.619L164.874 498.869C165.694 503.739 161.394 508.709 158.754 512.459C158.044 511.749 157.644 510.899 157.154 510.029C157.584 504.679 160.224 501.609 163.624 497.619Z" fill="#340905"/>
<path d="M514.484 297.559C542.564 297.159 570.644 296.919 598.724 296.839C612.654 296.779 628.194 295.419 641.924 297.489C645.684 298.059 648.424 298.879 651.324 301.439C660.024 309.119 660.234 319.869 660.554 330.629C661.404 359.459 661.284 388.419 661.314 417.269C661.334 434.649 663.044 455.069 659.394 471.969C658.394 476.599 656.044 480.829 652.644 484.119C645.374 491.269 626.504 488.079 617.044 487.619C590.484 486.889 563.934 486.019 537.384 485.009C523.904 484.459 509.544 484.739 496.234 482.519C490.964 481.649 484.974 480.099 480.544 476.999C476.484 474.149 475.334 468.679 474.664 464.059C473.154 453.619 473.954 442.489 473.654 431.939C472.924 405.829 473.114 379.819 473.494 353.709C473.664 341.909 473.004 329.489 474.384 317.809C474.914 313.269 475.714 307.259 478.794 303.659C485.564 295.709 504.954 297.599 514.484 297.559Z" fill="#13120E"/>
<path d="M539.024 304.539C557.544 304.279 630.704 301.659 643.694 305.299C647.894 309.929 648.854 318.389 649.344 324.499C651.194 347.189 649.814 371.029 649.844 393.829C649.874 416.739 651.474 440.999 649.164 463.779C648.674 468.549 648.054 474.569 644.864 478.309C634.844 482.429 605.664 479.029 593.704 478.639C581.644 478.279 488.624 475.589 485.064 471.719C481.054 467.349 480.824 456.369 480.554 450.579C479.304 424.229 479.934 397.649 479.984 371.269C480.014 354.709 478.874 337.079 480.734 320.679C481.214 316.409 481.964 310.889 484.934 307.609C495.714 302.249 525.664 304.559 539.024 304.539Z" fill="#F2F1E8"/>
<path d="M502.534 315.529C518.764 315.339 627.854 313.039 632.824 317.279C634.894 319.039 635.674 321.049 635.974 323.659C636.664 329.629 637.344 342.869 633.694 347.659C630.894 349.399 629.394 349.579 626.204 349.759C610.234 349.549 501.044 350.889 494.834 346.639C492.654 345.149 492.014 340.449 491.804 338.039C491.324 332.639 490.684 321.689 494.254 317.619C497.144 315.899 499.204 315.699 502.534 315.529Z" fill="#171614"/>
<path d="M616.184 329.519C618.114 328.449 620.544 329.139 621.634 331.049C622.714 332.969 622.064 335.409 620.154 336.519C618.904 337.249 617.354 337.249 616.104 336.519C614.844 335.789 614.084 334.449 614.104 332.999C614.114 331.549 614.914 330.219 616.184 329.519Z" fill="#B5604A"/>
<path d="M574.834 329.589C575.954 328.609 577.534 328.339 578.914 328.909C580.284 329.469 581.224 330.769 581.334 332.249C581.444 333.739 580.694 335.159 579.414 335.909C577.674 336.939 575.434 336.479 574.244 334.839C573.054 333.199 573.314 330.919 574.834 329.589Z" fill="#A47465"/>
<path d="M596.444 397.869C604.844 397.689 623.714 394.799 630.354 399.909C632.994 401.949 634.494 404.779 634.864 408.069C635.614 414.769 635.274 424.289 631.304 429.809C622.774 429.819 603.284 432.779 596.694 427.249C593.604 424.659 592.434 421.279 592.264 417.339C591.954 410.399 591.644 403.279 596.444 397.869Z" fill="#171614"/>
<path d="M613.394 417.079C610.074 416.099 609.254 416.139 606.874 413.449C605.764 409.489 605.744 411.429 607.144 407.409C610.494 404.589 608.664 405.389 612.674 404.579C618.334 406.559 620.124 409.549 619.384 415.439C616.744 419.409 612.774 423.799 607.674 421.429L609.114 419.779L607.644 418.839L608.144 417.749L613.394 417.079Z" fill="#F2F1E8"/>
<path d="M613.394 417.079L614.214 417.679C611.834 419.389 611.964 419.619 609.114 419.779L607.644 418.839L608.144 417.749L613.394 417.079Z" fill="#13120E"/>
<path d="M596.234 360.199C605.174 359.639 623.584 356.479 630.874 362.309C633.844 364.689 634.964 368.599 635.084 372.229C635.324 379.279 635.634 386.249 630.714 391.699C622.584 391.549 602.424 394.359 596.384 388.889C593.024 385.839 592.124 381.899 592.054 377.529C591.954 370.769 591.264 365.339 596.234 360.199Z" fill="#171614"/>
<path d="M606.334 367.549C609.004 367.119 613.954 366.379 616.354 367.559C617.434 368.089 617.164 368.349 617.634 369.669C614.394 375.379 616.364 375.929 617.814 381.699L616.544 383.539C613.094 384.879 610.064 384.819 606.404 384.829C606.114 383.749 606.244 384.489 606.474 382.579C609.074 381.999 611.694 381.489 614.324 381.049L615.094 379.649C613.604 376.749 613.214 376.949 610.144 375.719L609.834 374.079L613.434 371.219C611.654 368.689 608.974 370.179 606.334 367.549Z" fill="#F2F1E8"/>
<path d="M595.644 435.929C605.254 435.709 621.044 433.179 629.564 437.709C632.294 439.169 634.224 442.009 634.954 444.979C636.454 451.089 635.664 462.049 632.364 467.299C623.294 467.319 606.534 470.069 598.604 465.919C595.414 464.249 593.404 461.649 592.624 458.159C591.184 451.719 591.944 441.359 595.644 435.929Z" fill="#171614"/>
<path d="M496.634 433.119C503.154 433.009 509.664 432.549 516.174 432.449C521.174 432.369 527.134 432.719 530.614 436.829C534.324 441.209 533.794 447.719 533.574 453.059C533.354 458.359 533.164 460.589 529.084 464.309C520.124 464.139 501.424 467.309 495.024 460.529C492.924 458.299 492.134 455.249 492.024 452.269C491.784 445.379 491.864 438.419 496.634 433.119Z" fill="#171614"/>
<path d="M546.534 397.009C554.494 396.649 572.784 393.769 579.114 399.059C581.574 401.119 583.074 403.969 583.464 407.149C584.304 414.129 584.254 422.619 579.634 428.149C571.414 428.389 553.724 431.169 547.094 425.819C544.594 423.799 543.054 421.089 542.634 417.899C541.694 410.829 542.014 402.689 546.534 397.009Z" fill="#171614"/>
<path d="M558.334 402.679C559.704 402.779 561.754 402.749 563.014 403.269C565.634 404.339 566.694 406.679 567.344 409.279C568.364 413.369 568.394 418.309 566.084 421.859C565.534 421.899 564.994 421.959 564.444 421.979C560.874 422.149 559.604 421.759 557.114 419.389C556.414 417.049 555.954 415.559 556.404 413.129C556.624 411.979 556.844 410.969 556.884 409.799C556.984 407.039 557.364 405.289 558.334 402.679Z" fill="#F2F1E8"/>
<path d="M497.234 359.259C505.264 359.189 522.564 356.019 528.994 361.039C532.184 363.539 533.394 366.879 533.644 370.789C534.094 377.899 534.394 384.509 529.544 390.089C523.874 390.229 518.224 390.499 512.554 390.699C507.344 390.879 499.574 391.329 495.734 386.919C491.074 381.569 492.014 373.179 492.654 366.589C493.014 362.849 494.554 361.519 497.234 359.259Z" fill="#171614"/>
<path d="M512.954 365.069L513.844 366.149C514.654 371.869 514.694 377.319 513.534 382.989L512.204 383.579L511.264 381.889C511.784 377.199 512.014 374.399 509.544 370.259L509.214 370.779L508.494 368.819L512.954 365.069Z" fill="#FDFDFB"/>
<path d="M551.184 359.449C558.974 359.369 570.584 357.919 577.784 360.479C579.904 361.239 581.084 362.549 581.994 364.639C584.334 370.009 584.964 382.169 581.824 387.459C580.374 389.909 578.744 389.869 576.204 390.449C568.234 390.429 554.314 392.459 547.154 389.279C545.294 388.459 544.144 386.839 543.424 384.959C541.434 379.719 541.094 367.549 544.374 362.829C546.294 360.059 548.144 360.149 551.184 359.449Z" fill="#171614"/>
<path d="M555.864 366.439C557.514 366.179 559.294 365.819 560.954 365.849C563.624 365.889 564.724 366.669 566.504 368.499C566.654 373.319 562.014 376.079 561.834 380.649C564.194 380.819 565.194 380.839 567.324 381.999L566.624 383.789L553.174 383.169C556.854 379.789 562.984 375.059 563.884 370.069C561.654 368.629 559.294 368.859 556.694 368.689L555.864 366.439Z" fill="#F2F1E8"/>
<path d="M497.114 396.179C503.474 396.209 509.794 395.809 516.144 395.699C521.104 395.609 527.094 395.779 530.604 399.859C534.804 404.749 533.724 413.419 533.294 419.369C533.014 423.119 531.964 424.719 529.164 427.119C520.324 426.869 501.804 430.419 495.524 423.519C491.684 419.309 492.204 412.459 492.474 407.189C492.744 402.029 493.144 399.749 497.114 396.179Z" fill="#171614"/>
<path d="M506.444 402.489C510.804 402.209 515.234 402.439 519.594 402.509C516.534 408.499 513.554 414.449 510.914 420.639L509.194 420.389C508.894 416.159 512.444 410.989 513.694 406.659C511.814 405.339 509.904 405.079 507.694 404.559L506.444 402.489Z" fill="#F2F1E8"/>
<path d="M547.004 434.329C553.584 434.419 560.154 434.089 566.724 434.169C571.604 434.229 577.294 434.679 580.614 438.779C584.234 443.239 583.524 450.059 583.264 455.399C583.014 460.339 582.734 462.439 578.994 465.839C570.964 465.619 552.764 468.199 546.844 462.989C543.894 460.399 542.854 457.089 542.704 453.299C542.424 446.379 542.144 439.669 547.004 434.329Z" fill="#171614"/>
<path d="M558.984 440.799C561.054 440.899 563.264 440.899 565.054 442.099C566.954 443.369 568.304 445.839 568.524 448.089C568.944 452.319 567.104 455.659 564.554 458.819C561.674 458.809 560.404 458.529 557.934 457.029C556.654 455.379 555.954 454.349 555.564 452.239C554.774 448.019 556.774 444.189 558.984 440.799Z" fill="#F2F1E8"/>
<path d="M560.674 443.349C562.314 444.229 563.604 444.439 564.444 446.209C566.154 449.829 564.654 453.239 563.264 456.669C561.744 456.029 560.274 455.359 559.614 453.799C558.114 450.249 559.464 446.749 560.674 443.349Z" fill="#171614"/>
<path d="M560.754 94.6689C569.684 96.9289 582.434 106.419 593.564 109.989C606.344 114.079 619.714 113.529 630.004 116.559C632.594 117.319 634.334 118.739 635.484 121.189C642.064 135.139 634.154 185.559 629.074 200.309C618.054 232.269 596.914 255.349 566.664 269.949C565.424 270.139 564.224 270.349 562.964 270.279C549.264 269.539 527.324 249.199 518.924 239.069C498.514 214.429 492.674 185.709 491.394 154.399C491.114 147.469 490.264 139.629 491.174 132.759C491.584 129.659 492.294 127.149 495.284 125.639C501.194 122.659 509.334 121.929 515.804 120.459C533.204 116.489 547.234 105.859 560.754 94.6689Z" fill="#13120E"/>
<path d="M560.274 104.769C582.894 117.449 599.774 122.339 625.204 125.929C626.904 148.039 624.184 173.239 617.584 194.419C608.734 222.829 589.654 245.989 563.414 259.829C562.284 260.229 561.064 260.619 559.844 260.549C550.864 260.019 536.784 247.009 530.624 240.749C500.604 210.259 498.504 171.779 498.974 131.299C523.634 127.649 540.684 120.289 560.274 104.769Z" fill="#DED2C0"/>
<path d="M559.434 116.349C563.114 116.219 574.364 122.279 579.084 124.109C591.974 129.119 602.454 131.789 616.094 133.719C617.534 153.009 615.984 171.539 610.304 190.109C603.014 215.259 590.014 235.989 566.534 248.919C564.404 250.119 562.214 251.199 559.974 252.159C545.464 244.559 529.544 232.039 522.304 216.989C516.744 209.709 512.804 195.049 510.514 186.349C506.614 170.979 506.844 155.019 506.934 139.289C529.894 134.429 539.914 129.539 559.434 116.349Z" fill="#F03906"/>
<path d="M559.434 116.349C563.114 116.219 574.364 122.279 579.084 124.109C591.974 129.119 602.454 131.789 616.094 133.719C617.534 153.009 615.984 171.539 610.304 190.109C603.014 215.259 590.014 235.989 566.534 248.919C564.404 250.119 562.214 251.199 559.974 252.159C545.464 244.559 529.544 232.039 522.304 216.989C534.614 225.879 538.684 235.669 551.474 242.589C554.504 244.229 557.274 246.059 560.134 247.979C560.334 240.549 561.054 227.829 559.534 221.029L561.784 219.389C566.184 205.939 568.584 194.989 580.864 187.099C587.014 184.059 595.294 179.809 601.894 178.549L601.064 176.059C599.494 170.059 583.104 168.769 577.134 163.019C571.654 157.739 567.254 139.869 562.204 138.059L561.604 137.059C559.144 131.669 559.624 124.979 559.544 118.949L559.434 116.349Z" fill="#B5604A"/>
<path d="M601.894 178.549C595.924 186.789 584.494 186.959 576.924 194.799C571.154 200.799 567.694 215.939 561.784 219.389C566.184 205.939 568.584 194.989 580.864 187.099C587.014 184.059 595.294 179.809 601.894 178.549Z" fill="#c72707"/>
<path d="M561.604 137.059L562.204 138.059C567.254 139.869 571.654 157.739 577.134 163.019C583.104 168.769 599.494 170.059 601.064 176.059L601.894 178.549C595.294 179.809 587.014 184.059 580.864 187.099C568.584 194.989 566.184 205.939 561.784 219.389C555.314 209.009 557.724 201.049 546.234 189.129C541.634 186.149 530.574 181.379 524.994 180.829L521.124 177.909C536.464 175.169 552.314 166.219 556.474 150.269C558.184 145.849 558.684 140.449 561.604 137.059Z" fill="#DED2C0"/>
<path d="M577.574 170.659C577.304 171.969 577.114 172.959 576.914 174.289C581.834 180.329 582.944 175.159 583.504 179.689C582.684 181.399 581.234 184.679 580.334 186.179L580.864 187.099C568.584 194.989 566.184 205.939 561.784 219.389C555.314 209.009 557.724 201.049 546.234 189.129C545.664 187.109 544.974 185.679 545.244 183.759L542.464 181.709C543.134 178.919 543.234 178.849 544.594 176.279C547.584 175.069 546.834 175.539 550.754 176.659L551.814 175.949L551.734 171.179C558.674 180.269 569.834 176.799 577.574 170.659Z" fill="#F4F2E8"/>
<path d="M577.574 170.659C577.304 171.969 577.114 172.959 576.914 174.289C581.834 180.329 582.944 175.159 583.504 179.689C582.684 181.399 581.234 184.679 580.334 186.179L579.534 185.239C579.574 182.279 579.104 181.129 578.334 178.339L576.734 177.459L575.094 182.329C574.634 180.709 574.334 181.729 574.744 179.839C572.784 177.269 574.004 178.179 570.964 177.029L569.764 182.479L568.564 182.399L566.614 179.499L564.384 181.099L564.904 180.919C560.524 183.559 557.654 183.619 552.654 182.449L551.214 179.579C549.424 181.279 550.014 180.579 548.924 182.899L545.244 183.759L542.464 181.709C543.134 178.919 543.234 178.849 544.594 176.279C547.584 175.069 546.834 175.539 550.754 176.659L551.814 175.949L551.734 171.179C558.674 180.269 569.834 176.799 577.574 170.659Z" fill="#171614"/>
<path d="M570.964 177.029C574.004 178.179 572.784 177.269 574.744 179.839L572.664 182.229L571.554 182.179L570.964 177.029Z" fill="#F2F1E8"/>
<path d="M551.734 171.179C549.914 170.489 550.684 171.099 549.654 169.109C553.244 162.819 556.914 155.909 561.654 150.499L563.154 150.439C566.324 157.409 570.864 166.479 577.574 170.659C569.834 176.799 558.674 180.269 551.734 171.179Z" fill="#F4F2E8"/>
<path d="M562.204 138.059C567.254 139.869 571.654 157.739 577.134 163.019C583.104 168.769 599.494 170.059 601.064 176.059C574.484 171.639 569.994 161.919 562.204 138.059Z" fill="#c72707"/>
<path d="M539.624 173.599L540.714 173.059L541.874 173.939L542.464 181.709C541.954 182.109 541.444 182.499 540.934 182.899C539.324 180.739 539.684 176.559 539.624 173.599Z" fill="#13120E"/>
<path d="M559.434 116.349L559.544 118.949L558.834 119.489C552.824 123.999 547.464 127.209 540.854 130.679C531.124 135.789 518.294 138.469 510.644 146.199C509.154 157.489 513.474 173.849 510.514 186.349C506.614 170.979 506.844 155.019 506.934 139.289C529.894 134.429 539.914 129.539 559.434 116.349Z" fill="#B5604A"/>
<path d="M524.994 180.829C530.574 181.379 541.634 186.149 546.234 189.129C557.724 201.049 555.314 209.009 561.784 219.389L559.534 221.029C554.844 218.469 551.294 201.609 547.854 196.249C543.704 189.769 527.354 185.269 524.994 180.829Z" fill="#B5604A"/>
<path d="M521.124 177.909L520.274 176.899C525.704 168.979 544.214 171.429 554.494 150.779L556.474 150.269C552.314 166.219 536.464 175.169 521.124 177.909Z" fill="#B5604A"/>
<path d="M734.764 110.709C734.614 96.6593 737.004 57.5193 729.524 49.2193C725.574 48.9493 721.614 48.8292 717.654 48.8792C703.254 49.1292 684.274 51.4492 669.464 52.6392L582.094 59.0392C526.704 62.8292 470.904 65.1793 415.614 70.6893C412.854 70.9693 407.094 72.1892 406.014 74.5192C401.054 85.2392 407.574 134.909 400.564 142.109L399.154 141.459C395.284 131.319 393.934 79.9392 400.354 69.6592C404.594 62.8692 426.744 62.2393 434.734 61.5793C531.324 53.5493 628.204 47.8492 724.864 40.9792C749.154 39.2592 742.854 93.1992 742.904 110.269C747.004 111.749 748.064 111.849 751.204 114.669C754.974 122.389 756.924 184.849 753.774 196.469C752.794 200.059 746.614 201.539 743.164 202.569L744.694 549.459C751.954 552.539 754.084 553.019 754.594 561.469C756.094 586.029 757.624 611.979 754.934 636.419C754.574 639.699 748.534 642.329 745.674 643.869C745.924 657.599 745.874 671.339 745.514 685.059C744.804 707.199 740.334 713.049 718.404 710.919C698.954 709.029 679.314 707.109 659.854 705.239C615.084 701.039 570.354 696.559 525.654 691.789L452.184 684.809C439.494 683.609 426.204 683.039 413.684 680.779C409.364 679.999 403.844 678.049 401.034 674.439C395.614 667.439 395.794 553.759 396.974 538.059C397.744 527.719 401.184 516.999 403.114 506.759L403.914 505.519C405.504 509.019 405.144 516.199 404.854 520.149C406.184 554.589 403.504 590.119 405.054 624.629C405.514 634.999 402.764 666.359 408.934 672.099C414.264 673.759 428.974 674.679 435.284 675.259L487.204 680.139L683.854 699.489C691.994 700.319 729.374 704.779 734.654 703.009C737.964 695.899 737.434 655.779 737.634 644.579C734.054 643.249 728.314 641.669 726.404 637.969C722.724 630.859 722.194 561.519 725.714 554.839C727.824 550.839 732.644 550.489 736.594 549.669C735.104 434.119 734.564 318.549 734.984 202.979C731.754 202.039 727.494 201.039 725.594 197.989C722.014 192.219 721.204 122.289 724.194 116.059C726.024 112.259 731.114 111.629 734.764 110.709Z" fill="#171614"/>
<path d="M403.114 506.759L403.914 505.519C405.504 509.019 405.144 516.199 404.854 520.149C404.424 515.449 403.824 511.389 403.114 506.759Z" fill="#575652"/>
<path d="M730.314 118.279C735.584 118.019 740.904 118.039 746.174 117.949C746.544 129.569 747.724 142.109 746.554 153.659L729.724 153.939C729.484 142.959 727.614 128.699 730.314 118.279Z" fill="#F2F1E8"/>
<path d="M741.664 159.479L745.224 159.669C745.854 160.419 746.094 160.589 746.474 161.639C748.914 168.529 748.094 186.939 745.794 193.759C743.134 195.619 739.094 195.319 735.914 195.489C733.564 194.819 732.424 194.889 731.404 192.389C729.074 186.659 728.854 167.019 730.654 160.879C733.674 159.199 738.254 159.609 741.664 159.479Z" fill="#F2F1E8"/>
<path d="M731.704 557.979C736.794 557.719 741.854 557.969 746.934 558.149C747.014 570.259 747.264 582.379 746.894 594.479L731.194 593.789C731.074 582.349 729.894 569.219 731.704 557.979Z" fill="#F2F1E8"/>
<path d="M731.754 599.899L747.684 600.169V634.909C742.664 635.679 737.574 635.209 732.524 634.979C731.634 623.359 731.904 611.549 731.754 599.899Z" fill="#F2F1E8"/>
<path d="M185.694 588.919C184.164 585.279 183.124 582.599 185.884 579.429C191.874 579.059 193.124 581.509 198.874 581.439C204.574 584.309 218.264 591.739 223.734 592.039C225.814 593.399 226.454 593.259 226.724 596.199C228.184 612.309 230.424 628.679 233.474 644.579C235.564 655.489 235.154 675.039 243.084 682.859L244.284 682.009C245.744 675.829 251.344 653.519 257.394 652.009C261.994 655.529 264.044 666.539 265.594 672.299L267.104 672.009L268.644 671.369C269.494 668.679 269.784 666.989 270.284 664.259L270.514 664.609C272.534 656.099 273.354 631.859 275.514 628.499L275.344 638.229L277.014 638.859C276.314 656.009 274.394 672.979 273.924 690.479C273.264 715.149 275.144 735.849 277.274 760.259C313.534 790.879 268.174 805.319 249.844 790.759C246.994 788.539 245.054 785.349 244.394 781.799C243.224 775.559 243.974 751.149 242.764 741.209C239.314 712.989 234.834 685.369 230.664 657.309C225.194 663.589 223.354 666.569 219.964 673.889C220.594 686.489 227.334 719.949 236.154 729.219C237.024 738.209 240.764 748.409 232.134 753.789C222.384 754.789 211.494 746.399 209.204 737.719C206.174 726.219 184.354 672.149 187.654 664.889C204.104 628.709 202.144 624.069 185.694 588.919Z" fill="#171614"/>
<path d="M847.984 733.329L848.684 732.959L855.914 733.739C856.034 734.019 856.804 735.799 856.904 736.199C860.524 749.409 872.484 761.499 884.404 767.719C889.064 770.149 899.194 772.809 898.794 778.349C894.704 781.419 892.134 779.579 888.554 781.609C871.114 791.479 867.264 795.689 857.034 812.719C854.924 816.229 855.654 820.069 852.564 823.879H850.184C847.144 821.399 843.314 810.609 840.304 805.579C837.364 800.729 833.794 796.299 829.684 792.389C816.474 779.769 806.824 782.809 802.344 777.119C802.354 774.019 801.774 775.289 803.504 773.029C816.434 770.439 846.104 750.649 844.564 736.149L839.674 734.619C843.824 734.659 844.214 734.809 847.984 733.329Z" fill="#F2F1E8"/>
<path d="M35.2342 333.429C26.6242 316.799 19.5041 309.829 2.39413 303.489C-0.175871 302.539 -0.235802 301.369 0.214198 299.199C7.2742 292.059 32.0342 286.739 42.1642 286.909C132.144 288.469 160.954 375.129 125.854 447.349C124.794 445.789 123.844 443.609 122.984 441.869C128.324 431.649 143.494 380.829 131.004 374.539L130.954 376.089C128.534 373.639 126.284 369.029 124.544 365.899C129.514 357.799 121.134 353.599 123.354 345.899C123.304 345.699 123.254 345.509 123.194 345.309C108.064 307.739 65.1941 289.589 26.6541 295.919C20.2841 296.969 15.2742 298.719 9.69418 300.539C25.9542 306.569 29.5542 311.579 37.3042 326.669C36.3742 329.009 35.4142 330.919 35.2342 333.429Z" fill="#13120E"/>
<path d="M123.354 345.899C128.404 357.119 129.254 362.219 131.004 374.539L130.954 376.089C128.534 373.639 126.284 369.029 124.544 365.899C129.514 357.799 121.134 353.599 123.354 345.899Z" fill="#DED2C0"/>
<path d="M165.914 141.609C167.524 140.709 169.504 140.769 171.054 141.769C172.604 142.759 173.484 144.529 173.344 146.369C173.194 148.209 172.044 149.819 170.354 150.559C167.914 151.629 165.054 150.589 163.874 148.199C162.684 145.809 163.584 142.909 165.914 141.609Z" fill="#F4F2E8"/>
<path d="M316.514 152.689C318.984 151.929 321.614 153.299 322.404 155.769C323.204 158.229 321.864 160.879 319.404 161.699C317.794 162.229 316.014 161.859 314.744 160.729C313.484 159.589 312.924 157.859 313.294 156.199C313.654 154.529 314.884 153.199 316.514 152.689Z" fill="#F4F2E8"/>
<path d="M173.124 218.669C174.864 218.029 176.804 218.389 178.214 219.599C179.614 220.809 180.254 222.679 179.884 224.489C179.504 226.309 178.184 227.779 176.424 228.339C173.774 229.189 170.934 227.759 170.034 225.119C169.134 222.489 170.504 219.619 173.124 218.669Z" fill="#F4F2E8"/>
<path d="M179.214 260.599C181.844 259.769 184.654 261.209 185.534 263.819C186.404 266.439 185.024 269.269 182.424 270.199C180.694 270.809 178.774 270.439 177.404 269.229C176.024 268.029 175.404 266.179 175.784 264.389C176.154 262.599 177.474 261.149 179.214 260.599Z" fill="#F4F2E8"/>
<path d="M153.724 301.469C156.244 300.229 159.284 301.229 160.564 303.729C161.844 306.229 160.874 309.289 158.394 310.589C156.764 311.449 154.794 311.369 153.244 310.369C151.684 309.379 150.784 307.619 150.894 305.779C150.994 303.939 152.074 302.289 153.724 301.469Z" fill="#F4F2E8"/>
<path d="M1.50391 454.389C3.85391 437.289 8.76386 420.709 14.7039 404.509C22.0239 384.569 31.2439 364.259 27.7339 342.449C27.1139 338.579 25.3338 335.959 25.6438 331.789L27.1938 331.679C39.3938 343.689 34.3839 370.949 30.5739 385.599C28.4639 391.959 21.0638 415.509 18.3038 420.669C11.4038 426.879 7.31383 441.619 6.80383 450.779C6.66383 453.389 6.63388 456.009 6.72388 458.629C3.80388 457.189 3.66391 456.859 1.50391 454.389Z" fill="#13120E"/>
<path d="M213.514 326.999L215.734 325.569C218.394 327.979 217.624 328.759 219.804 331.199L218.254 333.099C219.574 333.199 219.074 333.349 219.824 332.999L231.274 332.359C235.184 334.349 235.394 333.629 237.054 336.759C235.084 339.749 230.504 340.729 227.084 343.029C223.504 340.649 225.304 341.059 221.654 340.789C216.014 341.369 211.344 342.919 206.964 338.839L206.874 336.009C209.004 331.419 209.944 330.779 213.514 326.999Z" fill="#13120E"/>
<path d="M37.3043 326.669C39.0143 332.099 39.5844 333.319 39.2144 338.919L38.3344 339.909C36.3644 337.499 36.1944 336.339 35.2344 333.429C35.4144 330.919 36.3743 329.009 37.3043 326.669Z" fill="#928F86"/>
<path d="M402.174 386.839C405.374 391.199 404.054 400.979 403.844 406.349C400.204 401.669 401.894 392.569 402.174 386.839Z" fill="#928F86"/>
</svg>
