<svg width="1892" height="1561" viewBox="0 0 1892 1561" fill="none" xmlns="http://www.w3.org/2000/svg">
<path d="M1266.63 1026.73L1179.23 1011.31C1156.65 1007.3 1134.09 1002.93 1111.38 999.681C1071.48 994.081 1031.05 994.581 991.337 987.401C960.067 981.741 929.047 977.851 897.333 975.781C869.574 973.961 836.782 972.121 815.429 951.951C789.368 927.321 796.606 884.941 796.67 852.661C797.227 819.101 799.433 785.981 799.313 752.461C798.836 700.641 793.887 645.926 797.978 594.296C806.431 487.63 792.01 382.618 794.252 276.305C794.771 251.714 797.737 226.583 797.811 201.744C797.855 186.735 802.021 164.904 812.299 153.431C818.84 146.388 835.953 144.339 845.167 142.76C889.716 137.079 932.117 123.356 976.177 115.515C1019.64 107.995 1063.95 104.895 1107.63 98.8058L1403.79 55.8308C1462.04 47.8998 1516.8 43.1588 1575.93 34.1988C1600.35 30.6168 1624.64 26.2858 1648.79 21.2118C1689.44 12.5078 1731.12 1.51182 1772.81 0.00981897C1786.15 -0.471181 1826.37 16.8348 1835.11 26.6168C1851.51 45.5548 1850.12 78.9418 1848.19 102.763C1842.06 178.803 1857.1 253.066 1858.86 328.519C1860.44 395.993 1853.96 463.982 1855.5 531.964C1855.97 558.143 1857.24 584.301 1859.32 610.401C1862.75 652.508 1867.52 691.501 1868.69 734.101C1870.47 790.541 1864.51 846.441 1864 902.881C1863.69 936.741 1868.32 972.761 1867.11 1006.37C1866.6 1020.85 1862.31 1052.55 1850.85 1061.61C1834.58 1074.46 1805.51 1082.15 1784.75 1083.74C1756.36 1085.09 1726.25 1072.44 1698.48 1070.81C1641.68 1067.49 1585.12 1062.34 1528.48 1057.9C1536.35 1077.81 1543.92 1098.93 1550.78 1119.17C1561.47 1150.7 1560.46 1198.18 1526.51 1215.44C1497.51 1230.18 1465.59 1239.06 1434.92 1249.76C1428.36 1252.05 1417.13 1257.36 1410.96 1258.43C1407.29 1257.3 1408.8 1258.3 1406.34 1255.24C1405.48 1246.56 1413.36 1243.58 1420.48 1240.65C1451.54 1227.71 1483.01 1216.64 1513.73 1202.8C1531.66 1194.72 1536.79 1185 1539.57 1165.94C1543.36 1139.95 1532.19 1117 1524.59 1092.89C1520.71 1080.59 1517.91 1068.86 1515.53 1056.32C1511.57 1055.62 1505.27 1055.29 1501.1 1054.95C1507.2 1082.11 1520.67 1109.75 1525.75 1138.33C1536.63 1199.45 1489.83 1205.36 1444.42 1220.19C1432.7 1224.02 1404.41 1238.01 1393.26 1229.73C1381.92 1205.73 1512.27 1199.44 1511.9 1160.36C1511.55 1123.51 1495.94 1090.04 1487.41 1054.38C1486.93 1052.34 1457.26 1050.61 1454.13 1050.33C1414.83 1047.06 1375.6 1042.91 1336.49 1037.91C1315.21 1035.01 1293.8 1030.97 1272.48 1027.69C1286.04 1057.32 1288.24 1069.03 1295.75 1100.43C1300.18 1106.76 1302.35 1120.78 1299.01 1127.63C1298.75 1124.49 1298.77 1123.01 1298.85 1119.92L1296.94 1121.09C1295.14 1136.13 1294.27 1139.32 1284.97 1151.62C1265.56 1177.3 1139.62 1184.12 1127.5 1200.71C1135.26 1211.92 1246.03 1224.52 1265.61 1229.05C1291.48 1235.03 1322.39 1245.15 1348.54 1249.23C1360.3 1251.07 1380.34 1245.29 1387.65 1251.16C1389.05 1255.26 1388.97 1253.27 1388.13 1257.36C1385.78 1260.83 1381.9 1261.37 1378.02 1262.16C1367.12 1264.38 1354.71 1263.88 1343.77 1262.24C1329.36 1260.09 1315.51 1255.15 1301.51 1251.27C1287.95 1247.52 1274.14 1244.42 1260.41 1241.41C1227.32 1234.18 1141.07 1227.85 1117.23 1210.88C1114.47 1208.92 1112.74 1206.08 1112.35 1202.72C1111.43 1194.77 1116.62 1188.38 1123.04 1184.42C1154.4 1165.12 1257.21 1161.35 1276.46 1137.12C1290.49 1119.45 1276.69 1076.72 1272.09 1056.87C1269.69 1046.93 1267.87 1036.87 1266.63 1026.73Z" fill="#161513"/>
<path d="M1295.75 1100.43C1300.18 1106.76 1302.35 1120.78 1299.01 1127.63C1298.75 1124.49 1298.77 1123.01 1298.85 1119.92L1296.94 1121.09C1297.14 1114.11 1296.37 1107.39 1295.75 1100.43Z" fill="#F5F4EE"/>
<path d="M1759.75 17.7011C1765.08 17.0261 1771.11 16.7921 1776.44 17.4361C1784.22 18.3751 1791.31 21.7261 1796.09 28.0871C1800.36 33.7781 1802.07 40.7621 1802.9 47.7081C1805.02 65.5141 1802.13 84.6371 1802.7 102.661C1803.72 134.702 1807.48 166.566 1808.26 198.661C1809.36 249.286 1809.14 299.931 1807.61 350.544C1805.48 407.866 1801.2 464.946 1802.28 522.359L1807.49 718.491C1808.3 740.741 1810.49 762.961 1810.94 785.221C1811.86 830.921 1810.39 876.311 1809.95 921.971C1809.62 955.801 1814.56 988.981 1809.91 1022.86C1808.37 1034.06 1805.36 1047.92 1795.5 1054.78C1790.85 1058.01 1784.51 1058.78 1778.99 1058.66C1769.55 1058.45 1760.03 1056.08 1750.77 1054.32C1731.26 1050.62 1711.64 1046.08 1691.83 1044.27C1659.92 1041.35 1627.55 1042.62 1595.56 1040.36C1561.18 1037.93 1526.89 1033.54 1492.57 1030.37C1452.78 1026.69 1412.88 1024.13 1373.11 1020.23C1292.66 1012.34 1214.02 995.281 1134.11 984.071C1097.08 978.881 1060.08 977.991 1022.95 974.441C1000.02 972.241 977.137 967.891 954.347 964.511C939.837 962.921 925.617 961.541 910.997 960.361C871.003 957.121 813.963 960.331 810.806 905.591C806.367 853.891 815.872 797.041 812.339 745.731C806.856 666.101 810.098 590.174 812.108 510.605C813.437 457.991 806.811 401.94 804.4 349.052C802.618 300.862 802.808 252.619 804.969 204.444C806.84 161.012 814.746 154.008 856.39 149.938C862.861 149.306 881.738 146.628 887.823 144.963C961.217 124.883 1034.73 117.858 1110.1 110.293C1131.93 108.066 1155.21 103.46 1177.31 100.434L1409.94 69.3501C1451.33 64.0411 1493.53 62.2881 1535.02 56.0411C1565 51.5271 1594.63 47.4661 1624.52 42.0881C1668.89 34.1031 1715.1 21.8721 1759.75 17.7011Z" fill="#F5F4EE"/>
<path d="M1747.51 56.6529C1750.19 56.1679 1752.96 56.13 1755.68 56.172C1760.91 56.251 1765.3 57.9369 1768.89 61.8349C1773.34 66.6659 1775.09 73.4379 1775.86 79.7949C1777.9 96.6159 1775.99 115.699 1775.87 132.789C1775.89 159.774 1776.31 186.756 1777.12 213.728C1778.92 286.912 1788.61 359.73 1789.12 432.893C1789.6 502.741 1784.5 572.399 1783.1 642.206C1782.35 680.154 1785.69 718.111 1784.52 756.011C1783.46 789.951 1779.29 823.571 1778.99 857.621C1778.84 873.631 1778.77 889.741 1779.66 905.741C1780.87 927.321 1783.23 948.681 1782.17 970.321C1781.81 977.681 1782.76 997.511 1776.85 1002.41C1748.6 1025.81 1679.5 1004.94 1645.11 1001.8C1594.51 997.181 1543.47 994.951 1493.05 988.761C1464.16 985.221 1435.05 981.361 1406.38 976.291C1381.18 971.831 1356.17 966.171 1330.91 962.091C1279.9 953.841 1228.55 948.131 1177.55 940.051C1133.92 933.141 1091.15 922.531 1047.69 915.111C1027.42 911.641 1006.93 909.551 986.477 907.511C960.987 906.321 863.166 898.631 845.151 885.591C839.009 881.141 838.048 868.851 837.034 861.801C832.816 832.531 833.563 803.811 834.041 774.361C834.393 749.171 834.617 723.981 834.711 698.791C834.811 642.578 832.643 586.414 833.224 530.183C833.797 474.814 837.162 419.501 838.79 364.167C839.341 338.179 839.227 312.181 838.448 286.199C837.469 261.205 835.468 235.727 836.537 210.741C836.861 203.163 837.541 193.691 842.464 187.586C846.156 183.006 852.838 180.847 858.402 179.781C900.126 171.791 942.757 167.451 984.857 161.955L1139.47 140.281C1271.84 121.274 1403.64 98.4309 1536.21 80.9009C1572.89 76.0329 1609.66 71.839 1646.5 68.323C1663.99 66.713 1681.61 66.209 1699.06 64.228C1715.3 62.384 1731.31 58.8209 1747.51 56.6529Z" fill="#161513"/>
<path d="M1745.63 124.686C1747 124.405 1748.66 124.445 1750.06 124.364C1751.6 126.026 1751.28 128.023 1751.34 130.251C1751.79 145.521 1751.03 160.994 1750.96 176.281L1751.27 263.18C1753.47 415.451 1754.15 567.741 1753.31 720.021C1753.18 759.971 1751.54 799.951 1751.58 839.861C1751.63 880.651 1754.63 921.641 1753.61 962.391C1661.33 956.741 1569.14 944.301 1477.22 934.481C1354.11 921.331 1230.57 909.511 1107.93 892.481C1080.8 887.821 1052.74 884.001 1025.28 881.991C1024.18 819.681 1025.43 757.161 1025.29 694.821L1025.2 220.732C1107 208.653 1189.36 199.649 1271.29 188.398C1429.29 166.305 1587.41 145.067 1745.63 124.686Z" fill="#F5F4EE"/>
<path d="M1326.69 786.901C1354.45 802.831 1379.33 813.231 1409.83 796.221C1446.16 775.961 1467.76 750.311 1479.55 710.421C1483.38 697.471 1485.51 682.727 1478.52 670.199C1469.82 654.675 1453.72 655.879 1438.7 651.673C1428.3 648.761 1421.56 645.051 1414.24 636.964C1393.27 613.787 1409.48 586.297 1401.33 558.154C1397.02 543.241 1392.41 540.284 1384.92 527.404C1379.39 517.906 1378.13 506.613 1381.21 496.096C1387.93 473.157 1411.26 461.793 1424.17 443.108C1431.6 431.517 1435.02 417.892 1439.74 405.122C1445.5 389.251 1454.21 373.973 1462.81 359.553C1471.09 345.682 1481.72 337.314 1496.02 330.169C1500.53 327.916 1505.64 325.119 1510.9 327.218C1512.95 328.038 1514.97 330.234 1515.35 332.417C1516.87 340.084 1496.69 351.584 1491.02 355.128C1461.08 373.827 1449.14 395.012 1441.85 429.189C1439.45 439.147 1435.99 452.279 1429.9 460.634C1415.3 480.657 1393.34 476.014 1390.45 506.219C1387.87 533.091 1411.72 532.311 1416.32 555.318C1420.26 575.055 1414.95 596.661 1421.58 616.298C1430.99 645.917 1450.67 638.721 1473.12 650.018C1483.79 655.627 1489.76 664.429 1493.32 675.587C1499.56 694.811 1495.18 714.661 1489.07 733.321C1484.29 747.921 1479.33 765.131 1467.17 775.361C1457.35 783.621 1445.51 790.251 1434.58 797.091C1419.91 806.261 1404.74 816.171 1388.01 821.021C1370.04 826.271 1347.12 822.211 1330.75 813.361C1320.85 808.211 1315.47 798.661 1309.79 789.641C1294 764.581 1290.48 733.071 1294.61 704.191C1296.31 692.361 1299.2 664.448 1287.31 657.431C1285.85 657.34 1283.76 656.88 1282.82 657.707C1269.1 674.109 1269.72 704.371 1262.69 725.981C1256.1 746.261 1235.32 764.931 1214.33 753.851C1168.49 729.651 1212.42 650.79 1200.48 612.04C1199.36 608.388 1193.45 608.95 1191.18 611.383C1172.48 640.087 1173.4 683.188 1170.53 716.701C1170.3 719.321 1168.39 720.431 1166.53 721.721C1161.86 722.481 1154.46 720.141 1154.76 714.561C1155.99 691.261 1160.86 667.74 1164.03 644.583C1164.95 637.79 1176.98 616.543 1167.49 612.733C1165.97 612.945 1164.74 613.127 1163.4 613.998C1143.31 627.102 1144.03 651.113 1142.37 671.439L1139.56 704.011C1138.89 711.311 1139.14 724.601 1131.7 728.111C1127.52 727.151 1124.21 724.111 1124.88 719.731C1128.78 694.131 1131.25 668.418 1133.85 642.629C1134.36 637.526 1133.27 632.292 1129.76 628.593C1095.28 616.325 1113.82 731.441 1102.71 745.501C1078.38 755.291 1095.92 663.493 1097.84 652.862C1098.38 649.918 1097.12 645.961 1095.75 643.266C1093.57 641.716 1093.31 641.03 1090 641.718C1059.24 648.099 1075.95 763.451 1055.84 765.981C1046.74 756.851 1053.96 611.027 1102.26 635.925C1111.49 623.775 1127.23 610.109 1139.35 627.007C1146.54 612.827 1160.27 594.917 1176.8 608.87C1186.34 598.465 1189.82 594.663 1204.46 597.728C1220.04 612.941 1214.93 637.785 1211.32 657.201L1212.17 656.347C1215.86 655.02 1264.35 653.395 1267.65 654.543C1277.13 643.636 1288.58 642.276 1299.28 652.465C1312.35 672.114 1304.23 704.141 1307.88 727.791C1311.26 749.781 1316.21 766.991 1326.69 786.901Z" fill="#161513"/>
<path d="M1211.32 657.201L1212.17 656.347C1215.86 655.02 1264.35 653.395 1267.65 654.543L1266.87 655.733C1256.83 671.339 1258.1 684.749 1256.05 702.791C1254.24 718.721 1242.71 753.221 1220.77 735.771C1203.74 721.151 1207.92 676.298 1211.32 657.201Z" fill="#F5F4EE"/>
<path d="M1116.37 344.626C1140.88 349.224 1154.53 347.4 1174.51 364.5C1207.06 392.35 1204.63 449.825 1175.9 480.614L1176.08 481.465C1166.82 480.007 1164.46 470.102 1155.2 462.5C1157.73 466.711 1167.89 480.41 1168.37 481.912L1167.93 483.49L1168.3 485.038C1143.29 500.567 1137.13 498.074 1108.51 495.839C1082.2 493.784 1073.66 488.227 1062.58 462.6C1054.8 444.604 1054.83 407.716 1062.61 389.484C1074.83 360.841 1088.73 355.249 1116.37 344.626Z" fill="#c72707"/>
<path d="M1123.8 437.142C1065.23 434.455 1135.13 361.711 1134.02 427.302C1139.59 436.377 1168.72 474.036 1175.9 480.614L1176.08 481.465C1166.82 480.007 1164.46 470.102 1155.2 462.5C1157.73 466.711 1167.89 480.41 1168.37 481.912L1167.93 483.49C1162.83 478.829 1153.94 466.469 1148.19 460.626C1139.97 452.266 1131.7 445.58 1123.8 437.142Z" fill="#181210"/>
<path d="M1115.42 350.318C1125.72 349.824 1139.95 352.135 1149.82 355.061C1166.71 360.07 1180.83 376.88 1188.98 391.866C1189.97 393.685 1191.39 395.917 1191.86 397.938C1193.34 404.212 1193.23 431.997 1191.89 437.829C1190.52 443.791 1186.82 448.818 1185.37 454.565C1183.48 462.035 1179.58 468.795 1173.94 474.17C1166.51 464.409 1143.8 436.547 1140.24 426.731C1138.13 420.926 1137.9 414.326 1136.14 408.362C1134.97 404.359 1132.77 401.192 1128.97 399.317C1124.03 396.88 1116.44 396.583 1111.32 398.682C1105.86 400.926 1100.75 406.045 1098.44 411.471C1096.02 417.294 1095.91 423.817 1098.13 429.719C1104.3 438.903 1114.61 440.481 1123.74 445.645C1134.95 451.987 1148.89 463.717 1155.82 474.518C1157.7 477.457 1158.26 479.659 1157.51 483.151C1155.42 486.478 1153.11 488.168 1149.46 489.679C1135.61 495.424 1102.52 493.901 1089.05 487.697C1078.61 482.891 1070.87 471.82 1066.91 461.357C1059.07 440.628 1059.67 408.035 1069 387.854C1080.4 363.207 1091.26 359.343 1115.42 350.318Z" fill="#F03906"/>
<path d="M1155.2 462.5C1164.46 470.102 1166.82 480.007 1176.08 481.465C1198.6 502.203 1200.08 503.169 1217.59 527.406C1235.02 527.211 1255.72 523.312 1273.53 521.971C1294.85 520.366 1315.37 520.079 1336.73 519.963C1336.99 563.141 1338.6 609.283 1337.92 652.062C1327.15 652.207 1309.21 651.714 1299.28 652.465C1288.58 642.276 1277.13 643.636 1267.65 654.543C1264.35 653.395 1215.86 655.02 1212.17 656.347L1211.32 657.201C1214.93 637.785 1220.04 612.941 1204.46 597.728C1206.5 596.4 1205.65 589.569 1205.56 586.99C1204.88 568.606 1205.55 550.406 1207.24 532.096C1198.32 519.977 1178.98 498.019 1168.3 485.038L1167.93 483.49L1168.37 481.912C1167.89 480.41 1157.73 466.711 1155.2 462.5Z" fill="#c72707"/>
<path d="M1227.62 531.822C1252.39 527.199 1280.68 525.86 1305.82 525.272C1312.79 525.109 1321.36 523.876 1327.89 525.114C1329.62 526.341 1331.09 527.283 1331.19 529.865C1331.91 548.211 1334.46 633.775 1331.23 644.563C1323.07 649.944 1304.15 649.431 1296.06 643.484C1285.7 635.867 1268.87 649.381 1260.41 649.877C1249.99 650.489 1228.61 652.286 1218.75 651.314C1213.97 644.952 1219.36 625.34 1218.07 616.106C1217.27 610.374 1210.13 598.979 1209.86 595.617C1208.6 580.094 1210.3 563.002 1210.97 547.727L1212.04 546.047C1216.15 547.584 1238.92 576.292 1240.16 580.82C1245.19 599.254 1250.16 612.791 1273.05 606.413C1282.59 603.751 1287.33 582.652 1280.82 573.38L1279.02 572.996C1275.79 570.384 1272.78 568.814 1269.21 566.769C1267.78 566.367 1258.68 564.049 1258 563.436C1249.05 555.326 1231.01 543.482 1227.62 531.822Z" fill="#F03906"/>
<path d="M1227.06 541.256C1235.9 549.856 1248.95 560.27 1256.3 568.791L1257 569.595C1262.05 567.989 1263.99 567.282 1269.21 566.769C1272.78 568.814 1275.79 570.384 1279.02 572.996C1280.64 583.084 1284.74 586.208 1278.27 596.65C1267.45 614.087 1238.27 599.055 1248.67 580.378C1248.29 573.883 1247.58 574.281 1242.9 569.202C1235.91 561.635 1228.89 551.479 1227.06 541.256Z" fill="#1A110E"/>
<path d="M1155.2 462.5C1164.46 470.102 1166.82 480.007 1176.08 481.465C1198.6 502.203 1200.08 503.169 1217.59 527.406C1220.07 531.08 1225.01 537.808 1227.06 541.256C1228.89 551.479 1235.91 561.635 1242.9 569.202C1247.58 574.281 1248.29 573.883 1248.67 580.378C1239.05 575.189 1216.18 542.925 1207.24 532.096C1198.32 519.977 1178.98 498.019 1168.3 485.038L1167.93 483.49L1168.37 481.912C1167.89 480.41 1157.73 466.711 1155.2 462.5Z" fill="#170E0A"/>
<path d="M1622.74 367.542C1638.34 339.84 1660.7 374.422 1677.5 363.157C1685.38 357.874 1704.94 324.018 1716.6 324.691L1717.55 325.862C1716.31 331.76 1692.27 356.962 1686.2 363.939C1691.78 363.914 1699.53 362.944 1704.27 364.103C1709.7 369.603 1709.99 418.348 1711.06 430.113C1717.12 430.269 1719.29 429.75 1723.46 435.046C1722.73 439.326 1714.53 440.375 1710.72 440.189C1658.34 437.641 1606.13 445.103 1554.16 442.097C1552.9 442.024 1548.1 440.99 1547.96 439.586C1545.68 417.118 1542.02 347.694 1547.43 329.261L1548.7 328.236L1547.9 328.437L1549.17 329.068C1550.5 335.101 1550.14 345.118 1550.45 351.664C1551.21 367.811 1551.06 385.117 1552.97 401.167L1554.64 400.559C1554.53 404.585 1553.9 410.657 1555.68 414.068C1555.51 417.317 1555.24 417.443 1556.42 420.384C1561.86 417.049 1562.33 413.104 1564.47 407.045C1565.33 403.575 1569.59 394.393 1571.17 391.184C1574.23 386.363 1576.13 382.067 1581.79 380.762C1589.02 381.833 1594.45 390.966 1603.21 395.173C1609.17 394.2 1610.51 393.532 1615.09 389.731C1615.11 389.675 1623.69 377.413 1625.39 374.315C1623.89 374.035 1622.52 374.417 1621.08 374.777C1621.93 372.436 1622.28 371.677 1622.57 369.186L1622.74 367.542Z" fill="#F9EFE6"/>
<path d="M1711.06 430.113C1717.12 430.269 1719.29 429.75 1723.46 435.046C1722.73 439.326 1714.53 440.375 1710.72 440.189C1658.34 437.641 1606.13 445.103 1554.16 442.097C1552.9 442.024 1548.1 440.99 1547.96 439.586C1545.68 417.118 1542.02 347.694 1547.43 329.261L1548.7 328.236L1547.9 328.437L1549.17 329.068C1550.5 335.101 1550.14 345.118 1550.45 351.664C1551.21 367.811 1551.06 385.117 1552.97 401.167L1554.64 400.559C1554.53 404.585 1553.9 410.657 1555.68 414.068C1555.51 417.317 1555.24 417.443 1556.42 420.384C1561.86 417.049 1562.33 413.104 1564.47 407.045C1565.33 403.575 1569.59 394.393 1571.17 391.184C1574.23 386.363 1576.13 382.067 1581.79 380.762C1589.02 381.833 1594.45 390.966 1603.21 395.173C1609.17 394.2 1610.51 393.532 1615.09 389.731C1615.99 393.305 1614.79 427.206 1614.91 433.963C1620.73 433.552 1641.68 432.849 1645.74 431.598L1655.06 431.19C1664.05 431.171 1675.8 431.477 1684.52 430.519C1692.96 430.447 1702.74 430.603 1711.06 430.113Z" fill="#1A110E"/>
<path d="M1571.17 391.184C1574.23 386.363 1576.13 382.067 1581.79 380.762C1589.02 381.833 1594.45 390.966 1603.21 395.173C1609.17 394.2 1610.51 393.532 1615.09 389.731C1615.99 393.305 1614.79 427.206 1614.91 433.963L1589.77 435.658C1584.17 436.554 1572.23 437.134 1566.2 437.23C1565.81 428.044 1565.63 415.952 1564.47 407.045C1565.33 403.575 1569.59 394.393 1571.17 391.184Z" fill="#F5F4EE"/>
<path d="M1564.47 407.045C1565.33 403.575 1569.59 394.393 1571.17 391.184C1576.12 391.338 1580.91 390.823 1585.02 393.2C1590.93 402.173 1585.06 432.109 1589.77 435.658C1584.17 436.554 1572.23 437.134 1566.2 437.23C1565.81 428.044 1565.63 415.952 1564.47 407.045Z" fill="#c72707"/>
<path d="M1573.58 393.895C1575.64 394.181 1578.55 394.429 1579.89 396.174C1585.2 403.103 1584.7 420.02 1582.95 428.296C1582.26 431.554 1580.49 432.172 1577.9 433.744C1576.06 433.518 1573.64 433.392 1572.09 432.306C1569.81 430.706 1569.1 427.23 1568.6 424.694C1566.65 414.92 1568.02 402.295 1573.58 393.895Z" fill="#F03906"/>
<path d="M1552.97 401.167L1554.64 400.559C1554.53 404.585 1553.9 410.657 1555.68 414.068C1555.51 417.317 1555.24 417.443 1556.42 420.384C1561.86 417.049 1562.33 413.104 1564.47 407.045C1565.63 415.952 1565.81 428.044 1566.2 437.23C1561.61 437.526 1556.16 438.866 1553.05 435.347L1553.27 431.91C1553.05 421.622 1552.77 411.463 1552.97 401.167Z" fill="#F9EFE6"/>
<path d="M1682.79 366.427L1686.2 363.939C1691.78 363.914 1699.53 362.944 1704.27 364.103C1709.7 369.603 1709.99 418.348 1711.06 430.113C1702.74 430.603 1692.96 430.447 1684.52 430.519C1684.1 420.917 1684.47 371.051 1682.79 366.427Z" fill="#c72707"/>
<path d="M1692.43 368.113C1695.96 368.876 1698.09 369.595 1700.99 371.773C1705.66 380.167 1704.91 406.51 1704.9 416.968C1704.9 420.629 1704.66 422.989 1701.94 425.705C1698.98 426.1 1693.62 427.325 1691.23 425.094C1686.49 420.682 1687.69 409.312 1687.58 403.101C1687.44 394.594 1686.03 378.972 1689.55 371.091C1689.92 370.275 1691.74 368.828 1692.43 368.113Z" fill="#F03906"/>
<path d="M1625.39 374.314L1625.88 374.432C1629.08 377.43 1633.06 375.99 1638.39 378.087C1639.5 395.029 1637.71 415.327 1638.96 430.406C1641.47 432.276 1641.84 431.576 1645.74 431.597C1641.68 432.848 1620.73 433.551 1614.91 433.962C1614.79 427.205 1615.99 393.304 1615.09 389.73C1615.11 389.674 1623.69 377.412 1625.39 374.314Z" fill="#c72707"/>
<path d="M1626.24 381.008C1627.59 380.931 1626.83 380.936 1628.77 381.118C1630.97 381.323 1631.27 381.738 1632.59 383.569C1637.3 390.111 1635.87 418.621 1633.7 426.608C1631.52 428.694 1629.82 428.769 1626.94 429.501C1624.49 429.568 1622.85 429.386 1620.53 428.599C1617.65 420.621 1619.28 397.858 1619.39 388.208C1621.45 385.644 1623.92 383.348 1626.24 381.008Z" fill="#F03906"/>
<path d="M1654.17 390.183C1661.56 389.394 1668.55 389.515 1675.97 389.498C1676.96 402.683 1675.73 415.848 1676.48 429.16C1679.04 430.633 1681.29 430.308 1684.52 430.519C1675.8 431.477 1664.05 431.171 1655.06 431.19C1653.18 419.575 1653.66 401.896 1654.17 390.183Z" fill="#c72707"/>
<path d="M1659.76 394.09C1661.43 393.934 1663.48 393.572 1665.13 393.777C1667.76 394.102 1669.02 394.932 1670.6 397.015C1675.73 403.784 1672.82 417.957 1670.86 425.538C1669.02 425.67 1666.68 426.059 1664.88 425.787C1662.5 425.429 1661.08 423.789 1659.93 421.81C1655.77 414.664 1657.86 401.766 1659.76 394.09Z" fill="#F03906"/>
<path d="M1682.79 366.427C1684.47 371.051 1684.1 420.917 1684.52 430.519C1681.29 430.308 1679.04 430.633 1676.48 429.16C1675.73 415.848 1676.96 402.683 1675.97 389.498C1668.55 389.515 1661.56 389.394 1654.17 390.183C1653.66 401.896 1653.18 419.575 1655.06 431.19L1645.74 431.598C1641.84 431.577 1641.47 432.277 1638.96 430.407C1637.71 415.328 1639.5 395.03 1638.39 378.088C1649.33 388.279 1634.34 423.876 1646.19 428.972L1647.98 428.041C1650.66 423.549 1650.42 419.796 1649.73 414.702C1645.67 384.494 1651.87 383.913 1680.57 388.581L1680.75 387.537C1682.02 379.198 1681.72 376.84 1680.83 368.382L1682.79 366.427Z" fill="#FCE5D7"/>
<path d="M1622.74 367.542C1638.34 339.84 1660.7 374.422 1677.5 363.157C1685.38 357.874 1704.94 324.018 1716.6 324.691L1717.55 325.862C1716.31 331.76 1692.27 356.962 1686.2 363.939L1682.79 366.427L1680.83 368.382C1654.33 382.577 1643.93 346.164 1625.88 374.433L1625.39 374.315C1623.89 374.035 1622.52 374.417 1621.08 374.777C1621.93 372.436 1622.28 371.677 1622.57 369.186L1622.74 367.542Z" fill="#161513"/>
<path d="M1611.25 893.801L1613 892.691C1611.47 886.331 1609.98 880.001 1609.58 873.431C1609.07 865.081 1610.05 856.641 1609.89 848.271C1609.72 838.951 1606.83 761.461 1609.19 757.751C1610.99 754.921 1613.97 753.851 1617.14 753.351C1624.11 752.251 1631.69 754.201 1638.5 755.641L1643.54 762.021C1643.39 784.841 1641.79 807.371 1642.02 830.211C1642.18 846.011 1639.61 859.001 1643.94 874.761C1641.95 880.811 1639.18 886.311 1641.83 892.071L1643.47 892.701C1645.22 891.221 1646.41 890.201 1646.53 887.481C1647.23 871.321 1644.9 810.271 1651.38 799.131C1657.15 795.471 1672.75 798.111 1678.17 801.721C1680.56 806.561 1679.92 881.141 1679.45 891.891C1667.65 898.011 1661.76 895.151 1654.33 898.231C1648.38 898.881 1617.46 894.971 1611.25 893.801Z" fill="#F9EFE6"/>
<path d="M1613.81 756.211C1620.58 755.971 1632.17 755.201 1637.9 759.131C1642.09 773.771 1639.19 826.171 1639.15 843.601C1639.12 855.481 1640.25 867.521 1639.9 879.351C1639.79 882.991 1639.05 886.661 1638.37 890.231C1630.13 890.141 1621.99 889.281 1613.82 888.271C1612.61 855.571 1612.19 822.841 1612.55 790.121C1612.68 779.331 1611.64 766.721 1613.81 756.211Z" fill="#c72707"/>
<path d="M1619.4 760.251C1622.39 760.101 1625.9 759.651 1628.84 760.191C1630.96 760.591 1633.78 762.451 1634.65 764.491C1636.43 768.671 1635.41 785.391 1635.53 790.721C1635.9 806.291 1634.73 821.791 1635.05 837.311C1635.32 850.461 1637.36 863.781 1637.14 876.891C1637.08 880.291 1636.18 883.221 1634.96 886.361C1631.58 886.761 1628.24 887.011 1624.84 886.691C1621.69 886.391 1620.16 885.521 1618.17 883.131C1615.73 870.351 1617.67 856.311 1617.56 843.321C1617.37 819.231 1615.78 795.061 1617.3 770.981C1617.54 767.161 1618.01 763.851 1619.4 760.251Z" fill="#F03906"/>
<path d="M1653.23 800.351C1660.24 800.671 1670.34 799.8 1676.13 804.25C1677.47 814.15 1676.23 824.981 1676.39 835.021C1676.66 852.101 1678.55 870.53 1677.18 887.49C1677.05 889.07 1676.66 890.081 1675.81 891.401C1667.19 891.461 1658.64 891.231 1650.03 890.791C1649.27 876.671 1649.45 811.221 1653.23 800.351Z" fill="#c72707"/>
<path d="M1657.28 807.031C1661.73 806.271 1666.44 805.221 1670.53 807.621C1673.45 812.531 1673.85 870.391 1672.97 879.411C1672.64 882.791 1671.8 884.341 1669.27 886.541C1664.59 886.391 1658.24 886.861 1654.74 883.431C1652.33 873.451 1653.71 816.941 1657.28 807.031Z" fill="#F03906"/>
<path d="M1644.42 176.275L1648.01 175.957C1651.9 177.85 1652.89 181.439 1655.12 184.99C1656.83 187.709 1659.51 190.894 1662.92 191.277C1669.27 191.992 1673.49 187.109 1677.6 183.118C1682.3 186.043 1690.57 190.197 1691.53 196.23C1692.26 200.816 1688.52 204.495 1685.92 207.867C1686.82 210.067 1687.7 212.382 1688.94 214.418C1692.29 219.935 1699 220.571 1704.78 221.892C1704.46 255.991 1690.91 240.729 1683 253.158C1681.59 259.269 1684.22 264.493 1686.76 269.847C1681.72 274.686 1676.64 278.874 1670.49 282.242C1668.78 280.28 1667.37 278.056 1665.6 276.142C1663.27 273.609 1662.16 273.47 1658.78 273.215C1656.91 273.698 1654.79 274.145 1653.02 274.938C1647.88 277.238 1646.54 282.336 1644.45 287.152C1637.32 285.996 1631.02 283.668 1624.35 281.008C1624.93 278.42 1625.72 275.618 1625.78 272.963C1625.92 267.228 1620.35 263.119 1616.61 259.501L1603.47 261.541C1600.63 255.344 1598.74 249.529 1597.06 242.929C1600.01 240.552 1604.08 238.452 1606.51 235.647C1608.49 233.354 1609.79 230.145 1609.14 227.093C1608 221.726 1602.68 218.376 1598.67 215.162C1601.63 208.523 1605.06 202.772 1609.36 196.927C1613.49 199.178 1618.64 201.77 1623.54 200.354C1631.19 198.142 1630.64 186.944 1634.37 181.192C1636.37 178.101 1641.03 177.276 1644.42 176.275Z" fill="#c72707"/>
<path d="M1641.96 181.353C1650.55 181.792 1651.22 191.476 1659.46 193.653C1667.11 195.672 1674.07 188.956 1680.98 191.173C1690.87 194.349 1680.26 207.677 1683.22 215.189C1686.04 222.331 1696.75 222.228 1699.77 229.023C1702.64 235.465 1687.13 244.636 1683.1 249.053C1675.04 257.89 1681.82 262.758 1678.01 270.76C1674.88 277.356 1663.05 268.682 1655.09 270.944C1654.76 271.038 1654.43 271.141 1654.1 271.24C1650.43 270.401 1644.45 278.991 1639.94 280.296C1627.71 279.475 1630.38 265.093 1622.64 258.876C1618.28 255.368 1611.18 255.717 1606.68 252.054C1598.14 245.112 1612.03 238.497 1613.72 231.586C1615.85 222.896 1606.35 218.31 1606.7 210.665C1607.02 203.73 1623.12 204.472 1628.14 201.709C1636.01 197.37 1635.44 186.999 1641.96 181.353Z" fill="#F03906"/>
<path d="M1650.77 209.782C1655.19 209.542 1659.29 210.642 1662.76 213.436C1667.01 216.865 1669.01 221.808 1669.46 227.165C1670.28 237.03 1666.84 243.067 1660.87 250.332C1656.18 251.943 1651.93 253.079 1646.99 253.741C1644.15 252.517 1641.17 251.292 1638.65 249.472C1633.15 245.504 1628.71 239.463 1627.77 232.64C1627.07 227.948 1628.3 223.174 1631.17 219.398C1636.03 213.068 1643.26 210.97 1650.77 209.782Z" fill="#c72707"/>
<path d="M1644.95 214.814C1650.91 213.143 1657.31 214.878 1661.61 219.332C1665.92 223.785 1667.43 230.24 1665.55 236.142C1663.68 242.045 1658.72 246.443 1652.63 247.597C1643.77 249.28 1635.15 243.676 1633.09 234.888C1631.03 226.101 1636.26 217.25 1644.95 214.814Z" fill="#F5F4EE"/>
<path d="M1406.15 202.198C1416.76 203.11 1425.63 206.27 1433.43 213.834C1440.12 220.32 1445.12 229.905 1444.84 239.395C1444.75 242.376 1444.41 246.372 1442.13 248.501C1439.44 249.33 1436.96 249.919 1434.76 251.784C1434.62 255.117 1436.48 258.28 1437.8 261.325C1435.17 268.961 1432.18 276.699 1427.62 283.417C1420.1 294.5 1410.7 300.293 1397.63 302.838C1389.2 301.404 1379.07 299.902 1371.99 294.86C1362.52 288.124 1356.97 276.655 1355.35 265.373C1353.68 253.754 1356.23 242.198 1363.5 232.888C1369.41 225.319 1378.19 217.312 1387.81 215.378C1390.46 214.843 1393.72 215.199 1396.24 214.425C1398.64 213.689 1399.37 210.549 1400.26 208.49C1401.71 205.144 1403.08 204.018 1406.15 202.198Z" fill="#FCE5D7"/>
<path d="M1388.72 217.265C1389.81 217.554 1391.2 218.335 1392.24 218.807C1396.74 224.847 1395.87 249.016 1396.2 257.436C1407.57 257.557 1419.62 253.394 1430.72 254.839C1432.24 255.946 1433.68 256.846 1434.41 258.67C1435.7 261.868 1434.46 265.675 1433.21 268.679C1427.52 282.367 1417.65 292.548 1404.14 298.509C1396 300.492 1387.46 300.087 1379.7 296.705C1369.95 292.454 1362.95 283.937 1359.52 273.982C1355.67 262.813 1356.93 250.899 1362.16 240.391C1367.76 229.144 1376.74 221.06 1388.72 217.265Z" fill="#c72707"/>
<path d="M1382.08 223.606C1384.94 223.45 1386.7 223.304 1389.3 224.784C1391.71 229.23 1390.3 236.716 1390.44 241.761C1390.6 247.701 1390.98 257.073 1396.18 261.034C1404.69 267.525 1413.67 259.311 1422.47 259.209C1425.39 259.176 1425.78 259.864 1427.59 261.841C1428.47 264.688 1428.83 266.53 1428.07 269.465C1425.73 278.506 1417.09 286.506 1409.51 291.145C1404.68 294.338 1395.23 295.396 1389.58 294.73C1381.73 293.804 1374.32 289.29 1369.47 283.115C1363.31 275.258 1361.18 265.727 1362.48 255.913C1364.43 241.33 1370.8 232.259 1382.08 223.606Z" fill="#F03906"/>
<path d="M1404.48 205.149C1405.54 205.14 1406.61 205.118 1407.66 205.167C1417.36 205.611 1426.09 210.513 1432.36 217.819C1437.48 223.794 1443.22 233.375 1442.24 241.618C1441.88 244.704 1441.04 245.281 1438.63 247.127C1431.22 247.611 1412.45 251.979 1406.76 248.131C1404.55 246.639 1403.42 243.989 1402.79 241.495C1400.47 232.238 1399.79 213.324 1404.48 205.149Z" fill="#c72707"/>
<path d="M1410.07 210.128C1412.28 210.213 1414.54 210.439 1416.69 210.971C1423.2 212.585 1429.95 220.221 1433.23 225.806C1435.22 229.204 1437.08 234.035 1435.67 237.961C1434.61 240.892 1432.58 241.986 1430.07 243.448C1424.27 243.812 1413.44 245.955 1408.94 241.677C1405.73 238.632 1404.71 233.186 1404.6 228.97C1404.41 222.182 1405.38 215.245 1410.07 210.128Z" fill="#F03906"/>
<path d="M1670.78 536.507C1678.43 528.595 1695.42 495.283 1713.11 505.072L1713.5 507.281C1710.32 513.83 1699.88 511.717 1690.27 524.827L1689.52 525.863C1686.19 530.962 1684.21 534.276 1681.38 539.689C1670.56 555.902 1651.15 615.333 1622.18 595.616C1616.11 591.481 1611.72 582.41 1607.88 575.99C1584.23 556.808 1575.29 595.558 1551.24 609.354C1548.3 613.772 1546.06 617.543 1542.3 621.316C1541.91 623.8 1541.77 623.64 1540.04 625.539C1534.44 625.485 1534.35 619.613 1528.06 618.402L1527.96 612.385C1527.94 606.671 1528.23 603.373 1528.84 597.82C1529.09 603.165 1528.16 602.904 1530.89 605.999C1536.81 607.737 1542.35 603.563 1547.95 600.545C1558.59 584.262 1565.8 556.247 1583.45 546.773C1597.42 539.271 1610.41 559.734 1614.97 570.275C1622.98 576.243 1626.58 579.173 1636.68 575.361C1639.59 577.312 1640.55 577.61 1641.96 580.845C1646.11 577.92 1646.85 577.523 1650.08 573.741C1649.52 570.859 1647.51 569.485 1645.28 567.198C1655.4 556.639 1659.19 545.76 1670.78 536.507Z" fill="#1A110E"/>
<path d="M1599.75 561.763C1603.6 567.193 1604.94 570.042 1607.88 575.99C1584.23 556.808 1575.29 595.558 1551.24 609.354C1553.89 604.057 1556.3 598.905 1559.51 593.928C1571.53 593.139 1572.48 560.167 1599.75 561.763Z" fill="#c72707"/>
<path d="M1559.51 593.928C1564.43 582.373 1571.97 567.432 1580.81 558.413C1588.38 550.688 1594.39 554.472 1599.75 561.763C1572.48 560.167 1571.53 593.139 1559.51 593.928Z" fill="#F9EFE6"/>
<path d="M1527.96 612.385C1527.94 606.671 1528.23 603.373 1528.84 597.82C1529.09 603.165 1528.16 602.904 1530.89 605.999C1536.81 607.737 1542.35 603.563 1547.95 600.545C1544.6 606.934 1540.78 613.864 1537.85 620.394L1542.3 621.316C1541.91 623.8 1541.77 623.64 1540.04 625.539C1534.44 625.485 1534.35 619.613 1528.06 618.402L1527.96 612.385Z" fill="#c72707"/>
<path d="M1527.96 612.385C1530.21 614.374 1536.61 618.797 1537.85 620.394L1542.3 621.316C1541.91 623.8 1541.77 623.64 1540.04 625.539C1534.44 625.485 1534.35 619.613 1528.06 618.402L1527.96 612.385Z" fill="#F9EFE6"/>
<path d="M1645.28 567.198C1655.4 556.639 1659.19 545.76 1670.78 536.507C1665.28 548.908 1657.54 566.026 1649.69 576.841L1650.08 573.741C1649.52 570.859 1647.51 569.485 1645.28 567.198Z" fill="#c72707"/>
<path d="M1614.97 570.274C1622.98 576.242 1626.58 579.172 1636.68 575.36C1639.59 577.311 1640.55 577.609 1641.96 580.844C1635.26 585.882 1631.2 586.078 1622.86 585.003C1619.2 579.174 1617.76 576.553 1614.97 570.274Z" fill="#c72707"/>
<path d="M1650.08 573.741L1649.69 576.841C1642.08 587.227 1634.81 597.477 1622.86 585.004C1631.2 586.079 1635.26 585.883 1641.96 580.845C1646.11 577.92 1646.85 577.523 1650.08 573.741Z" fill="#FCE5D7"/>
<path d="M1138.51 244.741C1140.65 244.991 1141.51 245.306 1143.18 246.671C1146.45 254.95 1141.68 272.025 1141.82 281.719L1141.86 283.554C1145.68 277.232 1148.55 270.367 1152.77 264.278C1154.5 261.782 1156.37 259.001 1159.51 258.383L1160.95 259.994C1161.91 265.256 1160.68 269.625 1159.47 274.7C1163.61 269.42 1167.89 262.839 1172.91 258.395C1175.11 256.454 1176.16 256.014 1179.04 256.139C1184.43 260.844 1184.13 269.395 1184.97 276.054C1189.3 271.767 1193.74 264.887 1199.17 262.105C1206.47 258.357 1210.48 266.689 1217.01 267.784C1223.58 268.883 1230.82 263.257 1236.28 260.241C1243.63 256.183 1251.3 253.442 1259.65 256.325C1262.15 257.185 1263.14 257.807 1264.16 260.21L1262.91 262.195C1257.01 265.447 1251.59 263.692 1245.53 265.534C1235.41 268.608 1227.77 274.619 1216.93 276.777L1215.14 276.077C1210.15 274.152 1206.15 271.296 1201.8 268.254L1197.77 273.072C1195.25 276.101 1192.8 279.497 1189.01 281.014C1186.75 281.922 1184.43 282.346 1182.19 281.077C1177.4 278.366 1176.79 270.442 1175.92 265.577L1170.79 272.406C1168.12 275.936 1165.65 279.816 1161.03 280.467C1160.06 279.606 1158.51 277.869 1157.35 277.398C1154.39 276.197 1146.77 288.917 1141.6 291.014C1139.36 291.921 1139.03 291.597 1136.96 290.677C1133.43 285.098 1133.47 278.658 1133.61 272.289L1133.6 271.369L1132.72 271.339C1129.63 277.556 1126.39 284.956 1121.16 289.651C1118.61 291.934 1116.72 292.24 1113.4 292.086C1110.76 290.592 1109.73 289.557 1108.22 286.908C1108.07 286.653 1107.93 286.394 1107.79 286.137C1104.63 286.531 1098.66 296.379 1093.71 298.371C1092.37 298.204 1091.43 298.453 1090.5 297.332C1085.61 291.417 1087 277.793 1087.42 270.651C1083.7 278.676 1077.26 297.117 1068.93 300.251C1066.3 300.096 1065 300.208 1062.92 298.321C1061.03 296.601 1060.74 292.15 1060.55 289.763C1059.75 279.544 1061.15 256.662 1067.9 248.947L1069.53 248.921L1070.19 250.563C1067.8 261.727 1063.03 280.778 1067.04 291.732L1068.67 292.41C1079.02 285.022 1082.11 259.11 1091.9 254.494L1093.58 255.575C1097.41 265.653 1095.19 280.157 1095 290.86C1099.27 284.525 1102.09 277.633 1105.96 271.088C1107.59 268.324 1108.82 266.365 1112 265.585L1113.85 267.449C1116.06 273.115 1115.35 279.363 1115.25 285.358C1125.7 272.849 1129.52 257.863 1138.51 244.741Z" fill="#161513"/>
<path d="M1575.97 883.371C1576.64 866.701 1573.06 805.091 1577.96 795.481C1582.96 792.111 1589.8 793.141 1595.51 794.311C1597.6 794.751 1599.68 795.251 1601.74 795.801C1604.12 825.621 1604.2 855.581 1601.96 885.411C1600.71 888.171 1600.25 889.491 1598.56 892.041L1580.65 890.411C1578.61 887.991 1576.85 886.391 1575.97 883.371Z" fill="#c72707"/>
<path d="M1575.97 883.371C1582.14 884.891 1596.03 886.911 1601.96 885.411C1600.71 888.171 1600.25 889.491 1598.56 892.041L1580.65 890.411C1578.61 887.991 1576.85 886.391 1575.97 883.371Z" fill="#FCE5D7"/>
<path d="M1583.52 797.511C1588.05 797.881 1593.33 798.871 1596.91 801.751C1598.46 807.861 1597.12 816.751 1597.2 823.181C1597.44 842.111 1599.33 861.641 1597.38 880.521L1592.86 882.921C1588.53 883.081 1585.31 883.371 1581.72 880.651C1578.29 871.341 1578.13 815.461 1579.67 803.911C1580.14 800.461 1580.87 799.731 1583.52 797.511Z" fill="#F03906"/>
<path d="M1157.6 819.681C1159.41 810.721 1162.58 793.161 1172.99 791.021L1174.96 792.391C1178.18 798.151 1178 804.01 1178.03 810.5C1178.51 813.78 1177.94 814.44 1179.85 815.87C1180.83 814.33 1181.14 814.06 1181.79 812.37C1184.37 808.31 1186.5 805.151 1191.46 807.141C1194.7 810.401 1195.12 813.141 1196.54 817.521C1208.09 807.521 1212.09 804.851 1221.56 817.831C1227.24 815.251 1240.65 808.85 1245.96 813.26C1243.93 821.37 1228.55 824.171 1221.36 823.211C1216.31 822.531 1214.44 818.79 1211.71 815C1206.17 819.11 1201.1 824.921 1194.27 822.391C1191.05 819.361 1190.58 817.031 1188.89 812.781C1186.43 817.711 1183.64 826.021 1177.14 824.031C1172.78 818.431 1172.42 803.76 1171.16 795.49C1165.79 805.25 1161.59 835.75 1155.31 838.88L1153.2 837.951C1149 830.931 1150.57 821.211 1149.56 812.451C1146.5 808.281 1143.29 813.541 1140.69 810.651C1139.43 809.251 1140.69 806.261 1136.96 803.581C1125.86 804.221 1113.76 846.351 1097.65 808.931C1094.17 814.721 1091.31 821.811 1083.69 821.141C1078.08 817.011 1076.83 805.501 1074.83 797.951C1071.69 802.201 1068.41 806.591 1066.36 811.471C1064.73 815.381 1064.52 818.111 1062.08 821.811L1061.2 820.521C1061.1 811.791 1066.54 790.721 1078.83 794.951C1083.46 800.231 1083.62 809.651 1084.42 816.701C1105.3 788.301 1100.4 809.84 1109.54 815.13C1125.13 816.99 1124.65 786.071 1142.92 799.051C1154.83 807.511 1154.63 805.691 1157.6 819.681Z" fill="#161513"/>
<path d="M1525.11 644.289C1546.5 643.444 1567.9 641.99 1589.17 641.083C1615.03 639.979 1643.57 646.995 1669.72 646.324C1681.74 646.521 1714.44 640.755 1722.27 645.134C1723.73 648.359 1723.41 646.584 1722.24 650.764C1675.25 656.597 1635.92 652.815 1589.39 647.639C1574.09 645.938 1538.96 654.125 1525.86 647.432C1524.99 645.348 1524.91 646.171 1525.11 644.289Z" fill="#161513"/>
<path d="M1527.89 889.511C1545.09 888.691 1563.46 889.611 1580.65 890.411L1598.56 892.041C1602.61 892.661 1607.21 893.481 1611.25 893.801C1617.46 894.971 1648.38 898.881 1654.33 898.231C1664.97 899.641 1708.1 895.261 1709.08 905.991C1701.35 914.071 1593.79 900.591 1576.59 897.761C1565.42 895.931 1534.79 896.781 1526.8 891.971L1527.89 889.511Z" fill="#161513"/>
<path d="M1541.78 828.091C1547.68 827.941 1557.99 826.501 1563.01 829.981C1568.41 841.341 1566.7 870.001 1565.44 883.131L1544.06 882.711C1538.91 865.391 1539.49 845.861 1541.78 828.091Z" fill="#c72707"/>
<path d="M1549.52 831.181C1552.83 831.551 1555.64 831.741 1558.6 833.401C1560.65 837.001 1560.96 840.761 1561.2 844.821C1561.57 850.941 1562.64 871.621 1560.27 876.581C1559.75 877.661 1558.68 878.381 1557.89 879.281C1554.64 878.631 1550.26 878.331 1547.9 875.921C1543.18 866.161 1541.67 846.821 1544.83 836.311C1545.73 833.311 1546.91 832.721 1549.52 831.181Z" fill="#F03906"/>
<path d="M1367.38 345.884C1369.06 346.624 1369.96 347.417 1371.23 348.726C1371.04 353.477 1367.59 357.416 1364.08 360.468C1361.64 362.584 1357.75 365.22 1354.32 364.505C1351.43 363.903 1348.8 360.355 1346.91 358.195C1341.94 359.063 1340.52 363.915 1336.01 364.133C1332.37 362.255 1330.82 359.219 1328.7 355.853C1325.78 360.335 1323.08 364.952 1319.21 368.68C1314.94 369.333 1309.57 365.41 1305.4 363.719C1303.72 364.378 1302.41 365.018 1300.56 364.919C1298.84 364.826 1297.1 362.325 1295.89 361.107C1288.34 360.434 1286.95 370.197 1280.41 370.395C1275.52 370.543 1272.88 367.815 1269.49 364.737C1265.35 369.219 1262.07 373.555 1256.05 375.439C1254.34 375.138 1253.34 375.306 1252.05 374.014C1248.17 370.115 1248.55 363.234 1248.16 358.065C1242.38 362.615 1238.45 367.905 1234.24 373.849C1232.85 373.125 1233.61 373.673 1232.27 371.843C1232.38 369.791 1232.92 368.388 1233.89 366.611C1236.97 360.933 1241.64 354.266 1248.05 352.372C1249.72 352.748 1250.63 352.633 1251.86 353.952C1255.74 358.119 1255.2 364.597 1255.41 369.938C1258.19 366.871 1260.95 363.585 1263.98 360.768C1265.85 359.028 1268.15 357.962 1270.76 358.256C1274.39 358.665 1277.28 362.471 1279.69 364.973C1282.61 362.044 1292.71 351.165 1296.84 352.619C1298.18 353.087 1299.75 355.298 1301.05 355.577C1303.04 356.006 1306 354.857 1308.17 355.13C1310.98 355.483 1313.68 360.426 1315.35 362.625C1320.09 357.124 1324.59 351.685 1330.42 347.297C1332.8 350.165 1334.85 353.334 1336.99 356.387C1338.59 354.473 1340.23 352.338 1342.07 350.646C1344.09 348.778 1345.56 348.667 1348.19 348.703C1351.75 350.488 1353.46 353.823 1355.57 357.051C1359.33 352.946 1362.86 349.179 1367.38 345.884Z" fill="#161513"/>
<path d="M1539.09 697.871C1540.43 698.081 1541.67 698.521 1542.96 698.911C1548.43 705.021 1547.8 718.751 1548.57 726.691C1553.55 720.151 1558.78 704.791 1566.19 702.041L1568.28 703.511C1570.49 707.611 1570.17 712.371 1570.37 716.931C1572.59 713.991 1575.5 709.281 1578.94 707.781C1580.25 707.211 1581.69 707.001 1582.97 707.651C1586.96 709.681 1587.88 715.941 1589.03 719.891C1590.79 718.401 1592.58 716.801 1594.56 715.581C1597.03 714.061 1600.13 713.391 1602.95 714.321C1605.83 715.271 1607.96 717.901 1608.9 720.701C1609.84 723.521 1609.49 725.451 1608.11 727.981L1605.77 728.191C1603 726.711 1602.11 724.411 1600.69 721.761L1600.03 720.511L1593.36 727.121C1590.68 727.561 1588.3 728.041 1585.78 726.751C1581.95 724.791 1581.25 717.991 1580.36 714.191C1577.72 718.111 1575.56 722.001 1571.45 724.511C1568.72 724.891 1568.76 724.951 1566.46 723.441C1563.93 719.581 1563.96 715.301 1563.53 710.831C1561.72 715.441 1559.75 720.231 1557.14 724.461C1554.82 728.221 1552.78 731.221 1548.36 732.261C1547.46 731.901 1546.9 731.751 1546.14 731.041C1540.45 725.681 1540.6 710.601 1539.42 702.871C1533.05 711.541 1530.84 720.991 1526.71 730.691C1528.1 718.291 1529.55 706.921 1539.09 697.871Z" fill="#161513"/>
<path d="M1525.11 644.289C1522.77 642.516 1521.44 640.439 1521.32 637.461C1520.78 618.844 1521.59 598.054 1521.87 579.629C1522.09 565.505 1517.31 504.978 1523.44 497.123L1524.8 498.226C1527.44 507.299 1526.34 529.253 1527.09 539.567C1528.53 559.302 1529.12 578.013 1528.84 597.82C1528.23 603.373 1527.94 606.671 1527.96 612.385L1528.06 618.402C1528.18 627.356 1529.46 636.802 1525.11 644.289Z" fill="#161513"/>
<path d="M1349.01 401.658C1349.79 401.551 1350.56 401.453 1351.34 401.365C1355.4 400.906 1357.01 401.08 1360.25 403.68C1360.43 405.048 1360.94 405.656 1359.88 406.768C1353.26 413.766 1265.47 415.986 1250.28 417.059C1246.42 417.283 1242.74 417.918 1239.35 415.71L1239.32 414.278C1250.39 408.834 1299.56 408.182 1314.66 406.684C1326.13 405.546 1337.62 403.47 1349.01 401.658Z" fill="#161513"/>
<path d="M1523.6 885.13C1517.64 858.54 1523.44 825.91 1525.06 798.99C1525.55 790.8 1522.92 768.071 1525.77 762.061L1526.99 762.951C1534.37 781.381 1527.98 826.131 1527.3 846.711C1526.92 858.261 1528.01 873.961 1527.04 884.941L1523.6 885.13Z" fill="#161513"/>
<path d="M1345.81 384.877C1348.83 384.518 1352.79 383.782 1355.77 384.355C1358.09 384.799 1359.32 385.749 1360.52 387.669C1358.99 389.304 1357.26 389.466 1355.14 389.826C1340.73 392.271 1325.21 392.178 1310.59 393.042C1290.63 394.282 1270.7 395.796 1250.79 397.583C1245.86 398.106 1241.81 398.665 1237.11 396.7L1236.67 395.558C1247.76 390.34 1329.96 386.017 1345.81 384.877Z" fill="#161513"/>
<path d="M1520.63 256.692C1523.66 256.458 1526.61 255.987 1529.31 257.728C1531.29 259.005 1532.14 260.045 1532.48 262.39C1532.3 262.616 1532.16 262.87 1531.95 263.069C1526.32 268.57 1487.43 269.276 1477.63 270.124C1472.75 270.312 1468.14 271.125 1463.92 268.256L1464.01 267.013C1472.8 261.345 1508.82 257.822 1520.63 256.692Z" fill="#161513"/>
<path d="M1161.16 856.601C1167.22 855.011 1172.82 852.161 1178.63 849.891C1181.93 848.601 1185.27 847.881 1188.83 847.951C1195.12 848.071 1201.04 851.341 1207.3 851.501C1215.7 851.721 1229.09 847.831 1236.51 852.311C1239.33 854.011 1239.34 855.411 1240.25 858.311C1227.76 862.651 1201.81 854.011 1188.55 853.551C1178.98 853.211 1172.94 860.901 1164.05 861.481C1161.63 861.641 1159.01 861.011 1157.32 859.141C1154.62 856.151 1154.92 851.681 1155.21 847.971C1158.26 849.561 1159.66 853.611 1161.16 856.601Z" fill="#161513"/>
<path d="M1295.81 427.65C1298.77 427.344 1302.07 426.937 1304.99 427.694C1307.43 428.329 1309.79 429.248 1311.12 431.494L1310.27 432.871C1297.95 439.665 1269.26 438.118 1254.8 437.533C1251.49 437.49 1247.6 437.748 1244.4 436.861C1242.68 436.387 1241.96 436.22 1241.14 434.608C1247.57 430.581 1284.67 429.3 1295.81 427.65Z" fill="#161513"/>
<path d="M1520.83 216.322C1522.29 216.221 1524.19 215.922 1525.62 216.179C1528 216.61 1528.27 217.125 1529.31 219.056C1529.21 219.346 1529.14 219.655 1528.99 219.926C1527.5 222.623 1523.4 224.36 1520.68 225.462C1508.73 230.308 1500.26 229.104 1488.96 224.122C1483.78 225.988 1479 228.06 1473.62 229.401C1473.28 229.313 1472.94 229.221 1472.59 229.136C1470.73 228.674 1468.71 228.3 1466.95 227.534C1464.8 226.607 1463.67 224.939 1462.98 222.782L1464.24 221.278C1467.75 220.665 1470.42 222.412 1473.48 223.876C1474.49 223.403 1475.5 222.953 1476.51 222.49C1488.08 217.192 1496.51 220.969 1508.29 219.898C1512.42 219.523 1516.9 217.643 1520.83 216.322Z" fill="#161513"/>
<path d="M1542.65 236.709C1546.44 236.234 1548.78 236.28 1552.11 238.078L1552.63 239.949C1547.71 244.632 1485.51 248.138 1474.59 248.876C1471.05 249.241 1468.69 249.45 1465.34 248.163L1464.77 246.847C1472.33 243.136 1530.42 237.675 1542.65 236.709Z" fill="#161513"/>
<path d="M1555.68 414.067C1560.06 402.157 1566.49 379.832 1579.02 374.355C1588.11 370.381 1596.09 386.062 1605.86 390.13L1603.21 395.172C1594.45 390.965 1589.02 381.832 1581.79 380.761C1576.13 382.066 1574.23 386.362 1571.17 391.183C1569.59 394.392 1565.33 403.574 1564.47 407.044C1562.33 413.103 1561.86 417.048 1556.42 420.383C1555.24 417.442 1555.51 417.316 1555.68 414.067Z" fill="#1A110E"/>
<path d="M1067.22 835.9C1068.15 838.12 1068.3 840 1068.55 842.37C1068.71 843.94 1068.68 846.21 1069.26 847.67C1070.2 850.05 1070.99 850.36 1073.14 851.29C1078.34 849.62 1080.19 843.32 1084.49 840.39C1086.82 838.8 1087.55 839.19 1090.08 839.78C1093.3 842.65 1093.95 846.67 1095.13 850.67C1099.62 847.96 1103.83 845.76 1108.76 843.89C1114.37 845.59 1128.57 845.24 1131.59 847.61L1131.74 850.2C1130.89 850.44 1130.04 850.68 1129.18 850.88L1128.03 851.15C1118.87 853.3 1111.07 848.05 1102.24 852.65C1100.76 853.42 1099.4 854.29 1097.8 854.78C1095.36 855.54 1094.94 855.04 1092.74 853.98C1090.03 850.83 1089.06 846.97 1087.75 843.1L1086.51 844.56C1082.91 848.74 1077.93 855.34 1071.57 854.78C1069.16 854.57 1067.52 853.84 1066.36 851.62C1064.19 847.49 1065.97 840.13 1067.22 835.9Z" fill="#161513"/>
<path d="M1675.15 702.701C1677.05 702.511 1678.96 702.471 1680.87 702.571C1684.27 702.781 1687.17 704.331 1689.36 706.911L1688.24 708.651C1676.6 713.411 1655.86 710.541 1642.82 710.331C1640.04 709.921 1637.23 709.561 1634.48 708.941C1632.75 708.551 1630.11 708.161 1629.13 706.601C1634.49 703.181 1666.24 703.491 1675.15 702.701Z" fill="#161513"/>
<path d="M1689.52 525.863C1696.06 525.093 1709.61 519.285 1714.77 521.56L1715.82 523.3C1712.57 529.244 1698.98 531.23 1692.98 533.766C1689.1 535.408 1685.08 537.662 1681.38 539.689C1684.21 534.276 1686.19 530.962 1689.52 525.863Z" fill="#c72707"/>
<path d="M1622.74 367.542L1622.57 369.186C1622.28 371.677 1621.93 372.436 1621.08 374.777C1622.52 374.417 1623.89 374.035 1625.39 374.315C1623.69 377.413 1615.11 389.675 1615.09 389.731C1610.51 393.532 1609.17 394.2 1603.21 395.173L1605.86 390.131C1613.63 382.537 1616.22 375.978 1622.74 367.542Z" fill="#1A110E"/>
<path d="M1628.82 722.651C1637.13 722.041 1646.84 720.381 1654.96 722.621C1656.98 724.591 1656.68 724.661 1656.73 727.521C1650.27 728.931 1635.81 730.341 1630.34 726.481C1628.83 725.421 1629.12 724.341 1628.82 722.651Z" fill="#161513"/>
<path d="M1560.22 212.4C1563 212.256 1564.99 212.909 1567.57 213.774C1567.85 215.7 1568 214.719 1566.77 216.644C1564.11 217.917 1561.67 219.005 1558.74 219.51C1555.5 220.069 1552.4 220.897 1549.23 221.769L1547.05 222.746C1544.78 221.752 1544.77 221.896 1543.82 219.629L1544.81 217.8C1549.44 214.543 1554.79 213.685 1560.22 212.4Z" fill="#161513"/>
<path d="M1636.68 575.361C1639.36 573.18 1642.73 569.69 1645.28 567.198C1647.51 569.485 1649.52 570.859 1650.08 573.741C1646.85 577.523 1646.11 577.92 1641.96 580.845C1640.55 577.61 1639.59 577.312 1636.68 575.361Z" fill="#c72707"/>
<path d="M1527.04 884.94L1527.89 889.51L1526.8 891.97L1523.6 885.13L1527.04 884.94Z" fill="#1A110E"/>
<path d="M977.427 224.779C982.557 225.205 987.627 225.785 991.607 229.397C1004.99 241.554 999.767 278.826 999.847 295.293C999.907 306.634 1001.23 317.945 1001.29 329.285C1001.34 338.443 1001.45 359.613 994.167 366.126C980.407 378.45 904.089 376.401 883.777 376.265C883.365 376.203 882.951 376.147 882.54 376.08C876.008 375.014 867.949 372.901 864.211 366.892C858.11 357.088 858.953 282.307 859.938 266.753C860.445 258.73 861.501 251.06 863.312 243.231C867.794 239.209 871.531 236.207 877.418 234.467C890.586 230.574 904.935 231.66 918.517 230.523C938.187 228.879 957.727 226.306 977.427 224.779Z" fill="#270805"/>
<path d="M980.987 229.732L985.487 230.602C988.767 233.11 990.397 236.139 991.887 239.965C994.047 245.527 995.277 251.495 995.757 257.435C996.737 269.381 995.237 281.829 995.037 293.831C994.717 312.868 999.187 345.341 991.797 362.487C971.977 373.713 906.135 371.554 882.312 371.162C879.204 370.629 876.083 370.049 873.177 368.779C870.218 367.486 868.102 365.375 867.099 362.266C864.61 354.547 865.957 343.632 865.659 335.366C864.836 312.575 859.723 260.818 870.322 241.659C873.839 238.79 878.634 237.896 883.017 237.168C892.96 235.518 903.484 236.336 913.557 235.56C936.047 233.825 958.487 231.381 980.987 229.732Z" fill="#c72707"/>
<path d="M967.777 235.8C973.197 235.257 979.957 234.124 984.687 237.538C988.847 240.534 989.677 247.915 990.287 252.642C991.957 265.501 989.857 278.994 989.797 291.94C989.707 309.272 995.947 345.437 985.477 359.036C964.737 371.246 917.497 366.047 892.787 367.053C888.093 366.683 883.032 367.035 878.432 366.093C875.905 365.575 873.152 364.2 871.881 361.881C868.24 355.237 869.589 341.043 869.222 333.311C868.145 310.61 864.337 272.857 870.934 251.57C874.858 248.995 878.01 246.223 881.358 242.97C895.564 239.598 911.717 240.438 926.257 239.599C940.097 238.801 953.967 237.058 967.777 235.8Z" fill="#F03906"/>
<path d="M936.537 243.286C938.537 245.944 939.277 249.168 941.077 251.955C947.927 262.564 956.067 269.818 958.537 282.968C960.227 291.915 959.987 301.709 963.547 310.194C965.577 315.009 969.697 318.104 971.887 322.487C973.097 324.911 972.927 326.396 972.167 328.895C968.177 334.293 951.807 335.329 944.997 337.254C944.297 342.352 943.527 347.991 939.187 351.411C934.797 354.873 929.337 353.854 924.217 353.17C921.457 352.001 920.827 350.268 919.397 347.832C910.167 332.141 904.061 342.789 892.464 338.002C890.676 337.264 889.995 336.412 889.271 334.714C885.173 325.104 896.643 315.789 899.045 307.053C902.862 293.173 900.671 276.583 908.734 263.805C913.127 256.84 919.867 258.442 924.677 246.644C924.827 246.27 924.967 245.893 925.117 245.518C928.287 243.35 932.777 243.643 936.537 243.286Z" fill="#c72707"/>
<path d="M929.007 245.852C930.487 246.049 931.967 246.392 933.427 246.672C935.287 248.759 935.317 248.837 935.467 251.667C935.997 261.903 945.877 261.524 950.487 271.72C956.127 284.215 955.777 298.529 959.047 311.699L959.357 312.893C962.097 315.436 965.937 318.374 967.917 321.574C969.307 323.839 969.307 325.175 968.827 327.695C963.717 332.376 942.047 331.377 934.197 331.949C924.737 332.014 899.636 336.699 892.861 332.203C891.826 324.103 899.749 320.25 902.533 313.478C907.306 301.869 903.994 288.132 908.193 276.2C911.107 267.913 916.627 263.044 924.317 259.23C925.387 254.418 926.187 250.012 929.007 245.852Z" fill="#F5F4EE"/>
<path d="M932.797 338.716C934.457 338.555 936.567 338.158 938.207 338.37C940.667 338.686 940.897 339.362 942.087 341.264C942.047 342.65 941.937 343.695 941.177 344.899C938.367 349.366 935.137 350.429 930.137 351.34C928.767 350.992 927.627 350.545 926.337 349.919C923.267 348.424 920.997 346.423 919.917 343.238L921.197 340.891C924.647 338.403 928.707 338.837 932.797 338.716Z" fill="#F9EFE6"/>
<path d="M883.017 446.544L886.452 447.354C889.875 451.45 888.294 467.575 888.734 473.613C892.33 468.722 895.631 458.615 900.748 455.786C905.974 457.415 904.062 463.452 908.158 466.024C912.047 463.588 915.417 456.577 918.717 452.991L919.427 452.236L925.207 463.117C929.617 459.568 933.967 455.956 938.267 452.282C949.347 461.677 957.907 455.6 970.767 459.131L970.557 461.166C966.867 463.823 950.827 464.362 945.217 465.275L937.457 459.152C934.427 461.898 930.207 466.469 925.957 467.074C924.207 467.323 922.547 465.675 921.257 464.679C919.537 463.358 919.147 463.652 917.057 463.533C913.827 465.131 912.917 467.66 910.767 470.3C908.935 472.543 908.124 472.898 905.288 473.073C902.128 471.369 900.913 468.778 899.162 465.8C897.537 468.231 895.918 470.746 893.9 472.875C892.038 474.839 890.039 476.201 887.221 476.063C885.756 475.991 884.698 475.276 883.813 474.086C879.046 467.672 881.84 453.965 883.017 446.544Z" fill="#F5F4EE"/>
<path d="M890.462 739.621L893.511 741.131C896.523 745.071 897.709 750.071 899.245 754.731L908.469 748.471C916.577 748.081 924.807 747.331 932.917 747.531C942.087 747.761 950.947 750.081 960.027 750.951C966.487 751.571 973.007 750.841 979.467 751.531C981.187 751.721 982.447 752.141 983.997 752.861L983.777 754.411C980.177 756.941 976.407 757.621 972.197 758.611C958.797 759.011 946.467 755.091 933.327 753.421C924.997 752.371 917.027 752.821 908.684 753.441C906.853 754.801 904.902 756.421 902.863 757.431C900.496 758.601 898.87 757.861 896.618 756.951C893.555 753.691 892.39 749.491 890.845 745.371C889.291 748.591 887.907 751.621 885.609 754.381L884.438 754.181C884.797 748.381 887.311 744.391 890.462 739.621Z" fill="#F5F4EE"/>
<path d="M923.487 498.64C931.327 497.626 961.587 496.603 968.037 499.246C970.077 500.082 970.317 501.022 970.847 502.899C970.657 503.135 970.507 503.402 970.287 503.607C965.547 508.036 933.447 505.084 925.277 505.233C911.187 505.662 894.378 511.074 880.588 508.207L881.116 507.196L880.944 508.135L881.664 508.248L882.912 506.423C895.997 502.383 909.924 500.367 923.487 498.64Z" fill="#F5F4EE"/>
<path d="M973.587 411.681C977.167 411.185 979.897 410.81 982.967 412.876L982.817 414.545C972.567 422.953 904.916 422.418 888.777 422.341C884.9 422.379 882.303 422.497 878.893 420.52L878.913 419.429C888.929 416.203 917.237 416.99 929.427 416.197C944.207 415.234 958.887 413.517 973.587 411.681Z" fill="#F5F4EE"/>
<path d="M914.617 800.881C918.907 800.541 923.217 800.311 927.527 800.191C936.737 800.001 972.257 800.501 978.297 806.371L977.617 807.961C970.757 811.261 956.607 808.731 948.777 808.181C937.407 806.971 893.032 809.271 886.731 803.261L887.51 801.851C895.868 799.741 905.876 801.401 914.617 800.881Z" fill="#F9EFE6"/>
<path d="M894.307 824.771C906.802 824.581 929.297 823.561 940.637 827.911C942.837 828.761 943.037 828.771 944.037 830.991C943.727 831.431 943.477 831.911 943.107 832.311C940.727 834.841 936.227 834.971 933.017 835.431C922.357 834.071 911.687 833.861 900.987 833.051C896.134 832.691 886.951 832.621 883.74 828.911C884.054 828.451 884.28 827.911 884.682 827.531C887.22 825.071 891.022 824.961 894.307 824.771Z" fill="#F5F4EE"/>
<path d="M930.477 543.695C933.207 543.359 935.897 543.211 938.647 543.16C944.627 543.048 960.347 542.604 964.707 546.803C959.917 550.421 929.147 550.292 921.277 550.843C912.607 551.403 894.044 552.571 886.564 548.942L887.187 547.753C899.245 542.881 917.277 544.918 930.477 543.695Z" fill="#F5F4EE"/>
<path d="M889.354 772.001C891.37 775.701 890.344 780.071 890.157 784.241C894.928 780.131 899.842 776.651 905.11 773.211C906.585 777.391 907.329 780.401 911.127 782.961C915.507 783.561 920.007 781.081 924.037 779.511C931.517 783.211 941.977 782.001 948.387 786.451L948.527 788.361C939.507 787.751 930.667 787.841 922.427 783.721C919.317 785.231 915.507 787.691 911.987 787.501C907.799 787.271 904.775 782.041 902.457 779.031C902.001 779.391 901.541 779.751 901.09 780.131C899.605 781.351 898.164 782.651 896.609 783.791C893.475 786.091 891.297 786.471 887.41 785.831C886.431 784.881 885.363 784.361 885.246 782.911C884.95 779.201 887.226 774.921 889.354 772.001Z" fill="#F5F4EE"/>
<path d="M933.287 571.639C934.557 571.351 936.707 570.958 937.987 571.134C940.167 571.435 940.517 572.598 941.627 574.265L940.797 576.184C931.187 582.038 914.827 580.279 903.794 580.032C902.422 579.873 900.794 579.786 899.438 579.444C897.281 578.901 896.715 578.978 895.676 577.048C900.973 573.121 925.417 572.852 933.287 571.639Z" fill="#F5F4EE"/>
<path d="M934.327 187.056C937.757 186.909 940.777 186.881 943.467 189.486C945.397 191.361 945.887 193.647 945.827 196.247C945.727 200.587 943.017 203.725 940.137 206.641C937.667 206.608 935.267 206.549 933.017 205.357C930.837 204.202 929.207 202.308 928.777 199.84C927.867 194.675 931.187 190.671 934.327 187.056Z" fill="#F5F4EE"/>
<path d="M866.072 197.184C870.465 195.042 875.766 196.793 878.018 201.132C880.269 205.471 878.65 210.813 874.369 213.172C871.503 214.751 868.006 214.652 865.234 212.914C862.462 211.175 860.851 208.07 861.025 204.803C861.199 201.535 863.131 198.619 866.072 197.184Z" fill="#F5F4EE"/>
<path d="M899.679 192.948C902.682 191.674 906.141 192.136 908.703 194.155C911.267 196.174 912.527 199.428 911.987 202.646C911.457 205.864 909.207 208.534 906.129 209.613C901.575 211.209 896.577 208.904 894.835 204.404C893.093 199.904 895.237 194.834 899.679 192.948Z" fill="#F5F4EE"/>
<path d="M1273.74 966.36C1276.23 966.25 1279.06 966.19 1281.5 966.74C1284.78 967.49 1287.71 970.1 1289.51 972.85C1291.46 975.82 1292.07 978.96 1291.22 982.42C1290.17 986.74 1287.97 988.91 1284.33 991.24L1283.2 991.16C1277.68 990.72 1273.2 989.53 1269.65 984.97C1267.54 982.26 1266.51 979.22 1267.06 975.78C1267.77 971.31 1270.28 968.97 1273.74 966.36Z" fill="#161513"/>
<path d="M1814.36 24.252C1822.09 26.427 1828.08 31.7409 1832.28 38.4749C1845.21 59.1929 1838.18 99.4109 1837.28 122.859C1836.8 138.85 1836.66 154.849 1836.87 170.845C1837.63 223.766 1845.26 276.292 1845.58 329.251C1845.99 395.421 1839.28 461.491 1840.27 527.661C1840.7 556.528 1841.6 585.563 1843.95 614.333C1847.09 652.771 1851.74 691.131 1852.97 729.711C1854.77 785.911 1849 841.701 1849.15 897.831C1849.34 918.501 1850.04 939.161 1851.24 959.791C1852 974.621 1853.38 989.671 1852.2 1004.5C1851.03 1019.2 1847.4 1033.78 1844.11 1048.12C1841.9 1050.41 1839.19 1052.31 1836.68 1054.28C1832.72 1057.47 1826.42 1060 1821.88 1062.6C1830.79 1040.89 1834.1 1018.38 1834.68 995.021C1835.31 969.301 1831.72 943.461 1831.55 917.691C1831.28 880.011 1833.74 842.431 1832.75 804.711C1831.87 771.071 1828.99 737.641 1827.41 704.051C1825.82 670.159 1825.47 636.184 1824.4 602.271C1823.45 572.021 1821.69 541.747 1821.19 511.491C1820.01 441.154 1826.47 370.979 1826.95 300.651C1827 260.896 1826.02 221.147 1824.02 181.443C1822.59 156.89 1819.89 132.391 1818.78 107.823C1817.53 80.242 1823.63 50.751 1814.36 24.252Z" fill="#F5F4EE"/>
<path d="M378.362 419.675C381.27 411.521 429.366 290.236 444.831 331.605C450.425 342.077 454.987 339.051 458.799 351.952C469.9 380.076 478.273 409.713 489.048 436.632L489.88 437.463C494.576 436.546 495.219 435.861 497.594 432.098C498.892 435.964 501.34 443.223 505.3 444.626C515.115 448.105 549.59 458.399 558.342 457.357C563.135 462.225 587.355 470.417 598.18 480.919C615.935 498.146 618.67 508.485 631.047 528.226C644 548.883 681.542 558.015 703.616 565.056C706.881 566.097 725.055 571.506 728.085 571.851C733.078 572.461 741.787 574.097 746.042 574.441C760.681 582.644 756.091 596.025 747.67 607.779C734.715 625.862 713.535 645.102 693.973 655.877C656.853 674.275 600.074 668.719 582.227 712.791C565.423 754.281 597.945 814.141 588.315 845.051C592.75 862.201 590.943 869.521 589.495 886.141C586.899 915.921 577.705 937.431 568.218 965.091C554.32 1005.6 554.49 1049.48 554.491 1091.79C554.535 1103.65 556.348 1115.59 555.691 1127.68C557.091 1134.94 557.374 1144.01 557.584 1151.56C558.381 1180.19 562.485 1208.78 563.581 1237.34C578.331 1240.5 592.063 1244.97 606.46 1249.4C623.736 1254.73 641.272 1259.27 657.657 1267.09C700.332 1291.71 737.057 1326.76 765.505 1366.84C769.048 1372.15 773.974 1381.43 771.851 1387.97C768.921 1396.99 755.006 1393.72 747.91 1393.6C697.264 1392.76 651.528 1427.7 606.869 1447.55C578.515 1460.16 552.939 1477.64 521.346 1480.71C501.132 1485.99 479.749 1495.32 458.982 1499.15C377.017 1514.28 283.673 1523.18 202.544 1501.2C174.066 1493.19 146.091 1480.95 118.966 1469.64C61.0042 1445.46 14.1622 1404.34 2.19377 1340.15C-6.68903 1292.5 12.3712 1242.32 41.9082 1204.88C49.0912 1195.78 65.6632 1186.1 72.8942 1176.32C75.1332 1167.63 68.7702 1124.9 68.2212 1114.35C67.8192 1104.84 67.9412 1095.32 68.5872 1085.82C70.2572 1059.36 78.9192 1036.14 85.3882 1010.57C93.1652 979.821 100.107 947.251 112.539 917.851C136.907 860.211 187.916 817.151 235.528 778.361C268.686 753.001 305.304 725.201 323.698 686.645C335.422 661.984 333.743 634.114 336.9 608.467C339.308 588.906 348.626 530.961 365.342 521.901C365.301 484.074 363.33 471.103 373.63 434.06L378.362 419.675Z" fill="#F03906"/>
<path d="M728.085 571.851C733.078 572.461 741.787 574.097 746.042 574.441C760.681 582.644 756.091 596.025 747.67 607.779C734.715 625.862 713.535 645.102 693.973 655.877C656.853 674.275 600.074 668.719 582.227 712.791C565.423 754.281 597.945 814.141 588.315 845.051C583.897 844.141 584.079 844.231 580.259 841.841C579.028 854.981 575.515 857.231 573.281 868.911C569.798 887.121 570.896 909.901 564.517 927.461C561.629 935.401 554.182 945.611 550.699 953.991C549.267 957.431 544.088 973.171 542.703 975.051C535.357 981.911 511.76 1028.5 506.27 1040.58C501.656 1048.61 495.73 1057.29 491.581 1064.96C490.463 1061.37 490.838 1057.83 490.934 1054.06C491.76 1045.19 498.797 993.371 496.021 988.391C491.857 990.841 489.767 1000.46 488.513 1005.12C486.619 1001.78 485.457 989.471 484.772 984.851C481.56 963.181 476.837 941.701 474.58 919.911C473.48 909.281 472.871 902.291 468.291 892.591C464.812 889.891 461.275 887.441 457.68 884.901C453.622 886.771 445.622 892.951 441.782 891.921C432.571 880.261 445.514 824.801 430.47 816.451C424.616 817.421 406.736 824.711 404.308 823.931C396.947 817.081 401.224 804.811 403.81 796.281C411.041 772.421 423.657 749.131 438.246 728.921C448.532 714.671 459.901 701.811 468.896 686.553C472.113 676.258 473.914 663.362 459.127 664.365C443.017 665.458 428.475 669.41 411.717 669.791C420.795 660.886 432.989 650.605 443.881 644.326C450.16 640.708 455.417 638.835 461.778 634.72L462.746 634.082C464.572 631.334 464.551 631.569 464.427 628.287C456.802 625.193 451.539 624.329 443.57 623.181L441.005 621.745C443.201 618.589 464.158 608.97 468.598 607.323C484.908 601.129 503.628 597.396 520.523 593.798C562.702 584.815 601.498 602.513 641.715 607.446C659.05 609.572 696.562 600.022 715.339 596.046L714.938 593.533C712.41 580.175 716.07 576.594 728.085 571.851Z" fill="#F5F4EE"/>
<path d="M728.085 571.851C733.078 572.461 741.787 574.097 746.042 574.441C760.681 582.644 756.091 596.025 747.67 607.779C734.715 625.862 713.535 645.102 693.973 655.877C656.853 674.275 600.074 668.719 582.227 712.791C565.423 754.281 597.945 814.141 588.315 845.051C583.897 844.141 584.079 844.231 580.259 841.841C577.146 832.621 574.157 816.371 571.819 806.271C563.443 770.081 555.437 738.961 571.706 703.581C590.122 663.536 651.102 658.38 691.475 644.476C664.618 644.158 637.347 640.256 610.368 640.958C605.127 641.095 601.119 642.347 595.842 641.587L594.602 639.83L595.291 637.886C613.709 623.659 672.262 634.948 695.688 630.753C712.606 627.723 716.976 624.158 729.055 612.771C721.709 606.281 719.768 604.351 715.339 596.046L714.938 593.533C712.41 580.175 716.07 576.594 728.085 571.851Z" fill="#161513"/>
<path d="M728.085 571.851C733.078 572.461 741.787 574.097 746.042 574.441C736.289 592.415 716.473 565.79 714.938 593.533C712.41 580.175 716.07 576.594 728.085 571.851Z" fill="#1A110E"/>
<path d="M464.427 628.287C467.379 630.58 466.482 629.17 467.572 632.402C466.532 636.586 464.578 638.817 460.782 640.925C443.772 650.371 432.558 651.959 419.161 667.448C434.815 664.995 449.294 658.95 460.631 657.429C467.746 660.646 471.246 662.21 474.334 669.893C476.578 675.476 474.173 683.731 468.896 686.553C472.113 676.258 473.914 663.362 459.127 664.365C443.017 665.458 428.475 669.41 411.717 669.791C420.795 660.886 432.989 650.605 443.881 644.326C450.16 640.708 455.417 638.835 461.778 634.72L462.746 634.082C464.572 631.334 464.551 631.569 464.427 628.287Z" fill="#F9EFE6"/>
<path d="M580.259 841.841C584.079 844.231 583.897 844.141 588.315 845.051C592.75 862.201 590.943 869.521 589.495 886.141C586.899 915.921 577.705 937.431 568.218 965.091C554.32 1005.6 554.49 1049.48 554.491 1091.79C554.535 1103.65 556.348 1115.59 555.691 1127.68C557.091 1134.94 557.374 1144.01 557.584 1151.56C558.381 1180.19 562.485 1208.78 563.581 1237.34C578.331 1240.5 592.063 1244.97 606.46 1249.4C623.736 1254.73 641.272 1259.27 657.657 1267.09C700.332 1291.71 737.057 1326.76 765.505 1366.84C769.048 1372.15 773.974 1381.43 771.851 1387.97C768.921 1396.99 755.006 1393.72 747.91 1393.6C697.264 1392.76 651.528 1427.7 606.869 1447.55C578.515 1460.16 552.939 1477.64 521.346 1480.71C517.522 1480.25 516.754 1479.73 513.859 1477.14C511.364 1466.85 529.945 1460.54 537.197 1458.24C558.188 1452.42 571.145 1444.37 590.906 1435.74C636.355 1415.88 681.104 1383.12 731.176 1377.52C735.708 1377.01 747.332 1378.12 750.172 1376.25L749.562 1374.54C746.962 1368.81 737.945 1359.49 733.341 1354.43C720.393 1334.4 668.208 1291.51 645.298 1280.78C635.605 1276.24 605.289 1268.4 593.07 1264.97L593.277 1264.4L592.48 1262.25C548.77 1234.67 444.215 1251.86 397.352 1265.56C339.728 1282.4 281.186 1311.48 219.534 1305.04C205.108 1303.54 176.793 1299.46 167.192 1287.86C170.659 1284.93 197.723 1296.74 206.155 1297.62C251.014 1302.33 292.37 1289.51 334.816 1276.74C336.844 1276.48 350.997 1270.37 351.322 1268.98C355.083 1252.92 364.748 1240.52 370.209 1226.03C379.816 1200.55 387.594 1175.25 386.671 1147.87C385.86 1123.83 373.266 1099.75 360.328 1080.1C350.352 1070.65 338.63 1057.24 327.626 1049.24C318.436 1042.57 313.487 1041.45 303.902 1033.55L304.571 1033.31C320.367 1040.81 346.168 1055.48 358.908 1067.14C369.104 1076.48 384.163 1102.84 388.8 1116.41C391.109 1123.17 392.72 1134.25 398.139 1138.76L398.177 1136.61C400.455 1134.04 406.89 1125.52 408.716 1124.45L417.1 1151.62C419.463 1148.23 420.758 1145.57 424.329 1143.79C431.376 1144.96 429.022 1156.77 435.599 1158.2L440.249 1171.37C443.017 1174.19 442.707 1174.88 445.846 1175.4L450.576 1171.96C456.058 1161.93 458.249 1155.44 468.251 1149.84C471.348 1150.56 474.466 1151.19 477.602 1151.71C478.806 1142.82 477.556 1120.22 477.461 1110.31C477.138 1076.54 479.711 1049.79 485.815 1016.43L488.513 1005.12C489.767 1000.46 491.857 990.841 496.021 988.391C498.797 993.371 491.76 1045.19 490.934 1054.06C490.838 1057.83 490.463 1061.37 491.581 1064.96C495.73 1057.29 501.656 1048.61 506.27 1040.58C511.76 1028.5 535.357 981.911 542.703 975.051C544.088 973.171 549.267 957.431 550.699 953.991C554.182 945.611 561.629 935.401 564.517 927.461C570.896 909.901 569.798 887.121 573.281 868.911C575.515 857.231 579.028 854.981 580.259 841.841Z" fill="#161513"/>
<path d="M580.259 841.841C584.079 844.231 583.897 844.141 588.315 845.051C592.75 862.201 590.943 869.521 589.495 886.141C586.899 915.921 577.705 937.431 568.218 965.091C554.32 1005.6 554.49 1049.48 554.491 1091.79C554.535 1103.65 556.348 1115.59 555.691 1127.68C540.223 1109.37 531.36 1146.65 529.273 1156.18C522.626 1186.54 519.454 1203.71 529.298 1233.78C524.254 1233.77 513.575 1234.02 509.011 1233.48C504.886 1233.62 503.92 1233.83 500.021 1232.8C495.133 1225.67 490.022 1131.25 489.55 1118.29C489.093 1113.55 489.242 1105.33 489.183 1100.31C488.653 1092.52 489.573 1061.41 490.934 1054.06C490.838 1057.83 490.463 1061.37 491.581 1064.96C495.73 1057.29 501.656 1048.61 506.27 1040.58C511.76 1028.5 535.357 981.911 542.703 975.051C544.088 973.171 549.267 957.431 550.699 953.991C554.182 945.611 561.629 935.401 564.517 927.461C570.896 909.901 569.798 887.121 573.281 868.911C575.515 857.231 579.028 854.981 580.259 841.841Z" fill="#c72707"/>
<path d="M489.55 1118.29C492.986 1121.32 494.446 1122.29 495.562 1126.92C500.19 1146.11 500.873 1166.44 503.887 1185.89C506.164 1200.57 512.204 1215.07 514.835 1229.6C515.148 1231.33 515.158 1231.43 515.88 1233.12L509.011 1233.48C504.886 1233.62 503.92 1233.83 500.021 1232.8C495.133 1225.67 490.022 1131.25 489.55 1118.29Z" fill="#F5F4EE"/>
<path d="M542.703 975.051C546.921 980.031 545.476 983.521 542.96 989.361C538.737 999.171 518.591 1041.98 510.105 1044.85C507.624 1043.71 507.696 1043.06 506.27 1040.58C511.76 1028.5 535.357 981.911 542.703 975.051Z" fill="#1A110E"/>
<path d="M489.183 1100.31L490.706 1081.08L502.283 1149.14C507.536 1181.06 509.056 1200.81 520.42 1231.74L519.5 1232.96L515.88 1233.12C515.158 1231.43 515.148 1231.33 514.835 1229.6C512.204 1215.07 506.164 1200.57 503.887 1185.89C500.873 1166.44 500.19 1146.11 495.562 1126.92C494.446 1122.29 492.986 1121.32 489.55 1118.29C489.093 1113.55 489.242 1105.33 489.183 1100.31Z" fill="#F9EFE6"/>
<path d="M583.256 854.081C591.152 865.951 583.248 908.221 579.232 922.271C575.074 936.811 569.097 950.821 564.793 965.331C560.046 981.321 554.97 999.061 552.624 1015.52C548.828 1042.16 550.088 1090.37 551.427 1117.66C549.309 1118.31 547.219 1119.05 545.161 1119.87C541.326 1121.39 537.226 1123.39 534.839 1126.93C528.616 1136.15 516.969 1190.19 517.336 1201.97C517.529 1208.16 523.138 1216.02 520.63 1221.93L519.339 1221.5L516.24 1213.83L516.404 1213.24C515.857 1211.3 515.346 1209.57 515.333 1207.54C515.268 1197.41 511.866 1187.25 510.061 1177.29C507.819 1164.93 506.885 1152.31 504.818 1139.9C501.35 1119.07 493.809 1093.59 495.373 1072.63C497.129 1049.1 511.651 1052.51 520.345 1040.88C526.801 1032.24 535.736 1014.57 540.576 1004.4C546.642 991.661 545.228 977.941 549.591 965.041C554.472 950.601 565.576 939.751 569.127 924.651C574.614 901.321 572.597 875.701 583.256 854.081Z" fill="#F03906"/>
<path d="M398.177 1136.61C400.455 1134.04 406.89 1125.52 408.716 1124.45L417.1 1151.62C427.26 1181.9 434.815 1209.2 443.249 1239.8C413.306 1247.97 396.445 1249.61 365.707 1261.23C384.79 1228.22 407.528 1177.72 398.139 1138.76L398.177 1136.61Z" fill="#F5F4EE"/>
<path d="M440.249 1171.37C443.017 1174.19 442.707 1174.88 445.846 1175.4L450.576 1171.96C448.498 1176.92 446.663 1182.32 444.825 1187.4L440.249 1171.37Z" fill="#c72707"/>
<path d="M593.07 1264.97C605.289 1268.4 635.605 1276.24 645.298 1280.78C668.208 1291.51 720.393 1334.4 733.341 1354.43C737.945 1359.49 746.962 1368.81 749.562 1374.54L750.172 1376.25C747.332 1378.12 735.708 1377.01 731.176 1377.52C681.104 1383.12 636.355 1415.88 590.906 1435.74C571.145 1444.37 558.188 1452.42 537.197 1458.24C530.546 1458.55 520.393 1460.3 516.096 1454.27C514.349 1444.7 533.243 1431.8 538.682 1423.09C540.228 1420.56 540.617 1418.72 540.437 1415.87C534.945 1409.66 525.057 1416.93 517.439 1413.43L516.969 1410.41C520.995 1398.48 540.66 1387.96 541.888 1376.28C536.27 1361.16 486.675 1374.39 465.632 1360.68L464.522 1359.94C464.419 1357.58 464.039 1352.73 465.208 1350.9C477.802 1331.24 542.921 1327.75 552.233 1315.23C554.385 1300.75 512.926 1297.47 509.073 1288.84C505.101 1286.94 505.346 1287.81 503.426 1284.66C505.861 1279.62 517.356 1277.4 523.705 1274.89C533.624 1272.29 545.66 1266.47 554.821 1265.63C569.113 1264.31 578.298 1268.1 593.07 1264.97Z" fill="#F5F4EE"/>
<path d="M509.073 1288.84C517.209 1290.78 562.864 1304 558.48 1314.89C551.953 1331.09 465.135 1337 468.326 1356.36C471.035 1359.86 473.732 1360.36 478.067 1360.96C498.065 1363.73 520.58 1362.63 540.006 1366.91C542.765 1369.4 546.47 1372.07 547.56 1375.44C545.74 1382.94 523.423 1406.69 516.969 1410.41C520.995 1398.48 540.66 1387.96 541.888 1376.28C536.27 1361.16 486.675 1374.39 465.632 1360.68L464.522 1359.94C464.419 1357.58 464.039 1352.73 465.208 1350.9C477.802 1331.24 542.921 1327.75 552.233 1315.23C554.385 1300.75 512.926 1297.47 509.073 1288.84Z" fill="#c72707"/>
<path d="M733.341 1354.43C737.945 1359.49 746.962 1368.81 749.562 1374.54C736.825 1364.8 736.527 1377.33 733.341 1354.43Z" fill="#F9EFE6"/>
<path d="M378.362 419.675C381.27 411.521 429.366 290.236 444.831 331.605C450.425 342.077 454.987 339.051 458.799 351.952C469.9 380.076 478.273 409.713 489.048 436.632L489.88 437.463C494.576 436.546 495.219 435.861 497.594 432.098C498.892 435.964 501.34 443.223 505.3 444.626C515.115 448.105 549.59 458.399 558.342 457.357C563.135 462.225 587.355 470.417 598.18 480.919C615.935 498.146 618.67 508.485 631.047 528.226C644 548.883 681.542 558.015 703.616 565.056C706.881 566.097 725.055 571.506 728.085 571.851C716.07 576.594 712.41 580.175 714.938 593.533L715.339 596.046C696.562 600.022 659.05 609.572 641.715 607.446C601.498 602.513 562.702 584.815 520.523 593.798C503.628 597.396 484.908 601.129 468.598 607.323C464.158 608.97 443.201 618.589 441.005 621.745L443.57 623.181C426.806 622.174 419.066 626.254 404.256 633.606C411.219 618.493 419.288 608.026 428.816 594.404C427.624 606.855 411.446 619.859 412.362 624.279C421.187 622.012 428.786 617.41 439.979 616.42C441.827 616.256 459.152 605.119 463.421 603.742C509.38 588.916 551.814 580.765 599.603 594.752C620.298 600.809 641.461 605.782 663.15 601.596C670.786 599.962 707.865 595.995 710.295 590.233C720.048 567.109 700.454 569.099 690.979 565.661C665.836 556.539 638.072 550.48 624.545 525.942C613.633 505.526 603.41 487.909 583.301 476.079C564.064 461.963 509.78 455.646 499.531 444.035C497.022 444.897 497.114 444.87 494.969 446.445C493.035 451.431 492.696 451.531 489.203 455.576C470.743 462.366 458.25 391.296 454.397 379.008C451.077 368.419 446.818 356.948 444.006 346.365C444.175 354.703 436.391 363.537 434.505 372.042C432.612 380.578 430.583 388.65 427.762 397.025C419.446 421.715 419.86 450.969 419.475 476.875C419.245 492.318 428.649 510.391 420.126 525.698C414.807 529.181 406.519 518.34 404.2 514.126C398.226 503.271 399.839 488.512 394.141 477.455C390.482 471.106 374.524 466.254 373.954 455.117L373.25 455.267C373.058 462.512 370.541 467.935 370.009 474.582C368.576 492.506 373.413 514.427 366.511 531.193C365.912 532.497 359.67 533.848 358.547 536.774C351.954 553.939 344.61 585.387 342.468 602.947C336.775 649.615 340.526 680.432 308.325 717.621C292.469 735.931 280.676 749.341 260.166 764.021C239.447 778.841 221.063 796.911 202.051 812.461C172.744 836.431 140.505 869.091 123.549 903.341C111.183 928.321 97.2852 976.351 91.1692 1004.17C86.3382 1026.14 78.4222 1050.25 74.7982 1071.91C73.1112 1081.99 72.8142 1107.1 72.7272 1118.03C72.5502 1140.36 82.8852 1158.6 75.2832 1181.03C46.0722 1202.97 21.5512 1237.09 12.2662 1271.83C11.2972 1276.44 5.40036 1289.84 5.60356 1293.86C6.09396 1303.55 2.70826 1316.73 3.78366 1325.51C9.71176 1373.86 35.4192 1417.51 77.2052 1443.21C115.741 1466.91 159.453 1482.91 202.086 1497.46C210.601 1500.3 251.677 1508.14 258.871 1508.57C328.273 1512.7 438.637 1507.73 502.417 1482.25C504.053 1479.82 504.119 1476.51 504.732 1475.66C507.354 1472.03 513.077 1468.01 516.49 1464.95C517.481 1464.06 514.587 1458.5 514.049 1457.73L512.693 1456.96L511.95 1458.26C511.255 1451.5 512.614 1448.16 516.72 1442.56C519.657 1438.56 534.869 1424.83 538.682 1423.09C533.243 1431.8 514.349 1444.7 516.096 1454.27C520.393 1460.3 530.546 1458.55 537.197 1458.24C529.945 1460.54 511.364 1466.85 513.859 1477.14C516.754 1479.73 517.522 1480.25 521.346 1480.71C501.132 1485.99 479.749 1495.32 458.982 1499.15C377.017 1514.28 283.673 1523.18 202.544 1501.2C174.066 1493.19 146.091 1480.95 118.966 1469.64C61.0042 1445.46 14.1622 1404.34 2.19377 1340.15C-6.68903 1292.5 12.3712 1242.32 41.9082 1204.88C49.0912 1195.78 65.6632 1186.1 72.8942 1176.32C75.1332 1167.63 68.7702 1124.9 68.2212 1114.35C67.8192 1104.84 67.9412 1095.32 68.5872 1085.82C70.2572 1059.36 78.9192 1036.14 85.3882 1010.57C93.1652 979.821 100.107 947.251 112.539 917.851C136.907 860.211 187.916 817.151 235.528 778.361C268.686 753.001 305.304 725.201 323.698 686.645C335.422 661.984 333.743 634.114 336.9 608.467C339.308 588.906 348.626 530.961 365.342 521.901C365.301 484.074 363.33 471.103 373.63 434.06L378.362 419.675Z" fill="#c72707"/>
<path d="M378.362 419.675C381.27 411.521 429.366 290.236 444.831 331.605L444.437 333.297C421.111 375.659 411.801 440.649 415.323 488.432C415.978 497.322 421.048 515.749 417.428 523.168C405.224 522.567 400.15 480.759 398.986 471.926C386.351 470.112 380.637 464.322 378.21 451.466C376.715 447.426 374.734 438.534 373.63 434.06L378.362 419.675Z" fill="#171513"/>
<path d="M378.362 419.675C379.314 422.081 379.674 423.127 380.929 425.437C381.148 433.923 377.92 439.21 378.21 451.466C376.715 447.426 374.734 438.534 373.63 434.06L378.362 419.675Z" fill="#1A110E"/>
<path d="M458.799 351.952C469.9 380.076 478.273 409.713 489.048 436.632C486.769 439.43 486.545 443.01 485.544 446.579L483.9 446.682C474.577 440.281 466.121 384.406 459.496 371.29C458.317 368.956 458.994 356.495 458.799 351.952Z" fill="#1B130F"/>
<path d="M444.831 331.604C450.425 342.076 454.987 339.05 458.799 351.951C458.994 356.494 458.317 368.955 459.496 371.289C466.121 384.405 474.577 440.28 483.9 446.681L485.544 446.578C486.545 443.009 486.769 439.429 489.048 436.631L489.88 437.462C490.583 442.674 491.449 446.573 488.747 451.172C485.87 452.67 487.366 452.434 484.09 451.778C477.147 446.8 475.016 437.333 472.45 429.624C462.398 399.427 456.488 364.312 445.041 334.833L444.437 333.296L444.831 331.604Z" fill="#270805"/>
<path d="M468.251 1149.84C469.637 1149.21 472.096 1147.46 473.473 1146.55C476.46 1141.78 474.346 1117.49 473.759 1110.68C470.703 1075.23 480.282 1040.2 479.385 1005.29C479.013 990.821 474.65 973.181 472.289 958.821C470.557 948.291 466.782 937.261 465.199 926.591C464.173 920.261 464.828 907.621 464.389 900.011C455.994 891.831 448.956 904.481 439.359 902.041C424.064 892.041 431.67 844.121 427.035 824.751C420.769 819.601 408.56 829.281 402.684 826.261C391.623 820.571 397.892 801.101 401.538 790.311C408.695 769.141 419.472 750.411 431.661 731.461C439.206 719.731 473.747 684.029 466.221 671.031C454.378 663.009 424.7 680.616 411.551 671.122C407.814 658.511 442.975 642.409 444.12 638.581C422.212 637.431 413.364 648.874 399.277 648.905L399.503 648.788C371.805 643.599 413.884 588.795 425.57 588.823L428.359 589.389C429.286 592.272 429.028 591.199 428.816 594.404C419.288 608.026 411.219 618.493 404.256 633.606C419.066 626.254 426.806 622.174 443.57 623.181C451.539 624.329 456.802 625.193 464.427 628.287C464.551 631.569 464.572 631.334 462.746 634.082L461.778 634.72C455.417 638.835 450.16 640.708 443.881 644.326C432.989 650.605 420.795 660.886 411.717 669.791C428.475 669.41 443.017 665.458 459.127 664.365C473.914 663.362 472.113 676.258 468.896 686.553C459.901 701.811 448.532 714.671 438.246 728.921C423.657 749.131 411.041 772.421 403.81 796.281C401.224 804.811 396.947 817.081 404.308 823.931C406.736 824.711 424.616 817.421 430.47 816.451C445.514 824.801 432.571 880.261 441.782 891.921C445.622 892.951 453.622 886.771 457.68 884.901C461.275 887.441 464.812 889.891 468.291 892.591C472.871 902.291 473.48 909.281 474.58 919.911C476.837 941.701 481.56 963.181 484.772 984.851C485.457 989.471 486.619 1001.78 488.513 1005.12L485.815 1016.43C479.711 1049.79 477.138 1076.54 477.461 1110.31C477.556 1120.22 478.806 1142.82 477.602 1151.71C474.466 1151.19 471.348 1150.56 468.251 1149.84Z" fill="#c72707"/>
<path d="M425.57 588.823L428.359 589.389C429.286 592.272 429.028 591.199 428.816 594.404C419.288 608.026 411.219 618.493 404.256 633.606C419.066 626.254 426.806 622.174 443.57 623.181C451.539 624.329 456.802 625.193 464.427 628.287C464.551 631.569 464.572 631.334 462.746 634.082C449.159 634.693 435.215 633.426 421.904 636.34C413.157 638.255 403.982 648.268 395.069 644.333C386.339 631.763 416.233 597.397 425.57 588.823Z" fill="#270805"/>
<path d="M430.47 816.451C445.514 824.801 432.571 880.261 441.782 891.921C445.622 892.951 453.622 886.771 457.68 884.901C461.275 887.441 464.812 889.891 468.291 892.591C472.871 902.291 473.48 909.281 474.58 919.911C476.837 941.701 481.56 963.181 484.772 984.851C485.457 989.471 486.619 1001.78 488.513 1005.12L485.815 1016.43C484.03 1010.19 483.712 1004.95 482.739 998.391C477.828 965.321 472.988 932.071 467.83 899.071C467.35 896.001 464.221 891.741 461.219 890.601C453.144 887.541 446.335 899.391 439.325 896.971C431.193 880.731 439.447 842.801 430.47 816.451Z" fill="#F9EFE6"/>
<path d="M293.946 1026.51C308.584 1025.34 343.523 1049.81 354.802 1059.24C372.703 1074.22 379.721 1087.49 389.767 1107.91C393.545 1118.3 395.98 1125.72 398.177 1136.61L398.139 1138.76C392.72 1134.25 391.109 1123.17 388.8 1116.41C384.163 1102.84 369.104 1076.48 358.908 1067.14C346.168 1055.48 320.367 1040.81 304.571 1033.31L303.902 1033.55C313.487 1041.45 318.436 1042.57 327.626 1049.24C338.63 1057.24 350.352 1070.65 360.328 1080.1C373.266 1099.75 385.86 1123.83 386.671 1147.87C387.594 1175.25 379.816 1200.55 370.209 1226.03C364.748 1240.52 355.083 1252.92 351.322 1268.98C350.997 1270.37 336.844 1276.48 334.816 1276.74C292.37 1289.51 251.014 1302.33 206.155 1297.62C197.723 1296.74 170.659 1284.93 167.192 1287.86C176.793 1299.46 205.108 1303.54 219.534 1305.04C281.186 1311.48 339.728 1282.4 397.352 1265.56C444.215 1251.86 548.77 1234.67 592.48 1262.25L593.277 1264.4C583.236 1262.88 573.52 1257.25 563.706 1255.49C521.753 1247.95 479.193 1252.78 437.703 1259.91C352.322 1274.59 267.973 1333.57 179.757 1300.7C166.743 1295.85 125.328 1268.61 133.347 1252.84C135.167 1252.7 135.756 1252.77 137.19 1254.28C147.602 1265.28 156.166 1275.26 170.283 1281.98C229.658 1310.25 292.059 1286.16 349.834 1267C349.823 1260.54 350.541 1255.39 353.631 1249.69C374.106 1212.1 391.979 1166.45 378.394 1123.81C364.086 1078.91 333.947 1058.67 296.873 1034.44C293.882 1032.48 294.171 1029.69 293.946 1026.51Z" fill="#270805"/>
<path d="M344.049 1264.98C349.877 1244.41 350.677 1247.15 360.913 1229.46C368.123 1216.1 372.598 1196.94 375.921 1183.05C390.927 1120.29 352.11 1068.26 298.358 1040.51C293.958 1038.24 289.277 1031.87 293.946 1026.51C294.171 1029.69 293.882 1032.48 296.873 1034.44C333.947 1058.67 364.086 1078.91 378.394 1123.81C391.979 1166.45 374.106 1212.1 353.631 1249.69C350.541 1255.39 349.823 1260.54 349.834 1267C292.059 1286.16 229.658 1310.25 170.283 1281.98C156.166 1275.26 147.602 1265.28 137.19 1254.28C135.756 1252.77 135.167 1252.7 133.347 1252.84C125.328 1268.61 166.743 1295.85 179.757 1300.7C267.973 1333.57 352.322 1274.59 437.703 1259.91C479.193 1252.78 521.753 1247.95 563.706 1255.49C573.52 1257.25 583.236 1262.88 593.277 1264.4L593.07 1264.97C578.298 1268.1 569.113 1264.31 554.821 1265.63C545.66 1266.47 533.624 1272.29 523.705 1274.89C527.59 1270.05 537.999 1268.2 540.257 1266.4C547.931 1260.29 576.206 1264.9 579.823 1262.97C578.561 1262.79 576.847 1262.58 575.745 1262.01C564.977 1256.46 555.323 1259.75 543.325 1257.88C513.494 1253.24 483.885 1258.37 454.539 1263.42C435.691 1266.66 414.799 1268.86 395.945 1274.45C382.442 1278.46 368.47 1283.1 355.076 1287.7C347.121 1290.42 337.269 1295.45 329.523 1297.68C289.569 1309.19 246.19 1318.28 204.697 1311.1C181.783 1307.47 162.264 1300.26 145.881 1283.23C138.818 1275.89 126.51 1266.98 129.413 1254.32C130.018 1251.68 131.381 1250.99 133.485 1249.8C135.04 1249.85 138.248 1250.16 139.294 1251.5C188.182 1313.86 281.608 1288.83 344.049 1264.98Z" fill="#c72707"/>
<path d="M394.272 1012.07C397.542 1013.96 398.055 1013.81 399.094 1017.7C401.031 1024.96 401.487 1032.6 402.687 1039.94C407.31 1068.26 415.648 1095.04 424.972 1122.08C428.976 1133.69 431.739 1146.34 435.599 1158.2C429.022 1156.77 431.376 1144.96 424.329 1143.79C420.758 1145.57 419.463 1148.23 417.1 1151.62L408.716 1124.45C402.088 1097.47 386.546 1038.55 394.272 1012.07Z" fill="#1A110E"/>
<path d="M389.767 1107.91C397.695 1112.07 395.004 1122.9 399.675 1127.99C402.714 1127.31 402.591 1126.88 404.735 1124.45L403.964 1124.11C402.802 1126.37 403.312 1126 401.562 1127.6C401.349 1126.59 400.854 1112.02 400.742 1109.39C399.966 1091.25 376.292 1022.3 394.272 1012.07C386.546 1038.55 402.088 1097.47 408.716 1124.45C406.89 1125.52 400.455 1134.04 398.177 1136.61C395.98 1125.72 393.545 1118.3 389.767 1107.91Z" fill="#c72707"/>
<path d="M443.934 395.42C446.265 396.33 448.393 397.162 450.165 399.006C455.958 405.035 453.744 416.303 455.167 423.838C458.157 439.657 467.019 453.489 464.75 470.256C462.091 489.91 451.087 479.715 442.795 487.177C442.373 487.557 441.982 487.97 441.576 488.366C437.713 489.558 434.552 490.492 430.829 488.307C426.006 485.475 423.872 477.864 422.891 472.811C419.25 454.053 421.772 415.472 433.223 399.604C435.982 395.78 439.533 396.188 443.934 395.42Z" fill="#c72707"/>
<path d="M440.024 397.801C442.626 398.189 444.458 398.546 446.153 400.755C452.322 408.795 448.725 423.123 451.465 432.613C453.841 440.84 459.265 447.832 460.91 456.422C461.789 461.005 461.652 465.725 460.51 470.25C459.694 473.523 458.663 477.35 455.622 479.163C452.028 479.386 448.623 476.551 445.562 474.837L444.239 476.291C442.594 479.525 441.235 482.874 438.355 485.207C435.703 485.845 435.702 485.688 433.244 484.444C427.121 476.043 427.105 462.858 427.134 452.786C427.179 437.316 428.427 409.288 440.024 397.801Z" fill="#1A110E"/>
<path d="M65.2132 1399.44C56.9342 1394.13 27.9582 1338.99 37.9312 1331.1C41.1562 1332.53 40.4892 1332.75 42.8322 1336.29L44.3562 1336.14C45.9182 1339.49 51.3642 1353.6 52.3402 1355.14C60.7372 1367.03 72.0032 1388.32 82.2292 1398.07C95.1862 1410.43 119.248 1420.11 134.435 1430.31C140.539 1434.41 153.037 1435.62 157.161 1441.7C161.213 1443.99 168.398 1447.01 166.627 1452.35C155.788 1458.39 127.886 1446.19 117.618 1441.04C97.9082 1431.16 77.6212 1418.16 65.2132 1399.44Z" fill="#1A110E"/>
<path d="M42.832 1336.29L44.356 1336.14C45.918 1339.49 51.364 1353.6 52.34 1355.14C60.737 1367.03 72.003 1388.32 82.229 1398.07C95.186 1410.43 119.248 1420.11 134.435 1430.31C140.539 1434.41 153.037 1435.62 157.161 1441.7C132.806 1432.64 105.618 1423.46 86.67 1404.96C83.588 1401.96 80.192 1398.91 76.886 1396.17C65.369 1381.72 45.573 1354.8 42.832 1336.29Z" fill="#c72707"/>
<path d="M593.587 554.606C593.427 563.244 569.283 562.512 564.42 560.314C555.565 556.311 526.444 548.546 520.528 543.182C520.84 541.882 520.532 541.978 521.541 541.43C546.428 527.909 573.818 515.439 596.917 540.014C601.547 544.94 610.924 549.148 608.281 556.74C603.215 559.499 597.169 556.235 593.546 552.526L593.587 554.606Z" fill="#270805"/>
<path d="M561.418 531.017C570.969 529.092 586.324 531.824 588.577 542.869L587.689 546.048L588.107 546.724C587.388 549.252 585.753 552.025 587.7 554.063C578.212 559.208 562.861 558.343 554.777 551.078C555.172 547.27 555.433 540.824 553.838 537.306L553.821 536.225C555.399 533.249 558.209 532.519 561.418 531.017Z" fill="#161513"/>
<path d="M553.838 537.306C555.433 540.824 555.172 547.27 554.777 551.078C551.141 549.358 541.241 546.376 539.721 544.953L541.206 543.333C546.955 541.15 548.521 540.497 553.838 537.306Z" fill="#F9EFE6"/>
<path d="M541.206 543.333L539.49 540.751C542.534 533.465 554.278 530.293 561.418 531.017C558.209 532.519 555.399 533.249 553.821 536.225L553.838 537.306C548.521 540.497 546.955 541.15 541.206 543.333Z" fill="#1A110E"/>
<path d="M588.107 546.724L593.546 552.526L593.587 554.606L587.7 554.063C585.753 552.025 587.388 549.252 588.107 546.724Z" fill="#F9EFE6"/>
<path d="M249.755 1460.82C261.334 1460.27 272.542 1461.71 284.06 1461.71C295.441 1461.71 327.521 1458.03 335.335 1465.33C336.984 1466.87 337.954 1468.52 337.702 1470.81C337.322 1474.27 334.94 1476.42 332.599 1478.73C331.312 1479.18 330.02 1479.6 328.729 1480.05C327.918 1480.32 327.114 1480.63 326.293 1480.87C308.794 1486.05 268.168 1481.2 252.608 1471.73C249.766 1470 248.267 1468.49 247.519 1465.26C248.333 1464.07 249.064 1463.06 249.521 1461.67C249.613 1461.39 249.677 1461.11 249.755 1460.82Z" fill="#c72707"/>
<path d="M322.606 1465.45C328.139 1466.1 330.494 1466.38 335.504 1468.72L336.26 1471.52C322.726 1483.63 254.921 1477.16 250.511 1465.67C254.659 1462.43 259.704 1464.24 264.563 1465.1C285.311 1467.33 302.18 1465.41 322.606 1465.45Z" fill="#280D08"/>
<path d="M322.606 1465.45C328.139 1466.1 330.494 1466.38 335.504 1468.72L336.26 1471.52C322.726 1483.63 254.921 1477.16 250.511 1465.67C254.659 1462.43 259.704 1464.24 264.563 1465.1C260.475 1465.43 259.928 1464.72 257.539 1466.89C264.569 1475.72 317.222 1478.29 327.076 1473.77L328.336 1471.72C327.069 1467.69 326.896 1468.14 322.606 1465.45Z" fill="#270805"/>
<path d="M218.496 842.121L221.483 842.431L222.116 844.171C218.634 851.311 210.403 858.581 205.131 864.641C193.857 877.601 182.245 890.581 172.549 904.791C158.119 925.931 153.574 944.781 141.775 964.391C141.566 964.731 141.347 965.081 141.133 965.421C139.045 965.051 140.03 965.511 138.307 963.791C136.805 957.091 139.187 947.661 140.907 941.061C150.335 904.911 186.664 860.941 218.496 842.121Z" fill="#1D0603"/>
<path d="M303.242 1444.02L302.768 1441.76C308.003 1438.92 312.086 1440.85 314.423 1438.39L310.924 1438.07C318.653 1437.09 388.737 1424.24 383.744 1443.05C379.298 1459.8 314.115 1459.5 302.674 1448.2L302.86 1446.65L303.242 1444.02Z" fill="#29100A"/>
<path d="M303.242 1444.02L302.768 1441.76C308.003 1438.92 312.086 1440.85 314.423 1438.39L310.924 1438.07C318.653 1437.09 388.737 1424.24 383.744 1443.05C379.298 1459.8 314.115 1459.5 302.674 1448.2L302.86 1446.65C303.995 1447.04 305.141 1447.4 306.295 1447.73C319.034 1451.38 377.294 1456.77 380.324 1440.41C377.224 1436.61 368.813 1436.34 364.202 1436.56C354.159 1437.03 344.057 1439.25 334.037 1440.41C323.85 1441.59 312.787 1440.1 303.242 1444.02Z" fill="#c72707"/>
<path d="M158.346 1412.87C161.066 1412.57 163.914 1412.41 166.59 1413.12C174.818 1415.27 213.416 1427.57 218.943 1431.12C221.742 1432.92 224.187 1435.2 224.579 1438.72C224.915 1441.73 223.441 1443.37 221.691 1445.52C214.223 1448.31 207.922 1447.19 200.355 1445.51C187.09 1442.57 161.178 1436.67 153.808 1423.89C152.575 1421.76 151.956 1419.88 152.584 1417.43C154.49 1415.01 155.29 1413.83 158.346 1412.87Z" fill="#c72707"/>
<path d="M155.794 1415.99C157.198 1416.01 158.605 1416 159.997 1416.22C166.516 1417.25 173.351 1420.51 179.757 1422.42C190.976 1425.78 203.321 1427.67 214.049 1432.35C216.745 1433.52 219.661 1434.72 221.315 1437.28C222.293 1438.79 221.364 1440.27 220.965 1441.9C218.545 1442.75 216.104 1443.36 213.53 1443.45C201.289 1443.89 166.005 1432.24 157.828 1423.43C155.532 1420.95 155.821 1419.11 155.794 1415.99Z" fill="#270805"/>
<path d="M331.935 737.121C332.984 738.161 333.578 738.391 333.856 739.951C334.617 744.191 331.816 748.661 329.654 752.131C318.968 769.261 295.745 796.511 275.286 801.231C274.412 800.531 273.765 799.671 273.043 798.821C273.073 798.551 273.065 798.271 273.135 798.001C274.307 793.531 283.893 786.131 287.245 782.901C294.636 775.781 302.176 768.731 309.151 761.191C316.353 753.411 323.269 743.211 331.935 737.121Z" fill="#270805"/>
<path d="M262.771 848.141L265.192 848.661L265.851 850.561C265.525 851.751 265.229 852.771 264.599 853.851C261.343 859.401 233.13 890.491 228.475 893.881C226.826 895.081 224.668 895.691 222.736 896.281L220.178 894.091C219.596 892.111 219.397 891.331 220.003 889.261C224.333 874.521 249.522 855.401 262.771 848.141Z" fill="#270805"/>
<path d="M253.327 859.351L254.248 860.601C245.46 870.791 236.617 882.821 226.77 891.841C225.732 891.071 225.068 890.191 224.248 889.201C224.241 888.081 224.175 887.921 224.543 886.671C227.604 876.251 243.821 863.891 253.327 859.351Z" fill="#1A110E"/>
<path d="M155.471 1009.28C150.257 998.131 168.864 949.601 179.723 949.241C183.271 956.311 164.494 998.611 160.812 1007.78L155.471 1009.28Z" fill="#270805"/>
<path d="M370.238 611.55C371.932 612.211 371.427 611.821 372.647 612.967C374.64 614.84 374.972 618.818 375.059 621.425C375.623 638.385 371.006 663.748 359.095 676.442C357.303 675.621 357.158 674.873 356.094 673.271C355.603 669.622 367.966 615.622 370.238 611.55Z" fill="#270805"/>
<path d="M218.849 954.011C219.169 954.241 219.547 954.411 219.809 954.701C221.38 956.461 220.979 958.771 220.554 960.871C218.681 970.181 205.568 1002.56 198.132 1007.65C196.133 1005.98 195.246 1005.55 194.841 1002.82C193.129 991.251 210.782 962.461 218.849 954.011Z" fill="#270805"/>
<path d="M442.861 1457.45C445.113 1457.47 447.964 1457.57 450.12 1458.23C452.584 1458.98 453.046 1459.38 454.176 1461.47L453.345 1463.91C445.643 1471.53 435.431 1473.57 425.265 1475.85C422.625 1476.09 419.401 1476.45 416.825 1475.81C414.811 1475.32 414.558 1475.24 413.502 1473.41C413.619 1473.06 413.698 1472.7 413.854 1472.36C417.639 1464.27 434.954 1459.76 442.861 1457.45Z" fill="#270805"/>
<path d="M155.471 1009.28L160.812 1007.78L157.383 1017.45L156.707 1017.22C156.368 1013.92 156.308 1013.64 156.682 1010.38L155.471 1009.28Z" fill="#A73F2D"/>
<path d="M975.967 1214.18C989.567 1213.53 1008.46 1218.68 1022.09 1220.96C1094.16 1233.01 1164.6 1251.44 1236.31 1265.15C1268.75 1271.35 1301.76 1276.69 1334.49 1281.17C1351.35 1283.48 1368.34 1285 1385.15 1287.68C1420.98 1293.41 1457.24 1301.7 1492.48 1310.38C1500.91 1312.46 1512.16 1315.14 1516.7 1323.33C1518.58 1326.74 1518.99 1330 1517.81 1333.77C1516.3 1338.63 1511.14 1342.61 1507.08 1345.26C1495.09 1353.08 1480.05 1358.26 1467.13 1364.63C1439.6 1378.22 1413.1 1392.2 1387.03 1408.46C1366.4 1421.34 1347.73 1438.35 1326.15 1449.54C1316.01 1454.79 1307.1 1456.3 1295.79 1454.84C1280.48 1452.86 1265.47 1447.21 1250.43 1443.72C1223.14 1437.37 1195.74 1431.47 1168.86 1423.45C1123.59 1409.95 1079.19 1393.55 1033.95 1380.03C986.727 1365.93 938.057 1358.63 890.564 1345.96C860.878 1338.04 832.455 1325.33 803.142 1316.06C799.17 1314.94 795.082 1313.89 791.208 1312.48C787.918 1311.28 785.662 1309.66 784.117 1306.47L785.043 1304.57C802.42 1297.16 868.564 1326.2 890.189 1331.75C921.887 1339.89 954.727 1343.99 986.627 1351.49C1032.69 1362.32 1077.76 1377.06 1122.67 1391.85C1146.43 1399.68 1288.96 1440.87 1309.09 1437.65C1327.34 1434.74 1347.3 1415.8 1362.35 1405.43C1370.78 1399.62 1379.53 1394.26 1388.21 1388.84C1424.42 1366.23 1463.1 1348.34 1501.16 1329.13C1463.74 1318.18 1425.1 1308.88 1386.64 1302.4C1365.75 1298.88 1344.61 1296.99 1323.69 1293.62C1294.65 1288.94 1265.39 1283.14 1236.46 1277.61C1177.52 1266.35 1120.23 1248.74 1061.52 1236.37C1048.85 1233.71 981.247 1221.55 977.397 1218.64C976.067 1217.64 976.237 1215.72 975.967 1214.18Z" fill="#161513"/>
<path d="M924.147 1235.3C929.317 1234.87 957.937 1243.93 966.037 1245.52C978.397 1247.96 991.027 1249.29 1003.47 1251.27C1022.25 1254.37 1040.97 1257.8 1059.63 1261.56C1142.19 1278.18 1224.19 1297.74 1306.64 1314.92C1327.26 1319.22 1403.72 1331.64 1417.95 1338.96C1419.37 1340.95 1420.26 1342.22 1419.92 1344.87C1419.44 1348.59 1415.73 1349.58 1412.56 1349.79C1402.53 1350.46 1390.78 1346.71 1380.89 1344.93C1367.23 1342.48 1344.13 1341.46 1331.66 1348.21C1324.23 1352.23 1322.38 1358.52 1319.92 1366.07C1311.75 1370.74 1285.48 1360.73 1275.8 1358.63C1272.44 1360.61 1269.1 1362.64 1265.72 1364.6C1259.76 1368.04 1252.6 1371.71 1245.59 1369.82L1244.71 1368.19C1247.76 1360.99 1256.78 1357.81 1263.45 1354.97C1253.24 1351.27 1242.67 1348.15 1232.2 1345.28C1229.04 1347.65 1225.51 1349.79 1221.99 1351.61C1217.52 1353.92 1212.05 1355.88 1207.05 1354.39L1206.29 1352.88C1209.25 1346.99 1214.48 1344.98 1220.12 1342.25C1206.64 1337 1192.57 1333.31 1178.6 1329.64C1174.12 1332.54 1169.45 1335.99 1164.58 1338.17C1161.06 1339.75 1156.3 1340.91 1152.65 1339.36L1152.48 1337.58C1155.61 1332.12 1161.08 1330.09 1166.49 1327.49C1142.57 1323.5 1119.51 1316.07 1095.37 1313.63C1093.88 1312.76 1092.38 1311.94 1091.17 1310.7C1087.09 1306.54 1088.1 1300.67 1088.25 1295.34C1076.92 1297.66 1065.45 1303.41 1053.97 1304.16C1049.82 1304.43 1045.91 1303.6 1042.78 1300.71C1037.93 1296.24 1038.29 1289.2 1037.89 1283.13C1028.69 1285.5 1018.96 1289.14 1009.53 1290.09C1005.46 1290.5 1000.14 1290.52 997.047 1287.36C995.417 1285.69 994.847 1283.58 994.827 1281.3C994.787 1276.65 996.157 1272.17 999.367 1268.79C1001.74 1269.34 1001.58 1278.09 1003.57 1280.66C1008.22 1286.66 1031.21 1274.73 1039.66 1276.26C1049.26 1278.01 1044.44 1289.56 1048.63 1295.11C1058.73 1296.48 1069.28 1289.84 1079.06 1287.59C1084.03 1286.44 1089.19 1285.78 1093.63 1288.8C1098.7 1292.25 1098.95 1298.59 1099.59 1304.08C1113.77 1304.37 1126.8 1308.95 1140.48 1312.09C1153.07 1314.98 1166.09 1317.15 1178.89 1318.82C1184.17 1315.82 1188.73 1312.84 1194.85 1312.05L1196.09 1313.18C1195.23 1316.68 1191.92 1318.96 1189.33 1321.29C1204.13 1324.74 1218.75 1329.46 1233.47 1333.31C1241.58 1329.17 1251.63 1320.22 1261.11 1320.71C1258.79 1326.97 1249.68 1332.34 1244.46 1336.12L1277.51 1346.79C1288.12 1341.16 1297.78 1334.15 1308.74 1329.03L1045.01 1267.3C1018.53 1261.37 991.617 1257.39 965.107 1251.55C954.547 1249.22 943.067 1247.15 933.067 1243C928.807 1241.24 925.957 1239.64 924.147 1235.3Z" fill="#161513"/>
<path d="M1304.93 1338.58C1307.14 1336.16 1310.29 1332.96 1311.95 1330.3C1319.49 1331.49 1327.67 1332.63 1335.09 1334.16C1319.77 1339.46 1319.96 1344.81 1308.09 1354.02C1307.71 1354.31 1301.79 1352.97 1300.84 1352.72C1297.67 1352.15 1292.73 1350.76 1289.46 1349.95C1294.99 1345.53 1299.04 1342.5 1304.93 1338.58Z" fill="#F5F4EE"/>
<path d="M1883.67 1230.89C1886.64 1230.87 1887.88 1231.32 1890.42 1232.66C1891.19 1233.9 1891.87 1234.43 1891.74 1235.97C1890.99 1244.61 1872.06 1257.55 1865.76 1262.67C1848.49 1276.72 1829.51 1288.75 1811.12 1301.25C1795.59 1311.98 1780.28 1323.02 1765.19 1334.35C1738.55 1354.28 1714.47 1377.92 1687.55 1397.48C1640.58 1431.61 1591.39 1462.61 1544.37 1496.68C1533.12 1504.83 1522.53 1513.85 1511.53 1522.32C1496.04 1534.23 1480.27 1545.19 1465.98 1558.6C1463.96 1559.95 1463.62 1560.31 1461.22 1560.35L1460.75 1558.22C1465.85 1543.52 1484.56 1531.83 1496.13 1522.08C1509.44 1510.87 1522.47 1499.16 1536.29 1488.58C1582.38 1453.3 1631.47 1422.11 1678.15 1387.68C1707.34 1366.14 1733.64 1340.51 1762.6 1318.67C1788 1299.52 1814.97 1282.88 1840.87 1264.5C1855.65 1254 1869.68 1242.39 1883.67 1230.89Z" fill="#161513"/>
<path d="M497.594 432.098C504.509 415.814 544.847 327.16 564.725 330.555C577.518 340.807 568.842 399.053 567.207 414.836C565.698 429.404 568.978 447.422 558.342 457.357C549.59 458.399 515.115 448.105 505.3 444.626C501.34 443.223 498.892 435.964 497.594 432.098Z" fill="#161513"/>
<path d="M769.368 1060.23C779.461 1061.51 789.671 1064.39 799.621 1066.53C815.234 1069.98 830.982 1072.78 846.824 1074.93C882.469 1079.69 918.277 1077.58 953.897 1081.63C988.647 1085.58 1022.13 1097.16 1056.62 1102.65C1067.9 1104.44 1079.25 1105.75 1090.64 1106.58C1114.12 1108.24 1198.8 1109.6 1214.98 1123.37C1216.02 1125.99 1215.9 1125.85 1214.81 1128.47C1199.23 1130.82 1180.03 1124.93 1164.19 1123.46C1128.5 1120.15 1092.39 1120.93 1056.95 1114.98C1022.6 1109.22 989.197 1097.3 954.787 1092.53C928.267 1088.85 901.631 1089.09 874.99 1087.29C846.529 1085.36 817.402 1080.32 789.835 1073.18C783.282 1071.48 772.048 1069.42 768.449 1063.3L769.368 1060.23Z" fill="#161513"/>
<path d="M1192.34 1373.24C1173.71 1366.49 1153.81 1362.55 1134.57 1357.51C1106.56 1350.18 1078.72 1343.43 1050.67 1335.82C1013.11 1325.62 976.827 1309.78 937.797 1304.08C920.927 1301.61 916.867 1316.5 907.669 1315.98C903.971 1304.42 930.627 1294.97 940.947 1296.92C984.967 1305.27 1027.37 1319.66 1070.89 1330.3C1112.94 1340.58 1155.65 1348.95 1196.96 1361.81C1200.19 1362.81 1201.94 1365.45 1203.1 1368.43C1204.72 1373.85 1202.64 1378.61 1198.44 1382.22L1196.9 1384.28C1204.13 1387.87 1225.86 1391.46 1237 1395.68C1243.66 1390.32 1259.05 1377.94 1267.83 1380.83C1267.73 1387.89 1257.35 1392.68 1253.32 1396.56C1236.79 1412.44 1228.25 1403.07 1208.4 1398.06C1200.17 1395.99 1182.63 1392.36 1175.53 1387.75V1385.38C1179.02 1378.84 1185.58 1376.64 1192.34 1373.24Z" fill="#161513"/>
<path d="M1203.1 1368.43C1204.72 1373.85 1202.64 1378.61 1198.44 1382.22L1197.61 1380.12C1197.85 1377.63 1199.14 1370.02 1202.59 1370.67L1203.1 1368.43Z" fill="#161513"/>
<path d="M1584.18 1159.62L1585.62 1159.57C1607.88 1158.97 1630.51 1163.24 1652.37 1166.98C1684.4 1172.45 1716.24 1179.03 1748.27 1184.43C1777.96 1189.43 1815.29 1192.22 1843.55 1200.09C1846.33 1200.86 1850.39 1202.53 1852.23 1204.88C1853.64 1206.68 1854.33 1208.38 1853.86 1210.68C1853.27 1213.58 1851.05 1214.95 1848.84 1216.53C1832.91 1216.59 1815.64 1211.23 1799.88 1208.57C1779.82 1205.17 1759.66 1202.52 1739.66 1198.68C1707.1 1192.44 1674.75 1184.78 1642.17 1178.44C1632.96 1176.65 1587.83 1170.17 1581.95 1167.04C1579.71 1165.85 1579.35 1165.14 1578.86 1162.89C1580.54 1160.49 1581.47 1160.54 1584.18 1159.62Z" fill="#161513"/>
<path d="M946.997 1202.5L949.027 1203.28C950.227 1205.42 950.097 1205.44 949.597 1207.87C944.907 1212.23 931.717 1213.5 925.057 1216.31L833.35 1256.03C815.692 1263.49 797.915 1271.84 779.302 1276.64L776.635 1275.96L776.191 1274.37C779.774 1269.67 901.571 1217 918.207 1210.56C927.607 1206.93 937.087 1204.34 946.997 1202.5Z" fill="#161513"/>
<path d="M1254.83 1402.32C1256 1402.28 1257.16 1402.22 1258.33 1402.24C1269.08 1402.37 1294.47 1405.55 1302.1 1413.54C1302.65 1416.55 1302.23 1416.7 1300.71 1419.42C1291.14 1419.65 1266.28 1413.68 1257.58 1409.67C1255.15 1408.55 1254.35 1407.76 1253.35 1405.33L1254.83 1402.32Z" fill="#161513"/>
</svg>
