<svg width="875" height="882" viewBox="0 0 875 882" fill="none" xmlns="http://www.w3.org/2000/svg">
<path d="M148.784 446.45C139.905 427.234 127.172 318.594 149.942 311.02C154.153 311.163 158.444 314.843 161.586 317.645C166.544 320.682 168.227 322.108 172.55 325.82C186.626 338.177 198.417 349.993 210.159 364.674C212.103 367.116 223.158 381.427 224.782 382.54L227.104 383.425L227.854 384.678C231.683 386.012 237.429 384.111 241.224 382.689C259.864 375.708 277.863 373.889 297.679 373.746C306.784 370.726 309.417 375.726 313.639 373.726C311.715 372.796 310.289 372.228 308.307 371.414L308.318 369.759C329.198 375.586 332.609 388.641 355.045 389.794C350.789 390.312 351.168 389.636 348.138 391.821C354.937 393.58 357.367 391.512 361.46 395.167C372.62 393.65 388.82 390.569 399.801 387.883C401.03 391.8 401.555 394.29 403.714 397.731C379.125 421.316 357.695 440.771 323.06 446C297.381 449.877 282.876 459.959 262.278 474.929C254.992 482.961 233.502 502.427 233.224 513.829C241.566 510.149 246.154 509.74 255.107 508.9C252.155 510.859 243.955 515.999 241.922 518.181C234.072 523.167 219.32 535.058 213.158 541.935C218.229 540.071 219.977 538.875 225.316 539.026L226.183 540.331C224.881 544.608 221.849 552.004 223.833 555.767C231.724 562.366 253.208 536.65 264.528 542.483C266.449 548.339 247.193 584.81 243.909 593.302C237.992 608.605 217.884 668.712 230.779 681.577C238.447 680.847 244.84 669.52 249.795 663.614C252.699 674.781 258.783 734.822 262.621 739.031L263.887 739.489C266.164 736.834 270.484 730.746 272.975 729.735C280.242 737.625 270.348 783.146 272.361 787.076C265.39 807.556 263.43 821.396 263.359 843.312C263.34 849.042 264.409 863.629 263.454 868.329C248.54 876.352 233.444 878.479 217.328 871.751L216.339 873.043C215.313 876.068 216.171 874.826 213.59 876.839C210.216 876.426 209.466 875.267 206.938 872.966L204.132 866.731C198.907 872.226 193.738 873.183 186.701 870.443L186.244 871.536C183.522 875.199 184.607 874.988 181.265 875.567L179.236 874.772C172.984 879.885 154.366 878.451 146.251 877.616C116.161 874.522 20.4757 873.87 9.45801 843.21C10.3017 834.563 13.3439 823.257 14.9559 814.834C24.8762 762.997 46.4528 715.404 85.2438 678.78C91.3908 672.976 103.225 663.585 108.24 656.918C110.82 647.463 127.244 636.89 133.601 629.454C144.38 616.846 150.574 602.372 158.201 588.018C169.168 567.381 166.587 547.901 165.291 525.528C164.569 513.055 164.887 503.764 161.181 491.484C160.858 488.529 161.296 484.171 161.47 481.087L163.634 477.171C158.195 468.823 151.723 455.91 148.784 446.45Z" fill="#F03906"/>
<path d="M148.784 446.45C139.905 427.234 127.172 318.594 149.942 311.02C154.153 311.163 158.444 314.843 161.586 317.645L163.162 321.513C159.345 322.334 158.088 318.524 152.696 319.837C138.966 331.428 162.375 406.229 170.115 421.776L168.935 421.807C163.152 421.907 154.332 420.089 150.69 421.037L150.195 422.313L150.625 422.865C152.306 429.263 154.027 435.651 155.786 442.028L154.223 447.543L152.575 448.386C150.802 447.574 150.39 447.37 148.784 446.45Z" fill="#171614"/>
<path d="M108.24 656.918L113.127 653.354C110.329 662.311 90.8568 676.788 83.3538 684.79C47.8378 722.67 30.3658 761.772 19.4636 811.48C12.3958 843.706 6.2501 853.189 46.5798 862.113C72.1388 867.768 147.986 878.32 172.475 873.112C178.73 859.3 138.142 814.865 122.506 812.391C120.05 812.003 111.16 809.443 109.834 808.585L109.988 807.016C127.929 807.757 141.94 818.328 154.103 830.737C167.463 844.365 171.106 859.136 179.236 874.772C172.984 879.885 154.366 878.451 146.251 877.616C116.161 874.522 20.4757 873.87 9.45801 843.21C10.3017 834.563 13.3439 823.257 14.9559 814.834C24.8762 762.997 46.4528 715.404 85.2438 678.78C91.3908 672.976 103.225 663.585 108.24 656.918Z" fill="#c72707"/>
<path d="M161.586 317.645C166.544 320.682 168.227 322.108 172.55 325.82C186.626 338.177 198.417 349.993 210.159 364.674C212.103 367.116 223.158 381.427 224.782 382.54C225.802 386.288 226.496 387.668 225.786 391.521L224.133 392.632C221.589 391.8 220.247 390.294 218.532 388.204C201.244 367.132 176.247 335.485 153.535 320.832C150.158 349.338 157.774 380.431 167.579 407.31C171.629 418.411 192.189 448.966 191.84 454.881L190.194 455.662C183.735 452.701 172.559 432.918 168.965 426.081C158.544 425.743 159.001 424.093 150.625 422.865L150.195 422.313L150.69 421.037C154.332 420.089 163.152 421.907 168.935 421.807L170.115 421.776C162.375 406.229 138.966 331.428 152.696 319.837C158.088 318.524 159.345 322.334 163.162 321.513L161.586 317.645Z" fill="#21110C"/>
<path d="M210.159 364.673C207.84 365.31 208.321 365.904 205.602 366.217C191.778 354.747 183.768 341.972 171.081 329.971L169.793 328.765L172.55 325.819C186.626 338.176 198.417 349.992 210.159 364.673Z" fill="#13120E"/>
<path d="M109.988 807.016L109.016 805.16C109.792 803.641 109.973 802.775 112.077 802.516C147.351 798.166 182.566 838.382 186.244 871.536C183.522 875.199 184.607 874.988 181.265 875.567L179.236 874.772C171.106 859.136 167.463 844.365 154.103 830.737C141.94 818.328 127.929 807.757 109.988 807.016Z" fill="#21110C"/>
<path d="M204.132 866.731C200.122 851.34 185.707 799.919 196.139 787.516L197.577 787.837C199.205 792.69 200.022 808.243 201.387 814.633C204.481 829.119 208.693 848.006 213.597 861.745L213.986 862.805C214.835 865.837 216.218 870.053 216.339 873.043C215.313 876.068 216.171 874.826 213.59 876.839C210.216 876.426 209.466 875.267 206.938 872.966L204.132 866.731Z" fill="#21110C"/>
<path d="M161.47 481.087C165.069 482.59 165.25 483.746 166.538 487.609C173.562 542.729 176.024 578.742 140.029 625.118C135.633 630.782 114.373 650.954 113.127 653.354L108.24 656.918C110.82 647.463 127.244 636.89 133.601 629.454C144.38 616.846 150.574 602.372 158.201 588.018C169.168 567.381 166.587 547.901 165.291 525.528C164.569 513.055 164.887 503.764 161.181 491.484C160.858 488.529 161.296 484.171 161.47 481.087Z" fill="#21110C"/>
<path d="M211.236 504.276L213.255 506.03C211.215 514.666 208.334 528.71 205.474 536.694C208.812 535.648 210.859 532.831 213.583 530.145C218.714 524.54 227.015 518.446 233.224 513.828C241.566 510.148 246.154 509.739 255.107 508.899C252.155 510.858 243.955 515.998 241.922 518.18C234.072 523.166 219.32 535.057 213.158 541.934C208.785 545.293 205.724 548.103 200.685 550.349C196.821 537.365 203.528 515.091 211.236 504.276Z" fill="#21110C"/>
<path d="M205.474 536.695C208.812 535.649 210.859 532.832 213.583 530.146C211.897 536.302 211.191 544.392 203.101 543.433C201.393 540.96 201.836 542.351 202.18 539.004C203.909 537.512 203.479 537.696 205.474 536.695Z" fill="#21110C"/>
<path d="M263.887 739.488C266.164 736.833 270.484 730.745 272.975 729.734C280.242 737.624 270.348 783.145 272.361 787.075C265.39 807.555 263.43 821.395 263.359 843.311C263.34 849.041 264.409 863.628 263.454 868.328C248.54 876.351 233.444 878.478 217.328 871.75L216.339 873.042C216.218 870.052 214.835 865.836 213.986 862.804C214.655 863.613 215.333 864.414 216.02 865.208C220.952 870.867 226.036 872.621 233.401 872.507C259.835 872.897 264.138 867.106 260.943 840.861C259.107 825.78 278.199 746.537 270.105 738.314L263.887 739.488Z" fill="#B5604A"/>
<path d="M308.318 369.759C329.198 375.586 332.609 388.641 355.045 389.794C350.789 390.312 351.168 389.636 348.138 391.821C354.937 393.58 357.367 391.512 361.46 395.167C332.069 399.592 325.829 380.085 297.679 373.746C306.784 370.726 309.417 375.726 313.639 373.726C311.715 372.796 310.289 372.228 308.307 371.414L308.318 369.759Z" fill="#1B110C"/>
<path d="M155.786 442.027C158.713 450.018 171.243 477.062 170.85 482.255L169.886 483.719L166.538 487.608C165.25 483.745 165.069 482.589 161.47 481.086L163.634 477.17C158.195 468.822 151.723 455.909 148.784 446.449C150.39 447.369 150.802 447.573 152.575 448.385L154.223 447.542L155.786 442.027Z" fill="#13120E"/>
<path d="M163.634 477.171C165.6 479.502 167.416 481.994 169.886 483.72L166.538 487.609C165.25 483.746 165.069 482.59 161.47 481.087L163.634 477.171Z" fill="#A47465"/>
<path d="M213.255 506.031C214.411 514.012 210.591 518.34 212.383 525.65L213.887 526.074C230.426 518.639 248.879 475.466 262.278 474.929C254.992 482.961 233.502 502.427 233.224 513.829C227.015 518.447 218.714 524.541 213.583 530.146C210.859 532.832 208.812 535.649 205.474 536.695C208.334 528.711 211.215 514.667 213.255 506.031Z" fill="#B5604A"/>
<path d="M210.418 482.961C211.455 491.572 205.424 498.847 208.559 503.892L211.236 504.277C203.528 515.092 196.821 537.366 200.685 550.35C190.681 541.708 202.664 529.2 198.841 520.94L196.161 520.052C200.371 515.184 208.009 490.276 210.418 482.961Z" fill="#c72707"/>
<path d="M196.161 520.052L194.828 519.04C191.832 510.963 202.483 488.456 208.55 482.589L210.418 482.961C208.009 490.276 200.371 515.184 196.161 520.052Z" fill="#340905"/>
<path d="M168.493 353.728C174.036 358.275 172.828 373.633 176.205 380.641C177.183 382.671 176.531 382.134 178.295 382.729C179.213 380.209 179.298 378.196 181.68 376.801C184.168 379.032 184.257 382.106 185.361 385.205C186.079 387.222 186.568 389.282 188.53 390.273L190.548 386.595C190.81 386.736 191.092 386.846 191.335 387.019C195.739 390.134 203.171 405.005 204.11 410.198C204.545 412.605 204.231 413.623 202.814 415.523L200.952 415.537L198.786 412.328L197.468 412.12L197.907 433.859C184.071 421.211 174.039 404.953 168.94 386.914C166.056 376.769 163.084 363.389 168.493 353.728Z" fill="#171614"/>
<path d="M289.995 394.904C293.172 395.61 295.406 396.061 297.858 398.399C298.259 400.111 298.66 401.724 299.309 403.361C307.502 408.196 318.131 410.679 327.105 413.925C315.301 419.561 304.921 429.323 291.845 430.971C280.312 431.111 272.477 432.282 261.897 437.211C270.074 420.349 278.261 411.484 293.432 400.615L293.278 399.942C291.367 399.313 290.709 399.068 289.152 397.693L289.995 394.904Z" fill="#21110C"/>
<path d="M275.883 426.559C274.233 412.006 293.028 400.283 305.565 410.69L305.552 413.224C308.857 412.912 307.409 412.523 310.083 414.263L310.498 417.136C309.685 418.086 308.746 419.252 307.887 420.127C296.206 430.302 290.918 425.924 280.028 426.96C278.193 427.129 277.754 426.874 275.883 426.559Z" fill="#171614"/>
<path d="M285.652 414.026L292.157 425.798C288.371 426.116 283.7 426.365 280.028 426.96C278.193 427.129 277.754 426.874 275.883 426.559C278.723 422.752 282.491 417.363 285.652 414.026Z" fill="#F2F1E8"/>
<path d="M305.552 413.225C308.857 412.913 307.409 412.524 310.083 414.264L310.498 417.137C309.685 418.087 308.746 419.253 307.887 420.128L305.552 413.225Z" fill="#FDFDFB"/>
<path d="M93.3496 696.782C94.8276 697.501 94.0576 696.951 95.3766 698.767C94.5836 701.387 64.2986 741.564 59.0836 749.066L58.2356 749.482L57.1586 748.863C56.8446 746.965 56.8556 745.325 57.2676 743.455C61.5166 724.16 77.0206 706.936 93.3496 696.782Z" fill="#21110C"/>
<path d="M157.668 624.81L159.141 625.42L159.729 627.342C157.673 638.923 146.741 651.162 137.913 658.569L135.764 657.731C135.724 657.416 135.639 657.102 135.643 656.784C135.732 649.929 152.269 629.524 157.668 624.81Z" fill="#340905"/>
<path d="M102.149 713.511C104.71 714.415 104.777 714.285 106.079 716.64C105.963 724.599 95.9945 733.284 90.6945 738.613C88.4545 739.127 89.4915 739.309 87.5785 738.115C87.5565 737.804 87.4966 737.492 87.5146 737.18C87.8986 730.459 97.7116 718.495 102.149 713.511Z" fill="#340905"/>
<path d="M59.368 777.775C59.509 778.083 59.687 778.377 59.792 778.699C62.159 785.943 53.394 802.031 50.331 809.046C49.518 807.17 49.282 805.234 49.185 803.204C48.736 793.708 53.184 784.682 59.368 777.775Z" fill="#340905"/>
<path d="M355.045 389.793C370.54 387.286 385.404 383.475 400.515 380.352C412.461 379.041 433.162 367.147 435.486 386.598C437.25 401.356 434.375 409.832 431.45 423.359C426.709 449.485 404.247 465.828 384.801 481.3C360.934 500.29 348.57 533.714 352.562 564.151C358.32 608.046 374.244 643.08 366.066 689.654C360.3 670.067 358.242 648.347 354.414 627.913C346.209 584.121 333.125 546.422 354.18 503.55C370.854 469.596 417.191 457.473 422.224 423.903C399.539 446.349 381.477 452.877 353.622 467.221C348.789 469.71 341.648 476.089 337.367 477.533C332.883 472.522 346.292 462.51 350.699 460.313C363.644 453.863 431.107 422.135 424.574 405.644C415.959 403.432 410.966 402.843 403.714 397.73C401.555 394.289 401.03 391.799 399.801 387.882C388.82 390.568 372.62 393.649 361.46 395.166C357.367 391.511 354.937 393.579 348.138 391.82C351.168 389.635 350.789 390.311 355.045 389.793Z" fill="#13120E"/>
<path d="M161.181 491.483C164.887 503.763 164.569 513.054 165.291 525.527C166.587 547.9 169.168 567.38 158.201 588.017C150.574 602.371 144.38 616.845 133.601 629.453C127.244 636.889 110.82 647.462 108.24 656.917C103.225 663.584 91.391 672.975 85.244 678.779C46.453 715.403 24.8764 762.996 14.9561 814.833C13.3441 823.256 10.3019 834.562 9.45823 843.209L8.67373 848.451C7.85363 852.292 7.39953 857.398 3.56503 859.109C-1.13727 855.109 -0.0821728 837.259 0.624527 831.207C5.07753 793.073 17.3333 757.252 34.885 723.302C36.802 720.751 38.12 718.289 39.738 715.543C49.815 700.916 58.412 690.149 71.035 677.368C106.009 641.956 151.668 612.125 159.884 559.079C162.937 539.367 160.316 512.555 161.181 491.483Z" fill="#13120E"/>
<path d="M227.104 383.424C228.16 382.319 229.724 380.672 229.789 379.048C230.622 358.444 236.376 338.133 241.18 318.153C243.169 309.883 246.918 294.979 254.577 290.559C260.707 290.352 263.231 294.388 265.664 299.619C275.378 320.507 282.018 344.303 286.831 366.692C295.391 366.599 300.188 366.366 308.318 369.758L308.307 371.413C310.289 372.227 311.715 372.795 313.639 373.725C309.417 375.725 306.784 370.725 297.679 373.745C277.863 373.888 259.864 375.707 241.224 382.688C237.429 384.11 231.683 386.011 227.854 384.677L227.104 383.424Z" fill="#171614"/>
<path d="M223.833 555.767C236.381 554.192 249.293 536.387 268.618 536.572C273.07 540.847 262.243 560.636 259.649 566.605C244.057 602.483 225.786 641.739 230.728 681.765C239.684 672.276 243.74 664.084 254.42 656.86C256.382 687.058 261.267 710.781 263.887 739.489L262.621 739.031C258.783 734.822 252.699 674.781 249.795 663.614C244.84 669.52 238.447 680.847 230.779 681.577C217.884 668.712 237.992 608.605 243.909 593.302C247.193 584.81 266.449 548.339 264.528 542.483C253.208 536.65 231.724 562.366 223.833 555.767Z" fill="#c72707"/>
<path d="M9.45784 843.21C20.4755 873.87 116.161 874.522 146.251 877.616C154.366 878.451 172.984 879.885 179.236 874.772L181.265 875.567C184.607 874.988 183.522 875.199 186.244 871.536L186.701 870.443C193.738 873.183 198.907 872.226 204.132 866.731L206.938 872.966C203.636 873.648 196.554 874.525 194.081 876.081C186.841 880.634 186.011 876.646 181.3 877.094C180.401 878.196 177.891 881.197 176.512 881.264C147.784 882.67 19.2042 877.417 8.67334 848.452L9.45784 843.21Z" fill="#F4F2E8"/>
<path d="M272.361 787.076L275.252 787.644C276.58 790.225 275.053 802.291 274.633 805.7C272.014 826.995 273.876 851.234 271.341 872.112C269.345 874.701 270.598 874.034 267.622 874.465C264.943 872.447 264.775 871.382 263.454 868.329C264.409 863.629 263.34 849.042 263.359 843.312C263.43 821.396 265.39 807.556 272.361 787.076Z" fill="#13120E"/>
<path d="M213.158 541.935C219.32 535.058 234.072 523.167 241.922 518.181C238.103 528.872 229.051 544.753 223.833 555.767C221.849 552.004 224.881 544.608 226.183 540.331L225.316 539.026C219.977 538.875 218.229 540.071 213.158 541.935Z" fill="#B5604A"/>
<path d="M33.2789 703.772C33.5859 707.349 33.4879 711.132 35.4089 714.021C37.6259 711.529 37.6499 708.244 38.0739 704.763C38.2209 708.356 37.9499 712.636 39.7379 715.543C38.1199 718.289 36.8019 720.751 34.8849 723.302C32.0569 717.813 32.8919 709.876 33.2789 703.772Z" fill="#F4F2E8"/>
<path d="M797.788 327.91C798.809 324.549 806.126 312.472 808.333 308.767C821.134 287.275 832.035 264.252 844.943 242.912L846.795 680.67L846.067 777.357C845.96 792.565 846.529 808.032 845.977 823.18C840.557 823.161 821.125 818.941 813.831 817.799L815.261 819.163C818.627 822.332 821.877 823.269 822.604 826.355C819.422 828.195 818.349 828.067 814.749 828.437C774.647 820.926 734.809 812.971 694.649 805.924C682.086 803.949 669.566 801.708 657.097 799.203C662.887 798.009 669.901 800.413 672.831 797.872C672.179 795.632 671.641 794.534 670.675 792.396C667.935 791.892 665.205 791.337 662.485 790.73L664.052 790.41L665.148 788.672C665.754 777.802 664.976 765.581 664.931 754.412L664.75 682.504C664.716 666.436 666.007 522.385 664.032 517.437C676.74 505.998 695.658 484.037 706.615 470.963C713.433 462.042 721.116 452.42 727.305 443.152L728.993 442.229L729.193 443.509C734.019 441.887 771.998 384.894 774.065 378.647L774.367 388.191C775.271 380.235 773.953 371.305 777.511 364.376C784.16 352.16 790.919 340.004 797.788 327.91Z" fill="#171614"/>
<path d="M797.788 327.91C798.809 324.549 806.126 312.472 808.333 308.767C821.134 287.275 832.035 264.252 844.943 242.912L846.795 680.67L846.067 777.357C845.96 792.565 846.529 808.032 845.977 823.18C840.557 823.161 821.125 818.941 813.831 817.799C811.064 816.469 801.706 815.216 798.273 814.74C791.65 813.184 783.981 811.883 777.225 810.577L777.608 507.141C777.461 485.527 775.586 461.782 774.724 439.989C774.211 422.728 774.092 405.457 774.367 388.191C775.271 380.235 773.953 371.305 777.511 364.376C784.16 352.16 790.919 340.004 797.788 327.91Z" fill="#c72707"/>
<path d="M797.788 327.91C798.785 336.709 798.278 355.189 798.286 364.569L798.318 432.264L797.474 680.62C797.477 713.643 798.865 747.017 798.741 780.054C798.717 786.397 799.417 809.661 798.273 814.74C791.65 813.184 783.981 811.883 777.225 810.577L777.608 507.141C777.461 485.527 775.586 461.782 774.724 439.989C774.211 422.728 774.092 405.457 774.367 388.191C775.271 380.235 773.953 371.305 777.511 364.376C784.16 352.16 790.919 340.004 797.788 327.91Z" fill="#F4F2E8"/>
<path d="M839.156 262.103C840.594 263.882 840.654 265.355 840.735 267.55C841.539 289.125 840.495 310.879 840.994 332.491C844.345 443.68 844.922 554.935 842.724 666.152L842.21 771.673C842.089 784.415 843.109 798.034 841.937 810.673C841.665 813.607 840.875 814.877 838.919 816.987C834.128 818.788 827.766 817.096 822.885 816.024C816.233 813.787 809.507 811.779 802.717 810.004C802.42 790.825 802.773 771.642 802.466 752.463C802.098 729.477 801.008 706.468 801.096 683.48C801.337 620.544 802.914 557.588 802.567 494.646L802.594 387.086C802.489 368.246 799.886 346.789 803.14 328.241C804.754 319.041 832.638 271.236 839.156 262.103Z" fill="#F03906"/>
<path d="M664.032 517.437C676.74 505.998 695.658 484.037 706.615 470.963C711.526 547.515 706.915 624.838 708.331 701.483C708.925 733.686 707.251 766.318 708.196 798.434C697.25 797.335 681.882 794.303 670.675 792.396C667.935 791.892 665.205 791.337 662.485 790.73L664.052 790.41L665.148 788.672C665.754 777.802 664.976 765.581 664.931 754.412L664.75 682.504C664.716 666.436 666.007 522.385 664.032 517.437Z" fill="#c72707"/>
<path d="M701.166 482.85L702.056 483.323C703.681 485.719 703.846 488.383 704.023 491.207C705.97 522.223 706.052 556.054 705.65 587.171C705.474 600.811 704.487 614.447 704.59 628.09L704.755 726.549C704.823 748.645 706.176 772.234 703.309 794.137C697.295 793.779 691.804 792.85 685.937 791.518L682.266 790.838C677.723 789.997 674.137 788.936 669.982 786.881C669.019 781.035 668.807 775.132 668.762 769.216C668.533 738.971 666.735 526.211 669.941 518.431C673.393 510.056 693.863 490.251 701.166 482.85Z" fill="#F03906"/>
<path d="M728.993 442.229L729.193 443.509L730.178 802.598C723.283 801.319 716.191 799.918 709.277 798.875L708.196 798.434C707.251 766.318 708.925 733.686 708.331 701.483C706.915 624.838 711.526 547.515 706.615 470.963C713.433 462.042 721.116 452.42 727.305 443.152L728.993 442.229Z" fill="#F4F2E8"/>
<path d="M670.675 792.396C681.882 794.303 697.25 797.335 708.196 798.434L709.277 798.875L708.101 799.232C701.466 801.192 691.637 803.93 685.428 800.45L682.591 801.003L682.399 801.901L683.498 802.313L682.631 801.064L684.78 800.564L684.886 802.541C689.869 802.635 690.624 802.867 694.649 805.924C682.086 803.949 669.566 801.708 657.097 799.203C662.887 798.009 669.901 800.413 672.831 797.872C672.179 795.632 671.641 794.534 670.675 792.396Z" fill="#13120E"/>
<path d="M543.359 437.447C555.562 435.672 569.061 433.793 581.369 433.856C582.715 444.738 582.296 461.736 582.332 473.22C583.369 478.771 583.405 479.908 586.305 484.69L586.877 485.609C585.731 492.757 586.744 497.225 586.055 503.271C590.182 511.477 616.343 549.248 622.009 551.436C631.925 550.91 655.758 525.539 664.032 517.437C666.007 522.385 664.716 666.436 664.75 682.504L664.931 754.412C664.976 765.581 665.754 777.802 665.148 788.672L664.052 790.41L662.485 790.73C665.205 791.337 667.935 791.892 670.675 792.396C671.641 794.534 672.179 795.632 672.831 797.872C669.901 800.413 662.887 798.009 657.097 799.203C649.609 798.65 626.844 793.856 618.637 792.212C606.155 791.806 564.053 782.101 548.804 779.473L424.556 758.587C406.477 755.609 382.974 752.351 364.942 747.666C362.963 747.151 363.144 745.98 362.528 743.875L363.822 742.342C368.977 740.911 371.75 741.41 376.582 743.598L377.677 742.597C378.75 733.802 378.148 719.281 378.037 710.019L378.034 700.456L377.987 686.62C383.844 686.557 389.901 686.31 395.774 686.142L396.537 685.804C406.736 678.454 419.49 667.555 429.505 659.484C430.161 647.084 430.019 632.395 430.313 619.724C440.575 618.128 456 618.327 466.658 618.208C466.896 623.77 465.381 638.392 468.836 641.762L484.361 638.678C484.39 633.798 484.202 628.72 484.093 623.825L483.129 622.991C479.074 608.298 480.941 593.414 480.632 578.299C479.472 565.613 487.563 562.208 499.045 562.478C511.466 562.77 520.87 558.936 527.27 571.439L542.647 534.059C542.997 532.871 543.118 529.763 543.222 528.366C542.826 497.544 542.274 468.276 543.359 437.447Z" fill="#171614"/>
<path d="M582.33 544.298C583.616 533.784 581.82 508.074 583.243 501.741L586.055 503.271C590.182 511.477 616.343 549.248 622.009 551.436C631.925 550.91 655.758 525.539 664.032 517.437C666.007 522.385 664.716 666.436 664.75 682.504L664.931 754.412C664.976 765.581 665.754 777.802 665.148 788.672L664.052 790.41L662.485 790.73C657.367 789.554 651.266 788.667 646.022 787.768L640.829 786.964C637.573 785.289 609.212 781.603 603.054 780.27C600.838 779.884 598.471 779.634 596.228 779.35C592.458 778.305 587.275 777.475 583.327 776.714C580.103 703.67 582.374 618.285 582.33 544.298Z" fill="#F4F2E8"/>
<path d="M603.927 573.805C616.329 572.867 631.819 572.634 644.385 572.853C646.71 640.931 645.416 709.411 644.486 777.509C644.435 781.281 644.133 784.571 646.022 787.768L640.829 786.964C637.573 785.289 609.212 781.603 603.054 780.27C601.351 729.992 601.857 680.025 603.461 629.759C604.021 612.208 602.657 590.336 603.927 573.805Z" fill="#c72707"/>
<path d="M616.566 576.663C622.181 576.725 627.846 576.178 633.457 576.467C636.416 576.62 638.557 577.144 640.552 579.351C642.979 597.524 643.179 767.479 640.451 777.728C639.668 780.669 638.538 780.911 636.074 782.329C626.155 780.942 616.442 780.165 607.286 775.856C603.552 726.574 606.799 676.868 607.322 627.533C607.426 617.714 605.225 585.265 608.505 578.539C611.157 576.717 613.481 576.799 616.566 576.663Z" fill="#F03906"/>
<path d="M484.093 623.825L483.129 622.991C479.074 608.298 480.941 593.414 480.632 578.299C479.472 565.613 487.563 562.208 499.045 562.478C511.466 562.77 520.87 558.936 527.27 571.439L524.784 578.08C520.263 592.003 508.408 622.033 501.959 635.588C496.175 636.635 490.147 637.821 484.361 638.678C484.39 633.798 484.202 628.72 484.093 623.825Z" fill="#c72707"/>
<path d="M484.093 623.825L483.129 622.991C479.074 608.298 480.941 593.414 480.632 578.299C479.472 565.613 487.563 562.208 499.045 562.478C511.466 562.77 520.87 558.936 527.27 571.439L524.784 578.08L523.45 577.179C523.149 573.843 523.219 569.513 521.331 567.027C518.082 565.524 491.468 566.825 488.081 567.85C480.736 574.838 485.211 611.944 484.093 623.825Z" fill="#DED2C0"/>
<path d="M504.921 570.684L519.577 570.666C519.813 573.86 520.399 577.605 519.814 580.775C517.667 592.411 505.837 620.838 499.897 631.579C498.465 632.455 496.308 633.587 494.679 633.922C492.164 634.44 491.481 633.907 489.422 632.692C485.562 624.377 486.897 580.801 489.25 571.192L504.921 570.684Z" fill="#F03906"/>
<path d="M543.359 437.447C555.562 435.672 569.061 433.793 581.369 433.856C582.715 444.738 582.296 461.736 582.332 473.22C580.207 469.354 576.923 463.028 572.843 461.244C566.214 462.834 562.127 471.007 560.345 477.126C556.552 490.148 544.785 510.548 545.959 523.432L546.203 524.387L543.222 528.366C542.826 497.544 542.274 468.276 543.359 437.447Z" fill="#171614"/>
<path d="M430.313 619.724C440.575 618.128 456 618.327 466.658 618.208C466.896 623.77 465.381 638.392 468.836 641.762C449.614 645.415 444.256 646.985 429.505 659.484C430.161 647.084 430.019 632.395 430.313 619.724Z" fill="#c72707"/>
<path d="M437.828 622.426C446.347 622.093 454.78 621.672 463.289 622.485C462.987 626.997 464.112 634.384 461.491 638.142C459.115 641.548 453.175 642.164 449.4 643.01C443.756 645.644 438.441 648.684 432.656 651.074C432.506 643.639 431.633 634.772 433.385 627.538C434.138 624.429 435.13 623.966 437.828 622.426Z" fill="#F03906"/>
<path d="M545.959 523.432C544.785 510.548 556.552 490.148 560.345 477.126C562.127 471.007 566.214 462.834 572.843 461.244C576.923 463.028 580.207 469.354 582.332 473.22C583.369 478.771 583.405 479.908 586.305 484.69C584.488 488.179 584.159 490.038 583.35 493.925C580.435 493.421 579.616 491.174 576.58 488.894C575.015 486.713 573.375 484.485 571.846 482.288C566.198 496.773 560.7 511.316 555.354 525.915C553.707 527.232 552.215 529.263 550.349 530.867C548.082 529.545 547.627 527.256 546.203 524.387L545.959 523.432Z" fill="#F03906"/>
<path d="M545.959 523.432C544.785 510.548 556.552 490.148 560.345 477.126C562.127 471.007 566.214 462.834 572.843 461.244C576.923 463.028 580.207 469.354 582.332 473.22L581.631 476.191C576.939 472.395 574.814 466.757 569.729 461.745C559.765 482.064 554.71 503.896 545.959 523.432Z" fill="#21110C"/>
<path d="M396.537 685.804L407.237 691.095C399.177 697.842 390.573 705.37 382.082 711.441C380.449 710.976 381.081 711.42 380.109 710.226L378.037 710.019L378.034 700.456L377.987 686.62C383.844 686.557 389.901 686.31 395.774 686.142L396.537 685.804Z" fill="#B5604A"/>
<path d="M377.987 686.62C383.844 686.557 389.901 686.31 395.774 686.142C390.51 691.216 385.602 695.599 380.079 700.4L378.034 700.456L377.987 686.62Z" fill="#21110C"/>
<path d="M380.079 700.399L380.109 710.225L378.037 710.018L378.034 700.455L380.079 700.399Z" fill="#4F130B"/>
<path d="M640.829 786.964L646.022 787.768C651.266 788.667 657.367 789.554 662.485 790.73C665.205 791.337 667.935 791.892 670.675 792.396C671.641 794.534 672.179 795.632 672.831 797.872C669.901 800.413 662.887 798.009 657.097 799.203C649.609 798.65 626.844 793.856 618.637 792.212C623.507 791.795 626.539 791.448 631.473 791.729C634.709 792.684 640.465 794.258 643.64 793.305L644.321 791.225C643.173 789.757 642.027 788.391 640.829 786.964Z" fill="#171614"/>
<path d="M596.228 779.35C598.471 779.634 600.838 779.884 603.054 780.27C609.212 781.603 637.573 785.289 640.829 786.964C642.027 788.391 643.173 789.757 644.321 791.225L643.64 793.305C640.465 794.258 634.709 792.684 631.473 791.729L634.32 790.595C625.723 790.848 608.438 787.212 600.501 783.137C598.343 782.029 599.18 781.686 596.123 781.53L596.228 779.35Z" fill="#13120E"/>
<path d="M543.222 528.366L546.203 524.387C547.627 527.256 548.082 529.545 550.349 530.867C552.215 529.263 553.707 527.232 555.354 525.915C552.07 534.549 548.168 545.731 544.339 553.936C544.008 549.34 543.462 538.127 542.647 534.059C542.997 532.871 543.118 529.763 543.222 528.366Z" fill="#c72707"/>
<path d="M576.58 488.893C579.616 491.173 580.435 493.42 583.35 493.924C584.159 490.037 584.488 488.178 586.305 484.689L586.877 485.608C585.731 492.756 586.744 497.224 586.055 503.27L583.243 501.74C581.82 508.073 583.616 533.783 582.33 544.297C581.438 532.435 582.057 511.214 582.018 498.644C580.134 495.456 578.366 492.142 576.58 488.893Z" fill="#B5604A"/>
<path d="M540.931 568.348L542.201 566.092C543.914 569.274 543.622 681.27 543.076 691.572C543.708 713.67 544.522 747.462 543.739 769.446L525.904 766.986C518.481 767.056 493.156 762.138 485.074 760.685C478.476 759.229 474.014 758.525 467.296 757.696C458.123 755.34 438.043 751.766 428.484 750.703C423.838 749.879 419.087 749.149 414.422 748.383C414.147 732.824 415.446 708.242 413.583 692.493C413.544 692.165 412.654 690.828 412.409 687.797C415.885 683.304 424.934 676.951 429.845 673.21C437.53 666.641 447.399 657.37 457.54 655.043L467.033 652.888L483.348 649.529C491.397 648.354 501.308 646.074 509.552 644.525C514.234 635.975 521.825 617.533 525.191 608.112C530.242 594.449 534.794 581.575 540.931 568.348Z" fill="#c72707"/>
<path d="M429.845 673.21C437.53 666.641 447.399 657.37 457.54 655.043L467.033 652.888C466.817 687.824 466.904 722.761 467.296 757.696C458.123 755.34 438.043 751.766 428.484 750.703C423.838 749.879 419.087 749.149 414.422 748.383C414.147 732.824 415.446 708.242 413.583 692.493C413.544 692.165 412.654 690.828 412.409 687.797C415.885 683.304 424.934 676.951 429.845 673.21Z" fill="#c72707"/>
<path d="M429.845 673.21C429.933 682.96 431.441 744.381 429.625 749.96L428.484 750.703C423.838 749.879 419.087 749.149 414.422 748.383C414.147 732.824 415.446 708.242 413.583 692.493C413.544 692.165 412.654 690.828 412.409 687.797C415.885 683.304 424.934 676.951 429.845 673.21Z" fill="#F4F2E8"/>
<path d="M457.459 658.454C459.233 658.423 460.271 658.655 461.909 659.334C463.719 666.263 464.856 744.826 461.996 750.87C457.557 753.539 449.77 750.567 444.965 749.404L433.839 747.229C433.789 735.705 431.932 681.7 434.703 675.334C437.895 667.998 450.309 661.346 457.459 658.454Z" fill="#F03906"/>
<path d="M540.931 568.348L542.201 566.092C543.914 569.274 543.622 681.27 543.076 691.572C543.708 713.67 544.522 747.462 543.739 769.446L525.904 766.986C524.85 713.27 524.683 661.878 525.191 608.112C530.242 594.449 534.794 581.575 540.931 568.348Z" fill="#F4F2E8"/>
<path d="M540.931 568.348L542.201 566.092C543.914 569.274 543.622 681.27 543.076 691.572C541.056 672.727 544.749 575.537 540.931 568.348Z" fill="#FDFDFB"/>
<path d="M483.348 649.528C487.511 654.971 484.56 748.176 485.074 760.684C478.476 759.228 474.014 758.524 467.296 757.695C466.904 722.76 466.817 687.823 467.033 652.887L483.348 649.528Z" fill="#F4F2E8"/>
<path d="M520.652 629.92C521.351 649.006 520.55 668.254 520.881 687.369C521.315 712.416 522.85 737.514 521.551 762.555C511.799 762.19 502.907 760.479 493.446 758.144C491.212 757.669 490.827 757.402 489.097 755.891C487.636 748.226 488.112 659.279 489.765 653.497C495.781 650.051 503.524 648.814 510.22 646.895C515.002 641.755 516.838 635.661 520.652 629.92Z" fill="#F03906"/>
<path d="M790.581 80.6216C781.596 76.6596 762.386 68.6496 755.221 63.3246L755.065 62.0606C765.24 52.8796 849.763 5.8751 863.703 0C863.502 6.8105 863.015 13.9415 862.309 20.7266C858.7 55.4106 856.994 91.4826 851.829 125.912C843.466 121.131 828.453 107.774 820.035 101.006C810.768 116.872 800.273 132.084 790.631 147.708C754.347 206.34 717.452 264.592 679.952 322.454C669.161 339.248 658.757 356.297 648.107 373.154C642.161 382.566 632.663 398.745 625.215 406.653C613.214 396.11 585.634 359.18 575.659 345.171C562.36 364.5 550.516 385.2 537.901 405.056L449.169 545.426C437.068 564.687 422.423 589.911 409.79 607.964C401.569 622.8 388.53 640.83 379.273 656.549C378.111 637.894 376.35 628.574 372.41 610.634C382.655 591.659 397.609 569.37 409.173 550.875L474.005 446.546L529.883 356.951C541.69 337.704 558.954 307.39 572.71 290.595C584.035 300.156 612.081 337.497 621.284 350.121C641.343 320.822 659.207 290.759 677.923 260.612C714.981 200.307 752.535 140.308 790.581 80.6216Z" fill="#F03906"/>
<path d="M790.581 80.6216C781.596 76.6596 762.386 68.6496 755.221 63.3246L755.065 62.0606C765.24 52.8796 849.763 5.8751 863.703 0C863.502 6.8105 863.015 13.9415 862.309 20.7266C858.7 55.4106 856.994 91.4826 851.829 125.912C843.466 121.131 828.453 107.774 820.035 101.006C810.768 116.872 800.273 132.084 790.631 147.708C754.347 206.34 717.452 264.592 679.952 322.454C669.161 339.248 658.757 356.297 648.107 373.154C642.161 382.566 632.663 398.745 625.215 406.653C613.214 396.11 585.634 359.18 575.659 345.171C585.869 346.46 613.621 397.211 625.504 399.606C631.947 396.773 653.053 359.298 657.626 352.133L734.698 231.134C752.252 203.569 770.546 176.546 786.429 147.949C791.921 138.063 803.759 124.571 807.763 114.731C822.551 78.3896 834.433 116.769 848.075 116.117C851.321 112.612 851.667 90.6326 852.101 84.1766C853.501 63.3766 860.328 28.5826 858.677 8.6237C854.303 6.1845 839.384 17.148 834.799 19.7173C811.205 32.9376 785.529 45.9376 763.837 62.0966C772.204 69.4026 791.369 73.4866 792.743 83.1706C787.888 93.0516 781.857 100.337 776.703 109.399C761.584 135.981 744.07 160.894 727.765 186.863L651.483 308.5C645.667 317.644 631.177 347.112 622.931 351.255C616.675 350.468 612.449 345.178 608.722 340.425C597.361 325.934 586.84 310.317 572.94 298.118C557.731 314.791 535.204 355.921 521.754 377.17L391.199 584.219C385.688 592.964 381.282 603.419 376 611.5C379.104 620.026 380.816 633.122 382.893 642.473C386.377 636.235 404.545 610.454 409.79 607.964C401.569 622.8 388.53 640.83 379.273 656.549C378.111 637.894 376.35 628.574 372.41 610.634C382.655 591.659 397.609 569.37 409.173 550.875L474.005 446.546L529.883 356.951C541.69 337.704 558.954 307.39 572.71 290.595C584.035 300.156 612.081 337.497 621.284 350.121C641.343 320.822 659.207 290.759 677.923 260.612C714.981 200.307 752.535 140.308 790.581 80.6216Z" fill="#c72707"/>
<path d="M798.109 172.299C809.412 169.982 832.469 167.477 844.133 166.896C846.434 184.795 843.332 201.965 844.758 218.493C849.46 209.53 859.98 186.936 866.782 181.794C870.045 181.146 868.616 180.859 871.271 182.272C874.185 192.403 849.909 230.861 844.943 242.911C832.035 264.251 821.134 287.275 808.333 308.767C806.126 312.472 798.809 324.549 797.788 327.91C790.919 340.004 784.16 352.159 777.511 364.375C776.703 360.691 774.188 347.734 775.598 344.716L798.279 304.776C797.557 260.621 797.5 216.457 798.109 172.299Z" fill="#c72707"/>
<path d="M844.758 218.494C849.46 209.53 859.98 186.937 866.782 181.795C870.045 181.147 868.616 180.859 871.271 182.272C874.185 192.403 849.909 230.862 844.943 242.912C832.035 264.252 821.134 287.275 808.333 308.767C806.126 312.472 798.809 324.549 797.788 327.91C790.919 340.004 784.16 352.16 777.511 364.376C776.703 360.692 774.188 347.734 775.598 344.716L798.279 304.776C813.181 276.714 831.021 246.658 844.758 218.494Z" fill="#13120E"/>
<path d="M831.938 171.578C834.621 170.501 834.761 170.767 837.721 170.981C840.428 173.575 840.377 173.489 841.289 177.531C842.684 183.718 841.115 215.056 839.242 219.574C832.589 235.623 816.637 266.492 807.08 280.837L803.421 286.345C800.527 280.193 800.369 187.101 802.686 177.03C807.108 173.379 825.782 171.835 831.938 171.578Z" fill="#F03906"/>
<path d="M730.126 295.02C745.921 291.431 758 291.332 774.035 290.926C774.546 308.166 773.574 327.751 774.766 344.546L775.598 344.716C774.188 347.734 776.703 360.692 777.511 364.376C773.953 371.305 775.271 380.235 774.367 388.191L774.065 378.647C771.998 384.894 734.019 441.887 729.193 443.509L728.993 442.229L727.305 443.152C727.094 437.872 726.848 432.593 726.567 427.317L729.129 422.488L730.126 295.02Z" fill="#171614"/>
<path d="M775.598 344.716C774.188 347.734 776.703 360.692 777.511 364.376C773.953 371.305 775.271 380.235 774.367 388.191L774.065 378.647C771.998 384.894 734.019 441.887 729.193 443.509L728.993 442.229L727.305 443.152C727.094 437.872 726.848 432.593 726.567 427.317L729.129 422.488C738.432 410.994 773.893 357.869 774.766 344.546L775.598 344.716Z" fill="#B5604A"/>
<path d="M728.993 442.229C734.299 431.475 746.361 416.125 753.379 405.588C760.956 394.211 766.371 383.517 773.51 372.165C774.754 373.912 774.144 375.922 774.065 378.647C771.998 384.894 734.019 441.887 729.193 443.509L728.993 442.229Z" fill="#21110C"/>
<path d="M351.224 657.191C364.277 683.61 361.706 709.483 354.031 737.952C353.079 741.481 349.184 744.374 348.838 745.89C343.835 767.791 339.902 790.468 337.714 812.607C336.67 823.17 336.683 858.337 331.859 863.456C327.497 863.562 327.408 861.351 325.967 857.538C321.34 864.713 293.483 868.711 284.141 870.552C281.282 860.69 280.462 853.405 279.582 843.252C277.96 843.94 277.62 843.999 275.926 844.46L274.949 842.927C275.887 838.559 277.728 836.587 280.327 832.888C290.451 818.111 300.717 803.678 308.954 787.726C311.161 783.452 314.257 777.033 317.376 773.595L318.766 773.971C320.793 778.255 317.855 787.103 316.619 791.858C331.454 764.751 334.588 742.039 345.458 717.793L346.301 716.459C349.407 716.108 347.825 716.04 351.341 718.473C352.64 694.669 350.914 679.245 351.224 657.191Z" fill="#171614"/>
<path d="M317.772 804.322C320.762 801.87 322.404 799.559 325.537 799.814C326.978 802.413 325.138 811.957 326.257 819.293C325.707 831.823 325.083 845.046 325.967 857.539C321.34 864.714 293.483 868.712 284.141 870.553C281.282 860.691 280.462 853.406 279.582 843.253C277.96 843.941 277.62 844 275.926 844.461L274.949 842.928C275.887 838.56 277.728 836.588 280.327 832.889C287.81 835.066 287.095 829.621 296.933 825.356C303.693 817.887 307.032 808.913 312.707 803.415C313.795 805.173 313.157 804.26 314.672 806.119L317.772 804.322Z" fill="#F03906"/>
<path d="M280.327 832.888C287.81 835.065 287.095 829.62 296.933 825.355C291.265 833.65 287.414 837.021 279.582 843.252C277.96 843.94 277.62 843.999 275.926 844.46L274.949 842.927C275.887 838.559 277.728 836.587 280.327 832.888Z" fill="#21110C"/>
<path d="M317.772 804.322C321.979 796.867 326.463 788.499 330.891 781.26C329.779 789.66 327.707 812.664 326.257 819.293C325.138 811.957 326.978 802.413 325.537 799.814C322.404 799.559 320.762 801.87 317.772 804.322Z" fill="#B5604A"/>
<path d="M345.458 717.794L346.301 716.46C349.407 716.109 347.825 716.041 351.341 718.474C350.874 726.543 349.615 734.547 347.58 742.369C346.805 736.227 346.248 721.603 345.458 717.794Z" fill="#DED2C0"/>
<path d="M664.707 501.339C664.4 486.153 662.155 422.067 665.891 411.07C669.773 407.314 698.595 407.725 706.06 407.502C707.07 420.577 705.485 440.024 707.386 452.226C713.205 444.083 720.366 435.291 726.567 427.317C726.848 432.593 727.094 437.872 727.305 443.152C721.116 452.42 713.433 462.042 706.615 470.963C695.658 484.037 676.74 505.998 664.032 517.437C655.758 525.539 631.925 550.91 622.009 551.436C616.343 549.248 590.182 511.477 586.055 503.271C586.744 497.225 585.731 492.757 586.877 485.609C599.395 503.542 611.209 521.751 623.893 539.551C637.93 527.284 651.543 514.539 664.707 501.339Z" fill="#c72707"/>
<path d="M726.567 427.316C726.848 432.592 727.094 437.871 727.305 443.151C721.116 452.419 713.433 462.041 706.615 470.962C695.658 484.036 676.74 505.997 664.032 517.436C655.758 525.538 631.925 550.909 622.009 551.435C616.343 549.247 590.182 511.476 586.055 503.27C586.744 497.224 585.731 492.756 586.877 485.608C599.395 503.541 611.209 521.75 623.893 539.55C637.93 527.283 651.543 514.538 664.707 501.338C677.516 489.202 697.523 466.628 707.386 452.225C713.205 444.082 720.366 435.29 726.567 427.316Z" fill="#13120E"/>
<path d="M680.466 412.657C687.981 412.775 693.794 410.978 701.066 414.079C702.605 415.854 703.449 416.669 703.849 419.078C705.126 426.761 703.308 443.408 703.43 452.048C696.415 461.577 688.866 470.616 681.052 479.497C676.713 483.614 672.422 487.71 668.39 492.134C667.825 480.369 665.839 422.391 669.173 414.561C672.568 412.525 676.62 412.819 680.466 412.657Z" fill="#F03906"/>
<path d="M362.846 184.584C363.841 185.024 364.844 185.464 365.5 186.39C370.602 193.589 368.916 343.019 367.82 360.852C367.533 365.509 366.831 369.861 365.596 374.367C362.751 374.094 364.025 374.577 361.698 372.723C360.005 367.004 359.66 308.249 360.405 300.578C362.353 280.516 356.553 198.504 362.846 184.584Z" fill="#13120E"/>
<path d="M89.374 375.835C91.425 374.862 93.84 375.066 95.698 376.368C97.557 377.671 98.573 379.871 98.358 382.131C98.143 384.39 96.731 386.36 94.661 387.289C91.506 388.704 87.8 387.317 86.351 384.177C84.902 381.038 86.251 377.318 89.374 375.835Z" fill="#F4F2E8"/>
<path d="M484.221 200.334C485.033 194.662 486.419 178.31 490.202 175.326L492.744 175.682L495.672 175.743L495.101 179.704L493.145 179.246C492.045 186.488 489.792 210.085 484.588 213.708C479.523 210.379 478.543 201.544 477.099 195.368C476.237 200.825 475.637 216.385 469.381 216.804C466.34 213.22 460.054 185.388 463.187 181.091L465.204 181.757C467.356 184.279 469.746 197.342 471.028 202.037C472.064 196.454 472.727 189.593 476.317 185.342L478.169 185.199C481.797 188.711 482.825 195.194 484.221 200.334Z" fill="#13120E"/>
<path d="M495.672 175.743L495.101 179.704L493.145 179.246L492.744 175.682L495.672 175.743Z" fill="#FDFDFB"/>
<path d="M447.539 183.053C464.882 185.214 462.754 212.766 450.117 221.06C432.139 218.628 435.66 192.458 447.539 183.053Z" fill="#171614"/>
<path d="M447.432 189.399C448.831 189.755 449.699 190.221 451.032 190.797C456.214 197.463 454.586 208 450.303 214.714C448.803 214.468 448.059 214.141 446.614 213.666C440.641 206.934 443.457 196.447 447.432 189.399Z" fill="#F2F1E8"/>
<path d="M400.031 244.226C403.791 244.838 406.863 245.526 409.612 248.355C412.894 251.732 414.362 256.347 414.257 260.999C414.077 268.944 410.728 274.437 405.172 279.809C401.832 280.958 399.076 282.279 395.586 280.95C392.095 274.041 393.212 255.699 393.948 247.789C395.905 245.378 397.156 245.249 400.031 244.226Z" fill="#13120E"/>
<path d="M399.584 249.842C400.555 250.186 401.538 250.506 402.477 250.929C405.249 252.18 407.303 254.767 408.202 257.652C409.808 262.812 407.568 267.512 405.076 271.914C403.719 273.078 402.794 273.652 401.085 274.186C397.192 269.248 399.204 256.138 399.584 249.842Z" fill="#F2F1E8"/>
<path d="M813.831 817.799C821.125 818.941 840.557 823.161 845.977 823.18C852.441 824.198 870.568 825.972 874.205 830.494L874.778 834.153C868.982 840.568 825.236 830.301 814.749 828.437C818.349 828.067 819.422 828.195 822.604 826.355C821.877 823.269 818.627 822.332 815.261 819.163L813.831 817.799Z" fill="#171614"/>
<path d="M421.733 188.289C437.63 187.902 437.007 198.336 429.72 208.558C432.441 213.802 434.625 216.362 433.475 222.002L431.856 222.571C428.619 220.734 427.846 218.049 426.137 214.617L424.379 211.702C420.009 212.205 424.103 222.949 419.739 226.676C414.485 219.821 415.452 201.597 416.743 193.208C417.189 190.31 419.556 189.541 421.733 188.289Z" fill="#13120E"/>
<path d="M422.623 193.6C425.774 194.336 425.98 194.065 428.24 196.242C429.012 200.421 428.678 199.317 427.149 203.886C424.442 204.597 425.813 204.676 422.982 203.958C421.386 201.017 422.272 197.12 422.623 193.6Z" fill="#F2F1E8"/>
<path d="M537.374 164.679C538.588 165.207 539.315 165.84 540.424 166.613C541.996 170.849 542.201 198.046 541.427 202.668C539.156 204.754 540.493 204.261 537.584 204.674C535.271 201.653 536.813 196.277 534.699 190.577C531.855 188.734 532.705 189.349 528.19 190.203C525.385 192.872 527.064 202.367 525.632 208.026C524.068 207.586 521.63 207.036 521.297 205.266C519.66 196.573 518.558 177.086 521.987 169.353L524.088 168.621C527.73 171.097 523.275 174.797 526.836 182.175C530.134 184.258 530.126 183.307 535.27 182.535C535.193 175.99 534.515 170.408 537.374 164.679Z" fill="#171614"/>
<path d="M468.01 231.507L471.151 232.149C475.454 236.199 477.843 247.675 479.245 253.404C480.348 257.908 482.218 263.892 479.748 268.022C476.987 267.027 474.869 262.674 473.117 260.268L468.256 259.866C465.802 262.122 465.804 262.736 464.778 265.817C463.819 268.694 463.265 270.423 460.475 271.77L459.329 270.546C458.159 260.271 463.743 240.99 468.01 231.507Z" fill="#13120E"/>
<path d="M469.68 243.982C471.913 246.442 472.312 251.183 472.51 254.408C470.788 254.291 470.071 254.162 468.533 253.584C467.592 250.275 468.88 247.283 469.68 243.982Z" fill="#F2F1E8"/>
<path d="M425.069 238.351C428.128 239.375 428.748 239.252 430.264 242.24C433.664 248.945 439.437 268.436 437.13 275.577C431.823 276.701 433.187 269.427 429.304 266.912C427.595 267.397 426.065 267.977 424.449 268.714C422.742 272.278 421.09 276.022 417.303 277.72L416.297 276.329C416.553 264.819 421.142 249.274 425.069 238.351Z" fill="#171614"/>
<path d="M426.788 252.033C427.319 252.601 427.234 252.458 427.736 253.507C429.333 256.843 429.239 259.155 427.957 262.525L425.819 261.595C424.538 258.722 426.055 254.961 426.788 252.033Z" fill="#F2F1E8"/>
<path d="M401.236 191.729C405.205 191.905 410.269 193.091 410.456 197.832C404.317 199.46 397.165 200.898 396.665 208.564C396.329 213.703 396.921 222.64 403.197 223.184C406.221 220.99 407.489 220.023 406.34 216.535C403.453 214.743 402.823 214.867 401.174 212.177C403.012 209.922 404.047 209.882 406.829 209.018L407.789 208.73C411.019 209.345 409.661 208.649 412.048 210.816C414.03 217.96 409.96 227.243 403.206 229.594C394.409 232.657 391.373 217.542 391.829 211.931C392.679 201.473 393.806 198.357 401.236 191.729Z" fill="#13120E"/>
<path d="M495.672 175.742C498.475 172.142 509.349 171.286 514.144 170.612C516.763 172.411 516.016 171.215 517.1 173.809C515.099 177.146 509.794 178.147 509.545 178.776C506.952 185.32 511.649 204.346 507.552 209.967L505.713 210.326C500.181 204.965 505.498 188.094 502.716 179.885L500.907 179.972C498.6 180.07 497.436 179.958 495.101 179.703L495.672 175.742Z" fill="#13120E"/>
<path d="M454.722 234.49C455.373 234.501 456.995 235.189 457.64 235.407L457.984 237.349C456.844 239.213 455.939 239.788 454.01 240.666C453.723 240.796 452.103 241.469 451.819 241.706C447.362 245.432 452.811 265.54 450.487 271.981C449.953 273.461 449.902 273.03 448.213 273.835L445.967 273.004C445.341 263.594 446.749 253.107 444.701 243.978C442.083 243.621 439.79 243.258 437.306 242.28L436.984 240.673L438.923 237.848C443.873 235.801 449.454 235.325 454.722 234.49Z" fill="#13120E"/>
<path d="M365.114 534.217L367.071 534.31C368.002 547.838 368.377 566.438 367.824 579.857C362.779 563.368 361.762 551.085 365.114 534.217Z" fill="#171614"/>
<path d="M366.242 527.832L367.769 529.692L367.071 534.31L365.114 534.217L366.242 527.832Z" fill="#575652"/>
<path d="M366.242 527.832L366.932 525.187L367.784 525.118C368.081 527.806 368.178 527.088 367.769 529.692L366.242 527.832Z" fill="#BCBBB7"/>
</svg>
