<svg width="969" height="702" viewBox="0 0 969 702" fill="none" xmlns="http://www.w3.org/2000/svg">
<path d="M192.394 138.532C193.207 135.302 193.925 125.742 194.156 121.832C195.004 107.532 221.99 46.6523 238.99 50.1423C241.629 52.3623 241.644 53.2223 242.71 56.4623C246.655 66.6123 252.124 88.7722 254.115 99.8522C261.5 88.0822 277.757 60.7622 290.167 55.1322C293.794 55.2122 292.267 54.5822 294.89 57.1222C298.663 67.2222 293.28 105.182 291.624 117.552C292.377 120.642 297.943 123.272 300.928 125.442C306.252 129.292 309.577 132.372 313.863 137.282C315.697 140.402 317.619 143.872 319.713 146.772L325.964 162.292C338.506 172.022 347.065 176.212 362.028 181.682C366.553 183.142 382.056 186.672 378.7 194.212C374.265 204.172 363.708 213.932 353.952 218.402C331.386 229.212 296.53 217.862 284.831 245.762C276.539 265.532 294.019 311.922 285.735 325.462L284.249 325.442L283.028 323.072L281.112 321.362C282.263 350.952 276.042 352.662 273.701 375.162C298.783 382.422 323.973 389.292 349.261 395.792C349.763 398.372 344.733 407.292 343.194 411.632L344.576 415.842L344.426 416.932L348.616 420.822L348.564 420.342C352.399 427.812 353.276 429.452 360.051 434.942L359.973 436.692L355.971 439.502L357.048 440.292C337.23 447.962 326.588 436.892 309.313 437.352C283.57 438.042 257.536 439.902 231.625 440.232C216.411 452.252 200.96 463.952 185.282 475.352L532.047 475.412C631.753 474.222 731.468 473.842 831.181 474.272C814.213 462.362 790.939 443.392 774.956 429.742C763.057 428.822 751.247 427.842 739.311 427.792C723.445 427.722 709.697 437.042 694.154 432.722C695.174 433.012 678.984 437.892 675.074 438.382C673.582 441.442 672.147 444.962 669.858 447.372C664.768 456.392 644.728 455.012 635.405 454.212C612.203 452.192 607.51 404.742 609.096 388.452C610.485 374.182 674.369 372.802 679.826 384.512C685.587 396.872 689.381 389.652 700.363 397.892C707.527 394.312 719.161 390.862 726.806 388.702C718.716 383.852 699.507 368.072 691.637 361.862C682.893 361.882 664.951 363.022 657.539 359.672L657.769 358.472C667.494 355.202 682.293 356.222 692.883 356.362C703.595 363.082 722.737 378.202 730.965 387.122C741.106 384.462 749.223 382.632 759.432 379.382C755.523 369.792 750.154 357.852 749.363 347.572C748.969 342.452 750.854 338.502 749.783 332.692L746.728 334.182C736.988 326.192 761.015 288.192 754.71 273.042C746.045 252.232 721.593 260.062 705.064 251.002C698.436 246.742 686.961 237.152 684.794 229.642C681.948 219.782 694.148 217.742 700.921 216.022C737.573 200.012 719.866 189.052 748.213 167.762C746.176 157.302 744.229 115.622 755.593 112.082C767.604 114.702 784.097 146.262 792.095 157.832C796.178 147.712 808.841 114.052 820.579 113.522C823.83 114.712 824.165 115.672 826.192 118.462C832.632 127.082 839.306 145.432 841.625 156.062C847.828 170.202 847.401 183.332 842.737 197.732C853.609 211.362 850.196 239.332 851.907 255.852C853.439 270.652 866.876 298.062 876.136 308.992C877.633 307.152 878.843 305.262 881.657 305.352C903.72 306.082 927.704 310.542 948.938 316.512C960.263 319.692 969.279 329.102 968.739 341.372C967.609 367.702 961.762 393.792 958.375 419.912C954.718 445.812 951.307 470.342 949.394 496.392C948.606 507.122 943.552 518.752 944.641 529.382C946.031 542.952 942.745 557.052 936.581 569.312C912.79 613.782 851.273 625.042 805.621 617.552C805.958 616.602 806.834 615.102 807.341 614.152C798.027 612.142 789.995 612.162 780.032 608.562L779.288 606.732C776.5 605.852 773.084 605.272 770.162 604.672L779.188 596.832C773.41 594.882 766.717 593.012 760.816 591.202C767.447 586.942 780.001 581.552 787.518 578.062C781.557 574.322 772.275 572.862 769.588 568.722L771.581 566.572C767.949 565.042 762.21 564.972 758.059 564.692C758.321 564.422 758.583 564.152 758.845 563.882L760.189 562.562C765.945 556.852 773.597 552.102 780.367 547.472C767.735 542.222 759.031 542.822 745.684 542.632C750.506 535.822 759.896 528.292 761.827 525.042C739.719 531.052 725.466 538.232 708.144 553.672C704.03 557.342 694.835 566.222 690.887 569.172C703.249 539.802 732.162 523.002 762.662 516.522C769.174 515.132 779.57 514.842 784.269 510.092C785.049 506.912 785.36 508.282 784.047 505.752C776.736 503.272 688.916 505.582 674.854 505.552L516.305 504.552C419.972 505.772 323.628 505.922 227.292 505.012C226.853 521.082 226.665 537.162 226.728 553.242C270.895 543.272 318.558 536.852 359.203 562.502C385.758 579.402 404.698 605.962 412.017 636.582C412.868 640.302 413.49 643.942 410.365 646.702C410.08 643.492 408.793 642.262 406.92 639.622C374.892 621.152 333.665 646.822 304.54 657.972C298.818 661.282 291.074 664.382 284.816 666.722C280.882 668.802 280.387 668.952 276.032 670.042C263.218 675.482 235.35 680.272 220.519 681.592C211.786 692.932 183.865 687.462 173.567 691.192C169.134 691.432 159.859 690.112 155.254 689.142C94.2484 676.192 25.6198 632.392 28.1126 562.352C28.4406 553.132 31.166 544.972 32.2335 536.332L32.4341 534.622C21.0039 518.492 17.0157 467.852 13.7676 446.192L4.51554 383.702C-2.17425 336.792 -9.44546 318.982 46.6401 311.092C58.4911 309.422 74.0894 305.002 86.0274 305.642C92.6494 300.112 100.556 289.932 106.619 283.872C134.743 255.602 161.883 230.362 169.75 189.352C171.856 178.372 183.529 145.552 192.394 138.532Z" fill="#F03906"/>
<path d="M748.214 167.762C746.177 157.302 744.23 115.622 755.594 112.082C767.605 114.702 784.098 146.262 792.096 157.832C796.179 147.712 808.842 114.052 820.58 113.522C823.831 114.712 824.166 115.672 826.193 118.462C832.633 127.082 839.307 145.432 841.626 156.062C847.829 170.202 847.402 183.332 842.738 197.732C853.61 211.362 850.197 239.332 851.908 255.852C853.44 270.652 866.877 298.062 876.137 308.992C877.634 307.152 878.844 305.262 881.658 305.352C903.721 306.082 927.705 310.542 948.939 316.512C960.264 319.692 969.28 329.102 968.74 341.372C967.61 367.702 961.763 393.792 958.376 419.912C954.719 445.812 951.308 470.342 949.395 496.392C948.607 507.122 943.553 518.752 944.642 529.382C946.032 542.952 942.746 557.052 936.582 569.312C912.791 613.782 851.274 625.042 805.622 617.552C805.959 616.602 806.835 615.102 807.342 614.152C798.028 612.142 789.996 612.162 780.033 608.562L779.289 606.732C776.501 605.852 773.085 605.272 770.163 604.672L779.189 596.832C773.411 594.882 766.718 593.012 760.817 591.202C767.448 586.942 780.002 581.552 787.519 578.062C781.558 574.322 772.276 572.862 769.589 568.722L771.582 566.572C767.95 565.042 762.211 564.972 758.06 564.692C758.322 564.422 758.584 564.152 758.846 563.882L760.19 562.562C765.946 556.852 773.598 552.102 780.368 547.472C767.736 542.222 759.032 542.822 745.685 542.632C750.507 535.822 759.897 528.292 761.828 525.042C803.869 510.102 861.631 538.372 900.397 513.212C902.187 512.052 902.643 508.792 902.497 506.732C898.947 506.402 893.161 511.252 888.372 513.252C881.927 515.902 875.077 517.412 868.119 517.732C863.249 518.002 796.804 513.082 792.998 511.482C792.468 508.102 792.235 508.172 793.298 504.992C800.892 503.732 826.706 504.322 835.801 504.442L838.62 502.272C838.036 494.702 838.038 484.852 837.81 477.102C827.249 464.182 818.823 459.242 805.843 449.692C804.253 448.522 803.75 446.942 803.198 445.152L804.66 445.442C806.494 442.252 807.098 437.702 807.212 434.062L805.368 432.482L797.86 432.122C797.772 431.562 797.683 431.002 797.595 430.442C788.852 427.892 781.329 429.402 774.74 423.182C778.9 419.782 785.219 416.492 782.426 410.972C778.701 409.052 766.351 407.522 761.498 406.752C773.539 403.632 783.489 403.482 795.587 401.392C795.16 394.252 799.28 392.532 798.328 387.722L795.121 388.622C790.567 399.292 785.023 397.472 774.755 397.552C767.953 381.402 760.744 366.342 756.549 348.992C754.47 340.382 759.051 322.422 756.858 318.142C755.515 318.822 754.589 319.352 753.325 320.252C751.914 312.602 761.158 294.132 762.171 283.722C764.974 254.912 739.351 253.042 717.468 249.882C720.858 247.872 723.09 249.772 728.003 248.022C734.743 247.112 744.384 246.602 749.15 241.552C740.427 238.992 703.027 250.212 697.24 235.012L699.213 230.702C695.079 224.772 696.963 221.422 700.922 216.022C737.574 200.012 719.867 189.052 748.214 167.762Z" fill="#F03906"/>
<path d="M876.136 308.993C877.633 307.153 878.843 305.263 881.657 305.353C903.72 306.083 927.704 310.543 948.938 316.513C960.263 319.693 969.279 329.103 968.739 341.373C967.609 367.703 961.762 393.793 958.375 419.913C954.718 445.813 951.307 470.343 949.394 496.393C948.606 507.123 943.552 518.753 944.641 529.383C946.031 542.953 942.745 557.053 936.581 569.313C934.967 564.893 936.519 559.723 937.811 555.903C948.441 524.463 938.185 504.453 922.238 479.003C923.72 481.363 923.186 452.823 922.885 449.603L922.764 449.933C920.852 417.873 920.634 401.713 908.066 370.403C899.43 348.893 887.284 335.413 876.945 315.243C875.842 313.083 875.856 311.313 876.136 308.993Z" fill="#171614"/>
<path d="M700.213 230.792C737.551 235.532 775.022 215.392 809.312 233.442C813.424 235.612 824.07 243.622 824.81 248.262C820.245 250.742 809.846 247.372 804.219 246.182C808.697 251.812 813.74 257.882 817.83 263.722C811.51 263.252 800.325 261.882 794.668 262.972C793.762 267.902 799.59 279.672 801.695 284.602C806.463 295.772 809.61 304.692 811.731 316.662C812.152 321.042 813.254 327.682 812.07 331.642L810.353 332.742C807.087 331.452 805.81 329.642 803.386 327.112C802.429 346.692 795.168 365.362 796.903 381.982C796.333 384.132 795.761 386.512 795.12 388.622C790.566 399.292 785.022 397.472 774.754 397.552C767.952 381.402 760.743 366.342 756.548 348.992C754.469 340.382 759.05 322.422 756.857 318.142C755.514 318.822 754.588 319.352 753.324 320.252C751.913 312.602 761.157 294.132 762.17 283.722C764.973 254.912 739.35 253.042 717.467 249.882C720.857 247.872 723.089 249.772 728.002 248.022C734.742 247.112 744.383 246.602 749.149 241.552C740.426 238.992 703.026 250.212 697.239 235.012L699.212 230.702L700.213 230.792Z" fill="#F4F2E8"/>
<path d="M820.832 136.502C824.735 137.702 826.444 141.612 829.507 145.282C833.259 153.972 835.579 148.452 841.094 156.462L841.626 156.062C847.829 170.202 847.402 183.332 842.738 197.732C853.61 211.362 850.197 239.332 851.908 255.852C853.44 270.652 866.877 298.062 876.137 308.992C875.857 311.312 875.843 313.082 876.946 315.242C887.285 335.412 899.431 348.892 908.067 370.402C920.635 401.712 920.853 417.872 922.765 449.932L922.885 449.602C923.186 452.822 923.721 481.362 922.239 479.002C938.186 504.452 948.442 524.462 937.812 555.902C936.52 559.722 934.968 564.892 936.582 569.312C912.791 613.782 851.274 625.042 805.622 617.552C805.959 616.602 806.835 615.102 807.342 614.152C798.028 612.142 789.996 612.162 780.033 608.562L779.289 606.732C791.252 607.002 808.623 610.932 823.524 611.202C855.269 612.262 892.835 606.812 916.737 583.422C945.111 555.642 944.875 512.172 917.129 484.462C924.75 448.732 917.005 397.002 901.241 364.212C894.53 350.252 887.055 339.572 878.914 326.492C868.784 310.212 855.658 292.892 849.199 274.802C842.539 256.142 846.25 235.812 843.334 216.682C842.578 211.722 843.54 208.422 841.534 203.282L839.975 202.602L837.218 205.432C837.085 196.162 845.448 162.482 835.39 155.702L833.979 158.842C832.165 158.572 833.116 158.672 831.124 158.562C828.129 167.142 833.617 183.572 824.276 192.382L822.587 191.782L821.463 188.732C827.93 168.272 824.556 156.792 820.832 136.502Z" fill="#21110C"/>
<path d="M748.214 167.762C746.177 157.302 744.23 115.622 755.594 112.082C767.605 114.702 784.098 146.262 792.096 157.832C796.179 147.712 808.842 114.052 820.58 113.522C823.831 114.712 824.166 115.672 826.193 118.462C832.633 127.082 839.307 145.432 841.626 156.062L841.094 156.462C835.579 148.452 833.259 153.972 829.507 145.282C826.444 141.612 824.735 137.702 820.832 136.502L819.871 133.072C817.332 130.162 815.834 130.022 812.185 128.802C811.465 130.332 809.199 134.882 808.734 136.232C804.334 142.842 796.096 166.962 792.169 168.862C791.145 166.272 791.304 165.462 791.179 162.702L789.809 161.332C775.431 161.752 756.555 166.482 746.35 177.102C737.732 186.062 734.522 197.962 726.776 206.992C722.104 212.442 707.832 218.462 701.231 221.612C701.101 221.672 700.454 229.412 700.214 230.792L699.213 230.702C695.079 224.772 696.963 221.422 700.922 216.022C737.574 200.012 719.867 189.052 748.214 167.762Z" fill="#21110C"/>
<path d="M826.193 118.462C832.633 127.082 839.306 145.432 841.625 156.062L841.094 156.462C835.579 148.452 833.258 153.972 829.506 145.282L829.216 143.702C831.39 133.952 825.309 124.402 826.193 118.462Z" fill="#13120E"/>
<path d="M812.185 128.802C813.963 125.402 814.877 122.542 818.114 120.742C824.974 121.982 827.531 137.592 829.217 143.702L829.507 145.282C826.444 141.612 824.735 137.702 820.832 136.502L819.871 133.072C817.332 130.162 815.834 130.022 812.185 128.802Z" fill="#B5604A"/>
<path d="M753.789 127.812C758.832 135.293 763.362 149.373 764.942 158.312C763.204 160.312 760.9 160.793 758.471 161.723C756.595 162.673 754.898 163.312 752.865 163.872C748.982 155.222 752.714 137.413 753.789 127.812Z" fill="#E0B299"/>
<path d="M767.794 151.572C766.557 146.472 764.363 140.702 766.608 136.082L768.537 135.742C772.556 138.122 773.407 140.032 776.197 143.962C779.58 148.152 781.277 150.762 784.128 155.252C779.664 156.262 773.541 158.472 769.76 157.102C768.141 154.642 768.333 154.532 767.794 151.572Z" fill="#C47B5E"/>
<path d="M812.184 128.803C815.833 130.023 817.331 130.163 819.87 133.073L820.831 136.503C824.555 156.793 827.929 168.273 821.462 188.733L821.082 189.453L819.82 189.663L815.565 185.723C812.779 183.473 812.206 182.593 810.051 179.863C791.897 180.053 797.302 159.903 771.498 167.813C764.525 169.943 758.077 173.513 752.571 178.283C746.824 183.293 743.435 188.313 739.528 194.713C729.026 211.923 720.905 218.323 702.595 226.313C709.005 227.263 710.727 228.073 722.849 227.573C751.567 226.393 788.685 213.943 814.971 231.183C815.217 231.793 815.462 232.403 815.708 233.023C818.693 239.743 827.464 240.153 827.776 248.403C825.71 252.373 822.458 252.543 818.247 253.743C816.534 259.713 823.579 260.723 816.838 266.343C810.071 267.943 804.99 265.553 800.947 267.533C798.27 275.013 817.926 307.313 811.731 316.663C809.61 304.693 806.463 295.773 801.695 284.603C799.59 279.673 793.762 267.903 794.668 262.973C800.325 261.883 811.51 263.253 817.83 263.723C813.74 257.883 808.697 251.813 804.219 246.183C809.846 247.373 820.245 250.743 824.81 248.263C824.07 243.623 813.424 235.613 809.312 233.443C775.022 215.393 737.551 235.533 700.213 230.793C700.453 229.413 701.1 221.673 701.23 221.613C707.831 218.463 722.103 212.443 726.775 206.993C734.521 197.963 737.731 186.063 746.349 177.103C756.554 166.483 775.43 161.753 789.808 161.333L791.178 162.703C791.303 165.463 791.144 166.273 792.168 168.863C796.095 166.963 804.333 142.843 808.733 136.233C809.198 134.883 811.464 130.333 812.184 128.803Z" fill="#C47B5E"/>
<path d="M812.184 128.803C815.833 130.023 817.331 130.163 819.87 133.073L820.831 136.503C824.555 156.793 827.929 168.273 821.462 188.733L821.082 189.453L819.82 189.663L815.565 185.723C812.779 183.473 812.206 182.593 810.051 179.863L810.075 178.433C807.067 176.963 808.377 178.023 806.52 174.613L805.819 176.073C802.919 175.373 801.437 173.203 798.865 170.863C802.069 159.293 805.358 147.753 808.733 136.233C809.198 134.883 811.464 130.333 812.184 128.803Z" fill="#F4F2E8"/>
<path d="M813.13 171.152L818.471 147.942C820.489 160.782 821.451 171.222 815.961 183.662L815.565 185.722C812.779 183.472 812.207 182.592 810.052 179.862L810.076 178.432C807.068 176.962 808.378 178.022 806.521 174.612C808.339 167.582 809.274 162.752 810.435 155.562C811.366 160.752 812.264 165.942 813.13 171.152Z" fill="#13120E"/>
<path d="M810.076 178.432L811.576 176.732C812.926 179.352 813.823 181.652 815.961 183.662L815.566 185.723C812.78 183.473 812.207 182.592 810.052 179.862L810.076 178.432Z" fill="#DED2C0"/>
<path d="M837.217 205.433L839.974 202.603L841.533 203.283C843.539 208.423 842.577 211.723 843.333 216.683C846.249 235.813 842.538 256.143 849.198 274.803C855.657 292.893 868.783 310.213 878.913 326.493C887.054 339.573 894.529 350.253 901.24 364.213C917.004 397.003 924.749 448.733 917.128 484.463C944.874 512.173 945.11 555.643 916.736 583.423C892.834 606.813 855.268 612.263 823.523 611.203C808.622 610.933 791.251 607.003 779.288 606.733C776.5 605.853 773.084 605.273 770.162 604.673L779.188 596.833C773.41 594.883 766.717 593.013 760.816 591.203C767.447 586.943 780.001 581.553 787.518 578.063L788.869 578.343C786.884 583.623 779.05 584.253 774.121 589.523C774.337 592.563 779.847 594.943 781.068 597.903C782.404 601.133 778.514 597.633 781.137 602.853C823.565 609.353 864.325 612.743 902.652 590.013C907.624 587.063 911.469 584.283 915.473 580.023C928.457 565.923 935.227 547.203 934.26 528.063C933.514 509.813 927.981 499.393 914.912 487.283C914.28 478.573 915.043 454.123 915.074 444.413C915.23 395.533 901.322 368.803 876.686 328.983C864.051 308.563 851.532 293.303 843.916 269.683C839.08 254.683 845.082 218.893 837.217 205.433Z" fill="#C47B5E"/>
<path d="M835.801 504.442C823.747 511.902 800.869 500.952 797.157 510.322C800.447 512.692 815.087 508.932 819.765 509.432C837.243 511.302 854.85 515.942 872.553 513.622C880.955 512.522 895.76 502.472 904.208 506.502C908.547 515.542 891.811 523.772 885.112 525.412C846.028 534.982 801.762 515.692 763.096 529.542C760.245 530.602 756.851 536.032 755.247 538.582C762.947 539.602 773.528 540.002 779.261 544.662C782.633 553.772 769.607 556.952 769.705 561.502L772.879 564.192L772.875 565.592L771.582 566.572C767.95 565.042 762.211 564.972 758.06 564.692C758.322 564.422 758.584 564.152 758.846 563.882L760.19 562.562C765.946 556.852 773.598 552.102 780.368 547.472C767.736 542.222 759.032 542.822 745.685 542.632C750.507 535.822 759.897 528.292 761.828 525.042C803.869 510.102 861.631 538.372 900.397 513.212C902.187 512.052 902.643 508.792 902.497 506.732C898.947 506.402 893.161 511.252 888.372 513.252C881.927 515.902 875.077 517.412 868.119 517.732C863.249 518.002 796.804 513.082 792.998 511.482C792.468 508.102 792.235 508.172 793.298 504.992C800.892 503.732 826.706 504.322 835.801 504.442Z" fill="#C47B5E"/>
<path d="M796.904 381.982C799.638 376.412 800.932 371.722 805.402 367.782C807.224 369.762 808.527 370.962 807.934 374.392C806.632 381.902 806.183 398.912 799.637 403.202C795.32 406.022 789.466 403.342 785.453 409.722L788.203 414.132L786.365 418.152L787.186 419.492C796.908 421.732 810.208 425.822 819.463 420.452C831.874 413.272 834.052 384.422 843.893 375.922L844.771 376.582L844.785 376.862L846.164 377.792C845.906 392.202 838.524 417.482 828.544 428.442C824.673 432.692 817.672 433.172 812.176 432.942C809.904 432.832 807.634 432.682 805.368 432.482L797.86 432.122C797.772 431.562 797.683 431.002 797.595 430.442C788.852 427.892 781.329 429.402 774.74 423.182C778.9 419.782 785.219 416.492 782.426 410.972C778.701 409.052 766.351 407.522 761.498 406.752C773.539 403.632 783.489 403.482 795.587 401.392C795.16 394.252 799.28 392.532 798.328 387.722L795.121 388.622C795.762 386.512 796.334 384.132 796.904 381.982Z" fill="#A47465"/>
<path d="M844.784 376.862L846.163 377.792C845.905 392.202 838.523 417.482 828.543 428.442C824.672 432.692 817.671 433.172 812.175 432.942C809.903 432.832 807.633 432.682 805.367 432.482L797.859 432.122C797.771 431.562 797.682 431.002 797.594 430.442C788.851 427.892 781.328 429.402 774.739 423.182C784.845 424.312 807.897 427.662 816.604 426.062C834.121 422.832 836.694 387.732 844.784 376.862Z" fill="#340905"/>
<path d="M796.904 381.982C799.638 376.412 800.932 371.722 805.402 367.782C806.932 376.802 801.944 394.852 795.587 401.392C795.16 394.252 799.28 392.532 798.328 387.722L795.121 388.622C795.762 386.512 796.334 384.132 796.904 381.982Z" fill="#340905"/>
<path d="M846.164 377.792C854.877 385.862 839.299 422.722 832.441 430.712C826.279 437.902 813.383 431.582 810.803 443.822L811.817 446.022C818.842 447.612 832.064 433.192 840.052 431.942C850.227 430.332 881.197 430.412 879.298 446.102C874.783 435.952 858.304 434.022 848.538 435.312C833.395 437.322 825.162 442.992 815.972 454.442C811.911 451.492 808.495 448.642 804.66 445.442C806.494 442.252 807.098 437.702 807.212 434.062L805.368 432.482C807.634 432.682 809.904 432.832 812.176 432.942C817.672 433.172 824.673 432.692 828.544 428.442C838.524 417.482 845.906 392.202 846.164 377.792Z" fill="#C47B5E"/>
<path d="M815.971 454.443C825.161 442.993 833.394 437.323 848.537 435.313C858.303 434.023 874.782 435.953 879.297 446.103C878.717 446.023 878.136 445.943 877.555 445.863C853.575 439.343 838.413 437.003 820.844 458.083C827.231 462.933 834.558 467.823 839.093 474.353C839.23 481.503 839.883 495.813 838.619 502.273C838.035 494.703 838.037 484.853 837.809 477.103C827.248 464.183 818.822 459.243 805.842 449.693C804.252 448.523 803.749 446.943 803.197 445.153L804.659 445.443C808.494 448.643 811.91 451.493 815.971 454.443Z" fill="#2C0904"/>
<path d="M857.615 587.043C862.625 586.123 866.609 585.933 870.995 588.803C871.218 590.463 871.582 590.443 870.826 591.593C866.652 597.933 856.578 598.673 849.828 599.783C847.593 599.893 844.72 599.923 842.552 599.363C839.842 598.663 839.549 598.243 838.334 595.963C838.635 594.783 838.615 594.523 839.381 593.363C843.065 587.793 851.754 587.693 857.615 587.043Z" fill="#C47B5E"/>
<path d="M862.297 589.663C864.437 589.243 864.733 589.293 866.702 589.903L866.658 591.053C861.424 595.783 852.704 596.603 845.993 597.603C843.64 597.363 842.988 597.563 840.992 596.163C843.592 592.263 857.309 590.693 862.297 589.663Z" fill="#340905"/>
<path d="M906.229 423.382L908.212 423.242C911.294 428.312 912.345 441.222 908.17 446.002L905.714 445.272C900.944 439.922 899.064 429.032 902.846 422.712L905.158 423.232L906.229 423.382Z" fill="#C47B5E"/>
<path d="M905.158 423.232L906.229 423.382C907.64 426.812 910.405 438.662 907.162 441.242L905.35 439.512C903.708 435.122 903.601 427.662 905.158 423.232Z" fill="#340905"/>
<path d="M906.806 570.143L907.898 571.523C907.77 571.933 907.682 572.363 907.512 572.753C903.866 581.173 888.831 588.703 880.504 591.843L879.235 590.433C882.126 585.793 900.933 575.223 906.806 570.143Z" fill="#340905"/>
<path d="M758.179 200.812C759.037 201.013 760.505 201.293 761.249 201.723C763.075 202.773 764.179 204.772 764.186 206.872C764.197 210.042 762.044 212.632 760.192 214.982L757.215 214.083C756.095 212.933 755.093 212.322 754.725 210.682C753.835 206.732 755.99 203.832 758.179 200.812Z" fill="#21110C"/>
<path d="M880.248 351.202C880.55 351.362 880.864 351.492 881.153 351.662C886.936 355.152 890.299 367.632 891.85 373.882C891.478 373.672 891.077 373.512 890.734 373.262C885.908 369.682 880.804 357.102 880.248 351.202Z" fill="#4F130B"/>
<path d="M818.255 223.393C819.472 223.723 820.458 224.143 821.539 224.803C826.997 228.113 835.361 234.003 836.926 240.503C836.567 240.403 836.197 240.353 835.85 240.223C830.545 238.233 820.409 228.533 818.255 223.393Z" fill="#4F130B"/>
<path d="M895.688 389.902C896.318 390.282 897.022 390.672 897.571 391.152C902.521 395.442 902.867 404.712 903.07 410.732C898.578 407.012 896.828 395.522 895.688 389.902Z" fill="#340905"/>
<path d="M883.378 387.192C883.657 387.352 883.959 387.472 884.215 387.662C888.966 391.222 889.98 400.682 890.591 406.082L888.105 404.512C885.394 399.052 883.897 393.262 883.378 387.192Z" fill="#340905"/>
<path d="M759.433 379.382C755.524 369.792 750.155 357.853 749.364 347.573C748.97 342.453 750.855 338.503 749.784 332.693L746.729 334.182C736.989 326.192 761.016 288.192 754.711 273.042C746.046 252.232 721.594 260.062 705.065 251.002C698.437 246.742 686.962 237.152 684.795 229.642C681.949 219.782 694.149 217.742 700.922 216.022C696.963 221.422 695.079 224.773 699.213 230.703L697.24 235.012C703.027 250.212 740.427 238.992 749.15 241.552C744.384 246.602 734.743 247.112 728.003 248.022C723.09 249.772 720.858 247.872 717.468 249.882C739.351 253.042 764.974 254.913 762.171 283.723C761.158 294.133 751.914 312.602 753.325 320.252C754.589 319.352 755.515 318.822 756.858 318.142C759.051 322.422 754.47 340.382 756.549 348.992C760.744 366.342 767.953 381.402 774.755 397.552C785.023 397.472 790.567 399.292 795.121 388.622L798.328 387.723C799.28 392.533 795.16 394.252 795.587 401.392C783.489 403.482 773.539 403.632 761.498 406.752C766.351 407.522 778.701 409.053 782.426 410.973C785.219 416.493 778.9 419.782 774.74 423.182C781.329 429.402 788.852 427.893 797.595 430.443C797.683 431.003 797.772 431.562 797.86 432.122L805.368 432.482L807.212 434.062C807.098 437.703 806.494 442.253 804.66 445.443L803.198 445.152C803.75 446.942 804.253 448.523 805.843 449.693C818.823 459.243 827.249 464.182 837.81 477.102C838.038 484.852 838.036 494.702 838.62 502.272L835.801 504.443C826.706 504.323 800.892 503.732 793.298 504.992C792.235 508.172 792.468 508.102 792.998 511.482C796.804 513.082 863.249 518.002 868.119 517.732C875.077 517.412 881.927 515.902 888.372 513.252C893.161 511.252 898.947 506.402 902.497 506.732C902.643 508.792 902.187 512.053 900.397 513.213C861.631 538.373 803.869 510.102 761.828 525.042C739.72 531.052 725.467 538.232 708.145 553.672C704.031 557.342 694.836 566.222 690.888 569.172C703.25 539.802 732.163 523.002 762.663 516.522C769.175 515.132 779.571 514.843 784.27 510.093C785.05 506.913 785.361 508.282 784.048 505.752C776.737 503.272 688.917 505.582 674.855 505.552L516.306 504.552C419.973 505.772 323.629 505.922 227.293 505.012C226.854 521.082 226.666 537.162 226.729 553.242C270.896 543.272 318.559 536.852 359.204 562.502C385.759 579.402 404.699 605.963 412.018 636.583C412.869 640.303 413.491 643.943 410.366 646.703C410.081 643.493 408.794 642.262 406.921 639.622L408.025 636.042C403.568 630.822 400.38 620.523 396.515 614.333C374.07 578.423 348.168 558.812 306.236 553.932C278.177 549.282 230.121 561.752 201.227 567.542C167.842 574.232 134.539 572.802 104.647 554.132C98.3047 550.172 87.6047 539.602 86.2847 532.652C87.5387 531.982 88.2847 532.103 89.4797 533.193C99.0397 541.923 105.086 547.733 117.366 552.573C132.574 558.553 144.854 555.072 160.536 553.992C168.029 553.472 175.76 553.562 183.299 553.652C188.859 548.152 193.514 542.362 198.498 536.362C199.611 534.692 200.659 532.992 201.641 531.252C205.036 525.232 211.049 512.862 209.257 506.302L206.607 504.963C201.545 504.603 199.801 504.782 195.225 502.912C189.689 502.732 180.947 503.582 178.902 496.762C170.112 467.462 204.597 463.822 212.764 446.502C214.419 445.152 216.071 443.633 217.681 442.213L217.326 441.203L214.07 441.412C218.36 434.852 228.274 438.312 236.177 431.062C235.192 427.852 227.745 424.183 224.14 421.963C229.973 418.783 239.336 415.462 245.857 413.812C250.155 412.732 253.919 412.952 258.279 411.122L256.548 410.122L257.797 409.443L258.037 408.482C251.357 406.402 249.925 405.542 243.957 402.112L243.983 400.512C247.832 402.562 250.712 402.012 254.863 401.482L256.129 401.312L255.922 400.632C258.375 399.692 260.998 400.272 263.702 400.532C267.05 398.882 265.737 400.082 267.602 396.622C274.416 402.602 276.634 402.382 285.147 404.052C305.936 406.692 321.934 410.012 343.195 411.632L344.577 415.843L344.427 416.932L348.617 420.823L348.565 420.343C352.4 427.813 353.277 429.453 360.052 434.943L359.974 436.693L355.972 439.502L357.049 440.292C337.231 447.962 326.589 436.892 309.314 437.352C283.571 438.042 257.537 439.902 231.626 440.232C216.412 452.252 200.961 463.952 185.283 475.352L532.048 475.412C631.754 474.222 731.469 473.842 831.182 474.272C814.214 462.362 790.94 443.392 774.957 429.742C763.058 428.822 751.248 427.842 739.312 427.792C723.446 427.722 709.698 437.043 694.155 432.723C695.175 433.013 678.985 437.892 675.075 438.382C673.583 441.442 672.148 444.962 669.859 447.372C664.769 456.392 644.729 455.013 635.406 454.213C612.204 452.193 607.511 404.743 609.097 388.453C610.486 374.183 674.37 372.802 679.827 384.512C685.588 396.872 689.382 389.652 700.364 397.892C707.528 394.312 719.162 390.863 726.807 388.703C718.717 383.853 699.508 368.072 691.638 361.862C682.894 361.882 664.952 363.022 657.54 359.672L657.77 358.473C667.495 355.203 682.294 356.222 692.884 356.362C703.596 363.082 722.738 378.202 730.966 387.122C741.107 384.462 749.224 382.632 759.433 379.382Z" fill="#13120E"/>
<path d="M669.858 447.372C664.768 456.392 644.728 455.012 635.405 454.212C612.203 452.192 607.51 404.742 609.096 388.452C610.485 374.182 674.369 372.802 679.826 384.512C685.587 396.872 689.381 389.652 700.363 397.892C702.705 405.982 702.085 420.242 696.428 426.592C694.288 428.992 691.286 429.032 688.379 429.392L677.125 433.232C672.197 436.122 671.918 440.792 669.858 447.372Z" fill="#1B110C"/>
<path d="M677.125 433.232C677.852 424.792 700.573 424.982 694.029 406.632C691.837 403.962 691.41 403.942 688.242 402.912L681.961 400.912L681.951 399.492C693.579 391.112 708.332 412.162 688.38 429.392L677.125 433.232Z" fill="#A47465"/>
<path d="M614.122 392.902C634.686 399.382 656.293 397.342 677.121 393.562C675.598 407.902 674.362 421.552 669.838 435.352C668.845 437.642 667.833 439.922 666.359 441.952C663.295 446.152 659.067 447.522 654.074 448.212C645.804 449.352 635.935 449.462 629.163 443.882C616.957 433.822 615.342 407.522 614.122 392.902Z" fill="#D3967E"/>
<path d="M667.034 398.902C669.045 398.282 669.737 398.302 671.757 398.512L673.286 400.402C674.231 407.152 672.056 416.732 670.003 423.202C667.725 430.382 663.766 439.122 656.524 442.382C649 445.762 638.538 443.862 631.129 440.902C627.86 435.862 624.784 430.962 622.573 425.342C620.373 419.742 615.59 409.042 618.955 403.412C620.237 401.262 622.557 400.252 624.919 399.862C632.224 398.632 640.81 400.322 648.24 400.432C654.528 400.532 660.813 399.722 667.034 398.902Z" fill="#C47B5E"/>
<path d="M632.396 383.712C636.117 383.322 639.903 383.232 643.642 383.092C651.604 382.812 668.45 382.552 674.521 388.202L672.693 388.982L672.918 388.112L671.598 389.112C668.495 389.182 665.351 388.202 662.323 387.522C649.715 385.752 635.796 385.922 623.355 388.692C621.211 389.172 619.341 389.482 617.145 389.602L616.19 388.362C619.505 384.892 627.758 384.442 632.396 383.712Z" fill="#DED2C0"/>
<path d="M684.216 405.772C685.038 406.122 686.583 406.732 687.265 407.252C688.448 408.172 689.154 409.432 689.248 410.902C689.541 415.452 685.891 419.282 683.257 422.622L680.312 422.422C679.08 420.582 679.301 421.412 679.158 419.172C678.842 414.222 680.895 409.322 684.216 405.772Z" fill="#DFBBA7"/>
<path d="M195.225 502.913C202.505 502.683 209.426 502.243 215.346 507.323C221.06 512.213 216.364 521.493 212.165 525.453L211.52 521.883C207.868 523.563 205.831 532.813 198.498 536.363C199.611 534.693 200.659 532.993 201.641 531.253C205.036 525.233 211.049 512.863 209.257 506.303L206.607 504.963C201.545 504.603 199.801 504.783 195.225 502.913Z" fill="#422E27"/>
<path d="M285.147 404.053C305.936 406.693 321.934 410.013 343.195 411.633L344.577 415.843C328.802 414.343 299.922 409.713 284.435 406.213L285.147 404.053Z" fill="#F2F1E8"/>
<path d="M787.628 431.382L797.859 432.122L805.367 432.482L807.211 434.062C807.097 437.702 806.493 442.252 804.659 445.442L803.197 445.152C800.632 442.092 791.165 434.392 787.628 431.382Z" fill="#F4F2E8"/>
<path d="M267.601 396.622C274.415 402.602 276.633 402.382 285.146 404.052L284.434 406.212C275.745 404.232 264.937 402.082 256.128 401.312L255.921 400.632C258.374 399.692 260.997 400.272 263.701 400.532C267.049 398.882 265.736 400.082 267.601 396.622Z" fill="#A47465"/>
<path d="M412.017 636.583C412.868 640.303 413.49 643.943 410.365 646.703C410.08 643.493 408.793 642.262 406.92 639.622L408.024 636.042L408.642 635.982L410.42 638.522L411.336 638.272L410.655 638.112L411.844 637.463L412.017 636.583Z" fill="#BCBBB7"/>
<path d="M708.472 246.782L728.003 248.022C723.09 249.772 720.858 247.872 717.468 249.882C713.449 249.012 712.304 248.442 708.472 246.782Z" fill="#FDFDFB"/>
<path d="M809.437 479.922L832.618 479.382L832.534 497.482L205.099 498.422L183.1 498.182L182.493 480.712C391.47 482.912 600.466 482.652 809.437 479.922Z" fill="#F2F1E8"/>
<path d="M760.481 384.372L762.44 385.172C765.675 389.492 768.856 392.402 768.086 398.102C765.376 400.642 763.081 400.362 759.464 400.902C759.478 399.172 759.691 397.002 759.343 395.322C758.698 392.202 754.634 389.942 752.225 388.022C753.896 385.952 757.903 385.232 760.481 384.372Z" fill="#B5604A"/>
<path d="M362.029 181.683C366.554 183.143 382.057 186.673 378.701 194.213C374.266 204.173 363.709 213.933 353.953 218.403C331.387 229.213 296.531 217.863 284.832 245.763C276.54 265.533 294.02 311.923 285.736 325.463L284.25 325.443L283.029 323.073L281.113 321.363C282.264 350.953 276.043 352.663 273.702 375.163C298.784 382.423 323.974 389.293 349.262 395.793C349.764 398.373 344.734 407.293 343.195 411.633C321.934 410.013 305.936 406.693 285.147 404.053C276.634 402.383 274.416 402.603 267.602 396.623C265.737 400.083 267.05 398.883 263.702 400.533C260.998 400.273 258.375 399.693 255.922 400.633L256.129 401.313L254.863 401.483C250.712 402.013 247.832 402.563 243.983 400.513L243.957 402.113C249.925 405.543 251.357 406.403 258.037 408.483L257.797 409.443L256.548 410.123C250.997 409.163 236.399 406.533 234.189 401.873C228.595 390.103 231.119 361.573 232.636 349.573C229.38 342.053 232.839 311.083 227.732 298.943C222.424 295.283 220.226 305.493 215.806 305.873C206.904 280.623 233.758 240.903 246.433 220.653C231.669 219.463 226.002 219.673 211.908 223.513C220.941 211.493 228.672 207.203 242.478 203.353C243.867 203.043 243.066 203.343 244.705 202.083C241.612 198.733 232.394 199.333 227.88 199.333C262.391 163.603 319.831 208.533 358.213 195.443L358.951 195.353C363.362 188.913 364.094 188.883 362.029 181.683Z" fill="#F4F2E8"/>
<path d="M267.935 363.623C275.903 349.483 274.559 326.303 275.617 311.023L277.118 310.593L279.615 312.733C280.021 315.183 280.552 319.063 281.113 321.363C282.264 350.953 276.043 352.663 273.702 375.163C298.784 382.423 323.974 389.293 349.262 395.793C349.764 398.373 344.734 407.293 343.195 411.633C321.934 410.013 305.936 406.693 285.147 404.053C276.634 402.383 274.416 402.603 267.602 396.623C270.028 392.163 275.921 391.013 280.721 389.433C275.892 385.923 274.169 384.033 270.149 379.823L270.095 378.583C271.283 371.883 269.504 370.433 267.935 363.623Z" fill="#171614"/>
<path d="M362.029 181.683C366.554 183.143 382.057 186.673 378.701 194.213C374.266 204.173 363.709 213.933 353.953 218.403C331.387 229.213 296.531 217.863 284.832 245.763C276.54 265.533 294.02 311.923 285.736 325.463L284.25 325.443L283.029 323.073L281.113 321.363C280.552 319.063 280.021 315.183 279.615 312.733L280.893 311.613C279.653 305.183 279.317 297.273 278.707 290.743C276.255 264.493 268.471 234.303 300.082 222.523C316.173 216.523 329.622 219.973 345.469 216.393L347.027 216.023C335.445 215.373 306.295 213.403 296.18 208.503L296.03 207.403C307.18 203.263 353.143 218.693 363.085 205.243C363.456 201.443 361.225 199.263 358.951 195.353C363.362 188.913 364.094 188.883 362.029 181.683Z" fill="#13120E"/>
<path d="M280.892 311.612C281.627 315.432 282.339 319.252 283.028 323.072L281.112 321.362C280.551 319.062 280.02 315.182 279.614 312.732L280.892 311.612Z" fill="#928F86"/>
<path d="M232.636 349.572L234.861 347.872C239.502 351.542 235.356 384.442 239.802 394.962L241.636 396.132C249.797 392.072 263.538 349.712 268.115 351.022C269.415 355.732 268.585 358.772 267.935 363.622C269.504 370.432 271.283 371.882 270.095 378.582L270.149 379.822C274.169 384.032 275.892 385.922 280.721 389.432C275.921 391.012 270.028 392.162 267.602 396.622C265.737 400.082 267.05 398.882 263.702 400.532C260.998 400.272 258.375 399.692 255.922 400.632L256.129 401.312L254.863 401.482C250.712 402.012 247.832 402.562 243.983 400.512L243.957 402.112C249.925 405.542 251.357 406.402 258.037 408.482L257.797 409.442L256.548 410.122C250.997 409.162 236.399 406.532 234.189 401.872C228.595 390.102 231.119 361.572 232.636 349.572Z" fill="#21110C"/>
<path d="M258.696 382.733C260.472 381.213 262.333 379.113 263.973 377.383C267.42 376.953 266.365 377.133 270.149 379.823C274.169 384.033 275.892 385.923 280.721 389.433C275.921 391.013 270.028 392.163 267.602 396.623C265.737 400.083 267.05 398.883 263.702 400.533C260.998 400.273 258.375 399.693 255.922 400.633C252.985 400.593 251.884 400.833 249.186 399.713L248.644 398.063C249.748 392.743 255.113 387.533 258.696 382.733Z" fill="#F03906"/>
<path d="M266.95 366.513C267.895 371.163 268.67 374.053 270.094 378.583L270.148 379.823C266.364 377.133 267.419 376.953 263.972 377.383C262.332 379.113 260.471 381.213 258.695 382.733L266.95 366.513Z" fill="#A47465"/>
<path d="M32.4341 534.622C21.0039 518.492 17.0157 467.852 13.7676 446.192L4.51554 383.702C-2.17425 336.792 -9.44546 318.982 46.6401 311.092C58.4911 309.422 74.0894 305.002 86.0274 305.642C87.6394 308.132 87.2964 307.102 87.7934 309.952C83.1584 317.652 77.2944 324.052 72.8264 332.862C48.3592 381.112 42.4408 433.072 49.8197 486.322C50.525 491.412 54.3772 492.732 51.2995 498.482C47.6029 505.382 44.221 511.562 40.524 518.372C37.9083 522.712 35.402 532.282 32.4341 534.622Z" fill="#171614"/>
<path d="M306.235 553.933C348.167 558.813 374.069 578.423 396.514 614.333C400.379 620.523 403.567 630.823 408.024 636.043L406.92 639.623C374.892 621.153 333.665 646.823 304.54 657.973C305.752 654.443 305.657 653.403 305.846 649.773C300.427 648.593 295.832 649.133 290.285 649.373C294.918 644.293 297.866 642.523 297.677 635.863C289.461 633.433 278.938 635.283 268.425 632.633C276.363 623.573 284.372 617.643 292.213 607.493C285.111 605.353 260.583 601.613 257.029 598.173C260.023 588.733 286.956 586.233 293.506 581.543L293.543 579.753C288.481 574.733 275.431 570.673 268.264 568.093C287.593 555.783 292.974 561.923 309.564 558.753L310.273 557.553L306.235 553.933Z" fill="#F4F2E8"/>
<path d="M200.238 114.072L202.225 113.612L203.456 115.832C204.624 118.532 205.381 120.722 206.998 123.182C196.205 121.852 201.146 134.032 198.482 142.042C197.772 147.312 197.82 152.682 197.711 158.012C196.148 152.852 194.551 147.802 193.357 142.542C189.007 152.412 184.672 162.112 181.607 172.452C175.517 192.992 171.403 216.302 159.873 234.732C146.8 255.642 126.024 275.022 108.681 293.292C69.4896 334.592 51.0003 389.562 51.3573 446.022C51.4564 461.692 55.6982 483.282 58.1417 499.392C50.6604 510.322 44.8472 518.732 40.7579 531.612C13.6213 617.052 97.2646 674.472 172.225 682.422C188.683 684.172 204.342 683.472 220.52 681.592C211.787 692.932 183.866 687.462 173.568 691.192C169.135 691.432 159.86 690.112 155.255 689.142C94.2486 676.192 25.62 632.392 28.1128 562.352C28.4408 553.132 31.1662 544.972 32.2337 536.332L32.4343 534.622C35.4022 532.282 37.9085 522.712 40.5242 518.372C44.2212 511.562 47.6031 505.382 51.2997 498.482C54.3774 492.732 50.5252 491.412 49.8199 486.322C42.441 433.072 48.3594 381.112 72.8266 332.862C77.2946 324.052 83.1586 317.652 87.7936 309.952C87.2966 307.102 87.6396 308.132 86.0276 305.642C92.6496 300.112 100.557 289.932 106.62 283.872C134.744 255.602 161.884 230.362 169.751 189.352C171.857 178.372 183.53 145.552 192.395 138.532L194.699 138.642C197.505 134.992 194.546 119.462 200.238 114.072Z" fill="#1B110C"/>
<path d="M200.237 114.072L202.224 113.612L203.455 115.832C204.623 118.532 205.38 120.722 206.997 123.182C196.204 121.852 201.145 134.032 198.481 142.042C197.404 133.262 199.109 122.952 200.237 114.072Z" fill="#915F52"/>
<path d="M172.441 474.682C176.758 469.502 187.027 461.952 187.346 457.232C180.068 441.432 151.436 442.962 137.532 447.002C133.126 448.282 127.593 448.592 123.775 445.912L123.609 443.443C129.123 429.943 155.609 428.922 168.191 430.512C174.006 431.252 183.818 435.872 188.913 435.902C184.111 431.042 164.54 380.142 171.67 373.522C171.125 385.542 185.185 424.452 193.674 435.052C198.07 440.552 207.003 444.282 214.07 441.412L217.326 441.203L217.681 442.213C216.071 443.633 214.419 445.152 212.764 446.502C204.597 463.822 170.112 467.462 178.902 496.762C180.947 503.582 189.689 502.732 195.225 502.912C199.801 504.782 201.545 504.603 206.607 504.963L209.257 506.302C211.049 512.862 205.036 525.232 201.641 531.252C200.659 532.992 199.611 534.692 198.498 536.362C193.514 542.362 188.859 548.152 183.299 553.652C175.76 553.562 168.029 553.472 160.536 553.992C144.854 555.072 132.574 558.553 117.366 552.573C105.086 547.733 99.0396 541.923 89.4796 533.193C88.2846 532.103 87.5386 531.982 86.2846 532.652C87.6046 539.602 98.3046 550.172 104.647 554.132C134.539 572.802 167.842 574.232 201.227 567.542C230.121 561.752 278.177 549.282 306.236 553.932L310.274 557.552L309.565 558.752C292.975 561.922 287.594 555.783 268.265 568.093C275.432 570.673 288.482 574.732 293.544 579.752L293.507 581.542C286.957 586.232 260.024 588.732 257.03 598.172C260.584 601.612 285.112 605.352 292.214 607.492C284.373 617.642 276.364 623.572 268.426 632.632C278.939 635.282 289.462 633.432 297.678 635.862C297.867 642.522 294.919 644.292 290.286 649.372C295.833 649.132 300.428 648.592 305.847 649.772C305.658 653.402 305.753 654.443 304.541 657.973C298.819 661.283 291.075 664.383 284.817 666.723C280.883 668.803 280.388 668.952 276.033 670.042C281.093 662.212 288.755 663.402 295.609 656.052L294.87 654.973C291.586 654.663 291.239 654.442 287.971 655.262L288.568 656.992C286.148 658.802 287.45 658.052 283.649 658.142C280.529 656.132 281.822 657.412 279.95 653.852C280.117 647.462 285.409 643.922 290.172 639.392C282.689 638.922 271.86 639.812 268.354 632.262C268.831 624.982 278.109 616.562 283.254 609.732C276.02 608.392 258.237 605.282 254.831 598.742C256.747 589.372 273.464 585.123 281.175 579.573C275.727 575.903 268.621 572.312 268.181 565.242C271.214 561.882 278.714 562.252 281.987 559.912C286.172 556.912 290.803 558.173 297.368 557.062C289.639 550.312 187.611 576.202 170.41 575.862C141.286 575.292 109.196 566.322 88.0366 545.162C84.1666 541.292 81.4946 532.322 86.3186 528.252C91.4496 528.272 115.581 552.682 128.589 552.172C145.126 551.412 166.524 551.403 182.447 547.953C191.899 545.903 203.58 518.622 205.927 510.232C197.628 509.412 188.771 508.973 180.306 508.213C177.132 505.713 175.197 503.732 172.32 500.872C170.769 490.442 171.267 485.062 172.441 474.682Z" fill="#c72707"/>
<path d="M195.599 458.942C164.393 422.732 131.452 450.342 125.409 445.432C127.438 433.702 157.127 432.612 166.763 434.112C183.128 436.662 191.624 442.532 201.196 455.482L212.764 446.502C204.597 463.822 170.112 467.462 178.902 496.762C180.947 503.582 189.689 502.732 195.225 502.912C199.801 504.782 201.545 504.602 206.607 504.962C175.944 508.312 174.413 504.022 176.076 475.382C181.508 469.352 189.088 463.952 195.599 458.942Z" fill="#340905"/>
<path d="M297.677 635.862C297.866 642.522 294.918 644.292 290.285 649.372C295.832 649.132 300.427 648.592 305.846 649.772C298.987 650.242 287.126 653.452 280.063 655.132C286.276 649.072 292.901 643.052 297.677 635.862Z" fill="#DED2C0"/>
<path d="M305.846 649.772C305.657 653.402 305.752 654.443 304.54 657.973C298.818 661.283 291.074 664.383 284.816 666.723C291.306 660.513 299.663 660.802 305.846 649.772Z" fill="#DED2C0"/>
<path d="M254.115 99.8521C261.5 88.0821 277.757 60.7621 290.167 55.1321C293.794 55.2121 292.267 54.5821 294.89 57.1221C298.663 67.2221 293.28 105.182 291.624 117.552C292.377 120.642 297.943 123.272 300.928 125.442C306.252 129.292 309.577 132.372 313.863 137.282C315.697 140.402 317.619 143.872 319.713 146.772L325.964 162.292C338.506 172.022 347.065 176.212 362.028 181.682C364.093 188.882 363.361 188.912 358.95 195.352L358.212 195.442C319.83 208.532 262.39 163.602 227.879 199.332C221.114 199.722 216.272 201.462 209.884 203.482C214.85 197.142 220.212 189.572 223.91 182.442C224.372 183.122 224.834 183.802 225.297 184.482C222.815 189.642 221.544 193.862 220.601 199.242C232.087 189.532 239.419 184.372 255.013 182.612C264.964 181.672 276.677 180.652 286.533 182.732C296.958 184.922 347.12 202.632 352.795 191.332C350.191 184.102 330.529 177.152 323.012 169.572C314.667 162.462 312.082 150.832 305.922 142.312C294.634 126.712 275.09 120.242 257.126 117.362L253.049 116.882C252.876 115.942 249.791 107.022 249.176 104.602C245.569 90.4121 240.263 74.7422 237.892 60.3222L238.992 60.0422C241.493 61.7722 240.436 61.1222 241.96 64.7222L243.289 63.3821C242.367 61.0721 242.658 58.9822 242.71 56.4622C246.655 66.6122 252.124 88.7721 254.115 99.8521Z" fill="#c72707"/>
<path d="M254.116 99.8521C261.501 88.0821 277.758 60.7621 290.168 55.1321C293.795 55.2121 292.268 54.5821 294.891 57.1221C298.664 67.2221 293.281 105.182 291.625 117.552L290.907 113.042C289.455 115.262 289.794 115.152 289.384 117.832C286.917 118.852 260.612 110.752 255.937 109.432C253.395 106.282 253.713 103.732 254.116 99.8521Z" fill="#171614"/>
<path d="M242.711 56.4624C246.656 66.6124 252.125 88.7723 254.116 99.8523C253.713 103.732 253.395 106.282 255.937 109.432C260.612 110.752 286.917 118.852 289.384 117.832C289.794 115.152 289.455 115.262 290.907 113.042L291.625 117.552C292.378 120.642 297.944 123.272 300.929 125.442C306.253 129.292 309.578 132.372 313.864 137.282C315.698 140.402 317.62 143.872 319.714 146.772L325.965 162.292C338.507 172.022 347.066 176.212 362.029 181.682C364.094 188.882 363.362 188.912 358.951 195.352L358.213 195.442C358.291 193.132 358.881 189.412 359.193 186.992C357.994 184.992 334.615 175.352 328.459 170.272C309.323 154.472 313.091 136.442 289.717 124.512C284.328 121.752 262.243 112.522 257.346 113.952L257.127 117.362L253.05 116.882C252.877 115.942 249.792 107.022 249.177 104.602C245.57 90.4123 240.264 74.7424 237.893 60.3224L238.993 60.0424C241.494 61.7724 240.437 61.1224 241.961 64.7224L243.29 63.3823C242.368 61.0723 242.659 58.9824 242.711 56.4624Z" fill="#21110C"/>
<path d="M200.419 213.412C202.229 202.472 214.096 187.312 223.911 182.442C220.213 189.572 214.851 197.142 209.885 203.482C216.273 201.462 221.115 199.722 227.88 199.332C232.394 199.332 241.612 198.732 244.705 202.082C243.066 203.342 243.867 203.042 242.478 203.352C228.672 207.202 220.941 211.492 211.908 223.512C226.002 219.672 231.669 219.462 246.433 220.652C233.758 240.902 206.904 280.622 215.806 305.872C220.226 305.492 222.424 295.282 227.732 298.942C232.839 311.082 229.38 342.052 232.636 349.572C231.119 361.572 228.595 390.102 234.189 401.872C236.399 406.532 250.997 409.162 256.548 410.122L258.279 411.122C253.919 412.952 250.155 412.732 245.857 413.812C239.336 415.462 229.973 418.782 224.14 421.962C227.745 424.182 235.192 427.852 236.177 431.062C228.274 438.312 218.36 434.852 214.07 441.412C207.003 444.282 198.07 440.552 193.674 435.052C185.185 424.452 171.125 385.542 171.67 373.522L174.139 373.532L176.717 373.282C181.289 375.932 196.31 419.502 202.956 429.962C209.894 429.872 218.145 430.972 223.116 426.702C226.61 414.932 229.247 415.362 240.093 410.892L235.308 407.502C222.503 398.252 228.496 364.002 227.806 349.752C227.202 337.282 227.171 324.552 226.067 312.102C225.843 309.582 224.083 308.712 222.288 307.652C219.402 307.662 212.607 307.962 211.687 304.462C207.419 287.722 215.797 267.192 222.374 251.782C225.024 245.572 240.37 229.522 236.153 224.022C228.958 221.742 219.06 228.792 211.838 222.922C210.415 219.222 211.167 219.392 212.081 214.732C207.548 215.032 203.471 215.882 200.419 213.412Z" fill="#c72707"/>
<path d="M174.139 373.532C178.289 379.792 184.663 396.892 187.32 404.292C199.799 439.032 199.052 437.443 236.177 431.062C228.274 438.312 218.36 434.852 214.07 441.412C207.003 444.282 198.07 440.552 193.674 435.052C185.185 424.452 171.125 385.542 171.67 373.522L174.139 373.532Z" fill="#340905"/>
<path d="M200.418 213.412C202.228 202.472 214.095 187.312 223.91 182.442C220.212 189.572 214.85 197.142 209.884 203.482C216.272 201.462 221.114 199.722 227.879 199.332C232.393 199.332 241.611 198.732 244.704 202.082C243.065 203.342 243.866 203.042 242.477 203.352C225.173 199.952 215.865 210.952 200.418 213.412Z" fill="#340905"/>
<path d="M192.395 138.532C193.208 135.302 193.926 125.742 194.157 121.832C195.005 107.532 221.991 46.6523 238.991 50.1423C241.63 52.3623 241.645 53.2223 242.711 56.4623C242.659 58.9823 242.368 61.0722 243.29 63.3822L241.961 64.7223C240.437 61.1223 241.494 61.7723 238.993 60.0423L237.893 60.3223C240.264 74.7423 245.57 90.4122 249.177 104.602C249.792 107.022 252.877 115.942 253.05 116.882L251.353 116.722C247.274 112.302 239.091 79.7423 235.933 70.5723C233.401 75.1823 228.649 82.6723 230.808 87.6923L233.845 88.1923L234.943 88.4223L235.289 89.9822C241.307 96.8922 237.288 96.1523 238.423 102.782C239.889 111.342 247.815 122.762 238.479 130.132C233.827 133.642 230.653 136.052 224.754 137.012C222.943 139.522 223.134 141.672 222.871 144.802C220.733 147.612 222.081 146.812 218.834 147.502C215.077 140.392 215.342 133.952 213.497 125.682C211.086 122.842 211.933 123.742 206.998 123.182C205.381 120.722 204.624 118.532 203.456 115.832L202.225 113.612L200.238 114.072C194.546 119.462 197.505 134.992 194.699 138.642L192.395 138.532Z" fill="#c72707"/>
<path d="M192.395 138.532C193.208 135.302 193.926 125.742 194.157 121.832C195.005 107.532 221.991 46.6523 238.991 50.1423C241.63 52.3623 241.645 53.2223 242.711 56.4623C242.659 58.9823 242.368 61.0722 243.29 63.3822L241.961 64.7223C240.437 61.1223 241.494 61.7723 238.993 60.0423L237.893 60.3223C237.26 59.6423 236.496 59.6222 235.349 59.2422C225.109 68.8622 218.538 109.242 215.406 122.592C215.056 122.632 214.706 122.662 214.356 122.702C210.261 122.602 206.238 118.492 203.456 115.832L202.225 113.612L200.238 114.072C194.546 119.462 197.505 134.992 194.699 138.642L192.395 138.532Z" fill="#171614"/>
<path d="M233.844 88.1924L234.942 88.4224L235.288 89.9823C235.916 97.8723 240.776 122.402 239.616 126.452L237.927 127.472C235.68 126.162 235.883 126.112 234.686 123.742L232.458 124.982C231.644 128.862 231.678 130.542 229.167 132.782C221.546 126.302 228.591 96.1124 233.844 88.1924Z" fill="#340905"/>
<path d="M232.459 124.983L229.934 124.943C225.903 119.943 228.168 108.623 231.774 104.093L233.158 104.433C234.82 110.403 239.214 118.653 234.687 123.743L232.459 124.983Z" fill="#1B110C"/>
<path d="M203.456 115.832C206.238 118.492 210.261 122.602 214.356 122.702C214.706 122.662 215.056 122.632 215.406 122.592C218.538 109.242 225.109 68.8622 235.349 59.2422C227.902 80.2922 217.819 104.222 219.751 126.772C220.322 133.452 223.59 143.232 218.834 147.502C215.077 140.392 215.342 133.952 213.497 125.682C211.086 122.842 211.933 123.742 206.998 123.182C205.381 120.722 204.624 118.532 203.456 115.832Z" fill="#340905"/>
<path d="M216.287 652.732L215.732 655.392C209.296 661.482 200.085 659.312 192.006 661.872C187.593 664.292 186.015 669.023 180.771 670.223C174.854 671.573 168.235 671.423 162.222 670.453C153.242 668.993 139.28 666.063 147.334 654.583C152.393 651.713 163.772 655.622 170.876 656.042C176.486 657.932 177.767 648.813 180.17 648.213C188.389 646.173 210.546 644.382 216.145 651.122L216.287 652.732Z" fill="#c72707"/>
<path d="M216.286 652.732C209.341 656.412 186.998 658.232 181.083 652.892L182.384 651.732C188.655 650.412 210.097 649.802 216.144 651.122L216.286 652.732Z" fill="#340905"/>
<path d="M147.953 656.702C154.413 657.502 180.329 661.142 184.197 663.532L184.372 666.022C175.492 666.822 156.695 667.242 149.656 661.132C147.848 659.552 148.062 658.952 147.953 656.702Z" fill="#340905"/>
<path d="M76.4586 621.353C82.0896 621.753 88.5656 630.073 95.1916 633.463C103.529 634.473 105.502 638.113 113.374 639.903C111.907 637.293 110.861 636.613 108.72 634.463C108.759 631.483 108.321 632.863 110.72 630.473L111.352 629.213C112.615 628.513 113.905 628.023 115.239 627.453C123.017 628.473 137.203 635.443 144.703 638.923C147.813 640.363 147.759 641.263 148.574 643.833C147.373 648.043 148.472 646.383 145.455 649.183C136.736 651.513 128.106 644.003 118.491 643.323C115.169 646.663 114.706 652.233 108.837 651.443C97.8566 649.973 75.1006 632.753 76.4586 621.353Z" fill="#B5604A"/>
<path d="M76.4585 621.353C82.0895 621.753 88.5655 630.073 95.1915 633.463C100.265 638.503 105.95 638.853 112.933 647.283L112.151 648.053C97.5445 644.553 84.0975 634.173 76.4585 621.353Z" fill="#3A0502"/>
<path d="M111.352 629.212C117.115 629.822 139.498 639.792 144.234 643.332L144.167 644.522C136.32 645.812 113.702 638.522 110.72 630.472L111.352 629.212Z" fill="#340905"/>
<path d="M122.584 301.293L124.007 300.973C124.564 302.643 125.268 304.143 126.133 305.673C128.527 306.243 130.904 306.873 133.263 307.573C138.647 317.353 127.528 326.493 119.767 330.763C113.965 333.963 111.894 328.903 106.617 330.073C99.9817 333.063 98.1517 343.563 90.6717 344.483L90.3837 343.483L89.5327 340.873C91.0537 330.733 113.139 301.723 122.584 301.293Z" fill="#B5604A"/>
<path d="M90.3837 343.482L89.5327 340.872C91.0537 330.732 113.139 301.722 122.584 301.292C120.353 305.482 94.1187 340.272 90.3837 343.482Z" fill="#340905"/>
<path d="M131.751 308.192L132.792 309.722C132.003 316.472 119.941 325.792 114.797 330.132C114.26 329.522 113.902 328.632 113.518 327.912C115.727 320.162 125.266 312.582 131.751 308.192Z" fill="#340905"/>
<path d="M287.024 155.432C288.561 155.312 290.239 155.112 291.775 155.252C299.616 155.982 305.941 166.642 310.526 172.332C304.95 173.112 299.614 173.512 293.984 173.532C285.218 170.962 277.205 166.312 269.101 162.162C274.972 159.682 281.033 157.612 287.024 155.432Z" fill="#340905"/>
<path d="M287.89 160.883C293.269 158.013 296.367 157.533 299.335 163.343C299.401 166.923 299.535 166.703 297.652 169.723C293.501 171.513 288.932 171.003 286.128 167.093C282.905 165.273 281.5 165.323 280.534 162.693C282.723 161.023 285.062 161.163 287.89 160.883Z" fill="#171614"/>
<path d="M286.128 167.092C282.905 165.272 281.5 165.322 280.534 162.692C282.723 161.022 285.062 161.162 287.89 160.882C287.447 162.542 286.739 165.622 286.128 167.092Z" fill="#F4F2E8"/>
<path d="M66.72 423.732L68.4306 420.372L70.1656 419.982C71.2276 422.372 71.1327 421.552 70.8927 423.992C69.5897 435.072 71.3807 454.602 68.8507 463.002L67.7496 463.022C63.0073 452.492 64.0432 434.862 66.72 423.732Z" fill="#340905"/>
<path d="M66.7197 423.732L68.4304 420.372L70.1654 419.982C71.2274 422.372 71.1324 421.552 70.8924 423.992L66.7197 423.732Z" fill="#4F130B"/>
<path d="M93.9227 358.252C94.5067 358.952 94.6437 358.932 94.7937 359.872C95.6857 365.462 84.1367 391.182 80.7907 396.622C79.8657 395.352 79.5417 394.602 79.3937 392.972C78.4747 382.802 86.9237 365.012 93.9227 358.252Z" fill="#340905"/>
<path d="M50.1756 572.872L52.0284 574.232C56.0094 582.972 64.1559 595.592 64.6475 604.982C60.4624 602.642 58.1761 600.152 55.7313 596.032C51.8454 589.492 48.2541 580.482 50.1756 572.872Z" fill="#340905"/>
<path d="M165.294 248.992C166.789 249.562 166.066 249.062 167.152 250.852C165.873 259.172 158.204 266.582 151.978 271.772L150.73 271.212L150.681 269.122C154.444 261.542 159.294 254.942 165.294 248.992Z" fill="#340905"/>
<path d="M111.836 352.053C112.88 353.113 113.101 352.923 113.249 354.233C113.941 360.323 107.546 370.613 104.232 375.633C103.511 374.633 102.751 373.983 102.669 372.683C102.258 366.143 108.094 357.123 111.836 352.053Z" fill="#340905"/>
<path d="M71.8994 594.862C72.3134 594.922 72.7394 594.922 73.1404 595.042C78.4414 596.602 85.0324 606.502 87.4424 611.272C86.1664 611.172 85.7224 611.262 84.5934 610.762C78.6924 608.152 74.0684 600.642 71.8994 594.862Z" fill="#4F130B"/>
<path d="M311.591 127.272C306.171 122.342 306.229 119.902 306.116 112.752C305.783 91.5324 306.785 68.9223 306.096 47.8523C305.314 23.9223 303.641 0.132324 335.041 0.852324C363.948 0.612324 393.17 0.522393 422.156 0.422393L578.726 0.00234879L664.075 0.0423879C680.328 0.0623879 696.889 -0.337558 713.097 0.972442C722.712 1.75244 729.211 9.93241 730.697 19.0624C733.17 57.5924 731.857 96.7323 731.494 135.362C731.397 145.612 731.735 155.492 731.527 165.692C731.345 171.822 730.526 176.072 727.117 181.042L725.874 180.822C725.365 177.582 725.308 176.602 725.255 173.302C721.99 183.902 726.1 190.062 716.544 198.102C715.007 195.832 714.264 184.812 715.087 182.182L714.585 183.042L714.763 180.702C714.88 184.992 715.045 196.382 714.04 200.182C710.727 203.842 709.061 206.332 704.235 206.692C702.216 203.302 702.819 55.1923 702.341 38.6223L422.123 39.3324C422.094 57.2424 420.82 262.182 422.359 265.722C423.833 266.142 425.2 266.582 426.699 266.892C422.975 268.412 421.762 266.102 417.959 267.732C416.893 270.252 416.531 271.662 414.552 273.592C405.991 275.172 345.708 274.872 335.464 274.102C334.733 259.572 335.371 247.332 335.538 232.892C333.761 231.232 328.935 231.542 325.882 231.342C330.234 230.582 334.102 230.582 339.438 229.842C353.887 229.392 389.99 205.012 384.884 189.402C379.957 174.332 334.463 172.192 328.429 151.742L325.785 148.842C322.362 148.622 322.607 148.652 319.713 146.772C317.619 143.872 315.697 140.402 313.863 137.282L316.022 137.272L317.706 139.852L319.869 138.582C316.337 134.572 313.757 132.182 311.591 127.272Z" fill="#171614"/>
<path d="M311.591 127.272C306.171 122.342 306.229 119.902 306.116 112.752C305.783 91.5324 306.785 68.9223 306.096 47.8523C305.314 23.9223 303.641 0.132324 335.041 0.852324C363.948 0.612324 393.17 0.522393 422.156 0.422393L578.726 0.00234879L664.075 0.0423879C680.328 0.0623879 696.889 -0.337558 713.097 0.972442C722.712 1.75244 729.211 9.93241 730.697 19.0624C733.17 57.5924 731.857 96.7323 731.494 135.362C731.397 145.612 731.735 155.492 731.527 165.692C731.345 171.822 730.526 176.072 727.117 181.042L725.874 180.822C725.365 177.582 725.308 176.602 725.255 173.302C721.99 183.902 726.1 190.062 716.544 198.102C715.007 195.832 714.264 184.812 715.087 182.182L714.585 183.042L714.763 180.702C714.88 184.992 715.045 196.382 714.04 200.182C712.874 193.732 713.46 164.662 713.488 156.202L713.692 60.6724C713.688 52.0324 715.518 25.9124 709.759 20.0424C698.647 17.3224 675.369 18.2924 662.733 18.2824L596.099 18.1424C540.373 17.9324 484.647 18.0423 428.923 18.5023C405.533 18.5423 346.602 15.9724 327.526 21.0424C321.154 29.2024 324.684 112.362 324.267 128.832C323.1 133.162 322.975 135.682 319.869 138.582C316.337 134.572 313.757 132.182 311.591 127.272Z" fill="#F2F1E8"/>
<path d="M311.591 127.272C306.171 122.342 306.229 119.902 306.116 112.752C305.783 91.5324 306.785 68.9223 306.096 47.8523C305.314 23.9223 303.641 0.132324 335.041 0.852324C363.948 0.612324 393.17 0.522393 422.156 0.422393L578.726 0.00234879L664.075 0.0423879C680.328 0.0623879 696.889 -0.337558 713.097 0.972442C722.712 1.75244 729.211 9.93241 730.697 19.0624C733.17 57.5924 731.857 96.7323 731.494 135.362C731.397 145.612 731.735 155.492 731.527 165.692C731.345 171.822 730.526 176.072 727.117 181.042L725.874 180.822C725.365 177.582 725.308 176.602 725.255 173.302C725.603 141.602 725.703 109.902 725.554 78.2024C725.508 61.0124 725.709 43.7024 724.994 26.5324C724.643 18.1124 722.372 8.49239 712.403 7.42239C699.305 6.01239 685.481 6.59234 672.263 6.62234L596.984 6.64236L421.166 6.90237C391.286 7.01237 361.414 6.88234 331.54 7.49234C308.485 7.96234 312.215 30.5224 312.26 47.0524L312.348 98.6924C312.362 107.192 312.976 119.072 311.591 127.272Z" fill="#171614"/>
<path d="M319.869 138.582C322.975 135.682 323.1 133.162 324.267 128.832C324.328 140.052 324.419 140.852 328.429 151.742L325.785 148.842C322.362 148.622 322.607 148.652 319.713 146.772C317.619 143.872 315.697 140.402 313.863 137.282L316.022 137.272L317.706 139.852L319.869 138.582Z" fill="#F4F2E8"/>
<path d="M350.831 42.4327C362.678 42.2127 395.49 39.4527 404.241 44.3127C405.739 46.7727 406.333 48.8926 406.59 51.7826C407.093 57.4126 407.775 83.3627 405.685 87.6827C405.216 88.6527 404.319 89.3426 403.637 90.1726C390.296 90.4926 361.349 93.3126 349.745 88.7426C348.488 87.4726 348.047 86.4227 347.752 84.7027C346.188 75.5527 345.839 49.8927 350.831 42.4327Z" fill="#A47465"/>
<path d="M379.29 45.9427C383.58 45.8727 398.1 45.1327 401.145 46.5227C404.799 52.8327 406.531 80.4727 401.688 85.5827C394.873 88.9527 387.362 88.0327 379.659 87.9027C387.394 77.0827 384.679 82.6626 392.851 77.6026C395.314 72.3926 390.637 74.8627 390.3 67.8927C391.045 62.0627 389.842 59.7326 388.221 54.1126C385.267 51.4826 382.029 48.7527 379.29 45.9427Z" fill="#F03906"/>
<path d="M353.055 46.0225C357.69 45.9025 365.859 44.7625 369.881 46.9225C369.88 52.1825 361.707 64.1025 360.116 70.6625C359.448 73.4125 359.322 75.9225 360.731 78.4125C363.311 78.8125 368.019 78.8125 370.282 79.7825C370.605 79.9225 370.85 80.2025 371.134 80.4125L372.465 84.5225C371.405 86.7425 371.094 86.9826 368.592 87.8426C364.556 89.2126 356.913 88.8425 353.324 86.3525C351.186 84.8725 350.888 83.6125 350.437 81.1425C348.755 71.9225 347.879 53.8425 353.055 46.0225Z" fill="#F03906"/>
<path d="M392.851 77.6023C383.754 76.4523 368.513 78.5023 361.7 76.8123L361.521 75.3023C368.821 65.5123 365.955 53.4323 374.092 49.2023C386.043 48.4423 388.121 59.0023 390.3 67.8923C390.637 74.8623 395.314 72.3923 392.851 77.6023Z" fill="#F4F2E8"/>
<path d="M357.048 116.992C357.757 118.792 357.81 120.732 358.027 122.642C361.314 123.082 361.16 120.242 364.237 119.592C365.11 120.822 366.004 121.942 367.014 123.052C368.461 121.942 369.892 120.812 371.306 119.662C377.502 119.942 392.032 118.972 396.22 122.932C387.744 123.232 379.332 122.282 370.834 122.522C369.289 123.992 368.308 124.922 366.247 125.552C365.867 125.182 364.499 123.812 364.097 123.572C361.456 121.952 360.845 125.552 357.828 126.232L355.781 124.702C355.206 121.362 355.934 120.132 357.048 116.992Z" fill="#BCBBB7"/>
<path d="M376.484 105.913C384.464 105.583 392.126 105.113 400.06 106.323C394.076 108.803 384.943 108.413 378.48 108.253C370.76 108.083 362.591 108.473 355.004 107.023C362.126 105.993 369.303 106.033 376.484 105.913Z" fill="#BCBBB7"/>
<path d="M373.958 134.783C378.011 134.183 382.802 134.213 386.896 134.403C389.276 134.513 392.364 134.673 393.937 136.513C389.261 138.063 384.018 137.313 379.152 137.093C371.826 137.633 364.149 138.673 356.845 137.753C362.385 135.943 368.193 135.493 373.958 134.783Z" fill="#FDFDFB"/>
<path d="M366.465 240.012C376.308 239.292 386.814 238.322 396.613 239.872L396.494 240.942L391.479 241.332C381.492 241.742 370.711 242.852 360.797 241.562L361.005 240.532L366.465 240.012Z" fill="#FDFDFB"/>
<path d="M377.695 219.822C382.623 219.982 398.568 219.212 401.832 222.032C398.756 223.432 395.93 223.502 392.621 223.702C383.999 222.092 375.323 223.042 366.759 221.572C370.233 220.232 374.014 220.142 377.695 219.822Z" fill="#FDFDFB"/>
<path d="M364.805 150.882C373.422 150.212 382.083 149.842 390.688 150.832L391.278 151.802L387.479 152.282C378.741 152.622 369.585 153.552 360.889 152.572L360.738 151.802L364.805 150.882Z" fill="#BCBBB7"/>
<path d="M371.996 248.853C374.07 248.703 376.2 248.493 378.279 248.543C380.277 248.593 382.282 248.603 383.669 250.103C380.178 251.943 376.059 251.423 372.216 251.373C368.359 251.543 363.46 252.273 359.979 250.483C363.475 248.663 368.117 249.013 371.996 248.853Z" fill="#FDFDFB"/>
<path d="M365.501 232.252L366.138 232.122C367.842 232.982 368.616 233.222 370.565 233.142C375.536 232.942 380.242 233.122 385.11 234.212L384.711 235.232L381.006 235.172C374.305 233.842 367.063 235.112 360.218 234.422L360.211 233.532C361.98 233.132 363.744 232.702 365.501 232.252Z" fill="#BCBBB7"/>
<path d="M382.351 159.893L383.684 161.073C380.188 164.413 370.806 163.493 366.12 163.533L364.698 162.603C367.735 160.223 378.181 160.283 382.351 159.893Z" fill="#F2F1E8"/>
<path d="M352.726 26.8525C353.82 26.0225 355.292 25.9125 356.504 26.5425C357.716 27.1825 358.451 28.4626 358.391 29.8326C358.33 31.2026 357.485 32.4125 356.222 32.9425C354.576 33.6325 352.675 32.9825 351.786 31.4425C350.898 29.8925 351.301 27.9225 352.726 26.8525Z" fill="#F2F1E8"/>
<path d="M339.067 26.8226C340.171 26.1126 341.574 26.0826 342.713 26.7326C343.851 27.3726 344.538 28.6026 344.497 29.9126C344.456 31.2126 343.693 32.3927 342.516 32.9727C340.835 33.7927 338.805 33.1526 337.89 31.5226C336.974 29.8926 337.491 27.8326 339.067 26.8226Z" fill="#F2F1E8"/>
<path d="M324.565 232.383L325.882 231.343C328.935 231.543 333.761 231.233 335.538 232.893C335.371 247.333 334.733 259.573 335.464 274.103C345.708 274.873 405.991 275.173 414.552 273.593C416.531 271.663 416.893 270.253 417.959 267.733C421.762 266.103 422.975 268.413 426.699 266.893C433.642 265.613 478.816 266.363 488.183 266.393L630.466 266.083C639.519 266.053 700.895 266.553 703.564 264.193C703.678 261.403 703.543 260.233 704.431 257.603C707.305 257.583 711.107 259.703 714.003 260.983L714.081 262.593L715.461 261.403L714.68 265.153L715.357 262.083C719.848 261.523 721.864 264.203 725.323 263.553C727.806 263.183 727.653 263.103 730.003 263.913C731.835 267.313 731.704 270.493 731.908 274.263C735.157 334.573 715.513 325.303 664.197 325.783L564.807 326.323C565.674 336.733 567.524 346.233 570.113 356.323C586.249 356.643 632.848 354.903 645.715 358.033L645.826 359.163C635.26 363.603 586.11 361.743 572.535 361.643C579.358 365.003 594.38 370.593 594.075 379.173C590.943 385.613 572.554 385.613 566.098 384.913C540.723 382.153 465.483 390.013 445.139 381.403C443.489 378.613 444.052 380.153 444.116 376.393C447.725 369.033 456.396 366.243 463.986 362.513C470.769 351.873 471.359 338.743 472.677 326.343L381.395 326.163C308.379 326.453 302.262 332.753 306.209 254.543C306.662 245.563 302.357 237.763 312.204 233.933C318.038 231.763 318.862 230.913 324.565 232.383Z" fill="#F2F1E8"/>
<path d="M472.677 326.343L381.395 326.163C308.379 326.453 302.262 332.753 306.209 254.543C306.662 245.563 302.357 237.763 312.204 233.933C312.08 250.113 308.45 302.583 317.861 312.753C324.251 319.663 336.575 319.213 345.24 319.173L592.521 319.303L662.994 318.583C723.501 317.873 726.14 326.863 725.323 263.553C727.806 263.183 727.653 263.103 730.003 263.913C731.835 267.313 731.704 270.493 731.908 274.263C735.157 334.573 715.513 325.303 664.197 325.783L564.807 326.323C565.674 336.733 567.524 346.233 570.113 356.323C586.249 356.643 632.848 354.903 645.715 358.033L645.826 359.163C635.26 363.603 586.11 361.743 572.535 361.643C579.358 365.003 594.38 370.593 594.075 379.173C590.943 385.613 572.554 385.613 566.098 384.913C540.723 382.153 465.483 390.013 445.139 381.403C443.489 378.613 444.052 380.153 444.116 376.393C447.725 369.033 456.396 366.243 463.986 362.513C470.769 351.873 471.359 338.743 472.677 326.343Z" fill="#13120E"/>
<path d="M479.284 326.672H557.913C558.666 335.702 559.412 346.672 562.298 355.232C566.573 367.912 578.005 371.802 588.886 377.422C578.217 378.112 567.419 377.812 556.729 377.812C533.818 377.732 510.906 377.812 487.996 378.052C474.94 378.162 461.736 378.742 448.71 377.912C454.064 374.992 460.236 373.022 465.022 369.182C478.092 358.712 477.855 341.952 479.284 326.672Z" fill="#F2F1E8"/>
<path d="M324.565 232.383L325.882 231.343C328.935 231.543 333.761 231.233 335.538 232.893C335.371 247.333 334.733 259.573 335.464 274.103C345.708 274.873 405.991 275.173 414.552 273.593C416.531 271.663 416.893 270.253 417.959 267.733C421.762 266.103 422.975 268.413 426.699 266.893C433.642 265.613 478.816 266.363 488.183 266.393L630.466 266.083C639.519 266.053 700.895 266.553 703.564 264.193C703.678 261.403 703.543 260.233 704.431 257.603C707.305 257.583 711.107 259.703 714.003 260.983C711.169 275.303 720.303 282.363 697.814 282.563C682.155 282.693 666.103 282.993 650.393 283.123L548.225 283.613L419.529 283.453C406.975 283.423 332.545 284.703 326.653 279.703C323.18 271.403 324.536 243.333 324.565 232.383Z" fill="#13120E"/>
<path d="M515.12 292.992C519.469 290.902 524.692 292.713 526.809 297.053C528.926 301.383 527.143 306.622 522.817 308.762C518.458 310.912 513.177 309.112 511.043 304.742C508.91 300.372 510.739 295.102 515.12 292.992Z" fill="#13120E"/>
<path d="M366.126 390.213C365.97 387.223 365.458 382.383 368.214 380.323C382.416 369.743 419.103 369.772 433.602 379.782C436.436 381.742 435.406 391.313 435.131 394.823C434.924 407.203 431.573 444.202 423.47 453.522C418.275 459.502 381.767 460.283 377.489 450.793C376.153 447.693 374.594 442.573 373.546 438.943C360.717 436.603 364.828 439.833 357.048 440.293L355.971 439.502L359.973 436.693L360.051 434.943C353.276 429.453 352.399 427.813 348.564 420.343L348.616 420.823L344.426 416.933L344.576 415.843L343.194 411.632C344.733 407.292 349.763 398.373 349.261 395.793C355.55 390.773 358.155 390.833 366.126 390.213Z" fill="#21110C"/>
<path d="M366.126 390.213C365.97 387.223 365.458 382.383 368.214 380.323C382.416 369.743 419.103 369.772 433.602 379.782C436.436 381.742 435.406 391.313 435.131 394.823C433.872 390.413 434.175 385.163 431.895 381.933L429.293 382.522C415.82 377.202 385.525 376.723 372.376 383.173C370.604 386.413 369.738 389.173 366.497 390.543L366.126 390.213Z" fill="#171614"/>
<path d="M372.376 383.173C385.525 376.723 415.82 377.203 429.293 382.523C427.855 384.463 428.748 383.673 426.594 384.883C415.917 384.003 377.531 385.073 372.376 383.173Z" fill="#DED2C0"/>
<path d="M371.659 387.953C390.391 394.423 411.984 394.623 430.568 387.683C428.471 404.733 426.477 421.813 423.056 438.663C422.419 442.383 422.186 445.713 419.062 448.243C411.034 454.753 393.492 451.233 384.159 449.383C375.802 430.583 375.027 408.103 371.659 387.953Z" fill="#F03906"/>
<path d="M366.309 400.513C352.944 395.953 345.069 420.243 372.099 429.183L372.771 431.153C370.69 432.753 369.565 432.643 366.89 432.243C347.255 429.313 341.152 393.093 366.298 396.223C368.884 398.793 368.064 398.453 368.676 403.033L366.309 400.513Z" fill="#A47465"/>
<path d="M366.31 400.513L368.677 403.033C371.641 413.893 371.097 415.433 372.814 426.393L371.845 426.943C362.32 419.063 347.407 408.933 366.31 400.513Z" fill="#13120E"/>
<path d="M483.131 132.292C481.524 133.072 479.868 133.742 478.173 134.302C462.651 139.372 439.974 136.032 436.363 117.272C426.716 67.162 521.922 79.862 486.845 130.382L501.834 144.542C517.376 143.532 532.957 143.222 548.527 143.602C548.938 157.592 549.149 171.582 549.16 185.572L535.039 186.052C528.379 182.232 528.156 183.462 521.737 186.342C516.134 186.062 506.313 186.552 500.398 186.652C501.643 178.722 501.47 173.942 496.703 167.502C496.869 160.502 497.118 153.512 497.452 146.522C492.389 142.092 487.802 137.142 483.131 132.292Z" fill="#c72707"/>
<path d="M501.835 144.542C517.377 143.532 532.958 143.222 548.528 143.602C548.939 157.592 549.15 171.582 549.161 185.572L535.04 186.052C528.38 182.232 528.157 183.462 521.738 186.342C516.135 186.062 506.314 186.552 500.399 186.652C501.644 178.722 501.471 173.942 496.704 167.502C496.87 160.502 497.119 153.512 497.453 146.522C500.813 149.652 512.224 159.522 513.085 162.822C516.065 168.242 518.169 171.612 524.513 168.372C527.071 165.232 526.813 164.292 527.231 160.042C511.236 154.502 515.03 158.452 501.835 144.542Z" fill="#F03906"/>
<path d="M501.835 144.542C517.377 143.532 532.958 143.222 548.528 143.602C548.939 157.592 549.15 171.582 549.161 185.572L535.04 186.052C528.38 182.232 528.157 183.462 521.738 186.342C516.135 186.062 506.314 186.552 500.399 186.652C501.644 178.722 501.471 173.942 496.704 167.502C496.87 160.502 497.119 153.512 497.453 146.522C500.813 149.652 512.224 159.522 513.085 162.822C510.163 162.092 502.671 154.022 499.88 151.322C498.929 170.792 503.231 167.022 504.194 182.902C508.29 182.992 541.306 181.382 543.138 180.602C546.805 173.972 545.94 158.762 544.189 151.262C543.388 147.832 542.937 148.432 539.967 147.012C540.843 146.742 541.72 146.482 542.599 146.222C536.349 145.062 516.003 145.972 508.841 146.122C517.871 156.002 523.287 154.282 527.231 160.042C511.236 154.502 515.03 158.452 501.835 144.542Z" fill="#c72707"/>
<path d="M483.131 132.293C474.503 121.863 468.959 119.493 457.479 113.513C455.651 112.553 455.997 109.463 456.018 107.683C458.085 104.413 456.713 105.483 460.05 104.103C461.894 104.383 464.625 105.253 465.729 106.743C472.688 116.143 477.951 122.573 486.845 130.383L501.834 144.543C515.029 158.453 511.235 154.503 527.23 160.043C526.812 164.293 527.07 165.233 524.512 168.373C518.168 171.613 516.064 168.243 513.084 162.823C512.223 159.523 500.812 149.653 497.452 146.523C492.389 142.093 487.802 137.143 483.131 132.293Z" fill="#340905"/>
<path d="M460.958 88.8525C468.996 89.5025 476.107 90.6526 483.68 93.4626C486.45 96.8126 488.579 100.573 490.831 104.283C490.99 108.873 490.694 114.983 488.877 119.283C488.023 121.303 487.571 121.493 485.684 122.313C479.167 120.703 474.798 113.053 470.741 108.153C468.334 105.233 464.58 101.263 460.411 101.433C458.173 101.523 456.316 102.963 455.042 104.703C452.625 108.003 453.334 111.413 453.894 115.143C457.983 118.063 461.771 119.063 466.664 120.053C469.333 123.343 472.045 126.593 474.468 130.063C473.692 130.083 472.792 130.063 472.05 130.303C470.918 130.673 469.928 131.393 468.824 131.843C462.163 134.553 451.328 131.853 445.274 128.663C444.583 127.603 443.914 126.533 443.24 125.453C440.921 121.763 439.763 118.523 439.408 114.133C438.853 107.283 439.927 100.433 444.695 95.1826C449.139 90.2826 454.653 89.3325 460.958 88.8525Z" fill="#F03906"/>
<path d="M500.399 186.652C506.314 186.552 516.135 186.062 521.738 186.342C517.275 194.922 518.188 209.742 508.515 214.402C497.152 212.312 498.835 194.952 500.399 186.652Z" fill="#F4F2E8"/>
<path d="M304.54 657.972C333.665 646.822 374.892 621.152 406.92 639.622C408.793 642.262 410.08 643.492 410.365 646.702C403.628 645.322 391.035 642.552 384.37 642.462C351.844 642.002 321.837 662.502 292.126 673.742C271.599 681.502 250.823 686.222 229.331 688.902C229.329 693.402 229.845 696.672 227.687 700.502L225.758 701.822C221.511 699.462 222.599 694.342 222.701 689.902C207.668 691.402 188.397 693.422 173.567 691.192C183.865 687.462 211.786 692.932 220.519 681.592C235.35 680.272 263.218 675.482 276.032 670.042C280.387 668.952 280.882 668.802 284.816 666.722C291.074 664.382 298.818 661.282 304.54 657.972Z" fill="#13120E"/>
<path d="M785.187 614.933C759.118 612.613 734.615 604.383 707.637 611.483C700.574 613.333 691.24 620.153 682.745 622.323L680.925 621.103C677.94 615.563 678.688 611.133 679.311 605.023C681.547 583.103 694.968 566.253 713.804 555.473C699.535 579.403 689.352 579.773 686.45 612.613C691.566 608.793 704.336 598.683 710.543 599.903L705.612 603.823C706.748 604.283 721.53 601.523 725.634 601.353C741.702 600.713 754.427 602.013 770.163 604.673C773.085 605.273 776.501 605.853 779.289 606.733L780.033 608.563C789.996 612.163 798.028 612.143 807.342 614.153C806.835 615.103 805.959 616.603 805.622 617.553L792.911 616.053C792.837 626.233 794.098 681.133 788.679 685.553L786.926 684.333C783.895 675.803 784.964 626.143 785.187 614.933Z" fill="#13120E"/>
<path d="M645.6 211.343C650.071 211.443 651.807 211.073 655.561 213.163C656.027 216.033 656.229 221.513 657.683 223.003L659.159 222.993C663.411 223.333 662.997 222.603 665.587 224.843C668.304 233.103 667.089 241.543 666.633 250.323L667.164 251.523C670.849 251.303 671.447 251.123 675.098 252.223L675.627 253.253C668.057 255.783 625.984 253.813 616.117 253.523C615.795 247.663 615.225 220.003 617.397 216.323L618.534 217.903L617.433 218.273L618.633 218.663L618.748 220.563C619.062 224.853 619.102 226.513 618.712 230.783L619.803 232.363C632.873 234.173 629.671 229.533 633.269 223.153L638.422 222.263C640.079 222.153 641.221 221.823 642.851 221.483C645.31 218.803 644.986 215.563 645.6 211.343Z" fill="#ECC7AC"/>
<path d="M645.6 211.343C650.071 211.443 651.807 211.073 655.561 213.163C654.255 224.093 656.662 238.013 654.667 249.503C651.893 251.133 653.452 250.593 649.594 250.283C642.379 243.733 646.46 221.873 645.6 211.343Z" fill="#c72707"/>
<path d="M638.422 222.263C640.867 223.813 642.268 224.133 642.642 227.773C643.469 235.813 645.1 240.673 641.509 247.983C638.467 250.303 640.137 249.703 636.321 249.853C634.368 248.573 634.298 249.113 634.047 247.233C633.037 239.693 633.801 230.623 633.269 223.153L638.422 222.263Z" fill="#c72707"/>
<path d="M616.117 253.522C615.795 247.662 615.225 220.002 617.397 216.322L618.534 217.902L617.433 218.272L618.633 218.662L618.748 220.562C617.928 230.662 618.198 241.642 618.223 251.832C630.823 251.382 658.096 252.702 667.164 251.522C670.849 251.302 671.447 251.122 675.098 252.222L675.627 253.252C668.057 255.782 625.984 253.812 616.117 253.522Z" fill="#13120E"/>
<path d="M659.159 222.992C663.411 223.332 662.997 222.602 665.587 224.842C668.304 233.102 667.089 241.542 666.633 250.322C663.776 250.602 662.314 251.082 659.87 249.642C656.037 243.322 657.841 230.192 659.159 222.992Z" fill="#c72707"/>
<path d="M621.52 233.272C624.335 233.152 626.793 232.742 629.269 234.352C631.977 238.602 630.509 245.362 630.159 250.272C627.346 249.872 624.513 250.183 622.67 247.683C620.236 244.383 621.379 237.222 621.52 233.272Z" fill="#B5604A"/>
<path d="M622.946 122.083C622.381 114.593 621.832 96.9627 623.809 90.1927C624.886 98.6427 625.041 105.283 625.266 113.833C628.1 108.313 629.228 103.533 635.534 101.933C639.2 102.663 640.495 104.693 643.129 107.433L645.803 103.993C652.717 95.0727 654.381 96.5927 663.812 100.793C667.708 97.5927 673.439 91.4928 677.974 89.8428C676.213 92.9928 673.075 95.6227 670.408 98.1727C681.566 102.013 674.295 109.173 677.252 119.213L679.22 119.773L679.875 120.953C675.916 123.363 631.301 122.113 622.946 122.083Z" fill="#21110C"/>
<path d="M670.409 98.1719C681.567 102.012 674.296 109.172 677.253 119.212C669.041 119.812 654.648 119.232 645.987 119.152C646.064 115.952 646.683 111.252 645.01 108.902C646.363 106.532 648.243 104.902 650.36 100.942C659.57 97.3519 658.12 104.922 667.854 101.162C668.124 100.702 669.992 98.6519 670.409 98.1719Z" fill="#c72707"/>
<path d="M650.359 100.942C659.569 97.3521 658.119 104.922 667.853 101.162C668.335 106.202 667.908 112.512 667.738 117.682C666.75 114.092 665.643 108.272 662.771 106.252L659.852 106.782C657.13 110.402 658.7 112.582 657.504 118.602C652.752 116.132 656.458 107.842 650.359 100.942Z" fill="#DED2C0"/>
<path d="M632.597 105.262L635.281 103.942C638.154 105.042 636.936 104.192 638.919 106.772C638.772 110.142 638.723 114.952 638.259 118.162L638.387 119.312C633.701 119.582 632.244 120.472 627.343 119.972L626.244 118.502L627.262 115.782L628.416 116.722C629.134 110.862 629.345 110.182 632.597 105.262Z" fill="#c72707"/>
<path d="M632.597 105.262L635.281 103.942C638.154 105.042 636.936 104.192 638.919 106.772C638.772 110.142 638.723 114.952 638.259 118.162C635.567 110.662 640.985 110.162 632.597 105.262Z" fill="#DED2C0"/>
<path d="M638.918 106.772L645.009 108.902C646.682 111.252 646.063 115.952 645.986 119.152L638.386 119.312L638.258 118.162C638.722 114.952 638.771 110.142 638.918 106.772Z" fill="#F4F2E8"/>
<path d="M372.125 356.942C384.703 356.662 458.774 354.022 464.564 358.652C458.442 363.992 396.961 362.332 384.48 362.462L341.102 362.642C333.12 368.982 320.987 381.332 310.47 381.042L310.495 380.162C319.13 371.592 330.543 364.772 340.124 357.162L372.125 356.942Z" fill="#13120E"/>
<path d="M122.887 71.0121C124.28 69.9221 126.192 69.7821 127.725 70.6621C129.259 71.5421 130.111 73.2621 129.881 75.0121C129.65 76.7621 128.384 78.2021 126.676 78.6521C124.677 79.1821 122.584 78.232 121.665 76.372C120.747 74.522 121.258 72.2821 122.887 71.0121Z" fill="#F4F2E8"/>
<path d="M652.769 45.792L655.717 46.6019C657.47 48.5119 658.785 50.182 661.326 51.052C663.365 50.282 664.638 49.592 666.811 50.172C669.381 55.062 671.848 59.8919 673.979 64.9919L672.881 66.772C670.604 67.382 669.267 67.692 667.597 69.402C667.089 71.642 666.587 73.652 665.719 75.782C662.916 76.282 662.242 75.772 659.558 74.682C656.481 74.742 655.962 77.312 652.811 77.092C648.645 73.252 643.893 69.512 640.667 64.842C642.185 63.182 643.052 62.352 643.349 60.072C642.209 58.402 641.805 57.7719 641.396 55.7319C643.644 52.4519 646.034 52.462 649.724 51.582C650.791 50.312 651.396 49.1419 652.024 47.6219L652.769 45.792Z" fill="#c72707"/>
<path d="M654.794 57.9021C656.375 57.1321 658.253 57.2721 659.693 58.2921C661.133 59.3021 661.905 61.0221 661.708 62.7721C661.511 64.5221 660.375 66.0221 658.745 66.6921C656.341 67.6721 653.588 66.5821 652.523 64.2121C651.457 61.8421 652.462 59.0521 654.794 57.9021Z" fill="#DED2C0"/>
<path d="M571.47 49.4325C580.445 46.5125 588.166 57.7024 585.128 60.8724L583.144 63.1324C582.482 96.5124 530.074 61.5224 568.696 49.6224L571.47 49.4325Z" fill="#c72707"/>
<path d="M571.471 49.4325C580.446 46.5125 588.167 57.7024 585.129 60.8724C580.298 61.6124 576.728 62.7624 572.682 60.4924C570.776 57.2824 571.375 53.3025 571.471 49.4325Z" fill="#c72707"/>
<path d="M571.47 49.4326C571.374 53.3026 570.775 57.2826 572.681 60.4926C576.727 62.7626 580.297 61.6126 585.128 60.8726L583.144 63.1326C579.188 64.0326 573.562 64.0525 569.376 64.2325C569.358 59.1225 569.055 54.6926 568.696 49.6226L571.47 49.4326Z" fill="#DFBBA7"/>
<path d="M562.418 54.7021C564.618 55.1821 564.974 55.3421 566.63 56.8621C566.664 58.1421 566.569 60.0221 566.88 61.3121C568.542 68.1921 573.402 64.4221 577.71 67.3521C577.56 70.1121 576.241 71.4621 574.585 73.5221C570.717 73.6821 567.16 73.6921 563.666 71.7921C561.111 70.4021 559.083 68.2621 558.548 65.2921C557.761 60.9421 560.018 58.0021 562.418 54.7021Z" fill="#B5604A"/>
<path d="M829.314 40.8623C830.553 40.1523 832.08 40.1924 833.286 40.9524C834.491 41.7124 835.18 43.0723 835.075 44.5023C834.971 45.9223 834.091 47.1723 832.787 47.7423C830.907 48.5823 828.705 47.7924 827.779 45.9524C826.853 44.1224 827.528 41.8823 829.314 40.8623Z" fill="#F4F2E8"/>
<path d="M448.241 53.4624L447.014 52.9624C449.307 50.7924 448.007 51.3624 450.918 50.9624C452.904 53.1424 452.775 53.1223 453.956 55.8723C457.023 56.3423 455.881 56.2123 459.181 55.1123L460.444 56.2224L460.188 59.5724L460.631 62.5624L462.047 62.7224C464.988 60.1124 469.568 51.8623 472.428 47.6523C472.031 52.6123 471.719 57.5724 471.491 62.5424L472.336 63.1824C474.054 61.0124 475.393 59.3924 477.239 57.3324L478.672 57.5123C479.41 59.9023 478.876 58.8624 480.159 60.6824C482.038 59.2524 483.929 57.8424 485.834 56.4424L487.549 57.1523L488.886 61.7924C493.205 62.4824 490.239 59.8124 496.207 58.5824C509.249 65.0824 511.115 53.6823 519.015 59.2423L518.459 60.6624C514.837 61.4824 511.21 62.2724 507.577 63.0424C500.533 64.6024 500.745 61.8624 494.749 62.0724C492.578 64.1424 492.529 64.3423 489.925 65.7323C482.361 64.2423 490.038 63.9824 483.966 61.5524C478.261 63.4424 475.211 66.0923 471.022 67.6323L468.696 66.3024C468.201 63.6824 468.538 64.2423 467.353 61.9823C461.063 64.5223 456.327 69.5723 450.158 68.5123C447.992 66.0923 448.589 66.0023 447.841 62.2523L446.915 62.4424C445.1 65.5324 444.263 67.6824 441.228 69.5524C438.012 68.9024 439.256 69.7223 437.392 66.9923C436.546 61.4323 437.066 57.0524 439.517 51.9524C441.24 54.6424 438.446 63.6124 440.562 66.4724C443.392 64.3124 446.378 57.7624 447.823 54.4424L448.241 53.4624Z" fill="#13120E"/>
<path d="M448.242 53.4624L447.015 52.9624C449.308 50.7924 448.008 51.3624 450.919 50.9624C452.905 53.1424 452.776 53.1223 453.957 55.8723C457.024 56.3423 455.882 56.2123 459.182 55.1123L460.445 56.2224L460.189 59.5724C459.768 59.0524 458.801 58.3423 458.235 57.8823C454.523 59.6223 456.44 61.0824 452.712 65.0924L451.53 64.1123C451.784 61.2523 451.876 59.2623 451.925 56.3923C450.276 53.5623 451.439 54.5324 448.242 53.4624Z" fill="#F2F1E8"/>
<path d="M114.057 224.912C114.927 224.012 116.223 223.652 117.432 223.992C118.641 224.322 119.569 225.292 119.851 226.522C120.133 227.742 119.724 229.022 118.783 229.852C117.408 231.062 115.318 230.982 114.048 229.652C112.779 228.322 112.782 226.232 114.057 224.912Z" fill="#F4F2E8"/>
<path d="M649.481 160.512C649.369 160.572 651.626 159.332 651.453 159.402C660.74 156.052 666.74 138.122 677.561 139.392C676.356 142.052 675.638 141.552 672.038 143.102C675.529 143.532 676.628 142.972 678.458 144.932C675.573 147.042 671.9 147.392 668.317 148.092C660.848 160.382 654.096 174.782 642.147 156.412C637.388 157.782 631.317 164.492 626.392 168.292C623.56 171.382 624.33 171.602 621.189 171.962L620.847 170.702C624.414 164.092 631.895 149.412 639.994 150.372C644.322 152.922 646.4 156.452 649.481 160.512Z" fill="#1B110C"/>
<path d="M641.105 152.553L642.147 156.413C637.388 157.783 631.317 164.493 626.392 168.293L627.813 164.553C629.819 163.143 637.999 155.183 641.105 152.553Z" fill="#915F52"/>
<path d="M627.812 164.553C631.003 158.393 633.424 152.563 641.104 152.553C637.998 155.183 629.819 163.143 627.812 164.553Z" fill="#DED2C0"/>
<path d="M668.316 148.093C669.77 145.183 669.663 145.343 672.037 143.103C675.528 143.533 676.627 142.973 678.457 144.933C675.572 147.043 671.899 147.393 668.316 148.093Z" fill="#A47465"/>
<path d="M483.533 229.862C485.078 230.992 484.793 230.472 485.533 232.002C485.943 232.852 487.231 236.542 487.787 237.032C489.234 238.312 508.419 234.252 512.187 237.092C509.707 238.722 507.739 239.422 504.881 240.232C498.736 236.742 494.31 239.982 487.649 240.472C484.429 238.722 484.669 237.132 483.472 233.812C480.228 236.952 480.877 242.212 477.946 245.932L476.51 245.832C475.918 243.622 475.438 240.842 474.43 238.822C473.324 236.592 472.219 236.322 470.096 235.462L468.318 236.202C465.944 238.532 463.5 241.582 460.068 242.062C457.552 240.422 456.256 239.632 453.174 239.342C451.773 240.682 450.631 242.062 448.733 242.632C445.307 243.672 445.673 237.822 443.365 236.322L437.378 242.002L437.186 241.262L436.86 242.182L438.235 241.272L437.566 240.592C439.386 237.842 441.143 234.292 444.237 232.922C446.62 234.162 447.051 236.562 448.149 238.962C451.323 239.542 451.439 235.652 455.075 235.562C455.732 236.382 456.775 237.912 457.662 238.582C462.523 242.222 465.332 232.882 470.308 232.512C473.117 232.302 474.559 233.502 476.628 235.142C476.877 235.342 477.12 235.542 477.366 235.742C480.428 234.612 481.523 232.382 483.533 229.862Z" fill="#171614"/>
<path d="M615.311 136.072C618.752 139.862 617.306 171.002 618.763 178.612C625.112 179.882 632.236 178.582 638.733 178.412C652.364 178.052 666.972 177.212 680.531 177.942L681.583 179.882C659.786 182.252 637.312 180.932 615.374 181.352C615.127 167.472 612.244 149.362 615.311 136.072Z" fill="#171614"/>
<path d="M512.8 89.832C515.703 90.592 516.329 93.072 518.391 93.802C522.625 95.302 544.799 89.982 553.065 92.312C553.618 92.472 554.161 92.652 554.709 92.832C556.602 91.672 557.244 91.172 559.513 91.022L559.709 92.4819L555.724 96.902C555.524 96.812 555.318 96.742 555.125 96.642C544.631 91.052 526.248 98.572 515.694 96.652L514.412 93.202C511.75 92.682 511.365 95.6019 508.562 96.1019C508.85 93.3219 510.967 91.872 512.8 89.832Z" fill="#13120E"/>
<path d="M552.568 107.862C554.253 107.752 554.555 107.922 556.024 108.622L555.891 109.802C543.355 112.762 527.868 111.442 514.979 111.452L512.79 111.352L512.234 110.332C512.714 110.272 513.21 110.262 513.675 110.132C523.603 107.172 541.683 108.352 552.568 107.862Z" fill="#171614"/>
<path d="M518.466 102.982C529.921 102.562 541.223 102.362 552.682 102.822L552.909 103.382L554.538 103.092L554.918 103.912C552.606 104.772 550.663 104.672 548.23 104.672C536.88 105.092 522.803 106.902 511.828 104.472L512.454 103.502L518.466 102.982Z" fill="#3B3B37"/>
<path d="M621.511 194.862C624.945 196.752 623.965 199.382 626.265 202.242C629.025 201.312 628.463 197.812 631.591 196.882C635.887 199.972 636.776 200.382 641.765 199.612C643.864 200.952 643.994 201.012 644.867 203.332L643.784 204.092L640.786 203.212C638.878 203.652 637.978 203.882 636.054 203.222C633.329 202.292 629.099 203.802 625.954 203.882C623.348 202.362 623.3 201.962 622.021 199.192L621.135 199.132L618.74 203.972C618.608 203.612 618.412 203.262 618.346 202.882C617.888 200.262 620.249 197.032 621.511 194.862Z" fill="#171614"/>
<path d="M489.846 248.643C496.065 249.003 502.565 248.243 508.533 250.193L504.49 251.083L506.206 251.053C502.024 251.783 497.688 251.353 493.461 251.203C489.477 249.953 486.356 252.373 482.685 253.453C480.337 254.133 479.257 253.743 477.187 252.633C479.3 250.373 486.686 249.493 489.846 248.643Z" fill="#13120E"/>
<path d="M448.912 247.042L452.564 250.622C457.149 249.672 461.315 250.032 465.923 250.392L465.976 250.772C462.141 251.102 458.007 251.212 454.351 252.482C453.738 252.702 453.133 252.932 452.524 253.162C451.518 252.892 449.782 251.832 448.831 251.342L447.811 251.862C447.374 252.082 446.932 252.292 446.497 252.522C444.415 253.592 443.57 253.692 441.214 253.472L440.009 251.622C441.929 250.692 441.059 250.892 443.315 250.782C445.969 250.662 447.014 248.822 448.912 247.042Z" fill="#13120E"/>
<path d="M511.425 115.972C517.824 115.562 524.408 114.942 530.821 115.192C534.348 115.332 535.539 115.212 537.878 117.802C531.345 118.492 516.806 120.072 511.425 115.972Z" fill="#171614"/>
<path d="M593.832 61.922C602.523 60.912 617.46 59.232 625.599 62.152C625.244 62.302 624.9 62.4919 624.533 62.6119C617.688 64.8319 600.246 64.652 593.832 61.922Z" fill="#3B3B37"/>
<path d="M606.75 66.8424C608.961 66.6224 611.269 66.2824 613.483 66.5724C615.296 66.8124 615.834 66.7124 616.994 68.2024C614.293 70.1524 610.432 69.5623 607.233 69.5123C603.471 69.5823 599.419 70.0823 595.874 68.6523C598.914 66.8323 603.275 67.0724 606.75 66.8424Z" fill="#171614"/>
<path d="M592.872 54.7924C599.624 55.7324 612.522 52.2224 617.573 56.1624C616.274 56.6324 614.951 57.1023 613.596 57.3823C608.351 58.5023 597.164 57.5824 592.872 54.7924Z" fill="#171614"/>
<path d="M655.904 195.933C660.965 195.583 665.557 195.313 670.602 196.203L670.495 197.313L666.973 197.742C661.885 198.112 656.992 198.423 651.941 197.573L652.525 196.482L655.904 195.933Z" fill="#3B3B37"/>
<path d="M652.654 201.622C655.507 201.622 658.408 200.992 660.783 202.642L659.913 204.602C656.943 204.442 654.085 204.922 651.662 203.122L652.654 201.622Z" fill="#3B3B37"/>
<path d="M623.632 54.8524C626.579 54.2424 627.786 53.9224 630.659 55.1924C628.573 55.9424 626.923 56.2924 624.712 56.4224L623.632 54.8524Z" fill="#13120E"/>
</svg>
