<svg width="913" height="785" viewBox="0 0 913 785" fill="none" xmlns="http://www.w3.org/2000/svg">
<path d="M643.738 82.8011C645.928 82.2351 648.258 82.9051 649.818 84.5511C651.388 86.1971 651.928 88.5591 651.248 90.7231C650.568 92.8871 648.768 94.5121 646.548 94.9691C643.228 95.6511 639.968 93.5601 639.208 90.2571C638.438 86.9541 640.448 83.6451 643.738 82.8011Z" fill="#F4F2E8"/>
<path d="M289.538 99.338C292.338 78.847 318.788 0.194 342.268 0C346.178 1.743 347.988 4.655 350.788 8.013C361.888 23.61 373.438 49.193 378.948 67.518C395.158 63.935 400.168 65.29 416.098 69.273C422.568 62.043 427.698 57.017 434.758 50.36C444.458 40.924 490.968 3.628 503.368 11.42C508.118 19.07 503.958 43.419 502.068 52.153C498.778 73.759 489.628 103.272 476.198 120.83C488.748 144.247 494.598 161.892 486.728 188.052C486.078 190.203 485.378 192.34 484.628 194.461C482.858 201.29 480.708 206.42 478.118 212.968C492.698 235.576 523.848 262.514 492.938 280.093C467.748 296.214 446.968 286.624 422.768 275.796C422.808 286.843 423.088 291.819 424.648 302.396C426.728 316.511 438.528 354.542 432.168 366.921L430.688 367.167C429.068 365.236 428.368 364.334 426.588 362.567C425.978 371.664 430.788 400.081 422.888 405.718L421.678 404.723L420.888 404.894C422.518 416.738 424.438 428.539 426.658 440.287L437.648 443.647C438.518 446.548 438.838 447.564 440.518 450.078C445.968 458.227 448.088 469.533 452.498 477.905L426.208 472.091C413.588 470.079 398.768 472.784 390.378 464.286L390.498 463.101C389.948 461.17 389.578 458.761 389.208 456.748L388.388 456.9L385.858 462.381L383.938 462.344C382.988 464.332 381.408 468.753 380.538 470.973C364.588 469.712 344.948 467.466 329.438 464.221C327.278 458.539 325.578 451.572 323.948 445.602C317.648 474.23 336.448 464.326 341.768 473.665C334.218 472.572 331.538 472.031 324.288 469.715L327.448 473.02L327.298 475.048C324.408 477.209 320.628 478.819 318.718 480.625C309.428 485.821 313.108 486.001 306.518 492.694L307.978 491.817C310.418 495.797 312.668 495.192 317.628 497.655C319.428 500.442 320.308 500.747 320.378 503.553C321.578 504.296 322.828 505.182 323.998 505.979L322.648 507.052C313.538 508.425 290.688 508.244 282.648 504.149C269.428 497.416 266.868 473.011 261.748 458.587L261.448 457.762C260.318 451.143 252.508 423.281 247.558 419.278L245.668 419.909C246.228 429.627 253.738 465.084 257.308 474.642C259.858 486.786 264.898 499.286 272.268 509.25C272.828 510.01 273.858 511.468 274.148 512.441C271.548 516.312 269.688 517.197 265.788 519.968C261.018 520.011 258.468 519.798 253.788 521.088C239.068 515.723 157.098 485.736 149.328 479.677C131.968 490.169 86.808 507.486 67.338 514.962C61.498 513.275 56.0479 516.006 51.6679 513.405L53.1979 512.251C51.4679 509.855 51.408 510.002 48.878 508.366C45.538 507.371 44.428 506.333 41.618 504.354C29.368 491.433 26.3479 485.314 19.4379 468.683C17.4479 461.416 10.118 438.408 16.338 432.88L18.238 434.686L18.3079 432.566C15.8579 429.078 16.038 428.323 15.478 423.914L17.368 423.14L17.9379 421.074L19.0579 420.833C18.0879 404.403 17.898 393.053 21.348 377.015C22.968 363.729 29.398 345.236 34.488 332.765C48.578 298.166 60.868 264.821 52.498 226.896C51.798 223.692 51.618 223.239 51.358 219.934C57.328 222.279 59.838 234.494 61.248 240.241C64.988 255.51 62.7179 272.297 60.5279 287.655L61.738 289.396L63.228 288.502C66.018 286.845 66.5879 286.131 69.6679 286.102C75.0979 296.758 75.708 308.213 80.358 319.628C86.938 309.797 91.8779 275.428 99.8979 276.466C105.308 281.425 123.188 320.435 126.178 328.923C138.828 307.548 137.998 288.319 141.028 264.717C141.248 263.061 142.058 263.193 143.538 262.457L147.848 263.939C156.518 266.934 158.528 280.059 163.408 283.432C168.648 274.467 163.558 257.528 172.858 251.002C176.758 251.423 182.498 256.61 183.848 260.451L185.558 260.415C186.118 262.314 186.828 264.454 187.228 266.366L188.308 267.203C193.068 270.103 193.068 272.011 195.018 277.923L195.638 277.962L194.928 276.63C196.528 277.625 196.518 277.409 197.678 278.689L198.498 278.406C202.418 292.403 198.538 321.471 195.668 335.58C211.548 311.968 230.638 291.089 244.128 265.802C246.218 261.89 259.848 233.717 258.688 231.054C257.608 228.581 253.368 229.566 252.718 225.157C251.428 216.385 263.148 201.275 267.748 194.453C262.638 195.465 254.478 198.303 250.588 194.655C250.448 191.886 250.898 191.761 252.298 189.243C253.708 186.605 255.508 184.143 257.198 181.649C265.548 172.96 273.568 141.335 288.918 129.563C288.118 117.929 287.348 110.685 289.538 99.338Z" fill="#F03906"/>
<path d="M289.538 99.338C292.338 78.847 318.788 0.194 342.268 0C346.178 1.743 347.988 4.655 350.788 8.013C361.888 23.61 373.438 49.193 378.948 67.518C395.158 63.935 400.168 65.29 416.098 69.273C422.568 62.043 427.698 57.017 434.758 50.36C444.458 40.924 490.968 3.628 503.368 11.42C508.118 19.07 503.958 43.419 502.068 52.153C498.778 73.759 489.628 103.272 476.198 120.83C488.748 144.247 494.598 161.892 486.728 188.052C486.078 190.203 485.378 192.34 484.628 194.461C482.858 201.29 480.708 206.42 478.118 212.968C492.698 235.576 523.848 262.514 492.938 280.093L489.548 280.073C488.058 278.559 488.508 278.754 486.328 277.846C479.118 273.641 477.668 272.688 474.258 265.158L473.968 263.205C472.298 261.247 453.728 258.157 447.648 254.366C429.498 243.07 423.288 229.787 402.258 221.788C385.198 219.579 337.098 194.037 325.958 201.905L326.228 205.101L328.648 206.22L328.368 207.348C317.578 210.656 300.128 211.153 290.918 216.26L290.418 217.216L292.938 218.316C289.928 218.349 286.118 217.972 283.048 217.756C273.578 219.339 268.678 219.978 258.978 222.3C264.448 209.651 272.388 200.499 279.058 188.545L278.048 186.926C272.758 185.952 267.538 187.19 262.128 187.996C266.728 183.094 282.598 168.44 283.148 163.475L281.268 162.614L279.858 161.251C279.368 156.377 284.668 145.533 289.468 143.789L292.688 145.387L294.708 146.748C300.358 141.946 291.938 102.688 300.908 89.558L298.248 89.617C294.838 93.189 294.248 97.941 289.538 99.338Z" fill="#F03906"/>
<path d="M434.758 50.3602C444.458 40.9242 490.968 3.62819 503.368 11.4202C508.118 19.0702 503.958 43.4192 502.068 52.1532C498.778 73.7592 489.628 103.272 476.198 120.83C488.748 144.247 494.598 161.892 486.728 188.052C486.078 190.203 485.378 192.34 484.628 194.461C482.858 201.29 480.708 206.42 478.118 212.968C492.698 235.576 523.848 262.514 492.938 280.093L489.548 280.073C488.058 278.559 488.508 278.754 486.328 277.846C479.118 273.641 477.668 272.688 474.258 265.158C475.228 250.429 486.698 255.53 497.218 252.098C488.008 240.451 478.298 226.241 471.058 213.329C456.428 187.216 456.448 176.345 484.108 163.476C481.818 152.602 479.528 144.25 474.608 134.276C470.258 123.423 460.388 110.252 457.688 99.8052C460.298 99.7962 460.368 100.046 462.828 101.077C459.378 95.5442 460.348 96.9652 461.488 89.6532L460.278 88.4312L456.288 88.8122L455.398 88.2772L454.958 86.4302C456.298 82.6382 457.718 79.0202 456.468 75.1102C451.228 76.0602 448.268 85.0342 443.178 88.3432L438.628 89.1922C438.638 81.2312 444.088 71.8012 447.468 64.0612L438.658 61.6592L439.418 55.8672C437.748 53.5702 436.658 52.4322 434.758 50.3602Z" fill="#21110C"/>
<path d="M434.758 50.3602C444.458 40.9242 490.968 3.62819 503.368 11.4202C508.118 19.0702 503.958 43.4192 502.068 52.1532C498.718 40.9382 502.378 32.8192 498.688 20.2992L494.038 22.1552C489.098 28.3692 482.518 32.6302 476.878 39.6822C468.218 48.3172 445.888 77.1052 443.178 88.3432L438.628 89.1922C438.638 81.2312 444.088 71.8012 447.468 64.0612L438.658 61.6592L439.418 55.8672C437.748 53.5702 436.658 52.4322 434.758 50.3602Z" fill="#171614"/>
<path d="M447.468 64.0613L449.818 67.1623C459.198 62.3813 480.298 23.0473 494.038 22.1553C489.098 28.3693 482.518 32.6303 476.878 39.6823C468.218 48.3173 445.888 77.1053 443.178 88.3433L438.628 89.1923C438.638 81.2313 444.088 71.8013 447.468 64.0613Z" fill="#340905"/>
<path d="M483.838 170.387L485.008 169.506L483.918 168.96C470.488 176.903 475.138 186.634 467.098 189.611C460.778 179.957 478.788 167.768 486.608 165.471C491.788 172.759 482.648 186.618 484.628 194.461C482.858 201.29 480.708 206.42 478.118 212.968C492.698 235.576 523.848 262.514 492.938 280.093L489.548 280.073C488.058 278.559 488.508 278.754 486.328 277.846C479.118 273.641 477.668 272.688 474.258 265.158C475.228 250.429 486.698 255.53 497.218 252.098C497.538 242.219 471.158 218.149 474.468 208.584C479.038 200.798 484.178 179.275 483.838 170.387Z" fill="#1B110C"/>
<path d="M476.878 39.6816C475.468 43.5636 474.488 45.8906 472.658 49.5926L473.828 50.3886C476.658 49.4446 477.848 48.8846 480.818 48.4656L483.288 49.1326C484.558 51.7146 484.178 52.0366 483.888 55.0126C480.358 70.5396 477.088 92.5946 465.368 103.741C464.248 101.855 464.668 102.499 462.828 101.077C459.378 95.5436 460.348 96.9646 461.488 89.6526L460.278 88.4306L456.288 88.8116L455.398 88.2766L454.958 86.4296C456.298 82.6376 457.718 79.0196 456.468 75.1096C451.228 76.0596 448.268 85.0337 443.178 88.3427C445.888 77.1047 468.218 48.3166 476.878 39.6816Z" fill="#13120E"/>
<path d="M476.878 39.6816C475.468 43.5636 474.488 45.8906 472.658 49.5926L473.828 50.3886C476.658 49.4446 477.848 48.8846 480.818 48.4656C471.628 58.7066 465.658 63.4316 457.178 74.9916C459.968 73.9296 463.898 72.2906 466.638 71.4286C464.398 74.9466 457.288 85.5676 456.288 88.8116L455.398 88.2766L454.958 86.4296C456.298 82.6376 457.718 79.0196 456.468 75.1096C451.228 76.0596 448.268 85.0337 443.178 88.3427C445.888 77.1047 468.218 48.3166 476.878 39.6816Z" fill="#c72707"/>
<path d="M494.038 22.1548L498.688 20.2988C497.678 29.0578 494.158 57.5408 491.258 64.0358C485.228 67.4838 486.848 71.5478 483.948 72.5748C486.768 66.3328 485.048 62.0358 483.888 55.0128C484.178 52.0368 484.558 51.7148 483.288 49.1328L480.818 48.4658C477.848 48.8848 476.658 49.4448 473.828 50.3888L472.658 49.5928C474.488 45.8908 475.468 43.5638 476.878 39.6818C482.518 32.6298 489.098 28.3688 494.038 22.1548Z" fill="#F03906"/>
<path d="M465.368 103.741C477.088 92.5947 480.358 70.5397 483.888 55.0127C485.048 62.0357 486.768 66.3327 483.948 72.5747C486.848 71.5477 485.228 67.4837 491.258 64.0357C487.648 80.8187 481.078 99.8627 472.798 114.957C470.718 112.223 465.998 106.715 465.368 103.741Z" fill="#c72707"/>
<path d="M483.838 170.387C484.178 179.275 479.038 200.798 474.468 208.584C472.678 203.919 470.808 199.282 468.868 194.677C475.908 185.863 479.108 180.546 483.838 170.387Z" fill="#B5604A"/>
<path d="M342.898 9.14508L343.768 7.30908C345.138 8.14608 346.528 8.95708 347.938 9.74208L350.788 8.01308C361.888 23.6101 373.438 49.1931 378.948 67.5181C395.158 63.9351 400.168 65.2901 416.098 69.2731C422.568 62.0431 427.698 57.0171 434.758 50.3601C436.658 52.4321 437.748 53.5701 439.418 55.8671L438.658 61.6591L447.468 64.0611C444.088 71.8011 438.638 81.2311 438.628 89.1921C438.348 88.7971 436.088 85.5021 436.088 85.5021C427.678 81.8021 393.428 71.1341 385.958 75.9691C382.868 83.5651 390.088 91.5881 383.648 98.0261C382.368 98.2531 381.458 98.5301 380.198 98.4721C377.718 93.8711 373.828 80.7311 372.028 75.0321C364.038 49.6811 358.608 31.0981 342.898 9.14508Z" fill="#21110C"/>
<path d="M439.418 55.8672L438.658 61.6592L447.468 64.0612C444.088 71.8012 438.638 81.2312 438.628 89.1922C438.348 88.7972 436.088 85.5022 436.088 85.5022C427.678 81.8022 393.428 71.1342 385.958 75.9692C382.868 83.5652 390.088 91.5882 383.648 98.0262C382.368 98.2532 381.458 98.5302 380.198 98.4722L383.048 95.8522C385.588 88.9842 381.948 78.6302 380.088 71.2512C396.058 70.8672 407.058 74.1422 422.258 78.1702C426.088 76.1412 425.188 75.4872 424.718 71.4952C425.698 66.8192 435.298 58.6272 439.418 55.8672Z" fill="#B5604A"/>
<path d="M439.418 55.8672L438.658 61.6592C441.918 67.1242 443.738 74.0282 437.128 77.9542L434.778 78.1062C431.098 75.8752 428.238 73.9852 424.718 71.4952C425.698 66.8192 435.298 58.6272 439.418 55.8672Z" fill="#F03906"/>
<path d="M424.718 71.4951C428.238 73.9851 431.098 75.8751 434.778 78.1061C435.418 79.1281 435.498 79.7921 435.868 80.9851L434.338 81.7751C429.888 80.7031 426.578 79.6091 422.258 78.1701C426.088 76.1411 425.188 75.4871 424.718 71.4951Z" fill="#4F130B"/>
<path d="M289.538 99.338C292.338 78.847 318.788 0.194 342.268 0C346.178 1.743 347.988 4.655 350.788 8.013L347.938 9.742C346.528 8.957 345.138 8.14601 343.768 7.30901L342.898 9.145C329.918 29.755 323.488 44.819 317.688 68.912L315.258 66.457C310.208 68.389 312.368 83.932 308.828 89.751C305.038 90.771 305.408 88.465 300.908 89.558L298.248 89.617C294.838 93.189 294.248 97.941 289.538 99.338Z" fill="#171614"/>
<path d="M474.608 134.276C479.528 144.25 481.818 152.602 484.108 163.476C456.448 176.345 456.428 187.216 471.058 213.329C478.298 226.241 488.008 240.451 497.218 252.098C486.698 255.53 475.228 250.429 474.258 265.158L473.968 263.205C472.298 261.247 453.728 258.157 447.648 254.366C429.498 243.07 423.288 229.787 402.258 221.788C385.198 219.579 337.098 194.037 325.958 201.905L326.228 205.101L328.648 206.22L328.368 207.348C317.578 210.656 300.128 211.153 290.918 216.26L290.418 217.216L292.938 218.316C289.928 218.349 286.118 217.972 283.048 217.756C291.058 210.862 308.558 207.975 312.428 205.016L309.698 202.189L309.918 200.825C311.958 197.975 318.078 195.556 321.398 195.187C344.378 191.376 361.998 203.621 381.688 209.992C408.458 218.655 420.168 226.733 440.748 245.972C444.778 250.305 468.298 261.494 472.418 257.036C478.368 250.603 483.038 252.549 488.708 249.549C490.598 242.495 455.548 203.977 458.448 184.785C458.498 172.068 470.188 170.458 477.758 163.2C483.908 157.293 474.158 143.531 474.608 134.276Z" fill="#c72707"/>
<path d="M311.828 201.538C334.678 193.932 351.908 200.35 373.218 209.252C382.478 213.122 393.658 216.733 402.258 221.788C385.198 219.579 337.098 194.037 325.958 201.905L326.228 205.101L311.828 201.538Z" fill="#DED2C0"/>
<path d="M300.908 89.558C305.408 88.465 305.038 90.771 308.828 89.751C312.368 83.932 310.208 68.389 315.258 66.457L317.688 68.912C315.218 81.699 313.628 90.175 313.088 103.37C312.858 108.989 313.858 125.703 312.988 129.447L311.548 130.149C303.878 123.182 310.238 96.05 303.958 92.553C302.278 91.613 301.838 91.16 300.908 89.558Z" fill="#3D0F08"/>
<path d="M354.048 103.38L351.908 103.517C349.338 102.205 349.898 102.361 347.138 101.62L344.648 105.132C340.628 104.908 343.878 102.217 339.678 99.571C336.798 103.855 337.128 109.798 333.958 113.953C331.918 112.378 332.968 113.045 330.828 111.916L328.618 114.914L327.368 113.769C320.728 93.267 324.408 54.669 339.448 39.02L341.738 39.038C343.878 44.553 338.078 50.355 340.678 56.232L343.808 55.257C349.388 60.595 368.288 99.515 354.048 103.38Z" fill="#171614"/>
<path d="M343.808 55.2568C349.388 60.5948 368.288 99.5148 354.048 103.38C357.658 79.9698 349.728 79.0818 344.038 56.1928L343.808 55.2568Z" fill="#B5604A"/>
<path d="M369.208 170.569C383.468 172.854 401.758 172.173 413.278 181.768C419.888 187.272 424.468 196.475 425.278 205.041C422.528 203.954 419.868 202.206 417.068 201.363C405.678 197.932 396.608 199.43 386.468 191.219C384.168 189.356 370.468 175.707 369.538 173.738C369.088 172.777 369.318 171.625 369.208 170.569Z" fill="#21110C"/>
<path d="M395.018 180.111C403.078 180.166 409.568 178.435 413.658 188.436C411.848 197.124 397.918 194.312 392.268 190.608L392.078 189.226L382.578 179.673C387.548 179.543 390.078 179.595 395.018 180.111Z" fill="#13120E"/>
<path d="M382.578 179.673C387.548 179.543 390.078 179.595 395.018 180.111C393.948 183.104 392.748 186.133 392.078 189.226L382.578 179.673Z" fill="#F2F1E8"/>
<path d="M326.228 205.101L325.958 201.905C337.098 194.037 385.198 219.579 402.258 221.788C423.288 229.787 429.498 243.07 447.648 254.366C453.728 258.157 472.298 261.247 473.968 263.205L474.258 265.158C477.668 272.688 479.118 273.641 486.328 277.846C488.508 278.754 488.058 278.559 489.548 280.073L492.938 280.093C467.748 296.214 446.968 286.624 422.768 275.796C422.808 286.843 423.088 291.819 424.648 302.396C426.728 316.511 438.528 354.542 432.168 366.921L430.688 367.167C429.068 365.236 428.368 364.334 426.588 362.567C425.978 371.664 430.788 400.081 422.888 405.718L421.678 404.723L420.888 404.894C422.518 416.738 424.438 428.539 426.658 440.287L437.648 443.647C438.518 446.548 438.838 447.564 440.518 450.078C445.968 458.227 448.088 469.533 452.498 477.905L426.208 472.091C413.588 470.079 398.768 472.784 390.378 464.286L390.498 463.101C389.948 461.17 389.578 458.761 389.208 456.748L388.388 456.9L385.858 462.381L383.938 462.344C382.988 464.332 381.408 468.753 380.538 470.973C364.588 469.712 344.948 467.466 329.438 464.221C327.278 458.539 325.578 451.572 323.948 445.602L323.858 444.704C321.828 435.592 319.418 414.432 318.698 405C322.068 409.249 320.538 411.638 323.758 415.987L324.378 413.691L322.828 414.209L322.698 413.849L324.438 412.817L324.558 400.816C324.258 403.969 323.948 405.636 323.348 408.689C321.128 404.783 326.018 378.133 321.738 365.508L320.448 364.906C317.118 365.831 316.598 366.24 313.148 365.818C306.608 359.126 313.648 347.458 308.558 337.666C304.848 338.597 303.618 339.239 299.898 338.23C293.648 332.466 297.418 324.897 298.638 317.465C301.708 298.917 309.718 281.664 319.818 265.951C323.598 260.058 328.968 255.772 332.388 249.287C326.638 241.956 295.418 243.702 288.128 241.306L287.258 239.411C287.598 236.554 287.878 233.69 288.098 230.821C291.318 229.591 291.588 228.694 293.538 225.878C296.398 225.972 299.868 225.712 302.248 227.01L311.598 224.258C304.438 220.453 301.018 218.89 292.938 218.316L290.418 217.216L290.918 216.26C300.128 211.153 317.578 210.656 328.368 207.348L328.648 206.22L326.228 205.101Z" fill="#F4F2E8"/>
<path d="M414.948 383.319C416.428 386.312 417.048 389.126 417.948 392.331L421.188 392.461C421.098 396.254 420.678 401.193 421.678 404.723L420.888 404.894C422.518 416.738 424.438 428.539 426.658 440.287L437.648 443.647C438.518 446.548 438.838 447.564 440.518 450.078C445.968 458.227 448.088 469.533 452.498 477.905L426.208 472.091C413.588 470.079 398.768 472.784 390.378 464.286L390.498 463.101C389.948 461.17 389.578 458.761 389.208 456.748L388.388 456.9L385.858 462.381L383.938 462.344C384.938 458.112 400.248 420.073 401.378 419.207C404.038 420.833 405.588 424.409 407.198 427.267C409.998 412.47 411.178 397.96 414.948 383.319Z" fill="#13120E"/>
<path d="M407.958 439.283C415.048 437.966 410.958 436.079 414.658 431.986C416.038 433.987 415.118 432.223 415.648 435.076C417.768 446.576 430.208 449.217 420.788 462.172C415.238 469.801 402.578 469.78 395.598 464.419C393.368 462.707 394.078 458.706 394.318 456.254C395.268 453.351 403.018 435.367 404.978 433.804C406.338 438.243 405.078 436.752 407.958 439.283Z" fill="#F03906"/>
<path d="M414.888 418.222L417.218 424.624C417.648 428.912 418.018 434.326 419.148 438.505C420.288 442.732 428.428 447.117 427.948 450.594C426.448 461.435 421.858 461.593 426.208 472.091C413.588 470.079 398.768 472.784 390.378 464.286L390.498 463.101L394.318 456.254C394.078 458.706 393.368 462.707 395.598 464.419C402.578 469.78 415.238 469.801 420.788 462.172C430.208 449.217 417.768 446.576 415.648 435.076C415.118 432.223 416.038 433.987 414.658 431.986C410.958 436.079 415.048 437.966 407.958 439.283C411.908 432.723 413.338 425.604 414.888 418.222Z" fill="#B5604A"/>
<path d="M417.948 392.331L421.188 392.461C421.098 396.254 420.678 401.193 421.678 404.723L420.888 404.894L417.948 392.331Z" fill="#F2F1E8"/>
<path d="M414.888 418.222L415.638 414.965L416.508 415.36C417.078 419.28 417.268 420.699 417.218 424.624L414.888 418.222Z" fill="#422E27"/>
<path d="M395.538 238.19C422.958 247.734 447.218 285.798 486.328 277.846C488.508 278.754 488.058 278.559 489.548 280.073L492.938 280.093C467.748 296.214 446.968 286.624 422.768 275.796C422.808 286.843 423.088 291.819 424.648 302.396C426.728 316.511 438.528 354.542 432.168 366.921L430.688 367.167C429.068 365.236 428.368 364.334 426.588 362.567C425.978 371.664 430.788 400.081 422.888 405.718L421.678 404.723C420.678 401.193 421.098 396.254 421.188 392.461C421.528 381.938 417.428 350.002 418.788 345.275L420.308 344.9C424.138 347.713 425.478 351.25 427.788 355.514C423.598 329.205 411.218 298.241 416.908 273.019C409.478 269.569 383.998 261.656 381.618 258.203C394.208 250.213 431.738 272.417 444.088 278.569L444.068 276.307C430.888 268.21 403.578 250.761 395.538 238.19Z" fill="#171614"/>
<path d="M444.068 276.307C446.858 277.517 451.108 278.931 452.938 280.967C448.698 280.331 448.118 280.144 444.088 278.569L444.068 276.307Z" fill="#BCBBB7"/>
<path d="M290.288 237.411C300.008 240.894 331.598 239.107 337.568 247.128C337.708 250.813 336.908 252.439 334.048 255.245C313.098 275.818 299.868 309.062 300.148 338.861C304.608 334.433 309.588 329.145 314.538 325.475C314.018 338.969 313.428 351.554 314.518 365.084C318.198 361.426 322.068 357.431 325.888 353.973C326.578 372.056 327.638 390.65 326.898 408.695C326.408 420.769 323.178 432.676 323.858 444.704C321.828 435.592 319.418 414.432 318.698 405C322.068 409.249 320.538 411.638 323.758 415.987L324.378 413.691L322.828 414.209L322.698 413.849L324.438 412.817L324.558 400.816C324.258 403.969 323.948 405.636 323.348 408.689C321.128 404.783 326.018 378.133 321.738 365.508L320.448 364.906C317.118 365.831 316.598 366.24 313.148 365.818C306.608 359.126 313.648 347.458 308.558 337.666C304.848 338.597 303.618 339.239 299.898 338.23C293.648 332.466 297.418 324.897 298.638 317.465C301.708 298.917 309.718 281.664 319.818 265.951C323.598 260.058 328.968 255.772 332.388 249.287C326.638 241.956 295.418 243.702 288.128 241.306L287.258 239.411C289.518 238.833 288.438 239.278 290.288 237.411Z" fill="#c72707"/>
<path d="M293.538 225.878C296.398 225.972 299.868 225.712 302.248 227.01C297.928 230.425 294.028 233.32 290.288 237.411C288.438 239.278 289.518 238.833 287.258 239.411C287.598 236.554 287.878 233.69 288.098 230.821C291.318 229.591 291.588 228.694 293.538 225.878Z" fill="#4F130B"/>
<path d="M21.348 377.015C22.968 363.729 29.398 345.236 34.488 332.765C48.578 298.166 60.868 264.821 52.498 226.896C51.798 223.692 51.618 223.239 51.358 219.934C57.328 222.279 59.838 234.494 61.248 240.241C64.988 255.51 62.718 272.297 60.528 287.655L61.738 289.396L63.228 288.502C66.018 286.845 66.588 286.131 69.668 286.102C75.098 296.758 75.708 308.213 80.358 319.628C86.938 309.797 91.8779 275.428 99.8979 276.466C105.308 281.425 123.188 320.435 126.178 328.923C138.828 307.548 137.998 288.319 141.028 264.717C141.248 263.061 142.058 263.193 143.538 262.457L147.848 263.939C150.948 272.647 162.568 282.422 164.868 294.996L166.338 292.713L167.428 295.964C171.498 291.929 174.678 268.655 175.578 262.071C178.688 265.808 182.168 269.798 185.128 273.612C187.798 288.976 187.338 326.575 184.318 342.307C182.568 351.443 160.568 382.535 157.688 396.889C153.888 415.808 145.988 436.486 144.748 456.347C144.468 458.5 147.508 468.507 148.208 470.825C146.158 472.375 146.918 471.927 144.288 472.575C130.298 476.026 64.278 509.168 54.098 507.065C49.208 501.286 27.248 461.445 27.848 452.949C31.638 452.352 31.688 457.609 36.358 454.656C31.208 452.584 29.348 448.587 26.338 444.01L23.8781 444.99C21.3981 441.091 19.898 439.019 18.238 434.686L18.308 432.566C15.858 429.078 16.038 428.323 15.478 423.914L17.368 423.14L17.938 421.074L19.058 420.833C18.088 404.403 17.898 393.053 21.348 377.015Z" fill="#F03906"/>
<path d="M21.3481 377.015C22.9681 363.729 29.3982 345.236 34.4882 332.765C48.5782 298.166 60.8682 264.821 52.4982 226.896C51.7982 223.692 51.6182 223.239 51.3582 219.934C57.3282 222.279 59.8382 234.494 61.2482 240.241C64.9882 255.51 62.7181 272.297 60.5281 287.655L57.6781 298.649C47.8181 327.463 37.3081 351.848 29.1581 381.475C26.2481 383.697 25.6781 385.117 23.0781 384.871C22.2681 381.944 21.8781 379.95 21.3481 377.015Z" fill="#181713"/>
<path d="M126.178 328.923C138.828 307.548 137.998 288.319 141.028 264.717C141.248 263.061 142.058 263.193 143.538 262.457L147.848 263.939C150.948 272.647 162.568 282.422 164.868 294.996L164.108 295.761C155.898 288.521 153.248 275.487 146.118 271.168C140.858 277.921 142.278 324.853 126.918 328.2C116.048 325.768 107.248 287.277 98.0679 284.591C92.9479 290.486 91.5279 316.891 81.6179 319.784L80.3579 319.628C86.9379 309.797 91.8778 275.428 99.8978 276.466C105.308 281.425 123.188 320.435 126.178 328.923Z" fill="#c72707"/>
<path d="M60.5277 287.655L61.7378 289.396L63.2278 288.502C66.0178 286.845 66.5877 286.131 69.6677 286.102C63.8477 289.07 62.4677 293.569 57.6777 298.649L60.5277 287.655Z" fill="#ECC7AC"/>
<path d="M289.538 99.3381C294.248 97.9411 294.838 93.1891 298.248 89.6171L300.908 89.5581C291.938 102.688 300.358 141.946 294.708 146.748L292.688 145.387L289.468 143.789C284.668 145.533 279.368 156.377 279.858 161.251L281.268 162.614L283.148 163.475C282.598 168.44 266.728 183.094 262.128 187.996C267.538 187.19 272.758 185.952 278.048 186.926L279.058 188.545C272.388 200.499 264.448 209.651 258.978 222.3C268.678 219.978 273.578 219.339 283.048 217.756C286.118 217.972 289.928 218.349 292.938 218.316C301.018 218.89 304.438 220.453 311.598 224.258L302.248 227.01C299.868 225.712 296.398 225.972 293.538 225.878C291.588 228.694 291.318 229.591 288.098 230.821C283.758 226.421 272.338 229.188 268.138 233.575C268.258 233.073 267.148 238.516 267.848 236.824C261.278 252.81 254.818 270.795 246.538 286.048C241.348 295.618 233.338 303.149 227.298 312.028C211.158 336.788 191.078 358.752 179.918 386.539C172.828 404.182 167.948 422.526 163.158 440.881C161.148 448.551 159.618 465.639 154.858 471.346C159.588 477.87 236.178 502.655 249.768 508.465C257.148 511.619 258.858 513.538 266.548 510.696L267.628 509.129C258.908 492.954 239.588 435.477 245.668 419.909C246.228 429.627 253.738 465.084 257.308 474.642C259.858 486.786 264.898 499.286 272.268 509.25C272.828 510.01 273.858 511.468 274.148 512.441C271.548 516.312 269.688 517.197 265.788 519.968C261.018 520.011 258.468 519.798 253.788 521.088C239.068 515.723 157.098 485.736 149.328 479.677C131.968 490.169 86.808 507.486 67.338 514.962C61.498 513.275 56.0479 516.006 51.6679 513.405L53.1979 512.251C51.4679 509.855 51.408 510.002 48.878 508.366C45.538 507.371 44.428 506.333 41.618 504.354C29.368 491.433 26.3479 485.314 19.4379 468.683C17.4479 461.416 10.118 438.408 16.338 432.88L18.238 434.686C19.898 439.019 21.398 441.091 23.878 444.99L26.338 444.01C29.348 448.587 31.208 452.584 36.358 454.656C31.688 457.609 31.638 452.352 27.848 452.949C27.248 461.445 49.208 501.286 54.098 507.065C64.278 509.168 130.298 476.026 144.288 472.575C146.918 471.927 146.158 472.375 148.208 470.825C147.508 468.507 144.468 458.5 144.748 456.347C145.988 436.486 153.888 415.808 157.688 396.889C160.568 382.535 182.568 351.443 184.318 342.307C187.338 326.575 187.798 288.976 185.128 273.612C182.168 269.798 178.688 265.808 175.578 262.071C174.678 268.655 171.498 291.929 167.428 295.964L166.338 292.713L164.868 294.996C162.568 282.422 150.948 272.647 147.848 263.939C156.518 266.934 158.528 280.059 163.408 283.432C168.648 274.467 163.558 257.528 172.858 251.002C176.758 251.423 182.498 256.61 183.848 260.451L185.558 260.415C186.118 262.314 186.828 264.454 187.228 266.366L188.308 267.203C193.068 270.103 193.068 272.011 195.018 277.923L195.638 277.962L194.928 276.63C196.528 277.625 196.518 277.409 197.678 278.689L198.498 278.406C202.418 292.403 198.538 321.471 195.668 335.58C211.548 311.968 230.638 291.089 244.128 265.802C246.218 261.89 259.848 233.717 258.688 231.054C257.608 228.581 253.368 229.566 252.718 225.157C251.428 216.385 263.148 201.275 267.748 194.453C262.638 195.465 254.478 198.303 250.588 194.655C250.448 191.886 250.898 191.761 252.298 189.243C253.708 186.605 255.508 184.143 257.198 181.649C265.548 172.96 273.568 141.335 288.918 129.563C288.118 117.929 287.348 110.685 289.538 99.3381Z" fill="#B5604A"/>
<path d="M289.538 99.3381C294.248 97.9411 294.838 93.1891 298.248 89.6171L300.908 89.5581C291.938 102.688 300.358 141.946 294.708 146.748L292.688 145.387L289.468 143.789C284.668 145.533 279.368 156.377 279.858 161.251L281.268 162.614L283.148 163.475C282.598 168.44 266.728 183.094 262.128 187.996C267.538 187.19 272.758 185.952 278.048 186.926L279.058 188.545C272.388 200.499 264.448 209.651 258.978 222.3C268.678 219.978 273.578 219.339 283.048 217.756C286.118 217.972 289.928 218.349 292.938 218.316C301.018 218.89 304.438 220.453 311.598 224.258L302.248 227.01C299.868 225.712 296.398 225.972 293.538 225.878C282.628 225.695 276.718 226.036 266.108 228.723C247.588 303.696 196.128 329.449 172.768 395.452C168.128 408.734 164.218 422.262 161.068 435.975C159.638 442.268 155.998 465.551 151.728 468.071C143.308 461.562 154.518 424.053 156.668 414.607C162.448 389.113 174.508 366.321 188.608 344.549C187.638 332.977 190.268 319.05 190.778 307.191C191.378 293.188 190.078 280.949 188.308 267.203C193.068 270.103 193.068 272.011 195.018 277.923L195.638 277.962L194.928 276.63C196.528 277.625 196.518 277.409 197.678 278.689L198.498 278.406C202.418 292.403 198.538 321.471 195.668 335.58C211.548 311.968 230.638 291.089 244.128 265.802C246.218 261.89 259.848 233.717 258.688 231.054C257.608 228.581 253.368 229.566 252.718 225.157C251.428 216.385 263.148 201.275 267.748 194.453C262.638 195.465 254.478 198.303 250.588 194.655C250.448 191.886 250.898 191.761 252.298 189.243C253.708 186.605 255.508 184.143 257.198 181.649C265.548 172.96 273.568 141.335 288.918 129.563C288.118 117.929 287.348 110.685 289.538 99.3381Z" fill="#1B110C"/>
<path d="M289.508 134.016C290.448 138.339 291.318 141.156 292.688 145.387L289.468 143.789C284.668 145.533 279.368 156.377 279.858 161.251L281.268 162.614C278.938 164.449 278.678 164.975 275.758 165.612C274.758 161.807 286.718 140.415 289.508 134.016Z" fill="#915F52"/>
<path d="M257.198 181.649L259.408 185.055L258.608 187.442C255.818 188.776 255.388 189.275 252.298 189.243C253.708 186.605 255.508 184.143 257.198 181.649Z" fill="#13120E"/>
<path d="M53.198 512.251C76.668 506.686 102.918 491.995 125.988 483.468C132.498 481.06 144.238 475.495 152.218 475.839C164.688 479.38 180.958 486.47 193.218 491.198C216.278 499.894 239.398 508.434 262.578 516.82C266.168 515.414 270.538 513.541 274.148 512.441C271.548 516.312 269.688 517.197 265.788 519.968C261.018 520.011 258.468 519.798 253.788 521.088C239.068 515.723 157.098 485.736 149.328 479.677C131.968 490.169 86.808 507.486 67.338 514.962C61.498 513.275 56.048 516.006 51.668 513.405L53.198 512.251Z" fill="#1B110C"/>
<path d="M19.4379 468.683C17.4479 461.416 10.118 438.408 16.338 432.88L18.238 434.686C19.898 439.019 21.398 441.091 23.878 444.99C14.278 453.536 49.598 497.942 48.878 508.366C45.538 507.371 44.428 506.333 41.618 504.354C29.368 491.433 26.3479 485.314 19.4379 468.683Z" fill="#171614"/>
<path d="M19.438 468.683L21.118 465.152L22.308 465.086C28.558 471.484 42.318 495.153 41.618 504.354C29.368 491.433 26.348 485.314 19.438 468.683Z" fill="#13120E"/>
<path d="M147.848 263.939C156.518 266.934 158.528 280.059 163.408 283.432C168.648 274.467 163.558 257.528 172.858 251.002C176.758 251.423 182.498 256.61 183.848 260.451L185.558 260.415C186.118 262.314 186.828 264.454 187.228 266.366L185.838 267.468C181.328 262.487 175.928 255.922 170.678 252.009C169.978 268.194 169.478 276.605 166.338 292.713L164.868 294.996C162.568 282.422 150.948 272.647 147.848 263.939Z" fill="#DED2C0"/>
<path d="M324.288 469.715C317.558 458.415 308.698 413.242 316.498 404.483L318.698 405C319.418 414.432 321.828 435.592 323.858 444.704L323.948 445.602C317.648 474.23 336.448 464.326 341.768 473.665C334.218 472.572 331.538 472.031 324.288 469.715Z" fill="#21110C"/>
<path d="M222.888 339.184L223.208 341.399C219.858 352.18 208.228 366.273 200.608 374.7C200.078 372.927 199.988 371.823 200.268 369.94C201.898 359.184 214.008 344.901 222.888 339.184Z" fill="#340905"/>
<path d="M212.628 379.16C213.578 380.398 213.678 380.068 213.618 381.517C213.278 388.668 206.178 401.506 201.508 406.651C200.298 405.292 199.978 404.854 199.958 402.954C199.888 395.891 207.388 383.87 212.628 379.16Z" fill="#340905"/>
<path d="M185.308 406.001L186.678 407.524C188.048 414.645 182.918 425.329 180.058 431.862L178.988 430.476C177.708 422.465 180.928 412.722 185.308 406.001Z" fill="#340905"/>
<path d="M149.328 479.677C157.098 485.736 239.068 515.723 253.788 521.088L308.278 542.573C312.448 544.216 329.568 550.589 332.768 552.344C334.348 554.173 337.338 557.426 338.658 559.25C344.498 556.192 345.718 554.077 351.008 558.093C347.448 560.879 344.258 563.642 340.268 565.738C344.168 567.585 346.728 568.249 349.168 571.574C349.808 577.45 344.318 579.185 339.618 581.945C344.168 583.908 348.668 585.293 351.948 588.836C353.478 595.245 345.268 597.608 340.198 600.083L344.878 604.027C348.728 605.636 347.538 604.335 349.188 607.416C348.148 610.657 345.178 612.223 342.208 613.732C340.718 614.474 339.218 615.185 337.698 615.867C344.278 618.92 356.438 622.623 358.618 628.085C357.488 631.9 355.258 632.714 351.858 634.549C350.388 635.342 348.898 636.122 347.408 636.887C352.058 638.468 356.118 639.316 359.648 642.582C362.618 649.766 350.588 653.971 344.998 656.998C350.168 659.517 360.278 663.161 361.938 667.987C358.158 674.534 352.358 674.389 349.268 678.148C353.378 679.905 356.348 680.731 359.368 683.999L359.608 685.979C358.608 687.207 358.348 687.843 357.098 688.599C326.148 707.124 292.988 722.971 261.738 741.11C246.968 749.685 231.528 758.222 215.788 764.782C212.668 766.015 211.118 765.443 208.088 764.573L206.998 763.87C197.108 764.017 107.828 712.349 92.5377 704.428L32.6377 673.774C26.1577 670.483 4.81771 662.293 4.18771 655.412L5.91769 653.486L16.8778 648.401C11.0878 645.168 -2.79223 641.534 0.497765 633.97C4.68777 630.47 10.6577 628.991 15.9777 627.166C13.7277 624.504 12.2477 623.392 12.0077 619.961C12.9377 616.981 15.2077 615.843 17.7977 613.882C13.1577 611.342 4.66775 608.608 4.72775 603.165C6.99775 599.943 9.96767 599.422 13.7777 598.003C9.22767 596.234 3.55766 595.079 4.51766 589.485C8.59766 585.003 16.1177 582.984 22.0177 580.848C14.6677 577.355 9.24771 574.342 2.18771 570.244C6.04771 567.695 12.2978 564.51 16.4978 562.208C11.7178 559.094 6.74768 556.716 1.65768 554.157C6.79768 551.519 13.1678 548.778 18.4978 546.333C14.5378 544.457 6.68769 541.296 4.41769 537.883L4.94772 536.421L7.84774 535.609C8.08774 534.694 8.79769 533.013 9.16769 532.07C15.0777 526.567 42.9077 516.511 51.6677 513.405C56.0477 516.006 61.4977 513.275 67.3377 514.962C86.8077 507.486 131.968 490.169 149.328 479.677Z" fill="#F4F2E8"/>
<path d="M27.4978 576.652C39.1078 581.195 51.8677 587.508 63.5177 592.549C112.638 613.794 161.008 637.672 209.278 660.83L210.988 659.982L212.148 660.588C219.468 663.036 241.258 649.219 248.538 645.392C264.998 636.818 281.538 628.407 298.168 620.16C302.128 619.97 308.758 616.163 310.178 617.092C310.658 618.124 312.088 621.053 312.358 621.96C323.278 616.119 334.118 610.141 344.878 604.027C348.728 605.636 347.538 604.335 349.188 607.416C348.148 610.657 345.178 612.223 342.208 613.732C340.718 614.474 339.218 615.185 337.698 615.867C344.278 618.92 356.438 622.623 358.618 628.085C357.488 631.9 355.258 632.714 351.858 634.549C350.388 635.342 348.898 636.122 347.408 636.887C352.058 638.468 356.118 639.316 359.648 642.582C362.618 649.766 350.588 653.971 344.998 656.998C350.168 659.517 360.278 663.161 361.938 667.987C358.158 674.534 352.358 674.389 349.268 678.148C353.378 679.905 356.348 680.731 359.368 683.999L359.608 685.979C358.608 687.207 358.348 687.843 357.098 688.599C326.148 707.124 292.988 722.971 261.738 741.11C246.968 749.685 231.528 758.222 215.788 764.782C212.668 766.015 211.118 765.443 208.088 764.573L206.998 763.87C197.108 764.017 107.828 712.349 92.5377 704.428L32.6377 673.774C26.1577 670.483 4.81771 662.293 4.18771 655.412L5.91769 653.486L16.8778 648.401C11.0878 645.168 -2.79223 641.534 0.497765 633.97C4.68777 630.47 10.6577 628.991 15.9777 627.166C13.7277 624.504 12.2477 623.392 12.0077 619.961C12.9377 616.981 15.2077 615.843 17.7977 613.882C13.1577 611.342 4.66775 608.608 4.72775 603.165C6.99775 599.943 9.96767 599.422 13.7777 598.003C9.22767 596.234 3.55766 595.079 4.51766 589.485C8.59766 585.003 16.1177 582.984 22.0177 580.848C24.5377 580.912 26.0278 578.356 27.4978 576.652Z" fill="#171614"/>
<path d="M27.4981 576.652C39.1081 581.195 51.868 587.508 63.518 592.549C112.638 613.794 161.008 637.672 209.278 660.83L210.988 659.982L212.148 660.588C219.468 663.036 241.258 649.219 248.538 645.392C264.998 636.818 281.538 628.407 298.168 620.16C302.128 619.97 308.758 616.163 310.178 617.092C310.658 618.124 312.088 621.053 312.358 621.96C323.278 616.119 334.118 610.141 344.878 604.027C348.728 605.636 347.538 604.335 349.188 607.416C348.148 610.657 345.178 612.223 342.208 613.732C340.718 614.474 339.218 615.185 337.698 615.867C335.648 617.122 334.038 617.333 333.938 620.149C337.798 623.384 345.758 626.127 350.708 628.135C318.768 644.046 287.078 660.435 255.628 677.299C243.438 683.75 221.358 694.667 210.158 701.807L206.058 703.915L203.728 701.633C192.778 698.531 159.978 681.438 146.798 675.328C105.218 656.054 63.5381 636.884 22.6781 616.146C20.9481 614.847 19.9281 614.696 17.7981 613.882C13.1581 611.342 4.66813 608.608 4.72813 603.165C6.99813 599.943 9.96805 599.422 13.7781 598.003C9.22805 596.234 3.55804 595.079 4.51804 589.485C8.59804 585.003 16.118 582.984 22.018 580.848C24.538 580.912 26.0281 578.356 27.4981 576.652Z" fill="#F2F1E8"/>
<path d="M27.4981 576.652C39.1081 581.195 51.868 587.508 63.518 592.549C112.638 613.794 161.008 637.672 209.278 660.83L210.988 659.982L212.148 660.588C219.468 663.036 241.258 649.219 248.538 645.392C264.998 636.818 281.538 628.407 298.168 620.16C302.128 619.97 308.758 616.163 310.178 617.092C310.658 618.124 312.088 621.053 312.358 621.96L288.998 635.257C267.958 646.805 242.598 664.475 223.278 674.328C220.568 676.39 217.718 678.28 216.118 681.265L213.208 679.263L211.928 679.628C199.908 680.159 154.758 655.903 140.088 650.663C99.7681 636.265 59.848 616.546 19.768 601.948C16.968 601.229 16.1781 600.009 13.7781 598.003C9.22805 596.234 3.55804 595.079 4.51804 589.485C8.59804 585.003 16.118 582.984 22.018 580.848C24.538 580.912 26.0281 578.356 27.4981 576.652Z" fill="#21110C"/>
<path d="M298.168 620.16C302.128 619.97 308.758 616.163 310.178 617.092C310.658 618.124 312.088 621.053 312.358 621.96L288.998 635.257C267.958 646.805 242.598 664.475 223.278 674.328C220.568 676.39 217.718 678.28 216.118 681.265L213.208 679.263L211.928 679.628C210.368 676.379 209.108 675.751 206.298 673.538C201.638 672.811 168.178 655.853 161.948 652.786C161.498 650.092 161.048 650.518 158.498 648.19C162.188 647.159 160.488 647.026 163.758 648.021L165.108 646.624C175.608 649.808 202.128 665.959 208.758 662.81L209.278 660.83L210.988 659.982L212.148 660.588C219.468 663.036 241.258 649.219 248.538 645.392C264.998 636.818 281.538 628.407 298.168 620.16Z" fill="#E0B299"/>
<path d="M206.298 673.538C209.508 673.885 216.798 675.312 219.198 674.584C221.518 673.883 219.598 673.907 223.278 674.328C220.568 676.39 217.718 678.28 216.118 681.265L213.208 679.263L211.928 679.628C210.368 676.379 209.108 675.751 206.298 673.538Z" fill="#ECC7AC"/>
<path d="M26.6082 582.723C59.6882 598.462 93.4382 613.175 126.608 628.963C136.318 633.351 156.968 641.793 165.108 646.624L163.758 648.021C160.488 647.026 162.188 647.159 158.498 648.19C161.048 650.518 161.498 650.092 161.948 652.786C145.888 645.798 133.958 640.514 117.398 634.539C88.5881 623.498 53.0081 609.449 24.9081 596.92C24.6781 595.526 21.6881 591.314 20.7681 589.834C21.4181 586.556 23.9582 585.049 26.6082 582.723Z" fill="#D3967E"/>
<path d="M13.7778 598.003C16.1778 600.009 16.9678 601.229 19.7678 601.948L14.5678 603.111L13.8978 604.384C21.0478 609.311 37.9778 616.345 44.8078 619.926C66.7478 631.422 195.448 688.239 205.678 701.004L203.728 701.633C192.778 698.531 159.978 681.438 146.798 675.328C105.218 656.054 63.5378 636.884 22.6778 616.146C20.9478 614.847 19.9278 614.696 17.7978 613.882C13.1578 611.342 4.66786 608.608 4.72786 603.165C6.99786 599.943 9.96778 599.422 13.7778 598.003Z" fill="#171614"/>
<path d="M223.278 674.328C242.598 664.475 267.958 646.805 288.998 635.257L292.488 636.641C292.898 638.854 293.018 637.722 291.848 639.993L292.278 641.093C285.188 646.703 226.588 680.41 219.518 682.14C218.068 681.862 217.408 681.878 216.118 681.265C217.718 678.28 220.568 676.39 223.278 674.328Z" fill="#1B110C"/>
<path d="M344.878 604.027C348.728 605.636 347.538 604.335 349.188 607.416C348.148 610.657 345.178 612.223 342.208 613.732C340.718 614.474 339.218 615.185 337.698 615.867C335.648 617.122 334.038 617.333 333.938 620.149C325.578 619.794 303.008 636.604 292.278 641.093L291.848 639.993C293.018 637.722 292.898 638.854 292.488 636.641L288.998 635.257L312.358 621.96C323.278 616.119 334.118 610.141 344.878 604.027Z" fill="#1A150F"/>
<path d="M205.678 701.004L206.988 699.811C208.198 700.524 209.038 700.964 210.158 701.807L206.058 703.915L203.728 701.633L205.678 701.004Z" fill="#DED2C0"/>
<path d="M12.728 656.05L24.208 650.74C41.558 658.263 64.568 669.052 79.488 676.559C98.928 686.332 192.768 738.99 206.858 740.676L208.138 739.499C206.688 737.225 206.388 737.304 204.078 735.791C206.068 734.661 208.038 733.484 209.988 732.262L209.138 731.433L210.098 730.195C210.848 730.576 212.658 731.071 213.538 731.346C224.428 729.832 259.828 707.435 271.128 700.817C274.578 703.576 276.638 705.076 281.168 705.128C260.408 718.219 232.738 731.301 212.848 745.333C231.868 740.806 257.578 725.554 275.568 715.745C294.388 705.401 313.328 695.276 332.378 685.374C334.108 688.504 338.458 689.705 341.768 690.309L352.228 685.757L357.098 688.599C326.148 707.124 292.988 722.971 261.738 741.11C246.968 749.685 231.528 758.222 215.788 764.782C212.668 766.015 211.118 765.443 208.088 764.573L206.998 763.87C197.108 764.017 107.828 712.349 92.538 704.428L32.6379 673.774C26.1579 670.483 4.81799 662.293 4.18799 655.412L5.91797 653.486C10.628 654.187 9.34803 653.368 12.728 656.05Z" fill="#F2F1E8"/>
<path d="M206.998 763.87C197.108 764.017 107.828 712.349 92.538 704.428L32.6379 673.774C26.1579 670.483 4.81799 662.293 4.18799 655.412L5.91797 653.486C10.628 654.187 9.34803 653.368 12.728 656.05C30.678 666.601 67.968 682.486 85.188 692.373C102.188 702.132 199.998 753.594 206.998 763.87Z" fill="#171614"/>
<path d="M352.228 685.757L357.098 688.599C326.148 707.124 292.988 722.971 261.738 741.11C246.968 749.685 231.528 758.222 215.788 764.782C212.668 766.015 211.118 765.443 208.088 764.573C212.548 757.571 327.398 697.306 341.768 690.309L352.228 685.757Z" fill="#171614"/>
<path d="M17.7979 613.882C19.9279 614.696 20.9479 614.847 22.6779 616.146C63.5379 636.884 105.218 656.054 146.798 675.328C159.978 681.438 192.778 698.531 203.728 701.633L206.058 703.915C198.748 708.386 195.228 710.316 187.408 713.759C148.408 687.35 112.128 664.491 69.4779 643.938C53.2179 636.102 36.1979 630.726 19.6779 622.677L19.3779 625.701L16.8079 627.431L15.9779 627.166C13.7279 624.504 12.2478 623.392 12.0078 619.961C12.9378 616.981 15.2079 615.843 17.7979 613.882Z" fill="#F4F2E8"/>
<path d="M184.498 717.81C195.488 715.115 211.468 715.303 216.378 713.806C235.308 708.03 261.118 695.402 279.788 687.079L280.098 688.431C264.858 697.002 249.748 705.788 234.758 714.785C227.858 718.885 216.148 725.402 210.098 730.195L209.138 731.433L209.988 732.262C208.038 733.484 206.068 734.661 204.078 735.791C200.628 734.785 176.598 721.269 171.398 718.439C155.968 710.153 140.468 701.984 124.918 693.932C135.358 693.809 131.508 695.49 142.688 691.921C148.928 694.784 175.178 712.612 184.498 717.81Z" fill="#F4F2E8"/>
<path d="M24.468 630.169C38.168 637.782 55.018 644.167 69.298 651.3C87.868 660.574 105.768 670.526 123.938 680.536L123.828 682.804C109.888 675.212 85.868 666.522 70.348 661.036C47.938 653.115 29.568 645.93 7.66797 636.508C13.028 634.79 19.138 632.244 24.468 630.169Z" fill="#F4F2E8"/>
<path d="M339.038 660.489L353.528 667.111C335.648 676.071 317.918 685.34 300.348 694.914C290.058 692.785 288.808 698.95 281.908 694.35L339.038 660.489Z" fill="#F4F2E8"/>
<path d="M93.4678 677.111C101.418 679.796 122.758 687.632 130.128 688.03L130.108 687.147L130.978 684.622C134.718 686.883 139.198 689.414 142.688 691.921C131.508 695.49 135.358 693.809 124.918 693.932C117.818 691.746 100.528 681.241 93.4678 677.111Z" fill="#F4F2E8"/>
<path d="M349.268 678.148C353.378 679.905 356.348 680.731 359.368 683.999L359.608 685.979C358.608 687.207 358.348 687.843 357.098 688.599L352.228 685.757L341.768 690.309C338.458 689.705 334.108 688.504 332.378 685.374C336.428 683.024 337.428 682.397 341.778 680.905C345.548 680.465 346.348 680.641 349.268 678.148Z" fill="#DED2C0"/>
<path d="M349.268 678.148C353.378 679.905 356.348 680.731 359.368 683.999L359.608 685.979C358.608 687.207 358.348 687.843 357.098 688.599L352.228 685.757C347.988 683.194 346.488 682.684 341.778 680.905C345.548 680.465 346.348 680.641 349.268 678.148Z" fill="#422E27"/>
<path d="M281.908 694.35C288.808 698.95 290.058 692.785 300.348 694.914C295.078 697.78 286.368 702.843 281.168 705.128C276.638 705.076 274.578 703.576 271.128 700.817C274.508 698.651 278.418 696.434 281.908 694.35Z" fill="#FDFDFB"/>
<path d="M279.788 687.079C282.418 685.486 284.848 683.444 287.708 683.646C285.858 686.278 283.128 687.05 280.098 688.431L279.788 687.079Z" fill="#575652"/>
<path d="M123.938 680.536L130.978 684.622L130.108 687.147C128.248 685.539 125.918 684.169 123.828 682.804L123.938 680.536Z" fill="#FDFDFB"/>
<path d="M339.508 641.269C343.568 641.611 348.018 643.854 351.868 645.264C308.628 668.685 262.188 685.895 218.358 708.056C215.828 709.336 212.618 711.17 209.778 710.435C212.938 706.099 321.628 650.494 339.508 641.269Z" fill="#FDFDFB"/>
<path d="M7.84778 535.609C24.9478 541.167 45.4178 552.261 62.0878 560.17C109.858 582.83 164.238 604.757 209.428 631.697L209.748 631.356C219.208 640.912 319.868 566.731 339.218 570.67L340.268 565.738C344.168 567.585 346.728 568.249 349.168 571.574C349.808 577.45 344.318 579.185 339.618 581.945C344.168 583.908 348.668 585.293 351.948 588.836C353.478 595.245 345.268 597.608 340.198 600.083L344.878 604.027C334.118 610.141 323.278 616.119 312.358 621.96C312.088 621.053 310.658 618.124 310.178 617.092C308.758 616.163 302.128 619.97 298.168 620.16C281.538 628.407 264.998 636.818 248.538 645.392C241.258 649.219 219.468 663.036 212.148 660.588L210.988 659.982L209.278 660.83C161.008 637.672 112.638 613.794 63.5177 592.549C51.8677 587.508 39.1078 581.195 27.4978 576.652C26.0278 578.356 24.5377 580.912 22.0177 580.848C14.6677 577.355 9.24774 574.342 2.18774 570.244C6.04774 567.695 12.2978 564.51 16.4978 562.208C11.7178 559.094 6.74771 556.716 1.65771 554.157C6.79771 551.519 13.1678 548.778 18.4978 546.333C14.5378 544.457 6.68772 541.296 4.41772 537.883L4.94775 536.421L7.84778 535.609Z" fill="#F2F1E8"/>
<path d="M340.268 565.738C344.168 567.585 346.728 568.249 349.168 571.574C349.808 577.45 344.318 579.185 339.618 581.945C344.168 583.908 348.668 585.293 351.948 588.836C353.478 595.245 345.268 597.608 340.198 600.083L344.878 604.027C334.118 610.141 323.278 616.119 312.358 621.96C312.088 621.053 310.658 618.124 310.178 617.092C308.758 616.163 302.128 619.97 298.168 620.16C281.538 628.407 264.998 636.818 248.538 645.392C241.258 649.219 219.468 663.036 212.148 660.588C217.388 656.243 227.408 650.473 233.338 646.896L232.998 646.399C233.768 643.458 233.788 640.882 233.978 637.861C227.268 640.863 222.938 642.464 215.938 644.774C226.538 634.984 267.618 614.016 281.828 606.493C302.158 595.692 322.358 584.664 342.448 573.412L342.418 572.282L339.218 570.67L340.268 565.738Z" fill="#13120E"/>
<path d="M332.808 585.313C337.358 587.646 340.378 589.118 345.118 591.037C324.138 600.462 303.358 610.352 282.808 620.7C270.998 626.776 249.388 639.133 238.428 643.871C239.298 641.406 240.338 642.352 241.358 638.845L238.108 636.062C270.258 619.88 301.838 603.715 332.808 585.313Z" fill="#FDFDFB"/>
<path d="M298.168 620.16C311.068 613.151 326.708 606.323 340.198 600.083L344.878 604.027C334.118 610.141 323.278 616.119 312.358 621.96C312.088 621.053 310.658 618.124 310.178 617.092C308.758 616.163 302.128 619.97 298.168 620.16Z" fill="#DFBBA7"/>
<path d="M233.978 637.861L238.108 636.062L241.358 638.845C240.338 642.352 239.298 641.406 238.428 643.871C235.958 645.569 236.078 645.635 233.338 646.896L232.998 646.399C233.768 643.458 233.788 640.882 233.978 637.861Z" fill="#DED2C0"/>
<path d="M7.84778 535.609C24.9478 541.167 45.4178 552.261 62.0878 560.17C109.858 582.83 164.238 604.757 209.428 631.697L208.018 634.329C207.298 634.496 206.578 634.662 205.858 634.828C146.128 607.484 87.0778 578.221 27.2378 551.023C23.3478 549.255 21.6678 551.066 19.8278 551.941C20.3078 555.392 19.3577 555.744 20.6477 559.022C52.1177 576.53 89.9878 589.714 122.458 605.756C142.168 615.491 191.508 632.537 207.188 646.636C190.788 642.159 161.248 628.86 144.898 621.736C106.178 604.873 61.8878 586.064 24.7178 566.407L13.9978 570.438C18.3778 572.426 23.2378 574.499 27.4978 576.652C26.0278 578.356 24.5377 580.912 22.0177 580.848C14.6677 577.355 9.24774 574.342 2.18774 570.244C6.04774 567.695 12.2978 564.51 16.4978 562.208C11.7178 559.094 6.74771 556.716 1.65771 554.157C6.79771 551.519 13.1678 548.778 18.4978 546.333C14.5378 544.457 6.68772 541.296 4.41772 537.883L4.94775 536.421L7.84778 535.609Z" fill="#171614"/>
<path d="M338.658 559.25C344.498 556.192 345.718 554.077 351.008 558.093C347.448 560.879 344.258 563.642 340.268 565.738L339.218 570.67C319.868 566.731 219.208 640.912 209.748 631.356C214.998 626.187 236.328 614.576 243.768 610.365C275.028 592.636 306.658 575.593 338.658 559.25Z" fill="#171614"/>
<path d="M51.6681 513.405C56.0481 516.006 61.4981 513.275 67.3381 514.962C55.1681 519.781 18.7981 535.525 7.84814 535.609C8.08814 534.694 8.79809 533.013 9.16809 532.07C15.0781 526.567 42.9081 516.511 51.6681 513.405Z" fill="#171614"/>
<path d="M228.018 530.202C234.348 530.341 234.198 530.904 237.568 536.248C239.898 537.579 241.818 536.89 244.578 536.483L246.588 537.449L246.978 539.422C245.428 541.729 244.448 541.687 241.758 542.628C237.678 542.352 238.258 541.716 235.658 543.546C235.158 548.929 236.158 548.757 233.228 551.408C226.658 553.316 224.628 548.491 219.308 548.414L218.898 549.624C219.218 553.31 217.888 556.632 214.808 558.747C207.918 560.099 196.428 551.488 200.938 545.63L203.528 545.821C207.138 546.939 208.118 547.573 211.028 545.375C212.188 536.643 215.008 535.104 223.638 537.205C227.028 535.288 226.478 534.861 228.018 530.202Z" fill="#DED2C0"/>
<path d="M218.898 549.624C219.218 553.31 217.888 556.632 214.808 558.747C207.918 560.099 196.428 551.488 200.938 545.63L203.528 545.821L205.348 548.382C210.928 549.012 213.288 548.354 218.898 549.624Z" fill="#B5604A"/>
<path d="M210.108 549.973C211.798 551.146 210.958 550.402 212.498 552.341L209.818 555.174C207.748 554.351 208.608 555.002 207.248 553.196L210.108 549.973Z" fill="#ECC7AC"/>
<path d="M228.018 530.202C234.348 530.341 234.198 530.904 237.568 536.248C239.898 537.579 241.818 536.89 244.578 536.483L246.588 537.449L246.978 539.422C245.428 541.729 244.448 541.687 241.758 542.628C234.958 539.376 228.638 538.303 228.018 530.202Z" fill="#B5604A"/>
<path d="M215.908 537.615C216.048 537.67 216.188 537.703 216.318 537.779C221.178 540.67 229.048 539.755 232.668 544.126C234.618 546.479 233.948 547.626 233.328 550.32C228.288 549.354 228.708 547.153 225.458 546.004C221.508 544.607 217.448 546.044 213.618 543.471C213.338 540.454 214.198 540.023 215.908 537.615Z" fill="#B5604A"/>
<path d="M188.498 515.244L191.838 515.247L192.548 516.416C187.998 523.762 119.988 554.549 107.658 559.39C106.558 559.864 105.738 559.811 104.548 559.844L104.538 558.369C115.498 548.016 171.498 523.362 188.498 515.244Z" fill="#B5604A"/>
<path d="M243.798 565.294C245.798 564.913 246.488 564.666 248.428 564.055C250.438 560.663 250.818 560.058 253.358 557.086C257.788 556.133 256.368 556.404 261.218 557.907L261.808 560.421L259.388 562.886C265.088 563.201 272.328 561.891 276.198 565.95C275.708 571.813 272.178 572.356 267.078 573.737C260.338 571.566 265.768 568.416 256.188 570.791C259.568 573.892 261.408 574.641 259.888 579.18C256.678 581.374 254.018 581.373 250.758 579.578C251.338 576.048 253.028 579.89 253.368 575.34C247.548 575.291 239.228 576.798 235.448 572.287C238.358 567.671 238.808 567.976 243.798 565.294Z" fill="#B5604A"/>
<path d="M243.798 565.294L247.788 567.131C247.678 568.669 247.928 567.827 246.508 569.437L245.488 569.665L245.788 570.125C250.418 571.021 252.478 570.024 256.188 570.791C259.568 573.892 261.408 574.641 259.888 579.18C256.678 581.374 254.018 581.373 250.758 579.578C251.338 576.048 253.028 579.89 253.368 575.34C247.548 575.291 239.228 576.798 235.448 572.287C238.358 567.671 238.808 567.976 243.798 565.294Z" fill="#B5604A"/>
<path d="M243.798 565.294C245.798 564.913 246.488 564.666 248.428 564.055C250.438 560.663 250.818 560.058 253.358 557.086C257.788 556.133 256.368 556.404 261.218 557.907C257.678 558.487 255.678 558.447 252.888 560.684L251.808 563.847C254.718 569.125 263.448 567.432 268.878 566.953C268.558 569.107 268.158 568.944 266.598 571.031L267.078 573.737C260.338 571.566 265.768 568.416 256.188 570.791C252.478 570.024 250.418 571.021 245.788 570.125L245.488 569.665L246.508 569.437C247.928 567.827 247.678 568.669 247.788 567.131L243.798 565.294Z" fill="#DED2C0"/>
<path d="M255.288 545.283L258.388 545.145L259.258 546.101C256.018 551.28 187.498 587.559 178.458 591.497C176.028 591.452 175.818 591.932 173.938 590.201C176.718 584.964 244.588 550.421 255.288 545.283Z" fill="#B5604A"/>
<path d="M149.408 497.615C156.868 510.339 158.928 502.862 165.298 510.425C161.258 515.992 160.738 515.432 153.828 515.202C151.048 519.184 155.528 516.59 151.168 519.849L145.648 519.944C139.148 515.514 130.518 517.054 125.538 510.966L126.088 508.816C129.088 506.54 131.328 506.814 135.118 506.538C136.438 506.478 137.558 506.119 138.878 505.811L149.408 497.615Z" fill="#B5604A"/>
<path d="M149.408 497.615C156.868 510.339 158.928 502.862 165.298 510.425C161.348 511.812 160.088 512.635 155.908 511.896C151.908 508.653 151.688 508.334 146.918 506.691C142.398 509.156 142.678 508.767 138.878 505.811L149.408 497.615Z" fill="#B5604A"/>
<path d="M135.118 506.538C136.438 506.478 137.558 506.119 138.878 505.811C142.678 508.767 142.398 509.156 146.918 506.691C151.688 508.334 151.908 508.653 155.908 511.896C160.088 512.635 161.348 511.812 165.298 510.425C161.258 515.992 160.738 515.432 153.828 515.202C151.048 519.184 155.528 516.59 151.168 519.849C151.678 517.332 151.398 517.091 150.888 514.518C145.238 508.274 141.288 514.223 133.258 511.94C134.058 510.483 134.788 510.021 136.008 508.915L135.118 506.538Z" fill="#DED2C0"/>
<path d="M206.198 523.38L207.798 524.929C203.698 530.386 133.398 564.97 123.278 568.241C122.168 567.59 122.848 568.07 121.458 566.511C125.348 560.723 195.268 527.236 206.198 523.38Z" fill="#171614"/>
<path d="M105.828 522.806C105.918 519.126 107.578 517.687 110.598 516.026C116.338 515.5 120.468 518.172 125.578 520.691C128.018 522.801 126.628 521.939 130.798 522.106C132.238 526.17 132.288 524.274 131.348 527.961C127.978 531.021 125.798 531.151 121.568 529.274C119.118 526.159 110.268 524.208 105.828 522.806Z" fill="#B5604A"/>
<path d="M125.578 520.691C128.018 522.801 126.628 521.939 130.798 522.106C132.238 526.17 132.288 524.274 131.348 527.961C127.978 531.021 125.798 531.151 121.568 529.274C119.118 526.159 110.268 524.208 105.828 522.806L110.618 522.03C114.528 523.834 115.298 524.108 119.508 525.109C123.028 524.091 123.258 523.459 125.578 520.691Z" fill="#ECC7AC"/>
<path d="M130.798 522.106C132.238 526.17 132.288 524.274 131.348 527.961C127.978 531.021 125.798 531.151 121.568 529.274C124.238 525.161 126.458 524.371 130.798 522.106Z" fill="#B5604A"/>
<path d="M272.718 548.348C278.208 548.766 282.978 550.929 287.428 554.148C290.018 556.023 290.968 557.684 291.518 560.778C289.898 563.669 288.918 563.932 286.088 565.501C285.458 563.809 284.938 562.243 284.578 560.468C284.478 559.973 284.388 559.474 284.298 558.977C279.578 558.926 271.728 559.255 267.978 556.085C266.698 554.996 267.098 554.582 267.088 553.066C268.628 550.866 270.508 549.759 272.718 548.348Z" fill="#B5604A"/>
<path d="M95.7378 522.487C100.908 523.181 102.748 526.226 106.768 528.973C108.238 529.977 109.748 530.826 110.848 532.268C112.288 534.167 112.238 534.569 111.928 536.782L109.538 538.306C106.948 538.224 106.748 538.433 104.858 536.716L106.158 533.363C102.348 533.853 98.8077 534.615 95.0677 533.386L94.7877 532.139L97.1978 529.269L96.6178 528.153C92.6078 528.241 89.8178 530.849 85.8778 530.007L84.9878 527.928C87.2278 524.144 91.7478 523.588 95.7378 522.487Z" fill="#B5604A"/>
<path d="M80.5979 536.335C85.1779 536.354 92.1679 539.191 94.6179 543.031C93.8279 549.635 79.7479 553.051 78.9979 544.917L78.5479 543.809L74.3379 542.573L72.7578 540.123C75.1078 538.351 77.8479 537.458 80.5979 536.335Z" fill="#B5604A"/>
<path d="M74.3379 542.573C78.7179 542.377 82.1079 541.844 86.2379 543.203C83.9279 544.702 81.7779 544.621 78.9979 544.917L78.5479 543.809L74.3379 542.573Z" fill="#DFBBA7"/>
<path d="M170.028 563.328C170.858 563.336 171.858 563.693 172.678 563.889L172.248 565.621C165.478 570.94 157.078 574.327 149.138 577.52L147.138 576.924L146.728 575.228C151.918 569.414 162.948 566.193 170.028 563.328Z" fill="#A47465"/>
<path d="M221.788 583.322C223.688 583.5 222.838 583.15 224.308 584.388C220.918 590.462 202.918 597.569 196.418 600.982L194.908 600.867L195.188 599.032C202.778 592.442 212.868 587.854 221.788 583.322Z" fill="#A47465"/>
<path d="M181.218 570.153C182.528 570.583 181.738 570.208 183.268 571.751C180.258 577.096 166.558 581.73 160.768 584.42L159.238 583.746L158.788 582.308C163.578 576.271 174.268 573.077 181.218 570.153Z" fill="#A47465"/>
<path d="M71.9878 537.914C68.7778 539.582 65.7378 542.089 62.9478 539.002C65.5078 531.472 73.5078 530.901 79.9878 533.667L80.5978 536.335C77.8478 537.458 75.1077 538.351 72.7577 540.123L71.9878 537.914Z" fill="#B5604A"/>
<path d="M79.9878 533.667L80.5978 536.335C77.8478 537.458 75.1077 538.351 72.7577 540.123L71.9878 537.914C72.5578 537.424 78.7578 534.323 79.9878 533.667Z" fill="#DFBBA7"/>
<path d="M709.798 362.901C695.988 317.068 770.268 342.531 790.648 345.52C793.778 345.98 797.168 358.847 798.218 361.917C819.968 365.294 841.748 368.488 863.558 371.5C873.828 372.981 900.618 375.019 908.668 382.65C911.038 384.897 913.308 392.614 912.818 395.934C903.798 445.638 893.898 495.209 885.418 545.034C884.618 549.716 881.488 563.291 879.008 566.945C865.508 573.654 846.008 567.286 831.308 564.48C809.398 560.318 787.508 555.995 765.658 551.514C755.458 549.503 672.218 536.718 670.508 528.131C661.808 484.509 657.908 438.189 652.818 393.821C649.228 361.724 670.058 375.993 684.938 373.696C686.738 368.666 684.768 366.12 690.108 363.445C694.888 361.048 703.658 362.674 708.978 363.627L709.798 362.901Z" fill="#171614"/>
<path d="M709.798 362.901L713.568 363.487L714.958 362.447C715.828 355.235 715.198 348.203 720.308 343.207C726.998 340.446 777.428 349.348 787.508 351.34C788.908 356.557 790.158 364.968 795.288 367.894C801.848 371.641 892.648 383.408 908.358 385.591C907.698 396.007 900.228 425.549 897.688 437.453C891.838 465.599 886.468 493.843 881.588 522.173L879.508 518.2L887.958 442.089C889.028 432.28 892.668 400.577 891.398 391.881C884.498 386.138 813.298 379.162 798.918 376.847C770.228 372.227 738.068 369.304 708.978 363.627L709.798 362.901Z" fill="#F2F1E8"/>
<path d="M878.668 525.731L879.508 518.2L881.588 522.173L879.928 532.709L878.668 525.731Z" fill="#BCBBB7"/>
<path d="M878.668 525.731L879.928 532.709L879.978 535.087L879.068 535.786C877.628 531.525 878.108 530.373 878.668 525.731Z" fill="#3B3B37"/>
<path d="M662.618 378.301C683.298 380.499 705.488 382.179 725.698 386.927C728.708 391.003 731.078 395.771 733.608 400.167C759.138 406.799 834.688 411.59 849.938 420.218C851.578 422.849 852.068 425.844 852.508 428.877C854.048 439.513 866.098 560.082 865.498 561.657C865.278 562.225 864.758 562.626 864.398 563.111C802.438 548.108 738.558 540.438 676.278 526.676C675.368 513.897 672.968 500.907 671.288 488.187C668.498 466.464 665.808 444.726 663.248 422.975C661.798 410.968 658.928 397.377 659.758 385.298C659.958 382.393 660.988 380.66 662.618 378.301Z" fill="#F2F1E8"/>
<path d="M751.858 439.896L756.128 440.09C759.378 441.676 760.418 443.656 761.808 446.83C766.108 456.672 774.498 481.518 770.868 491.417L769.268 491.978C764.258 488.796 763.098 483.124 761.488 477.804C756.918 476.984 752.278 476.524 747.678 475.966C746.808 478.61 745.978 481.799 744.398 484.075C742.388 486.948 740.698 487.852 737.398 488.243L739.688 488.4L736.768 486.625C735.508 477.107 746.458 448.373 751.858 439.896Z" fill="#13120E"/>
<path d="M754.618 453.185C757.318 456.062 758.798 464.171 759.408 468.025L757.828 469.13C755.368 468.93 753.358 468.97 751.328 467.395C750.408 462.874 753.158 457.597 754.618 453.185Z" fill="#DED2C0"/>
<path d="M780.248 443.96C781.378 444.065 782.458 444.122 783.568 444.429C789.188 445.996 793.238 457.421 795.548 462.213C797.718 459.05 799.878 455.759 802.338 452.818C804.428 450.314 807.238 447.89 810.568 447.511L811.598 449.207C810.938 457.719 806.208 463.389 801.528 470.227C804.998 477.116 813.848 490.167 812.008 497.706C810.358 497.525 808.538 497.391 807.008 496.701C803.808 495.267 802.258 491.924 800.868 488.934C799.338 485.656 797.658 482.65 795.758 479.575C793.438 482.893 791.128 486.661 788.288 489.546C786.098 491.773 783.308 493.588 780.188 493.664L779.468 491.465C780.728 482.666 785.338 477.292 790.458 470.288C786.648 463.127 778.538 452.027 780.248 443.96Z" fill="#171614"/>
<path d="M702.628 434.023C711.898 434.905 724.918 434.643 733.358 438.31C735.718 439.338 737.258 440.028 738.298 442.477C737.848 443.274 737.958 443.24 737.088 443.87C732.918 446.866 728.848 445.843 724.158 445.121L724.128 473.647C724.148 476.126 723.968 478.402 723.668 480.853C722.168 482.99 721.468 484.414 718.878 485.271L717.418 484.223C712.648 473.971 715.468 455.907 715.818 444.474C711.868 443.975 707.788 443.888 704.358 441.714C702.418 439.047 702.578 437.152 702.628 434.023Z" fill="#13120E"/>
<path d="M738.088 394.693C722.818 369.231 708.108 380.944 693.348 374.817C691.748 372.308 691.838 372.504 691.928 369.52L693.378 368.212C697.888 367.523 730.398 373.521 738.058 374.817C787.198 383.131 836.508 388.533 885.828 395.36C883.088 422.595 880.078 449.801 876.788 476.975L876.418 476.957C874.728 475.196 875.068 468.232 874.908 464.993C874.598 449.123 877.518 419.467 874.988 403.015C874.278 398.375 860.128 395.822 854.828 395.493C836.738 394.37 758.488 378.826 746.728 384.134C753.168 389.26 853.458 401.254 870.168 403.942C868.978 421.526 869.098 443.471 868.948 461.248C868.018 468.538 868.058 473.886 868.028 481.268L865.018 481.699C863.748 469.016 861.238 428.561 857.218 417.228C854.458 409.433 816.008 405.862 806.058 404.503C783.358 401.561 760.698 398.291 738.088 394.693Z" fill="#F2F1E8"/>
<path d="M868.948 461.248C869.198 466.259 869.208 510.507 868.198 512.743C866.728 510.224 867.128 509.521 867.388 506.568C867.468 502.963 865.428 486.523 865.018 481.699L868.028 481.268C868.058 473.886 868.018 468.538 868.948 461.248Z" fill="#575652"/>
<path d="M868.028 481.268C867.968 489.763 867.988 498.08 867.388 506.568C867.468 502.963 865.428 486.523 865.018 481.699L868.028 481.268Z" fill="#FDFDFB"/>
<path d="M873.888 492.681C874.018 483.548 873.958 474.045 874.908 464.993C875.068 468.232 874.728 475.196 876.418 476.957L876.788 476.975C876.628 479.523 876.178 484.415 876.248 486.767L873.888 492.681Z" fill="#BCBBB7"/>
<path d="M876.248 486.767C875.548 494.398 874.758 502.021 873.888 509.634C873.148 504.742 872.308 497.434 873.888 492.681L876.248 486.767Z" fill="#575652"/>
<path d="M245.668 419.909L247.558 419.278C252.508 423.281 260.318 451.143 261.448 457.762L261.748 458.587C266.868 473.011 269.428 497.416 282.648 504.149C290.688 508.244 313.538 508.425 322.648 507.052L323.998 505.979C322.828 505.182 321.578 504.296 320.378 503.553C320.308 500.747 319.428 500.442 317.628 497.655C312.668 495.192 310.418 495.797 307.978 491.817L306.518 492.694C313.108 486.001 309.428 485.821 318.718 480.625C320.628 478.819 324.408 477.209 327.298 475.048L327.448 473.02L324.288 469.715C331.538 472.031 334.218 472.572 341.768 473.665C336.448 464.326 317.648 474.23 323.948 445.602C325.578 451.572 327.278 458.539 329.438 464.221C344.948 467.466 364.588 469.712 380.538 470.973C381.408 468.753 382.988 464.332 383.938 462.344L385.858 462.381L388.388 456.9L389.208 456.748C389.578 458.761 389.948 461.17 390.498 463.101L390.378 464.286C398.768 472.784 413.588 470.079 426.208 472.091L452.498 477.905L453.938 478.389C454.648 480.197 455.778 482.82 456.278 484.61C467.388 486.761 469.558 488.449 479.168 494.547C485.488 501.112 489.718 505.837 487.118 515.21C487.138 522.668 488.748 527.247 489.418 534.081C490.038 537.954 491.098 541.745 489.798 545.328L488.098 546.181C484.078 544.546 481.618 540.535 478.958 536.982C478.008 535.744 475.578 531.624 474.628 530.104L472.348 525.773L471.378 525.174C449.688 537.627 438.798 530.128 418.778 519.86C401.538 511.021 378.308 520.832 360.638 525.882C378.718 536.118 395.678 547.715 413.268 558.723C440.468 575.757 467.548 592.924 494.168 610.866C504.228 617.646 514.988 624.102 524.228 631.964C572.558 606.702 628.158 587.527 678.698 566.999C681.028 566.052 681.998 566.581 684.148 567.208L685.138 568.885C683.278 572.732 676.498 575.196 672.598 576.859C676.258 578.947 679.288 579.629 680.108 583.85L681.638 585.061C683.188 586.753 682.588 585.786 682.978 588.237C678.198 594.036 627.588 611.939 616.888 616.175C584.018 629.233 551.318 642.706 518.788 656.59C498.748 641.277 361.348 548.04 357.248 538.697C358.838 536.513 360.568 536.69 363.838 535.693C363.868 532.327 354.018 530.383 354.478 524.151C358.638 519.789 369.278 518.353 375.428 517.021L375.988 516.187L373.378 515.037C357.638 516.273 341.858 517.047 326.078 517.357C305.058 517.682 290.018 514.643 269.828 520.313C281.598 525.073 337.448 546.6 344.848 553.093C340.488 556.292 337.448 554.052 332.768 552.344C329.568 550.589 312.448 544.216 308.278 542.573L253.788 521.088C258.468 519.798 261.018 520.011 265.788 519.968C269.688 517.197 271.548 516.312 274.148 512.441C273.858 511.468 272.828 510.01 272.268 509.25C264.898 499.286 259.858 486.786 257.308 474.642C253.738 465.084 246.228 429.627 245.668 419.909Z" fill="#171614"/>
<path d="M519.828 649.443C476.618 621.01 433.798 586.863 391.638 556.546C385.128 551.867 378.518 546.783 372.458 541.551C384.078 546.686 397.678 557.69 408.888 564.42C431.288 577.865 452.998 592.162 474.908 606.32C490.798 616.587 507.568 628.542 523.608 638.193C541.668 631.581 659.848 577.78 668.388 579.333C670.498 578.341 670.658 578.162 672.598 576.859C676.258 578.947 679.288 579.629 680.108 583.85L681.638 585.061C666.968 586.27 537.988 640.521 519.828 649.443Z" fill="#DED2C0"/>
<path d="M668.388 579.333C670.498 578.341 670.658 578.162 672.598 576.859C676.258 578.947 679.288 579.629 680.108 583.85C674.688 583.488 672.548 582.608 668.388 579.333Z" fill="#13120E"/>
<path d="M390.378 464.286C398.768 472.784 413.588 470.079 426.208 472.091L452.498 477.905L453.938 478.389C454.648 480.197 455.778 482.82 456.278 484.61C432.588 478.873 407.988 473.953 383.728 471.641C385.958 469.203 388.178 466.751 390.378 464.286Z" fill="#F4F2E8"/>
<path d="M471.378 525.174L471.488 521.572C481.428 523.818 476.708 517.161 487.118 515.21C487.138 522.668 488.748 527.247 489.418 534.081C490.038 537.954 491.098 541.745 489.798 545.328L488.098 546.181C484.078 544.546 481.618 540.535 478.958 536.982C478.008 535.744 475.578 531.624 474.628 530.104L472.348 525.773L471.378 525.174Z" fill="#B5604A"/>
<path d="M472.348 525.773C478.578 520.244 488.488 522.729 484.558 531.794C480.178 533.948 478.498 532.654 474.628 530.104L472.348 525.773Z" fill="#F03906"/>
<path d="M478.958 536.982C482.148 536.395 486.238 535.025 489.418 534.081C490.038 537.954 491.098 541.745 489.798 545.328L488.098 546.181C484.078 544.546 481.618 540.535 478.958 536.982Z" fill="#21110C"/>
<path d="M245.668 419.909L247.558 419.278C252.508 423.281 260.318 451.143 261.448 457.762C257.098 452.29 252.308 430.554 249.028 429.06L249.918 428.689L249.098 427.994V428.693L250.138 428.964L250.338 429.367L249.348 430.587C251.198 439.544 257.488 467.082 257.308 474.642C253.738 465.084 246.228 429.627 245.668 419.909Z" fill="#340905"/>
<path d="M324.288 469.715C331.538 472.031 334.218 472.572 341.768 473.665C335.668 476.524 325.698 478.141 318.718 480.625C320.628 478.819 324.408 477.209 327.298 475.048L327.448 473.02L324.288 469.715Z" fill="#915F52"/>
<path d="M317.628 497.655L326.878 500.51L327.398 501.632C325.638 502.167 321.498 503.074 320.378 503.553C320.308 500.747 319.428 500.442 317.628 497.655Z" fill="#915F52"/>
<path d="M373.378 515.037C378.438 514.025 383.778 514.391 388.988 514.466C384.978 515.301 379.358 516.656 375.428 517.021L375.988 516.187L373.378 515.037Z" fill="#928F86"/>
<path d="M591.778 651.119C595.858 646.053 639.628 628.102 647.048 625.142C657.238 621.079 724.168 589.214 730.578 590.843L731.728 592.425C730.688 594.815 729.478 595.913 726.928 596.957C685.958 613.743 645.938 634.095 604.768 650.233L602.978 650.932C636.208 666.167 669.278 681.774 702.158 697.748C718.978 705.844 745.028 717.653 760.398 726.842C789.858 710.027 819.458 693.479 849.218 677.2C857.588 672.608 880.818 661.206 886.788 656.854L887.188 656.726C887.658 654.157 887.518 654.112 887.468 651.441C890.328 653.413 891.448 653.768 892.528 657.055C890.928 664.723 874.568 670.913 868.068 674.877C872.858 676.843 877.678 678.248 881.168 681.878C883.938 689.849 869.138 694.473 862.788 696.981C867.618 699.597 875.228 702.694 876.978 707.609C871.538 714.863 716.998 776.74 696.758 783.044C693.918 784.004 691.358 784.681 688.898 783.077C650.318 756.951 612.688 719.89 574.948 691.738C573.188 690.427 573.468 689.969 573.508 688.06C576.478 685.967 574.798 686.593 578.908 686.717C578.758 683.178 576.728 685.416 575.498 680.709C581.028 676.974 592.218 673.169 598.808 670.905L602.898 668.94C598.088 665.419 594.328 662.899 590.148 658.586C589.148 655.685 588.608 659.255 588.508 654.048L590.638 652.3L591.198 652.543L591.778 651.119Z" fill="#B5604A"/>
<path d="M591.778 651.119C595.858 646.053 639.628 628.102 647.048 625.142C657.238 621.079 724.168 589.214 730.578 590.843L731.728 592.425C730.688 594.815 729.478 595.913 726.928 596.957C685.958 613.743 645.938 634.095 604.768 650.233L602.978 650.932C636.208 666.167 669.278 681.774 702.158 697.748C718.978 705.844 745.028 717.653 760.398 726.842C789.858 710.027 819.458 693.479 849.218 677.2C857.588 672.608 880.818 661.206 886.788 656.854L887.188 656.726C887.658 654.157 887.518 654.112 887.468 651.441C890.328 653.413 891.448 653.768 892.528 657.055C890.928 664.723 874.568 670.913 868.068 674.877C872.858 676.843 877.678 678.248 881.168 681.878C883.938 689.849 869.138 694.473 862.788 696.981C859.768 698.905 858.008 698.727 855.688 700.08C844.538 706.707 762.048 747.735 755.358 749.042C752.448 749.253 749.538 749.663 746.678 750.27L744.688 750.713L744.318 749.988L747.488 747.046C742.248 748.984 742.048 749.333 737.388 746.92C721.958 734.271 690.838 716.473 672.968 704.796C651.598 692.193 629.838 677.086 608.488 663.803C605.958 668.517 605.878 666.288 602.898 668.94C598.088 665.419 594.328 662.899 590.148 658.586C589.148 655.685 588.608 659.255 588.508 654.048L590.638 652.3L591.198 652.543L591.778 651.119Z" fill="#19140F"/>
<path d="M672.968 704.796C672.458 701.038 671.788 700.241 669.548 697.101L669.798 695.82C678.028 695.787 684.228 705.755 696.118 702.547C708.888 708.757 751.318 730.199 762.358 733.036C761.838 735.526 761.448 737.52 760.758 739.986C757.948 741.37 749.298 745.288 747.488 747.046C742.248 748.984 742.048 749.333 737.388 746.92C721.958 734.271 690.838 716.473 672.968 704.796Z" fill="#ECC7AC"/>
<path d="M863.378 677.246C868.018 680.706 869.468 681.437 874.748 683.896C853.788 693.817 832.888 703.864 812.048 714.038C795.178 722.456 777.698 731.975 760.758 739.986C761.448 737.52 761.838 735.526 762.358 733.036C795.678 714.202 830.288 696.379 863.378 677.246Z" fill="#F2F1E8"/>
<path d="M590.148 658.586C589.148 655.685 588.608 659.255 588.508 654.048L590.638 652.3L591.198 652.543L591.778 651.119C600.228 657.963 628.168 670.074 639.618 675.435C658.518 684.327 677.358 693.365 696.118 702.547C684.228 705.755 678.028 695.787 669.798 695.82L669.548 697.101C671.788 700.241 672.458 701.038 672.968 704.796C651.598 692.193 629.838 677.086 608.488 663.803C605.958 668.517 605.878 666.288 602.898 668.94C598.088 665.419 594.328 662.899 590.148 658.586Z" fill="#DFBBA7"/>
<path d="M590.148 658.586C598.078 654.58 601.818 659.147 608.488 663.803C605.958 668.517 605.878 666.288 602.898 668.94C598.088 665.419 594.328 662.899 590.148 658.586Z" fill="#13120E"/>
<path d="M608.488 663.803C629.838 677.086 651.598 692.193 672.968 704.796C690.838 716.473 721.958 734.271 737.388 746.92C732.888 748.352 733.848 747.733 728.468 746.41C722.288 749.738 715.068 754.571 709.018 758.398C669.798 732.893 626.088 706.789 585.948 682.444L581.388 687.324C580.558 687.154 579.648 687.043 578.908 686.717C578.758 683.178 576.728 685.416 575.498 680.709C581.028 676.974 592.218 673.169 598.808 670.905L602.898 668.94C605.878 666.288 605.958 668.517 608.488 663.803Z" fill="#F2F1E8"/>
<path d="M608.488 663.803C629.838 677.086 651.598 692.193 672.968 704.796C690.838 716.473 721.958 734.271 737.388 746.92C732.888 748.352 733.848 747.733 728.468 746.41C716.788 740.658 698.948 729.215 687.678 722.214C661.858 706.113 636.228 689.715 610.788 673.025L601.408 675.88C601.748 673.724 602.248 674.012 604.258 671.792L603.188 671.135L603.408 671.989L603.138 671.977C601.018 670.191 602.278 670.846 598.808 670.905L602.898 668.94C605.878 666.288 605.958 668.517 608.488 663.803Z" fill="#1E130D"/>
<path d="M578.908 686.717C578.758 683.178 576.728 685.416 575.498 680.709C581.028 676.974 592.218 673.169 598.808 670.905C602.278 670.846 601.018 670.191 603.138 671.977L603.408 671.989L603.188 671.135L604.258 671.792C602.248 674.012 601.748 673.724 601.408 675.88C597.058 678.173 587.098 680.522 585.838 682.194L585.948 682.444L581.388 687.324C580.558 687.154 579.648 687.043 578.908 686.717Z" fill="#171614"/>
<path d="M585.948 682.444C626.088 706.789 669.798 732.893 709.018 758.398C715.068 754.571 722.288 749.738 728.468 746.41C733.848 747.733 732.888 748.352 737.388 746.92C742.048 749.333 742.248 748.984 747.488 747.046L744.318 749.988L744.688 750.713L746.678 750.27C749.538 749.663 752.448 749.253 755.358 749.042C750.268 751.432 747.988 752.221 742.648 753.908C739.728 752.276 736.828 750.622 733.938 748.947C726.538 754.078 716.768 760.611 708.678 764.68C698.748 760.114 680.388 748.327 670.568 742.377L580.528 686.806C587.138 694.308 619.328 719.219 629.078 727.023C639.618 735.449 662.488 755.069 672.888 762.221C675.108 764.394 675.308 764.677 677.908 766.299L678.898 767.375C682.958 771.712 693.338 776.47 688.898 783.077C650.318 756.951 612.688 719.89 574.948 691.738C573.188 690.427 573.468 689.969 573.508 688.06C576.478 685.967 574.798 686.593 578.908 686.717C579.648 687.043 580.558 687.154 581.388 687.324L585.948 682.444Z" fill="#21110C"/>
<path d="M855.688 700.08C858.008 698.727 859.768 698.905 862.788 696.981C867.618 699.597 875.228 702.694 876.978 707.609C871.538 714.863 716.998 776.74 696.758 783.044L693.938 782.336L693.238 780.867C695.488 776.809 712.118 771.045 717.268 768.978C719.498 768.354 722.498 766.869 724.708 765.891C740.848 760.383 755.798 752.531 771.568 746.444C804.028 733.915 837.638 717.436 870.798 707.404C865.658 705.149 860.458 703.044 855.688 700.08Z" fill="#21110C"/>
<path d="M672.888 762.221C667.918 753.653 643.828 738.037 642.458 730.761C648.758 730.995 701.648 762.637 705.378 769.496L705.258 771.136C704.378 771.672 693.398 775.78 691.678 775.667C685.988 771.147 685.858 769.967 679.088 766.049L677.908 766.299C675.308 764.677 675.108 764.394 672.888 762.221Z" fill="#F03906"/>
<path d="M717.268 768.978C714.948 767.677 712.348 768.132 709.568 768.21C713.448 762.117 732.378 753.895 739.968 753.581L740.598 755.845C735.808 762.416 730.648 759.346 724.708 765.891C722.498 766.869 719.498 768.354 717.268 768.978Z" fill="#c72707"/>
<path d="M462.808 441.828C488.208 445.118 566.688 449.04 563.958 486.313C562.398 507.647 532.468 503.552 520.388 494.313C504.208 482.446 495.208 481.133 475.488 481.322C470.968 472.19 466.258 458.101 462.908 448.473C461.518 444.487 461.378 444.427 462.808 441.828Z" fill="#171614"/>
<path d="M629.258 158.908C632.668 158.393 635.868 160.678 636.488 164.068C637.108 167.458 634.918 170.728 631.558 171.455C629.278 171.945 626.918 171.158 625.388 169.401C623.868 167.644 623.418 165.196 624.218 163.012C625.028 160.828 626.958 159.255 629.258 158.908Z" fill="#F4F2E8"/>
<path d="M432.928 422.093C436.258 416.393 431.508 408.464 442.188 407.412C454.478 412.892 455.238 434.917 461.928 441.527L462.808 441.828C461.378 444.427 461.518 444.487 462.908 448.473C466.258 458.101 470.968 472.19 475.488 481.322L479.168 494.547C469.558 488.449 467.388 486.761 456.278 484.61C455.778 482.82 454.648 480.197 453.938 478.389L452.498 477.905C448.088 469.533 445.968 458.227 440.518 450.078C438.838 447.564 438.518 446.548 437.648 443.647C437.448 438.56 432.068 428.248 432.928 422.093Z" fill="#F03906"/>
<path d="M432.928 422.093C435.278 424.227 453.428 473.858 453.938 478.389L452.498 477.905C448.088 469.533 445.968 458.227 440.518 450.078C438.838 447.564 438.518 446.548 437.648 443.647C437.448 438.56 432.068 428.248 432.928 422.093Z" fill="#4F130B"/>
<path d="M108.308 164.446L107.708 162.628C111.838 162.119 126.178 169.256 130.468 171.5C168.668 191.458 194.698 236.211 198.498 278.406L197.678 278.689C196.518 277.409 196.528 277.625 194.928 276.63L195.638 277.962L195.018 277.923C193.068 272.011 193.068 270.103 188.308 267.203L187.228 266.366C186.828 264.454 186.118 262.314 185.558 260.415C179.018 224.604 148.778 189.074 115.128 175.392L101.528 169.933L100.838 168.454C101.268 165.412 101.518 166.038 104.018 163.331C105.118 163.65 107.288 164.399 108.308 164.446Z" fill="#171614"/>
<path d="M104.018 163.331C105.118 163.65 107.288 164.399 108.308 164.446C114.928 168.058 114.948 167.321 115.128 175.392L101.528 169.933L100.838 168.454C101.268 165.412 101.518 166.038 104.018 163.331Z" fill="#3B3B37"/>
<path d="M33.4081 167.153C52.5181 178.473 74.7281 210.269 67.4081 232.894L66.0381 233.366C64.0281 230.681 62.2181 222.387 61.1481 218.936C55.1281 199.459 44.0582 181.126 25.6082 171.311C22.9782 169.915 22.1981 168.523 21.8081 166.016C23.3181 163.294 26.0982 161.789 28.9882 160.777C53.7082 152.109 80.3481 153.201 104.018 163.331C101.518 166.038 101.268 165.412 100.838 168.454L101.528 169.933C78.3281 161.293 57.0981 160.711 33.4081 167.153Z" fill="#171614"/>
<path d="M572.458 133.018C575.778 132.092 579.238 133.935 580.318 137.204C581.398 140.474 579.718 144.016 576.508 145.25C574.288 146.102 571.778 145.664 569.978 144.111C568.178 142.558 567.388 140.142 567.898 137.823C568.418 135.504 570.168 133.657 572.458 133.018Z" fill="#F4F2E8"/>
<path d="M886.788 656.854C865.748 646.758 736.258 597.893 732.388 590.46L732.938 589.934C735.778 589.585 741.258 589.819 743.768 590.931C790.898 611.807 841.478 628.139 887.468 651.441C887.518 654.112 887.658 654.157 887.188 656.726L886.788 656.854Z" fill="#171614"/>
<path d="M564.118 498.246C565.808 498.258 567.138 498.413 568.738 499.005C579.128 502.854 589.428 509.522 599.278 514.659C618.688 524.661 637.918 534.994 656.968 545.653C665.088 550.184 674.348 554.598 681.798 560.128C683.458 561.355 684.208 562.595 685.088 564.411C682.418 564.585 680.418 564.529 677.898 563.545C657.168 555.461 635.478 541.286 615.828 530.518C601.138 522.464 581.698 513.773 568.388 503.938C565.758 501.993 565.438 501.326 564.118 498.246Z" fill="#171614"/>
<path d="M836.028 648.607C840.918 651.6 842.628 653.037 846.898 656.684C842.498 660.379 841.148 661.312 836.108 664.091C827.838 669.624 816.248 675.508 807.318 680.682C801.808 683.225 799.388 683.021 794.668 679.608C791.318 672.064 802.838 667.061 808.428 663.696C817.328 658.339 826.708 653.193 836.028 648.607Z" fill="#F03906"/>
<path d="M836.028 648.607C840.918 651.6 842.628 653.037 846.898 656.684C842.498 660.379 841.148 661.312 836.108 664.091C837.618 660.452 838.288 660.267 841.668 658.24L842.348 656.394C839.558 653.347 839.678 653.499 835.918 651.677C829.208 655.082 797.448 671.402 796.148 677.157C799.148 680.141 802.968 680.165 807.318 680.682C801.808 683.225 799.388 683.021 794.668 679.608C791.318 672.064 802.838 667.061 808.428 663.696C817.328 658.339 826.708 653.193 836.028 648.607Z" fill="#B5604A"/>
<path d="M637.898 429.678C639.398 429.372 640.918 429.268 642.438 429.116L644.388 430.827L644.268 432.343C636.228 440.251 568.548 452.638 554.298 455.129C551.798 455.41 550.128 455.82 547.788 454.703L547.168 452.949C552.348 447.135 625.728 432.369 637.898 429.678Z" fill="#171614"/>
<path d="M734.658 638.83L735.688 638.344C744.008 634.367 759.928 623.693 767.608 623.481C774.428 626.57 771.828 633.65 778.318 632.197C778.048 629.879 778.078 629.867 777.208 627.712C780.018 627.281 779.538 627.769 782.688 629.791C781.928 634.611 752.448 647.259 747.108 647.921C746.758 647.456 745.038 643.976 744.578 643.132C740.398 643.799 739.178 644.153 735.048 643.773C732.628 641.261 733.188 642.705 733.118 639.371L734.658 638.83Z" fill="#B5604A"/>
<path d="M734.658 638.83L735.368 641.101C745.058 644.616 758.428 627.347 767.388 629.267C768.688 631.73 768.628 630.477 767.978 633.058C761.918 636.137 747.488 641.218 747.108 647.921C746.758 647.456 745.038 643.976 744.578 643.132C740.398 643.799 739.178 644.153 735.048 643.773C732.628 641.261 733.188 642.705 733.118 639.371L734.658 638.83Z" fill="#DED2C0"/>
<path d="M803.578 637.213C805.458 637.628 804.648 637.14 805.888 638.837C802.828 644.851 731.628 683.435 721.428 687.044C719.048 685.982 719.938 686.795 718.668 684.714C728.408 675.607 789.348 642.734 803.578 637.213Z" fill="#B5604A"/>
<path d="M812.898 645.214L815.718 645.224L816.118 646.449C807.218 655.32 750.868 685.956 736.428 693.375C734.578 693.572 735.618 693.647 733.368 692.742L733.938 690.994C757.408 674.192 786.688 657.292 812.898 645.214Z" fill="#B5604A"/>
<path d="M710.768 657.421L712.578 657.304C717.128 656.982 717.218 655.35 722.228 656.715C725.428 659.367 726.678 661.281 729.238 664.602C724.138 664.905 715.798 664.544 712.228 667.531C710.898 669.696 710.318 669.772 708.158 671.232C701.918 675.768 698.728 677.293 691.298 674.847C688.338 671.957 689.188 673.659 688.648 669.563C689.858 665.701 691.138 665.307 694.488 663C705.668 669.939 699.208 660.933 710.768 657.421Z" fill="#B5604A"/>
<path d="M710.768 657.421L712.578 657.304C717.128 656.982 717.218 655.35 722.228 656.715C725.428 659.367 726.678 661.281 729.238 664.602C724.138 664.905 715.798 664.544 712.228 667.531C709.738 666.854 707.428 666.054 706.058 663.911C707.608 661.784 708.048 661.711 710.548 660.904L710.768 657.421Z" fill="#A47465"/>
<path d="M716.178 658.007C716.478 658.116 716.788 658.203 717.078 658.335C719.658 659.502 719.988 659.563 720.968 662.104C719.938 662.732 720.578 662.52 718.938 662.304L716.178 658.007Z" fill="#DFBBA7"/>
<path d="M694.488 663C705.668 669.939 699.208 660.933 710.768 657.421L710.548 660.904C708.048 661.711 707.608 661.784 706.058 663.911C707.428 666.054 709.738 666.854 712.228 667.531C710.898 669.696 710.318 669.772 708.158 671.232C703.258 668.139 702.158 669.277 697.618 671.312C694.868 668.992 695.378 667.355 694.488 663Z" fill="#DED2C0"/>
<path d="M537.998 529.714C535.588 533.415 536.588 533.035 533.138 534.769C529.988 533.971 529.798 533.659 527.118 531.954C523.138 535.074 517.558 540.115 513.128 541.74L511.388 541.353C509.468 532.616 529.868 529.253 534.628 525.419C536.518 523.905 536.108 521.789 540.008 519.739C544.358 522.349 541.288 524.12 545.568 525.615C550.138 522.989 556.398 518.011 560.808 517.119L561.968 517.973C559.478 522.519 550.148 540.798 546.648 542.389L544.378 542.039C542.778 539.206 542.968 540.65 543.638 537.588C546.038 536.653 545.238 536.827 547.678 536.626C551.018 533.291 552.418 527.772 554.118 523.113C550.958 526.061 545.638 531.92 541.678 532.102C540.308 530.959 540.238 531.134 539.298 529.698L537.998 529.714Z" fill="#13120E"/>
<path d="M537.998 529.714C538.408 526.512 537.858 526.052 539.678 524.42C540.428 527.14 540.268 526.991 539.298 529.698L537.998 529.714Z" fill="#BCBBB7"/>
<path d="M653.958 650.867C652.348 642.751 665.298 648.31 670.048 641.883C673.828 636.764 679.258 634.473 685.588 634.187C688.358 635.344 688.568 635.166 690.518 637.35C691.618 645.993 685.148 649.715 678.898 644.741C669.768 647.398 675.378 648.858 671.098 653.523C662.838 657.401 660.618 657.721 653.958 650.867Z" fill="#DED2C0"/>
<path d="M678.898 644.741L677.748 643.055C674.618 642.961 674.468 643.19 671.698 641.902C673.788 638.674 675.928 637.834 679.798 637.913C680.788 639.199 681.238 639.831 682.128 641.243L682.858 642.447C685.688 643.113 684.628 643.458 686.528 642.416C685.338 640.144 684.978 639.914 684.728 637.419C687.328 636.169 687.048 636.726 690.518 637.35C691.618 645.993 685.148 649.715 678.898 644.741Z" fill="#A47465"/>
<path d="M653.958 650.867C656.958 647.722 655.738 648.156 659.468 647.065C661.878 648.958 661.818 649.233 663.498 651.884C666.578 650.876 665.068 648.575 669.358 646.844C672.168 648.546 671.678 650.6 671.098 653.523C662.838 657.401 660.618 657.721 653.958 650.867Z" fill="#B5604A"/>
<path d="M544.528 561.394C545.778 561.32 547.028 561.593 548.268 561.765L548.658 563.164C542.078 571.386 507.488 583.52 496.338 586.862L492.598 586.713L491.708 585.745L492.368 583.951C503.198 575.343 530.708 566.842 544.528 561.394Z" fill="#B5604A"/>
<path d="M527.718 555.41C529.428 555.164 530.378 555.362 532.048 555.692L532.168 557.175C523.648 565.317 494.618 574.719 482.908 579.268C480.818 579.463 479.828 579.387 477.928 578.505L477.698 576.445C485.268 568.561 516.548 559.407 527.718 555.41Z" fill="#B5604A"/>
<path d="M598.238 538.245L601.588 539.041L602.138 540.606C597.248 547.355 565.708 558.492 556.728 562.417C554.328 562.615 554.328 563.123 552.358 561.499L552.938 559.38C562.818 550.098 585.238 543.394 598.238 538.245Z" fill="#B5604A"/>
<path d="M585.328 531.304L587.908 532.688L587.838 534.498C579.338 542.725 554.558 549.678 542.788 553.405L540.598 552.37L540.138 550.807C545.328 543.993 576.138 534.736 585.328 531.304Z" fill="#B5604A"/>
<path d="M564.558 585.267C565.758 585.157 566.938 585.378 568.128 585.507L568.438 587.028C561.658 593.867 535.918 602.335 525.748 606.479L522.928 606.499L522.218 605.226C528.658 598.517 554.658 589.478 564.558 585.267Z" fill="#13120E"/>
<path d="M556.398 577.305L558.548 577.363L559.488 578.409C554.698 584.624 523.218 595.626 514.398 599.053C512.068 599.053 513.058 599.441 511.368 597.984C516.918 590.768 546.988 581.062 556.398 577.305Z" fill="#171614"/>
<path d="M738.398 611.281C739.698 611.244 740.738 611.555 742.008 611.86L742.038 613.158C735.098 620.154 721.308 624.478 712.208 628.465L709.228 628.721L708.018 627.527C708.128 627.238 708.208 626.929 708.358 626.66C711.408 621.329 732.498 613.632 738.398 611.281Z" fill="#B5604A"/>
<path d="M606.168 553.811C606.788 554.051 607.428 554.242 608.018 554.533C613.418 557.17 616.058 569.813 617.678 575.059L606.858 569.531C603.328 567.2 598.858 564.832 596.288 561.461C599.348 561.151 602.278 560.716 605.298 560.094C607.138 557.761 606.448 556.694 606.168 553.811Z" fill="#13120E"/>
<path d="M754.238 616.225C755.808 617 755.038 616.415 756.328 618.268C751.448 624.637 736.018 630.004 728.468 633.568C726.348 632.958 727.258 633.532 725.758 631.769C728.308 625.728 748.298 618.812 754.238 616.225Z" fill="#A47465"/>
<path d="M589.768 560.834L591.768 561.621C594.158 564.042 594.748 567.549 595.698 570.725C598.578 572.538 602.468 574.243 603.708 577.427L602.098 578.351C600.008 577.308 599.088 576.807 596.708 576.663C596.648 578.518 596.328 580.127 595.898 581.93C594.948 581.018 594.388 580.253 593.788 579.078C591.708 575.008 590.538 573.073 586.358 570.873C584.718 570.015 583.348 569.266 581.908 568.081C584.478 567.669 587.048 567.606 589.638 567.494L589.768 560.834Z" fill="#13120E"/>
<path d="M614.578 549.818C620.428 550.768 627.578 561.516 630.568 561.348C633.358 561.191 633.378 560.019 636.528 560.577L637.438 562.381C635.948 564.729 633.908 565.258 631.478 566.502C628.338 567.638 625.878 569.168 622.568 568.518L622.008 566.924L625.388 564.398C625.688 562.301 616.378 553.157 614.578 549.818Z" fill="#13120E"/>
<path d="M700.728 647.719C702.018 647.072 702.968 647.22 704.378 647.714C706.898 648.598 707.508 649.066 708.478 651.35C706.798 654.677 704.618 654.783 701.248 656.191C699.438 656.556 699.918 656.64 698.048 656.268C694.968 655.655 693.348 654.89 691.688 652.344L692.298 650.036C694.818 647.866 697.578 647.981 700.728 647.719Z" fill="#B5604A"/>
<path d="M675.878 656.064C677.118 656.841 677.348 657.252 678.108 658.458L676.128 661.498C677.998 663.308 681.758 659.153 685.008 659.927C685.718 662.463 685.148 663.692 684.538 666.218C680.878 667.663 677.108 667.947 673.528 665.999C671.018 664.633 670.848 664.028 670.038 661.487C671.468 658.376 673.038 657.879 675.878 656.064Z" fill="#B5604A"/>
<path d="M344.848 553.093L346.548 554.196C348.468 552.622 347.648 553.574 348.948 551.292C351.868 552.753 351.708 553.312 353.788 556.166L354.068 557.969C352.018 558.777 353.038 558.758 351.008 558.093C345.718 554.077 344.498 556.192 338.658 559.25C337.338 557.426 334.348 554.173 332.768 552.344C337.448 554.052 340.488 556.292 344.848 553.093Z" fill="#F2F1E8"/>
</svg>
