<svg width="737" height="1024" viewBox="0 0 737 1024" fill="none" xmlns="http://www.w3.org/2000/svg">
<g clip-path="url(#clip0_54_3799)">
<path d="M636.775 0H674.345C683.89 4.84064 697.565 8.3072 704.37 16.9605C715.145 30.6566 712.25 53.1445 711.535 69.1925C710.94 81.5175 710.815 93.86 711.16 106.195C712.24 142.795 718.565 181.554 718.94 218.018C719.415 263.676 715.54 309.173 716.59 355.158C717.34 398.624 724.275 441.811 725.395 485.243C726.23 527.745 721.345 568.305 722.605 611.025C723.22 631.77 730.135 684.125 712.49 698.675C695.325 710.355 668.48 715.34 648.2 710.105C614.945 701.515 581.04 702.38 546.99 699C531.81 697.49 516.285 696.575 500.975 694.85C507.945 715.455 517.24 732.7 519.43 755.005C524.255 804.16 479.817 806.16 445.279 819.845C440.206 821.855 424.365 829.445 420.819 825.615C419.404 818.645 435.815 813.975 440.819 811.865C459.241 804.11 479.123 798.2 496.598 788.425C503.945 784.315 507.2 777.51 508.32 769.525C511.875 750.05 503.06 732.38 497.612 714.245C495.699 707.835 494.196 700.755 492.654 694.1C489.47 693.64 486.09 693.525 482.866 693.345C498.304 752.28 526.44 782.725 446.298 802.205C439.98 803.74 416.679 815.385 411.917 807.915C410.823 794.425 475.792 788.605 488.146 770.03C497.072 756.61 477.529 708.615 474.305 692.255C466.437 691.815 458.074 690.765 450.168 690.02C411.363 686.38 370.247 682.8 332.118 675.155C340.006 693.15 351.439 724.135 347.376 743.84C345.988 750.5 342.182 756.415 336.693 760.44C313.93 776.935 260.049 774.105 235.851 789.725C251.037 799.505 303.416 803.37 323.618 807.85C342.45 812.045 360.6 817.91 379.602 821.435C386.791 822.77 405.101 819.16 408.68 823.845C408.778 825.045 408.869 825.465 408.224 826.545C406.996 828.605 403.842 829.81 401.57 830.275C395.071 831.595 386.899 831.285 380.418 830.29C364.072 827.77 348.302 821.36 332.118 817.795C322.995 815.79 313.624 814.095 304.384 812.715C286.553 810.055 245.859 806.43 231.698 797.145C229.57 795.75 227.776 794.03 227.326 791.42C222.832 765.325 320.622 768.025 335.737 747.22C344.963 734.52 334.943 705.95 331.665 691.995C330.338 686.345 329.594 680.5 328.726 674.76C323.653 673.435 318.167 672.76 312.959 671.855L283.894 666.74C265.416 663.455 246.244 659.475 227.674 656.945C201.096 653.325 173.728 653.41 147.261 648.76C134.291 646.48 121.269 644.515 108.198 642.925C78.4297 638.87 34.1204 645.4 21.3789 609.89C17.1965 594.415 18.1421 575.435 18.9248 559.485C20.8833 519.575 20.5883 480.979 18.9284 441.102C17.4312 405.13 21.9234 368.473 21.5283 332.16C20.8711 271.754 14.1572 211.436 18.8778 151.122C19.9785 137.733 17.6125 101.888 34.2294 95.679C44.1421 91.975 60.8837 91.0515 71.7657 88.669C92.2397 84.1865 112.46 78.7335 133.045 74.787C163.885 69.1405 195.001 66.864 226.031 62.697C246.214 59.987 266.463 56.6285 286.572 53.711L432.562 32.6882C467.282 27.8475 502.69 25.5727 537.35 19.8309C561.355 15.8533 585.415 11.1279 609.11 5.5807C617.93 3.51494 627.63 2.53659 636.255 0.147011L636.775 0ZM28.9027 557.995C26.386 561.885 27.07 595.27 28.71 601.37C30.2032 606.925 30.319 607.85 33.1566 612.985C38.8099 620.355 46.244 625.48 55.5212 627.275C55.6407 627.295 55.7627 627.3 55.8832 627.315C66.1512 630.89 94.5557 631.27 106.859 632.485C113.467 633.14 120.147 633.755 126.71 634.77C136.822 636.33 146.749 638.42 156.951 639.47C181.614 642.01 206.529 642.8 231.117 645.675C248.192 647.67 265.27 650.705 282.233 653.495C317.477 659.29 352.532 665.555 388.006 669.865C397.206 670.985 406.452 671.46 415.678 672.28L476.929 677.595C502.075 679.785 527.115 683.05 552.32 684.65C570.4 685.795 588.525 685.3 606.605 686.6C621.185 687.65 635.42 691.25 649.78 693.835C655.2 694.815 660.875 696.165 666.4 696.255C671.115 696.335 676.11 695.065 679.565 691.7C693.035 678.595 687.54 634.83 687.105 616.875C686.805 604.58 687.1 592.22 687.155 579.915L687.195 567.88C684.75 569.175 682.47 570.225 679.81 570.985C680.315 570.49 685.955 567.225 687.29 566.335L687.515 554.805C687.705 523.035 686.365 493.438 684.93 461.745C682.905 417.082 683.2 372.007 681.655 327.301C681.38 313.582 682.405 295.567 682.97 281.648C684.06 254.667 685.59 228.165 686.095 201.118C686.705 176.098 686.545 151.064 685.6 126.054C684.455 99.377 680.925 72.2985 682.455 45.4783C683.465 27.8304 682.835 8.0362 659.14 8.5568C635.1 9.906 610.48 16.2358 586.895 20.9503C565.75 25.1046 544.28 28.7681 523 32.0659C486.68 37.6938 450.051 39.7526 413.601 44.4398L284.192 61.8075C273.728 63.275 263.249 64.78 252.807 66.273C191.476 75.042 130.252 77.9875 70.1732 94.888C58.3012 98.2275 38.0572 94.707 29.6041 106.793C23.1593 118.206 23.6298 144.569 23.3906 157.743C22.8308 179.19 22.909 200.651 23.6253 222.094C24.6036 250.006 27.737 277.766 28.5801 305.734C29.4688 335.211 27.9595 364.586 27.5124 394.039C26.7495 427.174 27.3293 460.326 29.2504 493.414C29.6363 501.24 29.4224 509.95 29.4083 517.325C29.3958 523.915 27.0323 552.925 28.5234 556.455L28.6671 556.07C28.8697 557 28.9824 557.09 28.9027 557.995ZM701.62 521.435C701.865 523.885 702.515 526.585 705.525 526.745C710.435 523.56 705.085 516.525 714.84 512.71C715.23 507.995 715.485 504.475 715.45 499.737C715.155 501.69 715.445 502.305 714.215 503.28C712.21 503.21 709.245 502.77 707.565 504.43C702.175 509.765 705.09 515.59 703.235 521.575C702.85 521.605 702.465 521.635 702.08 521.66L701.62 521.435ZM694.6 698.18C697.975 698.46 703.005 694.645 705.465 692.56C706.87 691.365 708.815 689.63 709.57 687.925C712.81 680.575 714.39 667.425 714.985 659.305C715.815 648.005 714.59 636.57 714.035 625.28C713.525 612.855 713.275 600.42 713.275 587.985C713.36 572.045 713.73 556.105 714.38 540.175C714.65 532.04 715.95 522.375 714.685 514.365C712.97 515.09 711.495 516.055 710.7 517.82C709.12 521.335 710.47 527.08 705.925 528.74C704.69 529.195 703.27 529.37 701.975 529.59C701.435 539.545 701.745 549.6 701.565 559.575C701.275 575.195 700.67 590.86 700.97 606.48C701.465 632.205 705.69 657.815 699.56 683.31C698.32 688.465 696.165 693.155 694.6 698.18Z" fill="#161614"/>
<path d="M28.9029 557.995C28.9827 557.09 28.87 557 28.6674 556.07L28.5236 556.455C27.0325 552.925 29.396 523.915 29.4086 517.325C29.4226 509.95 29.6365 501.24 29.2507 493.415C27.3296 460.326 26.7498 427.174 27.5126 394.039C27.9597 364.586 29.469 335.211 28.5804 305.734C27.7372 277.766 24.6039 250.006 23.6255 222.094C22.9093 200.651 22.831 179.191 23.3909 157.743C23.63 144.569 23.1595 118.206 29.6043 106.793C38.0575 94.7071 58.3015 98.2276 70.1735 94.8881C130.252 77.9876 191.476 75.0421 252.807 66.2731C263.249 64.7801 273.728 63.2751 284.192 61.8076L413.601 44.44C450.051 39.7528 486.68 37.6939 523 32.0661C544.28 28.7682 565.75 25.1047 586.895 20.9504C610.48 16.2359 635.1 9.90613 659.14 8.55693C682.835 8.03633 683.465 27.8306 682.455 45.4784C680.925 72.2986 684.455 99.3771 685.6 126.055C686.545 151.065 686.705 176.098 686.095 201.119C685.59 228.165 684.06 254.667 682.97 281.648C682.405 295.567 681.38 313.582 681.655 327.301C683.2 372.007 682.905 417.082 684.93 461.745C686.365 493.438 687.705 523.035 687.515 554.805C684.91 553.045 683.96 552.9 680.765 553.54C679.235 553.865 677.705 554.21 676.185 554.585C676.095 557.695 675.61 568.175 676.08 570.66C675.845 573.665 675.545 576.665 675.18 579.66L674.33 580.29C673.915 579.745 673.445 579.25 672.935 578.795C670.945 577.02 668.93 577.375 666.465 577.535C666.075 600.545 670.915 627.315 667.8 649.57C667.275 653.295 665.89 658.235 662.605 660.51C643.975 673.395 598.615 660.18 577.11 658.08C564.25 656.83 551.37 656.39 538.505 655.33C506.66 652.99 474.904 649.565 443.293 645.065C417.373 641.38 391.364 634.985 365.591 631.05C328.279 625.35 290.953 621.24 253.757 614.565C227.625 609.875 200.167 602.875 174.097 599.295C138.037 594.34 101.035 594.84 65.097 586.755C58.1245 584.895 49.3338 583.765 46.8835 575.755C45.6258 571.645 46.9327 559.89 41.43 559.18C39.3278 560.54 38.5736 565.66 35.8994 565.725L34.4964 563.73C34.6826 566.655 34.7387 569.855 34.8514 572.81C31.2572 569.965 28.4602 570.125 28.9909 564.28C29.1374 562.665 28.9459 559.72 28.9029 557.995ZM564.015 258.358C563.655 260.837 562.86 270.267 564.48 271.97C564.675 272.173 565.055 272.416 565.295 272.579C566.7 269.854 566.035 263.143 565.14 260.251C564.9 259.48 564.685 258.853 564.015 258.358ZM475.298 609.165L475.405 615.23C485.932 616.815 496.424 617.67 506.995 618.82L559.14 624.48C567.695 625.48 576.255 626.425 584.82 627.32C590.265 627.89 596.185 628.905 601.65 628.315C602.83 626.84 602.015 625.065 602.775 623.655C603.425 622.44 604.61 621.645 605.235 620.295C600.755 619.865 596.275 619.49 591.79 619.185C584.025 618.315 576.245 617.705 568.505 616.61C552.235 615.13 535.855 614.63 519.615 612.915C509.27 611.825 498.781 610.565 488.516 608.89C485.863 608.46 483.358 607.455 480.72 607.055C479.924 607.495 478.944 608.165 478.024 608.23C476.935 608.31 476.469 607.675 475.684 607.045L475.298 609.165Z" fill="#161614"/>
<path d="M28.9029 557.995C28.9827 557.09 28.87 557 28.6674 556.07L28.5236 556.455C27.0325 552.925 29.396 523.915 29.4086 517.325C29.4226 509.95 29.6365 501.24 29.2507 493.415C27.3296 460.326 26.7498 427.174 27.5126 394.039C27.9597 364.586 29.469 335.211 28.5804 305.734C27.7372 277.766 24.6039 250.006 23.6255 222.094C22.9093 200.651 22.831 179.191 23.3909 157.743C23.63 144.569 23.1595 118.206 29.6043 106.793C38.0575 94.7071 58.3015 98.2276 70.1735 94.8881C130.252 77.9876 191.476 75.0421 252.807 66.2731C263.249 64.7801 273.728 63.2751 284.192 61.8076L413.601 44.44C450.051 39.7528 486.68 37.6939 523 32.0661C544.28 28.7682 565.75 25.1047 586.895 20.9504C610.48 16.2359 635.1 9.90613 659.14 8.55693C682.835 8.03633 683.465 27.8306 682.455 45.4784C680.925 72.2986 684.455 99.3771 685.6 126.055C686.545 151.065 686.705 176.098 686.095 201.119C685.59 228.165 684.06 254.667 682.97 281.648C682.405 295.567 681.38 313.582 681.655 327.301C683.2 372.007 682.905 417.082 684.93 461.745C686.365 493.438 687.705 523.035 687.515 554.805C684.91 553.045 683.96 552.9 680.765 553.54C679.235 553.865 677.705 554.21 676.185 554.585C676.095 557.695 675.61 568.175 676.08 570.66C675.845 573.665 675.545 576.665 675.18 579.66L674.33 580.29C673.915 579.745 673.445 579.25 672.935 578.795C670.945 577.02 668.93 577.375 666.465 577.535C665.81 550.42 669.125 523.44 669.77 496.31C670.205 478.072 669.355 460.248 669.09 442.039C669.01 428.276 669.16 414.512 669.54 400.753C670.365 357.53 674.96 313.881 673.15 270.569C671.445 229.881 667.02 189.178 665.435 148.474C664.56 128.816 664.215 109.138 664.395 89.4616C664.45 79.3501 668.01 41.6888 657.575 36.5734C647.915 31.8344 626.295 39.1803 614.535 39.9673C495.066 47.9602 377.269 71.3506 258.881 88.1446L141.501 104.592C114.013 108.216 86.324 110.934 59.0605 116.246C53.1025 117.406 47.5899 120.548 46.3826 126.868C43.0762 145.422 45.5064 165.091 46.2661 183.825C48.5768 240.808 42.7938 297.797 42.5835 354.769C42.4835 381.835 43.2764 409.082 43.5303 436.173C43.6078 461.4 43.5175 486.628 43.2592 511.855C43.1832 524.25 43.4947 538.47 43.0667 550.89C43.0021 552.765 37.8888 555.135 36.4896 556.735C35.2815 558.12 34.3312 559.42 33.2535 561.035C33.3797 562.46 33.6276 562.62 34.4964 563.73C34.6826 566.655 34.7387 569.855 34.8514 572.81C31.2572 569.965 28.4602 570.125 28.9909 564.28C29.1374 562.665 28.9459 559.72 28.9029 557.995Z" fill="#F3F3F1"/>
<path d="M466.459 103.268C467.434 105.069 465.105 168.754 465.146 175.84L466.465 614.385C457.9 613.225 449.164 612.955 440.561 612.02L378.066 604.955L202.379 584.695C191.179 583.505 180.02 581.74 168.838 580.355L168.632 347.941C168.986 301.535 169.079 255.126 168.91 208.719C168.964 186.844 169.632 164.904 169.273 143.043C221.59 134.698 274.409 129.764 326.864 122.378C361.495 117.372 396.156 112.575 430.845 107.987C442.67 106.497 454.57 103.984 466.459 103.268Z" fill="#F3F3F1"/>
<path d="M239.335 337.886C234.619 336.838 226.905 336.988 221.912 335.601C220.826 335.394 217.785 334.255 217.595 332.975C212.029 295.346 233.63 255.538 267.215 239.137C295.135 225.504 319.764 223.298 347.444 231.858C356.175 229.913 377.792 238.803 385.81 244.016C404.996 256.491 417.764 273.661 422.89 296.104C424.448 302.925 426.224 321.772 423.283 326.998C423.345 326.246 423.688 323.483 423.47 323.007C423.205 324.606 422.922 326.728 422.579 328.263C422.092 351.124 412.666 372.883 396.322 388.874C392.88 392.215 389.214 395.316 384.449 396.225L383.736 395.91C378.965 399.313 375.564 402.749 371.344 406.2C357.255 417.725 350.885 428.004 347.907 446.254C346.526 454.717 345.215 473.677 347.147 481.603C345.307 484.306 344.965 484.986 342.153 486.798C333.922 487.184 299.88 488.831 295.746 482.546C291.979 482.553 280.102 482.39 277.728 480.506C272.192 476.114 272.661 453.494 272.338 447.19C270.8 417.138 281.801 391.589 304.282 371.677C314.822 361.345 326.977 352.452 335.186 340.03C347.496 321.4 343.628 297.55 324.823 285.499C296.739 294.785 292.705 314.057 288.906 340.36C287.919 347.188 243.029 341.108 239.335 337.886Z" fill="#161614"/>
<path d="M384.449 396.225C385.82 392.622 395.513 382.347 398.612 378.691C411.222 363.813 416.462 348.17 419.793 329.217C420.779 323.61 420.99 317.941 422.013 312.165C422.608 316.952 422.52 323.308 422.58 328.263C422.093 351.124 412.666 372.883 396.323 388.874C392.88 392.215 389.215 395.316 384.449 396.225Z" fill="#170805"/>
<path d="M268.277 333.6C269.389 308.215 282.786 280.207 312.17 281.559C316.151 282.097 321.372 283.403 324.824 285.499C296.74 294.784 292.705 314.056 288.906 340.36C287.92 347.188 243.029 341.108 239.336 337.885C246.649 337.766 260.798 341.133 266.896 337.327C268.096 336.578 268.095 334.891 268.277 333.6Z" fill="#F16024"/>
<path d="M268.277 333.6C269.389 308.215 282.786 280.207 312.17 281.559C289.998 293.217 283.155 311.762 283.481 335.613C281.049 335.424 269.785 334.821 268.476 333.934L268.277 333.6Z" fill="#F88F55"/>
<path d="M262.746 251.621C265.817 249.146 270.352 247.051 273.931 245.311C290.053 237.47 308.603 234.104 326.439 235.884C349.364 238.171 374.642 252.853 385.016 273.999C390.278 282.931 393.874 295.284 394.102 305.646C395.755 313.751 393.538 325.854 391.609 333.594C383.04 367.98 356.236 382.839 332.772 406.168C316.724 422.124 315.741 452.321 317.822 474.548C303.88 474.561 293.158 475.459 279.427 476.693C278.961 468.469 279.217 460.886 279.27 452.684C279.442 426.19 283.128 407.039 301.21 386.666C321.205 364.138 351.825 349.323 350.85 314.669C350.283 302.943 344.034 290.52 335.451 282.671C328.426 276.247 316.946 272.801 307.601 273.519C276.358 275.917 261.249 302.342 262.055 331.593C251.565 330.811 243.353 330.427 232.755 330.525L221.398 330.694C222.294 299.975 236.034 268.312 262.746 251.621Z" fill="#EB3302"/>
<path d="M221.398 330.694C222.294 299.975 236.034 268.312 262.746 251.621C262.177 254.082 254.979 261.164 252.61 263.89C239.156 279.37 228.998 310.455 232.755 330.525L221.398 330.694Z" fill="#F88F55"/>
<path d="M385.015 273.999C390.277 282.931 393.873 295.284 394.101 305.646C392.241 302.517 392.023 294.77 390.904 290.99C389.199 285.233 384.683 280.135 385.015 273.999Z" fill="#F88F55"/>
<path d="M289.788 500.115C288.367 496.992 290.179 494.977 293.233 494.227C302.284 492.005 311.11 493.102 319.272 497.327C322.454 496.997 325.312 496.743 328.523 497.036C354.287 499.384 363.981 531.66 348.031 550.365C337.385 562.855 322.386 565.495 308.017 557.355C286.106 560.615 266.758 544.28 270.155 521.575C271.079 515.4 274.283 507.67 279.351 503.79C282.424 501.32 284.352 498.81 287.933 501.475L288.508 501.575L289.788 500.115Z" fill="#F16024"/>
<path d="M319.273 497.327C322.454 496.997 325.312 496.744 328.524 497.037C354.287 499.384 363.982 531.66 348.032 550.365C337.385 562.855 322.386 565.495 308.018 557.355C313.034 556.23 314.714 555.525 319.113 552.845C336.255 540.1 339.019 521.695 327.129 504.135C324.405 501.875 322.39 499.806 319.273 497.327Z" fill="#F16024"/>
<path d="M327.129 504.135C350.448 509.285 354.476 538.15 335.197 550.81C331.546 553.21 322.844 554.885 319.113 552.845C336.255 540.1 339.019 521.695 327.129 504.135Z" fill="#F88F55"/>
<path d="M289.788 500.115C288.367 496.992 290.179 494.977 293.233 494.227C302.284 492.005 311.11 493.102 319.272 497.327C322.389 499.806 324.405 501.875 327.128 504.135C339.019 521.695 336.255 540.1 319.113 552.845C314.714 555.525 313.034 556.23 308.017 557.355C286.106 560.615 266.758 544.28 270.155 521.575C271.079 515.4 274.283 507.67 279.351 503.79C282.424 501.32 284.352 498.81 287.933 501.475C286.842 502.685 285.719 503.975 284.605 505.15C268.754 522.425 277.139 549.165 301.803 549.64C315.189 549.895 326.469 538.105 325.89 524.85C325.587 517.89 323.66 511.635 318.358 506.755C310.063 498.814 300.395 499.765 289.788 500.115Z" fill="#161614"/>
<path d="M279.352 503.79C282.425 501.32 284.353 498.811 287.933 501.475C286.843 502.685 285.719 503.975 284.605 505.15L279.352 503.79Z" fill="#161614"/>
<path d="M245.436 238.496C245.496 238.58 245.577 238.652 245.616 238.747C245.669 238.878 245.68 239.022 245.708 239.16C245.837 239.79 243.584 241.393 243.01 241.894C237.496 246.702 232.262 251.858 227.825 257.692C215.534 273.854 209.19 292.906 204.729 312.509C204.417 312.029 204.121 311.584 203.93 311.04C201.288 303.526 208.481 282.825 211.988 275.369C218.119 262.338 231.551 243.468 245.436 238.496Z" fill="#161614"/>
<path d="M281.002 381.299L281.586 381.569C281.572 382.003 271.389 401.388 269.979 405.087C265.574 416.643 264.57 428.618 261.687 440.492L260.77 439.795C259.882 436.289 260.344 431.83 260.543 428.226C261.4 412.688 269.077 391.968 281.002 381.299Z" fill="#161614"/>
<path d="M258.553 517.78C260.589 519.425 260.462 527.455 260.991 530.36C262.974 541.25 266.265 545.555 272.759 554.015C274.227 555.925 276.069 557.945 276.828 560.25L276.282 561.015C276.197 560.985 276.112 560.96 276.027 560.93C275.489 560.765 274.979 560.59 274.46 560.365C267.776 557.48 262.09 548.45 259.631 541.93C256.929 534.765 255.233 525 258.553 517.78Z" fill="#210806"/>
<path d="M214.158 251.848L214.999 252.106C215.694 254.35 210.24 260.518 208.996 262.736C204.971 269.915 201.57 277.797 199.638 285.808C199.017 285.697 198.943 285.475 198.505 285.046C198.408 284.493 198.34 283.931 198.36 283.369C198.74 272.776 206.563 258.966 214.158 251.848Z" fill="#161614"/>
<path d="M423.681 363.81C426.029 363.854 425.1 363.594 427.35 365.543C424.866 371.089 421.366 377.481 417.395 382.074C416.857 381.071 415.548 379.511 414.802 378.55C417.696 373.5 420.678 369.262 423.681 363.81Z" fill="#210806"/>
<path d="M249.947 535.73C250.411 536.045 250.745 536.245 251.038 536.74C252.398 539.04 253.102 542.34 254.294 544.88C256.101 548.725 259.233 552.915 260.061 557.05C258.899 556.675 257.875 556.155 256.977 555.32C251.829 550.51 250.032 542.485 249.947 535.73Z" fill="#161614"/>
<path d="M423.681 363.809C427.028 357.064 428.706 350.392 431.699 344.085C431.285 352.153 430.107 357.827 427.35 365.543C425.099 363.594 426.029 363.853 423.681 363.809Z" fill="#161614"/>
<path d="M414.801 378.55C415.548 379.511 416.856 381.07 417.395 382.074C415.127 384.985 411.425 388.027 408.502 390.249C410.246 384.78 411.402 383.116 414.801 378.55Z" fill="#161614"/>
<path d="M470.163 102.618C482.45 101.704 494.609 99.3342 506.82 97.7592L585.54 87.3867L627.175 82.0276C633.835 81.1841 640.805 80.7947 647.36 79.3477C649.345 91.4097 647.755 112.421 647.81 125.436L648.64 226.368C649.83 294.155 650.255 361.953 649.905 429.75L648.57 526.02C648.29 544.82 648.46 563.63 649.085 582.425C649.62 598.96 650.945 616.05 649.85 632.565C634.15 631.615 618.465 630.36 602.815 628.79C603.865 626.145 605.94 622.82 606.425 620.1C606.065 620.01 605.59 620.21 605.235 620.295C600.755 619.865 596.275 619.49 591.79 619.185C584.025 618.315 576.245 617.705 568.505 616.61C552.235 615.13 535.855 614.63 519.615 612.915C509.27 611.825 498.781 610.565 488.516 608.89C485.863 608.46 483.358 607.455 480.72 607.055C479.924 607.495 478.944 608.165 478.024 608.23C476.935 608.31 476.469 607.675 475.684 607.045L475.298 609.165C475.052 611.28 475.11 613.365 475.158 615.49C473.567 615.205 471.921 615.215 470.686 614.15C471.405 597.875 470.59 581.81 470.684 565.55C471.133 529.43 471.262 493.309 471.07 457.187L471.522 339.394C472.042 311.996 472.314 284.594 472.338 257.19L470.947 134.242C470.842 123.704 469.999 113.161 470.163 102.618ZM565.295 272.579C566.7 269.854 566.035 263.143 565.14 260.251C564.9 259.48 564.685 258.853 564.015 258.358C563.655 260.837 562.86 270.267 564.48 271.97C564.675 272.173 565.055 272.416 565.295 272.579Z" fill="#F3F3F1"/>
<path d="M484.008 570.5C490.238 569.075 528.035 573.55 537.42 574.215C556.21 575.545 575.465 576.65 594.31 576.39C602.28 576.645 610.225 577.29 618.13 578.335C624.25 579.165 630.585 580.595 636.745 580.76C639.51 592.945 638.515 604.585 636.81 616.845C628.435 617.475 620.465 617.205 612.1 616.675C608.045 616.42 603.81 615.87 599.76 615.94C596.62 615.99 595.1 615.775 592.815 618.095C592.47 618.455 592.125 618.815 591.79 619.185C584.025 618.315 576.245 617.705 568.505 616.61C552.235 615.13 535.855 614.63 519.615 612.915C509.27 611.825 498.781 610.565 488.516 608.89C485.863 608.46 483.358 607.455 480.72 607.055C479.924 607.495 478.944 608.165 478.024 608.23C476.935 608.31 476.469 607.675 475.684 607.045C475.95 606.645 475.753 606.855 476.391 606.545C477.39 606.7 478.067 606.565 478.941 606.075C479.416 605.81 480.389 604.925 480.56 604.39C481.355 601.9 480.035 596.79 479.867 594.04C479.489 587.83 479.34 579.655 481.099 573.68C481.599 571.98 482.077 571.33 483.57 570.49L484.008 570.5Z" fill="#E43507"/>
<path d="M475.684 607.045C475.95 606.645 475.753 606.855 476.391 606.545C477.39 606.7 478.067 606.565 478.941 606.075C479.416 605.81 480.389 604.925 480.56 604.39C481.355 601.9 480.035 596.79 479.867 594.04C479.489 587.83 479.34 579.655 481.099 573.68C481.599 571.98 482.077 571.33 483.57 570.49L484.008 570.5C483.177 582.365 483.007 594.015 484.177 605.865C490.233 606.555 496.322 606.715 502.385 607.3C512.48 608.275 522.565 609.59 532.68 610.31C543 611.04 553.36 611.335 563.66 612.38C564.355 612.83 565.025 613.255 565.77 613.625C564.86 614.45 563.75 614.785 562.625 615.22C562.745 615.21 562.865 615.2 562.985 615.19C564.905 615.07 566.835 615.35 568.645 616.005L568.505 616.61C552.235 615.13 535.855 614.63 519.615 612.915C509.27 611.825 498.781 610.565 488.516 608.89C485.863 608.46 483.358 607.455 480.72 607.055C479.924 607.495 478.944 608.165 478.024 608.23C476.935 608.31 476.469 607.675 475.684 607.045Z" fill="#161614"/>
<path d="M563.66 612.38C571.72 613.1 579.775 613.895 587.825 614.755C591.73 615.15 595.935 615.185 599.76 615.94C596.62 615.99 595.1 615.775 592.815 618.095C592.47 618.455 592.125 618.815 591.79 619.185C584.025 618.315 576.245 617.705 568.505 616.61L568.645 616.005C566.835 615.35 564.905 615.07 562.985 615.19C562.865 615.2 562.745 615.21 562.625 615.22C563.75 614.785 564.86 614.45 565.77 613.625C565.025 613.255 564.355 612.83 563.66 612.38Z" fill="#210806"/>
<path d="M605.52 573.525C611.825 574.02 635.545 575.29 639.015 579.455C643.975 585.405 642.345 604.16 641.335 611.745C640.965 614.53 640.455 617.295 640.105 620.08C632.22 621.715 614.055 622.11 606.425 620.1C606.065 620.01 605.59 620.21 605.235 620.295C600.755 619.865 596.275 619.49 591.79 619.185C592.125 618.815 592.47 618.455 592.815 618.095C595.1 615.775 596.62 615.99 599.76 615.94C603.81 615.87 608.045 616.42 612.1 616.675C620.465 617.205 628.435 617.475 636.81 616.845C638.515 604.585 639.51 592.945 636.745 580.76C630.585 580.595 624.25 579.165 618.13 578.335C610.225 577.29 602.28 576.645 594.31 576.39C593.345 576.1 592.38 575.82 591.41 575.555C595.78 575.35 601.665 574.385 605.815 575.94C606.29 576.12 606.72 576.315 607.22 576.405C608.895 576.715 611.51 576.475 612.92 575.535C612.055 574.51 607.595 574.5 606.11 574.355L605.52 573.525Z" fill="#161614"/>
<path d="M483.57 570.49L483.827 568.895C485.513 568.04 487.368 567.92 489.225 567.905C510.81 567.745 532.22 570.4 553.735 571.405C570.56 572.19 589.005 571.185 605.52 573.525L606.11 574.355C607.595 574.5 612.055 574.51 612.92 575.535C611.51 576.475 608.895 576.715 607.22 576.405C606.72 576.315 606.29 576.12 605.815 575.94C601.665 574.385 595.78 575.35 591.41 575.555C592.38 575.82 593.345 576.1 594.31 576.39C575.465 576.65 556.21 575.545 537.42 574.215C528.035 573.55 490.239 569.075 484.008 570.5L483.57 570.49Z" fill="#150808"/>
<path d="M520.99 237.451C521.105 232.057 521.255 226.772 522.52 221.485C529.4 192.827 557.35 182.453 584.16 188.95C596.555 192.935 604.87 199.16 611.02 211.024C611.265 211.499 611.505 211.978 611.735 212.46C616.55 221.617 616.82 228.288 617.575 238.329C622.72 241.677 628.76 256.992 624.305 262.516C622.095 265.256 620.985 268.087 620.025 271.537C610.745 277.138 613.75 278.533 606.6 285.825C603.68 288.805 597.72 290.107 594.02 292.793C589.73 295.91 586.525 301.009 581.91 303.363C577.985 305.363 570.845 308.315 566.49 307.037L566.13 306.3C567.63 305.169 571.095 304.353 573.04 303.756C580.365 301.505 583.47 298.624 588.66 293.442C578.955 293.314 582.575 295.127 573.83 297.346C571.47 297.944 566.44 297.256 564.375 295.472C563.37 294.622 562.8 293.368 562.82 292.053C562.96 284.218 575.715 283.838 580.92 289.509L581.3 289.926C583.11 289.81 588.985 289.611 590.22 288.893C595.57 285.784 597.79 275.724 599.035 270.21C600.56 263.453 599.56 254.433 596.78 248.315C593.545 248.191 590.32 247.876 587.125 247.369C571.93 245.103 564.5 239.042 555.755 227.252C551.47 239.007 546.04 240.533 538.07 248.485C535.805 250.743 536.04 261.88 536.6 265.334C540.14 287.089 545.07 291.077 560.04 303.15L559.36 303.77C557.05 303.87 554.78 303.382 552.895 302.044C539.92 292.819 536.45 279.958 533.275 265.808C533.285 268.29 533.895 274.019 531.345 275.28C519.78 280.991 509.69 260.499 512.465 251.462C514.3 245.501 515.465 240.739 520.99 237.451Z" fill="#161614"/>
<path d="M584.16 188.95C596.555 192.936 604.87 199.16 611.02 211.024C611.265 211.499 611.505 211.978 611.735 212.461C611.28 213.733 610.81 215.001 610.335 216.267C612.405 220.662 615.94 232.395 613.565 236.892C612.28 236.793 611.755 235.073 611.63 233.928C609.105 211.267 593.65 194.578 570.03 194.317C551.885 194.116 535.25 202.454 528.515 220.265C527.315 223.437 525.495 234.898 523.59 236.75C522.48 234.813 523.11 230.624 523.38 228.463C526.985 199.214 552.92 186.544 580.46 191.317C581.475 190.475 583 189.642 584.16 188.95Z" fill="#E43507"/>
<path d="M584.16 188.95C596.555 192.936 604.87 199.16 611.02 211.024C611.265 211.499 611.505 211.978 611.735 212.461C611.28 213.733 610.81 215.001 610.335 216.267C603.115 202.339 595.98 194.87 580.46 191.317C581.475 190.475 583 189.642 584.16 188.95Z" fill="#210806"/>
<path d="M566 206.079C568.745 205.805 571.515 205.842 574.25 206.187C583.395 207.432 591.65 211.473 597.27 218.933C607.04 231.907 605.35 242.002 603.235 256.668C601.99 252.301 600.31 248.379 598 244.468C597.575 244.552 597.145 244.617 596.715 244.661C584.735 245.868 573.43 240.603 564.405 233.201C560.575 229.565 557.44 225.211 554.285 220.997C553.395 236.61 542.265 237.689 535.825 247.084C534.665 248.779 534.015 251.424 533.36 253.385C533.085 250.703 532.43 248.077 532.145 245.395C531.265 237.13 533.545 225.91 538.89 219.368C542.635 214.781 547.205 213.056 552.955 212.491C556.86 208.942 560.905 207.298 566 206.079Z" fill="#F3F3F1"/>
<path d="M566.02 197.201C577.04 196.883 587.53 199.309 595.87 206.899C604.99 215.204 608.55 226.775 609.085 238.769C605.06 230.018 604.815 222.495 597.965 214.659C590.93 206.609 581.645 203.664 571.23 202.952C569.49 203.043 567.745 203.152 566.025 203.476C560.915 204.44 556.72 206.952 552.075 209.089C543.185 213.176 536.1 214.774 532.445 224.861C531.2 228.286 531.09 233.781 529.175 236.623L528.25 236.544C528.005 236.116 527.77 235.841 527.73 235.34C527.12 227.578 532.36 216.545 537.19 210.796C544.725 201.819 554.655 198.153 566.02 197.201Z" fill="#F3F3F1"/>
<path d="M519.655 241.768C522.24 240.135 524.16 238.565 527.23 239.055C530.83 241.956 530.675 267.687 530.14 273.113C527.05 272.716 525.435 272.531 522.575 271.242C521.25 270.599 519.725 269.578 519.445 268.137C518.17 261.605 515.945 247.179 519.655 241.768Z" fill="#E43507"/>
<path d="M522.575 271.243C521.25 270.599 519.725 269.579 519.445 268.138C518.17 261.606 515.945 247.18 519.655 241.768C520.49 250.138 518.42 265.648 522.575 271.243Z" fill="#E43507"/>
<path d="M608.69 238.392C611.5 239.001 615.55 239.855 617.625 241.961C620.55 244.934 618.79 257.247 618.525 261.41C618.285 265.174 618.34 268.249 615.325 270.907C612.37 272.151 609.63 272.456 606.455 272.655C606.46 261.032 607.055 249.909 608.69 238.392Z" fill="#E43507"/>
<path d="M602.91 269.087C603.265 271.356 603.35 273.431 604.99 275.153C606.73 276.002 608.31 275.772 610.185 275.667C608.015 279.547 606.04 281.762 602.435 284.39C600.555 285.529 598.555 286.468 596.59 287.451C599.46 281.623 601.1 275.299 602.91 269.087Z" fill="#F3F3F1"/>
<path d="M570.785 288.675C571.925 288.679 573.105 288.661 574.24 288.826C575.53 289.015 576.92 289.637 577.655 290.768C578.18 291.574 578 291.806 577.78 292.681C576.565 293.867 575.58 294.143 573.955 294.561C572.215 294.56 569.735 294.796 568.14 294.065C566.715 293.413 565.93 292.623 565.415 291.199L566.06 290.04C567.5 288.944 569.045 288.899 570.785 288.675Z" fill="#E43507"/>
<path d="M621.57 250.702L622.685 251.531C624.105 254.727 623.145 257.635 622.46 260.903L621.95 261.389C620.47 259.238 621.425 253.394 621.57 250.702Z" fill="#A91101"/>
<path d="M514.07 254.346L514.66 254.822C515.4 256.669 515.475 258.189 515.5 260.137C515.39 260.04 515.265 259.957 515.165 259.847C513.85 258.374 514.01 256.183 514.07 254.346Z" fill="#3C3736"/>
<path d="M491.138 289.115C485.847 279.395 481.267 262.86 491.175 254.305C493.883 251.927 497.449 250.763 501.04 251.085C503.05 252.899 503.345 253.184 504.705 255.543C506.855 258.801 513.425 268.827 512.3 272.238C510.87 276.557 503.335 278.387 507.765 285.731C512.26 293.174 520.09 301.851 527.84 305.821C532.13 302.567 535.3 297.781 540.98 300.164C545.395 303.319 550.035 306.439 554.005 310.106C562.735 320.864 545.77 328.733 536.07 327.461C531.54 326.859 527.205 325.238 523.395 322.72C522.73 322.455 519.615 320.449 518.815 319.952C506.09 310.176 498.981 303.397 491.138 289.115Z" fill="#E43507"/>
<path d="M501.04 251.085C503.05 252.898 503.345 253.184 504.705 255.542C506.855 258.801 513.425 268.826 512.3 272.238C510.87 276.556 503.335 278.387 507.765 285.73C512.26 293.173 520.09 301.851 527.84 305.821C532.13 302.566 535.3 297.78 540.98 300.164C539.425 301.427 538.765 302.158 536.745 302.537L535.24 303.903C535.72 305.286 535.68 304.922 536.985 306.015L536.17 307.07C531.645 303.33 531.445 309.285 526.69 307.974C518.345 305.673 499.351 287.038 503.99 277.452C504.56 276.274 505.595 275.781 505.93 273.669L506.215 273.11C503.495 267.351 499.363 260.43 496.157 254.839L499.062 253.122C499.546 252.812 500.59 251.578 501.04 251.085Z" fill="#161614"/>
<path d="M501.04 251.085C503.05 252.898 503.345 253.184 504.705 255.542C504.24 256.61 503.755 257.671 503.345 258.761C505.205 262.088 508.93 268.088 509.08 271.713C508.12 273.351 508.795 272.806 506.96 273.375L506.215 273.11C503.495 267.351 499.363 260.43 496.157 254.839L499.062 253.122C499.546 252.812 500.59 251.578 501.04 251.085Z" fill="#E43507"/>
<path d="M501.04 251.085C503.05 252.898 503.345 253.184 504.705 255.542C504.24 256.61 503.755 257.671 503.345 258.761C502.22 256.758 500.921 254.456 499.062 253.122C499.546 252.812 500.59 251.578 501.04 251.085Z" fill="#210806"/>
<path d="M540.979 300.164C545.394 303.319 550.035 306.439 554.005 310.106C562.735 320.864 545.77 328.733 536.07 327.461C531.54 326.859 527.205 325.238 523.395 322.72C525.285 322.071 525.98 322.197 527.995 321.197C537.575 326.076 543.48 326.262 551.56 319.065C546.355 314.943 541.314 311.498 536.169 307.07L536.984 306.015C535.679 304.922 535.72 305.286 535.24 303.904L536.745 302.537C538.765 302.159 539.424 301.427 540.979 300.164Z" fill="#050001"/>
<path d="M540.98 300.164C545.395 303.319 550.035 306.439 554.005 310.106L553.04 313.808C553.605 314.931 553.515 314.889 553.385 316.161L552.725 316.589C549.405 315.808 540.285 308.497 536.985 306.015C535.68 304.922 535.72 305.286 535.24 303.904L536.745 302.537C538.765 302.159 539.425 301.427 540.98 300.164Z" fill="#E43507"/>
<path d="M540.98 300.164C545.395 303.319 550.035 306.439 554.005 310.106L553.04 313.808C549.295 310.227 541.685 303.399 536.745 302.537C538.765 302.159 539.425 301.427 540.98 300.164Z" fill="#210806"/>
<path d="M492.695 284.521C502.065 301.251 507.96 307.27 523.495 318.749C520.765 318.266 520.91 318.006 518.815 319.952C506.09 310.176 498.981 303.396 491.138 289.115C491.451 286.912 491.729 286.464 492.695 284.521Z" fill="#210806"/>
<path d="M491.138 289.115C485.847 279.395 481.267 262.86 491.175 254.305C493.883 251.927 497.449 250.763 501.04 251.085C500.59 251.579 499.546 252.812 499.062 253.123L496.157 254.84C495.474 255.285 495.541 255.357 494.794 255.536C484.94 264.72 487.965 273.467 492.695 284.521C491.728 286.465 491.451 286.913 491.138 289.115Z" fill="#161614"/>
<path d="M494.794 255.536C495.541 255.357 495.473 255.285 496.157 254.839C499.363 260.43 503.495 267.351 506.215 273.11L505.93 273.669C501.945 269.674 497.959 260.807 494.794 255.536Z" fill="#210806"/>
<path d="M518.815 319.952C520.91 318.007 520.765 318.266 523.495 318.749C525.04 319.558 526.485 320.314 527.995 321.197C525.98 322.197 525.285 322.071 523.395 322.72C522.73 322.455 519.615 320.449 518.815 319.952Z" fill="#210806"/>
<path d="M554.89 384.286C554.99 381.098 554.64 376.015 556.62 373.806C559.96 372.558 571.98 371.719 572.305 376.321C572.875 384.372 574.62 399.362 573.115 406.961C572.915 413.371 572.885 419.786 573.025 426.197C573.14 431.728 573.605 437.566 572.94 443.018C569.95 443.849 560.29 443.797 557.09 443.091L555.77 443.043C555.41 423.633 554.17 403.564 554.89 384.286Z" fill="#E43507"/>
<path d="M554.89 384.286C556.02 381.03 555.96 376.428 557.355 374.705L558.025 375.234C555.775 391.126 558.435 412.296 557.625 428.643C557.405 433.108 557.76 438.683 557.09 443.092L555.77 443.044C555.41 423.633 554.17 403.564 554.89 384.286Z" fill="#B10D00"/>
<path d="M554.89 384.286C554.99 381.098 554.64 376.015 556.62 373.806C559.96 372.558 571.98 371.719 572.305 376.321C572.875 384.372 574.62 399.362 573.115 406.961C572.46 407.934 571.765 408.72 571.49 409.807C569.56 398.602 571.655 385.736 569.855 375.339C565.765 375.398 562.12 375.46 558.025 375.233L557.355 374.705C555.96 376.428 556.02 381.029 554.89 384.286Z" fill="#A91101"/>
<path d="M571.49 409.807C571.765 408.72 572.46 407.934 573.115 406.961C572.915 413.371 572.885 419.786 573.025 426.197C573.14 431.728 573.605 437.566 572.94 443.018C569.95 443.849 560.29 443.797 557.09 443.091C561.545 442.947 566.74 443.082 571.25 443.089C571.575 431.834 571.91 421.086 571.49 409.807Z" fill="#6C0000"/>
<path d="M599.965 510.745C605.84 505.96 619.18 491.234 628.045 497.238C627.76 499.792 618.06 500.99 613.04 505.325L612.595 505.71C610.1 507.49 608.105 509.42 606.59 512.13L606.15 512.545C597.325 521.005 589.14 539.445 573.635 539.635C568.5 539.7 563.535 536.47 560.115 532.78C558.435 530.945 556.78 529.085 555.15 527.21C535.645 520.97 533.015 536.365 517.54 541.525C513.91 543.96 511.985 546.83 508.19 546.22C510.205 543.72 512.21 541.435 513.695 538.575C517.295 536.39 525.3 523.58 530.135 519.455C543.525 508.035 550.46 514.425 560.125 525.135C581.305 535.18 582.92 518.865 599.4 511.01L599.965 510.745Z" fill="#161614"/>
<path d="M560.125 525.135C581.305 535.18 582.92 518.865 599.4 511.01L599.965 510.745C598.665 512.83 593.575 520.535 591.75 521.795C590.045 522.42 587.865 524.31 586.565 525.58C578.735 533.21 575.075 531.695 566.345 532.685C563.295 530.43 561.855 528.46 560.125 525.135Z" fill="#BB1F03"/>
<path d="M550 520.9C552.26 522.865 553.795 524.45 555.15 527.21C535.645 520.97 533.015 536.365 517.54 541.525C518.56 539.35 520.67 536.505 522.5 534.925C527.925 534.3 534.005 523.885 540.35 522.165C543.58 521.29 546.695 521.225 550 520.9Z" fill="#BB1F03"/>
<path d="M522.5 534.925C528.79 525.9 538.115 512.085 550 520.9C546.695 521.225 543.58 521.29 540.35 522.165C534.005 523.885 527.925 534.3 522.5 534.925Z" fill="#F3F3F1"/>
<path d="M566.345 532.685C575.075 531.695 578.735 533.21 586.565 525.58C587.865 524.31 590.045 522.42 591.75 521.795C585.77 529.57 576.84 540.51 566.345 532.685Z" fill="#EBE7E4"/>
<path d="M605.6 444.073C605.325 437.362 604.29 386.889 607.035 384.217C608.8 382.501 614.225 382.927 616.54 383.082C618.575 383.218 620.23 383.481 621.73 384.971C622.795 387.478 622.95 391.183 623.03 393.927C623.515 410.71 625.815 427.478 623.285 444.163L621.39 444.164L607.04 444.087L605.6 444.073Z" fill="#E43507"/>
<path d="M605.6 444.073C605.325 437.362 604.29 386.889 607.035 384.217C608.8 382.501 614.225 382.927 616.54 383.082C618.575 383.218 620.23 383.481 621.73 384.971C622.795 387.478 622.95 391.183 623.03 393.927C623.515 410.71 625.815 427.478 623.285 444.163L621.39 444.164C621.445 425.166 618.935 404.703 620.075 386.23C617.115 386.229 611.13 385.957 608.72 387.113C607.375 391.405 608.195 400.921 608.015 405.8C607.62 416.512 608.59 433.363 607.13 443.485L607.04 444.087L605.6 444.073Z" fill="#BB1F03"/>
<path d="M531.7 398.586C532.42 394.25 541.2 395.153 544.375 395.914C545.52 396.192 546.64 396.552 547.73 396.993C549.645 411.912 549.16 427.921 548.435 442.979C544.27 442.973 537.255 443.168 533.41 442.558L532.895 442.491L531.075 442.531C530.47 429.07 529.09 411.55 531.7 398.586Z" fill="#E43507"/>
<path d="M531.7 398.586C532.42 394.25 541.2 395.153 544.375 395.914C545.52 396.192 546.64 396.552 547.73 396.993C549.645 411.912 549.16 427.921 548.435 442.979C544.27 442.973 537.255 443.168 533.41 442.558C536.62 442.205 542.27 442.457 545.665 442.509C545.445 428.381 545.945 414.046 545.015 399.992C544.83 397.244 536.19 397.633 534.46 398.111C533.45 398.39 533.095 399.542 532.64 400.364L531.7 398.586Z" fill="#A91101"/>
<path d="M531.7 398.586L532.64 400.364C532.29 404.998 532.04 438.795 532.895 442.491L531.075 442.531C530.47 429.07 529.09 411.55 531.7 398.586Z" fill="#A91101"/>
<path d="M581.51 398.353C583.775 396.234 595.505 396.833 596.275 398.68C598.49 403.972 598.155 421.618 598.42 426.803C598.685 432.379 599.045 438.587 598.865 444.159L596.495 444.186C591.87 443.491 585.955 443.284 581.185 443.002L580.105 443.261C579.23 429.283 580.505 412.329 581.51 398.353Z" fill="#E43507"/>
<path d="M581.51 398.353C583.775 396.234 595.505 396.833 596.275 398.68C598.49 403.972 598.155 421.618 598.42 426.803C598.685 432.379 599.045 438.587 598.865 444.159L596.495 444.186L596.41 443.358C595.75 440.649 596.22 436.771 595.99 433.66C595.22 423.143 595.725 412.348 594.36 401.926C593.88 398.282 585.585 399.259 583.13 399.944L581.51 398.353Z" fill="#BB1F03"/>
<path d="M596.41 443.358C596.91 437.748 596.545 432.392 597.42 426.464L598.42 426.802C598.685 432.378 599.045 438.586 598.865 444.158L596.495 444.186L596.41 443.358Z" fill="#A91101"/>
<path d="M581.51 398.353L583.13 399.944C581.595 410.641 583.34 437.282 581.185 443.002L580.105 443.261C579.23 429.283 580.505 412.329 581.51 398.353Z" fill="#A91101"/>
<path d="M623.285 444.163C626.22 444.08 634.27 443.611 635.215 447.029C630.835 450.7 589.225 447.31 581.75 447.449C555.35 447.941 528.785 446.229 502.41 445.324C495.928 445.102 495.947 442.788 495.8 436.663C495.409 420.349 497.078 404.129 496.158 387.793C496.011 385.131 495.486 373.511 497.574 372.305C500.45 380.528 499.2 430.33 499.154 442.925L507.85 442.542L509.815 442.475L521.73 442.624L524.18 442.553L531.075 442.531L532.895 442.492L533.41 442.558C537.255 443.168 544.27 442.973 548.435 442.979L555.77 443.044L557.09 443.092C560.29 443.798 569.95 443.85 572.94 443.019C574.665 443.041 578.6 443.002 580.105 443.261L581.185 443.002C585.955 443.284 591.87 443.491 596.495 444.186L598.865 444.159L605.6 444.073L607.04 444.087L621.39 444.164L623.285 444.163Z" fill="#161614"/>
<path d="M625.32 87.8848C626.18 88.1113 626.965 88.4503 627.775 88.8038C628.56 89.9638 629.3 90.9613 630.345 91.9003C631.48 92.9188 633.93 90.5078 635.495 90.4088C636.055 90.8353 636.645 91.2763 637.115 91.8033C637.845 92.6198 637.94 93.5078 637.915 94.5608C637.885 95.7183 637.925 96.7883 638.04 97.9408C638.895 99.5643 640.68 100.08 642.28 100.806C640.93 107.57 638.83 105.165 636.715 109.889C636.865 110.793 637.11 111.885 636.995 112.798C636.84 114.042 634.705 115.585 633.795 116.394C632.2 115.351 630.7 114.508 628.93 113.769C628.07 114.738 627.18 115.85 626.18 116.673C625.205 117.476 624.245 117.976 622.96 117.833C621.285 116.772 621.145 113.996 619.995 112.413C618.79 110.758 616.99 110.493 615.1 110.362L614.735 110.339C613.475 109.226 613.35 107.457 613 105.88C618.8 100.676 613.46 101.473 614.21 96.8368C614.415 95.5788 615.47 94.5913 616.48 93.9188L616.97 94.0483C623.37 95.6823 621.095 90.3923 625.32 87.8848Z" fill="#E43507"/>
<path d="M625.7 98.84C627.855 97.972 630.31 98.968 631.255 101.093C632.2 103.217 631.29 105.708 629.2 106.725C627.78 107.415 626.095 107.276 624.81 106.362C623.525 105.448 622.84 103.905 623.025 102.337C623.21 100.77 624.235 99.4295 625.7 98.84Z" fill="#F3F3F1"/>
<path d="M526.595 556.765C550.57 556.1 574.07 559.455 597.97 560.49C605.3 560.805 612.7 559.985 620.035 559.895C623.815 559.845 632 559.255 634.75 561.93L634.295 562.62C628.05 564.99 614.72 564 607.72 564.105C584.92 564.305 562.035 560.87 539.275 559.56C524.885 558.735 510.77 561.85 496.62 557.44C503.865 555.82 518.47 556.845 526.595 556.765Z" fill="#161614"/>
<path d="M508.33 416.629C511.86 415.928 515.545 415.961 519.155 415.868C520.87 416.415 521.79 416.417 522.665 418.338C525.44 424.419 524.575 435.814 524.18 442.553L521.73 442.624L509.815 442.475L507.85 442.542C506.515 431.401 506.74 427.561 508.33 416.629Z" fill="#E43507"/>
<path d="M508.33 416.629C511.86 415.928 515.545 415.961 519.155 415.868L520.64 417.258L520.365 418.57L510.15 418.362C508.095 428.785 510.685 435.274 509.815 442.475L507.85 442.542C506.515 431.401 506.74 427.561 508.33 416.629Z" fill="#BB1F03"/>
<path d="M519.155 415.868C520.87 416.415 521.79 416.417 522.665 418.338C525.44 424.419 524.575 435.814 524.18 442.553L521.73 442.624C522.6 433.232 521.945 427.708 520.365 418.57L520.64 417.258L519.155 415.868Z" fill="#A91101"/>
<path d="M500.63 549.245C500.595 551.595 501.075 555.675 498.511 556.32L497.482 555.38C496.197 550.97 497.052 533.87 497.1 528.44C497.157 522.045 494.932 493.356 498.207 489.852L498.875 490.041C501.095 495.489 501.185 531.765 500.845 539.19C500.58 542.785 500.595 545.67 500.63 549.245Z" fill="#161614"/>
<path d="M612.595 505.71L613.065 505.69C618.4 505.39 624.04 503.655 629.1 504.93L629.19 505.575C625.6 508.125 613.315 509.56 606.59 512.13C608.105 509.42 610.1 507.49 612.595 505.71Z" fill="#BB1F03"/>
<path d="M500.845 539.19C505.945 540.23 508.63 539.48 513.695 538.575C512.21 541.435 510.205 543.72 508.19 546.22C505.755 544.92 503.285 543.935 500.94 542.71C500.85 544.73 500.81 547.28 500.63 549.245C500.595 545.67 500.58 542.785 500.845 539.19Z" fill="#BB1F03"/>
<path d="M550.715 250.176C554.12 250.355 556.19 250.632 559.17 252.439L559.28 253.147C556.63 254.521 552.515 252.905 549.545 252.752C547.245 253.32 545.35 254.89 543.065 255.269L542.32 254.46L542.53 253.414C544.795 251.376 547.75 250.511 550.715 250.176Z" fill="#161614"/>
<path d="M581.985 249.662C583.325 249.6 584.64 249.586 585.97 249.782C587.97 250.077 589.27 250.797 590.495 252.384L590.195 253.154C588.64 253.656 587.1 252.854 585.615 252.345C582.345 252.207 578.53 253.461 575.41 252.348L575.845 251.668C577.91 250.519 579.66 250.049 581.985 249.662Z" fill="#161614"/>
<path d="M550.965 256.839C551.535 257.054 552.2 257.274 552.7 257.622C553.825 258.401 553.945 259.243 554.225 260.463C553.915 262.219 553.185 263.131 552.035 264.461C551.705 264.266 551.375 264.077 551.065 263.856C550.075 263.155 549.285 262.214 549.16 260.971C548.995 259.337 550.04 258.064 550.965 256.839Z" fill="#161614"/>
<path d="M582.04 256.764C582.185 256.809 582.335 256.846 582.475 256.9C584.1 257.529 584.64 258.267 585.365 259.746C585.425 261.386 584.895 262.283 584.05 263.655L581.76 263.326C580.975 262.618 580.605 262.389 580.385 261.301C580.035 259.596 581.115 258.081 582.04 256.764Z" fill="#161614"/>
<path d="M564.015 258.358C564.685 258.853 564.9 259.48 565.14 260.251C566.035 263.142 566.7 269.853 565.295 272.578C565.055 272.415 564.675 272.173 564.48 271.969C562.86 270.266 563.655 260.837 564.015 258.358Z" fill="#161614"/>
<path d="M562.135 276.6C565.21 276.641 569.295 276.021 572.22 276.79L572.335 277.927C570.275 279.096 568.1 279.956 565.695 279.324C564 278.876 563.065 278.049 562.135 276.6Z" fill="#161614"/>
<path d="M105.44 159.094C105.929 159.083 105.959 159.074 106.53 159.115C111.273 159.453 113.905 161.213 116.864 164.793C119.649 163.516 122.651 162.639 125.738 162.687C128.697 162.733 131.183 163.665 133.248 165.815C136.059 168.743 136.976 171.379 136.911 175.417C138.382 176.56 139.984 177.719 141.184 179.152C143.462 181.872 144.851 185.431 144.404 189.004C143.78 193.99 140.435 196.785 136.7 199.669C136.682 200.672 136.704 201.771 136.515 202.757C136.064 205.108 133.689 207.895 131.771 209.231C127.849 211.962 122.982 211.18 118.62 210.318C116.147 212.91 113.924 214.548 110.612 215.954C107.892 216.619 104.98 216.626 102.301 215.753C98.2288 214.427 96.0693 211.397 94.2193 207.768C92.6468 207.96 91.0698 208.193 89.4893 208.305C86.7178 208.502 83.4298 207.797 81.3708 205.846C79.1978 203.789 78.5993 201.371 78.4388 198.519C75.4158 197.432 73.0173 196.338 71.2813 193.503C69.9213 191.282 69.3268 188.715 70.0053 186.155C71.1483 181.842 74.0873 180.261 77.6468 178.239C80.3438 176.707 80.1803 173.533 80.9928 170.781C81.5213 168.991 82.5803 167.365 84.3013 166.538C87.4303 165.034 91.1418 165.5 94.3003 166.536C97.6938 162.108 99.9138 160.242 105.44 159.094Z" fill="#F3F3F1"/>
<path d="M102.628 162.616C104.549 162.475 106.643 162.214 108.529 162.709C112.27 163.689 113.836 166.964 115.627 170.04C116.258 169.598 116.895 169.165 117.539 168.742C120.75 166.637 124.237 165.398 128.102 166.343C130.056 166.82 131.694 167.867 132.707 169.634C134.247 172.32 133.815 174.576 133.076 177.38C136.322 178.945 139.378 180.797 141.169 184.078C144.622 190.404 136.901 193.69 134.181 197.785C133.232 199.213 133.091 201.974 132.509 203.696C131.94 205.381 130.805 206.869 129.151 207.591C125.396 209.231 120.808 207.398 117.303 205.975C115.598 208.336 114.058 210.351 111.816 212.236C109.074 213.314 105.913 213.932 103.071 212.802C99.2203 211.27 97.6803 207.617 96.0948 204.12C92.8748 205.253 87.6833 206.872 84.4163 205.262C80.7633 203.461 82.4773 199.688 80.4348 197.314C77.7773 194.225 73.4298 194.364 71.9713 189.545C71.4493 187.821 71.8403 186.293 72.7503 184.782C74.9653 181.104 77.4908 180.261 81.4568 179.231C81.8208 177.155 81.4778 174.899 82.0123 172.874C82.4778 171.111 84.1523 168.955 85.8153 168.198C88.6903 166.89 91.7468 168.296 94.4503 169.347C95.8923 168.87 98.2383 164.669 102.628 162.616Z" fill="#161614"/>
<path d="M94.2132 395.133C99.3292 394.569 104.663 395.748 108.845 398.783C113.979 402.509 117.603 408.816 118.495 415.069C119.498 422.095 116.833 428.02 112.762 433.553C115.14 435.538 117.987 436.839 120.459 438.721C125.679 442.697 134.753 451.598 136.196 458.119C136.539 459.667 136.281 460.644 135.411 461.925C134.193 462.834 133.173 463.223 131.633 463.198C127.686 463.135 126.052 461.169 123.427 458.571C120.092 454.947 115.744 451.017 113.211 446.831C111.746 444.412 111.126 440.01 108.824 438.355C107.346 437.293 100.239 440.65 97.9697 441.051C92.9502 441.939 86.7956 439.382 82.7771 436.512C77.7161 432.897 74.1527 427.46 73.2097 421.279C72.3282 415.502 74.0992 409.147 77.5677 404.456C81.4987 399.139 87.8162 396.112 94.2132 395.133Z" fill="#F3F3F1"/>
<path d="M93.7094 398.54C104.415 397.443 113.987 405.225 115.097 415.93C116.207 426.635 108.436 436.216 97.7324 437.338C87.0109 438.463 77.4109 430.676 76.2989 419.953C75.1874 409.231 82.9854 399.64 93.7094 398.54Z" fill="#161614"/>
<path d="M91.0156 401.563C94.3561 401.229 97.6121 401.05 100.812 402.244C105.032 403.841 108.424 407.08 110.212 411.222C112.021 415.411 112.109 420.143 110.455 424.395C108.461 429.412 104.69 432.14 99.9016 434.222C96.7651 434.861 93.5641 434.768 90.5166 433.767C86.6826 432.516 83.5216 429.761 81.7576 426.135C79.6551 421.84 79.4061 416.227 80.9831 411.726C82.7031 406.819 86.4346 403.729 91.0156 401.563Z" fill="#F3F3F1"/>
<path d="M91.5464 403.598C94.3129 403.421 97.0234 403.248 99.6989 404.115C103.191 405.246 106.157 407.681 107.788 410.986C109.616 414.692 109.844 419.261 108.523 423.165C106.926 427.887 103.827 430.276 99.5384 432.424C96.9264 432.602 94.3444 432.877 91.8024 432.078C88.1149 430.925 85.0554 428.322 83.3289 424.866C81.4774 421.159 81.1744 416.869 82.4869 412.939C84.1074 408.23 87.1734 405.669 91.5464 403.598Z" fill="#161614"/>
<path d="M92.4529 406.601C93.5389 406.522 94.6639 406.428 95.7519 406.511C97.5284 406.648 99.8944 407.287 101.058 408.686C101.824 409.608 101.848 409.794 101.784 410.978C98.8279 409.845 94.8724 409.567 92.2549 407.905L92.4529 406.601Z" fill="#F3F3F1"/>
<path d="M110.244 435.446C111.748 435.782 114.659 438.064 116.113 439.02C119.904 441.511 132.724 454.219 133.315 458.409C133.439 459.292 132.689 459.999 132.211 460.722C130.658 460.69 130.133 460.73 128.834 459.783C126.391 458.001 115.838 446.789 114.719 444.252C114.163 442.992 114.475 441.283 113.735 440.101C112.435 438.023 110.761 438.396 110.244 435.446Z" fill="#161614"/>
<path d="M98.6652 296.084C106.524 295.407 111.837 296.778 118.767 300.35C108.98 299.633 103.511 296.62 93.5342 300.774C85.8347 303.98 80.2577 310.051 77.2222 317.779C74.1887 325.363 74.3737 333.856 77.7352 341.301C80.8127 348.43 86.6487 354.008 93.9107 356.76C101.473 359.565 109.976 358.704 117.192 355.277C125.19 351.477 130.063 345.305 132.936 337.055C133.513 333.915 133.809 331.051 135.504 328.276L136.177 328.217L135.385 328.688L136.486 330C137.143 335.245 135.518 340.766 132.829 345.233C128.211 352.906 120.221 358.522 111.558 360.639C103.158 362.665 94.2987 361.305 86.8942 356.851C79.6687 352.363 74.5507 345.159 72.6902 336.859C70.6417 327.825 72.2482 318.348 77.1592 310.494C82.2452 302.467 89.5377 298.099 98.6652 296.084Z" fill="#F3F3F1"/>
<path d="M101.139 302.205C105.282 301.868 112.211 302.354 115.562 305.055C116.171 305.546 116.109 305.445 116.219 306.296C113.363 306.77 110.203 304.178 107.101 304.356C103.853 304.541 105.895 307.089 104.409 308.637C102.793 308.304 102.994 306.335 101.786 305.222C101.12 304.609 100.068 304.442 99.1762 304.551C94.2602 305.152 88.3077 309.854 85.5142 313.745C82.9252 317.351 79.8527 322.928 80.5957 327.508C81.6287 328.725 83.6917 327.853 85.2952 328.459L85.4842 329.475C84.3282 330.584 82.6437 330.23 81.0862 330.214L80.7267 330.749C81.0527 336.393 83.3952 341.731 87.3277 345.793C90.4697 349.073 96.0142 352.754 100.758 352.591C102.018 352.547 102.457 352.206 103.3 351.331C103.45 350.287 103.494 349.268 104.107 348.377L105.01 348.55C105.3 349.098 105.588 349.649 105.902 350.183C106.564 351.31 107.176 351.991 108.499 352.275C111.521 352.924 115.975 349.745 118.407 348.26C127.437 341.008 126.636 332.377 129.154 329.892C129.324 330.317 129.401 330.451 129.493 330.869C130.413 335.033 127.614 340.759 125.369 344.115C121.734 349.55 116.175 352.968 109.788 354.183C102.691 355.533 95.2162 354.357 89.2152 350.215C83.6277 346.357 80.1587 340.124 79.0257 333.499C77.7922 326.291 79.5517 318.387 83.8767 312.473C88.1487 306.63 94.0587 303.341 101.139 302.205Z" fill="#F3F3F1"/>
<path d="M82.0494 525.67C93.0134 525.29 127.105 523.8 135.878 528.215C137.029 528.795 137.56 529.065 137.938 530.28C136.924 531.215 136.444 531.23 135.125 531.535C127.768 531.71 120.468 530.82 113.127 530.6C103.867 530.325 94.5444 530.855 85.3389 529.535C83.4094 529.255 79.6524 528.725 78.4434 527.085C79.5709 526.06 80.6079 526.005 82.0494 525.67Z" fill="#F3F3F1"/>
<path d="M133.273 269.177C134.309 268.959 135.453 268.909 136.509 268.831C138.284 268.701 139.499 268.82 140.87 269.999L140.78 270.97C134.457 276.723 93.1425 276.479 82.469 276.459C79.2585 276.428 76.656 276.434 73.701 274.988L73.625 274.309C79.656 271.205 100.259 272.498 108.154 271.925C116.55 271.237 124.926 270.321 133.273 269.177Z" fill="#F3F3F1"/>
<path d="M80.6197 485.228C84.0102 487.138 85.0367 492.077 86.5937 495.474C88.3507 494.36 89.9962 492.92 91.6387 491.635C96.7167 491.059 101.791 490.565 106.909 490.654C110.522 490.717 140.28 493.57 141.693 494.251L141.654 495.111C139.052 497.017 136.823 497.329 133.71 497.767C126.504 498.014 119.25 496.068 112.126 495.155C105.602 494.319 99.2672 494.401 92.6992 494.609C91.4527 495.452 90.0702 496.489 88.6692 497.034C87.4572 497.506 86.0402 497.438 84.8977 496.814C82.4432 495.475 81.6272 491.632 80.8652 489.174C80.0507 490.952 79.1487 493.716 77.3177 494.562L77.0107 493.631C77.4957 490.263 78.7577 488.009 80.6197 485.228Z" fill="#F3F3F1"/>
<path d="M79.9768 541.575C87.0678 541.25 109.205 540.13 114.707 544.415C115.456 545 115.302 545.15 115.46 546.02C114.726 547.355 113.451 547.775 112.135 548.395C106.25 548.75 84.0308 547.805 79.1138 545.885C77.7338 545.345 77.4048 545.14 76.8623 543.8C77.6968 542.435 78.5908 542.235 79.9768 541.575Z" fill="#F3F3F1"/>
<path d="M128.476 289.126C128.872 289.072 129.269 289.017 129.668 288.981C132.732 288.71 136.141 288.963 138.528 291.167C140.108 292.625 140.603 294.818 140.53 296.895C140.333 302.537 136.444 305.912 132.626 309.466C132.539 310.643 132.54 312.025 132.244 313.163C131.916 314.422 131.364 314.786 130.321 315.47C129.419 315.211 129.212 315.252 128.677 314.484C127.246 312.433 127.85 310.486 128.247 308.194C129.965 304.9 133.471 303.53 135.357 300.504C136.137 299.252 136.722 297.414 136.322 295.943C135.885 294.33 134.682 293.155 133.308 292.306C128.338 291.355 127.176 297.671 123.357 299.242L122.509 298.839C122.127 297.457 122.327 296.209 122.729 294.84C123.575 291.964 126.061 290.532 128.476 289.126Z" fill="#F3F3F1"/>
<path d="M132.902 249.539C134.475 249.322 136.938 248.906 138.246 249.848C137.738 250.147 137.219 250.426 136.689 250.685C133.677 252.169 126.446 255.048 123.257 254.547C119.964 254.029 116.833 252.522 113.441 252.736C100.8 253.533 100.476 257.853 86.2853 253.078C83.6248 254.361 81.4203 256.855 78.3293 256.797C76.8413 256.165 76.4203 255.286 75.6333 253.92L75.3798 253.782C74.9183 254.216 74.5303 254.642 74.1583 255.153L73.7723 255.689L73.2178 255.414C73.2478 255.148 73.2793 254.881 73.3248 254.617C73.6003 253.006 74.3578 251.099 75.7378 250.147C77.1678 251.366 77.7748 253.498 78.4998 255.198C80.9948 253.277 83.2703 251.83 86.1818 250.587C89.4243 251.178 92.7213 252.67 96.0193 252.763C101.937 252.928 107.527 250.408 113.405 250.17C117.653 249.998 121.818 251.986 126.112 251.603C128.34 251.405 130.806 250.308 132.902 249.539Z" fill="#F3F3F1"/>
<path d="M90.0018 507.175C90.5508 508.725 91.1183 510.975 92.3403 512.115C95.0303 514.62 100.16 513.065 103.456 512.825C108.334 512.47 115.333 513.68 119.125 516.96C114.029 518.47 106.306 516.16 101.115 514.985C99.0218 516.02 96.2373 517.02 93.8933 516.515C91.3873 515.97 89.9823 513.365 88.6203 511.415C86.0168 513.46 83.3428 516.06 79.7773 515.92C78.4673 515.87 78.1448 515.43 77.3733 514.45C76.9008 511.735 78.0178 509.575 79.2813 507.27L80.0953 507.99C80.8738 509.83 80.5623 511.985 80.4998 513.95C84.0153 512.08 86.9698 509.72 90.0018 507.175Z" fill="#F3F3F1"/>
<path d="M86.565 213.7C88.6885 212.909 91.0735 213.322 92.807 214.782C94.54 216.242 95.353 218.522 94.934 220.75C94.515 222.977 92.9295 224.806 90.784 225.536C87.532 226.643 83.9935 224.934 82.84 221.698C81.6865 218.462 83.346 214.899 86.565 213.7Z" fill="#F3F3F1"/>
<path d="M88.1339 216.225C89.9414 215.914 91.6804 217.061 92.1059 218.845C92.5314 220.629 91.4974 222.437 89.7439 222.976C88.5059 223.355 87.1594 223.016 86.2499 222.094C85.3399 221.173 85.0179 219.822 85.4134 218.589C85.8094 217.356 86.8574 216.445 88.1339 216.225Z" fill="#161614"/>
<path d="M109.861 120.933C110.01 120.929 110.16 120.924 110.309 120.922C112.277 120.905 114.169 121.219 115.572 122.733C116.67 123.917 117.079 125.634 116.932 127.213C116.671 130.013 115.349 132.048 113.23 133.801C112.775 133.835 112.324 133.855 111.867 133.848C110.199 133.826 108.452 133.321 107.295 132.05C106.222 130.871 105.873 129.315 105.97 127.755C106.165 124.605 107.627 122.899 109.861 120.933Z" fill="#F3F3F1"/>
<path d="M65.5605 127.183C67.6395 126.663 69.8375 127.303 71.312 128.858C72.7865 130.413 73.309 132.642 72.679 134.69C72.049 136.739 70.364 138.289 68.2705 138.747C65.1 139.44 61.96 137.459 61.2195 134.3C60.479 131.14 62.412 127.971 65.5605 127.183Z" fill="#F3F3F1"/>
<path d="M87.1203 124.716C89.1413 124.042 91.3693 124.505 92.9543 125.929C94.5393 127.353 95.2373 129.519 94.7818 131.601C94.3263 133.683 92.7883 135.359 90.7533 135.992C87.6523 136.956 84.3533 135.243 83.3573 132.152C82.3613 129.061 84.0398 125.744 87.1203 124.716Z" fill="#F3F3F1"/>
<path d="M102.89 311.104L104.166 311.759C106.03 317.28 105.006 323.67 106.781 329.447C109.478 331.259 114.681 334.165 116.029 337.137C116.402 337.96 116.052 338.195 115.731 338.982C110.665 336.617 106.951 332.425 101.592 330.339C102.392 323.939 102.039 317.471 102.89 311.104Z" fill="#F3F3F1"/>
<path d="M76.0149 226.932C78.0009 225.736 80.5809 226.387 81.7619 228.382C82.9424 230.377 82.2719 232.952 80.2679 234.118C78.2854 235.271 75.7444 234.609 74.5759 232.635C73.4079 230.662 74.0504 228.115 76.0149 226.932Z" fill="#F3F3F1"/>
<path d="M129.033 318.719C129.932 318.256 131.013 318.328 131.843 318.905C132.673 319.482 133.117 320.471 132.996 321.475C132.875 322.478 132.21 323.334 131.267 323.698C129.912 324.221 128.385 323.592 127.79 322.267C127.195 320.942 127.741 319.383 129.033 318.719Z" fill="#F3F3F1"/>
<path d="M99.9066 261.596L101.038 261.595L101.165 262.151C98.0221 263.546 93.4396 263.453 90.0066 263.528L89.1016 263.021C90.6311 262.158 97.5291 262.106 99.9066 261.596Z" fill="#3C3736"/>
<path d="M333.91 634.965C334.61 634.965 335.312 634.97 336.01 635.04C338.911 635.335 341.39 636.765 343.101 639.14C344.369 640.9 344.947 643.07 344.556 645.22C344.046 648.03 342.369 649.745 340.149 651.32C339.431 651.28 338.713 651.22 337.999 651.13C334.964 650.765 332.402 649.415 330.551 646.93C329.347 645.315 328.732 643.43 329.057 641.415C329.52 638.545 331.626 636.54 333.91 634.965Z" fill="#161614"/>
<path d="M689.83 13.2012C692.36 14.3884 696.17 16.582 698.135 18.5609C710.615 32.2919 705.845 59.6823 704.95 76.6883C702.485 123.451 709.775 168.945 710.125 215.619C710.48 262.215 705.655 308.746 706.9 355.283C707.455 374.406 708.47 393.513 709.945 412.588C710.83 423.422 712.335 434.411 713.25 445.263C714.84 463.377 715.57 481.555 715.45 499.737C715.155 501.69 715.445 502.305 714.215 503.28C712.21 503.21 709.245 502.77 707.565 504.43C702.175 509.765 705.09 515.59 703.235 521.575C702.85 521.605 702.465 521.635 702.08 521.66L701.62 521.435C701.26 502.03 698.895 482.611 698.34 463.352C697.005 417.321 694.845 371.039 694.34 325.017C693.78 273.808 699.135 222.647 698.175 171.395C697.54 137.583 695.31 103.946 692.54 70.2528C690.91 47.9045 695.945 37.6415 689.83 13.2012Z" fill="#F3F3F1"/>
<path d="M676.185 554.585C677.705 554.21 679.235 553.865 680.765 553.54C683.96 552.9 684.91 553.045 687.515 554.805L687.29 566.335C685.955 567.225 680.315 570.49 679.81 570.985C679.35 571.605 678.8 572.155 678.275 572.72L677.47 572.62L676.08 570.66C675.61 568.175 676.095 557.695 676.185 554.585Z" fill="#EBE7E4"/>
<path d="M701.62 521.435L702.08 521.66C702.465 521.635 702.85 521.605 703.235 521.575C705.09 515.59 702.175 509.765 707.565 504.43C709.245 502.77 712.21 503.21 714.215 503.28C715.445 502.305 715.155 501.69 715.45 499.737C715.485 504.475 715.23 507.995 714.84 512.71C705.085 516.525 710.435 523.56 705.525 526.745C702.515 526.585 701.865 523.885 701.62 521.435Z" fill="#EBE7E4"/>
<path d="M151.026 800.155C169.446 803.945 188.007 806.77 206.422 810.665C237.374 817.205 268.163 824.765 299.245 830.665C317.884 834.35 336.597 837.66 355.372 840.58C374.251 843.52 393.335 845.26 412.225 848.19C426.321 850.38 440.437 853.76 454.38 856.835C464.362 859.04 475.484 860.825 484.984 864.595C487.59 865.63 490.75 867.215 492.336 869.615C493.601 871.535 494.711 874.44 494.154 876.735C492.995 881.51 487.595 884.68 483.618 886.895C475.931 891.17 467.727 894.385 459.787 898.145C450.739 902.425 441.811 907.22 432.988 911.96C422.3 917.705 411.501 923.96 401.48 930.805C394.416 935.63 387.729 940.985 380.708 945.87C375.235 949.675 368.8 953.87 362.457 955.94C353.353 958.91 343.388 956.79 334.428 954.23C309.647 947.15 284.317 942.47 259.58 935.13C229.542 926.22 200.28 914.71 170.089 906.245C139.763 897.75 108.647 893.005 78.282 884.755C61.476 880.185 45.3897 873.105 28.9496 867.42C24.8269 865.995 13.5183 864.28 11.4617 860.81C10.8968 859.855 10.9149 859.7 11.2023 858.65C15.2618 856.18 24.0307 858.43 28.5444 859.53C47.8788 864.235 66.0515 872.97 85.3515 877.755C99.2845 881.205 113.612 883.14 127.688 885.905C145.656 889.6 163.461 894.05 181.055 899.245C203.224 905.94 225.126 913.53 247.259 920.35C267.623 926.46 288.13 932.085 308.761 937.215C321.901 940.445 335.529 944.43 349 945.815C357.205 946.66 362.565 945.27 369.624 941.02C377.295 936.405 384.261 930.51 391.547 925.315C400.056 919.245 409.07 913.735 418.093 908.465C431.236 900.93 444.624 893.83 458.236 887.175C466.755 882.96 475.574 879.04 483.814 874.315C456.519 865.305 427.255 859.6 398.886 855.17C390.222 853.82 381.487 852.915 372.812 851.6C355.796 849.06 338.837 846.15 321.948 842.87C285.092 835.94 249.059 825.855 212.574 817.33C199.402 814.135 186.151 811.275 172.834 808.755C164.585 807.16 156.21 805.94 148.007 804.17C148.043 803.695 148.044 803.42 148.185 802.935C148.616 801.445 149.819 800.935 151.026 800.155Z" fill="#161614"/>
<path d="M110.746 854.455C120.664 856.59 130.415 859.465 140.274 861.835L204.515 877.445C223.777 882.255 242.968 887.1 262.136 892.28C268.687 894.05 275.439 895.42 281.895 897.49C284.386 898.29 287.307 899.265 289.323 900.975L289.036 902.21C285.409 906.93 276.991 910.495 271.693 913.25C269.295 914.225 267.188 913.59 264.759 913.075C258.287 911.695 251.945 909.66 245.56 907.93C233.083 904.54 220.58 901.09 208.06 897.87C183.393 891.49 158.788 884.88 134.247 878.03C126.401 875.885 118.604 873.545 110.754 871.425C105.803 870.09 100.659 869.03 95.782 867.465C94.478 867.045 94.065 866.925 93.4365 865.73C93.474 865.26 93.4975 864.83 93.699 864.39C95.6015 860.24 106.688 856.34 110.746 854.455ZM95.6285 864.9L269.256 911.475C274.586 907.95 280.228 905.07 285.651 901.73C246.644 890.86 207.468 880.605 168.137 870.97C149.733 866.27 130.462 862.64 112.595 856.17C112.159 856.015 112.321 856.07 111.793 855.975C106.428 858.81 100.657 861.495 95.6285 864.9Z" fill="#161614"/>
<path d="M539.94 762.67C549.535 762.175 559.98 764.055 569.465 765.51C591.53 768.885 613.295 773.75 635.305 777.395C645.165 779.1 655.05 780.63 664.965 781.99C677.655 783.665 699.815 785.92 711.52 790.555C713.2 791.22 714.545 792.415 715.215 794.12C715.685 795.305 715.685 796.63 715.09 797.77C714.405 799.1 713.45 799.61 712.08 800.065C699.65 799.75 684.94 795.45 672.555 793.17L578.195 775.045C566.27 772.665 549.665 771.67 538.62 767.955C536.84 767.36 535.905 766.86 535.075 765.21L535.51 764.115C536.93 762.92 538.175 762.875 539.94 762.67Z" fill="#161614"/>
<path d="M341.566 893.455C346.768 893.11 390.881 903.86 393.991 906.525C394.665 907.1 394.631 907.63 394.748 908.445C392.378 912.31 382.024 917.01 377.691 919.08C377.475 919.125 377.258 919.165 377.042 919.21C376.917 919.24 376.794 919.275 376.669 919.3C374.464 919.76 327.718 906.84 325.306 904.99C324.568 904.42 324.715 904.04 324.663 903.175C326.652 899.76 337.758 895.23 341.566 893.455ZM325.773 903.36C336.926 906.26 348.049 909.265 359.142 912.375C364.589 913.885 370.577 916.35 376.183 916.76C381.474 913.855 386.623 910.755 391.985 907.975C383.687 906.02 375.554 903.43 367.288 901.325C358.961 899.21 350.287 897.545 342.105 894.97C336.58 897.595 331.387 900.99 325.773 903.36Z" fill="#161614"/>
<path d="M72.1799 823.625C79.1024 825 85.9514 827.115 92.7509 829C100.656 831.195 108.672 833.215 116.424 835.91C118.457 836.62 119.722 836.965 120.684 838.98C120.37 840.155 120.084 840.765 119.017 841.45C116.031 843.375 108.711 847.845 105.389 848.4C104.032 848.625 102.44 848.16 101.115 847.855C94.3844 845.64 54.7254 835.165 52.4869 832.935C51.9779 832.425 52.1449 832.215 52.1384 831.535C56.0324 827.95 66.8924 825.165 72.1799 823.625ZM55.6269 831.77C71.4559 836.82 88.2504 839.94 103.731 845.89C107.063 845.685 114.733 840.39 118.252 838.84C110.258 836.87 102.446 834.295 94.5519 831.98C87.0244 829.765 79.3704 827.8 71.9009 825.415C66.5334 827.67 60.9624 829.455 55.6269 831.77Z" fill="#161614"/>
<path d="M337.825 913.96C341.803 913.805 365.521 920.225 368.811 922.54L368.761 923.615C366.417 927.355 354.549 934.09 350.188 935.325C345.641 934.78 341.153 933.46 336.738 932.275C332.617 931.175 320.826 929.205 318.688 925.505C320.635 921.865 333.591 916.095 337.825 913.96ZM320.859 925.39C325.63 926.56 330.404 927.725 335.109 929.145C339.589 930.495 344.774 932.69 349.426 933.145C355.376 930.25 361.037 926.635 366.786 923.355C358.117 921.94 347.792 918.555 339.462 915.62C338.985 915.455 339.197 915.5 338.751 915.45C332.875 918.905 326.982 922.38 320.859 925.39Z" fill="#161614"/>
<path d="M401.045 882.03C405.287 881.93 423.53 884.455 426.436 887.205C427.07 887.805 426.908 887.95 426.966 888.76C424.513 893.08 409.003 900.49 403.976 903.405C402.135 903.845 400.474 903.685 398.637 903.345C394.414 902.565 380.999 900.21 378.64 896.735C381.416 892.71 396.028 885.1 401.045 882.03ZM381.366 896.655C387.449 897.445 397.139 901.855 402.687 900.785C409.684 896.75 416.918 892.945 423.662 888.5C416.341 886.895 408.818 884.825 401.39 883.885C394.748 888.165 387.891 892.215 381.366 896.655Z" fill="#161614"/>
<path d="M298.028 903.99C299.305 903.945 300.438 904.185 301.685 904.445C306.727 905.48 326.173 908.94 328.568 912.565C327.533 915.135 313.62 922.275 310.618 923.93C303.206 924.885 290.142 920.285 282.974 917.63C281.545 917.105 280.226 916.61 279.576 915.18C282.213 910.995 293.304 906.295 298.028 903.99ZM308.799 922.29C314.544 918.81 320.28 915.175 326.427 912.435C318.612 910.985 305.421 908.09 298.362 904.94C295.126 906.865 283.822 912.38 282.131 914.98C282.72 915.75 283.07 915.775 284.006 916.07C286.536 916.86 289.236 917.05 291.803 917.73C297.037 919.11 302.079 921.615 307.495 922.275C308.168 922.355 308.053 922.33 308.799 922.29Z" fill="#161614"/>
<path d="M97.0314 812.025C102.347 812.325 125.967 818.64 129.534 821.415L129.564 822.39C127.001 826.01 117.02 829.595 112.704 831.615C105.482 829.675 84.3364 824.68 79.1414 821.04L79.127 820.23C82.339 816.385 92.2589 813.91 97.0314 812.025ZM112.389 829.23C117.056 826.67 121.783 824.285 126.722 822.285C120.921 820.465 102.113 814.285 97.2394 814.03C94.3834 815.15 84.232 817.82 83.128 820.23C88.1595 823.94 105.52 826.37 112.389 829.23Z" fill="#161614"/>
<path d="M116.005 791.63C117.012 791.37 117.491 791.365 118.492 791.655C119.272 792.575 119.268 792.53 119.224 793.735C117.548 796.275 103.95 799.64 100.11 801.2C82.3206 808.435 64.7756 816.405 47.168 824.07C34.7832 829.465 22.1693 835.14 9.19952 838.985C7.76487 839.225 7.18752 839.465 5.80762 838.93L5.95077 838.115C10.8958 834.35 24.249 829.155 30.3523 826.395C54.3696 815.53 78.5336 804.08 103.295 795.04C107.43 793.53 111.713 792.58 116.005 791.63Z" fill="#161614"/>
<path d="M297.629 861.01C302.809 861.975 319.028 863.915 322.542 866.39C323.485 867.05 323.464 867.35 323.681 868.42C321.839 872.81 311.36 877.76 307.093 880.28C303.389 879.18 283.216 874.71 281.376 873.32C280.505 872.66 280.576 872.385 280.444 871.365C282.999 866.88 292.943 863.19 297.629 861.01ZM281.884 871.415C290.17 873.675 298.618 875.235 306.897 877.505C311.713 874.49 316.614 871.56 321.349 868.42C313.592 866.545 305.221 863.785 297.307 862.96C292.236 865.79 287.202 869.09 281.884 871.415Z" fill="#161614"/>
<path d="M76.5567 845.01C76.8007 845 77.0447 844.985 77.2892 844.98C80.0737 844.92 101.066 850.11 102.396 851.695C102.883 852.28 102.687 852.6 102.652 853.315C99.7367 857.34 89.4612 860.85 84.7277 863.59C81.5382 864.55 69.0282 859.87 65.3037 858.705C62.9537 857.97 59.2082 856.925 58.0137 854.635C60.4337 851.11 72.5147 846.74 76.5567 845.01ZM60.6902 854.59C64.4147 855.91 80.8172 861.585 83.7127 861.535C88.8887 857.805 95.1652 855.29 100.944 852.645C93.0602 851.165 85.2682 847.635 77.4617 846.435C71.8012 849.01 66.2087 851.73 60.6902 854.59Z" fill="#161614"/>
<path d="M414.243 868.015C422.995 868.09 436.371 870.86 444.41 874.145C445.897 874.75 446.952 875.27 447.596 876.78C445.961 880.245 438.431 883.165 434.984 885.115C431.981 885.89 405.819 879.545 402.305 877.965C402.094 877.28 401.904 877.065 402.12 876.345C403.079 873.15 411.338 869.385 414.243 868.015ZM434.577 882.085C437.648 880.14 440.748 878.37 443.95 876.655C437.086 875.125 419.864 870.125 413.836 870.44C410.674 872.53 407.494 874.59 404.299 876.63C411.159 877.495 418.047 879.155 424.791 880.685C427.365 881.27 430.174 882.21 432.787 882.49C433.417 882.555 434.013 882.34 434.577 882.085Z" fill="#161614"/>
<path d="M43.7059 836C48.5343 835.365 54.8216 837.605 59.4391 839.04C62.0251 839.845 68.5771 841.23 69.8131 843.575C68.4786 846.18 53.6571 852.38 50.2631 853.78C49.8191 853.835 49.4088 853.83 48.9628 853.785C44.5441 853.325 26.4246 847.75 24.0566 844.745C25.375 842.45 40.5302 836.945 43.7059 836ZM26.4161 845.11C33.9303 847.335 41.7758 850.65 49.3469 852.27C55.1696 849.17 61.0781 846.46 67.0671 843.715C61.6661 841.935 49.0284 836.685 43.8769 837.51C38.0991 839.73 31.7493 842 26.4161 845.11Z" fill="#161614"/>
<path d="M261.833 852.445C267.179 853.62 283.472 855.8 287.056 858.795C287.315 859.58 287.584 859.81 287.258 860.62C285.926 863.92 274.697 869.41 271.212 871.06C267.102 870.885 248.84 866.55 246.481 864.355C245.623 863.56 245.736 863.27 245.709 862.165C248.219 858.02 257.421 854.745 261.833 852.445ZM246.942 863.18C255.009 864.295 262.959 868.165 270.939 868.69C275.492 865.82 280.69 863.12 284.904 859.835C277.212 858.585 269.251 856.76 261.799 854.465C256.893 857.45 251.83 860.18 246.942 863.18Z" fill="#161614"/>
<path d="M368.208 876.46C373.7 876.66 381.172 878.19 386.339 880.075C387.721 880.585 389.005 881.055 389.669 882.45C389.564 883.005 389.599 883.01 389.288 883.585C388.316 885.38 372.912 894.475 370.044 895.47C364.363 894.405 358.552 892.93 352.969 891.43C351.241 890.965 349.826 890.585 348.892 888.985C349.889 885.8 364.652 878.47 368.208 876.46ZM370.174 893.015L387.208 882.62C381.281 881.195 373.503 878.5 367.493 878.46C364.126 880.535 353.45 885.755 352.12 889.235C353.448 889.7 368.935 893.04 370.174 893.015Z" fill="#161614"/>
<path d="M333.718 869.44C334.476 869.43 335.234 869.455 335.988 869.52C340.039 869.86 356.184 872.745 358.294 875.27C356.662 878.585 344.23 885.175 340.589 887.035C340.09 887.23 340.125 887.24 339.508 887.345C336.914 887.805 320.01 883.67 318.098 881.98C317.274 881.25 317.375 880.99 317.356 879.965C319.783 876.06 329.424 872.23 333.718 869.44ZM339.661 884.885C345.09 882.145 350.017 878.535 355.454 875.835C349.842 874.65 338.98 871.345 334.01 870.905C329.303 874.63 323.713 876.89 319.106 880.68C324.105 882.055 334.949 885.975 339.661 884.885Z" fill="#161614"/>
<path d="M228.93 844.605C233.418 845.44 248.389 847.576 251.236 850.206C252.077 850.986 251.961 851.266 251.968 852.336C249.456 856.621 240.628 860.18 236.19 862.47C232.031 861.7 215.195 858.33 212.991 855.86C212.384 855.18 212.576 854.97 212.587 854.115C215.149 849.925 224.403 846.555 228.93 844.605ZM214.274 854.595C219.405 855.9 231.129 859.701 235.705 859.891C240.534 857.176 245.28 854.121 250.23 851.656C246.069 850.696 231.38 846.39 228.094 847.005C223.264 849.185 218.803 851.855 214.274 854.595Z" fill="#161614"/>
<path d="M194.857 837.455C196.559 837.255 218.128 841.67 218.921 842.365C219.486 842.86 219.303 843.105 219.326 843.81C216.862 847.97 208.925 851.24 204.712 853.74C204.266 853.885 204.304 853.89 203.749 853.965C199.745 854.505 184.533 850.44 181.376 848.09C180.67 847.565 180.745 847.48 180.626 846.615C183.21 842.82 190.83 839.99 194.857 837.455ZM182.238 847.08C187.915 848.4 198.356 852.31 203.666 852.09C207.908 848.785 212.523 846.275 217.284 843.8C209.869 842.85 202.356 841.24 195.265 838.84C191.231 842.2 186.359 843.95 182.238 847.08Z" fill="#161614"/>
<path d="M278.504 877.975C282.782 877.89 297.145 880.375 300.361 882.925C301.245 883.625 301.259 883.795 301.392 884.9C299.245 888.175 289.083 892.51 285.245 894.735C281.794 895.05 273.261 891.885 269.605 890.795C267.689 890.22 263.632 889.2 262.644 887.365C265.19 883.325 274.149 880.025 278.504 877.975ZM285.666 891.565C289.815 889.095 294.079 886.4 298.494 884.445C292.721 882.755 284.46 879.705 278.485 879.955C275.442 881.505 267.582 884.68 266.544 887.655C269.272 888.675 283.415 892.585 285.476 891.675C285.543 891.645 285.602 891.605 285.666 891.565Z" fill="#161614"/>
<path d="M311.162 885.525C315.862 886.1 325.911 887.7 329.757 889.97C330.949 890.67 331.17 891.1 331.457 892.415C329.612 896.735 319.53 900.785 315.332 902.81C311.081 901.745 297.623 899.26 295.239 896.465C294.64 895.765 294.856 895.555 294.907 894.69C297.812 890.6 306.519 887.535 311.162 885.525ZM296.575 895.665C302.774 896.305 309.64 900.17 315.374 900.09C320.118 897.31 325.15 894.89 329.803 891.995C325.768 891.21 313.198 887.13 310.639 887.48C305.989 890.13 300.955 892.605 296.575 895.665Z" fill="#161614"/>
<path d="M248.256 870.01C252.529 870.375 264.313 872.42 267.8 874.435C269.031 875.15 269.227 875.505 269.556 876.845C267.844 880.985 258.317 884.55 254.329 886.235C251.056 886.135 234.556 881.95 232.303 880.11L232.334 879.185C235.488 875.075 243.54 872.365 248.256 870.01ZM254.164 883.76C258.717 881.205 263.329 878.755 267.998 876.42C263.267 875.62 251.862 871.895 248.124 871.96C243.777 874.605 239.269 876.985 234.627 879.075C239.451 880.135 250.171 884.21 254.164 883.76Z" fill="#161614"/>
<path d="M217.389 862.485C221.496 862.255 234.873 865.075 237.951 867.31C238.925 868.02 238.888 868.235 239.042 869.36C236.686 873.31 227.913 876.56 223.723 878.85C222.028 878.85 205.1 874.365 203.647 873.295C202.693 872.59 202.711 872.42 202.565 871.255C204.634 867.54 213.473 864.295 217.389 862.485ZM203.632 871.405C207.36 872.375 220.76 876.725 223.628 875.81C228.199 873.66 232.576 871.325 236.947 868.795C232.017 867.59 221.96 864.055 217.338 864.435C212.81 866.98 208.396 869.33 203.632 871.405Z" fill="#161614"/>
<path d="M166.391 829.94C170.009 830.695 185.024 832.855 186.683 835.48C187.123 836.175 186.799 836.505 186.599 837.25C183.082 841.17 176.391 843.595 171.673 845.94C167.988 846.31 157.198 843.29 153.747 841.565C152.269 840.825 151.591 840.39 151.102 838.835C153.108 835.17 162.511 831.705 166.391 829.94ZM152.184 839.39C156.254 840.575 167.827 844.525 171.164 843.895C175.69 841.465 180.18 838.97 184.631 836.405C180.566 835.075 169.477 831.285 165.571 831.915L152.184 839.39Z" fill="#161614"/>
<path d="M188.496 854.97C192.684 855.39 205.037 857.455 207.95 860.235C208.163 860.985 208.406 861.25 208.093 862.01C206.706 865.375 196.654 869.38 193.283 870.725C187.779 870.025 177.072 867.145 172.14 864.805L172.18 863.985C175.224 860 183.892 857.11 188.496 854.97ZM174.663 863.65C180.632 865.655 186.726 867.565 192.889 868.875C197.847 866.325 202.707 863.58 207.757 861.215C203.191 860.035 198.567 859.12 193.996 857.97C192.272 857.535 190.484 856.745 188.752 856.48C184.163 859.05 179.107 860.89 174.663 863.65Z" fill="#161614"/>
<path d="M382.17 861.54C387.492 861.53 401.643 863.02 405.675 866.335C405.934 866.97 406.252 867.285 406.014 867.97C405.17 870.4 395.732 874.585 393.169 875.985C391.659 876.1 390.262 875.96 388.771 875.74C384.501 875.105 372.05 873.055 369.563 869.71L369.778 868.9C373.023 865.76 378.141 863.63 382.17 861.54ZM373.275 869.055C376.957 870.08 389.555 874.415 392.435 873.605C395.887 871.385 399.354 869.37 403 867.48C396.338 866.14 389.185 865.415 382.702 863.475L373.275 869.055Z" fill="#161614"/>
<path d="M137.503 823.01C140.46 823.12 153.744 825.95 155.903 827.28C156.895 827.885 156.903 828.09 157.156 829.16C155.724 832.215 145.898 836.55 142.621 838.42C135.753 838.41 127.041 834.73 120.657 832.24C126.029 828.36 131.496 825.755 137.503 823.01ZM123.753 831.695C129.678 832.885 135.808 836.235 141.75 836.575C146.438 833.905 151.112 831.235 155.932 828.805C151.278 827.9 140.892 824.675 137.261 824.42C132.855 826.995 128.046 828.985 123.753 831.695Z" fill="#161614"/>
<path d="M349.188 855.225C349.95 855.45 350.726 855.415 351.513 855.375C354.844 855.22 370.761 857.13 372.942 858.96C373.566 859.48 373.429 859.705 373.535 860.455C371.706 864.23 365.309 866.78 361.726 868.795C356.368 870.46 341.895 865.6 336.707 863.4C340.202 859.895 344.829 857.47 349.188 855.225ZM340.177 862.59C344.102 863.35 357.411 867.315 360.162 866.605C362.694 865.005 365.851 863.6 367.917 861.445L367.963 860.745C363.142 858.2 356.54 859.875 351.708 856.645C351.502 856.505 351.285 856.385 351.075 856.25L350.647 855.975C347.315 858.49 343.794 860.525 340.177 862.59Z" fill="#161614"/>
<path d="M157.699 848.045C158.424 847.97 159.147 847.91 159.878 847.9C162.288 847.865 175.913 850.985 177.311 852.595C177.854 853.22 177.645 853.515 177.607 854.295C174.947 858.3 168.49 860.385 164.5 863.02L164.04 863.325C158.76 862.885 151.268 860.4 146.307 858.46C145.015 857.96 143.869 857.555 143.307 856.25C145.39 853.22 154.046 849.98 157.699 848.045ZM145.17 856.17C149.05 857.205 160.324 860.995 163.404 861.025C167.693 858.395 172.108 855.625 176.865 853.935C172.448 852.78 161.864 848.755 157.81 849.46C153.805 852.195 149.493 854.025 145.17 856.17Z" fill="#161614"/>
<path d="M130.077 840.47C133.779 840.805 145.723 842.32 148.193 845.21C148.797 845.92 148.608 846.125 148.594 846.995C146.1 850.79 137.943 854.025 133.67 855.55C129.269 854.42 118.1 852.59 115.053 849.86C114.406 849.28 114.555 849.15 114.466 848.35C116.872 844.61 125.893 841.965 130.077 840.47ZM116.451 848.765C122.123 850.895 127.967 852.315 133.905 853.48C138.728 851.915 143.197 848.23 147.851 846.04C142.014 844.715 135.678 843.73 130.131 841.475C125.482 843.615 120.581 845.695 116.451 848.765Z" fill="#161614"/>
<path d="M318.202 848.315C318.454 848.37 318.678 848.43 318.943 848.44C324.405 848.64 329.895 849.9 335.242 851.135C337.611 851.685 340.048 852.22 341.384 854.38C340.297 857.45 332.847 860.465 329.885 862.235C328.724 862.57 327.734 862.695 326.527 862.51C323.192 862.005 308.881 858.97 307.043 856.5C308.078 852.93 314.986 850.1 318.202 848.315ZM308.159 855.84C313.543 856.825 323.431 859.955 328.013 860.045C331.433 858.165 334.801 856.29 338.418 854.8C332.014 853.44 325.183 852.365 319.072 850.005C315.484 852.22 312.004 854.105 308.159 855.84Z" fill="#161614"/>
<path d="M287.518 842.07C292.645 842.365 297.724 843.425 302.723 844.56C305.109 845.105 308.898 845.775 310.287 847.98L309.987 849.04C306.659 852.02 301.71 853.945 297.658 855.845C297.472 855.865 297.286 855.91 297.099 855.905C293.677 855.815 278.568 852.66 276.729 850.215C276.109 849.39 276.353 849.01 276.525 848.065C278.829 845.18 284.064 843.255 287.518 842.07ZM278.152 849.515C284.657 850.665 291.051 852.345 297.555 853.475C300.66 851.84 303.723 850.12 306.74 848.325C300.505 847.305 293.868 845.68 287.97 843.415L278.152 849.515Z" fill="#161614"/>
<path d="M200.422 822.125C205.346 823 217.901 824.23 221.339 827.285C221.578 828.015 221.846 828.265 221.533 829.015C220.221 832.145 212.423 834.7 209.365 836.015C204.089 834.625 194.934 833.715 190.574 831.345C189.462 830.74 189.198 830.365 188.898 829.165C190.532 825.69 197.027 823.645 200.422 822.125ZM209.702 833.75C213.423 831.775 217.335 830.085 221.002 828.03C214.371 827.1 205.577 824.165 199.357 823.91C197.019 825.245 192.303 827.075 190.757 829.19C192.034 830.495 206.55 833.83 208.72 833.92C209.204 833.94 209.142 833.905 209.702 833.75Z" fill="#161614"/>
<path d="M171.914 816C176.386 816.48 189.29 818.395 192.341 821.135C192.538 821.885 192.786 822.105 192.403 822.825C190.869 825.735 184.103 827.77 181.133 828.775C179.021 829.625 167.936 826.36 165.296 825.455C163.458 824.83 160.951 824.13 160.066 822.31C163.013 819.625 168.272 817.77 171.914 816ZM161.809 822.38C166.145 823.71 177.834 827.93 181.709 826.545C184.949 825.01 188.221 823.24 191.597 822.04C185.319 820.95 177.494 818.005 171.585 817.415C168.393 819.335 165.323 821.08 161.809 822.38Z" fill="#161614"/>
<path d="M230.42 829.62C235.458 830.37 243.013 830.585 247.493 832.985C248.78 833.675 249.026 834.06 249.408 835.42C248.067 838.84 242.008 840.74 238.886 842.17C238.275 842.17 237.665 842.15 237.057 842.1C232.717 841.72 221.29 839.665 218.558 836.41C218.544 835.63 218.385 835.425 218.894 834.775C220.958 832.145 227.167 830.08 230.42 829.62ZM219.088 836.175C225.594 837.26 231.823 839.545 238.288 840.56C241.456 838.605 244.627 837.045 248.066 835.635C241.85 833.585 234.643 833.62 228.784 830.88C228.747 830.86 228.704 830.86 228.665 830.85C225.47 832.595 222.181 834.255 219.088 836.175Z" fill="#161614"/>
<path d="M259.084 836.07C264.003 836.11 273.745 837.84 277.98 840.38C278.958 840.965 279.05 841.09 279.346 842.17C276.53 844.865 271.055 847.39 267.416 848.845C260.304 848.455 252.368 845.06 245.655 842.8C249.826 840.165 254.173 837.005 259.084 836.07ZM249.7 842.02C254.012 843.13 263.829 847.105 267.696 846.435L276.092 841.695C269.936 840.49 263.964 838.635 257.841 837.385C255.14 838.95 252.426 840.5 249.7 842.02Z" fill="#161614"/>
<path d="M143.464 809.985C148.907 809.85 156.692 811.47 161.749 813.615C163.098 814.185 163.871 814.625 164.42 815.995C162.532 818.265 156.426 820.44 153.648 821.76C149.543 822.825 140.867 820.115 136.866 818.66C135.266 818.075 134.36 817.56 133.65 816.035C133.747 815.665 133.762 815.51 133.922 815.185C135.126 812.755 141.102 810.94 143.464 809.985ZM134.53 815.575C138.464 816.84 148.587 820.8 152.217 820.235C155.239 818.595 158.281 816.99 161.341 815.42C155.959 814.045 148.119 810.76 142.717 811.495C140.028 812.92 137.355 814.435 134.53 815.575Z" fill="#161614"/>
<path d="M116.892 803.535C117.569 803.49 118.248 803.48 118.926 803.505C122.627 803.675 134.177 805.395 136.509 808.265C137.023 808.9 136.85 808.98 136.78 809.73C133.748 812.3 129.252 813.905 125.671 815.64C123.155 816.15 110.947 812.625 108.447 811.285C107.283 810.66 106.986 810.27 106.688 809.015C108.387 805.92 113.732 804.71 116.892 803.535ZM108.583 809.355C113.87 810.66 119.213 811.87 124.364 813.655C127.307 812.035 130.229 810.445 133.293 809.055C128.253 807.885 123.198 806.56 118.114 805.615C114.917 806.795 111.668 807.9 108.583 809.355Z" fill="#161614"/>
<path d="M47.5186 743.495C54.9718 744.725 89.9218 755.795 95.7038 759.305C96.6408 760.82 96.3868 761.375 96.2628 763.115C90.4608 762.625 53.6063 749.54 49.1138 746.255C47.9099 745.375 47.7848 744.855 47.5186 743.495Z" fill="#161614"/>
<path d="M33.8379 751.635C34.5654 751.75 35.2888 751.895 35.9915 752.115C42.2893 754.105 48.5287 756.99 54.6957 759.39C59.1687 761.135 64.1207 762.57 68.3877 764.725C69.5307 765.3 71.1112 766.2 71.6742 767.415C72.0722 768.275 71.8037 768.605 71.5082 769.44C71.1362 769.45 70.7647 769.465 70.3927 769.47C68.9657 769.48 67.7417 769.355 66.3837 768.89C63.5022 767.905 34.2387 753.775 33.2344 752.8L33.8379 751.635Z" fill="#161614"/>
<path d="M148.008 804.17C144.589 803.39 140.529 802.795 137.727 800.57L137.752 799.82C141.56 798.055 147.026 799.53 151.027 800.155C149.82 800.935 148.616 801.445 148.185 802.935C148.044 803.42 148.044 803.695 148.008 804.17Z" fill="#161614"/>
<path d="M669.685 922.63C670.65 922.83 671.155 922.975 671.97 923.58C673.155 927.615 669.045 929.31 669.12 932.675C673.165 933.955 675.355 931.195 678.905 930.195C679.915 929.91 680.73 930.185 681.545 930.79C683.315 932.11 683.445 935.065 683.795 937.09C686.36 936.305 689.525 935.045 692.235 935.12C695.295 935.205 695.37 937.355 697.315 939.065C701.23 942.515 707.59 939.85 712.195 939.695L712.775 939.675C715.3 940.75 717.41 942.67 719.925 943.685C723.095 944.965 728.19 943.825 730.43 946.75L730.255 947.56C729.765 947.875 729.33 948.16 728.77 948.33C724.59 949.595 720.5 948.98 716.705 947.01C715.1 945.805 713.33 944.845 711.59 943.85C707.275 944.08 702.185 945.915 698 944.335C694.91 943.165 693.975 940.85 692.825 938.015C690.39 938.7 687.56 939.78 685.05 940.02C683.515 940.165 681.975 939.98 680.79 938.92C679.105 937.41 679.15 935.165 678.95 933.075C677.665 933.705 676.37 934.325 675.065 934.93C672.935 935.92 670.04 937.195 667.69 936.18C666.795 935.79 666.285 935.19 665.995 934.265C665.085 931.34 667.785 927.455 669.155 924.97C666.23 926.335 663.35 927.91 660.375 929.155C659.23 929.635 658.035 930.175 656.87 929.69L657.515 928.545C661.395 926.265 665.275 923.725 669.685 922.63Z" fill="#161614"/>
<path d="M645.405 943.07C651.05 942.715 709.28 957.16 712.635 959.52C713.64 960.23 713.505 961.585 713.625 962.68C713.205 962.74 713 962.79 712.595 962.78C708.95 962.69 699.01 959.055 694.94 957.925C679.36 953.61 663.135 950.005 647.88 944.65C646.885 944.305 646.135 943.835 645.405 943.07Z" fill="#161614"/>
<path d="M645.905 975.42C651.985 978.42 659.95 971.68 667.03 976.28C668.565 977.28 669.96 979.02 671.22 980.355C673.105 980.575 675.21 980.64 677.02 981.175C676.88 982.38 676.98 982.975 677.83 983.915C679 985.205 680.675 985.955 681.865 987.31C680.27 986.99 678.99 986.06 677.47 985.53C670.905 983.245 668.4 983.505 663.45 977.95C658.415 977.885 654.345 979.01 649.445 979.635C646.39 980.025 645.01 979.665 642.57 977.775C643.43 976.385 643.545 976.18 645.03 975.52L645.555 975.945L645.905 975.42Z" fill="black"/>
<path d="M621.04 972.38C621.375 972.16 621.715 971.949 622.05 971.734C627.58 968.169 642.82 961.444 649 962.969C650.315 963.294 650.605 963.824 651.285 964.869C651.6 968.669 647.68 971.655 646.11 974.96C646.04 975.115 645.97 975.264 645.905 975.419L645.555 975.945L645.03 975.52C643.545 976.18 643.43 976.385 642.57 977.775C642.43 977.35 642.33 977.125 642.255 976.71C641.69 973.47 647.005 967.685 648.89 965.195C639.015 966.085 630.735 971.305 621.04 972.38Z" fill="#161614"/>
<path d="M677.02 981.175C679.805 982.33 682.23 983.75 685.165 984.565C687.155 985.12 689.63 984.99 691.47 985.78C690.22 986.67 688.275 986.7 686.775 986.91C686.655 986.805 686.535 986.7 686.415 986.595C685.345 985.685 684.77 985.255 683.37 985.07C683.55 986.335 685.395 986.335 685.18 987.74C684.07 987.635 682.95 987.59 681.865 987.31C680.675 985.955 679 985.205 677.83 983.915C676.98 982.975 676.88 982.38 677.02 981.175Z" fill="#161614"/>
<path d="M664.885 860.99C679.83 850.8 695.265 841.105 709.845 830.405C716.825 825.28 730.205 812.63 737 809.395V819.13C719.915 835.27 697.655 849.71 677.76 862.51L706.07 866.7C710.925 867.38 716.605 867.564 721.27 869.039C722.205 869.334 723.01 869.699 723.565 870.549C724.02 871.244 723.79 871.409 723.63 872.174C720.985 874.394 715.73 873.89 712.51 873.625C698.59 872.485 684.69 868.59 670.805 867.905C648.54 881.565 628.92 902.485 607.635 918.08C576.22 941.095 543.23 961.844 511.715 984.734C503.805 990.479 496.23 996.73 488.524 1002.75C479.698 1009.65 469.472 1016.07 461.57 1024H457.66C462.281 1014.79 471.91 1008.66 479.613 1002.19C487.25 995.79 494.797 989.265 502.61 983.075C508.215 978.64 514.075 974.535 519.585 969.99C513.465 968.085 498.839 965.549 494.844 961.039C494.087 960.184 493.878 958.995 494.024 957.875C494.578 953.635 506.875 944.205 510.445 941.25C526.955 927.565 543.22 913.334 558.205 897.974C572.04 883.794 584.69 868.385 599.78 855.49C610.735 855.045 621.715 857.395 632.605 858.365C643.33 859.32 654.23 859.27 664.885 860.99ZM499.394 958.57C507.895 961.03 516.275 963.915 524.845 966.13C531.065 962.075 536.925 957.42 543.18 953.45C563.515 939.135 584.495 925.5 604.15 910.26C622.535 896.01 639.655 880.275 658.14 866.135C648.095 865.365 638.03 865.145 628 864.09C619.375 863.18 610.85 861.449 602.22 860.539C584.51 877.649 568.86 896.725 551.015 913.68C542.225 922.025 533.215 930.325 523.9 938.075C515.72 944.88 507.11 951.235 499.394 958.57Z" fill="#161614"/>
<path d="M598.85 882.045C603.755 882.385 620.19 884.115 623.89 885.75C625.01 886.99 624.83 887.245 624.875 888.86C619.435 889.66 605.94 887.34 601.105 884.78C599.55 883.955 599.39 883.625 598.85 882.045Z" fill="#161614"/>
<path d="M590.14 895.67C594.785 895.165 600.61 895.9 604.95 897.66C606.94 898.46 607.545 899.115 608.35 901.02C603.745 901.01 595.085 899.95 591.245 897.525C590.31 896.935 590.34 896.69 590.14 895.67Z" fill="#161614"/>
<path d="M0 697.775C7.6945 697.375 16.3852 700.595 23.9487 702.205C32.559 704.035 41.3282 705.665 50.048 706.87C74.3715 710.235 99.1275 708.365 123.437 711.675C143.107 714.355 161.823 719.97 181.237 723.77C195.24 726.51 209.387 727.66 223.607 728.5C236.05 729.23 285.503 731.13 293.677 738.435C294.342 739.03 294.569 739.62 294.694 740.5C293.872 741.665 293.474 741.795 292.046 742.055C284.606 743.41 267.243 739.05 258.928 738.17C238.124 735.965 217.271 736.985 196.542 733.71C170.934 729.66 146.351 721.405 120.726 717.63C105.771 715.425 90.5535 715.91 75.502 715.05C56.5695 713.97 37.0098 710.895 18.5689 706.445C13.3737 705.19 6.63535 704.2 2.33586 700.915C1.51635 700.29 0.7502 699.6 0 698.895V697.775Z" fill="#161614"/>
<path d="M0 750.4C10.1882 746.2 20.6636 742.64 30.9418 738.66C38.2434 735.83 46.3427 731.12 54.1025 730.13C62.025 729.125 67.708 733.58 75.015 735.335C85.7395 737.915 96.629 739.54 107.387 741.895C120.015 744.655 132.724 748.565 144.661 753.545C145.219 753.775 145.522 753.9 145.867 754.425C145.735 756.625 144.46 758.45 142.852 759.895C138.346 763.945 130.532 767.15 124.993 769.645C116.427 773.505 107.504 776.565 98.799 780.095C87.6615 784.615 76.695 789.57 65.5225 793.995C56.2735 797.665 46.8117 800.845 37.4799 804.3C26.1732 808.49 14.4418 814.115 2.80578 816.985C20.6454 806.645 39.4299 799.38 58.4725 791.71C70.7945 786.745 82.8825 781.175 95.134 776.035C110.865 769.435 126.281 763.485 141.388 755.415C131.874 754.415 122.86 750.565 113.616 748.285C102.011 745.42 90.0005 744.14 78.402 741.32C71.033 739.53 64.061 736.185 56.774 734.075C46.0948 736.865 36.254 741.585 25.8787 745.285C17.4875 748.275 8.0745 750.53 0 754.15V750.4Z" fill="#161614"/>
<path d="M556.15 992.885C566.635 980.49 579.485 970.74 592.21 960.82C602.935 952.465 613.74 944.035 624.13 935.27C636.915 924.48 648.49 911.65 661.845 901.635C663.895 900.1 666.3 899.075 668.885 898.96C675.1 898.68 682.17 900.405 688.41 901.14C704.63 902.95 720.83 904.96 737 907.165V912.915C722.17 910.025 706.995 908.92 692.065 906.725C683.66 905.485 675.35 903.5 667.07 901.615C641.53 930.395 610.66 955.605 579.375 977.935C572.015 983.19 564.4 989.16 556.15 992.885Z" fill="#161614"/>
</g>
<defs>
<clipPath id="clip0_54_3799">
<rect width="737" height="1024" fill="white"/>
</clipPath>
</defs>
</svg>
