<svg width="815" height="1345" viewBox="0 0 815 1345" fill="none" xmlns="http://www.w3.org/2000/svg">
<path d="M452.242 217.201L452.71 216.703C453.865 215.463 455.222 214.001 455.607 212.308C457.314 204.799 457.017 196.082 458.178 188.354C461.192 168.287 471.864 117.238 480.708 100.664C482.938 96.4868 486.642 90.7981 491.898 90.4277C494.755 90.2267 497.208 91.688 499.203 93.5866C512.689 106.423 529.532 173.994 534.097 194.246C552.258 194.202 571.322 198.185 586.085 209.111C609.227 226.239 616.948 224.955 644.193 224.098C665.588 223.376 686.977 222.477 708.354 221.401C726.512 220.643 761.372 209.976 759.585 237.682C758.377 256.368 749.005 285.351 739.266 301.172C734.886 308.21 729.573 314.621 723.465 320.23C706.397 336.145 687.779 344.831 667.906 357.377C638.904 375.686 617.825 411.37 613.709 445.27C613.634 445.893 613.698 445.938 613.855 446.474C615.132 451.303 615.175 456.674 615.799 461.64C617.07 471.754 617.898 485.248 620.115 495.034L622.988 495.292L623.169 496.215L620.783 499.763C623.194 511.601 626.229 524.922 628.511 536.555C629.615 542.183 629.098 562.89 628.934 569.187C628.662 579.688 628.817 594.238 627.809 604.415C628.573 607.31 629.33 610.268 630.173 613.113C637.056 636.353 635 661.749 630.085 685.169C628.724 691.657 627.144 699.4 624.196 705.422C622.326 708.897 619.294 710.893 617.689 715.339C618.092 719.496 611.159 749.976 610.04 756.438C607.566 771.116 605.548 785.866 603.992 800.676C602.657 813.87 602.345 864.031 596.564 871.768C595.495 873.199 594.82 873.344 593.187 873.58C590.8 872.838 590.132 871.82 588.502 869.975C588.475 877.993 588.383 886.203 588.71 894.195C589.117 904.171 590.069 913.543 589.695 923.551C591.686 937.737 591.379 952.093 592.444 966.338C594.115 988.7 596.269 1010.8 597.61 1033.2C614.335 1037.3 631.892 1042.5 648.549 1047.74C661.365 1052.41 678.355 1055.7 690.222 1062.4C733.901 1087.05 772.089 1123.53 800.591 1164.69C804.703 1170.62 810.186 1183.94 801.688 1188.68C799.784 1189.75 797.203 1190.16 795.016 1190.26C787.831 1190.32 781.218 1189.29 773.968 1189.75C732.797 1192.35 697.157 1215.29 661.398 1233.56C649.97 1239.4 638.337 1244.66 626.784 1250.23C602.007 1262.5 581.902 1273.9 553.764 1276.96C538.643 1282.16 515.753 1290.6 500.074 1293.66C414.125 1310.43 321.724 1319.62 235.943 1297.08C212.718 1290.98 193.26 1281.49 171.644 1273.58C104.148 1248.85 43.5058 1203.6 34.5739 1127.44C29.1639 1082.27 48.6197 1033.08 77.6641 998.505C85.755 988.871 98.2919 982.579 106.911 971.815C108.233 951.581 101.511 921.154 101.591 898.418C101.728 859.237 112.555 833.197 121.656 796.105C128.465 768.358 134.989 740.564 146.135 714.085C170.015 657.349 219.048 615.168 265.707 577.137C279.9 565.569 294.994 554.828 308.72 542.687C316.85 535.495 324.987 527.18 332.703 519.5C336.266 515.196 339.166 510.032 342.19 505.551C358.901 480.788 359.955 454.55 360.524 425.63C360.758 413.71 361.636 401.128 361.236 389.032C360.856 377.539 357.303 369.964 361.516 358.458C361.968 356.137 362.303 353.081 362.636 350.681L365.439 345.414C353.249 326.434 343.893 304.855 339.201 282.763C331.913 248.444 320.483 152.444 339.151 124.474C340.915 121.83 343.721 119.02 347.017 118.544C360.059 116.661 413.162 172.14 423.597 184.518C429.565 191.598 443.504 212.249 449.62 216.148C449.712 216.207 449.808 216.26 449.902 216.317L452.242 217.201ZM691.542 232.287C692.087 233.582 693.335 235.642 692.697 236.891C690.011 242.161 683.851 245.891 679.839 249.81C647.512 281.351 615.975 299.347 570.843 305.214C548.689 308.094 519.091 328.604 500.377 342.378C488.371 354.751 462.868 378.326 460.583 395.54C472.505 390.652 477.541 390.01 490.35 388.812C485.429 392.082 476.564 397.682 472.523 401.494C461.346 408.991 442.911 423.102 434.037 433.247C437.954 432.064 446.061 428.812 449.405 430.492C452.438 435.706 443.911 447.108 448.042 452.261L449.183 452.815C461.224 460.002 496.441 421.98 503.445 436.139C504.293 447.114 478.736 492.198 480.744 494.873C482.494 495.051 483.25 495.101 485.003 494.999L490.449 494.942L492.947 495.217L493.482 496.196C491.677 500.774 475.276 520.411 471.125 526.222C459.933 541.885 427.324 596.971 435.443 615.998C436.071 617.469 436.766 618.568 438.082 619.5C442.035 620.421 458.847 613.74 464.306 612.197C467.229 622.575 467.074 624.687 468.348 634.594C469.653 644.748 466.872 688.623 474.31 693.082C480.734 693.397 493.578 680.775 498.691 688.873C503.164 695.952 505.236 718.078 506.536 726.786L515.23 785.801C515.942 790.733 518.074 808.136 519.738 811.683C521.162 805.923 524.659 788.959 528.794 785.86C533.39 789.012 525.085 844.703 524.562 852.341C524.62 854.811 524.318 858.048 525.582 859.94C527.81 857.819 537.863 840.251 540.135 836.494C547.184 820.943 566.224 783.607 576.475 770.985C579.69 765.593 581.907 755.354 584.783 749.22C588.352 741.609 594.458 732.927 597.527 725.44C605.042 707.11 603.259 684.965 606.929 665.906C609.009 655.106 612.741 649.627 614.061 637.734C617.626 640.152 618.549 640.139 622.687 641.28C626.133 663.253 624.656 676.086 621.094 698.435C620.222 703.905 618.531 710.105 617.689 715.339C619.294 710.893 622.326 708.897 624.196 705.422C627.144 699.4 628.724 691.657 630.085 685.169C635 661.749 637.056 636.353 630.173 613.113C629.33 610.268 628.573 607.31 627.809 604.415C628.817 594.238 628.662 579.688 628.934 569.187C629.098 562.89 629.615 542.183 628.511 536.555C626.229 524.922 623.194 511.601 620.783 499.763L623.169 496.215L622.988 495.292L620.115 495.034C617.898 485.248 617.07 471.754 615.799 461.64C615.175 456.674 615.132 451.303 613.855 446.474C613.698 445.938 613.634 445.893 613.709 445.27C617.825 411.37 638.904 375.686 667.906 357.377C687.779 344.831 706.397 336.145 723.465 320.23C729.573 314.621 734.886 308.21 739.266 301.172C749.005 285.351 758.377 256.368 759.585 237.682C761.372 209.976 726.512 220.643 708.354 221.401C686.977 222.477 665.588 223.376 644.193 224.098C616.948 224.955 609.227 226.239 586.085 209.111C571.322 198.185 552.258 194.202 534.097 194.246C529.532 173.994 512.689 106.423 499.203 93.5866C497.208 91.688 494.755 90.2267 491.898 90.4277C486.642 90.7981 482.938 96.4868 480.708 100.664C471.864 117.238 461.192 168.287 458.178 188.354C457.017 196.082 457.314 204.799 455.607 212.308C455.222 214.001 453.865 215.463 452.71 216.703L452.242 217.201C458.013 223.604 478.606 213.339 486.395 211.346C505.89 206.36 525.65 203.862 545.783 204.041C567.716 204.631 589.251 226.462 609.587 232.048C620.958 235.172 636.83 233.548 648.972 233.281C663.164 233.041 677.356 232.709 691.542 232.287Z" fill="#F03905"/>
<path d="M452.242 217.201L452.71 216.703C453.865 215.463 455.222 214.001 455.607 212.308C457.314 204.799 457.017 196.082 458.178 188.354C461.192 168.287 471.864 117.238 480.708 100.664C482.938 96.4868 486.642 90.7981 491.898 90.4277C494.755 90.2267 497.208 91.688 499.203 93.5866C512.689 106.423 529.532 173.994 534.097 194.246C552.258 194.202 571.322 198.185 586.085 209.111C609.227 226.239 616.948 224.955 644.193 224.098C665.588 223.376 686.977 222.477 708.354 221.401C726.512 220.643 761.372 209.976 759.585 237.682C758.377 256.368 749.005 285.351 739.266 301.172C734.886 308.21 729.573 314.621 723.465 320.23C706.397 336.145 687.779 344.831 667.906 357.377C638.904 375.686 617.825 411.37 613.709 445.27C613.634 445.893 613.698 445.938 613.855 446.474C615.132 451.303 615.175 456.674 615.799 461.64C617.07 471.754 617.898 485.248 620.115 495.034L622.988 495.292L623.169 496.215L620.783 499.763C623.194 511.601 626.229 524.922 628.511 536.555C629.615 542.183 629.098 562.89 628.934 569.187C628.662 579.688 628.817 594.238 627.809 604.415C628.573 607.31 629.33 610.268 630.173 613.113C637.056 636.353 635 661.749 630.085 685.169C628.724 691.657 627.144 699.4 624.196 705.422C622.326 708.897 619.294 710.893 617.689 715.339C618.531 710.105 620.222 703.905 621.094 698.435C624.656 676.086 626.133 663.253 622.687 641.28C618.549 640.139 617.626 640.152 614.061 637.734C612.741 649.627 609.009 655.106 606.929 665.906C603.259 684.965 605.042 707.11 597.527 725.44C594.458 732.927 588.352 741.609 584.783 749.22C581.907 755.354 579.69 765.593 576.475 770.985C566.224 783.607 547.184 820.943 540.135 836.494C537.863 840.251 527.81 857.819 525.582 859.94C524.318 858.048 524.62 854.811 524.562 852.341C525.085 844.703 533.39 789.012 528.794 785.86C524.659 788.959 521.162 805.923 519.738 811.683C518.074 808.136 515.942 790.733 515.23 785.801L506.536 726.786C505.236 718.078 503.164 695.952 498.691 688.873C493.578 680.775 480.734 693.397 474.31 693.082C466.872 688.623 469.653 644.748 468.348 634.594C467.074 624.687 467.229 622.575 464.306 612.197C458.847 613.74 442.035 620.421 438.082 619.5C436.766 618.568 436.071 617.469 435.443 615.998C427.324 596.971 459.933 541.885 471.125 526.222C475.276 520.411 491.677 500.774 493.482 496.196L492.947 495.217L490.449 494.942L485.003 494.999C483.25 495.101 482.494 495.051 480.744 494.873C478.736 492.198 504.293 447.114 503.445 436.139C496.441 421.98 461.224 460.002 449.183 452.815L448.042 452.261C443.911 447.108 452.438 435.706 449.405 430.492C446.061 428.812 437.954 432.064 434.037 433.247C442.911 423.102 461.346 408.991 472.523 401.494C476.564 397.682 485.429 392.082 490.35 388.812C477.541 390.01 472.505 390.652 460.583 395.54C462.868 378.326 488.371 354.751 500.377 342.378C519.091 328.604 548.689 308.094 570.843 305.214C615.975 299.347 647.512 281.351 679.839 249.81C683.851 245.891 690.011 242.161 692.697 236.891C693.335 235.642 692.087 233.582 691.542 232.287C677.356 232.709 663.164 233.041 648.972 233.281C636.83 233.548 620.958 235.172 609.587 232.048C589.251 226.462 567.716 204.631 545.783 204.041C525.65 203.862 505.89 206.36 486.395 211.346C478.606 213.339 458.013 223.604 452.242 217.201ZM671.873 339.953C689.164 332.451 712.472 316.501 724.614 302.064C728.896 296.977 731.773 290.594 734.163 284.428C727.813 288.945 720.97 293.337 714.448 297.652C706.029 309.123 682.269 329.651 671.873 339.953ZM729.409 277.741C733.933 274.576 742.845 266.422 740.612 260.483C738.563 258.696 734.249 257.373 731.556 256.369C731.641 263.983 731.812 270.33 729.409 277.741Z" fill="#F4F4F0"/>
<path d="M452.242 217.201L452.71 216.703C453.865 215.463 455.223 214.001 455.607 212.308C457.314 204.799 457.017 196.082 458.178 188.354C461.192 168.287 471.864 117.238 480.708 100.664C482.938 96.4868 486.642 90.7981 491.898 90.4277C494.755 90.2267 497.208 91.688 499.203 93.5866C512.689 106.423 529.532 173.994 534.097 194.246C552.258 194.202 571.322 198.185 586.086 209.111C609.227 226.239 616.948 224.955 644.194 224.098C665.588 223.376 686.977 222.477 708.354 221.401C726.513 220.643 761.372 209.976 759.585 237.682C758.377 256.368 749.006 285.351 739.266 301.172C734.886 308.21 729.573 314.621 723.465 320.23C706.397 336.145 687.779 344.831 667.906 357.377C638.904 375.686 617.825 411.37 613.71 445.27C613.634 445.893 613.698 445.938 613.855 446.474C615.132 451.303 615.175 456.674 615.799 461.64C617.07 471.754 617.898 485.248 620.115 495.034L622.988 495.292L623.169 496.215L620.783 499.763C623.194 511.601 626.229 524.922 628.511 536.555C629.615 542.183 629.098 562.89 628.934 569.187C628.662 579.688 628.818 594.238 627.809 604.415C628.573 607.31 629.33 610.268 630.173 613.113C637.056 636.353 635 661.749 630.085 685.169C628.724 691.657 627.144 699.4 624.196 705.422C622.327 708.897 619.294 710.893 617.689 715.339C618.531 710.105 620.222 703.905 621.094 698.435C624.657 676.086 626.133 663.253 622.687 641.28C618.549 640.139 617.626 640.152 614.061 637.734C610.147 627.1 608.086 612.504 605.377 601.318C596.021 562.684 581.397 562.563 599.505 525.5V494.961C596.478 440.026 607.607 380.486 658.193 349.158C662.39 346.561 667.368 343.387 671.255 340.429L671.873 339.953C689.164 332.451 712.472 316.501 724.615 302.064C728.896 296.977 731.773 290.594 734.163 284.428C727.813 288.945 720.97 293.337 714.448 297.652C706.423 301.157 699.088 305.886 690.182 309.458C671.065 317.13 651.83 322.928 632.355 329.538C626.045 331.679 613.495 340.743 608.284 339.31L607.908 337.686C611.695 322.832 638.113 317.39 650.621 312.808C676.352 303.386 707.172 294.003 729.409 277.741C733.934 274.576 742.845 266.422 740.612 260.483C738.563 258.696 734.249 257.373 731.556 256.369C716.957 249.64 712.82 247.343 710.994 231.144C704.512 231.557 698.03 231.939 691.542 232.287C677.356 232.709 663.164 233.041 648.973 233.281C636.83 233.548 620.959 235.172 609.587 232.048C589.251 226.462 567.716 204.631 545.783 204.041C525.65 203.862 505.891 206.36 486.395 211.346C478.606 213.339 458.013 223.604 452.242 217.201Z" fill="#161515"/>
<path d="M613.855 446.474C615.132 451.303 615.175 456.674 615.799 461.64C617.07 471.753 617.898 485.248 620.115 495.034C617.449 495.152 616.65 495.217 613.985 494.752C611.397 491.071 611.788 451.427 613.855 446.474Z" fill="#F4F4F0"/>
<path d="M622.059 594.853L621.655 605.735L620.142 597.022L622.059 594.853Z" fill="#DFDEDF"/>
<path d="M449.183 452.814C452.967 451.637 456.473 450.311 459.949 448.37C468.898 443.37 498.024 421.944 508.944 427.208C509.533 427.493 509.964 428.254 510.151 428.873C512.814 437.693 489.528 483.999 485.003 494.999C483.25 495.101 482.494 495.051 480.744 494.873C478.736 492.198 504.293 447.114 503.445 436.139C496.441 421.98 461.224 460.002 449.183 452.814Z" fill="#C92704"/>
<path d="M472.523 401.494C465.985 418.447 456.232 435.835 448.042 452.261C443.911 447.108 452.438 435.706 449.405 430.492C446.061 428.812 437.954 432.064 434.037 433.247C442.911 423.102 461.346 408.991 472.523 401.494Z" fill="#B6624E"/>
<path d="M614.061 637.733C617.626 640.152 618.549 640.138 622.687 641.28C626.133 663.253 624.657 676.086 621.094 698.434C620.222 703.905 618.531 710.105 617.689 715.339C618.093 719.496 611.16 749.975 610.04 756.438C607.566 771.116 605.548 785.866 603.992 800.675C602.657 813.869 602.345 864.031 596.564 871.767C595.495 873.199 594.82 873.344 593.187 873.58C590.8 872.838 590.132 871.82 588.502 869.974C588.475 877.993 588.383 886.202 588.71 894.195C589.117 904.171 590.069 913.542 589.695 923.551C591.686 937.737 591.38 952.093 592.444 966.338C594.115 988.7 596.27 1010.8 597.61 1033.2C614.335 1037.3 631.892 1042.5 648.549 1047.74C661.365 1052.41 678.355 1055.7 690.222 1062.4C733.901 1087.05 772.09 1123.53 800.592 1164.69C804.703 1170.62 810.186 1183.93 801.688 1188.68C799.784 1189.75 797.203 1190.16 795.016 1190.26C787.831 1190.32 781.218 1189.29 773.968 1189.75C732.798 1192.35 697.157 1215.29 661.398 1233.56C649.97 1239.4 638.338 1244.66 626.784 1250.23C602.007 1262.5 581.902 1273.9 553.764 1276.96C534.689 1268.13 562.734 1257.13 570.266 1254.37C585.859 1250.46 596.878 1244.02 611.295 1237.96C656.494 1218.94 696.73 1190.42 744.343 1177.28C760.085 1172.93 769.804 1174.81 784.581 1172.57C780.338 1164.55 762.626 1143.51 755.619 1136.52C734.406 1115.36 706.719 1091.24 680.128 1077.29C667.394 1070.6 642.575 1065.75 627.921 1061.05L625.059 1059.8C620.71 1051.35 595.759 1046.57 586.694 1045.62C529.277 1039.56 467.322 1049.48 412.656 1067.3C354.31 1086.32 295.722 1112.07 232.968 1098.04C219.736 1095.11 209.73 1092.68 199.708 1082.81C213.015 1084.54 220.984 1088.43 233.639 1092.1C242.022 1094.54 256.659 1094.65 265.505 1094.27C276.929 1093.8 288.309 1092.57 299.567 1090.58C317.385 1087.49 367.11 1075.84 383.543 1065.52C385.998 1061.33 389.742 1051.27 391.685 1047.62C409.358 1014.37 423.386 973.956 419.631 935.937C417.85 917.897 405.594 891.857 394.636 877.317C386.965 867.137 371.551 853.937 361.784 845.439C355.637 840.763 344.547 835.016 336.969 829.184C338.016 829.559 339.054 829.966 340.08 830.399C349.828 834.484 357.46 839.515 366.212 844.342C394.588 860.018 406.413 876.22 419.834 905.504C423.222 912.892 424.888 921.305 427.919 928.858C428.823 931.11 429.743 931.859 431.981 932.732L432.131 932.187C434.923 929.436 439.183 923.886 442.55 920.353C434.217 887.174 422.164 841.827 427.756 808.261C435.539 810.441 435.585 831.01 436.839 838.28C441.829 867.19 450.851 894.93 460.2 922.678C465.343 938.971 468.619 952.08 474.496 968.63C476.286 970.022 477.324 971.165 479.603 971.033C481.339 970.252 482.318 969.779 483.938 968.781C489.259 958.647 491.961 951.738 502.099 945.887L511.525 947.686C512.431 930.795 511.194 912.176 511.296 894.957C511.471 865.601 514.748 840.428 519.738 811.682C521.162 805.923 524.659 788.959 528.795 785.859C533.39 789.012 525.085 844.703 524.562 852.341C524.62 854.81 524.318 858.048 525.582 859.939C527.81 857.818 537.863 840.25 540.135 836.494C547.184 820.942 566.224 783.607 576.475 770.984C579.69 765.592 581.908 755.354 584.783 749.22C588.352 741.608 594.458 732.926 597.527 725.439C605.042 707.11 603.259 684.965 606.929 665.906C609.009 655.105 612.742 649.627 614.061 637.733Z" fill="#161515"/>
<path d="M614.061 637.733C617.626 640.152 618.549 640.138 622.687 641.28C626.133 663.253 624.656 676.086 621.094 698.434C620.222 703.905 618.531 710.105 617.689 715.339C618.092 719.496 611.159 749.975 610.04 756.438C607.566 771.116 605.548 785.866 603.992 800.675C602.657 813.869 602.345 864.031 596.564 871.767C595.495 873.199 594.82 873.344 593.187 873.58C590.8 872.838 590.132 871.82 588.502 869.974C588.475 877.993 588.383 886.202 588.71 894.195C589.117 904.171 590.069 913.542 589.695 923.551C574.68 908.919 567.402 934.886 564.598 945.926C557.301 974.645 552.705 1001.09 563.179 1029.75C557.339 1029.75 548.514 1030 542.914 1029.56C539.703 1029.63 536.045 1030.12 533.677 1027.97C527.263 1013.68 522.656 906.903 523.419 886.734C522.317 881.152 523.871 858.193 524.562 852.341C524.62 854.81 524.318 858.048 525.582 859.939C527.81 857.818 537.863 840.25 540.135 836.494C547.184 820.942 566.224 783.607 576.475 770.984C579.69 765.592 581.907 755.354 584.783 749.22C588.352 741.608 594.458 732.926 597.527 725.439C605.042 707.11 603.259 684.965 606.929 665.906C609.009 655.105 612.741 649.627 614.061 637.733Z" fill="#C92704"/>
<path d="M617.114 649.798C628.802 677.018 608.709 732.427 599.04 759.958C581.106 811.013 582.567 860.38 585.226 913.654C578.395 915.9 569.854 918.797 566.802 926.769C558.943 947.292 553.62 974.718 551.095 996.567C550.723 999.792 555.48 1010.89 554.339 1017.06L553.565 1016.94C547.741 1007.31 549.776 1003.54 548.007 993.146L538.797 937.29C534.983 913.057 525.992 886.57 530.161 861.956C532.436 848.526 545.94 846.424 553.55 837.427C561.012 827.694 580.84 793.156 578.791 781.269C578.851 780.638 579.472 778.701 579.685 777.979C581.132 770.4 582.146 763.517 585.197 756.379C589.706 745.825 599.775 733.485 602.417 722.609C608.83 696.215 605.795 675.508 617.114 649.798Z" fill="#F03905"/>
<path d="M523.419 886.735C523.833 883.799 524.22 880.863 524.583 877.928L536.009 944.915C539.896 968.295 542.546 991.813 549.77 1014.46C551.317 1019.31 552.899 1024.15 554.503 1028.98C550.838 1029.15 546.512 1029.24 542.914 1029.56C539.703 1029.63 536.045 1030.12 533.677 1027.97C527.263 1013.68 522.656 906.903 523.419 886.735Z" fill="#F4F4F0"/>
<path d="M588.502 869.974C587.182 825.178 592.77 781.492 609.49 739.986C612.65 732.145 614.436 723.22 617.689 715.339C618.092 719.496 611.159 749.975 610.04 756.438C607.566 771.116 605.548 785.866 603.992 800.675C602.657 813.869 602.345 864.031 596.563 871.767C595.495 873.199 594.82 873.344 593.186 873.58C590.8 872.838 590.131 871.82 588.502 869.974Z" fill="#161515"/>
<path d="M576.475 770.984C578.442 773.526 579.049 774.721 579.685 777.979C579.471 778.701 578.851 780.638 578.79 781.269C569.875 800.019 561.264 819.918 548.878 836.652C545.124 841.722 543.03 841.479 540.135 836.494C547.184 820.942 566.224 783.607 576.475 770.984Z" fill="#161515"/>
<path d="M442.55 920.353C454.661 959.626 466.027 996.278 477.188 1035.9C450.258 1042.53 425.883 1047.35 399.713 1057.16C416.766 1025.74 433.131 992.41 434.037 955.764C434.27 946.294 432.592 941.04 431.981 932.733L432.131 932.187C434.923 929.436 439.183 923.886 442.55 920.353Z" fill="#F4F4F0"/>
<path d="M474.496 968.63C476.286 970.022 477.323 971.165 479.603 971.033C481.339 970.252 482.318 969.779 483.938 968.781C482.221 973.523 480.453 978.251 478.635 982.953C477.206 978.862 475.707 972.932 474.496 968.63Z" fill="#C92704"/>
<path d="M627.921 1061.05C642.575 1065.75 667.394 1070.6 680.128 1077.29C706.719 1091.24 734.406 1115.37 755.619 1136.53C762.626 1143.51 780.338 1164.55 784.58 1172.57C769.804 1174.81 760.084 1172.93 744.343 1177.28C696.73 1190.42 656.494 1218.94 611.295 1237.96C596.878 1244.02 585.859 1250.46 570.266 1254.37C538.859 1255.8 550.153 1243.36 564.152 1228.23C568.524 1224.52 577.054 1216.94 572.929 1210.91C566.164 1206.82 555.801 1212.88 551.131 1208.54C551.065 1206.31 550.882 1207.17 552.458 1205.1C552.042 1194.49 594.606 1171.38 564.681 1165.44C554.096 1163.33 539.699 1164.01 528.72 1163.5C523.123 1163.25 517.551 1162.61 512.042 1161.59C507.84 1160.79 501.692 1159.62 499.26 1155.65C498.006 1153.6 498.14 1151.2 498.734 1148.96C503.847 1129.68 565.182 1124.64 581.978 1114.6C583.848 1113.49 585.715 1112.25 586.209 1109.99C588.648 1098.84 548.563 1093.02 544.037 1085.56C543.962 1085.43 543.897 1085.31 543.828 1085.18C541.734 1084.34 539.973 1083.84 538.476 1082.13C536.841 1075.4 556.214 1071.47 561.651 1069.43C568.885 1067.87 580.672 1062.08 588.02 1061.68C603.15 1060.88 612.194 1062.9 627.921 1061.05Z" fill="#F4F4F0"/>
<path d="M543.828 1085.18C555.648 1088 581.63 1095.75 590.936 1105.67C595.041 1110.05 587.891 1116.35 584.186 1117.68C569.669 1126.73 507.438 1134.42 502.023 1149.84C503.346 1167.32 568.358 1149.04 581.713 1171.5C576.085 1181.78 561.882 1198.38 552.458 1205.1C552.042 1194.49 594.606 1171.38 564.681 1165.44C554.096 1163.33 539.699 1164.01 528.72 1163.5C523.123 1163.25 517.551 1162.61 512.042 1161.59C507.84 1160.79 501.692 1159.62 499.26 1155.65C498.006 1153.6 498.14 1151.2 498.734 1148.96C503.847 1129.68 565.182 1124.64 581.978 1114.6C583.848 1113.49 585.715 1112.25 586.209 1109.99C588.648 1098.84 548.563 1093.02 544.037 1085.56C543.962 1085.43 543.897 1085.31 543.828 1085.18Z" fill="#C92704"/>
<path d="M365.439 345.414C353.249 326.434 343.893 304.855 339.201 282.763C331.913 248.444 320.483 152.444 339.151 124.474C340.915 121.83 343.721 119.02 347.018 118.544C360.06 116.661 413.163 172.14 423.597 184.518C429.566 191.598 443.504 212.249 449.62 216.148C449.712 216.207 449.808 216.26 449.902 216.316C449.008 220.435 452.526 224.534 449.962 228.697C449.241 229.077 448.03 229.921 447.347 229.45C438.804 223.55 429.541 210.077 422.983 202.137C411.242 187.831 398.932 174.003 386.081 160.687C377.022 151.434 362.678 138.319 351.566 131.55C348.144 175.221 356.342 209.268 371.136 250.221C375.668 262.765 405.34 308.253 403.436 314.909C395.828 318.266 376.531 282.306 372.814 275.55C362.776 274.987 357.379 273.325 347.54 270.779C350.086 280.3 352.34 290.133 355.599 299.43C358.654 308.144 378.057 347.769 374.687 353.62C374.443 354.042 374.374 354.108 374.052 354.551C370.776 351.634 368.317 348.7 365.439 345.414Z" fill="#1A1514"/>
<path d="M106.911 971.815C108.233 951.581 101.511 921.154 101.591 898.418C101.728 859.237 112.555 833.197 121.656 796.105C128.465 768.358 134.989 740.564 146.135 714.085C170.015 657.349 219.048 615.168 265.707 577.137C279.9 565.569 294.994 554.828 308.72 542.687C316.85 535.495 324.987 527.18 332.703 519.5C330.795 524.335 321.206 538.776 317.578 542.573L315.995 542.257C311.003 545.819 306.589 550.644 301.664 554.103C281.501 568.368 263.653 584.992 244.815 600.838C214.652 626.212 182.584 654.268 162.909 689.037C143.349 723.608 133.009 767.543 123.604 805.969C118.717 825.934 112.882 845.203 109.079 865.351C106.883 877.875 105.945 907.304 106.762 920.071C108.086 940.712 115.754 954.773 109.205 976.741C78.349 1001.92 57.727 1028.94 46.0297 1067.38C43.6831 1075.09 39.8859 1084.58 39.4376 1092.46C39.0261 1099.68 37.0974 1111.53 37.5666 1118.36C39.7134 1149.58 53.4501 1182.03 73.1024 1205.99C81.7903 1216.58 91.8592 1225.97 103.039 1233.88C133.428 1255.32 173.639 1270.76 208.262 1283.77C235.033 1293.82 271.343 1303.93 300.436 1305.01C370.154 1307.61 443.738 1304.38 511.572 1286.47C518.953 1284.51 529.901 1281.19 536.629 1277.89C539.996 1266.76 543.183 1267.67 550.947 1260.2C547.351 1251.47 543.472 1253.87 547.057 1244.83C549.316 1239.13 557.274 1230.04 562.801 1227.32L564.152 1228.23C550.153 1243.36 538.859 1255.8 570.266 1254.37C562.734 1257.14 534.689 1268.13 553.764 1276.96C538.643 1282.16 515.753 1290.6 500.074 1293.66C414.125 1310.43 321.724 1319.62 235.943 1297.08C212.718 1290.98 193.26 1281.49 171.644 1273.58C104.148 1248.85 43.5058 1203.6 34.5739 1127.44C29.1639 1082.27 48.6197 1033.08 77.6641 998.505C85.755 988.871 98.2919 982.579 106.911 971.815Z" fill="#C92704"/>
<path d="M327.296 822.808C333.933 820.962 349.438 828.987 355.421 832.534C376.495 845.025 397.912 859.348 411.038 880.568C416.118 888.783 419.393 896.395 423.865 904.105C426.938 913.372 429.695 922.737 432.131 932.187L431.981 932.732C429.743 931.859 428.823 931.11 427.918 928.858C424.888 921.305 423.222 912.892 419.834 905.504C406.412 876.22 394.588 860.018 366.211 844.342C357.46 839.515 349.827 834.484 340.08 830.399C339.054 829.966 338.016 829.559 336.969 829.184C344.547 835.016 355.637 840.763 361.784 845.439C371.551 853.937 386.965 867.137 394.635 877.317C405.593 891.857 417.849 917.897 419.631 935.937C423.386 973.956 409.358 1014.37 391.685 1047.62C389.742 1051.27 385.998 1061.33 383.543 1065.52C367.11 1075.84 317.384 1087.49 299.567 1090.58C288.308 1092.57 276.929 1093.8 265.505 1094.27C256.659 1094.65 242.021 1094.54 233.639 1092.1C220.984 1088.43 213.014 1084.54 199.708 1082.81C209.73 1092.68 219.735 1095.11 232.968 1098.04C295.722 1112.07 354.31 1086.32 412.656 1067.3C467.322 1049.48 529.276 1039.56 586.694 1045.62C595.758 1046.57 620.71 1051.35 625.058 1059.8C616.632 1058.29 609.318 1054.54 601.181 1052.28C596.273 1050.92 588.571 1049.87 583.506 1049.37C523.806 1043.81 463.134 1054.12 406.423 1073.47C337.977 1096.79 251.216 1131.05 186.712 1080.28C180.53 1075.41 160.224 1057.33 167.208 1049.22C168.616 1048.94 169.63 1048.78 170.736 1050.09C227.109 1116.7 310.82 1087.55 383.496 1063.02C384.178 1048.32 389.323 1043.21 395.269 1030.85C413.701 992.39 425.423 952.237 409.2 911.113C393.192 870.533 363.448 852.899 329.686 829.06C328.062 827.91 327.64 824.738 327.296 822.808Z" fill="#270905"/>
<path d="M377.798 1060.96C379.342 1055.79 381.613 1048.1 384.113 1043.56C390.168 1032.56 396.79 1023.65 400.754 1011.48C406.621 993.448 412.757 972.636 413.011 953.636C413.88 909.832 386.937 871.813 351.764 848.007C347.868 845.367 343.767 843.206 339.822 840.822C335.15 838.005 328.994 835.627 326.604 830.485C325.414 827.917 326.252 825.146 327.296 822.808C327.64 824.738 328.062 827.91 329.686 829.06C363.448 852.899 393.193 870.533 409.2 911.113C425.423 952.238 413.702 992.391 395.269 1030.85C389.323 1043.21 384.178 1048.32 383.496 1063.02C310.82 1087.55 227.109 1116.7 170.736 1050.09C169.63 1048.78 168.616 1048.94 167.208 1049.22C160.224 1057.33 180.53 1075.41 186.712 1080.28C251.216 1131.05 337.977 1096.79 406.423 1073.47C463.134 1054.12 523.806 1043.81 583.507 1049.37C588.571 1049.87 596.273 1050.92 601.181 1052.28C609.318 1054.54 616.632 1058.29 625.058 1059.8L627.921 1061.05C612.194 1062.9 603.15 1060.88 588.02 1061.68C580.672 1062.08 568.885 1067.87 561.651 1069.43L562.222 1067.91C576.146 1057.29 596.78 1059.33 613.292 1059.29C596.905 1052.09 592.761 1056.02 577.259 1053.78C543.92 1048.29 511.689 1056.22 479.103 1060.85C447.107 1065.4 418.708 1072.29 388.53 1083.86C380.677 1086.59 372.454 1090.8 364.558 1093.13C306.472 1110.27 224.732 1125.49 177.438 1077.15C170.128 1071.07 159.914 1058.49 163.551 1048.04C166.935 1038.3 180.858 1056.46 182.646 1058.12C234.817 1106.7 318.735 1083.65 377.798 1060.96Z" fill="#C92704"/>
<path d="M490.449 494.941L492.947 495.217L493.482 496.196C491.677 500.773 475.276 520.411 471.125 526.222C459.933 541.884 427.324 596.971 435.443 615.998C436.071 617.468 436.766 618.568 438.082 619.5C442.035 620.421 458.847 613.74 464.306 612.197C467.229 622.575 467.075 624.687 468.348 634.594C469.653 644.747 466.872 688.623 474.31 693.082C480.734 693.397 493.578 680.775 498.691 688.872C503.164 695.952 505.236 718.077 506.536 726.786L515.23 785.8C515.942 790.732 518.074 808.136 519.738 811.682C514.748 840.428 511.471 865.601 511.296 894.957C511.194 912.176 512.431 930.795 511.525 947.686L502.098 945.887C504.136 944.692 506.02 943.326 507.957 941.973C510.61 924.851 506.529 904.9 506.981 886.767C507.473 858.35 514.512 828.79 513.078 800.419C511.779 774.734 503.91 748.294 499.052 723.088C497.676 715.95 499.152 707.176 498.376 699.781C496.649 683.323 478.782 703.852 471.224 696.609C457.429 685.372 466.957 626.283 459.076 619.902C452.047 616.959 442.125 625.668 435.003 621.385C432.877 620.106 430.302 615.152 430.357 612.721C431.091 582.85 450.197 551.506 465.98 526.888C472.443 516.806 482.956 505.047 490.449 494.941Z" fill="#C92704"/>
<path d="M332.702 519.5C336.266 515.195 339.166 510.031 342.19 505.551C358.901 480.788 359.955 454.549 360.523 425.63C360.758 413.71 361.636 401.128 361.236 389.032C360.856 377.539 357.303 369.964 361.516 358.458C365.777 361.934 366.402 362.989 366.915 368.535C368.191 382.338 367.434 397.273 367.939 410.89C369.15 443.499 373.297 464.118 359.35 494.9L352.707 495.268C339.199 526.768 315.578 553.161 289.016 574.017C281.434 579.97 275.223 586.741 266.733 591.546C273.941 577.416 289.699 569.892 301.49 559.99C307.43 555.002 312.992 548.817 317.578 542.573C321.206 538.776 330.795 524.335 332.702 519.5Z" fill="#21130E"/>
<path d="M430.574 382.323C431.46 383.192 432.859 384.307 433.167 385.358C430.161 400.286 426.655 412.679 422.861 427.179C427.215 424.586 430.273 421.536 433.77 417.929C441.988 409.453 451.248 402.684 460.582 395.54C472.505 390.652 477.541 390.01 490.35 388.812C485.429 392.082 476.563 397.682 472.523 401.494C461.346 408.991 442.911 423.102 434.037 433.247C429.19 437.117 422.363 443.056 416.725 445.048L415.81 444.805C412.186 423.052 419.094 400.739 430.574 382.323Z" fill="#270905"/>
<path d="M423.865 904.105C430.704 908.768 429.588 920.235 434.275 923.039C439.123 915.342 425.754 862.323 423.802 851.041C422.186 841.708 420.613 831.575 421.574 822.085C422.109 816.812 423.54 811.715 427.756 808.261C422.164 841.827 434.216 887.174 442.549 920.353C439.183 923.886 434.922 929.436 432.131 932.187C429.695 922.737 426.938 913.372 423.865 904.105Z" fill="#C92704"/>
<path d="M433.167 385.358C433.81 391.587 430.097 408.358 432.789 411.551C448.235 415.429 478.874 346.196 500.377 342.378C488.371 354.751 462.868 378.326 460.582 395.54C451.248 402.684 441.988 409.453 433.77 417.929C430.273 421.536 427.215 424.586 422.861 427.179C426.655 412.679 430.161 400.286 433.167 385.358Z" fill="#B6624E"/>
<path d="M429.406 352.684C429.425 355.232 429.487 357.659 429.148 360.187C428.405 365.717 423.997 376.214 426.862 381.157C428.683 382.517 428.01 382.107 430.574 382.323C419.094 400.739 412.186 423.052 415.81 444.805C404.562 436.184 416.119 418.834 414.409 407.844C413.979 405.074 412.291 404.901 410.106 404.152C416.154 394.659 426.632 364.307 429.406 352.684Z" fill="#C92704"/>
<path d="M410.107 404.152C401.114 397.24 418.368 362.244 424.827 355.205C426.808 353.045 426.669 353.181 429.407 352.684C426.632 364.307 416.154 394.659 410.107 404.152Z" fill="#370703"/>
<path d="M365.439 345.414C368.316 348.7 370.776 351.634 374.051 354.551L369.655 359.332C367.545 354.306 367.39 353.138 362.636 350.681L365.439 345.414Z" fill="#B6624E"/>
<path d="M190.029 1237.07C194.294 1239.4 199.322 1241.55 200.163 1246.87C197.351 1253.1 180.604 1248.39 175.257 1246.68C136.199 1234.16 102.489 1209.52 83.5883 1172.57C80.4964 1166.52 63.5748 1131.79 71.7232 1127.63C73.985 1128.07 75.0338 1129.74 76.5101 1131.51C80.4734 1133.95 83.7853 1147.35 86.7958 1151.96C95.3129 1164.98 104.177 1181.73 114.926 1192.77C126.14 1203.9 140.992 1210.51 154.53 1218.28C159.984 1221.4 165.524 1224.43 170.985 1227.46C175.995 1230.24 187.129 1232.68 190.029 1237.07Z" fill="#161515"/>
<path d="M76.5103 1131.51C80.4736 1133.95 83.7855 1147.35 86.7959 1151.96C95.313 1164.98 104.178 1181.74 114.926 1192.77C126.14 1203.9 140.992 1210.51 154.53 1218.28C159.984 1221.4 165.525 1224.43 170.985 1227.46C175.995 1230.24 187.13 1232.68 190.029 1237.07C173.217 1232.36 148.611 1221.14 134.209 1211.95C110.979 1197.12 81.8179 1158.83 76.5103 1131.51Z" fill="#C92704"/>
<path d="M371.86 176.891C379.955 180.945 377.646 207.678 384.006 215.371C386.414 215.655 386.176 212.111 390.015 209.214C394.549 209.471 394.08 223.087 398.725 225.827C400.933 224.865 401.242 223.519 402.798 221.204C408.329 226.983 428.049 255.216 418.001 261.148C414.038 259.712 415.536 257.528 412.424 256.695C411.537 257.88 411.838 260.244 411.796 262.053L412.41 286.265C391.765 266.525 377.748 243.666 371.061 215.735C367.781 202.035 366.305 190.359 371.86 176.891Z" fill="#161515"/>
<path d="M538.14 232.769C547.129 234.815 548.477 235.554 550.864 244.501C560.797 250.238 577.55 255.156 588.884 258.881C572.286 267.346 556.946 281.286 538.025 282.31C522.58 282.482 514.289 284.722 500.171 290.449C509.963 267.963 524.157 254.599 543.365 240.406C541.268 239.376 540.077 238.815 538.123 237.443C537.166 235.117 537.507 235.639 538.14 232.769Z" fill="#161515"/>
<path d="M532.196 259.206C533.997 261.465 539.489 272.032 541.148 275.116C536.596 275.474 532.049 275.897 527.509 276.384C525.104 276.626 521.301 276.581 518.771 276.623C522.336 271.232 527.891 263.981 532.196 259.206Z" fill="#F4F4F0"/>
<path d="M560.385 257.378C563.922 257.635 565.045 258.123 566.186 261.312C566.032 263.915 565.595 264.316 564.021 266.323L562.652 266.299C561.199 263.798 559.6 260.202 560.385 257.378Z" fill="#F4F4F0"/>
<path d="M252.021 638.189C254.506 638.455 254.076 638.013 255.487 639.408C255.893 643.608 240.969 658.328 237.536 662.275C222.583 679.468 207.163 696.327 196.797 716.863C189.163 731.981 183.626 747.046 174.783 761.574C173.577 761.042 173.565 760.871 172.576 759.984C168.832 751.289 177.849 726.024 182.015 717.506C197.502 685.838 222.326 657.257 252.021 638.189Z" fill="#270905"/>
<path d="M283.707 1256.89C294.463 1256.17 305.519 1257.75 316.279 1257.69C329.124 1257.63 342.039 1256.03 354.882 1257.16C366.193 1258.16 378.609 1262.28 366.643 1274.44C365.703 1274.86 364.752 1275.26 363.788 1275.62C345.779 1282.43 307.731 1277.59 290.041 1269.78C286.885 1268.39 283.214 1265.95 282.135 1262.53C281.512 1260.54 282.759 1258.74 283.707 1256.89Z" fill="#C92704"/>
<path d="M288.252 1259.66C295.995 1259.95 304.736 1262.17 313.216 1262.19C326.467 1262.34 339.754 1261.38 353.007 1261.51C356.986 1261.55 369.668 1261.99 369.45 1267.33C368.213 1269.41 365.794 1270.08 363.523 1271.02C347.547 1275.22 329.852 1274.51 313.645 1272.27C307.479 1271.41 287.507 1268.26 285.218 1262.06C285.976 1260.28 285.959 1260.77 288.252 1259.66Z" fill="#270905"/>
<path d="M336.424 1239.61C340.285 1231.2 403.617 1225.26 414.042 1231.76C416.421 1233.24 418.64 1235.96 417.67 1238.75C411.362 1256.96 342.624 1254.97 336.673 1243.19L336.424 1239.61Z" fill="#270905"/>
<path d="M336.424 1239.61C340.285 1231.2 403.617 1225.26 414.042 1231.76C416.421 1233.24 418.64 1235.96 417.67 1238.75C411.362 1256.96 342.624 1254.97 336.673 1243.19C339.537 1243.34 342.992 1244.17 345.829 1244.78C357.125 1247.19 410.071 1252.24 413.845 1236.88C409.633 1228.15 377.571 1235.44 368.958 1236.11C358.122 1236.95 347.044 1237.29 336.424 1239.61Z" fill="#C92704"/>
<path d="M192.877 1208.53C205.638 1207.82 235.397 1221.03 248.371 1225.07C256.377 1227.56 264.623 1238.93 252.121 1242.52C232.843 1246.53 162.181 1221.12 192.877 1208.53Z" fill="#C92704"/>
<path d="M189.961 1211.87C197.345 1212.42 207.972 1216.41 215.12 1218.7C223.545 1221.41 250.202 1226.23 255.095 1233.3C255.821 1235.41 255.436 1235.99 254.647 1238.14C239.547 1242.12 216.436 1232.74 202.581 1226.65C196.339 1223.9 188.812 1219.64 189.961 1211.87Z" fill="#270905"/>
<path d="M365.583 533.084C368.921 535.573 367.738 540.758 365.927 543.783C352.794 565.719 333.919 588.628 309.252 597.395C307.158 595.001 307.191 595.8 307.224 593.244C308.769 590.005 324.309 575.261 328.095 572.076C341.717 560.615 352.158 543.952 365.583 533.084Z" fill="#270905"/>
<path d="M296.474 644.184C297.86 644.332 297.76 644.324 298.846 645.214C299.149 646.717 299.339 648.215 298.297 649.565C290.547 659.595 267.831 688.899 256.549 692.215C242.588 680.085 287.728 649.267 296.474 644.184Z" fill="#210E0C"/>
<path d="M189.614 805.214C183.789 795.29 201.26 749.417 212.229 745.7L213.269 746.331C215.805 755.459 198.733 793.859 194.601 803.782L189.614 805.214Z" fill="#270905"/>
<path d="M252.664 749.785C260.626 755.755 238.469 797.064 231.78 804.005C220.891 792.598 245.026 759.387 252.664 749.785Z" fill="#270905"/>
<path d="M475.415 1253.8C479.58 1252.98 483.751 1253.6 487.252 1256.01C488.381 1257.96 488.258 1257.09 487.718 1259.26C482.152 1266.28 468.658 1269.62 460.264 1271.62C456.055 1272.17 449.812 1273.44 447.542 1269.16C448.337 1261.59 469.158 1255.67 475.415 1253.8Z" fill="#270905"/>
<path d="M194.601 803.782L190.594 815.058C190.495 812.51 190.574 807.289 189.614 805.214L194.601 803.782Z" fill="#C92704"/>
<path d="M264.252 206.668C268.57 204.778 273.606 206.687 275.588 210.963C277.569 215.239 275.769 220.315 271.536 222.388C268.716 223.768 265.37 223.516 262.789 221.727C260.209 219.938 258.798 216.893 259.102 213.768C259.405 210.642 261.376 207.926 264.252 206.668Z" fill="#F4F4F0"/>
</svg>
