<svg width="620" height="1024" viewBox="0 0 620 1024" fill="none" xmlns="http://www.w3.org/2000/svg">
<path d="M344.225 165.703C345.078 164.371 346.15 162.917 346.734 161.449C347.962 158.361 348.208 145.574 348.939 141.134C350.926 129.073 360.59 72.3276 373.248 68.9521C374.946 68.4986 376.583 68.9666 378.02 69.9081C390.049 77.7851 402.929 133.269 406.257 148.028C421.521 148.042 433.489 150.472 446.092 159.504C452.33 163.975 459.74 168.822 467.396 170.186C475.97 171.714 487.64 170.841 496.572 170.517C511.74 169.981 526.9 169.203 542.045 168.184C553.32 167.357 579.445 161.674 577.73 180.221C575.71 202.147 567.505 227.434 551.205 243.046C537.305 256.253 522.525 262.551 507.76 272.195C480.573 289.951 465.311 323.024 465.596 354.984C465.656 361.69 465.416 370.777 466.908 377.343C468.645 377.254 472.212 376.865 473.616 377.476C473.831 379.469 472.164 379.999 472.539 382.292C474.179 392.31 477.988 403.25 478.497 413.32C479.026 423.799 478.258 434.47 478.322 444.951C478.319 449.321 477.919 453.609 478.004 458.236C478.137 465.438 481.237 472.327 481.983 479.123C483.867 496.277 481.607 518.3 475.697 534.58C474.664 537.425 472.31 540.655 470.563 543.07L469.671 545.595L469.567 545.825C468.88 555.325 465.587 567.465 463.821 577.195C462.24 585.9 461.128 596.15 459.908 604.415C458.452 614.275 458.863 658.275 453.157 664.445C450.547 665.63 449.956 664.465 447.965 662.645C446.551 669.03 448.795 694.805 448.751 703.215C449.789 714.22 450.078 725.93 450.763 737.085C451.74 753.01 454.012 770.645 454.547 786.475C470.161 791.12 485.703 795.27 501.325 800.205C517.725 805.385 524.125 807.45 538.78 817.265C561.91 832.835 582.435 851.975 599.58 873.965C604.06 879.615 620.625 898.52 609.28 905.03C605.145 907.4 596.145 905.495 591.355 905.68C588.495 905.755 586.025 906.05 583.28 906.38C574.775 907.385 566.42 909.385 558.38 912.33C540.555 918.68 523.55 928.425 506.79 937.22C496.173 942.795 485.219 947.66 474.677 952.94C454.858 962.87 442.879 969.095 420.888 972.35C406.879 977.02 381.79 986.295 367.374 987.14C354.544 991.095 308.959 996.565 294.334 996.64C292.463 996.995 284.702 997.205 282.515 997.27C265.808 997.755 246.833 997.925 230.246 996.355C212.669 994.78 195.26 991.695 178.213 987.125C165.419 983.65 155.966 979.48 143.876 974.855C119.234 965.425 96.1999 956.49 75.0189 940.095C70.0729 936.27 64.3634 931.81 60.3309 926.95L60.0104 926.675C56.4274 923.58 53.2324 919.72 50.2639 916.08C12.1745 869.345 21.6145 804.08 59.1849 760.215C65.6259 752.695 74.6869 747.685 81.4419 739.825C81.6839 717.6 76.3339 698.01 77.5779 675.49C78.8029 653.305 85.6299 632.875 91.2034 611.55C97.4914 587.49 104.604 552.865 117.193 531.325C118.391 527.7 124.841 517.875 127.113 514.59C154.799 474.543 194.853 445.587 232.342 415.47C238.833 410.255 245.523 402.871 251.88 397.117L254.164 394.46L263.679 379.665C273.451 359.583 274.066 343.926 274.542 321.672C274.699 314.344 275.117 305.699 274.95 298.497C274.69 287.306 272.66 284.241 274.91 272.99L275.869 267.165C276.588 265.829 277.383 264.506 278.149 263.194C271.21 251.946 265.433 240.325 261.356 227.732C254.28 205.876 251.486 174.919 250.543 151.821C249.967 137.707 249.212 103.704 259.337 93.0691C260.686 91.6526 262.586 90.3396 264.614 90.4051C276.13 90.7771 312.654 129.44 320.787 138.833C328.077 147.252 334.335 156.488 341.734 164.878L344.225 165.703Z" fill="#EE3500"/>
<path d="M344.225 165.703C345.078 164.371 346.15 162.917 346.734 161.449C347.962 158.361 348.208 145.574 348.939 141.134C350.926 129.073 360.59 72.3276 373.248 68.9521C374.946 68.4986 376.583 68.9666 378.02 69.9081C390.049 77.7851 402.929 133.269 406.257 148.028C421.521 148.042 433.489 150.472 446.092 159.504C452.33 163.975 459.74 168.822 467.396 170.186C475.97 171.714 487.64 170.841 496.572 170.517C511.74 169.981 526.9 169.203 542.045 168.184C553.32 167.357 579.445 161.674 577.73 180.221C575.71 202.147 567.505 227.434 551.205 243.046C537.305 256.253 522.525 262.551 507.76 272.195C480.573 289.951 465.311 323.024 465.596 354.984C465.656 361.69 465.416 370.777 466.908 377.343C468.645 377.254 472.212 376.865 473.616 377.476C473.831 379.469 472.164 379.999 472.539 382.292C474.179 392.31 477.988 403.25 478.497 413.32C479.026 423.799 478.258 434.47 478.322 444.951C478.319 449.321 477.919 453.609 478.004 458.236C478.137 465.438 481.237 472.327 481.983 479.123C483.867 496.277 481.607 518.3 475.697 534.58C474.664 537.425 472.31 540.655 470.563 543.07C470.501 540.41 473.678 524.645 474.233 520.78C473.064 520.31 473.127 520.28 471.912 520.515C472.239 516.91 472.28 512.235 472.408 508.54L473.57 504.69L474.22 504.675L475.099 506.845C475.343 500.505 474.893 494.153 473.755 487.908C470.81 487.289 469.969 487.15 467.33 485.786C465.694 493.893 462.281 503.075 461.207 510.5C458.825 526.975 460.217 538.865 453.685 554.76C450.469 560.17 447.268 565.355 444.81 571.17C442.748 576.05 441.152 582.375 438.681 586.91C430.5 597.955 416.145 624.46 410.708 637.485C408.794 640.185 406.124 644.9 404.589 647.92L403.312 650.1C402.024 651.94 400.986 654.025 398.955 654.64C398.764 644.615 405.517 603.385 402.34 598.845C399.152 600.8 396.568 613.15 395.519 617.225C393.821 614.695 393.056 607.035 392.566 603.61C392.163 594.16 389.585 582.43 388.193 572.89C386.288 559.845 384.856 540.89 381.014 528.815C380.322 526.645 379.45 523.85 377.2 522.84C373.213 521.045 367.494 525.945 363.704 527.12C362.704 527.43 361.479 527.53 360.553 526.97C355.468 523.895 356.773 491.339 356.291 484.555C355.848 478.319 354.924 472.168 353.24 466.144C349.199 467.522 336.937 472.308 333.026 471.427C330.798 469.735 330.562 466.625 330.029 463.893C330.652 445.98 347.791 415.82 358.157 400.905C362.675 394.404 370.007 386.587 374.297 379.479C374.984 378.342 374.981 378.374 374.72 377.436L373.692 377.377C372.023 377.325 370.901 377.451 369.432 376.688C369.907 369.341 393.864 331.126 386.419 325.145C379.585 319.656 345.929 346.507 341.41 344.226L341.325 343.203C340.292 338.866 341.53 333.229 342.864 329.144C342.733 328.883 342.601 328.621 342.47 328.359C338.535 326.938 335.276 328.398 331.458 328.81L331.057 328.85C337.041 322.312 351.565 310.53 359.487 305.672C362.678 302.511 369.765 298.005 373.649 295.768C363.708 297.1 359.298 297.646 350.074 301.343C350.82 296.618 353.527 291.962 356.018 287.96C362.469 278.714 371.159 270.305 378.988 262.118C389.227 253.748 417.051 235.166 428.306 233.617C463.684 228.749 490.713 216.885 516.085 191.117C520.13 187.012 528.125 183.969 526.26 176.795C516.135 176.911 506.015 177.147 495.899 177.501C485.352 177.864 468.259 179.219 459.293 175.031C437.604 164.899 427.517 152.181 401.36 155.608C386.447 157.563 371.953 159.3 357.451 165.075C353.884 166.495 347.871 167.662 344.225 165.703Z" fill="#F2F1E8"/>
<path d="M344.225 165.703C345.079 164.371 346.151 162.917 346.735 161.449C347.963 158.361 348.208 145.574 348.939 141.134C350.926 129.073 360.591 72.3276 373.248 68.9521C374.947 68.4986 376.583 68.9666 378.021 69.9081C390.049 77.7851 402.929 133.269 406.257 148.028C421.522 148.042 433.49 150.472 446.093 159.504C452.33 163.975 459.74 168.822 467.396 170.186C475.97 171.714 487.641 170.841 496.572 170.517C511.74 169.981 526.9 169.203 542.045 168.184C553.32 167.357 579.445 161.674 577.73 180.221C575.71 202.147 567.505 227.434 551.205 243.046C537.305 256.253 522.525 262.551 507.76 272.195C480.574 289.951 465.312 323.024 465.597 354.984C465.657 361.69 465.417 370.777 466.908 377.343C468.646 377.254 472.213 376.865 473.617 377.476C473.832 379.469 472.164 379.999 472.54 382.292C474.179 392.31 477.989 403.25 478.497 413.32C479.027 423.799 478.259 434.47 478.323 444.951C478.319 449.321 477.919 453.609 478.005 458.236C478.137 465.438 481.237 472.327 481.984 479.123C483.868 496.277 481.607 518.3 475.698 534.58C474.664 537.425 472.31 540.655 470.563 543.07C470.501 540.41 473.678 524.645 474.234 520.78C473.065 520.31 473.127 520.28 471.913 520.515C472.239 516.91 472.28 512.235 472.408 508.54L473.571 504.69L474.22 504.675L475.099 506.845C475.344 500.505 474.893 494.153 473.755 487.908C470.811 487.289 469.969 487.15 467.331 485.786C460.871 469.432 460.39 447.055 451.111 430.414C447.604 424.125 450.698 411.313 453.826 405.532C454.381 403.938 455.802 400.944 455.879 399.36C456.646 383.588 455.39 365.132 456.35 349.612C458.766 308.809 476.956 275.993 514.13 257.528C534.285 247.517 547.905 237.235 558.305 217.273C539.785 232.679 522.33 241.046 500.015 249.502C479.766 257.175 456.187 265.879 436.456 251.96C434.88 254.613 432.922 258.839 429.985 259.66L429.205 259.045C427.947 253.422 433.641 241.431 440.321 241.974C441.548 242.884 441.159 242.302 441.542 243.768C440.952 245.168 440.753 245.449 440.644 246.931C441.051 247.505 441.653 248.137 442.312 248.404C465.673 257.875 490.226 245.589 511.755 236.776C526.385 230.788 541.7 223.508 553.515 212.96C557.9 209.044 561.185 203.491 563.89 198.35C549.805 190.631 544.29 194.02 540.79 175.898C536.85 176.497 530.33 176.629 526.26 176.795C516.135 176.911 506.015 177.147 495.899 177.501C485.353 177.864 468.26 179.219 459.293 175.031C437.604 164.899 427.517 152.181 401.361 155.608C386.448 157.563 371.953 159.3 357.451 165.075C353.885 166.495 347.871 167.662 344.225 165.703Z" fill="#161414"/>
<path d="M472.408 508.54L473.571 504.69L474.22 504.675L475.099 506.845C475.046 512.22 474.896 515.46 474.234 520.78C473.065 520.31 473.127 520.28 471.913 520.515C472.239 516.91 472.28 512.235 472.408 508.54Z" fill="#C62102"/>
<path d="M331.057 328.85C337.041 322.311 351.565 310.53 359.487 305.672C356.206 313.318 353.283 319.794 349.493 327.205C347.61 330.887 342.511 340.016 341.326 343.202C340.293 338.866 341.531 333.229 342.864 329.144C342.733 328.882 342.602 328.62 342.47 328.359C338.535 326.938 335.277 328.397 331.459 328.809L331.057 328.85Z" fill="#BA5F4B"/>
<path d="M467.331 485.786C469.969 487.15 470.811 487.289 473.755 487.908C474.893 494.153 475.344 500.505 475.099 506.845L474.22 504.675L473.571 504.69L472.408 508.54C472.28 512.235 472.239 516.91 471.913 520.515C473.127 520.28 473.065 520.31 474.234 520.78C473.678 524.645 470.501 540.41 470.563 543.07L469.672 545.595L469.567 545.825C468.881 555.325 465.588 567.465 463.822 577.195C462.241 585.9 461.128 596.15 459.908 604.415C458.453 614.275 458.864 658.275 453.158 664.445C450.548 665.63 449.957 664.465 447.966 662.645C446.552 669.03 448.795 694.805 448.751 703.215C449.789 714.22 450.078 725.93 450.763 737.085C451.741 753.01 454.012 770.645 454.547 786.475C470.161 791.12 485.704 795.27 501.326 800.205C517.726 805.385 524.126 807.45 538.781 817.265C561.911 832.835 582.436 851.975 599.581 873.965C604.061 879.615 620.626 898.52 609.281 905.03C605.146 907.4 596.145 905.495 591.355 905.68C588.495 905.755 586.026 906.05 583.281 906.38C574.776 907.385 566.42 909.385 558.38 912.33C540.555 918.68 523.55 928.425 506.79 937.22C496.174 942.795 485.22 947.66 474.678 952.94C454.859 962.87 442.88 969.095 420.888 972.35C420.19 971.81 419.502 971.25 418.827 970.68C416.591 968.765 416.402 968.165 416.171 965.25C417.099 964.83 419.29 962.535 420.828 961.555C424.56 959.18 428.159 957.36 432.103 955.345C439.701 954.375 449.977 949.135 456.97 946.18C470.44 940.585 481.722 935 494.858 928.3C519.701 915.64 546.12 899.99 573.795 894.785C580.78 893.47 589.525 893.84 596.985 892.715C596.8 892.375 596.605 892.035 596.41 891.7C582.555 868.31 540.13 830.9 515.17 819.1C507.055 815.265 486.89 810.335 477.464 807.96C475.667 806.87 467.112 804.265 464.384 803.31C448.134 797.74 434.199 797.975 417.137 797.885C381.009 797.84 345.008 805.015 310.771 816.625C257.868 834.56 191.38 861.47 141.483 821.895C136.837 818.21 121.593 804.775 127.707 798.79C130.455 798.94 134.762 805.15 136.868 807.19C173.147 842.365 225.013 831.305 268.081 817.31C275.76 814.815 284.097 812.235 291.9 809.225C291.941 799.71 298.175 790.105 302.383 781.495C312.776 758.96 319.761 736.93 316.262 711.86C312.951 688.15 298.293 666.145 279.387 651.865C274.148 647.26 268.585 643.685 262.971 639.67C258.907 636.765 250.032 632.235 248.991 627.37C253.651 621.07 286.361 644.17 291.261 647.745C304.686 657.535 319.577 677.33 324.26 693.505C325.576 698.315 327.603 704.95 328.541 709.71C331.217 706.9 334.155 703.43 336.757 700.495C329.547 674.435 321.892 642.165 325.567 615.31C329.423 618 330.12 622.095 330.849 626.67C331.962 633.66 332.516 640.055 333.955 647.07C338.007 666.82 344.515 685.665 350.697 704.8C354.203 715.655 357.136 726.475 360.864 737.35C363.653 739.13 364.277 739.41 367.682 739.145C370.077 731.975 375.52 723.83 382.312 720.03C384.464 720.6 386.844 721.09 389.03 721.59C389.897 693.785 387.443 666.415 392.193 638.765C393.377 631.865 394.823 624.135 395.52 617.225C396.569 613.15 399.152 600.8 402.34 598.845C405.517 603.385 398.765 644.615 398.956 654.64C400.986 654.025 402.025 651.94 403.312 650.1L404.589 647.92C406.124 644.9 408.795 640.185 410.709 637.485C416.145 624.46 430.5 597.955 438.681 586.91C441.152 582.375 442.748 576.05 444.811 571.17C447.268 565.355 450.47 560.17 453.685 554.76C460.218 538.865 458.825 526.975 461.207 510.5C462.281 503.075 465.695 493.893 467.331 485.786Z" fill="#161414"/>
<path d="M467.331 485.786C469.969 487.15 470.811 487.289 473.755 487.908C474.893 494.153 475.344 500.505 475.099 506.845L474.22 504.675L473.571 504.69L472.408 508.54C472.28 512.235 472.239 516.91 471.913 520.515C473.127 520.28 473.065 520.31 474.234 520.78C473.678 524.645 470.501 540.41 470.563 543.07L469.672 545.595L469.567 545.825C468.881 555.325 465.587 567.465 463.821 577.195C462.241 585.9 461.128 596.15 459.908 604.415C458.453 614.275 458.864 658.275 453.157 664.445C450.548 665.63 449.956 664.465 447.966 662.645C446.551 669.03 448.795 694.805 448.751 703.215C439.168 695.29 434.237 704.87 431.609 713.355C427.788 725.685 424.577 739.67 423.97 752.605C423.73 758.55 424.069 764.505 424.982 770.385C425.731 774.97 426.961 779.42 428.214 783.885C426.53 783.92 423.3 784.115 421.823 783.72C420.495 779.06 418.839 774.16 417.357 769.52C415.817 764.245 414.801 759.565 413.648 754.21C411.988 746.285 408.97 729.225 408.289 721.34C407.027 715.645 403.098 693.94 402.635 688.545C402.013 684.195 400.481 672.325 398.569 669.075C397.917 666.365 398.095 657.28 398.956 654.64C400.986 654.025 402.024 651.94 403.312 650.1L404.589 647.92C406.124 644.9 408.795 640.185 410.709 637.485C416.145 624.46 430.5 597.955 438.681 586.91C441.152 582.375 442.748 576.05 444.811 571.17C447.268 565.355 450.47 560.17 453.685 554.76C460.218 538.865 458.825 526.975 461.207 510.5C462.281 503.075 465.695 493.893 467.331 485.786Z" fill="#EE3500"/>
<path d="M466.26 547.055L467.14 546.905C468.224 545.89 468.259 545.79 469.671 545.595L469.567 545.825C468.88 555.325 465.587 567.465 463.821 577.195C462.24 585.9 461.128 596.15 459.908 604.415C458.452 614.275 458.863 658.275 453.157 664.445C450.547 665.63 449.956 664.465 447.965 662.645C447.17 659.875 447.521 649.91 447.59 646.75C448.239 616.935 452.819 593.55 462.956 565.66L461.747 562.17C463.531 557.655 465.021 551.76 466.26 547.055Z" fill="#161414"/>
<path d="M466.261 547.055L467.14 546.905C468.224 545.89 468.26 545.79 469.672 545.595L469.567 545.825C468.326 547.365 464.403 561.88 462.957 565.66L461.748 562.17C463.532 557.655 465.022 551.76 466.261 547.055Z" fill="#C62102"/>
<path d="M461.747 562.17L462.956 565.66C452.819 593.55 448.239 616.935 447.59 646.75C447.521 649.91 447.17 659.875 447.965 662.645C446.551 669.03 448.795 694.805 448.751 703.215C439.167 695.29 434.237 704.87 431.609 713.355C427.788 725.685 424.577 739.67 423.97 752.605C423.73 758.55 424.069 764.505 424.982 770.385C425.731 774.97 426.961 779.42 428.214 783.885C426.53 783.92 423.299 784.115 421.822 783.72C420.495 779.06 418.838 774.16 417.357 769.52C415.816 764.245 414.8 759.565 413.648 754.21L414.401 752.625C415.052 753.22 415.551 755.155 416.711 756.51C417.227 759.545 418.568 766.28 418.237 769.025C418.624 770.415 419.578 772.195 420.888 772.875C422.785 770.525 418.663 759.135 419.301 755.735C422.381 739.32 425.187 720.3 431.697 704.935C433.934 699.65 441.022 697.075 445.646 695.64C444.283 685.805 444.427 675.15 444.17 665.22C443.451 637.405 445.783 610.545 453.958 583.88C455.981 577.28 459.324 568.985 461.747 562.17Z" fill="#CC2300"/>
<path d="M438.681 586.91C441.156 590.59 441.226 591.485 439.873 595.835C435.805 604.065 420.793 636.665 414.263 639.715C412.646 639.19 412.027 638.54 410.708 637.485C416.145 624.46 430.5 597.955 438.681 586.91Z" fill="#161414"/>
<path d="M467.331 485.786C469.969 487.15 470.811 487.289 473.755 487.908C474.893 494.153 475.344 500.505 475.099 506.845L474.22 504.675L473.571 504.69L472.408 508.54C471.849 503.065 471.084 499.76 469.264 494.512C466.736 501.48 464.368 507.795 462.68 515.055C461.217 521.35 461.058 553.84 453.685 554.76C460.218 538.865 458.825 526.975 461.207 510.5C462.281 503.075 465.695 493.893 467.331 485.786Z" fill="#CC2300"/>
<path d="M410.708 637.485C412.027 638.54 412.645 639.19 414.262 639.715C420.792 636.665 435.805 604.065 439.873 595.835C440.753 605.245 427.842 628.305 421.77 636.025C418.618 640.03 410.82 646.44 405.963 648.205L404.589 647.92C406.124 644.9 408.794 640.185 410.708 637.485Z" fill="#C62102"/>
<path d="M403.312 650.1C403.383 650.28 402.557 665.27 402.427 666.72C401.865 672.975 403.735 682.865 402.635 688.545C402.013 684.195 400.481 672.325 398.569 669.075C397.917 666.365 398.095 657.28 398.956 654.64C400.986 654.025 402.024 651.94 403.312 650.1Z" fill="#C62102"/>
<path d="M408.289 721.34L408.8 720.82C410.163 723.25 409.968 730.27 411.353 734.365C412.35 732.075 410.242 724.73 410.73 721.18C412.08 722.295 413.821 745.79 414.986 749.21C415.419 750.485 416.524 755.225 416.711 756.51C415.551 755.155 415.052 753.22 414.401 752.625L413.648 754.21C411.988 746.285 408.97 729.225 408.289 721.34Z" fill="#C62102"/>
<path d="M471.913 520.515C473.127 520.28 473.065 520.31 474.234 520.78C473.678 524.645 470.501 540.41 470.563 543.07L469.672 545.595C468.26 545.79 468.224 545.89 467.14 546.905L466.261 547.055C466.508 545.665 466.978 543.89 467.379 542.52C469.522 535.205 470.888 528.065 471.913 520.515Z" fill="#CC2300"/>
<path d="M328.541 709.71C331.217 706.9 334.155 703.43 336.757 700.495C342.854 720.2 348.842 739.935 354.72 759.705C356.734 766.495 360.975 782.9 363.395 788.775C349.324 791.88 316.194 799.455 303.575 805.32C320.005 778.12 334.589 741.865 328.541 709.71Z" fill="#FDFDFD"/>
<path d="M398.569 669.075C400.481 672.325 402.013 684.195 402.635 688.545C403.098 693.94 407.027 715.645 408.289 721.34C408.97 729.225 411.988 746.285 413.648 754.21C414.801 759.565 415.817 764.245 417.357 769.52C418.839 774.16 420.495 779.06 421.823 783.72C417.445 783.195 409.273 785.335 406.079 782.47C400.193 771.425 397.567 683.395 398.569 669.075Z" fill="#FDFDFD"/>
<path d="M360.864 737.35C363.653 739.13 364.277 739.41 367.682 739.145C366.542 742.44 365.49 744.77 364.051 747.915C362.836 744.39 361.879 740.93 360.864 737.35Z" fill="#CC2300"/>
<path d="M464.383 803.31C467.111 804.265 475.667 806.87 477.463 807.96C486.889 810.335 507.055 815.265 515.17 819.1C540.13 830.9 582.555 868.31 596.41 891.7C596.605 892.035 596.8 892.375 596.985 892.715C589.525 893.84 580.78 893.47 573.795 894.785C546.12 899.99 519.7 915.64 494.857 928.3C481.721 935 470.439 940.585 456.97 946.18C449.976 949.135 439.701 954.375 432.103 955.345C410.476 954.83 419.53 945.985 428.467 935.625C430.874 933.975 437.825 927.005 436.919 923.715C435.333 917.955 423.367 923.225 419.26 920.085C419.117 918.525 419.921 918.11 421.105 916.52C425.557 907.255 431.792 905.32 435.985 899.28C437.114 896.765 437.481 894.9 438.103 892.25L434.024 885.59C421.558 881.17 407.861 882.875 394.907 881.86C391.555 881.6 385.03 880.75 382.887 877.735C382.154 876.705 382.06 875.645 382.464 874.465C385.943 864.26 434.229 856.96 445.139 850.405C447.129 849.21 449.727 847.445 450.202 845.005C452.244 834.5 413.019 828.45 409.596 823.305C410.154 818.045 423.154 815.47 427.426 814.09C430.841 809.2 448.497 806.245 454.507 806.465C457.006 806.56 461.472 806.6 463.651 805.985L463.851 805.34L462.175 804.17L464.383 803.31Z" fill="#F2F1E8"/>
<path d="M464.383 803.31C467.111 804.265 475.667 806.87 477.463 807.96C466.525 808.59 455.343 807.61 444.66 808.685C439.9 809.16 432.414 812.835 427.426 814.09C430.841 809.2 448.497 806.245 454.507 806.465C457.006 806.56 461.472 806.6 463.651 805.985L463.851 805.34L462.175 804.17L464.383 803.31Z" fill="#CC2300"/>
<path d="M434.024 885.59C443.358 889.52 443.638 891.8 437.513 899.2L435.985 899.28C437.114 896.765 437.481 894.9 438.103 892.25L434.024 885.59Z" fill="#CC2300"/>
<path d="M435.985 899.28L437.513 899.2C433.444 904.595 426.773 912.71 421.105 916.52C425.557 907.255 431.792 905.32 435.985 899.28Z" fill="#C62102"/>
<path d="M278.149 263.194C271.21 251.946 265.433 240.325 261.356 227.732C254.28 205.876 251.486 174.919 250.543 151.821C249.967 137.707 249.212 103.704 259.337 93.0692C260.686 91.6527 262.586 90.3397 264.614 90.4052C276.13 90.7772 312.654 129.44 320.787 138.833C328.077 147.252 334.335 156.488 341.734 164.878C342.382 167.674 343.311 171.102 342.268 173.85C341.186 174.788 341.809 174.538 340.307 174.536C335.561 172.161 324.939 157.498 320.862 152.611C315.64 146.353 310.318 140.177 304.9 134.086C293.438 121.416 281.481 109.175 267.107 99.8077C265.856 135.522 271.297 168.863 287.48 201.06C290.303 206.677 308.055 235.39 306.76 239.778C300.316 240.819 286.549 215.31 283.783 209.655C276.045 208.791 271.923 208.198 264.494 206.09C266.177 213.218 267.943 220.61 270.207 227.537C272.604 234.869 287.532 263.426 284.894 270.079C282.57 268.566 280.042 265.365 278.149 263.194Z" fill="#161414"/>
<path d="M299.345 782.615L299.579 782.45C300.523 781.78 300.688 781.63 301.471 780.79L302.382 781.495C298.175 790.105 291.941 799.71 291.9 809.225C284.097 812.235 275.76 814.815 268.08 817.31C225.013 831.305 173.147 842.365 136.867 807.19C134.762 805.15 130.454 798.94 127.706 798.79C121.592 804.775 136.837 818.21 141.483 821.895C191.38 861.47 257.868 834.56 310.771 816.625C345.008 805.015 381.008 797.84 417.136 797.885C434.199 797.975 448.133 797.74 464.383 803.31L462.175 804.17C454.062 802.11 416.352 800.31 408.305 801.35C372.641 805.96 332.306 810.715 298.843 823.805C248.709 843.42 173.553 862.175 131.657 816.845C127.954 812.84 120.071 801.045 125.767 796.06C130.007 794.845 136.375 802.885 139.581 805.945C171.673 836.545 221.832 829.15 260.37 817.295C268.718 814.73 279.392 811.445 287.266 807.675L287.785 807.425C291.288 795.385 292.757 793.275 299.345 782.615Z" fill="#C62102"/>
<path d="M117.193 531.325C119.4 537.16 111.059 551.43 109.027 557.905C106.577 564.53 105.01 571.59 102.976 578.33C99.3614 590.305 96.4959 602.54 93.5659 614.6C87.4779 639.665 80.0639 662.78 79.9799 688.995C79.9474 699.05 81.9079 708.82 83.4589 718.74C84.6399 727.75 84.1939 734.175 82.6799 742.97C75.3014 751.07 66.9994 757.19 59.1969 766.53C41.5707 788.395 27.8585 822.27 27.9397 850.66C27.9929 869.265 40.3115 897.265 51.0364 912.495C53.2889 915.695 61.1554 923.85 60.3309 926.95L60.0104 926.675C56.4274 923.58 53.2324 919.72 50.2639 916.08C12.1745 869.345 21.6145 804.08 59.1849 760.215C65.6259 752.695 74.6869 747.685 81.4419 739.825C81.6839 717.6 76.3339 698.01 77.5779 675.49C78.8029 653.305 85.6299 632.875 91.2034 611.55C97.4914 587.49 104.604 552.865 117.193 531.325Z" fill="#CC2300"/>
<path d="M355.104 287.625L356.018 287.96C353.527 291.961 350.821 296.617 350.074 301.342C359.298 297.646 363.709 297.1 373.65 295.767C369.766 298.005 362.678 302.51 359.487 305.672C351.565 310.53 337.041 322.312 331.057 328.85C327.672 331.849 321.324 337.428 317.098 338.608L316.272 338.467C315.732 331.229 315.768 325.796 316.64 318.648C317.829 311.178 323.212 296.732 327.928 290.793C330.362 293.962 328.605 297.44 328.034 301.22L328.129 301.652C328.919 305.422 327.835 310.307 330.258 312.556C333.359 313.31 336.857 309.755 339.06 307.81C344.667 301.329 349.541 294.149 355.104 287.625Z" fill="#260301"/>
<path d="M355.104 287.625L356.018 287.96C353.527 291.961 350.821 296.617 350.074 301.342C346.975 303.692 343.897 306.069 340.842 308.475C334.09 313.855 328.059 320.962 321.491 325.736C323.567 317.856 325.606 308.875 328.034 301.22L328.129 301.652C328.919 305.422 327.835 310.307 330.258 312.556C333.359 313.31 336.857 309.755 339.06 307.81C344.667 301.329 349.541 294.149 355.104 287.625Z" fill="#BA5F4B"/>
<path d="M274.911 272.989C278.636 276.072 278.721 275.948 279.103 280.99C279.809 290.33 279.413 300.136 279.73 309.47C280.593 334.865 284.111 352.463 273.51 376.702L268.353 377.036L265.666 382.524C265.087 381.808 264.233 380.47 263.68 379.665C273.452 359.583 274.067 343.925 274.543 321.672C274.699 314.343 275.117 305.699 274.95 298.497C274.691 287.306 272.66 284.241 274.911 272.989Z" fill="#1B0C08"/>
<path d="M248.991 627.37C250.031 632.235 258.906 636.765 262.97 639.67C268.585 643.685 274.148 647.26 279.387 651.865C298.293 666.145 312.951 688.15 316.261 711.86C319.761 736.93 312.776 758.96 302.382 781.495L301.471 780.79C300.688 781.63 300.523 781.78 299.579 782.45L299.345 782.615C308.185 765.37 315.467 739.5 314.069 720.07C311.932 690.36 297.765 671.265 276.665 652.25C267.57 644.535 257.876 641.16 249.524 633.74C247.971 632.36 248.66 629.375 248.991 627.37Z" fill="#CC2300"/>
<path d="M311.885 307.674C305.264 300.027 321.141 268.721 325.884 269.395C326.49 270.78 325.957 271.9 325.555 273.448C326.062 278.527 322.085 287.058 325.259 290.437C326.256 290.722 326.939 291.044 327.927 290.793C323.211 296.732 317.829 311.178 316.639 318.649C316.065 319.053 316.313 318.939 315.59 319.021C315.426 317.787 315.313 316.638 315.201 315.399C315.467 313.413 315.732 312.274 315.313 310.307C314.459 308.737 313.47 308.445 311.885 307.674Z" fill="#260301"/>
<path d="M325.555 273.448C326.062 278.527 322.085 287.058 325.259 290.437C326.256 290.722 326.939 291.044 327.927 290.793C323.211 296.732 317.829 311.178 316.639 318.649C316.065 319.053 316.313 318.939 315.59 319.021C315.426 317.787 315.313 316.638 315.201 315.399C315.467 313.414 315.732 312.274 315.313 310.307C314.459 308.737 313.47 308.445 311.885 307.674C315.845 302.077 322.911 280.993 325.555 273.448Z" fill="#CC2300"/>
<path d="M382.312 720.03C384.029 718.77 384.188 719.295 386.218 717.42C388.198 710.275 387.372 703.14 386.958 695.86C386.584 689.285 385.976 682.53 386.041 675.95C386.201 659.805 388.812 643.81 390.05 627.735C390.595 620.65 390.322 613.525 390.723 606.435C390.794 605.28 391.756 604.41 392.566 603.61C393.056 607.035 393.822 614.695 395.519 617.225C394.823 624.135 393.377 631.865 392.193 638.765C387.443 666.415 389.897 693.785 389.03 721.59C386.844 721.09 384.464 720.6 382.312 720.03Z" fill="#CC2300"/>
<path d="M329.381 708.375C330.028 706.7 330.678 705.07 331.06 703.3C335.17 684.33 310.443 627.855 325.567 615.31C321.892 642.165 329.546 674.435 336.757 700.495C334.155 703.43 331.217 706.9 328.54 709.71C327.602 704.95 325.575 698.315 324.259 693.505C328.265 697.27 328.576 703.09 329.381 708.375Z" fill="#CC2300"/>
<path d="M373.692 377.377L374.72 377.435C374.981 378.373 374.984 378.341 374.297 379.479C370.007 386.586 362.675 394.404 358.157 400.904C347.791 415.82 330.652 445.979 330.029 463.893L328.503 463.727L328.047 462.612C333.019 431.705 348.836 407.446 368.075 383.326C369.829 381.127 371.933 380.112 373.692 377.377Z" fill="#CC2300"/>
<path d="M407.869 973.06C410.251 967.715 410.494 966.875 415.141 963.11L416.67 963.435L416.17 965.25C416.401 968.165 416.59 968.765 418.827 970.68C419.502 971.25 420.189 971.81 420.888 972.35C406.879 977.02 381.79 986.295 367.374 987.14L366.689 986.47C362.596 986.99 356.366 988.89 352.984 988.27C359.262 988.57 401.379 976.595 407.869 973.06Z" fill="#CC2300"/>
<path d="M202.488 450.847C209.87 437.81 223.349 432.542 233.69 422.624C239.316 417.229 246.324 406.98 250.669 400.378C251.951 402.287 251.864 402.82 251.532 405.128C242.694 417.446 215.249 442.701 202.488 450.847Z" fill="#140000"/>
<path d="M352.984 988.27C356.366 988.89 362.596 986.99 366.689 986.47L367.374 987.14C354.544 991.095 308.959 996.565 294.334 996.64C297.457 995.075 316.977 993.335 321.419 993.31C320.413 992.615 299.606 994.335 295.738 993.67C296.297 993.27 306.347 992.745 307.948 992.715C322.949 992.475 338.087 989.435 352.984 988.27Z" fill="#C62102"/>
<path d="M419.449 959.135C418.58 958.005 416.074 954.84 415.802 953.64C414.364 947.305 422.73 937.315 428.468 935.625C419.53 945.985 410.477 954.83 432.103 955.345C428.159 957.36 424.56 959.18 420.828 961.555C419.29 962.535 417.098 964.83 416.17 965.25L416.67 963.435L415.141 963.11C416.641 961.985 418.095 960.46 419.449 959.135Z" fill="#C62102"/>
<path d="M355.104 287.625C358.387 281.11 371.536 262.825 378.988 262.118C371.159 270.305 362.47 278.714 356.018 287.96L355.104 287.625Z" fill="#BA5F4B"/>
<path d="M263.68 379.665C264.233 380.471 265.087 381.809 265.666 382.524C263.535 387.048 261.34 391.25 258.435 395.344C255.863 394.031 256.879 394.175 254.164 394.46L263.68 379.665Z" fill="#161414"/>
<path d="M315.201 315.399C315.313 316.638 315.426 317.787 315.59 319.02C316.313 318.938 316.065 319.052 316.639 318.648C315.767 325.796 315.732 331.229 316.272 338.467C310.545 333.609 313.982 322.061 315.201 315.399Z" fill="#C62102"/>
<path d="M254.164 394.459C256.878 394.175 255.863 394.031 258.435 395.344C256.044 399.028 254.237 401.682 251.532 405.129C251.864 402.821 251.951 402.287 250.669 400.378L251.88 397.117L254.164 394.459Z" fill="#260301"/>
<path d="M278.149 263.194C280.042 265.364 282.57 268.565 284.895 270.079C283.614 271.469 283.909 271.56 282.21 272.087C279.947 271.368 279.533 269.355 276.334 267.438L275.87 267.164C276.589 265.828 277.383 264.505 278.149 263.194Z" fill="#BA5F4B"/>
<path d="M143.684 941.52C146.909 943.09 151.154 944.745 151.577 948.8C147.9 957.07 120.625 944.33 115.474 941.945C86.7612 928.625 65.3327 903.865 55.4932 873.88C54.5402 870.975 50.8257 859.85 54.7882 858.63C56.4772 859.385 56.8967 859.985 58.0687 861.355L58.4557 861.81C62.2307 864.915 63.3837 872.905 66.1312 877.35C76.0302 893.365 80.6702 902.9 95.2907 914.865C106.013 921.575 117.251 927.36 128.245 933.58C131.945 935.67 142.271 938.85 143.684 941.52Z" fill="#161414"/>
<path d="M94.9473 917.35C94.6328 916.71 94.4203 916.095 94.2573 915.4L93.5312 914.96C94.6888 915.28 94.1207 915.29 95.2907 914.865C106.013 921.575 117.251 927.36 128.245 933.58C131.945 935.67 142.271 938.85 143.684 941.52C131.909 938.385 102.68 925.705 94.9473 917.35Z" fill="#CC2300"/>
<path d="M58.4551 861.81C62.2301 864.915 63.3831 872.905 66.1306 877.35C76.0296 893.365 80.6696 902.9 95.2901 914.865C94.1201 915.29 94.6881 915.28 93.5306 914.96L94.2566 915.4C94.4196 916.095 94.6321 916.71 94.9466 917.35C80.4776 906.835 62.0136 880.035 58.4551 861.81Z" fill="#C62102"/>
<path d="M385 212.14C386.714 210.684 387.976 207.818 388.888 205.776C393.745 195.304 399.333 187.644 410.422 183.477C424.941 178.021 431.016 187.385 440.164 196.468C442.642 198.93 447.16 200.069 448.056 203.517C446.391 207.548 443.158 205.315 439.557 206.307C432.801 208.168 426.22 210.74 419.272 211.787C406.421 213.754 399.299 209.869 386.793 215.756L385 212.14Z" fill="#161414"/>
<path d="M402.841 193.366C402.958 194.496 403.101 195.624 403.271 196.747C404.24 202.918 406.258 205.075 411.055 208.549L402.25 208.547L393.759 208.42C396.48 201.893 398.464 198.795 402.841 193.366Z" fill="#FDFDFD"/>
<path d="M431.802 195.868C433.644 197.47 437.178 200.162 437.62 202.381L436.286 203.015L430.93 204.777C431.5 201.243 431.779 199.501 431.802 195.868Z" fill="#FDFDFD"/>
<path d="M282.71 134.69C286.35 136.054 287.224 144.082 287.72 147.363C288.659 153.566 289.384 159.28 292.212 164.963C293.799 162.944 295.739 158.801 298.128 159.838C300.497 163.144 299.765 170.244 303.36 171.625C305.33 170.724 305.033 170.515 306.5 168.538C308.712 171.279 310.79 174.124 312.728 177.065C315.413 181.158 323.811 194.924 318.028 198.516C316.368 198.155 314.741 196.092 313.458 194.756L313.358 200.515C313.438 206.193 313.486 211.872 313.504 217.551C293.552 199.246 273.733 162.171 282.71 134.69Z" fill="#161414"/>
<path d="M130.823 571.82C135.187 541.005 159.535 509.7 183.918 491.244C186.345 489.407 190.292 486.248 193.289 486.236L194.03 486.883C193.039 492.612 172.155 512.995 167.613 519.26C163.221 525.32 157.867 530.985 153.715 538.28C149.325 545.995 145.979 553.315 142.281 561.4C141.431 563.255 137.791 571.49 136.744 572.675C135.768 575.11 134.909 578.37 132.154 578.755C130.215 576.975 130.745 574.3 130.823 571.82Z" fill="#260301"/>
<path d="M130.823 571.82C133.3 574.735 135.178 572.79 136.744 572.675C135.768 575.11 134.909 578.37 132.154 578.755C130.215 576.975 130.745 574.3 130.823 571.82Z" fill="#161414"/>
<path d="M226.613 957.515C241.622 957.785 256.766 956.655 271.663 957.46C274.858 957.635 282.482 959.345 282.297 963.375C281.787 974.52 264.564 973.39 256.724 973.54C248.602 973.465 213.917 970.2 214.486 959.27C215.453 957.85 215.63 957.42 217.192 956.785C219.899 957.035 224.006 957.545 226.613 957.515Z" fill="#260301"/>
<path d="M226.613 957.515C241.622 957.785 256.766 956.655 271.663 957.46C274.858 957.635 282.482 959.345 282.297 963.375C281.787 974.52 264.564 973.39 256.724 973.54C248.602 973.465 213.917 970.2 214.486 959.27C215.453 957.85 215.63 957.42 217.192 956.785C216.75 958.455 216.612 958.765 217.028 960.425C219.945 970.155 276.476 973.655 280.734 964.51C277.7 956.965 240.969 962.535 231.605 960.535C229.491 959.075 228.622 959.945 226.613 957.515Z" fill="#C62102"/>
<path d="M217.193 956.785C219.899 957.035 224.007 957.545 226.614 957.515C228.622 959.945 229.492 959.075 231.605 960.535C227.439 960.24 220.444 957.835 217.029 960.425C216.613 958.765 216.75 958.455 217.193 956.785Z" fill="#CC2300"/>
<path d="M256.918 943.115C263.872 936.385 293.266 936.115 303.487 935.895C310.194 935.75 324.592 937.995 314.312 947.08C305.704 954.685 262.066 955.8 255.882 946.365C255.977 943.92 255.622 944.685 256.918 943.115Z" fill="#260301"/>
<path d="M256.918 943.115C263.872 936.385 293.266 936.115 303.487 935.895C310.194 935.75 324.592 937.995 314.312 947.08C305.704 954.685 262.066 955.8 255.882 946.365C258.063 946.32 260.848 947.155 263.031 947.6C272.107 949.465 310.358 952.865 314.469 942.46C313.958 935.02 284.237 940.55 278.885 941.11C271.57 941.86 264.248 942.525 256.918 943.115Z" fill="#C62102"/>
<path d="M145.893 920.575C158.043 919.545 173.626 927.955 185.371 931.33C191.862 933.195 202.687 940.755 191.846 946.16C178.699 947.54 149.524 938.93 141.128 927.665C139.174 925.045 143.568 921.635 145.893 920.575Z" fill="#C62102"/>
<path d="M144.317 922.96C145.513 923.05 146.705 923.175 147.893 923.335C152.527 923.98 160.067 926.81 164.875 928.17C172.564 930.46 180.618 932.095 188.085 935.04C191.949 936.56 194.919 937.785 194.011 942.395C192.951 942.73 191.861 942.955 190.757 943.075C179.387 944.205 157.764 936.955 148.284 930.39C145.729 928.62 144.609 926.035 144.317 922.96Z" fill="#260301"/>
<path d="M237.822 447.018C242.893 441.322 250.066 435.38 255.696 429.706C262.112 423.24 270.692 411.706 277.482 406.527L278.473 406.622C281.3 410.769 277.039 416.36 274.652 419.948C267.006 431.439 258.217 441.627 246.542 449.185C244.84 450.284 243.09 451.306 241.297 452.248C238.817 453.477 236.526 455.15 234.145 453.23L234.066 451.788C234.713 449.787 236.305 448.517 237.822 447.018Z" fill="#260301"/>
<path d="M237.822 447.018C239.821 448.866 239.757 450.1 241.297 452.249C238.817 453.478 236.526 455.151 234.145 453.231L234.066 451.788C234.713 449.788 236.305 448.518 237.822 447.018Z" fill="#161414"/>
<path d="M218.292 495.209C220.793 493.408 223.577 490.727 226.757 491.323C228.472 493.897 224.863 497.31 223.183 499.235C220.09 504.5 201.875 524.53 196.252 526.565C194.723 526.47 194.547 526.315 193.3 525.405C188.413 517.68 212.884 498.926 218.292 495.209Z" fill="#260301"/>
<path d="M218.292 495.209C220.793 493.408 223.577 490.727 226.757 491.323C228.472 493.897 224.863 497.31 223.183 499.235C222.83 498.232 222.327 497.301 221.849 496.35C220.634 495.215 219.95 495.311 218.292 495.209Z" fill="#161414"/>
<path d="M161.066 567.785C165.87 569.975 155.04 594.265 153.457 598.905C151.955 603.305 149.26 610.755 145.316 613.2C142.803 611.81 143.31 606.525 143.753 604.12C145.709 593.49 152.333 574.295 161.066 567.785Z" fill="#260301"/>
<path d="M192.304 570.885C197.225 576.98 181.245 608.325 175.96 611.875C169.653 601.395 185.613 578.72 192.304 570.885Z" fill="#260301"/>
<path d="M361.992 954.595C365.083 954.18 368.361 954.45 370.746 956.615C372.613 962.545 354.228 967.15 349.747 968.295C347.26 968.53 342.106 968.885 340.358 966.855C340.191 961.145 357.077 955.795 361.992 954.595Z" fill="#260301"/>
<path d="M412.839 190C413.306 190.403 413.351 190.308 413.435 190.863C413.753 192.985 415.807 194.468 417.502 195.917C415.799 197.757 415.474 197.806 414.81 200.232L414.681 200.718L414.32 200.661C412.945 198.147 412.659 197.692 410.063 196.465L410 195.961C412.938 193.589 412.803 193.847 412.839 190Z" fill="#FDFDFD"/>
<path d="M386.792 215.757C384.305 216.962 383.216 217.926 380.79 217.142C379.774 214.474 382.89 213.071 385 212.141L386.792 215.757Z" fill="#260301"/>
<path d="M371.889 214.203C373.023 213.813 374.258 214.423 374.636 215.561C375.015 216.7 374.393 217.928 373.251 218.296C372.125 218.659 370.916 218.047 370.543 216.924C370.169 215.801 370.769 214.587 371.889 214.203Z" fill="#F8DDDA"/>
<path d="M393.608 218.757C394.562 218.189 395.792 218.443 396.444 219.341C397.096 220.24 396.956 221.488 396.12 222.219C395.508 222.755 394.645 222.898 393.892 222.589C393.138 222.28 392.625 221.572 392.565 220.761C392.505 219.949 392.909 219.173 393.608 218.757Z" fill="#F8DDDA"/>
<path d="M203.303 157.193L208.55 157.292C211.63 163.615 212.393 167.859 204.555 170.471C200.117 170.531 196.985 168.098 196.649 163.602C196.491 161.713 197.135 159.844 198.423 158.453C199.6 157.163 201.565 157.275 203.303 157.193Z" fill="#FDFDFD"/>
</svg>
