<svg width="947" height="784" viewBox="0 0 947 784" fill="none" xmlns="http://www.w3.org/2000/svg">
<path d="M249.667 110.822C268.024 105.774 295.246 107.794 314.554 107.262C326.778 106.925 340.702 105.556 352.533 107.685C358.331 112.61 367.568 123.598 373.182 129.327C378.98 135.243 388.114 144.599 392.883 151.017C400.176 160.832 399.293 181.993 396.891 193.952C407.538 194.494 418.549 195.352 428.912 197.878C437.913 200.071 440.95 207.893 446.432 214.734C452.424 222.212 462.365 230.293 466.856 238.555C468.519 241.631 469.519 245.022 469.79 248.509C470.309 255.418 466.565 287.22 464.53 294.338C472.398 294.581 480.532 296.008 488.344 297.176C492.207 280.048 493.592 271.159 502.873 256.168C518.894 254.698 540.935 262.569 556.966 266.421C576.343 271.077 597.508 275.425 616.063 282.434C619.235 287.668 624.268 299.533 626.408 305.282C639.546 304.894 653.436 304.685 663.658 314.361C672.778 322.997 675.536 341.123 681.618 345.457C685.193 348.007 690.255 347.973 694.5 348.232C717.358 349.629 740.666 348.164 763.595 348.405C785.864 348.639 808.285 350.5 830.514 350.08C847.501 349.76 887.34 344.58 899.376 356.335C905.283 362.104 909.365 373.233 909.377 381.394C909.377 383.76 908.607 386.238 907.773 388.432C907.003 390.477 909.849 428.654 909.831 434.203C909.767 457.127 907.283 479.979 906.881 502.887C906.239 540.006 907.12 577.261 906 614.367C905.551 629.049 904.193 643.784 903.283 658.449C902.735 667.275 901.464 676.602 901.749 685.405C901.86 688.876 903.697 692.317 903.201 695.794C902.711 699.207 900.525 701.762 897.475 703.232C887.031 708.272 863.082 705.792 850.766 706.341C821.995 707.63 793.264 709.812 764.481 710.908C748.194 711.532 731.849 711.509 715.556 711.532C691.654 711.591 667.752 711.334 643.861 710.757C621.078 710.027 598.342 708.575 575.545 708.522C563.844 708.522 552.144 708.779 540.454 709.304C522.739 710.097 486.747 713.434 471.713 708.254C454.307 702.252 438.407 643.586 433.468 627.801C428.12 611.275 422.62 594.796 416.968 578.368C413.206 567.59 408.91 556.962 405.015 546.23L390.29 504.616C385.448 491.264 380.092 478.051 376.378 464.288C371.215 445.156 373.87 433.015 395.393 430.296C397.974 429.97 410.345 429.925 410.68 427.703L417.401 387.042C409.882 387.044 400.72 385.427 393.147 384.424C381.405 382.869 369.792 381.31 358.2 378.849C361.675 385.009 363.856 393.111 368.14 398.768C367.721 399.559 367.286 400.341 366.835 401.114C361.1 410.868 343.306 417.339 332.981 421.897L293.62 439.318C282.163 444.497 255.209 458.832 243.564 461.809C238.51 495.586 230.462 529.757 226.597 563.923C225.081 577.322 217.655 588.525 206.012 573.55C195.697 560.283 183.95 543.916 176.175 528.865C165.465 546.825 131.284 610.085 114.474 615.743C113.343 614.361 112.126 612.547 111.067 611.065C96.0254 605.64 85.5058 595.07 74.7395 583.742C77.9321 578.243 80.2565 571.047 83.7716 565.87C98.2827 544.498 114.035 520.735 131.166 501.516C115.379 497.784 99.432 495.081 83.7442 491.08C76.0854 489.127 60.0785 484.389 71.9288 475.166C105.087 449.36 142.158 429.851 177.822 407.914C183.245 404.577 188.845 400.904 194.531 398.117L186.001 380.079C185.28 380.695 182.297 383.106 181.684 383.364C167.32 389.389 98.2016 427.823 87.1899 425.211C84.3273 422.575 75.3844 408.592 73.6794 404.815C58.7974 371.844 43.6154 338.97 28.8929 305.926C24.8423 296.835 22.2501 287.721 20.1445 278.033C32.688 265.866 62.3037 252.242 78.4692 244.326C82.5726 242.316 90.5563 239.657 95.5817 237.394C103.215 240.324 110.962 243.986 118.335 247.531C115.25 240.712 112.437 232.823 110.387 225.707C103.871 203.09 97.7847 179.836 95.419 156.459C95.4545 156.813 94.2381 154.324 94.265 154.377L94.7262 153.156C101.478 146.232 145.344 132.571 156.97 130.276C162.02 129.278 166.331 128.728 171.586 128.54C179.809 133.495 189.276 138.992 197.358 144.071C209.23 151.29 214.923 154.833 219.467 167.702C222.466 176.194 241.949 250.621 244.461 252.685L245.401 252.352C246.465 248.386 245.72 228.55 245.768 223.363C246.127 184.634 240.672 149.063 249.667 110.822Z" fill="#151414"/>
<path d="M626.408 305.282C639.546 304.894 653.436 304.685 663.658 314.361C672.778 322.997 675.536 341.123 681.618 345.457C685.193 348.007 690.255 347.973 694.5 348.232C717.358 349.629 740.666 348.164 763.595 348.405C785.864 348.639 808.286 350.5 830.514 350.08C847.501 349.759 887.34 344.579 899.376 356.335C905.283 362.104 909.365 373.233 909.377 381.394C909.377 383.76 908.607 386.238 907.773 388.432C907.003 390.477 909.849 428.654 909.831 434.203C909.767 457.127 907.283 479.979 906.881 502.887C906.239 540.005 907.12 577.261 906 614.366C905.551 629.049 904.193 643.784 903.283 658.449C902.735 667.275 901.464 676.602 901.749 685.405C901.86 688.876 903.697 692.317 903.201 695.794C902.711 699.206 900.525 701.761 897.475 703.231C887.031 708.271 863.082 705.792 850.766 706.341C821.995 707.63 793.264 709.811 764.481 710.908C748.194 711.532 731.849 711.509 715.556 711.532C691.654 711.591 667.752 711.334 643.861 710.756C621.078 710.027 598.342 708.575 575.545 708.522C563.844 708.522 552.144 708.779 540.454 709.304C522.739 710.097 486.748 713.434 471.713 708.254C454.307 702.251 438.407 643.586 433.468 627.801C428.12 611.275 422.62 594.796 416.968 578.368C413.206 567.59 408.91 556.962 405.015 546.23L390.291 504.616C385.448 491.264 380.092 478.051 376.378 464.288C371.215 445.155 373.87 433.015 395.394 430.296C397.974 429.97 410.345 429.925 410.68 427.703L411.379 428.991C413.822 429.512 417.884 429.148 420.407 428.776C454.327 428.418 486.205 426.108 520 425.375C522.769 425.381 527.572 425.778 529.87 424.806C532.294 425.529 546.536 425.267 550.383 425.284C564.874 425.442 579.363 425.83 593.84 426.447C597.351 426.577 609.748 426.843 612.833 427.42C616.034 429.285 619.078 428.819 622.32 427.307C654.252 428.092 686.202 427.781 718.111 426.374C735.19 425.688 796.366 419.577 810.326 433.179C820.665 443.254 830.608 478.543 834.631 493.019C843.746 526.482 855.233 558.742 868.027 590.946C869.916 595.7 875.229 614.261 877.095 616.694C877.888 620.369 885.597 648.398 886.955 650.44C887.638 652.411 886.915 653.776 888.792 655.812L889.527 655.293C889.673 654.657 889.9 653.683 889.929 653.053C890.751 633.086 891.673 613.456 891.836 593.46L892.612 540.893C892.722 525.995 892.227 510.653 892.886 495.791C894.431 460.709 897.802 425.625 898.449 390.488C898.542 385.426 894.099 372.489 890.845 368.23C888.401 365.023 883.486 364.474 879.707 364.065C861.385 363.064 841.623 365.287 823.412 365.046C799.352 364.727 775.135 362.963 751.022 362.632C729.581 362.338 707.329 363.063 686.184 361.648C663.116 360.104 665.845 341.313 654.707 326.986C648.806 319.397 640.473 319.823 631.353 319.051C628.676 314.409 627.224 310.55 626.408 305.282Z" fill="#D54121"/>
<path d="M511.373 440.125C555.45 439.193 603.654 442.872 648.537 443.305C669.18 443.434 689.817 443.131 710.448 442.396C738.811 441.291 773.758 436.635 800.495 444.816C813.131 462.479 823.913 513.247 831.611 536.968L882.617 689.494C839.704 690.13 797.614 693.817 754.713 695.287C728.881 696.162 703.031 696.336 677.187 695.811C623.148 694.464 570.016 690.287 516.129 695.94C501.361 697.486 485.726 698.057 470.855 698.944C468.47 683.923 459.165 668.202 454.866 654.027C447.498 629.965 440.505 605.576 432.202 581.813C422.477 554.5 412.252 527.235 403.026 499.75C399.105 488.068 382.173 454.618 387.574 443.214C391.694 439.966 412.563 442.112 419.057 441.993L511.373 440.125Z" fill="#F5F4EE"/>
<path d="M631.755 398.33C639.266 399.952 648.071 400.524 655.763 400.796C673.781 401.433 692.091 402.913 710.116 402.451C732.753 401.871 755.034 401.044 777.695 401.116C792.156 401.222 806.618 401.623 821.062 402.318C839.127 403.039 855.53 404.418 873.345 400.565C872.634 406.952 873.561 414.837 873.701 421.361C874.214 434.979 874.832 448.606 875.188 462.23C875.637 479.314 872.954 497.378 873.963 514.401C875.981 548.663 876.424 582.438 877.095 616.694C875.229 614.261 869.916 595.7 868.027 590.946C855.233 558.742 843.746 526.482 834.631 493.019C830.608 478.543 820.665 443.254 810.326 433.179C796.366 419.577 735.19 425.688 718.111 426.374C686.202 427.781 654.252 428.092 622.32 427.307C626.752 418.529 629.242 407.889 631.755 398.33Z" fill="white"/>
<path d="M508.238 262.821C522.255 268.556 539.757 274.077 554.368 277.875C570.9 282.172 590.324 285.673 606.132 292.151C600.155 301.042 589.822 321.562 591.554 332.211C593.794 345.985 621.44 348.698 632.612 349.915C628.915 363.299 611.305 417.1 612.833 427.42C609.748 426.844 597.351 426.577 593.84 426.447C579.363 425.83 564.874 425.442 550.383 425.284C546.536 425.267 532.294 425.529 529.87 424.807C532.16 413.519 533.948 402.572 536.113 391.389C546.692 395.608 571.766 405.936 582.483 401.541C583.892 399.944 583.63 400.722 583.501 398.65C579.174 391.295 561.268 386.925 553.219 384.841C548.132 383.547 543.033 382.296 537.925 381.087C539.592 374.43 541.008 367.089 541.454 360.24C549.713 364.12 593.152 381.565 599.141 373.992C599.45 364.126 564.803 357.324 556.671 353.811C553.22 352.212 539.937 351.473 540.566 346.16C541.311 341.57 542.954 339.352 539.719 335.144C533.379 326.895 526.887 318.691 520.587 310.404C518.455 307.6 518.062 306.704 516.651 303.51C508.944 300.034 505.049 299.718 496.777 298.41C502.4 285.948 505.762 276.452 508.238 262.821Z" fill="white"/>
<path d="M441.851 298.851C463.487 303.232 486.581 306.713 508.456 310.506C493.634 343.765 503.523 348.52 534.715 354.883C528.311 378.042 523.395 401.588 520 425.376C486.205 426.109 454.327 428.418 420.407 428.776C427.787 392.387 432.576 355.419 438.505 318.773C439.584 312.109 440.986 305.559 441.851 298.851Z" fill="white"/>
<path d="M631.353 319.051C640.473 319.824 648.806 319.397 654.707 326.986C665.845 341.313 663.116 360.105 686.184 361.648C707.329 363.063 729.581 362.338 751.022 362.632C775.135 362.963 799.352 364.727 823.412 365.046C841.623 365.287 861.385 363.064 879.707 364.065C883.486 364.474 888.402 365.023 890.845 368.23C894.099 372.489 898.542 385.426 898.449 390.488C897.802 425.625 894.431 460.709 892.886 495.791C892.227 510.653 892.723 525.995 892.612 540.894L891.836 593.46C891.673 613.457 890.752 633.086 889.929 653.053C889.9 653.683 889.673 654.658 889.527 655.293L888.792 655.813C886.915 653.777 887.638 652.412 886.955 650.44C887.451 624.318 887.813 598.366 887.095 572.134C886.652 555.971 885.393 540.432 885.107 523.812C884.675 498.568 886.326 474.791 885.737 449.572C885.527 440.703 884.39 402.29 878.891 396.201C875.818 392.799 849.367 391.785 842.754 391.329C815.744 390.123 787.998 387.682 760.953 388.848C718.49 390.679 676.085 390.784 633.639 392.082C637.656 379.072 643.733 358.98 643.225 345.665C643.365 349.312 631.528 319.456 631.353 319.051Z" fill="white"/>
<path d="M250.016 261.428L250.477 261.484C251.904 262.565 258.641 281.454 260.626 285.857C268.811 304.015 290.435 289.87 303.543 282.246C314.036 313.798 329.637 344.059 343.174 374.414C346.635 382.174 350.112 390.896 354.171 398.295C328.16 412.81 297.823 421.832 272.149 437.687C263.544 443.002 254.203 448.593 245.305 453.351L246.52 447.823C251.11 426.387 253.932 404.025 255.898 382.216C256.217 378.679 257.314 370.569 256.718 367.547C255.597 365.83 255.306 365.726 253.415 364.885C247.395 365.025 210.013 388.344 202.81 393.113C200.325 384.845 193.004 370.925 188.988 362.523C181.155 346.138 170.606 318.266 161.092 303.442C168.659 300.785 176.907 295.72 184.4 292.513C206.331 283.125 228.075 270.375 250.016 261.428Z" fill="white"/>
<path d="M285.41 299.309C288.172 299.132 289.756 298.673 291.839 300.729C292.519 307.715 277.27 313.085 271.805 315.38C251.094 324.078 230.663 333.466 209.941 342.123C207.183 342.757 206.437 343.146 204.013 342.304L203.589 341.219C207.968 331.872 272.105 305.068 285.41 299.309Z" fill="#151414"/>
<path d="M279.269 325.533C281.195 325.351 282.982 325.863 284.361 327.171C284.32 327.707 284.293 328.189 284.082 328.691C280.707 336.699 230.065 355.71 219.98 359.64C218.566 360.327 218.627 360.27 217.027 360.197L216.587 359.49C220.463 354.655 271.34 327.868 279.269 325.533Z" fill="#151414"/>
<path d="M342.395 196.304C370.621 201 400.32 202.925 428.32 206.829C425.487 213.537 421.604 227.408 421.453 234.657C421.071 253.064 450.252 249.136 462.083 248.936C458.838 261.989 454.358 280.473 455.908 293.699C451.478 293.397 446.766 293.459 442.307 293.433C441.883 286.174 442.23 278.927 441.875 271.682C441.675 267.584 441.276 263.65 436.706 262.759C430.93 264.026 429.44 269.538 426.241 273.619L425.43 273.543C425.072 271.818 425 271.541 424.143 270.007L423.362 270.178C421.489 273.488 420.891 283.579 423.098 286.843C424.85 287.753 424.105 287.688 425.854 287.251C428.96 284.806 432.048 276.293 433.699 272.422C433.219 282.143 432.515 288.89 435.488 298.318C427.732 296.957 412.314 295.644 404 294.853C391.039 293.622 367.259 290.16 355.04 291.178C358.007 281.572 360.988 239.593 359.161 230.016L358.538 229.6C353.942 235.313 350.723 271.542 350.474 280.353C350.374 283.902 350.903 290.177 351.275 293.892L357.859 296.081C364.437 297.687 376.649 299.487 383.517 300.468C399.126 302.697 416.597 305.192 432.282 306.312C431.132 311.195 430.288 315.556 429.407 320.496C416.957 314.859 372.547 313.063 356.748 312.47C354.793 312.396 352.152 312.592 350.706 314.107C350.792 314.801 350.678 315.086 351.203 315.597C355.271 319.563 419.986 327.569 427.844 327.082C424.511 340.647 421.393 363.019 418.998 377.415C401.941 373.198 372.486 371.627 355.132 371.406C346.875 352.956 338.334 334.635 329.512 316.449C334.45 304.38 337.001 266.177 338.318 251.453C339.743 235.529 342.216 212.146 342.395 196.304Z" fill="white"/>
<path d="M376.279 237.787C380.208 238.585 381.557 240.842 382.215 244.691C383.379 251.503 383.439 258.757 383.745 265.683C390.308 256.1 398.122 248.94 405.364 263.81C407.669 268.543 411.342 276.404 408.892 281.656C407.435 282.816 408.223 282.613 406.492 282.435C401.06 279.398 399.183 269.372 397.184 263.262C396.702 262.192 396.462 262.08 395.629 261.272C390.447 262.254 388.885 272.374 382.684 273.842C374.902 272.028 375.698 251.089 375.335 243.966C371.811 250.729 367.248 258.072 362.061 263.654C363.442 255.788 369.715 242.28 376.279 237.787Z" fill="#151414"/>
<path d="M350.977 328.015C357.424 327.48 372.043 326.725 376.977 330.768C377.878 332.611 377.758 331.788 377.352 333.889C376.273 334.165 375.179 334.376 374.075 334.523C368.847 335.234 356.559 334.572 352.102 331.085C350.826 330.088 351.134 329.699 350.977 328.015Z" fill="#151414"/>
<path d="M92.0095 249.047C92.2299 249.285 101.792 278.479 104.192 282.728C114.174 300.405 124.471 292.1 139.067 285.456C145.666 282.453 151.452 279.734 157.39 276.574C159.207 283.618 161.11 287.786 166.35 292.77C163.182 294.71 158.397 297.725 157.168 301.439C154.376 309.873 177.319 361.116 182.335 372.137C169.567 374.984 138.305 392.089 125.682 398.883C113.995 405.451 101.66 411.789 89.7837 418.015C86.0009 401.256 74.3862 381.811 67.4644 365.978C54.6599 336.69 40.2934 308.569 27.4539 279.255C37.7426 275.16 49.0698 269.51 59.275 264.848C69.1048 260.358 82.8304 254.518 92.0095 249.047Z" fill="white"/>
<path d="M138.38 299.873C141.694 299.454 143.706 299.148 145.751 301.913C145.972 306.232 140.073 310.172 136.608 311.6C118.507 319.055 99.3697 329.36 81.1423 335.973C78.4552 336.892 76.0848 337.911 74.4165 335.071C75.0702 327.112 129.527 303.826 138.38 299.873Z" fill="#151414"/>
<path d="M122.387 332.542C124.422 332.811 124.706 332.732 126.276 333.918C128.193 341.168 95.5223 352.283 89.3487 354.027C86.6144 354.409 87.2191 354.724 85.0178 353.685C86.6704 347.249 115.368 334.715 122.387 332.542Z" fill="#151414"/>
<path d="M243.291 382.528L243.898 382.736C244.091 383.257 222.693 491.273 220.562 503.235C217.173 521.311 214.518 539.517 212.603 557.809C208.64 551.242 184.079 512.551 175.303 512.867C166.784 515.126 159.099 530.669 154.798 536.735C140.365 557.09 129.896 581.103 115.876 601.283C110.735 594.732 99.1067 588.437 91.8356 584.5C90.2694 583.631 87.8575 582.536 86.1898 581.721C96.7876 569.031 143.518 508.306 145.104 496.707C145.189 496.083 145.186 495.315 144.791 494.805C138.454 486.621 96.6185 479.389 85.5198 477.967C117.862 457.158 154.689 440.274 187.228 419.429C206.374 407.163 225.448 396.941 243.291 382.528Z" fill="#F03905"/>
<path d="M253.616 114.679C256.496 115.288 261.129 115.638 264.14 115.676C284.761 115.934 305.453 118.52 326.04 117.324C331.303 117.018 336.529 116.871 341.748 116.696C340.265 126.441 339.998 138.443 339.389 148.365C337.81 174.085 370.251 169.225 388.186 167.351C387.476 175.977 387.624 184.651 388.626 193.248C373.151 190.124 353.611 189.851 337.942 190.196C335.822 196.821 334.808 204.457 333.834 211.324C325.095 210.577 281.682 209.865 277.621 215.64C281.015 218.594 291.581 218.562 296.083 218.71C306.675 218.674 323.063 221.259 332.672 220.065C330.777 229.16 330.083 239.773 329.029 249.052C327.035 266.594 325.767 284.68 323.308 302.128C318.79 289.354 310.611 267.196 295.998 263.66C282.414 260.373 268.537 252.16 255.568 248.845C260.357 211.65 254.012 171.187 253.732 133.7C253.685 127.359 253.632 121.021 253.616 114.679Z" fill="white"/>
<path d="M296.72 186.334C300.521 186.041 330.378 183.351 327.113 191.867C322.705 195.276 312.901 194.912 307.49 194.853C302.161 194.828 278.479 194.902 276.434 189.926C278.702 186.461 292.39 186.53 296.72 186.334Z" fill="#151414"/>
<path d="M162.255 139.013L162.665 139.161C163.521 140.234 166.102 159.696 167.789 164.592C174.691 184.631 192.889 173.301 208.879 167.117C210.757 179.998 228.046 246.024 234.755 256.604C216.361 265.467 197.059 275.788 178.725 285.128C176.562 286.312 174.149 287.84 172.008 289.127C168.621 269.979 160.386 263.966 143.368 257.483C137.237 255.147 131.027 252.48 124.813 250.212C124.347 235.316 118.036 220.746 113.989 206.283C109.363 189.746 104.273 173.153 99.0815 156.779C107.014 155.045 118.538 151.299 126.376 148.94C138.226 145.248 150.192 141.937 162.255 139.013Z" fill="white"/>
<path d="M192.317 183.256C195.817 182.931 198.585 182.102 200.065 185.722C199.922 186.461 199.791 187.005 199.308 187.605C194.452 193.649 149.572 203.461 140.984 204.211C138.694 204.684 135.531 205.263 133.382 204.306L133.428 203.534C137.946 200.076 183.872 185.786 192.317 183.256Z" fill="#151414"/>
<path d="M180.254 210.741C183.169 210.36 184.041 210.04 186.049 212.046C187.08 218.697 170.383 221.741 165.339 222.945C158.499 224.576 151.214 226.28 144.274 227.32C142.34 227.638 140.615 227.577 138.915 226.596L139.025 225.554C143.507 221.088 173.409 211.969 180.254 210.741Z" fill="#151414"/>
<path d="M349.287 121.551C350.584 121.992 381.553 156.07 381.56 156.131L378.789 156.452C372.124 157.189 350.39 160.736 349.967 150.315C349.585 140.874 349.685 131.095 349.287 121.551Z" fill="white"/>
<path d="M100.719 249.348C103.924 250.522 113.427 256.172 117.366 258.144C127.032 262.985 134.914 266.251 145.003 270.002L135.834 274.14C129.973 277.146 123.429 280.709 117.335 283.009C112.411 274.922 105.982 259.035 100.719 249.348Z" fill="white"/>
<path d="M611.357 297.945C612.798 299.199 613.305 301.989 613.9 303.842C617.83 316.169 623.533 326.84 630.513 337.669L623.714 335.837C618.058 334.675 607.415 333.293 603.631 329.064C603.089 325.006 609.789 303.297 611.357 297.945Z" fill="white"/>
<path d="M170.083 136.75C170.666 136.895 197.874 156.292 201.707 158.494C199.91 159.076 198.102 159.762 196.324 160.408C191.611 162.212 185.035 166.033 180.21 165.613C175.598 162.672 171.679 142.851 170.083 136.75Z" fill="white"/>
<path d="M259.083 260.65C261.564 261.177 273.561 266.712 276.753 268.031C283.712 270.909 289.047 272.654 296.261 274.911C293.861 275.709 291.414 276.836 289.082 277.841C282.873 280.703 278.829 283.242 272.214 285.461C269.349 281.589 261.987 266.048 259.083 260.65Z" fill="white"/>
<path d="M433.471 213.346C433.467 213.343 441.315 224.115 442.302 225.387C444.322 227.994 454.754 238.187 455.41 239.98L454.366 240.424C425.126 239.932 430.481 239.638 433.471 213.346Z" fill="white"/>
<path d="M514.148 318.168C516.462 319.261 523.348 332.272 525.677 335.274C526.961 336.93 531.329 341.603 531.544 343.178L530.532 343.572C509.23 338.569 509.54 339.658 514.148 318.168Z" fill="white"/>
</svg>
