<svg width="406" height="336" viewBox="0 0 406 336" fill="none" xmlns="http://www.w3.org/2000/svg">
<path d="M107.038 47.4955C114.908 45.332 126.579 46.1977 134.856 45.9697C140.097 45.8252 146.067 45.2387 151.139 46.151C153.624 48.2617 157.585 52.9707 159.991 55.426C162.477 57.9617 166.393 61.9712 168.437 64.7217C171.564 68.9285 171.186 77.9975 170.156 83.1225C174.721 83.355 179.441 83.7225 183.884 84.805C187.743 85.745 189.045 89.0975 191.395 92.0292C193.964 95.234 198.226 98.6972 200.152 102.238C200.865 103.556 201.293 105.01 201.409 106.504C201.632 109.465 200.027 123.094 199.154 126.145C202.528 126.249 206.015 126.861 209.364 127.361C211.02 120.021 211.614 116.211 215.593 109.786C222.461 109.157 231.911 112.53 238.784 114.181C247.091 116.176 256.165 118.039 264.12 121.043C265.48 123.286 267.637 128.372 268.555 130.835C274.187 130.669 280.142 130.579 284.525 134.726C288.435 138.428 289.617 146.196 292.225 148.053C293.757 149.146 295.927 149.132 297.747 149.243C307.547 149.841 317.54 149.213 327.37 149.317C336.917 149.417 346.53 150.215 356.06 150.035C363.342 149.897 380.422 147.677 385.582 152.715C388.115 155.188 389.865 159.957 389.87 163.455C389.87 164.469 389.54 165.531 389.182 166.471C388.852 167.347 390.072 183.709 390.065 186.087C390.037 195.912 388.972 205.705 388.8 215.523C388.525 231.431 388.902 247.398 388.422 263.3C388.23 269.593 387.647 275.908 387.257 282.193C387.022 285.975 386.477 289.973 386.6 293.745C386.647 295.233 387.435 296.708 387.222 298.198C387.012 299.66 386.075 300.755 384.767 301.385C380.29 303.545 370.022 302.483 364.742 302.718C352.407 303.27 340.09 304.205 327.75 304.675C320.767 304.943 313.76 304.933 306.775 304.943C296.527 304.968 286.28 304.858 276.037 304.61C266.27 304.298 256.522 303.675 246.749 303.653C241.732 303.653 236.716 303.763 231.704 303.988C224.11 304.328 208.679 305.758 202.234 303.538C194.771 300.965 187.955 275.823 185.837 269.058C183.544 261.975 181.186 254.913 178.763 247.872C177.151 243.253 175.309 238.698 173.639 234.099L167.326 216.264C165.25 210.542 162.954 204.879 161.361 198.981C159.148 190.781 160.286 185.578 169.514 184.413C170.62 184.273 175.924 184.254 176.068 183.302L178.949 165.875C175.725 165.876 171.797 165.183 168.551 164.753C163.517 164.087 158.538 163.419 153.568 162.364C155.058 165.004 155.993 168.476 157.83 170.901C157.65 171.24 157.464 171.575 157.27 171.906C154.811 176.086 147.183 178.86 142.756 180.813L125.881 188.279C120.97 190.499 109.414 196.643 104.421 197.918C102.255 212.394 98.8038 227.039 97.1468 241.682C96.4971 247.424 93.3133 252.225 88.3215 245.807C83.8993 240.121 78.8633 233.107 75.5298 226.657C70.9383 234.354 56.2843 261.465 49.0773 263.89C48.5923 263.298 48.0708 262.52 47.6168 261.885C41.1681 259.56 36.6581 255.03 32.0423 250.175C33.4111 247.819 34.4076 244.735 35.9146 242.516C42.1358 233.356 48.8893 223.172 56.2336 214.936C49.4656 213.336 42.6286 212.178 35.9028 210.463C32.6193 209.626 25.7568 207.595 30.8373 203.643C45.0531 192.583 60.9463 184.222 76.2361 174.82C78.5611 173.39 80.9621 171.816 83.3996 170.622L79.7426 162.891C79.4336 163.155 78.1548 164.189 77.8918 164.299C71.7338 166.881 42.1011 183.353 37.3801 182.234C36.1528 181.104 32.3188 175.111 31.5878 173.492C25.2076 159.362 18.6987 145.273 12.3868 131.111C10.6503 127.215 9.53896 123.309 8.63623 119.157C14.0139 113.943 26.7108 108.104 33.6413 104.711C35.4006 103.85 38.8233 102.71 40.9778 101.74C44.2503 102.996 47.5718 104.566 50.7328 106.085C49.4101 103.163 48.2041 99.7815 47.3251 96.7317C44.5318 87.039 41.9223 77.0727 40.9081 67.054C40.9233 67.2057 40.4018 66.139 40.4133 66.162L40.6111 65.6385C43.5056 62.6712 62.3121 56.8162 67.2963 55.8327C69.4616 55.4052 71.3096 55.1695 73.5626 55.0887C77.0878 57.2122 81.1466 59.5685 84.6116 61.745C89.7016 64.839 92.1421 66.3572 94.0903 71.8727C95.3761 75.512 103.729 107.409 104.806 108.294L105.209 108.151C105.665 106.451 105.345 97.9505 105.366 95.7275C105.52 79.1292 103.181 63.8845 107.038 47.4955Z" fill="#151414"/>
<path d="M268.555 130.835C274.188 130.669 280.143 130.579 284.525 134.726C288.435 138.428 289.618 146.196 292.225 148.053C293.758 149.146 295.928 149.132 297.748 149.243C307.548 149.841 317.54 149.213 327.37 149.317C336.918 149.417 346.53 150.215 356.06 150.035C363.343 149.897 380.423 147.677 385.583 152.715C388.115 155.188 389.865 159.957 389.87 163.455C389.87 164.469 389.54 165.531 389.183 166.471C388.853 167.347 390.073 183.709 390.065 186.087C390.038 195.912 388.973 205.705 388.8 215.523C388.525 231.431 388.903 247.398 388.423 263.3C388.23 269.593 387.648 275.908 387.258 282.193C387.023 285.975 386.478 289.973 386.6 293.745C386.648 295.233 387.435 296.708 387.223 298.198C387.013 299.66 386.075 300.755 384.768 301.385C380.29 303.545 370.023 302.483 364.743 302.718C352.408 303.27 340.09 304.205 327.75 304.675C320.768 304.943 313.76 304.933 306.775 304.943C296.528 304.968 286.28 304.858 276.038 304.61C266.27 304.298 256.523 303.675 246.749 303.653C241.733 303.653 236.716 303.763 231.705 303.988C224.11 304.328 208.68 305.758 202.234 303.538C194.772 300.965 187.955 275.823 185.838 269.058C183.545 261.975 181.187 254.913 178.764 247.872C177.151 243.253 175.309 238.698 173.639 234.099L167.326 216.264C165.25 210.542 162.954 204.879 161.362 198.981C159.148 190.781 160.287 185.578 169.514 184.413C170.62 184.273 175.924 184.254 176.068 183.302L176.368 183.854C177.415 184.077 179.156 183.921 180.238 183.761C194.78 183.608 208.447 182.618 222.936 182.304C224.123 182.306 226.182 182.476 227.167 182.06C228.206 182.37 234.312 182.258 235.961 182.265C242.174 182.332 248.386 182.499 254.593 182.763C256.098 182.819 261.413 182.933 262.735 183.18C264.108 183.98 265.413 183.78 266.803 183.132C280.493 183.468 294.19 183.335 307.87 182.732C315.193 182.438 341.42 179.819 347.405 185.648C351.838 189.966 356.1 205.09 357.825 211.294C361.733 225.635 366.658 239.461 372.143 253.263C372.953 255.3 375.23 263.255 376.03 264.298C376.37 265.873 379.675 277.885 380.258 278.76C380.55 279.605 380.24 280.19 381.045 281.063L381.36 280.84C381.423 280.568 381.52 280.15 381.533 279.88C381.885 271.323 382.28 262.91 382.35 254.34L382.683 231.812C382.73 225.427 382.518 218.851 382.8 212.482C383.463 197.447 384.908 182.411 385.185 167.352C385.225 165.183 383.32 159.638 381.925 157.813C380.878 156.439 378.77 156.203 377.15 156.028C369.295 155.599 360.823 156.552 353.015 156.448C342.7 156.312 332.318 155.556 321.98 155.414C312.788 155.288 303.248 155.599 294.183 154.992C284.293 154.331 285.463 146.277 280.688 140.137C278.158 136.885 274.585 137.067 270.675 136.736C269.528 134.747 268.905 133.093 268.555 130.835Z" fill="#D54121"/>
<path d="M219.237 188.625C238.134 188.226 258.8 189.802 278.042 189.988C286.892 190.043 295.74 189.913 304.585 189.598C316.745 189.125 331.727 187.13 343.19 190.636C348.607 198.206 353.23 219.963 356.53 230.129L378.397 295.498C360 295.77 341.955 297.35 323.562 297.98C312.487 298.355 301.405 298.43 290.325 298.205C267.157 297.628 244.378 295.838 221.276 298.26C214.944 298.923 208.241 299.168 201.866 299.548C200.844 293.11 196.854 286.373 195.011 280.298C191.852 269.985 188.854 259.533 185.294 249.349C181.125 237.643 176.741 225.958 172.786 214.179C171.105 209.172 163.846 194.836 166.161 189.949C167.928 188.557 176.875 189.477 179.659 189.426L219.237 188.625Z" fill="#F5F4EE"/>
<path d="M270.848 170.713C274.068 171.408 277.843 171.653 281.14 171.77C288.865 172.043 296.715 172.677 304.443 172.479C314.148 172.231 323.7 171.876 333.415 171.907C339.615 171.952 345.815 172.124 352.008 172.422C359.753 172.731 366.785 173.322 374.423 171.671C374.118 174.408 374.515 177.787 374.575 180.583C374.795 186.42 375.06 192.26 375.213 198.098C375.405 205.42 374.255 213.162 374.688 220.458C375.553 235.141 375.743 249.616 376.03 264.297C375.23 263.255 372.953 255.3 372.143 253.262C366.658 239.461 361.733 225.635 357.825 211.294C356.1 205.09 351.838 189.966 347.405 185.648C341.42 179.819 315.193 182.438 307.87 182.732C294.19 183.335 280.493 183.468 266.803 183.131C268.703 179.369 269.77 174.809 270.848 170.713Z" fill="white"/>
<path d="M217.893 112.638C223.902 115.095 231.406 117.461 237.67 119.089C244.757 120.931 253.085 122.431 259.862 125.208C257.3 129.018 252.87 137.812 253.612 142.376C254.572 148.279 266.425 149.442 271.215 149.963C269.63 155.699 262.08 178.757 262.735 183.18C261.412 182.933 256.097 182.819 254.592 182.763C248.386 182.498 242.174 182.332 235.961 182.264C234.312 182.257 228.206 182.37 227.167 182.06C228.149 177.222 228.915 172.531 229.843 167.738C234.379 169.546 245.129 173.973 249.723 172.089C250.327 171.404 250.215 171.738 250.16 170.85C248.305 167.698 240.628 165.825 237.177 164.932C234.996 164.377 232.81 163.841 230.62 163.323C231.335 160.47 231.942 157.324 232.133 154.389C235.674 156.051 254.297 163.528 256.865 160.282C256.997 156.054 242.143 153.139 238.657 151.633C237.178 150.948 231.483 150.631 231.753 148.354C232.072 146.387 232.776 145.437 231.389 143.633C228.671 140.098 225.888 136.582 223.187 133.03C222.273 131.828 222.105 131.445 221.5 130.076C218.195 128.586 216.526 128.45 212.979 127.89C215.39 122.549 216.831 118.479 217.893 112.638Z" fill="white"/>
<path d="M189.431 128.079C198.707 129.956 208.608 131.448 217.986 133.074C211.632 147.328 215.871 149.366 229.244 152.093C226.498 162.018 224.391 172.109 222.935 182.304C208.447 182.618 194.78 183.608 180.238 183.761C183.402 168.166 185.455 152.322 187.997 136.617C188.459 133.761 189.06 130.954 189.431 128.079Z" fill="white"/>
<path d="M270.675 136.736C274.585 137.067 278.157 136.885 280.687 140.137C285.462 146.277 284.292 154.331 294.182 154.992C303.247 155.599 312.787 155.288 321.98 155.414C332.317 155.556 342.7 156.312 353.015 156.448C360.822 156.552 369.295 155.599 377.15 156.028C378.77 156.203 380.877 156.439 381.925 157.813C383.32 159.638 385.225 165.183 385.185 167.352C384.907 182.411 383.462 197.447 382.8 212.482C382.517 218.851 382.73 225.427 382.682 231.812L382.35 254.34C382.28 262.91 381.885 271.323 381.532 279.88C381.52 280.15 381.422 280.568 381.36 280.84L381.045 281.063C380.24 280.19 380.55 279.605 380.257 278.76C380.47 267.565 380.625 256.443 380.317 245.2C380.127 238.273 379.587 231.614 379.465 224.491C379.28 213.672 379.987 203.482 379.735 192.674C379.645 188.873 379.157 172.41 376.8 169.8C375.482 168.343 364.142 167.908 361.307 167.713C349.727 167.196 337.832 166.15 326.237 166.649C308.032 167.434 289.852 167.479 271.655 168.035C273.377 162.459 275.982 153.849 275.765 148.142C275.825 149.705 270.75 136.91 270.675 136.736Z" fill="white"/>
<path d="M107.187 112.041L107.385 112.065C107.997 112.528 110.885 120.623 111.736 122.51C115.245 130.292 124.516 124.23 130.136 120.963C134.634 134.485 141.322 147.454 147.126 160.463C148.61 163.789 150.101 167.527 151.841 170.698C140.689 176.919 127.683 180.785 116.676 187.58C112.987 189.858 108.982 192.254 105.168 194.294L105.689 191.924C107.656 182.737 108.866 173.154 109.709 163.807C109.846 162.291 110.316 158.816 110.06 157.52C109.58 156.784 109.455 156.74 108.645 156.379C106.063 156.44 90.0372 166.433 86.9492 168.477C85.8837 164.934 82.745 158.968 81.0232 155.367C77.6652 148.345 73.1425 136.4 69.0635 130.047C72.308 128.908 75.844 126.737 79.0562 125.363C88.4585 121.34 97.781 115.875 107.187 112.041Z" fill="white"/>
<path d="M122.362 128.275C123.546 128.199 124.225 128.003 125.118 128.884C125.409 131.878 118.872 134.179 116.529 135.163C107.649 138.891 98.8902 142.914 90.0065 146.624C88.824 146.896 88.504 147.063 87.465 146.702L87.2832 146.237C89.1605 142.231 116.657 130.744 122.362 128.275Z" fill="#151414"/>
<path d="M119.729 139.514C120.555 139.436 121.321 139.655 121.912 140.216C121.895 140.446 121.883 140.652 121.792 140.867C120.346 144.299 98.6342 152.447 94.3107 154.131C93.7042 154.426 93.7305 154.401 93.0447 154.37L92.856 154.067C94.5177 151.995 116.33 140.515 119.729 139.514Z" fill="#151414"/>
<path d="M146.792 84.1304C158.893 86.1431 171.626 86.9679 183.63 88.6414C182.416 91.5161 180.751 97.4606 180.686 100.567C180.522 108.456 193.033 106.773 198.105 106.687C196.714 112.281 194.793 120.203 195.458 125.871C193.559 125.742 191.539 125.768 189.627 125.757C189.445 122.646 189.594 119.54 189.442 116.435C189.356 114.679 189.185 112.993 187.225 112.611C184.749 113.154 184.11 115.517 182.739 117.265L182.391 117.233C182.238 116.494 182.207 116.375 181.839 115.717L181.505 115.791C180.702 117.209 180.445 121.534 181.391 122.933C182.143 123.323 181.823 123.295 182.573 123.108C183.905 122.06 185.229 118.412 185.936 116.753C185.73 120.919 185.429 123.81 186.703 127.851C183.378 127.268 176.768 126.705 173.204 126.366C167.647 125.838 157.452 124.354 152.213 124.791C153.486 120.674 154.764 102.683 153.98 98.5786L153.713 98.4001C151.743 100.849 150.363 116.375 150.256 120.152C150.213 121.672 150.44 124.362 150.599 125.954L153.422 126.892C156.242 127.58 161.478 128.352 164.422 128.772C171.114 129.728 178.604 130.797 185.329 131.277C184.836 133.369 184.474 135.238 184.096 137.356C178.759 134.94 159.719 134.17 152.946 133.916C152.108 133.884 150.975 133.968 150.355 134.617C150.392 134.915 150.343 135.037 150.568 135.256C152.313 136.956 180.057 140.387 183.426 140.178C181.997 145.992 180.66 155.58 179.634 161.749C172.321 159.942 159.693 159.269 152.253 159.174C148.713 151.267 145.051 143.415 141.269 135.621C143.386 130.449 144.48 114.076 145.044 107.766C145.655 100.941 146.716 90.9199 146.792 84.1304Z" fill="white"/>
<path d="M161.319 101.909C163.004 102.25 163.582 103.218 163.864 104.868C164.363 107.787 164.389 110.896 164.52 113.864C167.334 109.757 170.684 106.689 173.789 113.061C174.777 115.09 176.352 118.459 175.301 120.709C174.676 121.207 175.014 121.12 174.272 121.044C171.944 119.742 171.139 115.445 170.282 112.826C170.075 112.368 169.972 112.32 169.615 111.973C167.394 112.394 166.724 116.732 164.065 117.361C160.729 116.583 161.07 107.609 160.914 104.557C159.404 107.455 157.447 110.602 155.224 112.994C155.816 109.623 158.505 103.834 161.319 101.909Z" fill="#151414"/>
<path d="M150.472 140.578C153.236 140.349 159.503 140.025 161.618 141.758C162.005 142.548 161.953 142.195 161.779 143.095C161.316 143.213 160.847 143.304 160.374 143.367C158.133 143.672 152.865 143.388 150.954 141.894C150.407 141.466 150.539 141.299 150.472 140.578Z" fill="#151414"/>
<path d="M39.4464 106.734C39.5409 106.836 43.6404 119.348 44.6692 121.169C48.9487 128.745 53.3634 125.186 59.6209 122.338C62.4502 121.051 64.9309 119.886 67.4764 118.532C68.2554 121.55 69.0712 123.337 71.3179 125.473C69.9597 126.304 67.9084 127.596 67.3812 129.188C66.1844 132.803 76.0204 154.764 78.1712 159.487C72.6969 160.707 59.2942 168.038 53.8824 170.95C48.8722 173.765 43.5839 176.481 38.4922 179.149C36.8704 171.967 31.8909 163.633 28.9234 156.848C23.4338 144.295 17.2746 132.244 11.77 119.681C16.181 117.926 21.0372 115.504 25.4124 113.506C29.6267 111.582 35.5112 109.079 39.4464 106.734Z" fill="white"/>
<path d="M59.3266 128.517C60.7473 128.337 61.6098 128.206 62.4866 129.391C62.5813 131.242 60.0523 132.931 58.5666 133.543C50.8066 136.738 42.6018 141.154 34.7873 143.988C33.6353 144.382 32.6191 144.819 31.9038 143.602C32.1841 140.191 55.5311 130.211 59.3266 128.517Z" fill="#151414"/>
<path d="M52.4702 142.518C53.3425 142.633 53.4645 142.599 54.1377 143.108C54.9592 146.215 40.9527 150.978 38.306 151.726C37.1337 151.889 37.393 152.025 36.4492 151.579C37.1577 148.821 49.4612 143.449 52.4702 142.518Z" fill="#151414"/>
<path d="M104.304 163.94L104.564 164.03C104.647 164.253 95.4733 210.546 94.5596 215.672C93.1066 223.419 91.9683 231.222 91.1473 239.061C89.4483 236.247 78.9186 219.665 75.1561 219.8C71.5038 220.768 68.2093 227.43 66.3653 230.029C60.1776 238.753 55.6893 249.044 49.6786 257.692C47.4743 254.885 42.4891 252.187 39.3718 250.5C38.7003 250.127 37.6663 249.658 36.9513 249.309C41.4948 243.87 61.5293 217.845 62.2091 212.874C62.2456 212.607 62.2443 212.278 62.0748 212.059C59.3581 208.552 41.4223 205.452 36.6641 204.843C50.5301 195.925 66.3186 188.689 80.2686 179.755C88.4771 174.498 96.6543 170.117 104.304 163.94Z" fill="#F03905"/>
<path d="M108.731 49.1479C109.965 49.4092 111.952 49.5589 113.242 49.5752C122.083 49.6859 130.954 50.7942 139.78 50.2815C142.037 50.1505 144.277 50.0877 146.515 50.0125C145.879 54.189 145.764 59.3327 145.503 63.5849C144.827 74.6079 158.735 72.525 166.424 71.722C166.12 75.4187 166.183 79.1362 166.613 82.8205C159.978 81.4815 151.601 81.3647 144.883 81.5127C143.974 84.3517 143.54 87.6244 143.122 90.5674C139.375 90.2472 120.763 89.942 119.022 92.4172C120.477 93.683 125.007 93.6692 126.937 93.7327C131.478 93.7172 138.504 94.8252 142.624 94.3137C141.811 98.2115 141.514 102.76 141.062 106.737C140.207 114.255 139.663 122.005 138.609 129.483C136.672 124.009 133.166 114.512 126.901 112.997C121.077 111.588 115.128 108.068 109.568 106.648C111.621 90.707 108.9 73.3657 108.781 57.2999C108.76 54.5822 108.738 51.8659 108.731 49.1479Z" fill="white"/>
<path d="M127.21 79.8571C128.84 79.7319 141.64 78.5786 140.24 82.2284C138.351 83.6896 134.147 83.5336 131.828 83.5084C129.543 83.4974 119.39 83.5294 118.513 81.3969C119.486 79.9116 125.354 79.9411 127.21 79.8571Z" fill="#151414"/>
<path d="M69.5623 59.5771L69.738 59.6404C70.105 60.1004 71.2118 68.4411 71.9348 70.5396C74.8938 79.1276 82.696 74.2719 89.5513 71.6216C90.3563 77.1421 97.7685 105.439 100.645 109.973C92.759 113.772 84.4835 118.195 76.6233 122.198C75.6963 122.705 74.6618 123.36 73.7435 123.912C72.2918 115.705 68.761 113.128 61.465 110.35C58.8365 109.349 56.1743 108.206 53.5103 107.234C53.3103 100.85 50.6045 94.6054 48.8698 88.4071C46.8863 81.3199 44.704 74.2084 42.4785 67.1912C45.8795 66.4479 50.82 64.8424 54.1803 63.8316C59.2608 62.2491 64.3908 60.8304 69.5623 59.5771Z" fill="white"/>
<path d="M82.4506 78.5382C83.9513 78.399 85.1378 78.0437 85.7726 79.595C85.7111 79.9117 85.6551 80.145 85.4481 80.4022C83.3661 82.9922 64.1251 87.1975 60.4431 87.519C59.4613 87.7215 58.1053 87.9697 57.1841 87.5597L57.2036 87.2289C59.1408 85.7467 78.8303 79.6225 82.4506 78.5382Z" fill="#151414"/>
<path d="M77.2789 90.3177C78.5287 90.1547 78.9027 90.0174 79.7634 90.8769C80.2057 93.7274 73.0472 95.0322 70.8847 95.5479C67.9524 96.2472 64.8292 96.9774 61.8537 97.4232C61.0244 97.5594 60.2852 97.5332 59.5562 97.1129L59.6032 96.6662C61.5247 94.7522 74.3444 90.8442 77.2789 90.3177Z" fill="#151414"/>
<path d="M149.747 52.0933C150.303 52.2823 163.581 66.887 163.583 66.9135L162.395 67.0508C159.538 67.3668 150.22 68.8868 150.039 64.4208C149.875 60.3745 149.918 56.1838 149.747 52.0933Z" fill="white"/>
<path d="M43.1807 106.863C44.5547 107.367 48.6289 109.788 50.3174 110.633C54.4617 112.708 57.8407 114.108 62.1664 115.715L58.2354 117.489C55.7224 118.777 52.9169 120.304 50.3042 121.29C48.1934 117.824 45.4372 111.015 43.1807 106.863Z" fill="white"/>
<path d="M262.103 127.691C262.72 128.228 262.938 129.424 263.193 130.218C264.878 135.501 267.323 140.074 270.315 144.715L267.4 143.93C264.975 143.432 260.413 142.84 258.79 141.028C258.558 139.288 261.43 129.985 262.103 127.691Z" fill="white"/>
<path d="M72.9185 58.6069C73.1687 58.6692 84.8332 66.9822 86.4765 67.9259C85.7062 68.1754 84.931 68.4694 84.1687 68.7464C82.1482 69.5194 79.329 71.1569 77.2602 70.9769C75.283 69.7167 73.603 61.2217 72.9185 58.6069Z" fill="white"/>
<path d="M111.075 111.707C112.138 111.933 117.282 114.305 118.65 114.87C121.633 116.104 123.921 116.852 127.014 117.819C125.985 118.161 124.935 118.644 123.936 119.075C121.274 120.301 119.54 121.389 116.704 122.34C115.476 120.681 112.32 114.02 111.075 111.707Z" fill="white"/>
<path d="M185.839 91.4341C185.837 91.4326 189.201 96.0491 189.624 96.5943C190.491 97.7118 194.963 102.08 195.244 102.849L194.797 103.039C182.261 102.828 184.557 102.702 185.839 91.4341Z" fill="white"/>
<path d="M220.427 136.358C221.419 136.826 224.371 142.402 225.369 143.689C225.92 144.399 227.793 146.401 227.885 147.076L227.451 147.245C218.318 145.101 218.451 145.568 220.427 136.358Z" fill="white"/>
</svg>
