<svg width="902" height="1028" viewBox="0 0 902 1028" fill="none" xmlns="http://www.w3.org/2000/svg">
<g clip-path="url(#clip0_53_3702)">
<path d="M196.9 284.888C196.624 279.432 196.443 273.966 196.356 268.5C195.621 226.213 195.228 183.072 196.785 140.732C198.072 105.736 190.205 59.3495 216.204 32.1582C236.862 10.5503 259.45 11.3724 286.812 9.84576C311.615 8.50061 336.432 7.42231 361.258 6.61095C439.857 3.63239 518.485 1.43311 597.128 0.0132214C643.014 -0.563274 686.471 17.639 686.198 69.15C685.821 140.337 690.862 211.662 691.275 282.72C703.553 278.322 723.162 273.56 730.162 289.137C739.83 310.67 741.751 337.637 748.185 360.814C755.857 388.507 767.552 407.542 781.403 432.075C793.728 454.9 796.417 480.8 802.499 504.682C813.863 549.36 814.951 588.124 812.913 633.891C811.825 658.211 813.362 684.079 812.497 709.37C811.323 743.959 807.29 782.691 813.34 816.95C824.406 854.54 850.474 882.767 875.401 911.976C881.494 919.118 903.304 941.847 901.939 952.758C901.747 954.327 900.957 954.22 899.506 954.871C898.642 954.669 896.593 954.199 895.856 953.697C882.177 944.463 866.053 923.506 854.967 910.983C832.846 885.991 810 856.718 800.535 824.391C792.532 797.115 796.182 759.418 797.601 730.711C799.084 700.829 800.535 670.958 801.933 641.002C803.118 615.668 807.173 585.925 804.601 560.484C800.237 525.521 790.718 497.23 781.296 462.459C773.837 434.936 748.921 404.222 739.766 376.187C739.766 376.177 728.818 376.593 726.172 374.586C716.824 367.486 712.693 355.786 710.088 344.747C705.133 320.983 706.074 309.858 718.585 289.937C708.082 290.023 698.999 290.311 691.088 298.958C675.34 316.189 672.993 361.487 673.418 383.895C673.75 401.372 682.216 442.474 694.567 456.299C701 463.494 707.769 465.395 712.911 470.209C713.141 473.572 713.591 472.11 711.527 474.757C705.898 476.711 699.976 474.32 694.659 472.302C696.764 495.992 699.756 515.048 706.271 537.798C709.142 547.833 706.811 584.067 702.096 592.854C698.901 595.01 700.395 594.53 695.94 593.985L693.841 593.665C696.814 627.347 695.031 662.279 695.462 696.228C695.752 719.01 696.817 744.963 694.184 767.542C692.79 779.499 685.621 794.584 678.134 803.798C662.658 823.014 632.296 831.694 607.885 832.558C577.05 833.658 544.559 832.035 513.225 832.729L418.119 835.409C410.938 835.547 387.224 836.594 381.034 835.953C376.41 835.387 371.821 834.128 367.95 836.145C365.876 838.708 365.852 840.277 365.107 843.608L363.066 837.64C357.021 835.473 334.557 838.462 325.759 838.868C293.569 840.362 247.093 834.8 221.991 813.128C204.107 797.68 204.727 771.994 204.053 750.867L202.829 713.747C201.851 714.483 200.854 715.188 199.84 715.861C153.046 747.013 131.918 657.656 151.121 628.852C158.163 618.294 158.686 617.515 169.804 610.479C147.769 597.391 141.133 572.633 139.82 548.068C138.836 529.674 147.739 513.276 160.272 500.273C146.381 479.284 142.912 460.43 142.042 435.855C124.768 478.836 118.008 515.689 105.006 559.652C89.7627 603.06 74.4161 630.763 77.8723 678.239C83.1234 750.365 112.152 812.466 78.4197 881.443C57.7731 923.666 35.9825 985.96 0 1018.42C5.38975 996.016 18.5478 976.159 29.0381 956.131C45.5317 924.648 82.8769 851.721 84.0283 818.274C83.1554 773.062 70.7507 728.362 65.7857 683.427C59.9414 630.55 78.1722 599.697 95.3146 551.389C104.088 526.674 109.391 498.276 117.587 473.124C125.94 447.481 138.423 422.787 144.953 396.397C147.367 386.596 150.138 378.408 156.742 370.593C132.587 356.149 106.181 328.189 131.448 298.691C145.637 282.133 176.177 284.621 196.9 284.888Z" fill="#0F0E0D"/>
<path d="M693.343 581.911C692.968 565.374 691.888 542.762 692.57 526.759C702.055 559.246 695.301 553.748 695.27 582.679L693.343 581.911Z" fill="#FBFBFA"/>
<path d="M693.344 581.911L695.271 582.679C695.388 585.722 695.435 591.188 695.941 593.985L693.841 593.665C693.149 590.056 693.347 585.658 693.344 581.911Z" fill="#BAB9B8"/>
<path d="M560.732 32.3024C572.954 31.9181 585.31 31.7579 597.487 33.0497C609.304 34.2988 625.277 36.8076 633.158 46.8216C641.907 57.9351 644.176 72.7533 645.506 86.4184C648.47 116.877 646.312 148.253 647.351 178.935C648.983 227.19 651.116 275.562 651.844 323.828C652.654 377.484 652.06 431.195 652.507 484.862L652.237 654.864C652.246 663.17 651.828 671.625 652.295 679.91C653.002 692.422 655.122 704.699 653.695 717.243C651.546 736.118 648.498 755.463 632.689 767.932C622.361 776.078 610.139 780.647 597.157 782.27C580.919 784.298 564.573 782.804 548.279 782.43C529.643 782.088 511.001 782.12 492.365 782.505L369.579 786.038C342.391 787.074 314.206 790.917 287.153 787.512C275.856 785.344 262.045 782.238 253.108 774.615C238.289 761.986 238.113 738.979 236.861 721.076C235.391 700.045 237.407 678.96 236.797 657.886C236.228 638.253 235.142 618.588 235.035 598.944C234.918 577.294 235.71 555.632 235.465 533.971L232.874 385.107L231.431 195.888C230.917 164.256 226.745 131.78 229.032 100.276C230.04 86.365 233.761 67.8744 243.374 57.1345C262.039 36.2632 298.51 39.6475 323.843 38.3771C324.476 47.0779 325.756 55.3089 331.177 62.451C337.984 71.4294 348.171 73.9382 358.806 75.23C387.084 78.6569 418.334 74.5468 446.844 73.682C473.154 72.8813 500.125 74.5574 526.22 70.7141C533.881 69.5825 541.926 68.1199 548.086 63.1236C557.596 55.405 559.464 43.7897 560.732 32.3024Z" fill="#F5F4EE"/>
<path d="M433.761 484.611C432.437 467.833 428.007 363.052 434.693 354.774C441.56 351.529 449.979 351.675 457.074 354.076C468.747 365.557 459.51 428.522 461.57 447.088C462.256 453.162 462.093 480.494 459.248 485.706L459.281 486.818C455.145 486.311 449.521 486.593 445.238 486.66L433.761 484.611Z" fill="#EB3302"/>
<path d="M433.761 483.597C432.437 466.947 428.007 362.97 434.693 354.755C441.56 351.535 449.979 351.68 457.074 354.063C468.747 365.456 459.51 427.937 461.57 446.361C462.256 452.389 462.093 479.511 459.248 484.683C453.461 470.003 462.861 368.822 455.194 357.225C449.815 354.117 443.374 354.972 436.851 354.994C433.058 398.099 437.293 440.696 433.761 483.597Z" fill="#A41103"/>
<path d="M495.969 143.056L497.353 145.106L501.521 147.74C501.456 155.644 498.2 152.097 498.916 160.428C490.336 179.836 470.946 209.927 445.776 198.189C436.708 193.966 431.287 184.102 426.093 175.959C396.397 171.461 389.787 198.047 366.294 212.283C362.208 216.991 358.545 222.505 352.928 224.193L349.998 223.769C352.065 219.313 356.021 212.438 358.447 207.916C370.706 193.677 389.038 141.609 415.901 151.153C423.928 154.001 436.285 169.683 439.655 177.927C469.66 185.985 477.051 160.325 495.969 143.056Z" fill="#0F0E0D"/>
<path d="M495.871 143.056L497.253 145.14C492.489 153.597 479.693 176.979 473.401 183.027C463.239 184.522 456.248 188.517 445.761 190.03C441.794 185.446 441.55 184.36 439.631 178.508C469.596 186.701 476.978 160.613 495.871 143.056Z" fill="#A41103"/>
<path d="M417.778 164.408C419.974 167.9 423.017 172.363 424.692 176.022C395.018 171.379 388.413 198.822 364.937 213.517C366.694 205.299 369.15 202.378 373.673 195.405C379.757 194.205 380.848 191.863 384.915 186.832C397.198 172.962 400.289 169.027 417.778 164.408Z" fill="#A41103"/>
<path d="M382.01 180.39L382.945 179.138C392.984 165.848 401.018 152.62 418.29 165.203C400.334 169.437 397.16 173.045 384.549 185.76L382.01 180.39Z" fill="#F3E5E2"/>
<path d="M446.034 190.443C456.56 188.97 463.578 185.079 473.777 183.625C464.834 193.929 459.302 197.919 446.034 190.443Z" fill="#E5B2AB"/>
<path d="M383.461 181.489L386.278 186.689C381.645 191.156 380.404 193.235 373.473 194.3L383.461 181.489Z" fill="#E5B2AB"/>
<path d="M394.096 391.287C401.729 390.93 411.585 389.337 418.09 393.994C425.478 410.692 421.931 462.51 419.921 482.277C410.49 482.709 401.026 482.51 391.595 482.45C387.068 454.736 386.92 418.33 394.096 391.287Z" fill="#EB3302"/>
<path d="M338.211 244.161C339.436 247.955 352.896 245.888 356.882 245.499C403.666 240.947 449.943 243.849 496.776 244.306C509.305 244.428 542.923 239.877 552.201 243.391L552.74 245.84C539.999 256.677 433.004 249.792 410.804 249.813C396.201 249.828 345.301 254.917 334.487 247.685C329.047 235.16 330.093 118.715 334.503 106.758C339.191 117.588 339.355 196.036 338.914 210.759C345.17 210.283 351.41 208.946 357.617 207.799C355.183 212.307 351.214 219.161 349.139 223.604C343.781 220.527 344.5 219.665 340.237 220.797C337.117 227.92 340.09 234.748 338.211 244.161Z" fill="#0F0E0D"/>
<path d="M358.534 207.111C355.933 211.876 351.692 219.121 349.475 223.817C343.75 220.564 344.518 219.653 339.962 220.85C336.628 228.379 339.805 235.595 337.798 245.544C337.431 235.52 336.314 219.431 338.548 210.24C345.233 209.737 351.901 208.324 358.534 207.111Z" fill="#A41103"/>
<path d="M476.35 397.173C483.944 397.231 491.773 396.569 498.649 399.294C502.764 409.837 501.443 471.624 500.79 485.662C493.497 486.483 481.101 487.764 473.957 485.718C466.463 478.845 469.24 405.494 476.35 397.173Z" fill="#EB3302"/>
<path d="M475.053 484.684C465.712 477.888 469.174 405.368 478.035 397.142C478.327 428.398 472.551 451.831 477.472 483.833L475.053 484.684Z" fill="#A41103"/>
<path d="M333.023 354.438C344.294 377.132 337.311 456.611 337.558 489.104C364.716 488.685 391.891 488.52 419.049 488.61C428.381 486.855 435.265 486.249 444.762 485.467C449.066 485.4 454.718 485.121 458.875 485.624L459.072 487.888C454.57 488.216 450.38 488.551 445.879 489.064C467.55 493.531 523.854 485.271 535.667 495.065C526.056 504.414 422.844 496.61 403.77 495.971C391.332 495.555 343.817 497.353 335.718 490.352C326.09 469.415 333.598 424.453 333.27 400.467C333.072 385.592 332.924 369.318 333.023 354.438Z" fill="#0F0E0D"/>
<path d="M444.34 486.895C448.701 486.858 454.427 486.702 458.639 486.983L458.839 488.251C454.278 488.435 450.033 488.622 445.472 488.909C437.532 489.07 426.463 488.751 418.29 488.655C427.745 487.672 434.719 487.333 444.34 486.895Z" fill="#FBFBFA"/>
<path d="M354.509 427.953C358.899 427.55 363.575 426.91 367.965 427.054C371.312 427.165 374.221 428.748 376.29 431.268C386.079 443.179 380.714 468.212 378.964 482.376C371.934 482.604 365.072 482.638 358.058 482.274C354.964 480.459 354.308 479.972 353.029 476.65C348.387 464.517 349.228 439.708 354.509 427.953Z" fill="#EB3302"/>
<path d="M350.783 296.789C352.415 297.204 353.798 297.68 354.98 298.989C360.426 305.02 359.893 319.386 360.443 327.326C364.823 318.455 371.035 305.067 380.595 301.363C385.059 305.032 382.477 310.988 385.958 315.617C389.822 313.464 392.703 310.731 395.918 307.693C405.477 306.965 401.73 311.925 406.876 316.426C408.842 315.758 410.84 315.14 412.839 314.575C417.036 313.414 421.016 312.882 424.897 315.371C428.211 317.492 428.078 318.586 428.961 322.236L427.212 325.133C423.415 323.998 419.617 322.902 415.77 321.966L410.457 327.512C408.359 327.282 406.427 327.086 404.428 326.419C399.215 324.69 398.116 320.788 395.734 316.081L393.22 316.903C391.171 319.563 388.706 323.674 385.525 324.925C383.31 325.795 382.427 324.768 380.329 323.897L377.431 314.769L375.316 313.976C372.318 319.217 369.353 325.583 365.356 330.052C362.925 332.765 362.192 332.858 358.827 333.086C352.515 328.036 351.216 310.552 349.95 302.612C346.353 310.045 343.005 318.977 337.193 324.808L338.942 322.573L337.376 320.575C340.441 311.136 344.354 304.174 350.783 296.789Z" fill="#0F0E0D"/>
<path d="M495.119 143.039C506.338 131.004 524.7 104.964 544.204 109.396C543.65 115.013 525.723 123.967 519.552 129.962C514.135 134.629 513.549 135.268 510.882 141.743C506.908 148.611 502.916 153.78 498.154 160.138C497.416 151.937 500.77 155.429 500.837 147.649L496.544 145.056L495.119 143.039Z" fill="#0F0E0D"/>
<path d="M487.907 299.603C490.686 299.358 493.481 299.17 496.277 299.033C501.148 298.821 506.281 298.478 510.058 302.781L508.08 306.216C500.968 310.651 491.977 309.45 484.147 309.454C470.726 309.316 457.304 308.69 443.899 307.575C458.334 302.869 473.096 301.434 487.907 299.603Z" fill="#0F0E0D"/>
<path d="M518.938 129.501C527.302 127.634 535.272 125.209 543.757 126.208L544.204 127.991C532.386 134.884 523.455 136.775 510.058 140.921C512.789 134.644 513.39 134.025 518.938 129.501Z" fill="#A41103"/>
<path d="M452.262 319.201C454.946 318.999 457.629 318.815 460.313 318.651C467.176 318.227 474.813 316.672 480.18 322.434L478.219 325.747L475.088 325.929C467.967 326.323 455.789 328.595 450.302 322.635L452.262 319.201Z" fill="#0F0E0D"/>
<path d="M445.155 533.802C450.524 533.721 456.296 534.132 461.625 534.815C482.759 537.586 501.781 548.034 514.309 563.779C526.857 579.943 531.784 599.99 528.044 619.481C524.303 639.339 512.158 657.699 493.758 669.091C475.52 680.392 454.546 683.325 433.171 679.577C425.007 677.328 417.144 673.682 409.342 670.536C398.865 674.536 383.281 682.768 372.141 679.218C366.008 668.871 375.358 653.507 378.676 642.654C374.614 634.744 370.11 626.69 368.34 618.044C364.6 599.878 369.205 581.108 381.089 566.119C396.593 546.193 419.477 537.549 445.155 533.802Z" fill="#0F0E0D"/>
<path d="M447.004 544.468C465.186 545.342 482.121 549.721 495.637 561.418C509.093 573.075 516.293 589.591 516.454 606.481C516.696 623.356 509.435 639.592 496.321 651.431C480.251 665.762 461.425 668.693 439.844 668.269L412.248 660.516C402.554 662.267 393.02 664.999 383.527 667.47C386.705 659.752 389.078 651.603 391.753 643.717C388.334 634.89 384.05 625.422 382.723 616.108C380.329 599.331 383.829 581.506 395.253 567.9C408.306 552.344 426.629 547.052 447.004 544.468Z" fill="#FBFBFA"/>
<path d="M414.552 570.09C417.538 570.117 420.625 570.106 423.511 570.961C442.174 576.49 428.938 600.547 436.868 612.699C446.371 627.306 468.828 615.647 482.932 619.871C487.432 621.216 488.844 623.15 490.801 626.788C491.205 632.993 489.086 636.758 485.959 642.176C481.701 644.294 477.384 646.59 472.44 646.89C456.46 647.86 438.179 637.981 426.618 628.831C414.935 619.581 403.919 606.528 403.374 591.948C402.99 582.245 407.49 576.681 414.552 570.09Z" fill="#F03906"/>
<path d="M589.531 65.8931C601.25 70.2488 595.448 86.3907 614.263 72.5655C618.695 76.2059 620.345 77.4335 623.971 81.9281C622.506 86.4226 620.671 90.0738 621.838 94.4403C624.638 98.7106 629.187 100.002 634.053 101.785C633.196 106.632 632.288 113.048 630.665 117.532C626.342 119.561 621.424 121.205 618.758 124.877C617.197 129.404 618.891 132.66 620.013 137.464C616.554 140.538 612.811 144.062 609.152 146.827C599.905 136.215 595.846 137.453 588.589 149.773C584.063 148.652 579.955 148.236 576.746 145.097C573.42 134.72 572.52 128.176 559.704 129.35C555.935 127.108 554.87 122.048 553.445 117.735C556.992 114.308 560.984 110.646 564.103 106.899C560.627 102.255 558.903 99.8956 554.737 95.9242C556.536 92.6574 560.869 84.0633 564.214 84.5117C583.486 87.0739 574.884 76.9959 582.759 68.7541L585.127 68.1029L589.531 65.8931Z" fill="#EB3302"/>
<path d="M589.531 65.8931C601.25 70.2488 595.448 86.3907 614.263 72.5655C618.695 76.2059 620.345 77.4335 623.971 81.9281C622.506 86.4226 620.671 90.0738 621.838 94.4403C624.638 98.7106 629.187 100.002 634.053 101.785C633.196 106.632 632.288 113.048 630.665 117.532C626.342 119.561 621.424 121.205 618.758 124.877C617.197 129.404 618.891 132.66 620.013 137.464C616.554 140.538 612.811 144.062 609.152 146.827C599.905 136.215 595.846 137.453 588.589 149.773C584.063 148.652 579.955 148.236 576.746 145.097C573.42 134.72 572.52 128.176 559.704 129.35C555.935 127.108 554.87 122.048 553.445 117.735C556.992 114.308 560.984 110.646 564.103 106.899C560.627 102.255 558.903 99.8956 554.737 95.9242C556.536 92.6574 560.869 84.0633 564.214 84.5117C583.486 87.0739 574.884 76.9959 582.759 68.7541L585.127 68.1029C584.798 83.5829 576.766 85.6113 564.476 88.9635C558.655 99.2657 574.174 105.639 559.699 116.913C557.932 118.29 559.145 121.834 559.736 123.97C563.616 127.268 567.383 125.71 569.567 127.034C580.853 133.866 575.279 155.88 594.231 138.04C599.187 133.375 607.281 143.389 614.927 136.749C616.177 130.994 614.719 130.204 614.963 125.582C615.372 117.863 623.932 118.749 629.406 113.048C630.946 109.418 630.784 109.141 630.366 105.095C628.396 101.209 624.151 101.241 621.009 98.7853C615.08 94.152 619.475 88.3656 618.14 80.8605C610.287 70.2167 597.18 92.4759 589.531 65.8931Z" fill="#A41103"/>
<path d="M587.928 92.9032C590.436 92.7324 593.19 92.4122 595.693 92.6577C599.367 93.042 602.73 94.889 605.021 97.7929C607.529 100.985 608.223 105.138 607.431 109.077C606.088 115.739 601.949 119.86 596.599 123.543C594.424 123.671 591.879 123.853 589.724 123.49C585.773 122.817 581.845 119.913 579.721 116.55C577.336 112.782 576.869 108.116 578.124 103.867C579.76 98.3373 583.176 95.6256 587.928 92.9032Z" fill="#A41103"/>
<path d="M588.391 96.4477C594.586 94.2912 601.364 97.5152 603.606 103.675C605.847 109.846 602.721 116.668 596.587 118.995C592.544 120.532 587.988 119.774 584.664 116.999C581.34 114.234 579.762 109.889 580.533 105.64C581.306 101.38 584.307 97.8676 588.391 96.4477Z" fill="#FBFBFA"/>
<path d="M223.226 437.551C220.359 426.278 212.625 411.673 212.063 404.734C209.782 376.518 210.941 346.572 210.04 317.982C208.109 266.012 206.919 214.01 206.472 162.008C206.184 132.542 205.718 102.298 207.888 72.8645C208.906 59.05 217.413 43.0896 227.952 34.3141C234.795 29.1149 250.535 20.222 259.209 19.9124C288.023 18.8661 317.906 19.6455 346.665 18.8661L537.246 14.5637C562.017 14.094 588.782 10.6885 613.233 13.272C679.185 20.2433 674.23 61.7617 674.13 114.031C674.018 172.961 680.174 232.96 678.142 292.093C677.97 297.143 675.031 302.683 673.41 307.402C668.541 319.562 665.933 331.177 664.044 344.106C659.218 285.816 662.56 223.234 658.972 164.196C656.931 130.6 665.579 73.2703 643.131 45.748C629.687 29.2538 593.337 27.4709 573.607 28.9228C537.337 28.325 567.06 65.8932 525.542 68.1885C472.91 71.0923 419.692 70.6974 366.947 72.6724C359.969 72.9393 349.537 70.5479 343.493 66.9288C332.398 60.2884 337.517 36.2143 322.282 36.4385C295.534 36.588 260.414 37.1432 241.074 58.5056C222.984 78.4907 225.934 108.639 226.07 133.365L225.993 193.897C226.05 269.46 226.63 345.878 225.717 421.42C225.843 429.171 225.916 436.921 225.935 444.672L223.8 442.975L223.226 437.551Z" fill="#FBFBFA"/>
<path d="M225.719 421.42C225.845 429.171 225.918 436.922 225.937 444.672L223.802 442.975L223.228 437.552C225.73 433.943 225.469 426.214 225.719 421.42Z" fill="#D5D4D2"/>
<path d="M452.596 43.0793C460.094 42.4814 468.771 41.7981 475.617 45.4172C477.125 46.2179 477.022 46.3246 477.468 47.926C477.28 48.1716 477.119 48.4385 476.905 48.6627C469.257 56.5522 441.04 53.3173 430.66 53.2639C424.668 53.3493 417.222 54.1928 411.42 52.8903C408.363 52.2071 407.497 51.7266 405.885 49.1217L407.017 47.3176C417.652 41.969 440.188 43.6558 452.596 43.0793Z" fill="#0F0E0D"/>
<path d="M494.844 38.9684C497.292 37.6979 500.233 37.8368 502.545 39.3421C504.857 40.8474 506.184 43.4736 506.021 46.228C505.858 48.9824 504.228 51.4378 501.755 52.6549C497.983 54.5125 493.42 52.9857 491.525 49.2278C489.63 45.4806 491.11 40.9007 494.844 38.9684Z" fill="#0F0E0D"/>
<path d="M663.755 414.278C668.005 428.562 675.627 446.487 677.977 459.885C679.04 465.949 678.605 485.891 678.611 493.151C678.568 510.585 678.718 528.029 679.062 545.452L681.856 659.833C682.6 691.006 685.411 743.777 678.724 773.21C667.561 822.362 603.539 818.743 563.573 817.899C546.783 817.59 529.987 817.729 513.204 818.337L367.201 822.277C327.005 823.451 297.72 829.504 257.977 817.451C214.254 804.181 216.925 781.975 217.075 741.503C217.121 729.034 216.44 715.305 216.926 702.686C217.389 690.633 220.123 678.27 219.366 666.132C216.82 644.994 211.683 629.823 213.137 607.617C214.429 587.867 224.32 582.284 224.22 561.925C224.113 539.623 211.494 527.239 212.629 505.535C213.331 492.115 218.681 486.713 222.724 473.379L226.011 472.536C226.24 509.933 228.626 546.957 228.44 584.611C228.192 634.339 228.933 685.807 232.661 735.461C233.755 750.033 238.714 774.427 248.556 784.943C258.669 795.747 276.311 801.555 290.62 803.636C385.165 804.459 481.524 796.964 576.05 800.573C627.69 802.548 670.283 780.363 665.034 722.703C663.536 706.252 663.16 687.601 663.332 671.043L663.755 414.278Z" fill="#FBFBFA"/>
<path d="M164.397 504.917C169.112 506.134 172.527 507.062 177.36 507.596C182.828 508.205 195.98 505.888 200.053 507.703C200.551 510.799 199.636 512.005 197.102 514.012L196.045 515.518C198.502 521.859 202.122 527.208 205.142 533.218C215.344 553.492 216.359 588.498 191.602 598.725C181.004 603.102 171.512 599.205 164.721 590.643C147.904 555.242 143.005 538.738 164.397 504.917Z" fill="#FBFBFA"/>
<path d="M155.262 546.83C165.952 522.606 189.88 527.047 198.589 551.666L198.847 552.413C191.858 556.779 186.228 559.972 180.899 566.857C175.796 573.444 174.053 583.501 169.296 590.12C169.236 590.205 165.378 590.632 164.719 590.643C165.651 570.85 174.157 558.071 191.494 548.933C175.197 521.613 165.037 542.517 155.948 558.552C153.017 556.086 154.416 550.118 155.262 546.83Z" fill="#0F0E0D"/>
<path d="M162.641 689.544C155.575 672.356 149.8 653.62 157.51 635.46C161.735 625.499 169.791 617.663 179.859 613.724C182.896 612.56 197.423 608.61 200.088 609.347C201.61 615.72 195.469 625.072 196.493 627.464C206.075 649.84 220.902 698.949 186.67 708.152C175.674 711.098 169.833 706.145 165.091 695.949C165.164 695.479 165.406 693.569 165.583 693.227L162.641 689.544Z" fill="#FBFBFA"/>
<path d="M184.51 667.456L184.097 665.972C182.634 660.794 180.79 655.114 176.393 651.666C166.519 649.392 165.049 668.854 158.901 672.174C155.05 667.808 160.546 654.826 164.338 651.314C166.719 649.072 169.911 647.908 173.174 648.068C186.268 648.72 190.219 662.438 192.497 672.868C176.804 678.665 176.109 680.149 165.584 693.227L162.642 689.544C169.5 676.22 170.776 673.445 184.51 667.456Z" fill="#0F0E0D"/>
<path d="M193.218 291.688L196 291.581C200.107 299.332 197.926 359.896 197.791 371.671C183.321 367.348 170.119 363.173 156.917 355.657C147.351 349.583 137.824 341.896 134.845 330.43C133.029 323.438 133.587 315.196 137.584 309.057C147.895 293.225 176.47 294.699 193.218 291.688Z" fill="#FBFBFA"/>
<path d="M195.462 386.136L197.432 386.36C197.601 386.606 197.803 386.83 197.941 387.097C199.224 389.574 199.601 395.467 198.568 398.029C196.198 398.253 194.688 398.606 192.515 399.577C192.437 403.207 195.952 406.506 197.989 409.527C209.1 425.979 216.02 447.789 211.8 467.55C209.639 477.671 204.596 488.4 195.39 493.877C189.557 497.346 182.997 497.87 176.536 496.044C173.031 495.062 169.508 493.567 167.767 490.14C165.924 486.521 167.035 483.735 168.396 480.222L168.873 479.005C172.702 467.785 176.827 459.789 186.537 452.604C189.835 450.17 193.165 448.142 195.702 444.843C196.002 441.917 196.024 440.7 194.13 438.298C189.998 433.078 178.068 427.345 171.489 427.025C164.002 426.672 158.586 431.775 153.27 436.27C154.37 431.039 155.79 425.647 157.759 420.673C165.022 402.353 178.143 393.684 195.462 386.136Z" fill="#FBFBFA"/>
<path d="M721.445 295.093C722.213 295.638 722.288 295.616 722.917 296.503C723.259 296.983 737.558 365.362 737.312 366.312C737.003 367.529 734.207 368.383 733.076 368.927C725.297 364.753 721.84 357.344 719.321 349.252C713.417 330.27 712.141 312.933 721.445 295.093Z" fill="#FBFBFA"/>
<path d="M167.836 433.238C175.456 433.857 181.724 438.277 188.042 442.174C177.448 448.515 171.675 454.547 166.135 465.554L161.051 477.308C158.431 467.476 151.803 453.106 155.635 443.124C157.703 437.733 163.017 435.555 167.836 433.238Z" fill="#FBFBFA"/>
<path d="M158.419 371.137C167.446 375.642 176.178 379.09 186.091 381.097C177.769 384.151 170.693 387.247 163.664 392.734C158.324 398.147 153.914 403.826 149.512 409.986C152.354 397.004 155.323 384.054 158.419 371.137Z" fill="#FBFBFA"/>
<path d="M223.801 442.975L225.936 444.672L225.971 464.113L224.056 464.401C223.551 459.917 223.826 448.014 223.801 442.975Z" fill="#999896"/>
<path d="M224.057 464.402L225.971 464.114L226.012 472.537L222.725 473.38L224.057 464.402Z" fill="#D5D4D2"/>
<path d="M365.109 843.607C365.854 840.276 365.877 838.707 367.952 836.145C371.823 834.127 376.411 835.387 381.036 835.952C376.614 836.401 372.185 836.775 367.751 837.074C396.493 860.208 423.612 892.321 452.032 911.356C465.738 920.527 480.815 927.455 496.699 931.886C513.589 936.626 530.345 938.953 545.706 948.252C564.659 959.728 580.55 977.311 594.473 994.414C603.215 1005.14 612.807 1013.63 612.261 1028H605.267C586.761 1013.92 566.457 978.347 543.251 963.86C525.519 952.789 513.919 951.401 494.452 945.946C454.623 934.8 432.504 914.815 403.666 886.866C392.631 914.911 380.14 929.281 356.319 947.376C347.261 954.262 341.402 959.13 333.684 969.144C321.322 985.179 315.449 1013.77 298.931 1025.59C297.415 1026.68 297.31 1026.15 295.501 1025.47C294.928 1024.08 294.461 1022.82 294.316 1021.31C293.188 1009.46 322.883 959.653 331.554 950.995C343.767 938.793 359.525 930.626 371.313 917.687C381.664 906.317 388.025 892.268 397.988 880.652C389.227 869.122 375.553 857.101 365.109 843.607Z" fill="#0F0E0D"/>
<path d="M767.339 437.787L769.612 439.132L769.036 440.797C763.647 444.299 756.818 446.156 750.789 448.334C749.818 448.174 749.007 447.63 748.122 447.181L748.602 445.452C753.702 440.925 760.798 439.046 767.339 437.787Z" fill="#0F0E0D"/>
<path d="M762.175 454.024C764.704 453.597 767.564 452.893 770.103 453.426C771.832 453.789 771.576 453.971 772.515 455.295C770.05 457.803 767.969 457.995 764.704 458.914C761.023 459.148 757.277 459.736 753.831 458.113C752.849 457.654 753.276 457.878 752.742 456.437C755.527 454.088 758.696 454.28 762.175 454.024Z" fill="#0F0E0D"/>
</g>
<defs>
<clipPath id="clip0_53_3702">
<rect width="902" height="1028" fill="white"/>
</clipPath>
</defs>
</svg>
