<svg width="470" height="372" viewBox="0 0 470 372" fill="none" xmlns="http://www.w3.org/2000/svg">
<g clip-path="url(#clip0_53_3107)">
<path d="M266.13 27.1182C252.32 -18.7148 326.6 6.74821 346.98 9.73721C350.11 10.1972 353.5 23.0642 354.55 26.1342C376.3 29.5112 398.08 32.7052 419.89 35.7172C430.16 37.1982 456.95 39.2362 465 46.8672C467.37 49.1142 469.64 56.8312 469.15 60.1512C460.13 109.855 450.23 159.426 441.75 209.251C440.95 213.933 437.82 227.508 435.34 231.162C421.84 237.871 402.34 231.503 387.64 228.697C365.73 224.535 343.84 220.212 321.99 215.731C311.79 213.72 228.55 200.935 226.84 192.348C218.14 148.726 214.24 102.406 209.15 58.0382C205.56 25.9412 226.39 40.2102 241.27 37.9132C243.07 32.8832 241.1 30.3372 246.44 27.6622C251.22 25.2652 259.99 26.8912 265.31 27.8442L266.13 27.1182Z" fill="#171614"/>
<path d="M266.13 27.1184L269.9 27.7044L271.29 26.6644C272.16 19.4524 271.53 12.4204 276.64 7.42438C283.33 4.66338 333.76 13.5654 343.84 15.5574C345.24 20.7744 346.49 29.1854 351.62 32.1114C358.18 35.8584 448.98 47.6254 464.69 49.8084C464.03 60.2244 456.56 89.7664 454.02 101.67C448.17 129.816 442.8 158.06 437.92 186.39L435.84 182.417L444.29 106.306C445.36 96.4974 449 64.7944 447.73 56.0984C440.83 50.3554 369.63 43.3794 355.25 41.0644C326.56 36.4444 294.4 33.5214 265.31 27.8444L266.13 27.1184Z" fill="#F2F1E8"/>
<path d="M435 189.948L435.84 182.417L437.92 186.39L436.26 196.926L435 189.948Z" fill="#BCBBB7"/>
<path d="M435 189.948L436.26 196.926L436.31 199.304L435.4 200.003C433.96 195.742 434.44 194.59 435 189.948Z" fill="#3B3B37"/>
<path d="M218.95 42.5181C239.63 44.7161 261.82 46.3961 282.03 51.1441C285.04 55.2201 287.41 59.9881 289.94 64.3841C315.47 71.0161 391.02 75.8071 406.27 84.4351C407.91 87.0661 408.4 90.0611 408.84 93.0941C410.38 103.73 422.43 224.299 421.83 225.874C421.61 226.442 421.09 226.843 420.73 227.328C358.77 212.325 294.89 204.655 232.61 190.893C231.7 178.114 229.3 165.124 227.62 152.404C224.83 130.681 222.14 108.943 219.58 87.1921C218.13 75.1851 215.26 61.5941 216.09 49.5151C216.29 46.6101 217.32 44.8771 218.95 42.5181Z" fill="#F2F1E8"/>
<path d="M308.19 104.113L312.46 104.307C315.71 105.893 316.75 107.873 318.14 111.047C322.44 120.889 330.83 145.735 327.2 155.634L325.6 156.195C320.59 153.013 319.43 147.341 317.82 142.021C313.25 141.201 308.61 140.741 304.01 140.183C303.14 142.827 302.31 146.016 300.73 148.292C298.72 151.165 297.03 152.069 293.73 152.46L296.02 152.617L293.1 150.842C291.84 141.324 302.79 112.59 308.19 104.113Z" fill="#13120E"/>
<path d="M310.95 117.402C313.65 120.279 315.13 128.388 315.74 132.242L314.16 133.347C311.7 133.147 309.69 133.187 307.66 131.612C306.74 127.091 309.49 121.814 310.95 117.402Z" fill="#DED2C0"/>
<path d="M336.58 108.177C337.71 108.282 338.79 108.339 339.9 108.646C345.52 110.213 349.57 121.638 351.88 126.43C354.05 123.267 356.21 119.976 358.67 117.035C360.76 114.531 363.57 112.107 366.9 111.728L367.93 113.424C367.27 121.936 362.54 127.606 357.86 134.444C361.33 141.333 370.18 154.384 368.34 161.923C366.69 161.742 364.87 161.608 363.34 160.918C360.14 159.484 358.59 156.141 357.2 153.151C355.67 149.873 353.99 146.867 352.09 143.792C349.77 147.11 347.46 150.878 344.62 153.763C342.43 155.99 339.64 157.805 336.52 157.881L335.8 155.682C337.06 146.883 341.67 141.509 346.79 134.505C342.98 127.344 334.87 116.244 336.58 108.177Z" fill="#171614"/>
<path d="M258.96 98.2402C268.23 99.1222 281.25 98.8602 289.69 102.527C292.05 103.555 293.59 104.245 294.63 106.694C294.18 107.491 294.29 107.457 293.42 108.087C289.25 111.083 285.18 110.06 280.49 109.338L280.46 137.864C280.48 140.343 280.3 142.619 280 145.07C278.5 147.207 277.8 148.631 275.21 149.488L273.75 148.44C268.98 138.188 271.8 120.124 272.15 108.691C268.2 108.192 264.12 108.105 260.69 105.931C258.75 103.264 258.91 101.369 258.96 98.2402Z" fill="#13120E"/>
<path d="M294.42 58.9104C279.15 33.4484 264.44 45.1614 249.68 39.0344C248.08 36.5254 248.17 36.7214 248.26 33.7374L249.71 32.4294C254.22 31.7404 286.73 37.7384 294.39 39.0344C343.53 47.3484 392.84 52.7504 442.16 59.5774C439.42 86.8124 436.41 114.018 433.12 141.192L432.75 141.174C431.06 139.413 431.4 132.449 431.24 129.21C430.93 113.34 433.85 83.6844 431.32 67.2324C430.61 62.5924 416.46 60.0394 411.16 59.7104C393.07 58.5874 314.82 43.0434 303.06 48.3514C309.5 53.4774 409.79 65.4714 426.5 68.1594C425.31 85.7434 425.43 107.688 425.28 125.465C424.35 132.755 424.39 138.103 424.36 145.485L421.35 145.916C420.08 133.233 417.57 92.7784 413.55 81.4454C410.79 73.6504 372.34 70.0794 362.39 68.7204C339.69 65.7784 317.03 62.5084 294.42 58.9104Z" fill="#F2F1E8"/>
<path d="M425.28 125.465C425.53 130.476 425.54 174.724 424.53 176.96C423.06 174.441 423.46 173.738 423.72 170.785C423.8 167.18 421.76 150.74 421.35 145.916L424.36 145.485C424.39 138.103 424.35 132.755 425.28 125.465Z" fill="#575652"/>
<path d="M424.36 145.485C424.3 153.98 424.32 162.297 423.72 170.785C423.8 167.18 421.76 150.74 421.35 145.916L424.36 145.485Z" fill="#FDFDFB"/>
<path d="M430.22 156.898C430.35 147.765 430.29 138.262 431.24 129.21C431.4 132.449 431.06 139.413 432.75 141.174L433.12 141.192C432.96 143.74 432.51 148.632 432.58 150.984L430.22 156.898Z" fill="#BCBBB7"/>
<path d="M432.58 150.984C431.88 158.615 431.09 166.238 430.22 173.851C429.48 168.959 428.64 161.651 430.22 156.898L432.58 150.984Z" fill="#575652"/>
<path d="M18.3101 238.334C22.3901 233.268 66.16 215.317 73.58 212.357C83.77 208.294 150.7 176.429 157.11 178.058L158.26 179.64C157.22 182.03 156.01 183.128 153.46 184.172C112.49 200.958 72.47 221.31 31.3 237.448L29.5101 238.147C62.7401 253.382 95.8101 268.989 128.69 284.963C145.51 293.059 171.56 304.868 186.93 314.057C216.39 297.242 245.99 280.694 275.75 264.415C284.12 259.823 307.35 248.421 313.32 244.069L313.72 243.941C314.19 241.372 314.05 241.327 314 238.656C316.86 240.628 317.98 240.983 319.06 244.27C317.46 251.938 301.1 258.128 294.6 262.092C299.39 264.058 304.21 265.463 307.7 269.093C310.47 277.064 295.67 281.688 289.32 284.196C294.15 286.812 301.76 289.909 303.51 294.824C298.07 302.078 143.53 363.955 123.29 370.259C120.45 371.219 117.89 371.896 115.43 370.292C76.85 344.166 39.22 307.105 1.48004 278.953C-0.279965 277.642 3.30247e-05 277.184 0.040033 275.275C3.01003 273.182 1.33006 273.808 5.44006 273.932C5.29006 270.393 3.26002 272.631 2.03002 267.924C7.56002 264.189 18.75 260.384 25.34 258.12L29.43 256.155C24.62 252.634 20.86 250.114 16.68 245.801C15.68 242.9 15.14 246.47 15.04 241.263L17.17 239.515L17.73 239.758L18.3101 238.334Z" fill="#B5604A"/>
<path d="M18.3101 238.334C22.3901 233.268 66.16 215.317 73.58 212.357C83.77 208.294 150.7 176.429 157.11 178.058L158.26 179.64C157.22 182.03 156.01 183.128 153.46 184.172C112.49 200.958 72.47 221.31 31.3 237.448L29.5101 238.147C62.7401 253.382 95.8101 268.989 128.69 284.963C145.51 293.059 171.56 304.868 186.93 314.057C216.39 297.242 245.99 280.694 275.75 264.415C284.12 259.823 307.35 248.421 313.32 244.069L313.72 243.941C314.19 241.372 314.05 241.327 314 238.656C316.86 240.628 317.98 240.983 319.06 244.27C317.46 251.938 301.1 258.128 294.6 262.092C299.39 264.058 304.21 265.463 307.7 269.093C310.47 277.064 295.67 281.688 289.32 284.196C286.3 286.12 284.54 285.942 282.22 287.295C271.07 293.922 188.58 334.95 181.89 336.257C178.98 336.468 176.07 336.878 173.21 337.485L171.22 337.928L170.85 337.203L174.02 334.261C168.78 336.199 168.58 336.548 163.92 334.135C148.49 321.486 117.37 303.688 99.5001 292.011C78.1301 279.408 56.37 264.301 35.02 251.018C32.49 255.732 32.4101 253.503 29.4301 256.155C24.6201 252.634 20.8601 250.114 16.6801 245.801C15.6801 242.9 15.14 246.47 15.04 241.263L17.17 239.515L17.73 239.758L18.3101 238.334Z" fill="#19140F"/>
<path d="M99.5001 292.011C98.9901 288.253 98.3201 287.456 96.0801 284.316L96.3301 283.035C104.56 283.002 110.76 292.97 122.65 289.762C135.42 295.972 177.85 317.414 188.89 320.251C188.37 322.741 187.98 324.735 187.29 327.201C184.48 328.585 175.83 332.503 174.02 334.261C168.78 336.199 168.58 336.548 163.92 334.135C148.49 321.486 117.37 303.688 99.5001 292.011Z" fill="#ECC7AC"/>
<path d="M289.91 264.461C294.55 267.921 296 268.652 301.28 271.111C280.32 281.032 259.42 291.079 238.58 301.253C221.71 309.671 204.23 319.19 187.29 327.201C187.98 324.735 188.37 322.741 188.89 320.251C222.21 301.417 256.82 283.594 289.91 264.461Z" fill="#F2F1E8"/>
<path d="M16.6801 245.801C15.6801 242.9 15.14 246.47 15.04 241.263L17.17 239.515L17.73 239.758L18.3101 238.334C26.7601 245.178 54.7 257.289 66.15 262.65C85.05 271.542 103.89 280.58 122.65 289.762C110.76 292.97 104.56 283.002 96.33 283.035L96.08 284.316C98.32 287.456 98.9901 288.253 99.5001 292.011C78.1301 279.408 56.37 264.301 35.02 251.018C32.49 255.732 32.4101 253.503 29.4301 256.155C24.6201 252.634 20.8601 250.114 16.6801 245.801Z" fill="#DFBBA7"/>
<path d="M16.6802 245.801C24.6102 241.795 28.3501 246.362 35.0201 251.018C32.4901 255.732 32.4102 253.503 29.4302 256.155C24.6202 252.634 20.8602 250.114 16.6802 245.801Z" fill="#13120E"/>
<path d="M35.0203 251.018C56.3703 264.301 78.1303 279.408 99.5003 292.011C117.37 303.688 148.49 321.486 163.92 334.135C159.42 335.567 160.38 334.948 155 333.625C148.82 336.953 141.6 341.786 135.55 345.613C96.3303 320.108 52.6203 294.004 12.4803 269.659L7.92029 274.539C7.09029 274.369 6.18031 274.258 5.44031 273.932C5.29031 270.393 3.26027 272.631 2.03027 267.924C7.56027 264.189 18.7503 260.384 25.3403 258.12L29.4303 256.155C32.4103 253.503 32.4903 255.732 35.0203 251.018Z" fill="#F2F1E8"/>
<path d="M35.0203 251.018C56.3703 264.301 78.1304 279.408 99.5004 292.011C117.37 303.688 148.49 321.486 163.92 334.135C159.42 335.567 160.38 334.948 155 333.625C143.32 327.873 125.48 316.43 114.21 309.429C88.3903 293.328 62.7604 276.93 37.3204 260.24L27.9404 263.095C28.2804 260.939 28.7803 261.227 30.7903 259.007L29.7203 258.35L29.9404 259.204L29.6703 259.192C27.5503 257.406 28.8103 258.061 25.3403 258.12L29.4304 256.155C32.4104 253.503 32.4903 255.732 35.0203 251.018Z" fill="#1E130D"/>
<path d="M12.48 269.659C52.62 294.004 96.33 320.108 135.55 345.613C141.6 341.786 148.82 336.953 155 333.625C160.38 334.948 159.42 335.567 163.92 334.135C168.58 336.548 168.78 336.199 174.02 334.261L170.85 337.203L171.22 337.928L173.21 337.485C176.07 336.878 178.98 336.468 181.89 336.257C176.8 338.647 174.52 339.436 169.18 341.123C166.26 339.491 163.36 337.837 160.47 336.162C153.07 341.293 143.3 347.826 135.21 351.895C125.28 347.329 106.92 335.542 97.1 329.592L7.06005 274.021C13.6701 281.523 45.86 306.434 55.61 314.238C66.15 322.664 89.02 342.284 99.42 349.436C101.64 351.609 101.84 351.892 104.44 353.514L105.43 354.59C109.49 358.927 119.87 363.685 115.43 370.292C76.85 344.166 39.22 307.105 1.48004 278.953C-0.279965 277.642 3.30247e-05 277.184 0.040033 275.275C3.01003 273.182 1.33006 273.808 5.44006 273.932C6.18006 274.258 7.09004 274.369 7.92004 274.539L12.48 269.659Z" fill="#21110C"/>
<path d="M282.22 287.295C284.54 285.942 286.3 286.12 289.32 284.196C294.15 286.812 301.76 289.909 303.51 294.824C298.07 302.078 143.53 363.955 123.29 370.259L120.47 369.551L119.77 368.082C122.02 364.024 138.65 358.26 143.8 356.193C146.03 355.569 149.03 354.084 151.24 353.106C167.38 347.598 182.33 339.746 198.1 333.659C230.56 321.13 264.17 304.651 297.33 294.619C292.19 292.364 286.99 290.259 282.22 287.295Z" fill="#21110C"/>
<path d="M99.4202 349.436C94.4502 340.868 70.3602 325.252 68.9902 317.976C75.2902 318.21 128.18 349.852 131.91 356.711L131.79 358.351C130.91 358.887 119.93 362.995 118.21 362.882C112.52 358.362 112.39 357.182 105.62 353.264L104.44 353.514C101.84 351.892 101.64 351.609 99.4202 349.436Z" fill="#F03906"/>
<path d="M143.8 356.193C141.48 354.892 138.88 355.347 136.1 355.425C139.98 349.332 158.91 341.11 166.5 340.796L167.13 343.06C162.34 349.631 157.18 346.561 151.24 353.106C149.03 354.084 146.03 355.569 143.8 356.193Z" fill="#C72707"/>
<path d="M313.32 244.07C292.28 233.974 162.79 185.109 158.92 177.676L159.47 177.15C162.31 176.801 167.79 177.035 170.3 178.147C217.43 199.023 268.01 215.355 314 238.657C314.05 241.328 314.19 241.373 313.72 243.942L313.32 244.07Z" fill="#171614"/>
<path d="M262.56 235.822C267.45 238.815 269.16 240.252 273.43 243.899C269.03 247.594 267.68 248.527 262.64 251.306C254.37 256.839 242.78 262.723 233.85 267.897C228.34 270.44 225.92 270.236 221.2 266.823C217.85 259.279 229.37 254.276 234.96 250.911C243.86 245.554 253.24 240.408 262.56 235.822Z" fill="#F03906"/>
<path d="M262.56 235.822C267.45 238.815 269.16 240.252 273.43 243.899C269.03 247.594 267.68 248.527 262.64 251.306C264.15 247.667 264.82 247.482 268.2 245.455L268.88 243.609C266.09 240.562 266.21 240.714 262.45 238.892C255.74 242.297 223.98 258.617 222.68 264.372C225.68 267.356 229.5 267.38 233.85 267.897C228.34 270.44 225.92 270.236 221.2 266.823C217.85 259.279 229.37 254.276 234.96 250.911C243.86 245.554 253.24 240.408 262.56 235.822Z" fill="#B5604A"/>
<path d="M194.23 93.8955C195.73 93.5895 197.25 93.4855 198.77 93.3335L200.72 95.0445L200.6 96.5605C192.56 104.468 124.88 116.855 110.63 119.346C108.13 119.627 106.46 120.038 104.12 118.921L103.5 117.167C108.68 111.353 182.06 96.5865 194.23 93.8955Z" fill="#171614"/>
<path d="M161.19 226.045L162.22 225.559C170.54 221.582 186.46 210.908 194.14 210.696C200.96 213.785 198.36 220.865 204.85 219.412C204.58 217.094 204.61 217.082 203.74 214.927C206.55 214.496 206.07 214.984 209.22 217.006C208.46 221.826 178.98 234.474 173.64 235.136C173.29 234.671 171.57 231.191 171.11 230.347C166.93 231.014 165.71 231.368 161.58 230.988C159.16 228.476 159.72 229.92 159.65 226.586L161.19 226.045Z" fill="#B5604A"/>
<path d="M161.19 226.046L161.9 228.317C171.59 231.832 184.96 214.563 193.92 216.483C195.22 218.946 195.16 217.692 194.51 220.273C188.45 223.352 174.02 228.434 173.64 235.137C173.29 234.672 171.57 231.192 171.11 230.348C166.93 231.015 165.71 231.369 161.58 230.989C159.16 228.477 159.72 229.92 159.65 226.586L161.19 226.046Z" fill="#DED2C0"/>
<path d="M230.11 224.428C231.99 224.843 231.18 224.355 232.42 226.052C229.36 232.066 158.16 270.65 147.96 274.259C145.58 273.197 146.47 274.01 145.2 271.929C154.94 262.822 215.88 229.949 230.11 224.428Z" fill="#B5604A"/>
<path d="M239.43 232.429L242.25 232.439L242.65 233.664C233.75 242.535 177.4 273.171 162.96 280.59C161.11 280.787 162.15 280.862 159.9 279.957L160.47 278.209C183.94 261.407 213.22 244.507 239.43 232.429Z" fill="#B5604A"/>
<path d="M137.3 244.637L139.11 244.52C143.66 244.198 143.75 242.566 148.76 243.931C151.96 246.583 153.21 248.497 155.77 251.818C150.67 252.121 142.33 251.76 138.76 254.747C137.43 256.912 136.85 256.988 134.69 258.448C128.45 262.984 125.26 264.509 117.83 262.063C114.87 259.173 115.72 260.875 115.18 256.779C116.39 252.917 117.67 252.523 121.02 250.216C132.2 257.155 125.74 248.149 137.3 244.637Z" fill="#B5604A"/>
<path d="M137.3 244.637L139.11 244.52C143.66 244.198 143.75 242.566 148.76 243.931C151.96 246.583 153.21 248.497 155.77 251.818C150.67 252.121 142.33 251.76 138.76 254.747C136.27 254.07 133.96 253.27 132.59 251.127C134.14 249 134.58 248.927 137.08 248.12L137.3 244.637Z" fill="#A47465"/>
<path d="M142.71 245.222C143.01 245.331 143.32 245.418 143.61 245.55C146.19 246.717 146.52 246.778 147.5 249.319C146.47 249.947 147.11 249.735 145.47 249.519L142.71 245.222Z" fill="#DFBBA7"/>
<path d="M121.02 250.215C132.2 257.154 125.74 248.148 137.3 244.636L137.08 248.119C134.58 248.926 134.14 248.999 132.59 251.126C133.96 253.269 136.27 254.069 138.76 254.746C137.43 256.911 136.85 256.987 134.69 258.447C129.79 255.354 128.69 256.492 124.15 258.527C121.4 256.207 121.91 254.57 121.02 250.215Z" fill="#DED2C0"/>
<path d="M80.4902 238.082C78.8802 229.966 91.8301 235.525 96.5801 229.098C100.36 223.979 105.79 221.688 112.12 221.402C114.89 222.559 115.1 222.381 117.05 224.565C118.15 233.208 111.68 236.93 105.43 231.956C96.3002 234.613 101.91 236.073 97.6302 240.738C89.3702 244.616 87.1502 244.936 80.4902 238.082Z" fill="#DED2C0"/>
<path d="M105.43 231.956L104.28 230.27C101.15 230.176 101 230.405 98.2305 229.117C100.32 225.889 102.46 225.049 106.33 225.128C107.32 226.414 107.77 227.046 108.66 228.458L109.39 229.662C112.22 230.328 111.16 230.673 113.06 229.631C111.87 227.359 111.51 227.129 111.26 224.634C113.86 223.384 113.58 223.941 117.05 224.565C118.15 233.208 111.68 236.93 105.43 231.956Z" fill="#A47465"/>
<path d="M80.4902 238.082C83.4902 234.937 82.2702 235.371 86.0002 234.28C88.4102 236.173 88.3502 236.448 90.0302 239.099C93.1102 238.091 91.6002 235.79 95.8902 234.059C98.7002 235.761 98.2102 237.815 97.6302 240.738C89.3702 244.616 87.1502 244.936 80.4902 238.082Z" fill="#B5604A"/>
<path d="M164.93 198.496C166.23 198.459 167.27 198.77 168.54 199.075L168.57 200.373C161.63 207.369 147.84 211.693 138.74 215.68L135.76 215.936L134.55 214.742C134.66 214.453 134.74 214.144 134.89 213.875C137.94 208.544 159.03 200.847 164.93 198.496Z" fill="#B5604A"/>
<path d="M180.77 203.44C182.34 204.215 181.57 203.63 182.86 205.483C177.98 211.852 162.55 217.219 155 220.783C152.88 220.173 153.79 220.747 152.29 218.984C154.84 212.943 174.83 206.027 180.77 203.44Z" fill="#A47465"/>
<path d="M127.26 234.934C128.55 234.287 129.5 234.435 130.91 234.929C133.43 235.813 134.04 236.281 135.01 238.565C133.33 241.892 131.15 241.998 127.78 243.406C125.97 243.771 126.45 243.855 124.58 243.483C121.5 242.87 119.88 242.105 118.22 239.559L118.83 237.252C121.35 235.082 124.11 235.196 127.26 234.934Z" fill="#B5604A"/>
<path d="M102.41 243.279C103.65 244.056 103.88 244.467 104.64 245.673L102.66 248.713C104.53 250.523 108.29 246.368 111.54 247.142C112.25 249.678 111.68 250.907 111.07 253.433C107.41 254.878 103.64 255.162 100.06 253.214C97.5503 251.848 97.3803 251.243 96.5703 248.702C98.0003 245.591 99.5703 245.094 102.41 243.279Z" fill="#B5604A"/>
</g>
<defs>
<clipPath id="clip0_53_3107">
<rect width="469.217" height="371.255" fill="white"/>
</clipPath>
</defs>
</svg>
