<svg width="810" height="641" viewBox="0 0 810 641" fill="none" xmlns="http://www.w3.org/2000/svg">
<g clip-path="url(#clip0_53_3107)">
<path d="M459.415 46.8217C435.575 -32.3125 563.803 11.6513 598.985 16.812C604.388 17.6063 610.24 39.8221 612.052 45.1227C649.599 50.9533 687.197 56.468 724.847 61.6685C742.576 64.2255 788.823 67.7443 802.72 80.9198C806.811 84.7994 810.73 98.1234 809.884 103.856C794.313 189.673 777.223 275.261 762.584 361.288C761.203 369.372 755.8 392.81 751.519 399.119C728.214 410.703 694.551 399.708 669.175 394.863C631.352 387.677 593.564 380.213 555.845 372.476C538.237 369.004 394.541 346.93 391.589 332.104C376.571 256.787 369.838 176.812 361.051 100.207C354.854 44.7895 390.812 69.426 416.499 65.4601C419.607 56.7754 416.206 52.3795 425.424 47.7609C433.676 43.6223 448.815 46.4297 457.999 48.0752L459.415 46.8217Z" fill="#171614"/>
<path d="M459.414 46.8218L465.923 47.8335L468.322 46.0379C469.824 33.5858 468.736 21.4446 477.558 12.8186C489.106 8.05151 576.163 23.4215 593.564 26.8608C595.98 35.8684 598.138 50.3906 606.994 55.4426C618.319 61.912 775.065 82.2286 802.184 85.9978C801.045 103.982 788.15 154.988 783.765 175.541C773.666 224.138 764.396 272.903 755.972 321.817L752.381 314.957L766.968 183.546C768.816 166.61 775.099 111.872 772.907 96.8579C760.996 86.9422 638.084 74.8976 613.261 70.9006C563.734 62.9238 508.216 57.877 457.999 48.0753L459.414 46.8218Z" fill="#F2F1E8"/>
<path d="M750.932 327.96L752.382 314.958L755.972 321.817L753.107 340.008L750.932 327.96Z" fill="#BCBBB7"/>
<path d="M750.931 327.96L753.106 340.008L753.193 344.114L751.622 345.321C749.136 337.964 749.965 335.975 750.931 327.96Z" fill="#3B3B37"/>
<path d="M377.969 73.4106C413.669 77.2057 451.975 80.1063 486.863 88.3041C492.059 95.3416 496.15 103.574 500.518 111.164C544.59 122.615 675.01 130.887 701.336 145.783C704.167 150.326 705.013 155.497 705.772 160.734C708.431 179.098 729.233 387.269 728.197 389.989C727.817 390.969 726.919 391.662 726.298 392.499C619.338 366.595 509.063 353.352 401.55 329.591C399.979 307.527 395.836 285.099 392.936 263.137C388.12 225.631 383.476 188.098 379.057 150.544C376.554 129.813 371.599 106.347 373.032 85.4915C373.377 80.4758 375.155 77.4836 377.969 73.4106Z" fill="#F2F1E8"/>
<path d="M532.022 179.759L539.393 180.094C545.004 182.833 546.799 186.251 549.199 191.731C556.622 208.724 571.105 251.623 564.839 268.714L562.077 269.683C553.428 264.189 551.425 254.396 548.646 245.21C540.757 243.794 532.747 243 524.806 242.037C523.304 246.602 521.872 252.108 519.144 256.038C515.674 260.998 512.757 262.559 507.06 263.234L511.013 263.505L505.973 260.44C503.798 244.007 522.7 194.395 532.022 179.759Z" fill="#13120E"/>
<path d="M536.786 202.704C541.447 207.671 544.002 221.672 545.055 228.326L542.327 230.234C538.081 229.889 534.611 229.958 531.107 227.239C529.518 219.433 534.266 210.322 536.786 202.704Z" fill="#DED2C0"/>
<path d="M581.031 186.776C582.981 186.958 584.846 187.056 586.762 187.586C596.463 190.292 603.455 210.018 607.443 218.292C611.189 212.83 614.917 207.148 619.164 202.07C622.772 197.747 627.623 193.562 633.371 192.907L635.149 195.836C634.01 210.532 625.845 220.322 617.766 232.128C623.756 244.023 639.034 266.556 635.857 279.573C633.009 279.26 629.867 279.029 627.226 277.838C621.702 275.362 619.026 269.59 616.626 264.427C613.985 258.768 611.085 253.578 607.805 248.268C603.8 253.997 599.813 260.503 594.91 265.484C591.129 269.329 586.313 272.463 580.927 272.594L579.684 268.797C581.859 253.605 589.817 244.327 598.656 232.234C592.079 219.87 578.079 200.705 581.031 186.776Z" fill="#171614"/>
<path d="M447.037 169.619C463.04 171.142 485.516 170.69 500.086 177.021C504.16 178.796 506.818 179.987 508.614 184.216C507.837 185.592 508.027 185.533 506.525 186.621C499.326 191.794 492.3 190.027 484.204 188.781L484.152 238.033C484.187 242.313 483.876 246.243 483.358 250.475C480.769 254.164 479.56 256.623 475.089 258.103L472.569 256.293C464.335 238.592 469.203 207.403 469.807 187.664C462.988 186.802 455.945 186.652 450.024 182.898C446.675 178.293 446.951 175.022 447.037 169.619Z" fill="#13120E"/>
<path d="M508.252 101.713C481.892 57.7511 456.498 77.9745 431.018 67.3958C428.256 63.0638 428.411 63.4022 428.567 58.2501L431.07 55.9918C438.855 54.8022 494.977 65.1581 508.2 67.3958C593.029 81.7505 678.152 91.0775 763.292 102.865C758.562 149.888 753.366 196.861 747.687 243.779L747.048 243.748C744.131 240.708 744.718 228.684 744.441 223.091C743.906 195.691 748.947 144.487 744.579 116.082C743.354 108.07 718.927 103.663 709.778 103.094C678.549 101.156 543.468 74.3176 523.167 83.4823C534.284 92.3327 707.413 113.041 736.259 117.682C734.205 148.042 734.412 185.932 734.153 216.625C732.547 229.212 732.616 238.446 732.565 251.191L727.369 251.936C725.176 230.037 720.843 160.189 713.904 140.622C709.139 127.163 642.764 120.997 625.587 118.651C586.401 113.571 547.283 107.925 508.252 101.713Z" fill="#F2F1E8"/>
<path d="M734.152 216.625C734.584 225.277 734.601 301.675 732.858 305.535C730.32 301.186 731.011 299.972 731.459 294.874C731.598 288.65 728.076 260.265 727.368 251.936L732.564 251.192C732.616 238.446 732.547 229.212 734.152 216.625Z" fill="#575652"/>
<path d="M732.564 251.191C732.461 265.859 732.495 280.219 731.459 294.874C731.598 288.649 728.076 260.265 727.368 251.936L732.564 251.191Z" fill="#FDFDFB"/>
<path d="M742.68 270.897C742.905 255.128 742.801 238.721 744.441 223.092C744.717 228.684 744.13 240.708 747.048 243.749L747.686 243.78C747.41 248.179 746.633 256.625 746.754 260.686L742.68 270.897Z" fill="#BCBBB7"/>
<path d="M746.754 260.686C745.546 273.862 744.182 287.023 742.68 300.168C741.403 291.721 739.953 279.103 742.68 270.897L746.754 260.686Z" fill="#575652"/>
<path d="M31.6083 411.502C38.6515 402.756 114.211 371.762 127.02 366.651C144.61 359.636 260.15 304.619 271.216 307.431L273.201 310.163C271.406 314.289 269.317 316.185 264.915 317.988C194.189 346.97 125.104 382.109 54.0326 409.973L50.9426 411.179C108.307 437.484 165.395 464.43 222.155 492.011C251.191 505.989 296.161 526.378 322.693 542.244C373.55 513.211 424.648 484.64 476.022 456.533C490.471 448.605 530.572 428.918 540.878 421.404L541.568 421.183C542.38 416.748 542.138 416.67 542.052 412.058C546.989 415.463 548.922 416.076 550.787 421.751C548.025 434.991 519.783 445.678 508.562 452.522C516.831 455.917 525.152 458.343 531.176 464.61C535.958 478.373 510.409 486.356 499.447 490.687C507.785 495.203 520.922 500.55 523.943 509.037C514.552 521.561 247.773 628.396 212.833 639.281C207.93 640.938 203.511 642.107 199.264 639.338C132.665 594.229 67.7047 530.241 2.55495 481.634C-0.483297 479.371 5.70099e-05 478.58 0.0691082 475.284C5.19616 471.67 2.29605 472.751 9.39106 472.965C9.13212 466.855 5.62771 470.719 3.50439 462.592C13.0507 456.143 32.3678 449.573 43.744 445.664L50.8045 442.272C42.5011 436.192 36.0103 431.841 28.7944 424.395C27.0681 419.386 26.1359 425.55 25.9633 416.559L29.6403 413.541L30.607 413.961L31.6083 411.502Z" fill="#B5604A"/>
<path d="M31.6083 411.502C38.6516 402.756 114.211 371.762 127.02 366.651C144.611 359.636 260.15 304.619 271.216 307.431L273.201 310.163C271.406 314.289 269.317 316.185 264.915 317.988C194.189 346.97 125.104 382.109 54.0327 409.973L50.9427 411.179C108.307 437.484 165.395 464.43 222.155 492.011C251.191 505.989 296.161 526.378 322.694 542.244C373.55 513.211 424.648 484.64 476.022 456.533C490.471 448.605 530.572 428.918 540.878 421.404L541.568 421.183C542.38 416.748 542.138 416.67 542.052 412.058C546.989 415.463 548.922 416.076 550.787 421.751C548.025 434.991 519.783 445.678 508.562 452.522C516.831 455.917 525.152 458.343 531.176 464.61C535.958 478.373 510.409 486.356 499.447 490.687C494.234 494.008 491.196 493.701 487.191 496.037C467.943 507.479 325.542 578.317 313.993 580.574C308.97 580.938 303.946 581.646 299.009 582.694L295.574 583.459L294.935 582.207L300.407 577.128C291.362 580.474 291.016 581.076 282.972 576.91C256.335 555.07 202.614 524.341 171.765 504.18C134.874 482.42 97.3105 456.336 60.4544 433.402C56.0869 441.541 55.9489 437.693 50.8046 442.272C42.5012 436.192 36.0103 431.841 28.7945 424.395C27.0682 419.386 26.136 425.55 25.9634 416.559L29.6404 413.541L30.6071 413.961L31.6083 411.502Z" fill="#19140F"/>
<path d="M171.765 504.18C170.884 497.691 169.728 496.315 165.861 490.894L166.292 488.682C180.5 488.625 191.203 505.835 211.728 500.296C233.773 511.018 307.019 548.04 326.077 552.938C325.179 557.237 324.506 560.68 323.315 564.938C318.464 567.327 303.532 574.092 300.407 577.127C291.361 580.473 291.016 581.076 282.972 576.91C256.335 555.07 202.613 524.341 171.765 504.18Z" fill="#ECC7AC"/>
<path d="M500.466 456.612C508.476 462.586 510.979 463.848 520.093 468.094C483.911 485.223 447.831 502.57 411.856 520.137C382.733 534.671 352.558 551.106 323.315 564.938C324.506 560.68 325.179 557.237 326.077 552.938C383.597 520.42 443.343 489.647 500.466 456.612Z" fill="#F2F1E8"/>
<path d="M28.7945 424.395C27.0682 419.386 26.136 425.55 25.9634 416.56L29.6404 413.541L30.6071 413.961L31.6083 411.502C46.1954 423.319 94.4276 444.23 114.193 453.486C146.82 468.839 179.343 484.443 211.728 500.297C191.203 505.836 180.5 488.625 166.293 488.682L165.861 490.894C169.728 496.315 170.885 497.691 171.765 504.18C134.874 482.42 97.3105 456.336 60.4544 433.402C56.0869 441.541 55.9489 437.693 50.8046 442.272C42.5012 436.192 36.0103 431.841 28.7945 424.395Z" fill="#DFBBA7"/>
<path d="M60.4548 433.401C97.3109 456.335 134.875 482.419 171.765 504.179C202.614 524.34 256.336 555.07 282.972 576.909C275.204 579.382 276.861 578.313 267.574 576.029C256.905 581.775 244.442 590.119 233.998 596.727C166.293 552.691 90.8374 507.62 21.5445 465.586L13.6727 474.012C12.2399 473.719 10.669 473.527 9.39155 472.964C9.13261 466.854 5.62821 470.718 3.50488 462.591C13.0512 456.142 32.3683 449.573 43.7444 445.664L50.805 442.271C55.9493 437.692 56.0873 441.54 60.4548 433.401Z" fill="#F2F1E8"/>
<path d="M60.455 433.401C97.3111 456.335 134.875 482.419 171.766 504.179C202.614 524.34 256.336 555.07 282.972 576.909C275.204 579.382 276.861 578.313 267.574 576.029C247.411 566.097 216.614 546.34 197.159 534.252C152.587 506.453 108.342 478.14 64.4255 449.324L48.233 454.253C48.82 450.531 49.6831 451.028 53.1529 447.195L51.3057 446.061L51.6856 447.535L51.2194 447.514C47.5597 444.431 49.7348 445.562 43.7446 445.664L50.8052 442.271C55.9495 437.692 56.0875 441.54 60.455 433.401Z" fill="#1E130D"/>
<path d="M21.544 465.587C90.8369 507.62 166.293 552.691 233.997 596.727C244.441 590.12 256.905 581.775 267.573 576.029C276.861 578.313 275.204 579.382 282.972 576.91C291.016 581.076 291.361 580.473 300.407 577.127L294.935 582.207L295.574 583.459L299.009 582.694C303.946 581.646 308.969 580.938 313.993 580.573C305.206 584.7 301.27 586.062 292.052 588.975C287.011 586.157 282.005 583.301 277.016 580.409C264.242 589.268 247.376 600.548 233.41 607.574C216.268 599.69 184.574 579.339 167.622 569.066L12.1876 473.118C23.5983 486.071 79.1672 529.082 95.9985 542.556C114.193 557.104 153.673 590.98 171.627 603.328C175.459 607.08 175.804 607.568 180.293 610.369L182.002 612.227C189.01 619.715 206.929 627.93 199.264 639.337C132.665 594.229 67.7047 530.24 2.55495 481.634C-0.483297 479.37 5.70099e-05 478.579 0.0691082 475.283C5.19616 471.67 2.29605 472.75 9.39106 472.965C10.6685 473.527 12.2394 473.719 13.6722 474.013L21.544 465.587Z" fill="#21110C"/>
<path d="M487.19 496.037C491.195 493.701 494.234 494.008 499.447 490.687C507.785 495.203 520.922 500.55 523.943 509.037C514.552 521.561 247.773 628.396 212.833 639.281L207.965 638.058L206.756 635.522C210.64 628.516 239.349 618.564 248.239 614.995C252.088 613.917 257.267 611.353 261.082 609.665C288.945 600.155 314.752 586.598 341.976 576.088C398.011 554.456 456.031 526.004 513.274 508.683C504.401 504.789 495.425 501.155 487.19 496.037Z" fill="#21110C"/>
<path d="M171.627 603.328C163.047 588.535 121.461 561.572 119.096 549.01C129.972 549.414 221.275 604.046 227.714 615.889L227.507 618.72C225.987 619.646 207.033 626.738 204.064 626.543C194.241 618.739 194.017 616.702 182.33 609.937L180.293 610.369C175.804 607.568 175.459 607.08 171.627 603.328Z" fill="#F03906"/>
<path d="M248.239 614.995C244.234 612.749 239.746 613.534 234.947 613.669C241.645 603.149 274.323 588.953 287.426 588.411L288.513 592.32C280.244 603.665 271.337 598.364 261.083 609.665C257.268 611.353 252.089 613.917 248.239 614.995Z" fill="#C72707"/>
<path d="M540.878 421.405C504.557 403.973 281.022 319.604 274.341 306.77L275.29 305.862C280.193 305.26 289.653 305.664 293.986 307.584C375.345 343.628 462.661 371.826 542.052 412.059C542.139 416.67 542.38 416.748 541.569 421.184L540.878 421.405Z" fill="#171614"/>
<path d="M453.252 407.165C461.693 412.333 464.645 414.814 472.017 421.111C464.421 427.49 462.09 429.101 453.39 433.899C439.114 443.452 419.106 453.612 403.69 462.545C394.179 466.936 390.001 466.583 381.853 460.691C376.07 447.665 395.957 439.027 405.607 433.217C420.97 423.968 437.163 415.083 453.252 407.165Z" fill="#F03906"/>
<path d="M453.252 407.165C461.693 412.333 464.645 414.814 472.017 421.111C464.421 427.49 462.09 429.101 453.39 433.899C455.997 427.616 457.153 427.297 462.988 423.797L464.162 420.61C459.346 415.349 459.553 415.611 453.062 412.466C441.479 418.345 386.652 446.522 384.408 456.459C389.587 461.611 396.181 461.652 403.69 462.545C394.179 466.936 390.001 466.583 381.853 460.691C376.07 447.665 395.957 439.027 405.607 433.217C420.97 423.968 437.163 415.083 453.252 407.165Z" fill="#B5604A"/>
<path d="M278.26 390.284L280.038 389.445C294.4 382.579 321.883 364.149 335.14 363.783C346.914 369.117 342.425 381.341 353.629 378.832C353.163 374.83 353.215 374.809 351.713 371.088C356.564 370.344 355.735 371.187 361.173 374.678C359.861 383 308.97 404.838 299.752 405.981C299.147 405.178 296.178 399.169 295.384 397.712C288.168 398.864 286.062 399.475 278.933 398.819C274.755 394.482 275.722 396.975 275.601 391.218L278.26 390.284Z" fill="#B5604A"/>
<path d="M278.26 390.285L279.485 394.206C296.213 400.274 319.293 370.458 334.761 373.773C337.005 378.026 336.901 375.862 335.779 380.319C325.318 385.635 300.408 394.408 299.752 405.981C299.147 405.178 296.178 399.169 295.384 397.712C288.168 398.864 286.062 399.475 278.933 398.819C274.755 394.482 275.722 396.975 275.601 391.219L278.26 390.285Z" fill="#DED2C0"/>
<path d="M397.235 387.492C400.48 388.209 399.082 387.366 401.222 390.296C395.94 400.68 273.029 467.298 255.421 473.529C251.312 471.696 252.849 473.099 250.656 469.506C267.47 453.782 372.67 397.025 397.235 387.492Z" fill="#B5604A"/>
<path d="M413.324 401.307L418.192 401.324L418.882 403.439C403.518 418.755 306.243 471.651 281.315 484.46C278.122 484.8 279.917 484.93 276.033 483.367L277.017 480.349C317.532 451.339 368.078 422.16 413.324 401.307Z" fill="#B5604A"/>
<path d="M237.018 422.384L240.143 422.182C247.997 421.626 248.153 418.808 256.801 421.165C262.326 425.743 264.483 429.048 268.903 434.782C260.099 435.305 245.702 434.682 239.539 439.839C237.243 443.577 236.241 443.708 232.513 446.229C221.741 454.061 216.234 456.694 203.408 452.471C198.298 447.481 199.765 450.42 198.833 443.348C200.922 436.68 203.131 435.999 208.914 432.016C228.214 443.997 217.063 428.447 237.018 422.384Z" fill="#B5604A"/>
<path d="M237.019 422.384L240.143 422.182C247.998 421.626 248.153 418.808 256.802 421.165C262.326 425.743 264.484 429.048 268.903 434.782C260.099 435.305 245.702 434.682 239.539 439.839C235.24 438.67 231.253 437.289 228.888 433.589C231.563 429.917 232.323 429.791 236.639 428.397L237.019 422.384Z" fill="#A47465"/>
<path d="M246.357 423.395C246.875 423.583 247.41 423.733 247.911 423.961C252.365 425.976 252.935 426.081 254.626 430.468C252.848 431.553 253.953 431.187 251.122 430.814L246.357 423.395Z" fill="#DFBBA7"/>
<path d="M208.915 432.015C228.214 443.996 217.063 428.447 237.018 422.383L236.639 428.396C232.323 429.79 231.563 429.916 228.888 433.588C231.253 437.288 235.24 438.67 239.539 439.838C237.243 443.576 236.242 443.708 232.513 446.228C224.054 440.888 222.155 442.853 214.318 446.367C209.571 442.361 210.451 439.535 208.915 432.015Z" fill="#DED2C0"/>
<path d="M138.949 411.067C136.169 397.054 158.524 406.652 166.724 395.555C173.25 386.717 182.623 382.761 193.551 382.268C198.333 384.265 198.695 383.958 202.061 387.729C203.96 402.651 192.791 409.078 182.002 400.49C166.241 405.077 175.925 407.598 168.537 415.653C154.278 422.348 150.446 422.901 138.949 411.067Z" fill="#DED2C0"/>
<path d="M182.002 400.49L180.017 397.579C174.614 397.417 174.355 397.812 169.573 395.589C173.181 390.015 176.875 388.565 183.556 388.701C185.265 390.922 186.042 392.013 187.578 394.451L188.838 396.53C193.724 397.68 191.894 398.275 195.174 396.476C193.12 392.553 192.498 392.156 192.067 387.848C196.555 385.69 196.072 386.652 202.062 387.729C203.961 402.652 192.792 409.078 182.002 400.49Z" fill="#A47465"/>
<path d="M138.949 411.067C144.128 405.637 142.022 406.386 148.461 404.502C152.621 407.771 152.517 408.245 155.417 412.823C160.734 411.082 158.128 407.109 165.533 404.121C170.384 407.059 169.538 410.606 168.537 415.652C154.278 422.348 150.446 422.901 138.949 411.067Z" fill="#B5604A"/>
<path d="M312.059 351.255C314.77 352.593 313.44 351.583 315.667 354.783C307.243 365.779 280.607 375.046 267.573 381.199C263.914 380.146 265.484 381.137 262.895 378.093C267.297 367.663 301.805 355.722 312.059 351.255Z" fill="#A47465"/>
<path d="M219.687 405.632C221.914 404.515 223.553 404.771 225.988 405.624C230.338 407.15 231.391 407.958 233.065 411.901C230.165 417.646 226.402 417.829 220.584 420.26C217.46 420.89 218.288 421.035 215.06 420.393C209.743 419.334 206.947 418.013 204.081 413.618L205.134 409.633C209.484 405.886 214.249 406.085 219.687 405.632Z" fill="#B5604A"/>
<path d="M176.789 420.04C178.93 421.382 179.327 422.091 180.638 424.173L177.221 429.422C180.449 432.547 186.939 425.373 192.55 426.71C193.776 431.088 192.792 433.21 191.739 437.572C185.42 440.067 178.912 440.557 172.732 437.194C168.399 434.835 168.106 433.79 166.708 429.403C169.176 424.032 171.886 423.174 176.789 420.04Z" fill="#B5604A"/>
<path d="M28.7944 424.394C42.4838 417.477 48.9401 425.362 60.4543 433.401C56.0868 441.54 55.9488 437.692 50.8045 442.271C42.5011 436.192 36.0103 431.841 28.7944 424.394Z" fill="#13120E"/>
<path d="M335.295 162.118C337.885 161.589 340.509 161.41 343.132 161.147L346.499 164.102L346.292 166.719C332.412 180.373 215.578 201.76 190.978 206.061C186.662 206.546 183.78 207.254 179.74 205.325L178.67 202.297C187.612 192.259 314.286 166.764 335.295 162.118Z" fill="#171614"/>
<path d="M284.716 342.719C286.96 342.655 288.755 343.192 290.948 343.718L291 345.959C279.019 358.038 255.214 365.504 239.505 372.388L234.36 372.83L232.271 370.768C232.461 370.269 232.599 369.736 232.858 369.272C238.124 360.067 274.531 346.778 284.716 342.719Z" fill="#B5604A"/>
</g>
<defs>
<clipPath id="clip0_53_3107">
<rect width="810" height="641" fill="white"/>
</clipPath>
</defs>
</svg>
