<svg width="128" height="24" viewBox="0 0 128 24" fill="none" xmlns="http://www.w3.org/2000/svg">
<path d="M123.725 16.8982V15.6243C118.28 16.1215 116.069 16.8982 116.069 18.7934C116.069 20.2537 117.319 21.1237 119.24 21.1237C122.059 21.1237 123.725 19.7566 123.725 16.8982ZM118.408 23.8889C114.66 23.8889 112.033 21.9315 112.033 18.8867C112.033 14.6923 117.351 13.698 123.629 13.0456V12.7349C123.629 9.87645 121.963 9.0065 120.041 9.0065C118.119 9.0065 116.678 10.0007 116.582 12.0203H112.834C113.09 8.63367 116.005 6.27237 120.169 6.27237C124.301 6.27237 127.537 8.10548 127.44 13.4495C127.44 14.2573 127.376 16.2457 127.376 17.7682C127.376 19.8809 127.537 22.0868 127.889 23.485H124.397C124.269 22.7704 124.173 22.3665 124.077 21.2169C122.956 23.05 120.97 23.8889 118.408 23.8889Z" fill="black"/>
<path d="M110.104 11.3367H106.516C106.1 9.81433 104.658 9.224 102.736 9.224C101.071 9.224 99.5332 9.93861 99.5332 11.0571C99.5332 12.1756 100.334 12.7659 101.839 13.0456L104.274 13.5116C107.765 14.1641 110.424 15.2205 110.424 18.4828C110.424 21.9626 107.028 23.8889 103.121 23.8889C98.8925 23.8889 96.0738 21.5276 95.6574 18.3896H99.373C99.7253 20.1295 100.975 21.0926 103.249 21.0926C105.267 21.0926 106.708 20.2848 106.708 18.9177C106.708 17.5507 105.427 16.9604 103.729 16.6186L101.135 16.1215C98.2199 15.5311 95.9456 14.3194 95.9456 11.2435C95.9456 8.29191 99.2449 6.39666 102.961 6.39666C106.324 6.39666 109.399 7.98122 110.104 11.3367Z" fill="black"/>
<path d="M81.0285 15.1583C81.0285 19.011 83.1426 20.8751 85.577 20.8751C88.0114 20.8751 90.1254 19.011 90.1254 15.1583C90.1254 11.3057 88.0114 9.41042 85.577 9.41042C83.1426 9.41042 81.0285 11.3057 81.0285 15.1583ZM85.577 6.39666C89.7731 6.39666 94.0653 9.1308 94.0653 15.1583C94.0653 21.2169 89.7731 23.8889 85.577 23.8889C81.3809 23.8889 77.0887 21.2169 77.0887 15.1583C77.0887 9.1308 81.3809 6.39666 85.577 6.39666Z" fill="black"/>
<path d="M70.7672 9.00652V0.959471H74.579V23.485H70.7672V21.279C69.7422 22.9257 67.9485 23.8889 65.6422 23.8889C61.5422 23.8889 58.1469 20.5023 58.1469 15.1272C58.1469 9.78326 61.5422 6.39666 65.6422 6.39666C67.9485 6.39666 69.7422 7.35982 70.7672 9.00652ZM70.9274 15.1272C70.9274 11.2746 68.9415 9.41042 66.475 9.41042C63.9125 9.41042 62.1188 11.6474 62.1188 15.1272C62.1188 18.7003 63.9125 20.8751 66.475 20.8751C68.9415 20.8751 70.9274 18.9799 70.9274 15.1272Z" fill="black"/>
<path d="M44.9222 6.7695V9.09972C45.9152 7.35982 47.7089 6.39666 50.1433 6.39666C54.3074 6.39666 56.0051 9.00652 56.0051 12.9834V23.485H52.1933V13.8845C52.1933 11.6164 51.873 9.41042 48.9261 9.41042C45.9793 9.41042 44.9222 11.5853 44.9222 14.5991V23.485H41.1105V6.7695H44.9222Z" fill="black"/>
<path d="M34.181 16.8982V15.6243C28.7356 16.1215 26.5255 16.8982 26.5255 18.7934C26.5255 20.2537 27.7747 21.1237 29.6966 21.1237C32.5153 21.1237 34.181 19.7566 34.181 16.8982ZM28.8638 23.8889C25.1161 23.8889 22.4895 21.9315 22.4895 18.8867C22.4895 14.6923 27.8067 13.698 34.0849 13.0456V12.7349C34.0849 9.87645 32.4192 9.0065 30.4974 9.0065C28.5755 9.0065 27.1341 10.0007 27.038 12.0203H23.2903C23.5466 8.63367 26.4614 6.27237 30.6255 6.27237C34.7575 6.27237 37.9927 8.10548 37.8966 13.4495C37.8966 14.2573 37.8325 16.2457 37.8325 17.7682C37.8325 19.8809 37.9927 22.0868 38.345 23.485H34.8536C34.7255 22.7704 34.6294 22.3665 34.5333 21.2169C33.4122 23.05 31.4263 23.8889 28.8638 23.8889Z" fill="black"/>
<path d="M17.1818 15.9972H21.0896C20.0967 21.0615 16.4451 23.8889 11.0638 23.8889C4.27318 23.8889 0.333328 19.2284 0.333328 12.1445C0.333328 5.06066 4.4974 0.555557 11.256 0.555557C16.4131 0.555557 20.0967 3.3829 21.0256 8.44725H17.1178C16.381 5.37136 14.1709 3.7868 11.1279 3.7868C7.44429 3.7868 4.52943 6.70735 4.52943 12.1445C4.52943 17.6128 7.38022 20.6576 11.0959 20.6576C14.267 20.6576 16.4451 19.1042 17.1818 15.9972Z" fill="black"/>
</svg>
